<svg xmlns="http://www.w3.org/2000/svg" width="960" height="520" viewBox="0 0 960 520" role="img" aria-labelledby="title desc">
  <title id="title">BFGS line search visualization</title>
  <desc id="desc">A Python-generated chart of phi alpha, the Rosenbrock objective restricted to one BFGS search line, showing rejected step lengths and the accepted step length.</desc>
  <defs>
    <style>
      .title { font: 700 25px Inter, Arial, sans-serif; fill: #172033; }
      .body { font: 14px Inter, Arial, sans-serif; fill: #5f6b7a; }
      .label { font: 700 14px Inter, Arial, sans-serif; }
      .small { font: 12px Inter, Arial, sans-serif; fill: #5f6b7a; }
      .axis { font: 700 13px Inter, Arial, sans-serif; fill: #172033; }
    </style>
  </defs>
  <rect width="960" height="520" fill="#ffffff"/>
  <text x="36" y="48" class="title">The curve is phi(alpha), not the full 2D surface</text>
  <text x="36" y="78" class="body">Freeze x_k and p_k. As alpha moves, f is evaluated only on the line x_k + alpha p_k.</text>

  <rect x="48" y="105" width="864" height="352" rx="8" fill="#f8fafc" stroke="#d9e1ea"/>
  <line x1="86.0" y1="386.0" x2="876.0" y2="386.0" stroke="#172033" stroke-width="1.5"/>
  <line x1="86.0" y1="386.0" x2="86.0" y2="116.0" stroke="#172033" stroke-width="1.5"/>
  <line x1="86.0" y1="363.4" x2="876.0" y2="363.4" stroke="#94a3b8" stroke-width="1.2" stroke-dasharray="7 7"/>
  <polyline points="86.0,363.4 95.9,363.4 105.8,363.4 115.6,363.4 125.5,363.4 135.4,363.4 145.2,363.4 155.1,363.4 165.0,363.4 174.9,363.4 184.8,363.4 194.6,363.4 204.5,363.4 214.4,363.4 224.2,363.4 234.1,363.4 244.0,363.4 253.9,363.4 263.8,363.4 273.6,363.4 283.5,363.4 293.4,363.4 303.2,363.4 313.1,363.4 323.0,363.4 332.9,363.4 342.8,363.4 352.6,363.4 362.5,363.4 372.4,363.4 382.2,363.4 392.1,363.4 402.0,363.4 411.9,363.4 421.8,363.4 431.6,363.4 441.5,363.4 451.4,363.4 461.2,363.4 471.1,363.4 481.0,363.4 490.9,363.4 500.8,363.4 510.6,363.4 520.5,363.4 530.4,363.4 540.2,363.4 550.1,363.4 560.0,363.4 569.9,363.4 579.8,363.4 589.6,363.4 599.5,363.4 609.4,363.4 619.2,363.4 629.1,363.4 639.0,363.4 648.9,363.4 658.8,363.4 668.6,363.4 678.5,363.4 688.4,363.4 698.2,363.4 708.1,363.4 718.0,363.4 727.9,363.4 737.8,363.4 747.6,363.4 757.5,363.4 767.4,363.4 777.2,363.4 787.1,363.4 797.0,363.4 806.9,363.4 816.8,363.4 826.6,363.4 836.5,363.4 846.4,363.4 856.2,363.4 866.1,363.4 876.0,363.4" fill="none" stroke="#b45309" stroke-width="1.6" stroke-dasharray="8 6"/>
  <polyline points="86.0,363.4 90.9,363.8 95.9,364.3 100.8,364.7 105.8,365.1 110.7,365.5 115.6,365.9 120.6,366.3 125.5,366.7 130.4,367.1 135.4,367.5 140.3,367.8 145.2,368.2 150.2,368.5 155.1,368.9 160.1,369.2 165.0,369.5 169.9,369.8 174.9,370.1 179.8,370.4 184.8,370.7 189.7,371.0 194.6,371.3 199.6,371.5 204.5,371.7 209.4,372.0 214.4,372.2 219.3,372.4 224.2,372.6 229.2,372.8 234.1,372.9 239.1,373.1 244.0,373.2 248.9,373.3 253.9,373.4 258.8,373.5 263.8,373.6 268.7,373.7 273.6,373.7 278.6,373.8 283.5,373.8 288.4,373.8 293.4,373.8 298.3,373.7 303.2,373.7 308.2,373.6 313.1,373.5 318.1,373.4 323.0,373.3 327.9,373.2 332.9,373.0 337.8,372.8 342.8,372.6 347.7,372.4 352.6,372.2 357.6,371.9 362.5,371.6 367.4,371.3 372.4,371.0 377.3,370.6 382.2,370.3 387.2,369.9 392.1,369.4 397.1,369.0 402.0,368.5 406.9,368.0 411.9,367.5 416.8,367.0 421.8,366.4 426.7,365.8 431.6,365.2 436.6,364.5 441.5,363.8 446.4,363.1 451.4,362.4 456.3,361.6 461.2,360.8 466.2,360.0 471.1,359.1 476.1,358.2 481.0,357.3 485.9,356.3 490.9,355.3 495.8,354.3 500.8,353.3 505.7,352.2 510.6,351.0 515.6,349.9 520.5,348.7 525.4,347.5 530.4,346.2 535.3,344.9 540.2,343.5 545.2,342.2 550.1,340.8 555.1,339.3 560.0,337.8 564.9,336.3 569.9,334.7 574.8,333.1 579.8,331.4 584.7,329.7 589.6,328.0 594.6,326.2 599.5,324.4 604.4,322.5 609.4,320.6 614.3,318.6 619.2,316.6 624.2,314.5 629.1,312.4 634.1,310.3 639.0,308.1 643.9,305.9 648.9,303.6 653.8,301.2 658.8,298.8 663.7,296.4 668.6,293.9 673.6,291.3 678.5,288.7 683.4,286.1 688.4,283.4 693.3,280.6 698.2,277.8 703.2,274.9 708.1,272.0 713.1,269.0 718.0,265.9 722.9,262.8 727.9,259.7 732.8,256.5 737.8,253.2 742.7,249.8 747.6,246.4 752.6,243.0 757.5,239.4 762.4,235.9 767.4,232.2 772.3,228.5 777.2,224.7 782.2,220.9 787.1,216.9 792.1,213.0 797.0,208.9 801.9,204.8 806.9,200.6 811.8,196.3 816.8,192.0 821.7,187.6 826.6,183.1 831.6,178.6 836.5,174.0 841.4,169.3 846.4,164.5 851.3,159.7 856.2,154.8 861.2,149.8 866.1,144.7 871.1,139.5 876.0,134.3" fill="none" stroke="#2563eb" stroke-width="3.4" stroke-linecap="round" stroke-linejoin="round"/>
  <circle cx="86.0" cy="363.4" r="6" fill="#172033"/>
  <text x="96.0" y="353.4" class="label" fill="#172033">current f(x_k)</text>
  <text x="222" y="342" class="label" fill="#2563eb">blue curve: phi(alpha)</text>
  <text x="588" y="354.4" class="label" fill="#b45309">Armijo bound</text>
  
      <line x1="876.0" y1="386.0" x2="876.0" y2="134.3" stroke="#dc2626" stroke-width="1.6" stroke-dasharray="6 6"/>
      <circle cx="876.0" cy="134.3" r="7" fill="#dc2626" stroke="white" stroke-width="2"/>
      <text x="804.0" y="124.3" class="label" fill="#dc2626">alpha=1: reject</text>
    
      <line x1="481.0" y1="386.0" x2="481.0" y2="357.3" stroke="#dc2626" stroke-width="1.6" stroke-dasharray="6 6"/>
      <circle cx="481.0" cy="357.3" r="7" fill="#dc2626" stroke="white" stroke-width="2"/>
      <text x="491.0" y="347.3" class="label" fill="#dc2626">alpha=0.5: reject</text>
    
      <line x1="283.5" y1="386.0" x2="283.5" y2="373.8" stroke="#0f766e" stroke-width="1.6" stroke-dasharray="6 6"/>
      <circle cx="283.5" cy="373.8" r="7" fill="#0f766e" stroke="white" stroke-width="2"/>
      <text x="293.5" y="355.8" class="label" fill="#0f766e">alpha=0.25: accept</text>
    
  
      <line x1="86.0" y1="386.0" x2="86.0" y2="392.0" stroke="#94a3b8" stroke-width="1"/>
      <text x="86.0" y="410.0" text-anchor="middle" class="small">0</text>
    
      <line x1="283.5" y1="386.0" x2="283.5" y2="392.0" stroke="#94a3b8" stroke-width="1"/>
      <text x="283.5" y="410.0" text-anchor="middle" class="small">0.25</text>
    
      <line x1="481.0" y1="386.0" x2="481.0" y2="392.0" stroke="#94a3b8" stroke-width="1"/>
      <text x="481.0" y="410.0" text-anchor="middle" class="small">0.5</text>
    
      <line x1="678.5" y1="386.0" x2="678.5" y2="392.0" stroke="#94a3b8" stroke-width="1"/>
      <text x="678.5" y="410.0" text-anchor="middle" class="small">0.75</text>
    
      <line x1="876.0" y1="386.0" x2="876.0" y2="392.0" stroke="#94a3b8" stroke-width="1"/>
      <text x="876.0" y="410.0" text-anchor="middle" class="small">1</text>
    
  <text x="481.0" y="448" text-anchor="middle" class="axis">step length alpha</text>
  <text x="44" y="250" text-anchor="middle" transform="rotate(-90 44 250)" class="axis">phi(alpha) = f(x_k + alpha p_k)</text>
  <text x="590" y="138" class="small">Backtracking example: alpha = 1, 0.5, then 0.25.</text>
  <text x="590" y="158" class="small">Dashed amber line: Armijo sufficient-decrease bound.</text>
  <text x="590" y="178" class="small">Generated from BFGS iteration 6 on Rosenbrock.</text>
</svg>
