<?xml version="1.0" encoding="utf-8" standalone="no"?>
<!DOCTYPE svg PUBLIC "-//W3C//DTD SVG 1.1//EN"
  "http://www.w3.org/Graphics/SVG/1.1/DTD/svg11.dtd">
<svg xmlns:xlink="http://www.w3.org/1999/xlink" width="532.200469pt" height="407.894062pt" viewBox="0 0 532.200469 407.894062" xmlns="http://www.w3.org/2000/svg" version="1.1">
 <metadata>
  <rdf:RDF xmlns:dc="http://purl.org/dc/elements/1.1/" xmlns:cc="http://creativecommons.org/ns#" xmlns:rdf="http://www.w3.org/1999/02/22-rdf-syntax-ns#">
   <cc:Work>
    <dc:type rdf:resource="http://purl.org/dc/dcmitype/StillImage"/>
    <dc:date>2026-06-10T16:02:20.460343</dc:date>
    <dc:format>image/svg+xml</dc:format>
    <dc:creator>
     <cc:Agent>
      <dc:title>Matplotlib v3.10.8, https://matplotlib.org/</dc:title>
     </cc:Agent>
    </dc:creator>
   </cc:Work>
  </rdf:RDF>
 </metadata>
 <defs>
  <style type="text/css">*{stroke-linejoin: round; stroke-linecap: butt}</style>
 </defs>
 <g id="figure_1">
  <g id="patch_1">
   <path d="M 0 407.894062 
L 532.200469 407.894062 
L 532.200469 0 
L 0 0 
z
" style="fill: #ffffff"/>
  </g>
  <g id="axes_1">
   <g id="patch_2">
    <path d="M 50.700469 370.337812 
L 525.000469 370.337812 
L 525.000469 23.837812 
L 50.700469 23.837812 
z
" style="fill: #ffffff"/>
   </g>
   <g id="patch_3">
    <path d="M 84.57904 370.337812 
L 508.061183 370.337812 
L 508.061183 23.837812 
L 84.57904 23.837812 
z
" clip-path="url(#p1cdb981fa3)" style="fill: #ecfdf5; opacity: 0.26; stroke: #ecfdf5; stroke-linejoin: miter"/>
   </g>
   <g id="patch_4">
    <path d="M 50.700469 359.708978 
L 525.000469 359.708978 
L 525.000469 -171.73274 
L 50.700469 -171.73274 
z
" clip-path="url(#p1cdb981fa3)" style="fill: #ecfdf5; opacity: 0.18; stroke: #ecfdf5; stroke-linejoin: miter"/>
   </g>
   <g id="matplotlib.axis_1">
    <g id="xtick_1">
     <g id="line2d_1">
      <path d="M 84.57904 370.337812 
L 84.57904 23.837812 
" clip-path="url(#p1cdb981fa3)" style="fill: none; stroke-dasharray: 0.7,1.155; stroke-dashoffset: 0; stroke: #cbd5e1; stroke-width: 0.7"/>
     </g>
     <g id="line2d_2">
      <defs>
       <path id="m4fb512999a" d="M 0 0 
L 0 3.5 
" style="stroke: #000000; stroke-width: 0.8"/>
      </defs>
      <g>
       <use xlink:href="#m4fb512999a" x="84.57904" y="370.337812" style="stroke: #000000; stroke-width: 0.8"/>
      </g>
     </g>
     <g id="text_1">
      <!-- 0.0 -->
      <g transform="translate(77.422634 384.176406) scale(0.09 -0.09)">
       <defs>
        <path id="DejaVuSans-30" d="M 2034 4250 
Q 1547 4250 1301 3770 
Q 1056 3291 1056 2328 
Q 1056 1369 1301 889 
Q 1547 409 2034 409 
Q 2525 409 2770 889 
Q 3016 1369 3016 2328 
Q 3016 3291 2770 3770 
Q 2525 4250 2034 4250 
z
M 2034 4750 
Q 2819 4750 3233 4129 
Q 3647 3509 3647 2328 
Q 3647 1150 3233 529 
Q 2819 -91 2034 -91 
Q 1250 -91 836 529 
Q 422 1150 422 2328 
Q 422 3509 836 4129 
Q 1250 4750 2034 4750 
z
" transform="scale(0.015625)"/>
        <path id="DejaVuSans-2e" d="M 684 794 
L 1344 794 
L 1344 0 
L 684 0 
L 684 794 
z
" transform="scale(0.015625)"/>
       </defs>
       <use xlink:href="#DejaVuSans-30"/>
       <use xlink:href="#DejaVuSans-2e" transform="translate(63.623047 0)"/>
       <use xlink:href="#DejaVuSans-30" transform="translate(95.410156 0)"/>
      </g>
     </g>
    </g>
    <g id="xtick_2">
     <g id="line2d_3">
      <path d="M 169.275469 370.337812 
L 169.275469 23.837812 
" clip-path="url(#p1cdb981fa3)" style="fill: none; stroke-dasharray: 0.7,1.155; stroke-dashoffset: 0; stroke: #cbd5e1; stroke-width: 0.7"/>
     </g>
     <g id="line2d_4">
      <g>
       <use xlink:href="#m4fb512999a" x="169.275469" y="370.337812" style="stroke: #000000; stroke-width: 0.8"/>
      </g>
     </g>
     <g id="text_2">
      <!-- 0.2 -->
      <g transform="translate(162.119063 384.176406) scale(0.09 -0.09)">
       <defs>
        <path id="DejaVuSans-32" d="M 1228 531 
L 3431 531 
L 3431 0 
L 469 0 
L 469 531 
Q 828 903 1448 1529 
Q 2069 2156 2228 2338 
Q 2531 2678 2651 2914 
Q 2772 3150 2772 3378 
Q 2772 3750 2511 3984 
Q 2250 4219 1831 4219 
Q 1534 4219 1204 4116 
Q 875 4013 500 3803 
L 500 4441 
Q 881 4594 1212 4672 
Q 1544 4750 1819 4750 
Q 2544 4750 2975 4387 
Q 3406 4025 3406 3419 
Q 3406 3131 3298 2873 
Q 3191 2616 2906 2266 
Q 2828 2175 2409 1742 
Q 1991 1309 1228 531 
z
" transform="scale(0.015625)"/>
       </defs>
       <use xlink:href="#DejaVuSans-30"/>
       <use xlink:href="#DejaVuSans-2e" transform="translate(63.623047 0)"/>
       <use xlink:href="#DejaVuSans-32" transform="translate(95.410156 0)"/>
      </g>
     </g>
    </g>
    <g id="xtick_3">
     <g id="line2d_5">
      <path d="M 253.971897 370.337812 
L 253.971897 23.837812 
" clip-path="url(#p1cdb981fa3)" style="fill: none; stroke-dasharray: 0.7,1.155; stroke-dashoffset: 0; stroke: #cbd5e1; stroke-width: 0.7"/>
     </g>
     <g id="line2d_6">
      <g>
       <use xlink:href="#m4fb512999a" x="253.971897" y="370.337812" style="stroke: #000000; stroke-width: 0.8"/>
      </g>
     </g>
     <g id="text_3">
      <!-- 0.4 -->
      <g transform="translate(246.815491 384.176406) scale(0.09 -0.09)">
       <defs>
        <path id="DejaVuSans-34" d="M 2419 4116 
L 825 1625 
L 2419 1625 
L 2419 4116 
z
M 2253 4666 
L 3047 4666 
L 3047 1625 
L 3713 1625 
L 3713 1100 
L 3047 1100 
L 3047 0 
L 2419 0 
L 2419 1100 
L 313 1100 
L 313 1709 
L 2253 4666 
z
" transform="scale(0.015625)"/>
       </defs>
       <use xlink:href="#DejaVuSans-30"/>
       <use xlink:href="#DejaVuSans-2e" transform="translate(63.623047 0)"/>
       <use xlink:href="#DejaVuSans-34" transform="translate(95.410156 0)"/>
      </g>
     </g>
    </g>
    <g id="xtick_4">
     <g id="line2d_7">
      <path d="M 338.668326 370.337812 
L 338.668326 23.837812 
" clip-path="url(#p1cdb981fa3)" style="fill: none; stroke-dasharray: 0.7,1.155; stroke-dashoffset: 0; stroke: #cbd5e1; stroke-width: 0.7"/>
     </g>
     <g id="line2d_8">
      <g>
       <use xlink:href="#m4fb512999a" x="338.668326" y="370.337812" style="stroke: #000000; stroke-width: 0.8"/>
      </g>
     </g>
     <g id="text_4">
      <!-- 0.6 -->
      <g transform="translate(331.51192 384.176406) scale(0.09 -0.09)">
       <defs>
        <path id="DejaVuSans-36" d="M 2113 2584 
Q 1688 2584 1439 2293 
Q 1191 2003 1191 1497 
Q 1191 994 1439 701 
Q 1688 409 2113 409 
Q 2538 409 2786 701 
Q 3034 994 3034 1497 
Q 3034 2003 2786 2293 
Q 2538 2584 2113 2584 
z
M 3366 4563 
L 3366 3988 
Q 3128 4100 2886 4159 
Q 2644 4219 2406 4219 
Q 1781 4219 1451 3797 
Q 1122 3375 1075 2522 
Q 1259 2794 1537 2939 
Q 1816 3084 2150 3084 
Q 2853 3084 3261 2657 
Q 3669 2231 3669 1497 
Q 3669 778 3244 343 
Q 2819 -91 2113 -91 
Q 1303 -91 875 529 
Q 447 1150 447 2328 
Q 447 3434 972 4092 
Q 1497 4750 2381 4750 
Q 2619 4750 2861 4703 
Q 3103 4656 3366 4563 
z
" transform="scale(0.015625)"/>
       </defs>
       <use xlink:href="#DejaVuSans-30"/>
       <use xlink:href="#DejaVuSans-2e" transform="translate(63.623047 0)"/>
       <use xlink:href="#DejaVuSans-36" transform="translate(95.410156 0)"/>
      </g>
     </g>
    </g>
    <g id="xtick_5">
     <g id="line2d_9">
      <path d="M 423.364754 370.337812 
L 423.364754 23.837812 
" clip-path="url(#p1cdb981fa3)" style="fill: none; stroke-dasharray: 0.7,1.155; stroke-dashoffset: 0; stroke: #cbd5e1; stroke-width: 0.7"/>
     </g>
     <g id="line2d_10">
      <g>
       <use xlink:href="#m4fb512999a" x="423.364754" y="370.337812" style="stroke: #000000; stroke-width: 0.8"/>
      </g>
     </g>
     <g id="text_5">
      <!-- 0.8 -->
      <g transform="translate(416.208348 384.176406) scale(0.09 -0.09)">
       <defs>
        <path id="DejaVuSans-38" d="M 2034 2216 
Q 1584 2216 1326 1975 
Q 1069 1734 1069 1313 
Q 1069 891 1326 650 
Q 1584 409 2034 409 
Q 2484 409 2743 651 
Q 3003 894 3003 1313 
Q 3003 1734 2745 1975 
Q 2488 2216 2034 2216 
z
M 1403 2484 
Q 997 2584 770 2862 
Q 544 3141 544 3541 
Q 544 4100 942 4425 
Q 1341 4750 2034 4750 
Q 2731 4750 3128 4425 
Q 3525 4100 3525 3541 
Q 3525 3141 3298 2862 
Q 3072 2584 2669 2484 
Q 3125 2378 3379 2068 
Q 3634 1759 3634 1313 
Q 3634 634 3220 271 
Q 2806 -91 2034 -91 
Q 1263 -91 848 271 
Q 434 634 434 1313 
Q 434 1759 690 2068 
Q 947 2378 1403 2484 
z
M 1172 3481 
Q 1172 3119 1398 2916 
Q 1625 2713 2034 2713 
Q 2441 2713 2670 2916 
Q 2900 3119 2900 3481 
Q 2900 3844 2670 4047 
Q 2441 4250 2034 4250 
Q 1625 4250 1398 4047 
Q 1172 3844 1172 3481 
z
" transform="scale(0.015625)"/>
       </defs>
       <use xlink:href="#DejaVuSans-30"/>
       <use xlink:href="#DejaVuSans-2e" transform="translate(63.623047 0)"/>
       <use xlink:href="#DejaVuSans-38" transform="translate(95.410156 0)"/>
      </g>
     </g>
    </g>
    <g id="xtick_6">
     <g id="line2d_11">
      <path d="M 508.061183 370.337812 
L 508.061183 23.837812 
" clip-path="url(#p1cdb981fa3)" style="fill: none; stroke-dasharray: 0.7,1.155; stroke-dashoffset: 0; stroke: #cbd5e1; stroke-width: 0.7"/>
     </g>
     <g id="line2d_12">
      <g>
       <use xlink:href="#m4fb512999a" x="508.061183" y="370.337812" style="stroke: #000000; stroke-width: 0.8"/>
      </g>
     </g>
     <g id="text_6">
      <!-- 1.0 -->
      <g transform="translate(500.904777 384.176406) scale(0.09 -0.09)">
       <defs>
        <path id="DejaVuSans-31" d="M 794 531 
L 1825 531 
L 1825 4091 
L 703 3866 
L 703 4441 
L 1819 4666 
L 2450 4666 
L 2450 531 
L 3481 531 
L 3481 0 
L 794 0 
L 794 531 
z
" transform="scale(0.015625)"/>
       </defs>
       <use xlink:href="#DejaVuSans-31"/>
       <use xlink:href="#DejaVuSans-2e" transform="translate(63.623047 0)"/>
       <use xlink:href="#DejaVuSans-30" transform="translate(95.410156 0)"/>
      </g>
     </g>
    </g>
    <g id="text_7">
     <!-- $x_0$ -->
     <g transform="translate(281.965469 398.406406) scale(0.11 -0.11)">
      <defs>
       <path id="DejaVuSans-Oblique-78" d="M 3841 3500 
L 2234 1784 
L 3219 0 
L 2559 0 
L 1819 1388 
L 531 0 
L -166 0 
L 1556 1844 
L 641 3500 
L 1300 3500 
L 1972 2234 
L 3144 3500 
L 3841 3500 
z
" transform="scale(0.015625)"/>
      </defs>
      <use xlink:href="#DejaVuSans-Oblique-78" transform="translate(0 0.3125)"/>
      <use xlink:href="#DejaVuSans-30" transform="translate(59.179688 -16.09375) scale(0.7)"/>
     </g>
    </g>
   </g>
   <g id="matplotlib.axis_2">
    <g id="ytick_1">
     <g id="line2d_13">
      <path d="M 50.700469 338.451309 
L 525.000469 338.451309 
" clip-path="url(#p1cdb981fa3)" style="fill: none; stroke-dasharray: 0.7,1.155; stroke-dashoffset: 0; stroke: #cbd5e1; stroke-width: 0.7"/>
     </g>
     <g id="line2d_14">
      <defs>
       <path id="md782b9575d" d="M 0 0 
L -3.5 0 
" style="stroke: #000000; stroke-width: 0.8"/>
      </defs>
      <g>
       <use xlink:href="#md782b9575d" x="50.700469" y="338.451309" style="stroke: #000000; stroke-width: 0.8"/>
      </g>
     </g>
     <g id="text_8">
      <!-- −0.4 -->
      <g transform="translate(21.845937 341.870606) scale(0.09 -0.09)">
       <defs>
        <path id="DejaVuSans-2212" d="M 678 2272 
L 4684 2272 
L 4684 1741 
L 678 1741 
L 678 2272 
z
" transform="scale(0.015625)"/>
       </defs>
       <use xlink:href="#DejaVuSans-2212"/>
       <use xlink:href="#DejaVuSans-30" transform="translate(83.789062 0)"/>
       <use xlink:href="#DejaVuSans-2e" transform="translate(147.412109 0)"/>
       <use xlink:href="#DejaVuSans-34" transform="translate(179.199219 0)"/>
      </g>
     </g>
    </g>
    <g id="ytick_2">
     <g id="line2d_15">
      <path d="M 50.700469 295.935972 
L 525.000469 295.935972 
" clip-path="url(#p1cdb981fa3)" style="fill: none; stroke-dasharray: 0.7,1.155; stroke-dashoffset: 0; stroke: #cbd5e1; stroke-width: 0.7"/>
     </g>
     <g id="line2d_16">
      <g>
       <use xlink:href="#md782b9575d" x="50.700469" y="295.935972" style="stroke: #000000; stroke-width: 0.8"/>
      </g>
     </g>
     <g id="text_9">
      <!-- −0.2 -->
      <g transform="translate(21.845937 299.355269) scale(0.09 -0.09)">
       <use xlink:href="#DejaVuSans-2212"/>
       <use xlink:href="#DejaVuSans-30" transform="translate(83.789062 0)"/>
       <use xlink:href="#DejaVuSans-2e" transform="translate(147.412109 0)"/>
       <use xlink:href="#DejaVuSans-32" transform="translate(179.199219 0)"/>
      </g>
     </g>
    </g>
    <g id="ytick_3">
     <g id="line2d_17">
      <path d="M 50.700469 253.420635 
L 525.000469 253.420635 
" clip-path="url(#p1cdb981fa3)" style="fill: none; stroke-dasharray: 0.7,1.155; stroke-dashoffset: 0; stroke: #cbd5e1; stroke-width: 0.7"/>
     </g>
     <g id="line2d_18">
      <g>
       <use xlink:href="#md782b9575d" x="50.700469" y="253.420635" style="stroke: #000000; stroke-width: 0.8"/>
      </g>
     </g>
     <g id="text_10">
      <!-- 0.0 -->
      <g transform="translate(29.387656 256.839931) scale(0.09 -0.09)">
       <use xlink:href="#DejaVuSans-30"/>
       <use xlink:href="#DejaVuSans-2e" transform="translate(63.623047 0)"/>
       <use xlink:href="#DejaVuSans-30" transform="translate(95.410156 0)"/>
      </g>
     </g>
    </g>
    <g id="ytick_4">
     <g id="line2d_19">
      <path d="M 50.700469 210.905297 
L 525.000469 210.905297 
" clip-path="url(#p1cdb981fa3)" style="fill: none; stroke-dasharray: 0.7,1.155; stroke-dashoffset: 0; stroke: #cbd5e1; stroke-width: 0.7"/>
     </g>
     <g id="line2d_20">
      <g>
       <use xlink:href="#md782b9575d" x="50.700469" y="210.905297" style="stroke: #000000; stroke-width: 0.8"/>
      </g>
     </g>
     <g id="text_11">
      <!-- 0.2 -->
      <g transform="translate(29.387656 214.324594) scale(0.09 -0.09)">
       <use xlink:href="#DejaVuSans-30"/>
       <use xlink:href="#DejaVuSans-2e" transform="translate(63.623047 0)"/>
       <use xlink:href="#DejaVuSans-32" transform="translate(95.410156 0)"/>
      </g>
     </g>
    </g>
    <g id="ytick_5">
     <g id="line2d_21">
      <path d="M 50.700469 168.38996 
L 525.000469 168.38996 
" clip-path="url(#p1cdb981fa3)" style="fill: none; stroke-dasharray: 0.7,1.155; stroke-dashoffset: 0; stroke: #cbd5e1; stroke-width: 0.7"/>
     </g>
     <g id="line2d_22">
      <g>
       <use xlink:href="#md782b9575d" x="50.700469" y="168.38996" style="stroke: #000000; stroke-width: 0.8"/>
      </g>
     </g>
     <g id="text_12">
      <!-- 0.4 -->
      <g transform="translate(29.387656 171.809257) scale(0.09 -0.09)">
       <use xlink:href="#DejaVuSans-30"/>
       <use xlink:href="#DejaVuSans-2e" transform="translate(63.623047 0)"/>
       <use xlink:href="#DejaVuSans-34" transform="translate(95.410156 0)"/>
      </g>
     </g>
    </g>
    <g id="ytick_6">
     <g id="line2d_23">
      <path d="M 50.700469 125.874622 
L 525.000469 125.874622 
" clip-path="url(#p1cdb981fa3)" style="fill: none; stroke-dasharray: 0.7,1.155; stroke-dashoffset: 0; stroke: #cbd5e1; stroke-width: 0.7"/>
     </g>
     <g id="line2d_24">
      <g>
       <use xlink:href="#md782b9575d" x="50.700469" y="125.874622" style="stroke: #000000; stroke-width: 0.8"/>
      </g>
     </g>
     <g id="text_13">
      <!-- 0.6 -->
      <g transform="translate(29.387656 129.293919) scale(0.09 -0.09)">
       <use xlink:href="#DejaVuSans-30"/>
       <use xlink:href="#DejaVuSans-2e" transform="translate(63.623047 0)"/>
       <use xlink:href="#DejaVuSans-36" transform="translate(95.410156 0)"/>
      </g>
     </g>
    </g>
    <g id="ytick_7">
     <g id="line2d_25">
      <path d="M 50.700469 83.359285 
L 525.000469 83.359285 
" clip-path="url(#p1cdb981fa3)" style="fill: none; stroke-dasharray: 0.7,1.155; stroke-dashoffset: 0; stroke: #cbd5e1; stroke-width: 0.7"/>
     </g>
     <g id="line2d_26">
      <g>
       <use xlink:href="#md782b9575d" x="50.700469" y="83.359285" style="stroke: #000000; stroke-width: 0.8"/>
      </g>
     </g>
     <g id="text_14">
      <!-- 0.8 -->
      <g transform="translate(29.387656 86.778582) scale(0.09 -0.09)">
       <use xlink:href="#DejaVuSans-30"/>
       <use xlink:href="#DejaVuSans-2e" transform="translate(63.623047 0)"/>
       <use xlink:href="#DejaVuSans-38" transform="translate(95.410156 0)"/>
      </g>
     </g>
    </g>
    <g id="ytick_8">
     <g id="line2d_27">
      <path d="M 50.700469 40.843947 
L 525.000469 40.843947 
" clip-path="url(#p1cdb981fa3)" style="fill: none; stroke-dasharray: 0.7,1.155; stroke-dashoffset: 0; stroke: #cbd5e1; stroke-width: 0.7"/>
     </g>
     <g id="line2d_28">
      <g>
       <use xlink:href="#md782b9575d" x="50.700469" y="40.843947" style="stroke: #000000; stroke-width: 0.8"/>
      </g>
     </g>
     <g id="text_15">
      <!-- 1.0 -->
      <g transform="translate(29.387656 44.263244) scale(0.09 -0.09)">
       <use xlink:href="#DejaVuSans-31"/>
       <use xlink:href="#DejaVuSans-2e" transform="translate(63.623047 0)"/>
       <use xlink:href="#DejaVuSans-30" transform="translate(95.410156 0)"/>
      </g>
     </g>
    </g>
    <g id="text_16">
     <!-- $x_1$ -->
     <g transform="translate(15.558281 202.972812) rotate(-90) scale(0.11 -0.11)">
      <use xlink:href="#DejaVuSans-Oblique-78" transform="translate(0 0.3125)"/>
      <use xlink:href="#DejaVuSans-31" transform="translate(59.179688 -16.09375) scale(0.7)"/>
     </g>
    </g>
   </g>
   <g id="QuadContourSet_1">
    <path d="M 525.000469 28.149518 
L 521.723679 31.559261 
L 518.394619 35.044646 
L 515.19335 38.315528 
L 511.78877 41.81175 
L 507.596186 46.036977 
L 499.824625 53.758425 
L 481.401862 71.311607 
L 458.888045 91.400487 
L 447.051444 101.293564 
L 432.518575 112.767109 
L 424.591555 118.598447 
L 419.262703 122.28628 
L 415.343366 124.582531 
L 414.022196 125.261912 
L 413.798916 125.181824 
L 414.022196 124.215083 
L 421.996993 116.495194 
L 426.413734 112.552813 
M 441.300153 99.245341 
L 446.804963 94.29603 
L 475.082583 68.236141 
L 485.365371 58.418338 
L 490.209467 53.758425 
L 497.255901 46.844654 
L 502.00882 42.176253 
L 507.82526 36.332453 
L 512.600287 31.559261 
L 517.333348 26.733356 
L 520.175946 23.837812 
L 520.175946 23.837812 
" clip-path="url(#p1cdb981fa3)" style="fill: none; stroke: #f7fbff; stroke-width: 0.95"/>
    <path d="M 525.000469 29.347594 
L 520.095031 34.454804 
L 516.349429 38.315528 
L 511.78877 43.000015 
L 505.864759 48.93252 
L 501.21941 53.56214 
L 494.064697 60.514693 
L 489.328881 65.070757 
L 479.771628 74.027228 
L 474.796012 78.600448 
L 453.657293 97.213285 
L 439.124424 109.208351 
L 424.591555 120.558945 
L 414.022196 128.331537 
L 406.095176 133.876652 
L 399.489327 138.152958 
L 395.482183 140.624721 
L 391.562307 142.643107 
L 390.241137 142.753551 
L 390.142432 142.555083 
L 391.732458 140.624721 
L 394.204647 138.285538 
L 399.489327 133.582507 
L 440.804808 98.156754 
L 467.556976 74.027228 
L 493.941503 48.93252 
L 503.86175 39.125775 
L 508.556942 34.454804 
L 514.431109 28.493244 
L 519.018512 23.837812 
L 519.018512 23.837812 
" clip-path="url(#p1cdb981fa3)" style="fill: none; stroke: #f7fbff; stroke-width: 0.95"/>
    <path d="M 525.000469 30.828922 
L 516.859563 39.280709 
L 506.50409 49.789618 
L 482.425342 73.062046 
L 476.117182 78.916476 
L 458.903938 94.29603 
L 445.730274 105.496095 
L 430.995488 117.460375 
L 423.270385 123.47716 
L 411.981926 131.938091 
L 403.940783 137.729177 
L 395.525817 143.574428 
L 388.307512 148.346169 
L 380.697274 153.172074 
L 372.520295 157.99798 
L 367.113037 160.893523 
L 363.817739 162.40324 
L 362.496569 162.939734 
L 361.175399 163.058775 
L 360.950314 162.823885 
L 361.548353 161.858704 
L 362.496569 160.789457 
L 365.58597 157.99798 
L 370.423589 153.967176 
L 383.635288 143.462602 
L 398.168157 131.935567 
L 408.945467 123.251462 
L 427.560081 107.808565 
L 446.570459 91.400487 
L 464.825868 74.992409 
L 486.417223 54.723606 
L 509.970447 31.559261 
L 517.574962 23.837812 
L 517.574962 23.837812 
" clip-path="url(#p1cdb981fa3)" style="fill: none; stroke: #f7fbff; stroke-width: 0.95"/>
    <path d="M 525.000469 32.669992 
L 502.405773 55.688787 
L 489.494618 68.236141 
L 484.044201 73.399318 
L 465.547823 90.346021 
L 449.693784 104.135254 
L 435.957212 115.530013 
L 427.519329 122.28628 
L 420.07171 128.077367 
L 411.137986 134.833634 
L 401.880877 141.589902 
L 392.257152 148.346169 
L 382.247981 155.102436 
L 371.727245 161.858704 
L 360.554244 168.614971 
L 350.60604 174.264647 
L 344.00019 177.760848 
L 339.154479 180.197144 
L 333.430831 182.834754 
L 330.517829 184.057868 
L 326.824981 185.283519 
L 325.503811 185.491476 
L 324.568847 185.023049 
L 325.160307 184.057868 
L 328.273612 181.162325 
L 332.109661 178.169822 
L 338.715511 173.3142 
L 352.011968 163.789066 
L 367.781249 152.416194 
L 387.598797 137.629512 
L 399.96716 128.077367 
L 413.29367 117.460375 
L 426.201851 106.843384 
L 442.085483 93.330849 
L 459.546997 77.887952 
L 477.438352 61.3913 
L 484.493137 54.723606 
L 506.216883 33.489623 
L 515.75709 23.837812 
L 515.75709 23.837812 
" clip-path="url(#p1cdb981fa3)" style="fill: none; stroke: #f7fbff; stroke-width: 0.95"/>
    <path d="M 525.000469 34.951388 
L 503.732524 56.653968 
L 490.650051 69.419417 
L 473.362947 85.6094 
L 461.552597 96.226392 
L 448.168191 107.808565 
L 440.099811 114.564832 
L 431.197405 121.82573 
L 418.346261 131.938091 
L 410.058686 138.226853 
L 398.883489 146.415807 
L 388.919967 153.437435 
L 379.345014 159.928342 
L 368.962173 166.684609 
L 358.062178 173.440877 
L 346.589009 180.197144 
L 334.350161 186.953411 
L 322.861472 192.87197 
L 313.613282 197.297809 
L 308.328602 199.687924 
L 301.722753 202.506629 
L 293.795733 205.569697 
L 288.511054 207.373871 
L 284.547544 208.48364 
L 281.905204 209.048029 
L 280.584034 209.192776 
L 280.034018 209.152576 
L 279.262864 208.591521 
L 279.262864 208.097194 
L 279.938359 207.222214 
L 282.139434 205.291851 
L 286.205066 202.396308 
L 298.303509 194.67486 
L 307.007433 189.293661 
L 307.292795 189.112389 
M 320.409731 180.914123 
L 339.506597 168.614971 
L 347.9637 162.97967 
L 365.138909 151.140537 
L 378.350608 141.652584 
L 392.684432 130.97291 
L 403.452836 122.679067 
L 414.894257 113.599651 
L 427.233895 103.501536 
L 437.028066 95.261211 
L 451.496011 82.713857 
L 467.587946 68.236141 
L 484.095973 52.793244 
L 493.292391 43.94668 
L 501.008606 36.385166 
L 513.5349 23.837812 
L 513.5349 23.837812 
" clip-path="url(#p1cdb981fa3)" style="fill: none; stroke: #f7fbff; stroke-width: 0.95"/>
    <path d="M 525.000469 37.7995 
L 506.50409 56.736704 
L 489.328881 73.530381 
L 473.330987 88.504943 
L 462.624433 98.156754 
L 453.822668 105.878202 
L 445.730274 112.800387 
L 432.518575 123.736359 
L 419.767519 133.868453 
L 410.959423 140.624721 
L 400.810497 148.163607 
L 389.751237 156.067618 
L 379.671778 163.000258 
L 369.716583 169.580152 
L 359.062995 176.33642 
L 349.28487 182.274569 
L 340.03668 187.649759 
L 330.895404 192.744498 
L 321.540302 197.71239 
L 312.285692 202.396308 
L 300.088395 208.187395 
L 288.511054 213.281144 
L 280.584034 216.536336 
L 273.978185 219.099131 
L 266.051165 221.98225 
L 258.124146 224.651511 
L 247.554786 227.792781 
L 240.948937 229.500974 
L 234.343087 230.893608 
L 230.379577 231.547499 
L 226.416068 231.8956 
L 225.094898 231.889511 
L 223.773728 231.730371 
L 222.717167 231.35174 
L 222.636526 230.386559 
L 223.773728 229.162963 
L 225.094898 228.136822 
L 226.416068 227.241773 
L 229.165362 225.560654 
L 238.306597 220.705975 
L 258.124146 210.799703 
L 283.677441 197.570403 
L 291.153394 193.521835 
L 306.275771 185.023049 
L 314.544779 180.197144 
L 322.596353 175.371239 
L 330.788491 170.334242 
L 344.087905 161.858704 
L 354.56955 154.932041 
L 367.781249 145.874427 
L 380.552562 136.763996 
L 391.01867 129.042548 
L 401.178288 121.321099 
L 413.490432 111.669289 
L 425.402959 102.017478 
L 437.803254 91.639762 
L 448.164676 82.713857 
L 461.584313 70.807088 
L 470.832502 62.366323 
L 479.045917 54.723606 
L 495.17144 39.280709 
L 510.723304 23.837812 
L 510.723304 23.837812 
" clip-path="url(#p1cdb981fa3)" style="fill: none; stroke: #f7fbff; stroke-width: 0.95"/>
    <path d="M 525.000469 41.350733 
L 507.82526 58.951098 
L 491.499163 74.992409 
L 483.389177 82.713857 
L 474.796012 90.721611 
L 460.133909 103.94784 
L 449.693784 113.031879 
L 436.39106 124.216643 
L 425.665868 132.903272 
L 415.81708 140.624721 
L 406.095176 148.010134 
L 395.10676 156.067618 
L 384.956458 163.238498 
L 374.215889 170.545333 
L 363.817739 177.337583 
L 353.080142 184.057868 
L 341.773709 190.814136 
L 331.616029 196.605222 
L 320.219132 202.782907 
L 311.625356 207.222214 
L 300.401583 212.723956 
L 292.474563 216.409845 
L 284.547544 219.934069 
L 275.299355 223.828639 
L 266.051165 227.498824 
L 254.160636 231.858458 
L 247.179789 234.247283 
L 235.664257 237.870833 
L 228.145042 240.03837 
L 218.489048 242.560345 
L 211.883199 244.1283 
L 202.635009 246.083431 
L 193.371687 247.759818 
L 184.13863 249.085018 
L 177.532781 249.825184 
L 170.926931 250.324129 
L 165.642251 250.532559 
L 161.678742 250.513136 
L 157.715232 250.252148 
L 155.072892 249.867773 
L 153.751722 249.512287 
L 152.237526 248.724999 
L 151.984597 247.759818 
L 152.655575 246.794637 
L 153.93429 245.829456 
L 157.715232 243.876337 
L 164.877761 241.003551 
L 194.70799 230.558039 
L 222.452558 220.22082 
L 240.017144 213.0133 
L 247.554786 209.7566 
L 262.087655 203.150014 
L 273.978185 197.431925 
L 285.184839 191.779317 
L 292.555011 187.918592 
L 301.722753 182.963456 
L 312.292112 177.029756 
L 325.503811 169.275019 
L 338.715511 161.144283 
L 351.92721 152.63826 
L 364.062321 144.485445 
L 374.387098 137.302443 
L 386.277628 128.735218 
L 398.168157 119.858583 
L 408.776162 111.669289 
L 420.628045 102.236027 
L 431.470126 93.330849 
L 444.409104 82.362178 
L 453.959209 74.027228 
L 468.190162 61.228902 
L 477.438352 52.668707 
L 486.686541 43.921161 
L 495.934731 34.984268 
L 504.304716 26.733356 
L 507.205097 23.837812 
L 507.205097 23.837812 
" clip-path="url(#p1cdb981fa3)" style="fill: none; stroke: #f7fbff; stroke-width: 0.95"/>
    <path d="M 525.000469 45.769998 
L 508.74066 62.445055 
L 500.014279 71.131684 
L 491.971221 78.966449 
L 477.438352 92.710903 
L 464.048678 104.913021 
L 453.657293 114.073714 
L 440.445594 125.337091 
L 428.555065 135.099309 
L 416.664536 144.514559 
L 405.304128 153.172074 
L 395.525817 160.371696 
L 384.956458 167.88593 
L 374.387098 175.119541 
L 363.739482 182.127506 
L 353.032298 188.883774 
L 341.837856 195.640041 
L 331.803448 201.431127 
L 321.297469 207.222214 
L 309.649772 213.313859 
L 300.401583 217.911773 
L 289.832224 222.894525 
L 280.584034 227.022166 
L 272.657015 230.394009 
L 260.579118 235.212464 
L 248.875956 239.519941 
L 240.948937 242.241381 
L 231.700747 245.208347 
L 222.452558 247.954927 
L 211.883199 250.817629 
L 201.313839 253.384254 
L 193.38682 255.110937 
L 185.4598 256.672836 
L 175.615071 258.37681 
L 165.642251 259.819008 
L 156.394062 260.913509 
L 148.467043 261.655904 
L 139.218853 262.295909 
L 129.970664 262.662872 
L 122.043644 262.768913 
L 114.116625 262.666827 
L 106.189605 262.349905 
L 99.583756 261.889727 
L 91.656736 261.102057 
L 85.050887 260.202169 
L 78.445037 259.004454 
L 74.481527 258.104071 
L 70.518017 256.972979 
L 67.875678 256.00451 
L 66.554508 255.432691 
L 65.032769 254.516085 
L 64.13512 253.550904 
L 64.009352 252.585723 
L 64.755977 251.620542 
L 66.554508 250.633414 
L 69.323982 249.69018 
L 74.481527 248.493505 
L 82.408547 247.071383 
L 90.335566 245.814064 
L 104.868435 243.597789 
L 118.080134 241.435956 
L 132.613004 238.786967 
L 143.182363 236.650971 
L 156.394062 233.701568 
L 169.725811 230.386559 
L 177.532781 228.294128 
L 187.080312 225.560654 
L 194.70799 223.254208 
L 206.598519 219.409197 
L 218.489048 215.269298 
L 232.206493 210.117757 
L 239.627767 207.166707 
L 248.875956 203.322661 
L 258.124146 199.297555 
L 268.693505 194.466405 
L 280.287457 188.883774 
L 288.511054 184.750992 
L 300.843052 178.266782 
L 309.649772 173.430809 
L 319.797998 167.64979 
L 328.146151 162.720786 
L 339.021923 156.067618 
L 348.154492 150.276531 
L 358.533059 143.469407 
L 370.423589 135.379723 
L 382.314118 126.966559 
L 393.955169 118.425556 
L 404.141755 110.704108 
L 415.343366 101.937877 
L 426.010734 93.330849 
L 437.803254 83.519011 
L 448.372614 74.459774 
L 458.723101 65.340598 
L 471.497008 53.758425 
L 485.365371 40.760377 
L 494.91619 31.559261 
L 502.769108 23.837812 
L 502.769108 23.837812 
" clip-path="url(#p1cdb981fa3)" style="fill: none; stroke: #f6faff; stroke-width: 0.95"/>
    <path d="M 50.700469 236.388743 
L 61.269828 236.354299 
L 71.839187 236.102777 
L 82.408547 235.636617 
L 92.977906 234.938551 
L 103.547265 234.011302 
L 114.116625 232.853009 
L 124.685984 231.454035 
L 136.576513 229.601139 
L 148.467043 227.440945 
L 157.715232 225.550296 
L 166.963421 223.477046 
L 176.211611 221.216675 
L 186.78097 218.40062 
L 197.350329 215.338591 
L 209.240859 211.598741 
L 221.131388 207.544541 
L 233.021917 203.174898 
L 243.591277 199.028823 
L 256.292954 193.709679 
L 264.729995 189.980386 
L 277.439506 184.057868 
L 285.868714 179.932562 
L 297.759243 173.838428 
L 309.649772 167.423391 
L 321.540302 160.689831 
L 333.430831 153.638152 
L 345.32136 146.262774 
L 357.211889 138.568599 
L 369.102419 130.556271 
L 380.896413 122.28628 
L 390.241137 115.511307 
L 401.821436 106.843384 
L 411.808202 99.121935 
L 423.270385 89.979417 
L 434.43909 80.783495 
L 443.554324 73.067105 
M 450.277713 67.254762 
L 462.905483 56.057511 
L 473.474842 46.407181 
L 483.151541 37.350347 
L 497.176884 23.837812 
M 525.000469 51.280472 
L 509.42083 67.27096 
L 501.21941 75.450839 
L 495.983548 80.587093 
M 489.590904 86.761296 
L 481.401862 94.530618 
L 468.046203 106.843384 
L 457.22405 116.495194 
L 447.202119 125.181824 
L 437.803254 133.100605 
L 425.912725 142.806543 
L 413.970572 152.206893 
L 403.452836 160.19008 
L 392.883477 167.939944 
L 382.314118 175.417204 
L 371.744758 182.612305 
L 361.175399 189.535502 
L 351.485377 195.640041 
L 340.303624 202.396308 
L 330.28089 208.187395 
L 319.799781 213.978481 
L 308.786736 219.769567 
L 299.080413 224.625966 
L 288.511054 229.642958 
L 278.260407 234.247283 
L 268.693505 238.305659 
L 259.445316 242.015243 
L 248.875956 245.98893 
L 238.29844 249.69018 
L 226.416068 253.509849 
L 218.489048 255.857429 
L 209.240859 258.404989 
L 197.715047 261.272353 
L 188.10214 263.404721 
L 177.532781 265.479837 
L 168.284591 267.068203 
L 157.715232 268.60539 
L 148.467043 269.720908 
L 139.218853 270.614117 
L 129.970664 271.2862 
L 120.722474 271.738396 
L 111.474285 271.965641 
L 102.226095 271.965909 
L 92.977906 271.737272 
L 83.729717 271.277985 
L 74.481527 270.589328 
L 65.233338 269.665913 
L 55.985148 268.50232 
L 50.700469 267.730275 
L 50.700469 267.730275 
" clip-path="url(#p1cdb981fa3)" style="fill: none; stroke: #f6faff; stroke-width: 0.95"/>
    <path d="M 50.700469 226.088464 
L 61.269828 226.343752 
L 71.839187 226.354112 
L 82.408547 226.11886 
L 91.656736 225.706008 
L 102.226095 225.00506 
L 112.795455 224.052686 
L 123.364814 222.848691 
L 133.934173 221.396535 
L 144.033887 219.769567 
L 152.430552 218.249352 
L 162.999912 216.103135 
L 174.890441 213.389656 
L 185.4598 210.708079 
L 196.02916 207.773534 
L 206.598519 204.584751 
L 218.489048 200.694737 
L 230.379577 196.482481 
L 240.241311 192.744498 
L 248.875956 189.293901 
L 260.766485 184.258546 
L 272.657015 178.902653 
L 284.547544 173.222381 
L 295.604363 167.64979 
L 304.76212 162.823885 
L 313.613282 157.976442 
L 324.182641 151.956451 
L 336.073171 144.876229 
L 347.9637 137.470841 
L 359.854229 129.74211 
L 371.744758 121.689685 
L 383.233864 113.599651 
L 392.883477 106.572166 
L 404.071361 98.156754 
L 415.235705 89.470124 
L 426.05237 80.783495 
L 437.803254 71.041473 
L 448.985241 61.479874 
L 461.022471 50.862882 
L 473.474842 39.527321 
L 484.044201 29.625412 
L 490.105288 23.837812 
M 525.000469 58.151525 
L 510.4676 73.088194 
L 496.884344 86.574581 
L 487.892126 95.261211 
L 476.117182 106.331597 
L 462.824281 118.425556 
L 451.014953 128.804478 
L 439.124424 138.911756 
L 427.233895 148.672601 
L 415.343366 158.090301 
L 404.084038 166.684609 
L 393.607387 174.406058 
L 383.635288 181.506746 
L 372.893753 188.883774 
L 362.496569 195.753997 
L 351.92721 202.467018 
L 341.35785 208.904216 
L 331.010776 214.943662 
L 321.540302 220.238485 
L 311.603533 225.560654 
L 301.722753 230.611518 
L 292.287677 235.212464 
L 281.868805 240.03837 
L 270.815231 244.864275 
L 260.766485 248.991111 
L 251.485539 252.585723 
L 240.83396 256.446448 
L 229.314332 260.307172 
L 219.810218 263.246607 
L 209.240859 266.252151 
L 198.635704 268.993801 
L 188.10214 271.436141 
L 178.853951 273.357234 
L 169.605761 275.067075 
L 159.362071 276.71525 
L 149.788212 278.014603 
L 140.540023 279.055866 
L 131.291834 279.885059 
L 122.043644 280.502429 
L 112.795455 280.901488 
L 103.547265 281.088563 
L 94.299076 281.061597 
L 85.050887 280.820796 
L 75.802697 280.36393 
L 65.589884 279.610793 
L 55.985148 278.659422 
L 50.700469 278.032114 
L 50.700469 278.032114 
" clip-path="url(#p1cdb981fa3)" style="fill: none; stroke: #f5f9fe; stroke-width: 0.95"/>
    <path d="M 50.700469 215.431213 
L 59.948658 215.783966 
L 70.518017 215.949718 
L 79.766207 215.886447 
L 89.014396 215.630523 
L 98.262586 215.176776 
L 108.831945 214.419992 
L 119.401304 213.406859 
L 129.970664 212.136237 
L 140.540023 210.613662 
L 151.109382 208.832723 
L 160.357572 207.06355 
L 169.605761 205.099383 
L 178.853951 202.939611 
L 189.42331 200.228888 
L 198.928101 197.570403 
L 207.919689 194.868287 
L 218.489048 191.452748 
L 229.058407 187.778305 
L 239.076873 184.057868 
L 247.554786 180.732603 
L 259.445316 175.78621 
L 271.261624 170.545333 
L 279.538856 166.684609 
L 288.511054 162.323364 
L 300.401583 156.253302 
L 312.292112 149.859125 
L 324.182641 143.137624 
L 334.955957 136.763996 
L 345.32136 130.382561 
L 356.45081 123.251462 
L 366.60578 116.495194 
L 377.029438 109.315306 
L 388.594306 101.052297 
L 399.031959 93.330849 
L 409.1444 85.6094 
L 420.628045 76.554733 
L 432.020003 67.27096 
L 443.491257 57.61915 
L 455.712717 47.002158 
L 467.554551 36.385166 
L 479.049096 25.768175 
L 481.104421 23.837812 
M 525.000469 66.718554 
L 510.4676 81.651894 
L 496.760267 95.261211 
L 486.686541 104.979246 
L 473.474842 117.344703 
L 460.535853 129.042548 
L 451.014953 137.392333 
L 439.124424 147.511548 
L 427.233895 157.285246 
L 415.343366 166.717969 
L 404.027289 175.371239 
L 393.571889 183.092687 
L 383.635288 190.185406 
L 372.912622 197.570403 
L 362.496569 204.475103 
L 351.92721 211.212149 
L 341.35785 217.677098 
L 331.206594 223.630292 
L 320.894559 229.421378 
L 310.08911 235.212464 
L 300.401583 240.163029 
L 289.832224 245.301517 
L 280.334239 249.69018 
L 269.286189 254.516085 
L 259.445316 258.564478 
L 248.875956 262.648944 
L 239.354128 266.098258 
L 229.058407 269.575111 
L 219.810218 272.479477 
L 210.562029 275.175063 
L 201.25198 277.680431 
L 190.74448 280.248403 
L 181.49629 282.288116 
L 172.248101 284.117661 
L 162.999912 285.738528 
L 153.751722 287.151101 
L 144.503533 288.354598 
L 133.934173 289.470877 
L 124.664072 290.227785 
L 115.437795 290.766981 
L 106.189605 291.102778 
L 96.941416 291.227266 
L 87.693226 291.140821 
L 78.445037 290.842078 
L 69.196848 290.336782 
L 59.948658 289.617595 
L 50.700469 288.689187 
L 50.700469 288.689187 
" clip-path="url(#p1cdb981fa3)" style="fill: none; stroke: #f4f9fe; stroke-width: 0.95"/>
    <path d="M 50.700469 203.281714 
L 61.269828 203.753549 
L 70.518017 203.953437 
L 79.766207 203.955845 
L 89.014396 203.760734 
L 98.338844 203.361489 
L 107.510775 202.777384 
L 118.080134 201.860435 
L 128.649494 200.68437 
L 139.218853 199.250671 
L 148.467043 197.783793 
L 159.036402 195.865198 
L 169.605761 193.686466 
L 178.853951 191.570411 
L 188.10214 189.255507 
L 198.671499 186.366563 
L 209.639436 183.092687 
L 218.647707 180.197144 
L 227.737238 177.086299 
L 238.306597 173.226243 
L 248.875956 169.1078 
L 259.445316 164.72757 
L 268.693505 160.685274 
L 279.262864 155.821249 
L 289.832224 150.698297 
L 300.401583 145.31448 
L 310.992733 139.65954 
L 321.540302 133.770838 
L 332.109661 127.611507 
L 342.67902 121.190229 
L 353.24838 114.510135 
L 363.817739 107.572298 
L 374.799809 100.087116 
L 384.956458 92.916432 
L 396.271561 84.644219 
L 406.484341 76.922771 
L 417.60931 68.236141 
L 428.555065 59.408138 
L 439.980822 49.897701 
L 451.218661 40.24589 
L 463.205406 29.628899 
L 469.587986 23.837812 
M 525.000469 77.400683 
L 511.386064 91.400487 
L 501.21941 101.565849 
L 487.835609 114.564832 
L 476.556189 125.181824 
L 466.868992 134.058232 
L 454.978463 144.640912 
L 442.825842 155.102436 
L 432.407186 163.789066 
L 421.655682 172.475696 
L 411.379856 180.5181 
L 400.325569 188.883774 
L 389.758582 196.605222 
L 379.671778 203.724177 
L 368.858186 211.082938 
L 358.533059 217.846136 
L 347.808888 224.595473 
L 336.600997 231.35174 
L 326.569459 237.142826 
L 316.086585 242.933913 
L 305.083683 248.724999 
L 295.116903 253.719002 
L 284.547544 258.75104 
L 274.688338 263.202715 
L 264.729995 267.45874 
L 255.481806 271.197286 
L 246.084699 274.784888 
L 235.274069 278.645612 
L 225.094898 282.021096 
L 215.846708 284.871465 
L 206.598519 287.515406 
L 196.02916 290.283171 
L 185.4598 292.777653 
L 176.211611 294.739627 
L 166.963421 296.49382 
L 157.715232 298.042325 
L 147.145873 299.555022 
L 137.897683 300.657968 
L 128.649494 301.552336 
L 119.401304 302.238948 
L 110.153115 302.720133 
L 100.904926 302.990657 
L 91.656736 303.054186 
L 82.408547 302.910943 
L 73.160357 302.558475 
L 63.912168 301.998675 
L 54.663978 301.229869 
L 50.700469 300.839243 
L 50.700469 300.839243 
" clip-path="url(#p1cdb981fa3)" style="fill: none; stroke: #f2f7fd; stroke-width: 0.95"/>
    <path d="M 50.700469 188.871456 
L 61.269828 189.399409 
L 70.518017 189.646093 
L 79.766207 189.69419 
L 89.014396 189.544116 
L 98.262586 189.194442 
L 107.510775 188.645468 
L 116.758965 187.896472 
L 126.007154 186.949433 
L 135.255343 185.804486 
L 144.503533 184.459949 
L 155.072892 182.678737 
L 165.642251 180.637365 
L 176.211611 178.334463 
L 186.78097 175.773913 
L 197.350329 172.951882 
L 207.919689 169.869233 
L 218.489048 166.526045 
L 227.737238 163.3884 
L 238.306597 159.557536 
L 248.875956 155.466325 
L 259.445316 151.113882 
L 270.014675 146.501627 
L 280.665881 141.589902 
L 290.614434 136.763996 
L 300.118182 131.938091 
L 309.649772 126.887559 
L 320.219132 121.038494 
L 331.402662 114.564832 
L 341.35785 108.558158 
L 351.92721 101.926678 
L 362.496569 95.035908 
L 373.564588 87.539762 
L 383.635288 80.471612 
L 395.152791 72.096865 
L 405.414444 64.375417 
L 416.376774 55.853641 
M 437.957376 38.261265 
L 449.693784 28.238849 
L 454.730794 23.837812 
M 525.000469 90.721105 
L 520.925768 94.957352 
M 501.34927 114.756293 
L 491.656871 124.216643 
L 481.401862 133.982224 
L 468.998528 145.450626 
L 458.941973 154.480538 
L 447.051444 164.842244 
L 435.160914 174.861286 
L 423.270385 184.540974 
L 411.601311 193.709679 
L 401.432193 201.431127 
L 390.919718 209.152576 
L 380.992948 216.200143 
L 370.143916 223.630292 
L 359.854229 230.416419 
L 349.248629 237.142826 
L 338.135172 243.899094 
L 328.146151 249.720673 
L 317.576792 255.616541 
L 306.953846 261.272353 
L 296.438073 266.601161 
L 287.189884 271.069609 
L 276.620524 275.922924 
L 265.888928 280.575974 
L 255.481806 284.821503 
L 246.233616 288.377411 
L 235.664257 292.187869 
L 225.094898 295.727424 
L 215.846708 298.604681 
L 206.598519 301.275569 
L 197.350329 303.742181 
L 186.78097 306.305033 
L 177.532781 308.328203 
L 168.284591 310.144477 
L 159.036402 311.75492 
L 149.788212 313.159095 
L 140.540023 314.358035 
L 129.970664 315.473111 
L 119.877368 316.287673 
L 111.474285 316.776598 
L 102.226095 317.120073 
L 92.977906 317.256961 
L 83.729717 317.186086 
L 74.481527 316.907919 
L 65.233338 316.4252 
L 55.985148 315.734216 
L 50.700469 315.248402 
L 50.700469 315.248402 
" clip-path="url(#p1cdb981fa3)" style="fill: none; stroke: #eef5fc; stroke-width: 0.95"/>
    <path d="M 50.700469 171.426497 
L 61.269828 171.994771 
L 70.518017 172.276487 
L 79.766207 172.358468 
L 89.014396 172.241305 
L 98.262586 171.924118 
L 107.510775 171.405792 
L 116.758965 170.688531 
L 127.328324 169.623276 
L 137.897683 168.298317 
L 147.145873 166.92362 
L 157.715232 165.108121 
L 168.284591 163.030758 
L 178.853951 160.692481 
L 188.10214 158.432651 
L 198.671499 155.604513 
L 209.240859 152.514884 
L 219.810218 149.163637 
L 229.058407 146.017999 
L 239.627767 142.177238 
L 250.197126 138.075112 
L 260.766485 133.711155 
L 271.431505 129.042548 
L 280.584034 124.825802 
L 291.795198 119.390737 
L 301.722753 114.334379 
L 312.292112 108.696116 
L 322.861472 102.797504 
L 334.118999 96.226392 
L 344.00019 90.215244 
L 354.56955 83.531658 
L 365.138909 76.587443 
L 375.966198 69.201322 
L 386.879749 61.479874 
L 397.418974 53.758425 
L 407.619655 46.036977 
L 418.73064 37.350347 
L 429.488642 28.663718 
L 435.324453 23.837812 
M 525.000469 107.330773 
L 511.78877 120.922409 
L 498.807441 133.868453 
L 488.853928 143.520264 
L 478.648613 153.172074 
L 466.868992 163.999741 
L 454.978463 174.591679 
L 442.876328 185.023049 
L 432.473934 193.709679 
L 421.743308 202.396308 
L 410.653818 211.082938 
L 400.466043 218.804386 
L 389.93203 226.525835 
L 379.013554 234.247283 
L 369.102419 241.010666 
L 358.533059 247.960599 
L 347.9637 254.643458 
L 337.394341 261.057473 
L 326.824981 267.203842 
L 316.255622 273.081377 
L 305.686263 278.691716 
L 295.116903 284.031929 
L 285.868714 288.485999 
L 275.299355 293.324256 
L 264.600333 297.949233 
L 254.160636 302.195549 
L 244.912446 305.740416 
L 234.343087 309.539364 
L 223.773728 313.06844 
L 214.525538 315.937267 
L 205.277349 318.600639 
L 195.816842 321.113579 
L 185.4598 323.616064 
L 176.211611 325.633843 
L 166.963421 327.445818 
L 157.715232 329.052865 
L 148.467043 330.453744 
L 138.532464 331.73057 
L 129.386549 332.695751 
L 120.722474 333.424136 
L 111.474285 334.002856 
L 102.226095 334.376471 
L 92.977906 334.544952 
L 83.729717 334.507005 
L 74.481527 334.262905 
L 65.233338 333.814496 
L 55.985148 333.159207 
L 50.700469 332.694241 
L 50.700469 332.694241 
" clip-path="url(#p1cdb981fa3)" style="fill: none; stroke: #e9f2fa; stroke-width: 0.95"/>
    <path d="M 50.700469 150.062482 
L 59.948658 150.600722 
L 69.196848 150.938147 
L 78.445037 151.07472 
L 87.693226 151.011237 
L 96.941416 150.747318 
L 106.267007 150.276531 
L 115.437795 149.616977 
L 124.685984 148.751128 
L 133.934173 147.684438 
L 144.503533 146.219635 
L 153.751722 144.72332 
L 164.321082 142.767415 
L 174.890441 140.549099 
L 184.13863 138.394155 
L 194.278719 135.798815 
L 202.635009 133.481225 
L 213.204368 130.313343 
L 223.773728 126.883351 
L 234.343087 123.190907 
L 244.512893 119.390737 
L 252.839466 116.100301 
L 263.44909 111.669289 
L 272.657015 107.611328 
L 283.226374 102.7075 
L 293.795733 97.541516 
L 304.365093 92.113142 
L 314.934452 86.422565 
L 325.503811 80.47054 
L 336.45266 74.027228 
L 346.64253 67.779519 
L 358.018914 60.514693 
L 368.196988 53.758425 
L 378.350608 46.776589 
L 388.919967 39.250805 
L 399.489327 31.463822 
L 409.511629 23.837812 
M 525.000469 128.044391 
L 511.833264 141.589902 
L 502.193669 151.241712 
L 491.324925 161.858704 
L 481.184758 171.510514 
L 469.717604 182.127506 
L 460.072052 190.814136 
L 449.050653 200.465946 
L 438.836714 209.152576 
L 428.314984 217.839205 
L 417.45546 226.525835 
L 407.416346 234.307048 
L 396.846987 242.23622 
L 386.277628 249.898627 
L 375.536155 257.411629 
L 365.138909 264.420436 
L 354.56955 271.279901 
L 344.00019 277.872323 
L 333.430831 284.196743 
L 322.861472 290.254447 
L 312.292112 296.043884 
L 301.241442 301.809957 
L 291.153394 306.819479 
L 280.584034 311.805874 
L 270.561253 316.287673 
L 260.766485 320.434888 
L 251.518296 324.140194 
L 240.948937 328.123154 
L 230.379577 331.839283 
L 219.810218 335.286871 
L 210.562029 338.084325 
L 201.313839 340.67722 
L 191.059907 343.312743 
L 181.49629 345.542947 
L 172.248101 347.491638 
L 162.999912 349.235916 
L 152.430552 350.97822 
L 143.182363 352.282241 
L 133.934173 353.381854 
L 124.685984 354.276781 
L 115.437795 354.967435 
L 106.189605 355.451628 
L 96.941416 355.732256 
L 87.693226 355.807634 
L 78.445037 355.677302 
L 69.196848 355.342037 
L 59.948658 354.802977 
L 50.700469 354.058067 
L 50.700469 354.058067 
" clip-path="url(#p1cdb981fa3)" style="fill: none; stroke: #e1edf8; stroke-width: 0.95"/>
    <path d="M 525.000469 153.872604 
L 512.554868 166.684609 
L 501.959387 177.301601 
L 491.08573 187.918592 
L 480.939295 197.570403 
L 470.524285 207.222214 
L 459.816837 216.874024 
L 448.792208 226.525835 
L 438.573473 235.212464 
L 428.048069 243.899094 
L 417.186211 252.585723 
L 407.222014 260.307172 
L 396.846987 268.094557 
L 386.277628 275.762907 
L 375.25916 283.471517 
L 365.138909 290.298053 
L 354.56955 297.164918 
L 344.00019 303.765535 
L 333.430831 310.097917 
L 322.641664 316.287673 
L 312.077044 322.07876 
L 301.722753 327.495359 
L 291.153394 332.761102 
L 280.584034 337.758767 
L 270.014675 342.490065 
L 259.445316 346.953952 
L 249.179686 351.034191 
L 239.627767 354.604239 
L 230.379577 357.853701 
L 219.810218 361.315824 
L 210.562029 364.126583 
L 201.313839 366.733144 
L 191.106692 369.372631 
L 187.111845 370.337812 
M 50.700469 123.719927 
L 59.948658 124.278453 
L 69.196848 124.637308 
L 78.445037 124.794432 
L 87.693226 124.750561 
L 96.941416 124.505487 
L 106.189605 124.059238 
L 115.437795 123.412213 
L 124.685984 122.564367 
L 133.934173 121.515067 
L 144.503533 120.07003 
L 154.701434 118.425556 
L 162.999912 116.909139 
L 173.569271 114.741401 
L 184.13863 112.311651 
L 194.253932 109.738927 
L 202.635009 107.427247 
L 213.204368 104.274959 
L 223.773728 100.85986 
L 234.315855 97.191573 
L 242.270107 94.251461 
L 252.041875 90.435306 
L 261.390711 86.574581 
L 270.278359 82.713857 
L 280.584034 78.005014 
L 291.153394 72.915881 
L 301.722753 67.564315 
L 312.292112 61.949934 
L 323.534441 55.688787 
L 333.488712 49.897701 
L 344.00019 43.530406 
L 355.314063 36.385166 
L 365.599526 29.628899 
L 374.128344 23.837812 
L 374.128344 23.837812 
" clip-path="url(#p1cdb981fa3)" style="fill: none; stroke: #d6e5f4; stroke-width: 0.95"/>
    <path d="M 525.000469 186.082273 
L 520.226574 191.039397 
M 500.592804 210.860827 
L 489.328881 221.818269 
L 477.194136 233.282102 
L 466.677481 242.933913 
L 455.859936 252.585723 
L 444.71616 262.237534 
L 434.380219 270.924163 
L 423.72743 279.610793 
L 413.967931 287.332241 
L 402.624725 296.018871 
L 392.188926 303.740319 
L 382.314118 310.80803 
L 371.592241 318.218035 
L 361.175399 325.15438 
L 350.60604 331.927575 
L 339.949782 338.486838 
L 329.467321 344.674083 
L 318.897962 350.647598 
L 308.328602 356.354506 
L 297.759243 361.795221 
L 287.189884 366.968653 
L 279.995465 370.337812 
M 50.700469 91.102789 
L 59.948658 91.678625 
L 69.196848 92.053126 
L 78.445037 92.225912 
L 87.693226 92.197629 
L 96.941416 91.968169 
L 106.189605 91.536671 
L 115.437795 90.904487 
L 124.685984 90.070482 
L 133.934173 89.035145 
L 143.182363 87.798214 
L 153.751722 86.13827 
L 162.999912 84.469602 
L 172.248101 82.59968 
L 181.49629 80.528727 
L 190.74448 78.256218 
L 201.313839 75.412322 
L 211.883199 72.305098 
L 222.452558 68.935103 
L 233.021917 65.301475 
L 243.394552 61.479874 
L 251.518296 58.310864 
L 262.087655 53.954097 
L 272.657015 49.334597 
L 277.232423 47.252338 
M 302.285837 34.980889 
L 312.361792 29.628899 
L 322.79015 23.837812 
L 322.79015 23.837812 
" clip-path="url(#p1cdb981fa3)" style="fill: none; stroke: #c1d9ed; stroke-width: 0.95"/>
    <path d="M 525.000469 226.247978 
L 512.541292 239.073189 
L 501.945503 249.69018 
L 491.072313 260.307172 
L 480.927124 269.958982 
L 470.514181 279.610793 
L 459.810099 289.262604 
L 448.789978 298.914414 
L 438.576621 307.601044 
L 428.05796 316.287673 
L 417.204515 324.974303 
L 407.249398 332.695751 
L 396.846987 340.51143 
L 386.277628 348.188203 
L 375.327252 355.860097 
L 365.138909 362.742747 
L 354.56955 369.62058 
L 353.443199 370.337812 
M 50.700469 50.612058 
L 59.948658 51.201167 
L 69.196848 51.58842 
L 78.445037 51.773779 
L 87.693226 51.757797 
L 96.941416 51.540427 
L 106.189605 51.121015 
L 115.437795 50.500039 
L 124.685984 49.677155 
L 133.934173 48.652787 
L 143.182363 47.426759 
L 152.430552 45.99847 
L 161.678742 44.369342 
L 172.248101 42.25982 
L 182.81746 39.887499 
L 193.004831 37.350347 
L 201.313839 35.101402 
L 211.883199 32.004349 
L 222.452558 28.643274 
L 231.700747 25.487122 
L 236.309791 23.837812 
L 236.309791 23.837812 
" clip-path="url(#p1cdb981fa3)" style="fill: none; stroke: #8fc2de; stroke-width: 0.95"/>
    <path d="M 525.000469 276.336321 
L 512.441495 289.262604 
L 501.21941 300.497077 
L 488.958651 312.426949 
L 477.725112 323.043941 
L 467.225088 332.695751 
L 457.522019 341.382381 
L 446.432519 351.034191 
L 436.152771 359.720821 
L 425.561241 368.40745 
L 423.162996 370.337812 
L 423.162996 370.337812 
" clip-path="url(#p1cdb981fa3)" style="fill: none; stroke: #3d8dc4; stroke-width: 0.95"/>
    <path d="M 525.000469 338.798401 
L 524.373189 339.452019 
L 523.679299 340.175989 
L 523.44711 340.4172 
L 522.518737 341.382381 
L 522.358129 341.549445 
L 521.587537 342.347562 
L 521.036959 342.918537 
L 520.655194 343.312743 
L 519.721638 344.277924 
L 519.715789 344.283971 
L 518.784096 345.243105 
L 518.394619 345.644556 
L 517.845345 346.208286 
L 517.073449 347.00148 
L 516.905359 347.173467 
L 515.962563 348.138648 
L 515.752279 348.354071 
L 515.017258 349.103829 
L 514.431109 349.702457 
L 514.070654 350.06901 
L 513.12263 351.034191 
L 513.10994 351.047112 
L 512.170625 351.999372 
L 511.78877 352.386951 
L 511.217252 352.964553 
L 510.4676 353.723079 
L 510.262485 353.929735 
L 509.30513 354.894916 
L 509.14643 355.054994 
L 508.344837 355.860097 
L 507.82526 356.38255 
L 507.383082 356.825278 
L 506.50409 357.706365 
L 506.419837 357.790459 
L 505.453087 358.75564 
L 505.18292 359.0256 
L 504.484189 359.720821 
L 503.86175 360.34082 
L 503.513729 360.686002 
L 502.541674 361.651183 
L 502.54058 361.652269 
L 501.565474 362.616364 
L 501.21941 362.958891 
L 500.587641 363.581545 
L 499.89824 364.261728 
L 499.608147 364.546726 
L 498.626601 365.511907 
L 498.57707 365.560619 
L 497.641233 366.477088 
L 497.255901 366.854841 
L 496.654131 367.442269 
L 495.934731 368.145251 
L 495.665264 368.40745 
L 494.67416 369.372631 
L 494.613561 369.431657 
L 493.679284 370.337812 
" clip-path="url(#p1cdb981fa3)" style="fill: none; stroke: #08306b; stroke-width: 0.95"/>
   </g>
   <g id="line2d_29">
    <path d="M 63.404933 141.817874 
L 529.23529 258.735052 
L 529.23529 258.735052 
" clip-path="url(#p1cdb981fa3)" style="fill: none; stroke-dasharray: 6.66,2.88; stroke-dashoffset: 0; stroke: #f59e0b; stroke-width: 1.8"/>
   </g>
   <g id="line2d_30">
    <path d="M 63.404933 19.586279 
L 451.18239 408.894062 
L 451.18239 408.894062 
" clip-path="url(#p1cdb981fa3)" style="fill: none; stroke: #7c3aed; stroke-width: 2; stroke-linecap: square"/>
   </g>
   <g id="line2d_31">
    <path d="M 63.404933 41.375389 
L 72.74489 41.009952 
L 82.084847 40.851322 
L 91.424804 40.899498 
L 100.764761 41.154482 
L 110.104718 41.616272 
L 119.444675 42.28487 
L 128.784632 43.160274 
L 138.124589 44.242486 
L 147.464546 45.531504 
L 156.804503 47.02733 
L 166.14446 48.729962 
L 175.484417 50.639402 
L 184.824374 52.755648 
L 194.164332 55.078701 
L 203.504289 57.608562 
L 212.844246 60.345229 
L 222.184203 63.288703 
L 232.691654 66.847311 
L 243.199106 70.667658 
L 253.706558 74.749746 
L 264.214009 79.093574 
L 274.721461 83.699142 
L 285.228913 88.56645 
L 295.736364 93.695498 
L 306.243816 99.086286 
L 316.751268 104.738814 
L 327.258719 110.653082 
L 337.766171 116.82909 
L 348.273623 123.266839 
L 358.781074 129.966327 
L 369.288526 136.927556 
L 379.795978 144.150524 
L 390.303429 151.635233 
L 400.810881 159.381682 
L 411.318333 167.389871 
L 421.825784 175.6598 
L 432.333236 184.191469 
L 442.840688 192.984878 
L 454.515634 203.062312 
L 466.19058 213.462881 
L 477.865526 224.186587 
L 489.540473 235.233428 
L 501.215419 246.603405 
L 512.890365 258.296518 
L 524.565312 270.312767 
L 529.23529 275.209745 
L 529.23529 275.209745 
" clip-path="url(#p1cdb981fa3)" style="fill: none; stroke-dasharray: 1.35,2.2275; stroke-dashoffset: 0; stroke: #64748b; stroke-width: 1.35"/>
   </g>
   <g id="line2d_32">
    <path d="M 304.06514 408.894062 
L 314.416278 403.381192 
L 324.92373 397.525088 
L 335.431182 391.407245 
L 345.938633 385.027661 
L 356.446085 378.386337 
L 366.953537 371.483273 
L 377.460988 364.318468 
L 387.96844 356.891924 
L 398.475892 349.20364 
L 408.983343 341.253615 
L 419.490795 333.041851 
L 429.998247 324.568346 
L 440.505698 315.833102 
L 452.180645 305.820295 
L 463.855591 295.484353 
L 475.530537 284.825275 
L 487.205484 273.84306 
L 498.88043 262.53771 
L 510.555376 250.909224 
L 522.230322 238.957603 
L 529.23529 231.631524 
L 529.23529 231.631524 
" clip-path="url(#p1cdb981fa3)" style="fill: none; stroke-dasharray: 8.64,2.16,1.35,2.16; stroke-dashoffset: 0; stroke: #64748b; stroke-width: 1.35"/>
   </g>
   <g id="line2d_33">
    <path d="M 225.739754 182.561739 
L 394.163268 351.649919 
L 394.163268 351.649919 
" clip-path="url(#p1cdb981fa3)" style="fill: none; stroke: #16a34a; stroke-width: 5; stroke-linecap: round"/>
   </g>
   <g id="line2d_34">
    <path d="M 296.320112 253.420635 
L 296.320112 253.420635 
L 252.291356 236.192547 
L 263.458021 220.428857 
L 260.743913 217.704038 
L 260.743913 217.704038 
L 260.357118 217.315717 
L 260.357118 217.315717 
L 260.31116 217.269577 
L 260.31116 217.269577 
L 260.302662 217.261046 
L 260.302662 217.261046 
L 260.300971 217.259348 
L 260.300971 217.259348 
L 260.300633 217.259008 
L 260.300633 217.259008 
L 260.300565 217.25894 
" clip-path="url(#p1cdb981fa3)" style="fill: none; stroke: #2563eb; stroke-width: 2; stroke-linecap: square"/>
    <defs>
     <path id="me18309c51d" d="M 0 2 
C 0.530406 2 1.03916 1.789267 1.414214 1.414214 
C 1.789267 1.03916 2 0.530406 2 0 
C 2 -0.530406 1.789267 -1.03916 1.414214 -1.414214 
C 1.03916 -1.789267 0.530406 -2 0 -2 
C -0.530406 -2 -1.03916 -1.789267 -1.414214 -1.414214 
C -1.789267 -1.03916 -2 -0.530406 -2 0 
C -2 0.530406 -1.789267 1.03916 -1.414214 1.414214 
C -1.03916 1.789267 -0.530406 2 0 2 
z
" style="stroke: #2563eb"/>
    </defs>
    <g clip-path="url(#p1cdb981fa3)">
     <use xlink:href="#me18309c51d" x="296.320112" y="253.420635" style="fill: #2563eb; stroke: #2563eb"/>
     <use xlink:href="#me18309c51d" x="296.320112" y="253.420635" style="fill: #2563eb; stroke: #2563eb"/>
     <use xlink:href="#me18309c51d" x="252.291356" y="236.192547" style="fill: #2563eb; stroke: #2563eb"/>
     <use xlink:href="#me18309c51d" x="263.458021" y="220.428857" style="fill: #2563eb; stroke: #2563eb"/>
     <use xlink:href="#me18309c51d" x="260.743913" y="217.704038" style="fill: #2563eb; stroke: #2563eb"/>
     <use xlink:href="#me18309c51d" x="260.743913" y="217.704038" style="fill: #2563eb; stroke: #2563eb"/>
     <use xlink:href="#me18309c51d" x="260.357118" y="217.315717" style="fill: #2563eb; stroke: #2563eb"/>
     <use xlink:href="#me18309c51d" x="260.357118" y="217.315717" style="fill: #2563eb; stroke: #2563eb"/>
     <use xlink:href="#me18309c51d" x="260.31116" y="217.269577" style="fill: #2563eb; stroke: #2563eb"/>
     <use xlink:href="#me18309c51d" x="260.31116" y="217.269577" style="fill: #2563eb; stroke: #2563eb"/>
     <use xlink:href="#me18309c51d" x="260.302662" y="217.261046" style="fill: #2563eb; stroke: #2563eb"/>
     <use xlink:href="#me18309c51d" x="260.302662" y="217.261046" style="fill: #2563eb; stroke: #2563eb"/>
     <use xlink:href="#me18309c51d" x="260.300971" y="217.259348" style="fill: #2563eb; stroke: #2563eb"/>
     <use xlink:href="#me18309c51d" x="260.300971" y="217.259348" style="fill: #2563eb; stroke: #2563eb"/>
     <use xlink:href="#me18309c51d" x="260.300633" y="217.259008" style="fill: #2563eb; stroke: #2563eb"/>
     <use xlink:href="#me18309c51d" x="260.300633" y="217.259008" style="fill: #2563eb; stroke: #2563eb"/>
     <use xlink:href="#me18309c51d" x="260.300565" y="217.25894" style="fill: #2563eb; stroke: #2563eb"/>
    </g>
   </g>
   <g id="line2d_35">
    <path d="M 296.320112 253.420635 
L 225.739754 182.561739 
L 260.221945 217.18001 
L 260.300732 217.259108 
L 260.300548 217.258923 
L 260.300548 217.258923 
" clip-path="url(#p1cdb981fa3)" style="fill: none; stroke: #dc2626; stroke-width: 1.8; stroke-linecap: square"/>
    <defs>
     <path id="m63ad372ced" d="M -2 2 
L 2 2 
L 2 -2 
L -2 -2 
z
" style="stroke: #dc2626; stroke-linejoin: miter"/>
    </defs>
    <g clip-path="url(#p1cdb981fa3)">
     <use xlink:href="#m63ad372ced" x="296.320112" y="253.420635" style="fill: #dc2626; stroke: #dc2626; stroke-linejoin: miter"/>
     <use xlink:href="#m63ad372ced" x="225.739754" y="182.561739" style="fill: #dc2626; stroke: #dc2626; stroke-linejoin: miter"/>
     <use xlink:href="#m63ad372ced" x="260.221945" y="217.18001" style="fill: #dc2626; stroke: #dc2626; stroke-linejoin: miter"/>
     <use xlink:href="#m63ad372ced" x="260.300732" y="217.259108" style="fill: #dc2626; stroke: #dc2626; stroke-linejoin: miter"/>
     <use xlink:href="#m63ad372ced" x="260.300548" y="217.258923" style="fill: #dc2626; stroke: #dc2626; stroke-linejoin: miter"/>
     <use xlink:href="#m63ad372ced" x="260.300548" y="217.258923" style="fill: #dc2626; stroke: #dc2626; stroke-linejoin: miter"/>
    </g>
   </g>
   <g id="patch_5">
    <path d="M 50.700469 370.337812 
L 50.700469 23.837812 
" style="fill: none; stroke: #000000; stroke-width: 0.8; stroke-linejoin: miter; stroke-linecap: square"/>
   </g>
   <g id="patch_6">
    <path d="M 50.700469 370.337812 
L 525.000469 370.337812 
" style="fill: none; stroke: #000000; stroke-width: 0.8; stroke-linejoin: miter; stroke-linecap: square"/>
   </g>
   <g id="text_17">
    <g id="patch_7">
     <path d="M 69.672469 354.569531 
L 167.772469 354.569531 
Q 170.922469 354.569531 170.922469 351.419531 
L 170.922469 332.631187 
Q 170.922469 329.481187 167.772469 329.481187 
L 69.672469 329.481187 
Q 66.522469 329.481187 66.522469 332.631187 
L 66.522469 351.419531 
Q 66.522469 354.569531 69.672469 354.569531 
z
" style="fill: #ffffff; stroke: #cbd5e1; stroke-linejoin: miter"/>
    </g>
    <!-- $x^\star=(0.4149, 0.1701)$ -->
    <g style="fill: #374151" transform="translate(69.672469 339.469781) scale(0.09 -0.09)">
     <defs>
      <path id="DejaVuSans-22c6" d="M 778 2391 
L 1713 2391 
L 2003 3278 
L 2297 2391 
L 3228 2391 
L 2472 1841 
L 2766 953 
L 2003 1503 
L 1244 953 
L 1534 1841 
L 778 2391 
z
" transform="scale(0.015625)"/>
      <path id="DejaVuSans-3d" d="M 678 2906 
L 4684 2906 
L 4684 2381 
L 678 2381 
L 678 2906 
z
M 678 1631 
L 4684 1631 
L 4684 1100 
L 678 1100 
L 678 1631 
z
" transform="scale(0.015625)"/>
      <path id="DejaVuSans-28" d="M 1984 4856 
Q 1566 4138 1362 3434 
Q 1159 2731 1159 2009 
Q 1159 1288 1364 580 
Q 1569 -128 1984 -844 
L 1484 -844 
Q 1016 -109 783 600 
Q 550 1309 550 2009 
Q 550 2706 781 3412 
Q 1013 4119 1484 4856 
L 1984 4856 
z
" transform="scale(0.015625)"/>
      <path id="DejaVuSans-39" d="M 703 97 
L 703 672 
Q 941 559 1184 500 
Q 1428 441 1663 441 
Q 2288 441 2617 861 
Q 2947 1281 2994 2138 
Q 2813 1869 2534 1725 
Q 2256 1581 1919 1581 
Q 1219 1581 811 2004 
Q 403 2428 403 3163 
Q 403 3881 828 4315 
Q 1253 4750 1959 4750 
Q 2769 4750 3195 4129 
Q 3622 3509 3622 2328 
Q 3622 1225 3098 567 
Q 2575 -91 1691 -91 
Q 1453 -91 1209 -44 
Q 966 3 703 97 
z
M 1959 2075 
Q 2384 2075 2632 2365 
Q 2881 2656 2881 3163 
Q 2881 3666 2632 3958 
Q 2384 4250 1959 4250 
Q 1534 4250 1286 3958 
Q 1038 3666 1038 3163 
Q 1038 2656 1286 2365 
Q 1534 2075 1959 2075 
z
" transform="scale(0.015625)"/>
      <path id="DejaVuSans-2c" d="M 750 794 
L 1409 794 
L 1409 256 
L 897 -744 
L 494 -744 
L 750 256 
L 750 794 
z
" transform="scale(0.015625)"/>
      <path id="DejaVuSans-37" d="M 525 4666 
L 3525 4666 
L 3525 4397 
L 1831 0 
L 1172 0 
L 2766 4134 
L 525 4134 
L 525 4666 
z
" transform="scale(0.015625)"/>
      <path id="DejaVuSans-29" d="M 513 4856 
L 1013 4856 
Q 1481 4119 1714 3412 
Q 1947 2706 1947 2009 
Q 1947 1309 1714 600 
Q 1481 -109 1013 -844 
L 513 -844 
Q 928 -128 1133 580 
Q 1338 1288 1338 2009 
Q 1338 2731 1133 3434 
Q 928 4138 513 4856 
z
" transform="scale(0.015625)"/>
     </defs>
     <use xlink:href="#DejaVuSans-Oblique-78" transform="translate(0 0.125)"/>
     <use xlink:href="#DejaVuSans-22c6" transform="translate(77.283529 38.40625) scale(0.7)"/>
     <use xlink:href="#DejaVuSans-3d" transform="translate(156.95638 0.125)"/>
     <use xlink:href="#DejaVuSans-28" transform="translate(260.227865 0.125)"/>
     <use xlink:href="#DejaVuSans-30" transform="translate(299.241536 0.125)"/>
     <use xlink:href="#DejaVuSans-2e" transform="translate(362.864583 0.125)"/>
     <use xlink:href="#DejaVuSans-34" transform="translate(394.651693 0.125)"/>
     <use xlink:href="#DejaVuSans-31" transform="translate(458.27474 0.125)"/>
     <use xlink:href="#DejaVuSans-34" transform="translate(521.897786 0.125)"/>
     <use xlink:href="#DejaVuSans-39" transform="translate(585.520833 0.125)"/>
     <use xlink:href="#DejaVuSans-2c" transform="translate(649.14388 0.125)"/>
     <use xlink:href="#DejaVuSans-30" transform="translate(700.413411 0.125)"/>
     <use xlink:href="#DejaVuSans-2e" transform="translate(764.036458 0.125)"/>
     <use xlink:href="#DejaVuSans-31" transform="translate(795.823568 0.125)"/>
     <use xlink:href="#DejaVuSans-37" transform="translate(859.446615 0.125)"/>
     <use xlink:href="#DejaVuSans-30" transform="translate(923.069661 0.125)"/>
     <use xlink:href="#DejaVuSans-31" transform="translate(986.692708 0.125)"/>
     <use xlink:href="#DejaVuSans-29" transform="translate(1050.315755 0.125)"/>
    </g>
    <!-- $f(x^\star)=0.3427$ -->
    <g style="fill: #374151" transform="translate(69.672469 349.547812) scale(0.09 -0.09)">
     <defs>
      <path id="DejaVuSans-Oblique-66" d="M 3059 4863 
L 2969 4384 
L 2419 4384 
Q 2106 4384 1964 4261 
Q 1822 4138 1753 3809 
L 1691 3500 
L 2638 3500 
L 2553 3053 
L 1606 3053 
L 1013 0 
L 434 0 
L 1031 3053 
L 481 3053 
L 563 3500 
L 1113 3500 
L 1159 3744 
Q 1278 4363 1576 4613 
Q 1875 4863 2516 4863 
L 3059 4863 
z
" transform="scale(0.015625)"/>
      <path id="DejaVuSans-33" d="M 2597 2516 
Q 3050 2419 3304 2112 
Q 3559 1806 3559 1356 
Q 3559 666 3084 287 
Q 2609 -91 1734 -91 
Q 1441 -91 1130 -33 
Q 819 25 488 141 
L 488 750 
Q 750 597 1062 519 
Q 1375 441 1716 441 
Q 2309 441 2620 675 
Q 2931 909 2931 1356 
Q 2931 1769 2642 2001 
Q 2353 2234 1838 2234 
L 1294 2234 
L 1294 2753 
L 1863 2753 
Q 2328 2753 2575 2939 
Q 2822 3125 2822 3475 
Q 2822 3834 2567 4026 
Q 2313 4219 1838 4219 
Q 1578 4219 1281 4162 
Q 984 4106 628 3988 
L 628 4550 
Q 988 4650 1302 4700 
Q 1616 4750 1894 4750 
Q 2613 4750 3031 4423 
Q 3450 4097 3450 3541 
Q 3450 3153 3228 2886 
Q 3006 2619 2597 2516 
z
" transform="scale(0.015625)"/>
     </defs>
     <use xlink:href="#DejaVuSans-Oblique-66" transform="translate(0 0.015625)"/>
     <use xlink:href="#DejaVuSans-28" transform="translate(35.205078 0.015625)"/>
     <use xlink:href="#DejaVuSans-Oblique-78" transform="translate(74.21875 0.015625)"/>
     <use xlink:href="#DejaVuSans-22c6" transform="translate(151.502279 38.296875) scale(0.7)"/>
     <use xlink:href="#DejaVuSans-29" transform="translate(211.692708 0.015625)"/>
     <use xlink:href="#DejaVuSans-3d" transform="translate(270.188802 0.015625)"/>
     <use xlink:href="#DejaVuSans-30" transform="translate(373.460286 0.015625)"/>
     <use xlink:href="#DejaVuSans-2e" transform="translate(437.083333 0.015625)"/>
     <use xlink:href="#DejaVuSans-33" transform="translate(468.870443 0.015625)"/>
     <use xlink:href="#DejaVuSans-34" transform="translate(532.49349 0.015625)"/>
     <use xlink:href="#DejaVuSans-32" transform="translate(596.116536 0.015625)"/>
     <use xlink:href="#DejaVuSans-37" transform="translate(659.739583 0.015625)"/>
    </g>
   </g>
   <g id="text_18">
    <!-- Constrained Rosenbrock minimization follows feasible geometry -->
    <g transform="translate(63.014844 17.837812) scale(0.14 -0.14)">
     <defs>
      <path id="DejaVuSans-43" d="M 4122 4306 
L 4122 3641 
Q 3803 3938 3442 4084 
Q 3081 4231 2675 4231 
Q 1875 4231 1450 3742 
Q 1025 3253 1025 2328 
Q 1025 1406 1450 917 
Q 1875 428 2675 428 
Q 3081 428 3442 575 
Q 3803 722 4122 1019 
L 4122 359 
Q 3791 134 3420 21 
Q 3050 -91 2638 -91 
Q 1578 -91 968 557 
Q 359 1206 359 2328 
Q 359 3453 968 4101 
Q 1578 4750 2638 4750 
Q 3056 4750 3426 4639 
Q 3797 4528 4122 4306 
z
" transform="scale(0.015625)"/>
      <path id="DejaVuSans-6f" d="M 1959 3097 
Q 1497 3097 1228 2736 
Q 959 2375 959 1747 
Q 959 1119 1226 758 
Q 1494 397 1959 397 
Q 2419 397 2687 759 
Q 2956 1122 2956 1747 
Q 2956 2369 2687 2733 
Q 2419 3097 1959 3097 
z
M 1959 3584 
Q 2709 3584 3137 3096 
Q 3566 2609 3566 1747 
Q 3566 888 3137 398 
Q 2709 -91 1959 -91 
Q 1206 -91 779 398 
Q 353 888 353 1747 
Q 353 2609 779 3096 
Q 1206 3584 1959 3584 
z
" transform="scale(0.015625)"/>
      <path id="DejaVuSans-6e" d="M 3513 2113 
L 3513 0 
L 2938 0 
L 2938 2094 
Q 2938 2591 2744 2837 
Q 2550 3084 2163 3084 
Q 1697 3084 1428 2787 
Q 1159 2491 1159 1978 
L 1159 0 
L 581 0 
L 581 3500 
L 1159 3500 
L 1159 2956 
Q 1366 3272 1645 3428 
Q 1925 3584 2291 3584 
Q 2894 3584 3203 3211 
Q 3513 2838 3513 2113 
z
" transform="scale(0.015625)"/>
      <path id="DejaVuSans-73" d="M 2834 3397 
L 2834 2853 
Q 2591 2978 2328 3040 
Q 2066 3103 1784 3103 
Q 1356 3103 1142 2972 
Q 928 2841 928 2578 
Q 928 2378 1081 2264 
Q 1234 2150 1697 2047 
L 1894 2003 
Q 2506 1872 2764 1633 
Q 3022 1394 3022 966 
Q 3022 478 2636 193 
Q 2250 -91 1575 -91 
Q 1294 -91 989 -36 
Q 684 19 347 128 
L 347 722 
Q 666 556 975 473 
Q 1284 391 1588 391 
Q 1994 391 2212 530 
Q 2431 669 2431 922 
Q 2431 1156 2273 1281 
Q 2116 1406 1581 1522 
L 1381 1569 
Q 847 1681 609 1914 
Q 372 2147 372 2553 
Q 372 3047 722 3315 
Q 1072 3584 1716 3584 
Q 2034 3584 2315 3537 
Q 2597 3491 2834 3397 
z
" transform="scale(0.015625)"/>
      <path id="DejaVuSans-74" d="M 1172 4494 
L 1172 3500 
L 2356 3500 
L 2356 3053 
L 1172 3053 
L 1172 1153 
Q 1172 725 1289 603 
Q 1406 481 1766 481 
L 2356 481 
L 2356 0 
L 1766 0 
Q 1100 0 847 248 
Q 594 497 594 1153 
L 594 3053 
L 172 3053 
L 172 3500 
L 594 3500 
L 594 4494 
L 1172 4494 
z
" transform="scale(0.015625)"/>
      <path id="DejaVuSans-72" d="M 2631 2963 
Q 2534 3019 2420 3045 
Q 2306 3072 2169 3072 
Q 1681 3072 1420 2755 
Q 1159 2438 1159 1844 
L 1159 0 
L 581 0 
L 581 3500 
L 1159 3500 
L 1159 2956 
Q 1341 3275 1631 3429 
Q 1922 3584 2338 3584 
Q 2397 3584 2469 3576 
Q 2541 3569 2628 3553 
L 2631 2963 
z
" transform="scale(0.015625)"/>
      <path id="DejaVuSans-61" d="M 2194 1759 
Q 1497 1759 1228 1600 
Q 959 1441 959 1056 
Q 959 750 1161 570 
Q 1363 391 1709 391 
Q 2188 391 2477 730 
Q 2766 1069 2766 1631 
L 2766 1759 
L 2194 1759 
z
M 3341 1997 
L 3341 0 
L 2766 0 
L 2766 531 
Q 2569 213 2275 61 
Q 1981 -91 1556 -91 
Q 1019 -91 701 211 
Q 384 513 384 1019 
Q 384 1609 779 1909 
Q 1175 2209 1959 2209 
L 2766 2209 
L 2766 2266 
Q 2766 2663 2505 2880 
Q 2244 3097 1772 3097 
Q 1472 3097 1187 3025 
Q 903 2953 641 2809 
L 641 3341 
Q 956 3463 1253 3523 
Q 1550 3584 1831 3584 
Q 2591 3584 2966 3190 
Q 3341 2797 3341 1997 
z
" transform="scale(0.015625)"/>
      <path id="DejaVuSans-69" d="M 603 3500 
L 1178 3500 
L 1178 0 
L 603 0 
L 603 3500 
z
M 603 4863 
L 1178 4863 
L 1178 4134 
L 603 4134 
L 603 4863 
z
" transform="scale(0.015625)"/>
      <path id="DejaVuSans-65" d="M 3597 1894 
L 3597 1613 
L 953 1613 
Q 991 1019 1311 708 
Q 1631 397 2203 397 
Q 2534 397 2845 478 
Q 3156 559 3463 722 
L 3463 178 
Q 3153 47 2828 -22 
Q 2503 -91 2169 -91 
Q 1331 -91 842 396 
Q 353 884 353 1716 
Q 353 2575 817 3079 
Q 1281 3584 2069 3584 
Q 2775 3584 3186 3129 
Q 3597 2675 3597 1894 
z
M 3022 2063 
Q 3016 2534 2758 2815 
Q 2500 3097 2075 3097 
Q 1594 3097 1305 2825 
Q 1016 2553 972 2059 
L 3022 2063 
z
" transform="scale(0.015625)"/>
      <path id="DejaVuSans-64" d="M 2906 2969 
L 2906 4863 
L 3481 4863 
L 3481 0 
L 2906 0 
L 2906 525 
Q 2725 213 2448 61 
Q 2172 -91 1784 -91 
Q 1150 -91 751 415 
Q 353 922 353 1747 
Q 353 2572 751 3078 
Q 1150 3584 1784 3584 
Q 2172 3584 2448 3432 
Q 2725 3281 2906 2969 
z
M 947 1747 
Q 947 1113 1208 752 
Q 1469 391 1925 391 
Q 2381 391 2643 752 
Q 2906 1113 2906 1747 
Q 2906 2381 2643 2742 
Q 2381 3103 1925 3103 
Q 1469 3103 1208 2742 
Q 947 2381 947 1747 
z
" transform="scale(0.015625)"/>
      <path id="DejaVuSans-20" transform="scale(0.015625)"/>
      <path id="DejaVuSans-52" d="M 2841 2188 
Q 3044 2119 3236 1894 
Q 3428 1669 3622 1275 
L 4263 0 
L 3584 0 
L 2988 1197 
Q 2756 1666 2539 1819 
Q 2322 1972 1947 1972 
L 1259 1972 
L 1259 0 
L 628 0 
L 628 4666 
L 2053 4666 
Q 2853 4666 3247 4331 
Q 3641 3997 3641 3322 
Q 3641 2881 3436 2590 
Q 3231 2300 2841 2188 
z
M 1259 4147 
L 1259 2491 
L 2053 2491 
Q 2509 2491 2742 2702 
Q 2975 2913 2975 3322 
Q 2975 3731 2742 3939 
Q 2509 4147 2053 4147 
L 1259 4147 
z
" transform="scale(0.015625)"/>
      <path id="DejaVuSans-62" d="M 3116 1747 
Q 3116 2381 2855 2742 
Q 2594 3103 2138 3103 
Q 1681 3103 1420 2742 
Q 1159 2381 1159 1747 
Q 1159 1113 1420 752 
Q 1681 391 2138 391 
Q 2594 391 2855 752 
Q 3116 1113 3116 1747 
z
M 1159 2969 
Q 1341 3281 1617 3432 
Q 1894 3584 2278 3584 
Q 2916 3584 3314 3078 
Q 3713 2572 3713 1747 
Q 3713 922 3314 415 
Q 2916 -91 2278 -91 
Q 1894 -91 1617 61 
Q 1341 213 1159 525 
L 1159 0 
L 581 0 
L 581 4863 
L 1159 4863 
L 1159 2969 
z
" transform="scale(0.015625)"/>
      <path id="DejaVuSans-63" d="M 3122 3366 
L 3122 2828 
Q 2878 2963 2633 3030 
Q 2388 3097 2138 3097 
Q 1578 3097 1268 2742 
Q 959 2388 959 1747 
Q 959 1106 1268 751 
Q 1578 397 2138 397 
Q 2388 397 2633 464 
Q 2878 531 3122 666 
L 3122 134 
Q 2881 22 2623 -34 
Q 2366 -91 2075 -91 
Q 1284 -91 818 406 
Q 353 903 353 1747 
Q 353 2603 823 3093 
Q 1294 3584 2113 3584 
Q 2378 3584 2631 3529 
Q 2884 3475 3122 3366 
z
" transform="scale(0.015625)"/>
      <path id="DejaVuSans-6b" d="M 581 4863 
L 1159 4863 
L 1159 1991 
L 2875 3500 
L 3609 3500 
L 1753 1863 
L 3688 0 
L 2938 0 
L 1159 1709 
L 1159 0 
L 581 0 
L 581 4863 
z
" transform="scale(0.015625)"/>
      <path id="DejaVuSans-6d" d="M 3328 2828 
Q 3544 3216 3844 3400 
Q 4144 3584 4550 3584 
Q 5097 3584 5394 3201 
Q 5691 2819 5691 2113 
L 5691 0 
L 5113 0 
L 5113 2094 
Q 5113 2597 4934 2840 
Q 4756 3084 4391 3084 
Q 3944 3084 3684 2787 
Q 3425 2491 3425 1978 
L 3425 0 
L 2847 0 
L 2847 2094 
Q 2847 2600 2669 2842 
Q 2491 3084 2119 3084 
Q 1678 3084 1418 2786 
Q 1159 2488 1159 1978 
L 1159 0 
L 581 0 
L 581 3500 
L 1159 3500 
L 1159 2956 
Q 1356 3278 1631 3431 
Q 1906 3584 2284 3584 
Q 2666 3584 2933 3390 
Q 3200 3197 3328 2828 
z
" transform="scale(0.015625)"/>
      <path id="DejaVuSans-7a" d="M 353 3500 
L 3084 3500 
L 3084 2975 
L 922 459 
L 3084 459 
L 3084 0 
L 275 0 
L 275 525 
L 2438 3041 
L 353 3041 
L 353 3500 
z
" transform="scale(0.015625)"/>
      <path id="DejaVuSans-66" d="M 2375 4863 
L 2375 4384 
L 1825 4384 
Q 1516 4384 1395 4259 
Q 1275 4134 1275 3809 
L 1275 3500 
L 2222 3500 
L 2222 3053 
L 1275 3053 
L 1275 0 
L 697 0 
L 697 3053 
L 147 3053 
L 147 3500 
L 697 3500 
L 697 3744 
Q 697 4328 969 4595 
Q 1241 4863 1831 4863 
L 2375 4863 
z
" transform="scale(0.015625)"/>
      <path id="DejaVuSans-6c" d="M 603 4863 
L 1178 4863 
L 1178 0 
L 603 0 
L 603 4863 
z
" transform="scale(0.015625)"/>
      <path id="DejaVuSans-77" d="M 269 3500 
L 844 3500 
L 1563 769 
L 2278 3500 
L 2956 3500 
L 3675 769 
L 4391 3500 
L 4966 3500 
L 4050 0 
L 3372 0 
L 2619 2869 
L 1863 0 
L 1184 0 
L 269 3500 
z
" transform="scale(0.015625)"/>
      <path id="DejaVuSans-67" d="M 2906 1791 
Q 2906 2416 2648 2759 
Q 2391 3103 1925 3103 
Q 1463 3103 1205 2759 
Q 947 2416 947 1791 
Q 947 1169 1205 825 
Q 1463 481 1925 481 
Q 2391 481 2648 825 
Q 2906 1169 2906 1791 
z
M 3481 434 
Q 3481 -459 3084 -895 
Q 2688 -1331 1869 -1331 
Q 1566 -1331 1297 -1286 
Q 1028 -1241 775 -1147 
L 775 -588 
Q 1028 -725 1275 -790 
Q 1522 -856 1778 -856 
Q 2344 -856 2625 -561 
Q 2906 -266 2906 331 
L 2906 616 
Q 2728 306 2450 153 
Q 2172 0 1784 0 
Q 1141 0 747 490 
Q 353 981 353 1791 
Q 353 2603 747 3093 
Q 1141 3584 1784 3584 
Q 2172 3584 2450 3431 
Q 2728 3278 2906 2969 
L 2906 3500 
L 3481 3500 
L 3481 434 
z
" transform="scale(0.015625)"/>
      <path id="DejaVuSans-79" d="M 2059 -325 
Q 1816 -950 1584 -1140 
Q 1353 -1331 966 -1331 
L 506 -1331 
L 506 -850 
L 844 -850 
Q 1081 -850 1212 -737 
Q 1344 -625 1503 -206 
L 1606 56 
L 191 3500 
L 800 3500 
L 1894 763 
L 2988 3500 
L 3597 3500 
L 2059 -325 
z
" transform="scale(0.015625)"/>
     </defs>
     <use xlink:href="#DejaVuSans-43"/>
     <use xlink:href="#DejaVuSans-6f" transform="translate(69.824219 0)"/>
     <use xlink:href="#DejaVuSans-6e" transform="translate(131.005859 0)"/>
     <use xlink:href="#DejaVuSans-73" transform="translate(194.384766 0)"/>
     <use xlink:href="#DejaVuSans-74" transform="translate(246.484375 0)"/>
     <use xlink:href="#DejaVuSans-72" transform="translate(285.693359 0)"/>
     <use xlink:href="#DejaVuSans-61" transform="translate(326.806641 0)"/>
     <use xlink:href="#DejaVuSans-69" transform="translate(388.085938 0)"/>
     <use xlink:href="#DejaVuSans-6e" transform="translate(415.869141 0)"/>
     <use xlink:href="#DejaVuSans-65" transform="translate(479.248047 0)"/>
     <use xlink:href="#DejaVuSans-64" transform="translate(540.771484 0)"/>
     <use xlink:href="#DejaVuSans-20" transform="translate(604.248047 0)"/>
     <use xlink:href="#DejaVuSans-52" transform="translate(636.035156 0)"/>
     <use xlink:href="#DejaVuSans-6f" transform="translate(701.017578 0)"/>
     <use xlink:href="#DejaVuSans-73" transform="translate(762.199219 0)"/>
     <use xlink:href="#DejaVuSans-65" transform="translate(814.298828 0)"/>
     <use xlink:href="#DejaVuSans-6e" transform="translate(875.822266 0)"/>
     <use xlink:href="#DejaVuSans-62" transform="translate(939.201172 0)"/>
     <use xlink:href="#DejaVuSans-72" transform="translate(1002.677734 0)"/>
     <use xlink:href="#DejaVuSans-6f" transform="translate(1041.541016 0)"/>
     <use xlink:href="#DejaVuSans-63" transform="translate(1102.722656 0)"/>
     <use xlink:href="#DejaVuSans-6b" transform="translate(1157.703125 0)"/>
     <use xlink:href="#DejaVuSans-20" transform="translate(1215.613281 0)"/>
     <use xlink:href="#DejaVuSans-6d" transform="translate(1247.400391 0)"/>
     <use xlink:href="#DejaVuSans-69" transform="translate(1344.8125 0)"/>
     <use xlink:href="#DejaVuSans-6e" transform="translate(1372.595703 0)"/>
     <use xlink:href="#DejaVuSans-69" transform="translate(1435.974609 0)"/>
     <use xlink:href="#DejaVuSans-6d" transform="translate(1463.757812 0)"/>
     <use xlink:href="#DejaVuSans-69" transform="translate(1561.169922 0)"/>
     <use xlink:href="#DejaVuSans-7a" transform="translate(1588.953125 0)"/>
     <use xlink:href="#DejaVuSans-61" transform="translate(1641.443359 0)"/>
     <use xlink:href="#DejaVuSans-74" transform="translate(1702.722656 0)"/>
     <use xlink:href="#DejaVuSans-69" transform="translate(1741.931641 0)"/>
     <use xlink:href="#DejaVuSans-6f" transform="translate(1769.714844 0)"/>
     <use xlink:href="#DejaVuSans-6e" transform="translate(1830.896484 0)"/>
     <use xlink:href="#DejaVuSans-20" transform="translate(1894.275391 0)"/>
     <use xlink:href="#DejaVuSans-66" transform="translate(1926.0625 0)"/>
     <use xlink:href="#DejaVuSans-6f" transform="translate(1961.267578 0)"/>
     <use xlink:href="#DejaVuSans-6c" transform="translate(2022.449219 0)"/>
     <use xlink:href="#DejaVuSans-6c" transform="translate(2050.232422 0)"/>
     <use xlink:href="#DejaVuSans-6f" transform="translate(2078.015625 0)"/>
     <use xlink:href="#DejaVuSans-77" transform="translate(2139.197266 0)"/>
     <use xlink:href="#DejaVuSans-73" transform="translate(2220.984375 0)"/>
     <use xlink:href="#DejaVuSans-20" transform="translate(2273.083984 0)"/>
     <use xlink:href="#DejaVuSans-66" transform="translate(2304.871094 0)"/>
     <use xlink:href="#DejaVuSans-65" transform="translate(2340.076172 0)"/>
     <use xlink:href="#DejaVuSans-61" transform="translate(2401.599609 0)"/>
     <use xlink:href="#DejaVuSans-73" transform="translate(2462.878906 0)"/>
     <use xlink:href="#DejaVuSans-69" transform="translate(2514.978516 0)"/>
     <use xlink:href="#DejaVuSans-62" transform="translate(2542.761719 0)"/>
     <use xlink:href="#DejaVuSans-6c" transform="translate(2606.238281 0)"/>
     <use xlink:href="#DejaVuSans-65" transform="translate(2634.021484 0)"/>
     <use xlink:href="#DejaVuSans-20" transform="translate(2695.544922 0)"/>
     <use xlink:href="#DejaVuSans-67" transform="translate(2727.332031 0)"/>
     <use xlink:href="#DejaVuSans-65" transform="translate(2790.808594 0)"/>
     <use xlink:href="#DejaVuSans-6f" transform="translate(2852.332031 0)"/>
     <use xlink:href="#DejaVuSans-6d" transform="translate(2913.513672 0)"/>
     <use xlink:href="#DejaVuSans-65" transform="translate(3010.925781 0)"/>
     <use xlink:href="#DejaVuSans-74" transform="translate(3072.449219 0)"/>
     <use xlink:href="#DejaVuSans-72" transform="translate(3111.658203 0)"/>
     <use xlink:href="#DejaVuSans-79" transform="translate(3152.771484 0)"/>
    </g>
   </g>
   <g id="text_19">
    <g clip-path="url(#p1cdb981fa3)">
     <!-- 0.05 -->
     <g style="fill: #f7fbff" transform="translate(429.309736 112.508019) rotate(-41.744494) scale(0.07 -0.07)">
      <defs>
       <path id="DejaVuSans-35" d="M 691 4666 
L 3169 4666 
L 3169 4134 
L 1269 4134 
L 1269 2991 
Q 1406 3038 1543 3061 
Q 1681 3084 1819 3084 
Q 2600 3084 3056 2656 
Q 3513 2228 3513 1497 
Q 3513 744 3044 326 
Q 2575 -91 1722 -91 
Q 1428 -91 1123 -41 
Q 819 9 494 109 
L 494 744 
Q 775 591 1075 516 
Q 1375 441 1709 441 
Q 2250 441 2565 725 
Q 2881 1009 2881 1497 
Q 2881 1984 2565 2268 
Q 2250 2553 1709 2553 
Q 1456 2553 1204 2497 
Q 953 2441 691 2322 
L 691 4666 
z
" transform="scale(0.015625)"/>
      </defs>
      <use xlink:href="#DejaVuSans-30"/>
      <use xlink:href="#DejaVuSans-2e" transform="translate(63.623047 0)"/>
      <use xlink:href="#DejaVuSans-30" transform="translate(95.410156 0)"/>
      <use xlink:href="#DejaVuSans-35" transform="translate(159.033203 0)"/>
     </g>
    </g>
   </g>
   <g id="text_20">
    <g clip-path="url(#p1cdb981fa3)">
     <!-- 0.3 -->
     <g style="fill: #f7fbff" transform="translate(310.158252 189.608758) rotate(-31.970107) scale(0.07 -0.07)">
      <use xlink:href="#DejaVuSans-30"/>
      <use xlink:href="#DejaVuSans-2e" transform="translate(63.623047 0)"/>
      <use xlink:href="#DejaVuSans-33" transform="translate(95.410156 0)"/>
     </g>
    </g>
   </g>
   <g id="text_21">
    <g clip-path="url(#p1cdb981fa3)">
     <!-- 2 -->
     <g style="fill: #f6faff" transform="translate(446.498528 73.083961) rotate(-40.825577) scale(0.07 -0.07)">
      <use xlink:href="#DejaVuSans-32"/>
     </g>
    </g>
   </g>
   <g id="text_22">
    <g clip-path="url(#p1cdb981fa3)">
     <!-- 2 -->
     <g style="fill: #f6faff" transform="translate(492.533071 86.615518) rotate(-44.024862) scale(0.07 -0.07)">
      <use xlink:href="#DejaVuSans-32"/>
     </g>
    </g>
   </g>
   <g id="text_23">
    <g clip-path="url(#p1cdb981fa3)">
     <!-- 1e+01 -->
     <g style="fill: #eef5fc" transform="translate(419.333991 56.071807) rotate(-39.188126) scale(0.07 -0.07)">
      <defs>
       <path id="DejaVuSans-2b" d="M 2944 4013 
L 2944 2272 
L 4684 2272 
L 4684 1741 
L 2944 1741 
L 2944 0 
L 2419 0 
L 2419 1741 
L 678 1741 
L 678 2272 
L 2419 2272 
L 2419 4013 
L 2944 4013 
z
" transform="scale(0.015625)"/>
      </defs>
      <use xlink:href="#DejaVuSans-31"/>
      <use xlink:href="#DejaVuSans-65" transform="translate(63.623047 0)"/>
      <use xlink:href="#DejaVuSans-2b" transform="translate(125.146484 0)"/>
      <use xlink:href="#DejaVuSans-30" transform="translate(208.935547 0)"/>
      <use xlink:href="#DejaVuSans-31" transform="translate(272.558594 0)"/>
     </g>
    </g>
   </g>
   <g id="text_24">
    <g clip-path="url(#p1cdb981fa3)">
     <!-- 1e+01 -->
     <g style="fill: #eef5fc" transform="translate(504.294531 114.638669) rotate(-45.324422) scale(0.07 -0.07)">
      <use xlink:href="#DejaVuSans-31"/>
      <use xlink:href="#DejaVuSans-65" transform="translate(63.623047 0)"/>
      <use xlink:href="#DejaVuSans-2b" transform="translate(125.146484 0)"/>
      <use xlink:href="#DejaVuSans-30" transform="translate(208.935547 0)"/>
      <use xlink:href="#DejaVuSans-31" transform="translate(272.558594 0)"/>
     </g>
    </g>
   </g>
   <g id="text_25">
    <g clip-path="url(#p1cdb981fa3)">
     <!-- 6e+01 -->
     <g style="fill: #c1d9ed" transform="translate(503.559105 210.726968) rotate(-45.273322) scale(0.07 -0.07)">
      <use xlink:href="#DejaVuSans-36"/>
      <use xlink:href="#DejaVuSans-65" transform="translate(63.623047 0)"/>
      <use xlink:href="#DejaVuSans-2b" transform="translate(125.146484 0)"/>
      <use xlink:href="#DejaVuSans-30" transform="translate(208.935547 0)"/>
      <use xlink:href="#DejaVuSans-31" transform="translate(272.558594 0)"/>
     </g>
    </g>
   </g>
   <g id="text_26">
    <g clip-path="url(#p1cdb981fa3)">
     <!-- 6e+01 -->
     <g style="fill: #c1d9ed" transform="translate(280.114638 48.17704) rotate(-26.098613) scale(0.07 -0.07)">
      <use xlink:href="#DejaVuSans-36"/>
      <use xlink:href="#DejaVuSans-65" transform="translate(63.623047 0)"/>
      <use xlink:href="#DejaVuSans-2b" transform="translate(125.146484 0)"/>
      <use xlink:href="#DejaVuSans-30" transform="translate(208.935547 0)"/>
      <use xlink:href="#DejaVuSans-31" transform="translate(272.558594 0)"/>
     </g>
    </g>
   </g>
   <g id="legend_1">
    <g id="line2d_36">
     <path d="M 391.680469 34.316562 
L 399.680469 34.316562 
L 407.680469 34.316562 
" style="fill: none; stroke-dasharray: 6.66,2.88; stroke-dashoffset: 0; stroke: #f59e0b; stroke-width: 1.8"/>
    </g>
    <g id="text_27">
     <!-- $x_0+2x_1\leq1$ -->
     <g transform="translate(414.080469 37.116562) scale(0.08 -0.08)">
      <defs>
       <path id="DejaVuSans-2264" d="M 4684 3175 
L 1684 2309 
L 4684 1453 
L 4684 897 
L 678 2047 
L 678 2578 
L 4684 3725 
L 4684 3175 
z
M 678 531 
L 4684 531 
L 4684 0 
L 678 0 
L 678 531 
z
" transform="scale(0.015625)"/>
      </defs>
      <use xlink:href="#DejaVuSans-Oblique-78" transform="translate(0 0.78125)"/>
      <use xlink:href="#DejaVuSans-30" transform="translate(59.179688 -15.625) scale(0.7)"/>
      <use xlink:href="#DejaVuSans-2b" transform="translate(125.932617 0.78125)"/>
      <use xlink:href="#DejaVuSans-32" transform="translate(229.204102 0.78125)"/>
      <use xlink:href="#DejaVuSans-Oblique-78" transform="translate(292.827148 0.78125)"/>
      <use xlink:href="#DejaVuSans-31" transform="translate(352.006836 -15.625) scale(0.7)"/>
      <use xlink:href="#DejaVuSans-2264" transform="translate(418.759766 0.78125)"/>
      <use xlink:href="#DejaVuSans-31" transform="translate(522.03125 0.78125)"/>
     </g>
    </g>
    <g id="line2d_37">
     <path d="M 391.680469 46.059062 
L 399.680469 46.059062 
L 407.680469 46.059062 
" style="fill: none; stroke: #7c3aed; stroke-width: 2; stroke-linecap: square"/>
    </g>
    <g id="text_28">
     <!-- $2x_0+x_1=1$ -->
     <g transform="translate(414.080469 48.859062) scale(0.08 -0.08)">
      <use xlink:href="#DejaVuSans-32" transform="translate(0 0.78125)"/>
      <use xlink:href="#DejaVuSans-Oblique-78" transform="translate(63.623047 0.78125)"/>
      <use xlink:href="#DejaVuSans-30" transform="translate(122.802734 -15.625) scale(0.7)"/>
      <use xlink:href="#DejaVuSans-2b" transform="translate(189.555664 0.78125)"/>
      <use xlink:href="#DejaVuSans-Oblique-78" transform="translate(292.827148 0.78125)"/>
      <use xlink:href="#DejaVuSans-31" transform="translate(352.006836 -15.625) scale(0.7)"/>
      <use xlink:href="#DejaVuSans-3d" transform="translate(418.759766 0.78125)"/>
      <use xlink:href="#DejaVuSans-31" transform="translate(522.03125 0.78125)"/>
     </g>
    </g>
    <g id="line2d_38">
     <path d="M 391.680469 59.002812 
L 399.680469 59.002812 
L 407.680469 59.002812 
" style="fill: none; stroke-dasharray: 1.35,2.2275; stroke-dashoffset: 0; stroke: #64748b; stroke-width: 1.35"/>
    </g>
    <g id="text_29">
     <!-- $x_0^2+x_1\leq1$ -->
     <g transform="translate(414.080469 61.802812) scale(0.08 -0.08)">
      <use xlink:href="#DejaVuSans-Oblique-78" transform="translate(0 0.765625)"/>
      <use xlink:href="#DejaVuSans-32" transform="translate(63.645833 39.046875) scale(0.7)"/>
      <use xlink:href="#DejaVuSans-30" transform="translate(59.179688 -26.578125) scale(0.7)"/>
      <use xlink:href="#DejaVuSans-2b" transform="translate(130.398763 0.765625)"/>
      <use xlink:href="#DejaVuSans-Oblique-78" transform="translate(233.670247 0.765625)"/>
      <use xlink:href="#DejaVuSans-31" transform="translate(292.849935 -15.640625) scale(0.7)"/>
      <use xlink:href="#DejaVuSans-2264" transform="translate(359.602865 0.765625)"/>
      <use xlink:href="#DejaVuSans-31" transform="translate(462.874349 0.765625)"/>
     </g>
    </g>
    <g id="line2d_39">
     <path d="M 391.680469 72.602812 
L 399.680469 72.602812 
L 407.680469 72.602812 
" style="fill: none; stroke-dasharray: 8.64,2.16,1.35,2.16; stroke-dashoffset: 0; stroke: #64748b; stroke-width: 1.35"/>
    </g>
    <g id="text_30">
     <!-- $x_0^2-x_1\leq1$ -->
     <g transform="translate(414.080469 75.402812) scale(0.08 -0.08)">
      <use xlink:href="#DejaVuSans-Oblique-78" transform="translate(0 0.765625)"/>
      <use xlink:href="#DejaVuSans-32" transform="translate(63.645833 39.046875) scale(0.7)"/>
      <use xlink:href="#DejaVuSans-30" transform="translate(59.179688 -26.578125) scale(0.7)"/>
      <use xlink:href="#DejaVuSans-2212" transform="translate(130.398763 0.765625)"/>
      <use xlink:href="#DejaVuSans-Oblique-78" transform="translate(233.670247 0.765625)"/>
      <use xlink:href="#DejaVuSans-31" transform="translate(292.849935 -15.640625) scale(0.7)"/>
      <use xlink:href="#DejaVuSans-2264" transform="translate(359.602865 0.765625)"/>
      <use xlink:href="#DejaVuSans-31" transform="translate(462.874349 0.765625)"/>
     </g>
    </g>
    <g id="line2d_40">
     <path d="M 391.680469 85.001562 
L 399.680469 85.001562 
L 407.680469 85.001562 
" style="fill: none; stroke: #16a34a; stroke-width: 5; stroke-linecap: round"/>
    </g>
    <g id="text_31">
     <!-- feasible equality segment -->
     <g transform="translate(414.080469 87.801562) scale(0.08 -0.08)">
      <defs>
       <path id="DejaVuSans-71" d="M 947 1747 
Q 947 1113 1208 752 
Q 1469 391 1925 391 
Q 2381 391 2643 752 
Q 2906 1113 2906 1747 
Q 2906 2381 2643 2742 
Q 2381 3103 1925 3103 
Q 1469 3103 1208 2742 
Q 947 2381 947 1747 
z
M 2906 525 
Q 2725 213 2448 61 
Q 2172 -91 1784 -91 
Q 1150 -91 751 415 
Q 353 922 353 1747 
Q 353 2572 751 3078 
Q 1150 3584 1784 3584 
Q 2172 3584 2448 3432 
Q 2725 3281 2906 2969 
L 2906 3500 
L 3481 3500 
L 3481 -1331 
L 2906 -1331 
L 2906 525 
z
" transform="scale(0.015625)"/>
       <path id="DejaVuSans-75" d="M 544 1381 
L 544 3500 
L 1119 3500 
L 1119 1403 
Q 1119 906 1312 657 
Q 1506 409 1894 409 
Q 2359 409 2629 706 
Q 2900 1003 2900 1516 
L 2900 3500 
L 3475 3500 
L 3475 0 
L 2900 0 
L 2900 538 
Q 2691 219 2414 64 
Q 2138 -91 1772 -91 
Q 1169 -91 856 284 
Q 544 659 544 1381 
z
M 1991 3584 
L 1991 3584 
z
" transform="scale(0.015625)"/>
      </defs>
      <use xlink:href="#DejaVuSans-66"/>
      <use xlink:href="#DejaVuSans-65" transform="translate(35.205078 0)"/>
      <use xlink:href="#DejaVuSans-61" transform="translate(96.728516 0)"/>
      <use xlink:href="#DejaVuSans-73" transform="translate(158.007812 0)"/>
      <use xlink:href="#DejaVuSans-69" transform="translate(210.107422 0)"/>
      <use xlink:href="#DejaVuSans-62" transform="translate(237.890625 0)"/>
      <use xlink:href="#DejaVuSans-6c" transform="translate(301.367188 0)"/>
      <use xlink:href="#DejaVuSans-65" transform="translate(329.150391 0)"/>
      <use xlink:href="#DejaVuSans-20" transform="translate(390.673828 0)"/>
      <use xlink:href="#DejaVuSans-65" transform="translate(422.460938 0)"/>
      <use xlink:href="#DejaVuSans-71" transform="translate(483.984375 0)"/>
      <use xlink:href="#DejaVuSans-75" transform="translate(547.460938 0)"/>
      <use xlink:href="#DejaVuSans-61" transform="translate(610.839844 0)"/>
      <use xlink:href="#DejaVuSans-6c" transform="translate(672.119141 0)"/>
      <use xlink:href="#DejaVuSans-69" transform="translate(699.902344 0)"/>
      <use xlink:href="#DejaVuSans-74" transform="translate(727.685547 0)"/>
      <use xlink:href="#DejaVuSans-79" transform="translate(766.894531 0)"/>
      <use xlink:href="#DejaVuSans-20" transform="translate(826.074219 0)"/>
      <use xlink:href="#DejaVuSans-73" transform="translate(857.861328 0)"/>
      <use xlink:href="#DejaVuSans-65" transform="translate(909.960938 0)"/>
      <use xlink:href="#DejaVuSans-67" transform="translate(971.484375 0)"/>
      <use xlink:href="#DejaVuSans-6d" transform="translate(1034.960938 0)"/>
      <use xlink:href="#DejaVuSans-65" transform="translate(1132.373047 0)"/>
      <use xlink:href="#DejaVuSans-6e" transform="translate(1193.896484 0)"/>
      <use xlink:href="#DejaVuSans-74" transform="translate(1257.275391 0)"/>
     </g>
    </g>
    <g id="line2d_41">
     <path d="M 391.680469 96.744062 
L 399.680469 96.744062 
L 407.680469 96.744062 
" style="fill: none; stroke: #2563eb; stroke-width: 2; stroke-linecap: square"/>
     <g>
      <use xlink:href="#me18309c51d" x="399.680469" y="96.744062" style="fill: #2563eb; stroke: #2563eb"/>
     </g>
    </g>
    <g id="text_32">
     <!-- trust-constr path -->
     <g transform="translate(414.080469 99.544062) scale(0.08 -0.08)">
      <defs>
       <path id="DejaVuSans-2d" d="M 313 2009 
L 1997 2009 
L 1997 1497 
L 313 1497 
L 313 2009 
z
" transform="scale(0.015625)"/>
       <path id="DejaVuSans-70" d="M 1159 525 
L 1159 -1331 
L 581 -1331 
L 581 3500 
L 1159 3500 
L 1159 2969 
Q 1341 3281 1617 3432 
Q 1894 3584 2278 3584 
Q 2916 3584 3314 3078 
Q 3713 2572 3713 1747 
Q 3713 922 3314 415 
Q 2916 -91 2278 -91 
Q 1894 -91 1617 61 
Q 1341 213 1159 525 
z
M 3116 1747 
Q 3116 2381 2855 2742 
Q 2594 3103 2138 3103 
Q 1681 3103 1420 2742 
Q 1159 2381 1159 1747 
Q 1159 1113 1420 752 
Q 1681 391 2138 391 
Q 2594 391 2855 752 
Q 3116 1113 3116 1747 
z
" transform="scale(0.015625)"/>
       <path id="DejaVuSans-68" d="M 3513 2113 
L 3513 0 
L 2938 0 
L 2938 2094 
Q 2938 2591 2744 2837 
Q 2550 3084 2163 3084 
Q 1697 3084 1428 2787 
Q 1159 2491 1159 1978 
L 1159 0 
L 581 0 
L 581 4863 
L 1159 4863 
L 1159 2956 
Q 1366 3272 1645 3428 
Q 1925 3584 2291 3584 
Q 2894 3584 3203 3211 
Q 3513 2838 3513 2113 
z
" transform="scale(0.015625)"/>
      </defs>
      <use xlink:href="#DejaVuSans-74"/>
      <use xlink:href="#DejaVuSans-72" transform="translate(39.208984 0)"/>
      <use xlink:href="#DejaVuSans-75" transform="translate(80.322266 0)"/>
      <use xlink:href="#DejaVuSans-73" transform="translate(143.701172 0)"/>
      <use xlink:href="#DejaVuSans-74" transform="translate(195.800781 0)"/>
      <use xlink:href="#DejaVuSans-2d" transform="translate(235.009766 0)"/>
      <use xlink:href="#DejaVuSans-63" transform="translate(271.09375 0)"/>
      <use xlink:href="#DejaVuSans-6f" transform="translate(326.074219 0)"/>
      <use xlink:href="#DejaVuSans-6e" transform="translate(387.255859 0)"/>
      <use xlink:href="#DejaVuSans-73" transform="translate(450.634766 0)"/>
      <use xlink:href="#DejaVuSans-74" transform="translate(502.734375 0)"/>
      <use xlink:href="#DejaVuSans-72" transform="translate(541.943359 0)"/>
      <use xlink:href="#DejaVuSans-20" transform="translate(583.056641 0)"/>
      <use xlink:href="#DejaVuSans-70" transform="translate(614.84375 0)"/>
      <use xlink:href="#DejaVuSans-61" transform="translate(678.320312 0)"/>
      <use xlink:href="#DejaVuSans-74" transform="translate(739.599609 0)"/>
      <use xlink:href="#DejaVuSans-68" transform="translate(778.808594 0)"/>
     </g>
    </g>
    <g id="line2d_42">
     <path d="M 391.680469 108.486562 
L 399.680469 108.486562 
L 407.680469 108.486562 
" style="fill: none; stroke: #dc2626; stroke-width: 1.8; stroke-linecap: square"/>
     <g>
      <use xlink:href="#m63ad372ced" x="399.680469" y="108.486562" style="fill: #dc2626; stroke: #dc2626; stroke-linejoin: miter"/>
     </g>
    </g>
    <g id="text_33">
     <!-- SLSQP path -->
     <g transform="translate(414.080469 111.286562) scale(0.08 -0.08)">
      <defs>
       <path id="DejaVuSans-53" d="M 3425 4513 
L 3425 3897 
Q 3066 4069 2747 4153 
Q 2428 4238 2131 4238 
Q 1616 4238 1336 4038 
Q 1056 3838 1056 3469 
Q 1056 3159 1242 3001 
Q 1428 2844 1947 2747 
L 2328 2669 
Q 3034 2534 3370 2195 
Q 3706 1856 3706 1288 
Q 3706 609 3251 259 
Q 2797 -91 1919 -91 
Q 1588 -91 1214 -16 
Q 841 59 441 206 
L 441 856 
Q 825 641 1194 531 
Q 1563 422 1919 422 
Q 2459 422 2753 634 
Q 3047 847 3047 1241 
Q 3047 1584 2836 1778 
Q 2625 1972 2144 2069 
L 1759 2144 
Q 1053 2284 737 2584 
Q 422 2884 422 3419 
Q 422 4038 858 4394 
Q 1294 4750 2059 4750 
Q 2388 4750 2728 4690 
Q 3069 4631 3425 4513 
z
" transform="scale(0.015625)"/>
       <path id="DejaVuSans-4c" d="M 628 4666 
L 1259 4666 
L 1259 531 
L 3531 531 
L 3531 0 
L 628 0 
L 628 4666 
z
" transform="scale(0.015625)"/>
       <path id="DejaVuSans-51" d="M 2522 4238 
Q 1834 4238 1429 3725 
Q 1025 3213 1025 2328 
Q 1025 1447 1429 934 
Q 1834 422 2522 422 
Q 3209 422 3611 934 
Q 4013 1447 4013 2328 
Q 4013 3213 3611 3725 
Q 3209 4238 2522 4238 
z
M 3406 84 
L 4238 -825 
L 3475 -825 
L 2784 -78 
Q 2681 -84 2626 -87 
Q 2572 -91 2522 -91 
Q 1538 -91 948 567 
Q 359 1225 359 2328 
Q 359 3434 948 4092 
Q 1538 4750 2522 4750 
Q 3503 4750 4090 4092 
Q 4678 3434 4678 2328 
Q 4678 1516 4351 937 
Q 4025 359 3406 84 
z
" transform="scale(0.015625)"/>
       <path id="DejaVuSans-50" d="M 1259 4147 
L 1259 2394 
L 2053 2394 
Q 2494 2394 2734 2622 
Q 2975 2850 2975 3272 
Q 2975 3691 2734 3919 
Q 2494 4147 2053 4147 
L 1259 4147 
z
M 628 4666 
L 2053 4666 
Q 2838 4666 3239 4311 
Q 3641 3956 3641 3272 
Q 3641 2581 3239 2228 
Q 2838 1875 2053 1875 
L 1259 1875 
L 1259 0 
L 628 0 
L 628 4666 
z
" transform="scale(0.015625)"/>
      </defs>
      <use xlink:href="#DejaVuSans-53"/>
      <use xlink:href="#DejaVuSans-4c" transform="translate(63.476562 0)"/>
      <use xlink:href="#DejaVuSans-53" transform="translate(119.189453 0)"/>
      <use xlink:href="#DejaVuSans-51" transform="translate(182.666016 0)"/>
      <use xlink:href="#DejaVuSans-50" transform="translate(261.376953 0)"/>
      <use xlink:href="#DejaVuSans-20" transform="translate(321.679688 0)"/>
      <use xlink:href="#DejaVuSans-70" transform="translate(353.466797 0)"/>
      <use xlink:href="#DejaVuSans-61" transform="translate(416.943359 0)"/>
      <use xlink:href="#DejaVuSans-74" transform="translate(478.222656 0)"/>
      <use xlink:href="#DejaVuSans-68" transform="translate(517.431641 0)"/>
     </g>
    </g>
    <g id="PathCollection_1">
     <defs>
      <path id="mcfce15679e" d="M 0 4.1833 
C 1.109424 4.1833 2.173559 3.742521 2.95804 2.95804 
C 3.742521 2.173559 4.1833 1.109424 4.1833 0 
C 4.1833 -1.109424 3.742521 -2.173559 2.95804 -2.95804 
C 2.173559 -3.742521 1.109424 -4.1833 0 -4.1833 
C -1.109424 -4.1833 -2.173559 -3.742521 -2.95804 -2.95804 
C -3.742521 -2.173559 -4.1833 -1.109424 -4.1833 0 
C -4.1833 1.109424 -3.742521 2.173559 -2.95804 2.95804 
C -2.173559 3.742521 -1.109424 4.1833 0 4.1833 
z
" style="stroke: #111827"/>
     </defs>
     <g>
      <use xlink:href="#mcfce15679e" x="399.680469" y="120.929062" style="fill: #111827; stroke: #111827"/>
     </g>
    </g>
    <g id="text_34">
     <!-- start -->
     <g transform="translate(414.080469 123.029062) scale(0.08 -0.08)">
      <use xlink:href="#DejaVuSans-73"/>
      <use xlink:href="#DejaVuSans-74" transform="translate(52.099609 0)"/>
      <use xlink:href="#DejaVuSans-61" transform="translate(91.308594 0)"/>
      <use xlink:href="#DejaVuSans-72" transform="translate(152.587891 0)"/>
      <use xlink:href="#DejaVuSans-74" transform="translate(193.701172 0)"/>
     </g>
    </g>
    <g id="PathCollection_2">
     <defs>
      <path id="m80ef2bc0e6" d="M 0 -7.905694 
L -1.774939 -2.442994 
L -7.518762 -2.442994 
L -2.871911 0.933141 
L -4.64685 6.395841 
L -0 3.019706 
L 4.64685 6.395841 
L 2.871911 0.933141 
L 7.518762 -2.442994 
L 1.774939 -2.442994 
z
" style="stroke: #111827; stroke-width: 0.6"/>
     </defs>
     <g>
      <use xlink:href="#m80ef2bc0e6" x="399.680469" y="132.671562" style="fill: #16a34a; stroke: #111827; stroke-width: 0.6"/>
     </g>
    </g>
    <g id="text_35">
     <!-- solution -->
     <g transform="translate(414.080469 134.771562) scale(0.08 -0.08)">
      <use xlink:href="#DejaVuSans-73"/>
      <use xlink:href="#DejaVuSans-6f" transform="translate(52.099609 0)"/>
      <use xlink:href="#DejaVuSans-6c" transform="translate(113.28125 0)"/>
      <use xlink:href="#DejaVuSans-75" transform="translate(141.064453 0)"/>
      <use xlink:href="#DejaVuSans-74" transform="translate(204.443359 0)"/>
      <use xlink:href="#DejaVuSans-69" transform="translate(243.652344 0)"/>
      <use xlink:href="#DejaVuSans-6f" transform="translate(271.435547 0)"/>
      <use xlink:href="#DejaVuSans-6e" transform="translate(332.617188 0)"/>
     </g>
    </g>
   </g>
   <g id="PathCollection_3">
    <g clip-path="url(#p1cdb981fa3)">
     <use xlink:href="#mcfce15679e" x="296.320112" y="253.420635" style="fill: #111827; stroke: #111827"/>
    </g>
   </g>
   <g id="PathCollection_4">
    <g clip-path="url(#p1cdb981fa3)">
     <use xlink:href="#m80ef2bc0e6" x="260.300565" y="217.25894" style="fill: #16a34a; stroke: #111827; stroke-width: 0.6"/>
    </g>
   </g>
  </g>
 </g>
 <defs>
  <clipPath id="p1cdb981fa3">
   <rect x="50.700469" y="23.837812" width="474.3" height="346.5"/>
  </clipPath>
 </defs>
</svg>
