<?xml version="1.0" encoding="utf-8" standalone="no"?>
<!DOCTYPE svg PUBLIC "-//W3C//DTD SVG 1.1//EN"
  "http://www.w3.org/Graphics/SVG/1.1/DTD/svg11.dtd">
<svg xmlns:xlink="http://www.w3.org/1999/xlink" width="641.475937pt" height="319.190062pt" viewBox="0 0 641.475937 319.190062" xmlns="http://www.w3.org/2000/svg" version="1.1">
 <metadata>
  <rdf:RDF xmlns:dc="http://purl.org/dc/elements/1.1/" xmlns:cc="http://creativecommons.org/ns#" xmlns:rdf="http://www.w3.org/1999/02/22-rdf-syntax-ns#">
   <cc:Work>
    <dc:type rdf:resource="http://purl.org/dc/dcmitype/StillImage"/>
    <dc:date>2026-06-10T16:02:20.866218</dc:date>
    <dc:format>image/svg+xml</dc:format>
    <dc:creator>
     <cc:Agent>
      <dc:title>Matplotlib v3.10.8, https://matplotlib.org/</dc:title>
     </cc:Agent>
    </dc:creator>
   </cc:Work>
  </rdf:RDF>
 </metadata>
 <defs>
  <style type="text/css">*{stroke-linejoin: round; stroke-linecap: butt}</style>
 </defs>
 <g id="figure_1">
  <g id="patch_1">
   <path d="M 0 319.190062 
L 641.475937 319.190062 
L 641.475937 0 
L 0 0 
z
" style="fill: #ffffff"/>
  </g>
  <g id="axes_1">
   <g id="patch_2">
    <path d="M 53.955938 281.633812 
L 317.737756 281.633812 
L 317.737756 23.837812 
L 53.955938 23.837812 
z
" style="fill: #ffffff"/>
   </g>
   <g id="matplotlib.axis_1">
    <g id="xtick_1">
     <g id="line2d_1">
      <path d="M 65.94602 281.633812 
L 65.94602 23.837812 
" clip-path="url(#p167580c58c)" style="fill: none; stroke-dasharray: 0.7,1.155; stroke-dashoffset: 0; stroke: #cbd5e1; stroke-width: 0.7"/>
     </g>
     <g id="line2d_2">
      <defs>
       <path id="m4c3c3fbd83" d="M 0 0 
L 0 3.5 
" style="stroke: #000000; stroke-width: 0.8"/>
      </defs>
      <g>
       <use xlink:href="#m4c3c3fbd83" x="65.94602" y="281.633812" style="stroke: #000000; stroke-width: 0.8"/>
      </g>
     </g>
     <g id="text_1">
      <!-- 0 -->
      <g transform="translate(63.082895 295.472406) scale(0.09 -0.09)">
       <defs>
        <path id="DejaVuSans-30" d="M 2034 4250 
Q 1547 4250 1301 3770 
Q 1056 3291 1056 2328 
Q 1056 1369 1301 889 
Q 1547 409 2034 409 
Q 2525 409 2770 889 
Q 3016 1369 3016 2328 
Q 3016 3291 2770 3770 
Q 2525 4250 2034 4250 
z
M 2034 4750 
Q 2819 4750 3233 4129 
Q 3647 3509 3647 2328 
Q 3647 1150 3233 529 
Q 2819 -91 2034 -91 
Q 1250 -91 836 529 
Q 422 1150 422 2328 
Q 422 3509 836 4129 
Q 1250 4750 2034 4750 
z
" transform="scale(0.015625)"/>
       </defs>
       <use xlink:href="#DejaVuSans-30"/>
      </g>
     </g>
    </g>
    <g id="xtick_2">
     <g id="line2d_3">
      <path d="M 95.921227 281.633812 
L 95.921227 23.837812 
" clip-path="url(#p167580c58c)" style="fill: none; stroke-dasharray: 0.7,1.155; stroke-dashoffset: 0; stroke: #cbd5e1; stroke-width: 0.7"/>
     </g>
     <g id="line2d_4">
      <g>
       <use xlink:href="#m4c3c3fbd83" x="95.921227" y="281.633812" style="stroke: #000000; stroke-width: 0.8"/>
      </g>
     </g>
     <g id="text_2">
      <!-- 2 -->
      <g transform="translate(93.058102 295.472406) scale(0.09 -0.09)">
       <defs>
        <path id="DejaVuSans-32" d="M 1228 531 
L 3431 531 
L 3431 0 
L 469 0 
L 469 531 
Q 828 903 1448 1529 
Q 2069 2156 2228 2338 
Q 2531 2678 2651 2914 
Q 2772 3150 2772 3378 
Q 2772 3750 2511 3984 
Q 2250 4219 1831 4219 
Q 1534 4219 1204 4116 
Q 875 4013 500 3803 
L 500 4441 
Q 881 4594 1212 4672 
Q 1544 4750 1819 4750 
Q 2544 4750 2975 4387 
Q 3406 4025 3406 3419 
Q 3406 3131 3298 2873 
Q 3191 2616 2906 2266 
Q 2828 2175 2409 1742 
Q 1991 1309 1228 531 
z
" transform="scale(0.015625)"/>
       </defs>
       <use xlink:href="#DejaVuSans-32"/>
      </g>
     </g>
    </g>
    <g id="xtick_3">
     <g id="line2d_5">
      <path d="M 125.896433 281.633812 
L 125.896433 23.837812 
" clip-path="url(#p167580c58c)" style="fill: none; stroke-dasharray: 0.7,1.155; stroke-dashoffset: 0; stroke: #cbd5e1; stroke-width: 0.7"/>
     </g>
     <g id="line2d_6">
      <g>
       <use xlink:href="#m4c3c3fbd83" x="125.896433" y="281.633812" style="stroke: #000000; stroke-width: 0.8"/>
      </g>
     </g>
     <g id="text_3">
      <!-- 4 -->
      <g transform="translate(123.033308 295.472406) scale(0.09 -0.09)">
       <defs>
        <path id="DejaVuSans-34" d="M 2419 4116 
L 825 1625 
L 2419 1625 
L 2419 4116 
z
M 2253 4666 
L 3047 4666 
L 3047 1625 
L 3713 1625 
L 3713 1100 
L 3047 1100 
L 3047 0 
L 2419 0 
L 2419 1100 
L 313 1100 
L 313 1709 
L 2253 4666 
z
" transform="scale(0.015625)"/>
       </defs>
       <use xlink:href="#DejaVuSans-34"/>
      </g>
     </g>
    </g>
    <g id="xtick_4">
     <g id="line2d_7">
      <path d="M 155.87164 281.633812 
L 155.87164 23.837812 
" clip-path="url(#p167580c58c)" style="fill: none; stroke-dasharray: 0.7,1.155; stroke-dashoffset: 0; stroke: #cbd5e1; stroke-width: 0.7"/>
     </g>
     <g id="line2d_8">
      <g>
       <use xlink:href="#m4c3c3fbd83" x="155.87164" y="281.633812" style="stroke: #000000; stroke-width: 0.8"/>
      </g>
     </g>
     <g id="text_4">
      <!-- 6 -->
      <g transform="translate(153.008515 295.472406) scale(0.09 -0.09)">
       <defs>
        <path id="DejaVuSans-36" d="M 2113 2584 
Q 1688 2584 1439 2293 
Q 1191 2003 1191 1497 
Q 1191 994 1439 701 
Q 1688 409 2113 409 
Q 2538 409 2786 701 
Q 3034 994 3034 1497 
Q 3034 2003 2786 2293 
Q 2538 2584 2113 2584 
z
M 3366 4563 
L 3366 3988 
Q 3128 4100 2886 4159 
Q 2644 4219 2406 4219 
Q 1781 4219 1451 3797 
Q 1122 3375 1075 2522 
Q 1259 2794 1537 2939 
Q 1816 3084 2150 3084 
Q 2853 3084 3261 2657 
Q 3669 2231 3669 1497 
Q 3669 778 3244 343 
Q 2819 -91 2113 -91 
Q 1303 -91 875 529 
Q 447 1150 447 2328 
Q 447 3434 972 4092 
Q 1497 4750 2381 4750 
Q 2619 4750 2861 4703 
Q 3103 4656 3366 4563 
z
" transform="scale(0.015625)"/>
       </defs>
       <use xlink:href="#DejaVuSans-36"/>
      </g>
     </g>
    </g>
    <g id="xtick_5">
     <g id="line2d_9">
      <path d="M 185.846847 281.633812 
L 185.846847 23.837812 
" clip-path="url(#p167580c58c)" style="fill: none; stroke-dasharray: 0.7,1.155; stroke-dashoffset: 0; stroke: #cbd5e1; stroke-width: 0.7"/>
     </g>
     <g id="line2d_10">
      <g>
       <use xlink:href="#m4c3c3fbd83" x="185.846847" y="281.633812" style="stroke: #000000; stroke-width: 0.8"/>
      </g>
     </g>
     <g id="text_5">
      <!-- 8 -->
      <g transform="translate(182.983722 295.472406) scale(0.09 -0.09)">
       <defs>
        <path id="DejaVuSans-38" d="M 2034 2216 
Q 1584 2216 1326 1975 
Q 1069 1734 1069 1313 
Q 1069 891 1326 650 
Q 1584 409 2034 409 
Q 2484 409 2743 651 
Q 3003 894 3003 1313 
Q 3003 1734 2745 1975 
Q 2488 2216 2034 2216 
z
M 1403 2484 
Q 997 2584 770 2862 
Q 544 3141 544 3541 
Q 544 4100 942 4425 
Q 1341 4750 2034 4750 
Q 2731 4750 3128 4425 
Q 3525 4100 3525 3541 
Q 3525 3141 3298 2862 
Q 3072 2584 2669 2484 
Q 3125 2378 3379 2068 
Q 3634 1759 3634 1313 
Q 3634 634 3220 271 
Q 2806 -91 2034 -91 
Q 1263 -91 848 271 
Q 434 634 434 1313 
Q 434 1759 690 2068 
Q 947 2378 1403 2484 
z
M 1172 3481 
Q 1172 3119 1398 2916 
Q 1625 2713 2034 2713 
Q 2441 2713 2670 2916 
Q 2900 3119 2900 3481 
Q 2900 3844 2670 4047 
Q 2441 4250 2034 4250 
Q 1625 4250 1398 4047 
Q 1172 3844 1172 3481 
z
" transform="scale(0.015625)"/>
       </defs>
       <use xlink:href="#DejaVuSans-38"/>
      </g>
     </g>
    </g>
    <g id="xtick_6">
     <g id="line2d_11">
      <path d="M 215.822053 281.633812 
L 215.822053 23.837812 
" clip-path="url(#p167580c58c)" style="fill: none; stroke-dasharray: 0.7,1.155; stroke-dashoffset: 0; stroke: #cbd5e1; stroke-width: 0.7"/>
     </g>
     <g id="line2d_12">
      <g>
       <use xlink:href="#m4c3c3fbd83" x="215.822053" y="281.633812" style="stroke: #000000; stroke-width: 0.8"/>
      </g>
     </g>
     <g id="text_6">
      <!-- 10 -->
      <g transform="translate(210.095803 295.472406) scale(0.09 -0.09)">
       <defs>
        <path id="DejaVuSans-31" d="M 794 531 
L 1825 531 
L 1825 4091 
L 703 3866 
L 703 4441 
L 1819 4666 
L 2450 4666 
L 2450 531 
L 3481 531 
L 3481 0 
L 794 0 
L 794 531 
z
" transform="scale(0.015625)"/>
       </defs>
       <use xlink:href="#DejaVuSans-31"/>
       <use xlink:href="#DejaVuSans-30" transform="translate(63.623047 0)"/>
      </g>
     </g>
    </g>
    <g id="xtick_7">
     <g id="line2d_13">
      <path d="M 245.79726 281.633812 
L 245.79726 23.837812 
" clip-path="url(#p167580c58c)" style="fill: none; stroke-dasharray: 0.7,1.155; stroke-dashoffset: 0; stroke: #cbd5e1; stroke-width: 0.7"/>
     </g>
     <g id="line2d_14">
      <g>
       <use xlink:href="#m4c3c3fbd83" x="245.79726" y="281.633812" style="stroke: #000000; stroke-width: 0.8"/>
      </g>
     </g>
     <g id="text_7">
      <!-- 12 -->
      <g transform="translate(240.07101 295.472406) scale(0.09 -0.09)">
       <use xlink:href="#DejaVuSans-31"/>
       <use xlink:href="#DejaVuSans-32" transform="translate(63.623047 0)"/>
      </g>
     </g>
    </g>
    <g id="xtick_8">
     <g id="line2d_15">
      <path d="M 275.772466 281.633812 
L 275.772466 23.837812 
" clip-path="url(#p167580c58c)" style="fill: none; stroke-dasharray: 0.7,1.155; stroke-dashoffset: 0; stroke: #cbd5e1; stroke-width: 0.7"/>
     </g>
     <g id="line2d_16">
      <g>
       <use xlink:href="#m4c3c3fbd83" x="275.772466" y="281.633812" style="stroke: #000000; stroke-width: 0.8"/>
      </g>
     </g>
     <g id="text_8">
      <!-- 14 -->
      <g transform="translate(270.046216 295.472406) scale(0.09 -0.09)">
       <use xlink:href="#DejaVuSans-31"/>
       <use xlink:href="#DejaVuSans-34" transform="translate(63.623047 0)"/>
      </g>
     </g>
    </g>
    <g id="xtick_9">
     <g id="line2d_17">
      <path d="M 305.747673 281.633812 
L 305.747673 23.837812 
" clip-path="url(#p167580c58c)" style="fill: none; stroke-dasharray: 0.7,1.155; stroke-dashoffset: 0; stroke: #cbd5e1; stroke-width: 0.7"/>
     </g>
     <g id="line2d_18">
      <g>
       <use xlink:href="#m4c3c3fbd83" x="305.747673" y="281.633812" style="stroke: #000000; stroke-width: 0.8"/>
      </g>
     </g>
     <g id="text_9">
      <!-- 16 -->
      <g transform="translate(300.021423 295.472406) scale(0.09 -0.09)">
       <use xlink:href="#DejaVuSans-31"/>
       <use xlink:href="#DejaVuSans-36" transform="translate(63.623047 0)"/>
      </g>
     </g>
    </g>
    <g id="text_10">
     <!-- recorded iterate -->
     <g transform="translate(141.41544 309.702406) scale(0.11 -0.11)">
      <defs>
       <path id="DejaVuSans-72" d="M 2631 2963 
Q 2534 3019 2420 3045 
Q 2306 3072 2169 3072 
Q 1681 3072 1420 2755 
Q 1159 2438 1159 1844 
L 1159 0 
L 581 0 
L 581 3500 
L 1159 3500 
L 1159 2956 
Q 1341 3275 1631 3429 
Q 1922 3584 2338 3584 
Q 2397 3584 2469 3576 
Q 2541 3569 2628 3553 
L 2631 2963 
z
" transform="scale(0.015625)"/>
       <path id="DejaVuSans-65" d="M 3597 1894 
L 3597 1613 
L 953 1613 
Q 991 1019 1311 708 
Q 1631 397 2203 397 
Q 2534 397 2845 478 
Q 3156 559 3463 722 
L 3463 178 
Q 3153 47 2828 -22 
Q 2503 -91 2169 -91 
Q 1331 -91 842 396 
Q 353 884 353 1716 
Q 353 2575 817 3079 
Q 1281 3584 2069 3584 
Q 2775 3584 3186 3129 
Q 3597 2675 3597 1894 
z
M 3022 2063 
Q 3016 2534 2758 2815 
Q 2500 3097 2075 3097 
Q 1594 3097 1305 2825 
Q 1016 2553 972 2059 
L 3022 2063 
z
" transform="scale(0.015625)"/>
       <path id="DejaVuSans-63" d="M 3122 3366 
L 3122 2828 
Q 2878 2963 2633 3030 
Q 2388 3097 2138 3097 
Q 1578 3097 1268 2742 
Q 959 2388 959 1747 
Q 959 1106 1268 751 
Q 1578 397 2138 397 
Q 2388 397 2633 464 
Q 2878 531 3122 666 
L 3122 134 
Q 2881 22 2623 -34 
Q 2366 -91 2075 -91 
Q 1284 -91 818 406 
Q 353 903 353 1747 
Q 353 2603 823 3093 
Q 1294 3584 2113 3584 
Q 2378 3584 2631 3529 
Q 2884 3475 3122 3366 
z
" transform="scale(0.015625)"/>
       <path id="DejaVuSans-6f" d="M 1959 3097 
Q 1497 3097 1228 2736 
Q 959 2375 959 1747 
Q 959 1119 1226 758 
Q 1494 397 1959 397 
Q 2419 397 2687 759 
Q 2956 1122 2956 1747 
Q 2956 2369 2687 2733 
Q 2419 3097 1959 3097 
z
M 1959 3584 
Q 2709 3584 3137 3096 
Q 3566 2609 3566 1747 
Q 3566 888 3137 398 
Q 2709 -91 1959 -91 
Q 1206 -91 779 398 
Q 353 888 353 1747 
Q 353 2609 779 3096 
Q 1206 3584 1959 3584 
z
" transform="scale(0.015625)"/>
       <path id="DejaVuSans-64" d="M 2906 2969 
L 2906 4863 
L 3481 4863 
L 3481 0 
L 2906 0 
L 2906 525 
Q 2725 213 2448 61 
Q 2172 -91 1784 -91 
Q 1150 -91 751 415 
Q 353 922 353 1747 
Q 353 2572 751 3078 
Q 1150 3584 1784 3584 
Q 2172 3584 2448 3432 
Q 2725 3281 2906 2969 
z
M 947 1747 
Q 947 1113 1208 752 
Q 1469 391 1925 391 
Q 2381 391 2643 752 
Q 2906 1113 2906 1747 
Q 2906 2381 2643 2742 
Q 2381 3103 1925 3103 
Q 1469 3103 1208 2742 
Q 947 2381 947 1747 
z
" transform="scale(0.015625)"/>
       <path id="DejaVuSans-20" transform="scale(0.015625)"/>
       <path id="DejaVuSans-69" d="M 603 3500 
L 1178 3500 
L 1178 0 
L 603 0 
L 603 3500 
z
M 603 4863 
L 1178 4863 
L 1178 4134 
L 603 4134 
L 603 4863 
z
" transform="scale(0.015625)"/>
       <path id="DejaVuSans-74" d="M 1172 4494 
L 1172 3500 
L 2356 3500 
L 2356 3053 
L 1172 3053 
L 1172 1153 
Q 1172 725 1289 603 
Q 1406 481 1766 481 
L 2356 481 
L 2356 0 
L 1766 0 
Q 1100 0 847 248 
Q 594 497 594 1153 
L 594 3053 
L 172 3053 
L 172 3500 
L 594 3500 
L 594 4494 
L 1172 4494 
z
" transform="scale(0.015625)"/>
       <path id="DejaVuSans-61" d="M 2194 1759 
Q 1497 1759 1228 1600 
Q 959 1441 959 1056 
Q 959 750 1161 570 
Q 1363 391 1709 391 
Q 2188 391 2477 730 
Q 2766 1069 2766 1631 
L 2766 1759 
L 2194 1759 
z
M 3341 1997 
L 3341 0 
L 2766 0 
L 2766 531 
Q 2569 213 2275 61 
Q 1981 -91 1556 -91 
Q 1019 -91 701 211 
Q 384 513 384 1019 
Q 384 1609 779 1909 
Q 1175 2209 1959 2209 
L 2766 2209 
L 2766 2266 
Q 2766 2663 2505 2880 
Q 2244 3097 1772 3097 
Q 1472 3097 1187 3025 
Q 903 2953 641 2809 
L 641 3341 
Q 956 3463 1253 3523 
Q 1550 3584 1831 3584 
Q 2591 3584 2966 3190 
Q 3341 2797 3341 1997 
z
" transform="scale(0.015625)"/>
      </defs>
      <use xlink:href="#DejaVuSans-72"/>
      <use xlink:href="#DejaVuSans-65" transform="translate(38.863281 0)"/>
      <use xlink:href="#DejaVuSans-63" transform="translate(100.386719 0)"/>
      <use xlink:href="#DejaVuSans-6f" transform="translate(155.367188 0)"/>
      <use xlink:href="#DejaVuSans-72" transform="translate(216.548828 0)"/>
      <use xlink:href="#DejaVuSans-64" transform="translate(255.912109 0)"/>
      <use xlink:href="#DejaVuSans-65" transform="translate(319.388672 0)"/>
      <use xlink:href="#DejaVuSans-64" transform="translate(380.912109 0)"/>
      <use xlink:href="#DejaVuSans-20" transform="translate(444.388672 0)"/>
      <use xlink:href="#DejaVuSans-69" transform="translate(476.175781 0)"/>
      <use xlink:href="#DejaVuSans-74" transform="translate(503.958984 0)"/>
      <use xlink:href="#DejaVuSans-65" transform="translate(543.167969 0)"/>
      <use xlink:href="#DejaVuSans-72" transform="translate(604.691406 0)"/>
      <use xlink:href="#DejaVuSans-61" transform="translate(645.804688 0)"/>
      <use xlink:href="#DejaVuSans-74" transform="translate(707.083984 0)"/>
      <use xlink:href="#DejaVuSans-65" transform="translate(746.292969 0)"/>
     </g>
    </g>
   </g>
   <g id="matplotlib.axis_2">
    <g id="ytick_1">
     <g id="line2d_19">
      <path d="M 53.955938 254.069316 
L 317.737756 254.069316 
" clip-path="url(#p167580c58c)" style="fill: none; stroke-dasharray: 0.7,1.155; stroke-dashoffset: 0; stroke: #cbd5e1; stroke-width: 0.7"/>
     </g>
     <g id="line2d_20">
      <defs>
       <path id="m73f80c09e3" d="M 0 0 
L -3.5 0 
" style="stroke: #000000; stroke-width: 0.8"/>
      </defs>
      <g>
       <use xlink:href="#m73f80c09e3" x="53.955938" y="254.069316" style="stroke: #000000; stroke-width: 0.8"/>
      </g>
     </g>
     <g id="text_11">
      <!-- $\mathdefault{10^{-13}}$ -->
      <g transform="translate(21.845938 257.488613) scale(0.09 -0.09)">
       <defs>
        <path id="DejaVuSans-2212" d="M 678 2272 
L 4684 2272 
L 4684 1741 
L 678 1741 
L 678 2272 
z
" transform="scale(0.015625)"/>
        <path id="DejaVuSans-33" d="M 2597 2516 
Q 3050 2419 3304 2112 
Q 3559 1806 3559 1356 
Q 3559 666 3084 287 
Q 2609 -91 1734 -91 
Q 1441 -91 1130 -33 
Q 819 25 488 141 
L 488 750 
Q 750 597 1062 519 
Q 1375 441 1716 441 
Q 2309 441 2620 675 
Q 2931 909 2931 1356 
Q 2931 1769 2642 2001 
Q 2353 2234 1838 2234 
L 1294 2234 
L 1294 2753 
L 1863 2753 
Q 2328 2753 2575 2939 
Q 2822 3125 2822 3475 
Q 2822 3834 2567 4026 
Q 2313 4219 1838 4219 
Q 1578 4219 1281 4162 
Q 984 4106 628 3988 
L 628 4550 
Q 988 4650 1302 4700 
Q 1616 4750 1894 4750 
Q 2613 4750 3031 4423 
Q 3450 4097 3450 3541 
Q 3450 3153 3228 2886 
Q 3006 2619 2597 2516 
z
" transform="scale(0.015625)"/>
       </defs>
       <use xlink:href="#DejaVuSans-31" transform="translate(0 0.765625)"/>
       <use xlink:href="#DejaVuSans-30" transform="translate(63.623047 0.765625)"/>
       <use xlink:href="#DejaVuSans-2212" transform="translate(128.203125 39.046875) scale(0.7)"/>
       <use xlink:href="#DejaVuSans-31" transform="translate(186.855469 39.046875) scale(0.7)"/>
       <use xlink:href="#DejaVuSans-33" transform="translate(231.391602 39.046875) scale(0.7)"/>
      </g>
     </g>
    </g>
    <g id="ytick_2">
     <g id="line2d_21">
      <path d="M 53.955938 222.376323 
L 317.737756 222.376323 
" clip-path="url(#p167580c58c)" style="fill: none; stroke-dasharray: 0.7,1.155; stroke-dashoffset: 0; stroke: #cbd5e1; stroke-width: 0.7"/>
     </g>
     <g id="line2d_22">
      <g>
       <use xlink:href="#m73f80c09e3" x="53.955938" y="222.376323" style="stroke: #000000; stroke-width: 0.8"/>
      </g>
     </g>
     <g id="text_12">
      <!-- $\mathdefault{10^{-11}}$ -->
      <g transform="translate(21.845938 225.79562) scale(0.09 -0.09)">
       <use xlink:href="#DejaVuSans-31" transform="translate(0 0.684375)"/>
       <use xlink:href="#DejaVuSans-30" transform="translate(63.623047 0.684375)"/>
       <use xlink:href="#DejaVuSans-2212" transform="translate(128.203125 38.965625) scale(0.7)"/>
       <use xlink:href="#DejaVuSans-31" transform="translate(186.855469 38.965625) scale(0.7)"/>
       <use xlink:href="#DejaVuSans-31" transform="translate(231.391602 38.965625) scale(0.7)"/>
      </g>
     </g>
    </g>
    <g id="ytick_3">
     <g id="line2d_23">
      <path d="M 53.955938 190.683331 
L 317.737756 190.683331 
" clip-path="url(#p167580c58c)" style="fill: none; stroke-dasharray: 0.7,1.155; stroke-dashoffset: 0; stroke: #cbd5e1; stroke-width: 0.7"/>
     </g>
     <g id="line2d_24">
      <g>
       <use xlink:href="#m73f80c09e3" x="53.955938" y="190.683331" style="stroke: #000000; stroke-width: 0.8"/>
      </g>
     </g>
     <g id="text_13">
      <!-- $\mathdefault{10^{-9}}$ -->
      <g transform="translate(25.805938 194.102628) scale(0.09 -0.09)">
       <defs>
        <path id="DejaVuSans-39" d="M 703 97 
L 703 672 
Q 941 559 1184 500 
Q 1428 441 1663 441 
Q 2288 441 2617 861 
Q 2947 1281 2994 2138 
Q 2813 1869 2534 1725 
Q 2256 1581 1919 1581 
Q 1219 1581 811 2004 
Q 403 2428 403 3163 
Q 403 3881 828 4315 
Q 1253 4750 1959 4750 
Q 2769 4750 3195 4129 
Q 3622 3509 3622 2328 
Q 3622 1225 3098 567 
Q 2575 -91 1691 -91 
Q 1453 -91 1209 -44 
Q 966 3 703 97 
z
M 1959 2075 
Q 2384 2075 2632 2365 
Q 2881 2656 2881 3163 
Q 2881 3666 2632 3958 
Q 2384 4250 1959 4250 
Q 1534 4250 1286 3958 
Q 1038 3666 1038 3163 
Q 1038 2656 1286 2365 
Q 1534 2075 1959 2075 
z
" transform="scale(0.015625)"/>
       </defs>
       <use xlink:href="#DejaVuSans-31" transform="translate(0 0.765625)"/>
       <use xlink:href="#DejaVuSans-30" transform="translate(63.623047 0.765625)"/>
       <use xlink:href="#DejaVuSans-2212" transform="translate(128.203125 39.046875) scale(0.7)"/>
       <use xlink:href="#DejaVuSans-39" transform="translate(186.855469 39.046875) scale(0.7)"/>
      </g>
     </g>
    </g>
    <g id="ytick_4">
     <g id="line2d_25">
      <path d="M 53.955938 158.990338 
L 317.737756 158.990338 
" clip-path="url(#p167580c58c)" style="fill: none; stroke-dasharray: 0.7,1.155; stroke-dashoffset: 0; stroke: #cbd5e1; stroke-width: 0.7"/>
     </g>
     <g id="line2d_26">
      <g>
       <use xlink:href="#m73f80c09e3" x="53.955938" y="158.990338" style="stroke: #000000; stroke-width: 0.8"/>
      </g>
     </g>
     <g id="text_14">
      <!-- $\mathdefault{10^{-7}}$ -->
      <g transform="translate(25.805938 162.409635) scale(0.09 -0.09)">
       <defs>
        <path id="DejaVuSans-37" d="M 525 4666 
L 3525 4666 
L 3525 4397 
L 1831 0 
L 1172 0 
L 2766 4134 
L 525 4134 
L 525 4666 
z
" transform="scale(0.015625)"/>
       </defs>
       <use xlink:href="#DejaVuSans-31" transform="translate(0 0.684375)"/>
       <use xlink:href="#DejaVuSans-30" transform="translate(63.623047 0.684375)"/>
       <use xlink:href="#DejaVuSans-2212" transform="translate(128.203125 38.965625) scale(0.7)"/>
       <use xlink:href="#DejaVuSans-37" transform="translate(186.855469 38.965625) scale(0.7)"/>
      </g>
     </g>
    </g>
    <g id="ytick_5">
     <g id="line2d_27">
      <path d="M 53.955938 127.297345 
L 317.737756 127.297345 
" clip-path="url(#p167580c58c)" style="fill: none; stroke-dasharray: 0.7,1.155; stroke-dashoffset: 0; stroke: #cbd5e1; stroke-width: 0.7"/>
     </g>
     <g id="line2d_28">
      <g>
       <use xlink:href="#m73f80c09e3" x="53.955938" y="127.297345" style="stroke: #000000; stroke-width: 0.8"/>
      </g>
     </g>
     <g id="text_15">
      <!-- $\mathdefault{10^{-5}}$ -->
      <g transform="translate(25.805938 130.716642) scale(0.09 -0.09)">
       <defs>
        <path id="DejaVuSans-35" d="M 691 4666 
L 3169 4666 
L 3169 4134 
L 1269 4134 
L 1269 2991 
Q 1406 3038 1543 3061 
Q 1681 3084 1819 3084 
Q 2600 3084 3056 2656 
Q 3513 2228 3513 1497 
Q 3513 744 3044 326 
Q 2575 -91 1722 -91 
Q 1428 -91 1123 -41 
Q 819 9 494 109 
L 494 744 
Q 775 591 1075 516 
Q 1375 441 1709 441 
Q 2250 441 2565 725 
Q 2881 1009 2881 1497 
Q 2881 1984 2565 2268 
Q 2250 2553 1709 2553 
Q 1456 2553 1204 2497 
Q 953 2441 691 2322 
L 691 4666 
z
" transform="scale(0.015625)"/>
       </defs>
       <use xlink:href="#DejaVuSans-31" transform="translate(0 0.684375)"/>
       <use xlink:href="#DejaVuSans-30" transform="translate(63.623047 0.684375)"/>
       <use xlink:href="#DejaVuSans-2212" transform="translate(128.203125 38.965625) scale(0.7)"/>
       <use xlink:href="#DejaVuSans-35" transform="translate(186.855469 38.965625) scale(0.7)"/>
      </g>
     </g>
    </g>
    <g id="ytick_6">
     <g id="line2d_29">
      <path d="M 53.955938 95.604353 
L 317.737756 95.604353 
" clip-path="url(#p167580c58c)" style="fill: none; stroke-dasharray: 0.7,1.155; stroke-dashoffset: 0; stroke: #cbd5e1; stroke-width: 0.7"/>
     </g>
     <g id="line2d_30">
      <g>
       <use xlink:href="#m73f80c09e3" x="53.955938" y="95.604353" style="stroke: #000000; stroke-width: 0.8"/>
      </g>
     </g>
     <g id="text_16">
      <!-- $\mathdefault{10^{-3}}$ -->
      <g transform="translate(25.805938 99.02365) scale(0.09 -0.09)">
       <use xlink:href="#DejaVuSans-31" transform="translate(0 0.765625)"/>
       <use xlink:href="#DejaVuSans-30" transform="translate(63.623047 0.765625)"/>
       <use xlink:href="#DejaVuSans-2212" transform="translate(128.203125 39.046875) scale(0.7)"/>
       <use xlink:href="#DejaVuSans-33" transform="translate(186.855469 39.046875) scale(0.7)"/>
      </g>
     </g>
    </g>
    <g id="ytick_7">
     <g id="line2d_31">
      <path d="M 53.955938 63.91136 
L 317.737756 63.91136 
" clip-path="url(#p167580c58c)" style="fill: none; stroke-dasharray: 0.7,1.155; stroke-dashoffset: 0; stroke: #cbd5e1; stroke-width: 0.7"/>
     </g>
     <g id="line2d_32">
      <g>
       <use xlink:href="#m73f80c09e3" x="53.955938" y="63.91136" style="stroke: #000000; stroke-width: 0.8"/>
      </g>
     </g>
     <g id="text_17">
      <!-- $\mathdefault{10^{-1}}$ -->
      <g transform="translate(25.805938 67.330657) scale(0.09 -0.09)">
       <use xlink:href="#DejaVuSans-31" transform="translate(0 0.684375)"/>
       <use xlink:href="#DejaVuSans-30" transform="translate(63.623047 0.684375)"/>
       <use xlink:href="#DejaVuSans-2212" transform="translate(128.203125 38.965625) scale(0.7)"/>
       <use xlink:href="#DejaVuSans-31" transform="translate(186.855469 38.965625) scale(0.7)"/>
      </g>
     </g>
    </g>
    <g id="ytick_8">
     <g id="line2d_33">
      <path d="M 53.955938 32.218367 
L 317.737756 32.218367 
" clip-path="url(#p167580c58c)" style="fill: none; stroke-dasharray: 0.7,1.155; stroke-dashoffset: 0; stroke: #cbd5e1; stroke-width: 0.7"/>
     </g>
     <g id="line2d_34">
      <g>
       <use xlink:href="#m73f80c09e3" x="53.955938" y="32.218367" style="stroke: #000000; stroke-width: 0.8"/>
      </g>
     </g>
     <g id="text_18">
      <!-- $\mathdefault{10^{1}}$ -->
      <g transform="translate(31.115938 35.637664) scale(0.09 -0.09)">
       <use xlink:href="#DejaVuSans-31" transform="translate(0 0.684375)"/>
       <use xlink:href="#DejaVuSans-30" transform="translate(63.623047 0.684375)"/>
       <use xlink:href="#DejaVuSans-31" transform="translate(128.203125 38.965625) scale(0.7)"/>
      </g>
     </g>
    </g>
    <g id="text_19">
     <!-- $f(x_k)-f(x^\star)$ -->
     <g transform="translate(15.558281 185.185812) rotate(-90) scale(0.11 -0.11)">
      <defs>
       <path id="DejaVuSans-Oblique-66" d="M 3059 4863 
L 2969 4384 
L 2419 4384 
Q 2106 4384 1964 4261 
Q 1822 4138 1753 3809 
L 1691 3500 
L 2638 3500 
L 2553 3053 
L 1606 3053 
L 1013 0 
L 434 0 
L 1031 3053 
L 481 3053 
L 563 3500 
L 1113 3500 
L 1159 3744 
Q 1278 4363 1576 4613 
Q 1875 4863 2516 4863 
L 3059 4863 
z
" transform="scale(0.015625)"/>
       <path id="DejaVuSans-28" d="M 1984 4856 
Q 1566 4138 1362 3434 
Q 1159 2731 1159 2009 
Q 1159 1288 1364 580 
Q 1569 -128 1984 -844 
L 1484 -844 
Q 1016 -109 783 600 
Q 550 1309 550 2009 
Q 550 2706 781 3412 
Q 1013 4119 1484 4856 
L 1984 4856 
z
" transform="scale(0.015625)"/>
       <path id="DejaVuSans-Oblique-78" d="M 3841 3500 
L 2234 1784 
L 3219 0 
L 2559 0 
L 1819 1388 
L 531 0 
L -166 0 
L 1556 1844 
L 641 3500 
L 1300 3500 
L 1972 2234 
L 3144 3500 
L 3841 3500 
z
" transform="scale(0.015625)"/>
       <path id="DejaVuSans-Oblique-6b" d="M 1172 4863 
L 1747 4863 
L 1197 2028 
L 3169 3500 
L 3916 3500 
L 1716 1825 
L 3322 0 
L 2625 0 
L 1131 1709 
L 800 0 
L 225 0 
L 1172 4863 
z
" transform="scale(0.015625)"/>
       <path id="DejaVuSans-29" d="M 513 4856 
L 1013 4856 
Q 1481 4119 1714 3412 
Q 1947 2706 1947 2009 
Q 1947 1309 1714 600 
Q 1481 -109 1013 -844 
L 513 -844 
Q 928 -128 1133 580 
Q 1338 1288 1338 2009 
Q 1338 2731 1133 3434 
Q 928 4138 513 4856 
z
" transform="scale(0.015625)"/>
       <path id="DejaVuSans-22c6" d="M 778 2391 
L 1713 2391 
L 2003 3278 
L 2297 2391 
L 3228 2391 
L 2472 1841 
L 2766 953 
L 2003 1503 
L 1244 953 
L 1534 1841 
L 778 2391 
z
" transform="scale(0.015625)"/>
      </defs>
      <use xlink:href="#DejaVuSans-Oblique-66" transform="translate(0 0.015625)"/>
      <use xlink:href="#DejaVuSans-28" transform="translate(35.205078 0.015625)"/>
      <use xlink:href="#DejaVuSans-Oblique-78" transform="translate(74.21875 0.015625)"/>
      <use xlink:href="#DejaVuSans-Oblique-6b" transform="translate(133.398438 -16.390625) scale(0.7)"/>
      <use xlink:href="#DejaVuSans-29" transform="translate(176.669922 0.015625)"/>
      <use xlink:href="#DejaVuSans-2212" transform="translate(235.166016 0.015625)"/>
      <use xlink:href="#DejaVuSans-Oblique-66" transform="translate(338.4375 0.015625)"/>
      <use xlink:href="#DejaVuSans-28" transform="translate(373.642578 0.015625)"/>
      <use xlink:href="#DejaVuSans-Oblique-78" transform="translate(412.65625 0.015625)"/>
      <use xlink:href="#DejaVuSans-22c6" transform="translate(489.939779 38.296875) scale(0.7)"/>
      <use xlink:href="#DejaVuSans-29" transform="translate(550.130208 0.015625)"/>
     </g>
    </g>
   </g>
   <g id="line2d_35">
    <path d="M 65.94602 35.555812 
L 80.933623 35.555812 
L 95.921227 51.619755 
L 110.90883 69.432358 
L 125.896433 96.484181 
L 140.884037 96.484181 
L 155.87164 124.827674 
L 170.859243 124.827674 
L 185.846847 147.86213 
L 200.83445 147.86213 
L 215.822053 170.067314 
L 230.809657 170.067314 
L 245.79726 192.228333 
L 260.784863 192.228333 
L 275.772466 214.382467 
L 290.76007 214.382467 
L 305.747673 236.535098 
" clip-path="url(#p167580c58c)" style="fill: none; stroke: #2563eb; stroke-width: 2.1; stroke-linecap: square"/>
    <defs>
     <path id="m928d3eb5ee" d="M 0 2 
C 0.530406 2 1.03916 1.789267 1.414214 1.414214 
C 1.789267 1.03916 2 0.530406 2 0 
C 2 -0.530406 1.789267 -1.03916 1.414214 -1.414214 
C 1.03916 -1.789267 0.530406 -2 0 -2 
C -0.530406 -2 -1.03916 -1.789267 -1.414214 -1.414214 
C -1.789267 -1.03916 -2 -0.530406 -2 0 
C -2 0.530406 -1.789267 1.03916 -1.414214 1.414214 
C -1.03916 1.789267 -0.530406 2 0 2 
z
" style="stroke: #2563eb"/>
    </defs>
    <g clip-path="url(#p167580c58c)">
     <use xlink:href="#m928d3eb5ee" x="65.94602" y="35.555812" style="fill: #2563eb; stroke: #2563eb"/>
     <use xlink:href="#m928d3eb5ee" x="80.933623" y="35.555812" style="fill: #2563eb; stroke: #2563eb"/>
     <use xlink:href="#m928d3eb5ee" x="95.921227" y="51.619755" style="fill: #2563eb; stroke: #2563eb"/>
     <use xlink:href="#m928d3eb5ee" x="110.90883" y="69.432358" style="fill: #2563eb; stroke: #2563eb"/>
     <use xlink:href="#m928d3eb5ee" x="125.896433" y="96.484181" style="fill: #2563eb; stroke: #2563eb"/>
     <use xlink:href="#m928d3eb5ee" x="140.884037" y="96.484181" style="fill: #2563eb; stroke: #2563eb"/>
     <use xlink:href="#m928d3eb5ee" x="155.87164" y="124.827674" style="fill: #2563eb; stroke: #2563eb"/>
     <use xlink:href="#m928d3eb5ee" x="170.859243" y="124.827674" style="fill: #2563eb; stroke: #2563eb"/>
     <use xlink:href="#m928d3eb5ee" x="185.846847" y="147.86213" style="fill: #2563eb; stroke: #2563eb"/>
     <use xlink:href="#m928d3eb5ee" x="200.83445" y="147.86213" style="fill: #2563eb; stroke: #2563eb"/>
     <use xlink:href="#m928d3eb5ee" x="215.822053" y="170.067314" style="fill: #2563eb; stroke: #2563eb"/>
     <use xlink:href="#m928d3eb5ee" x="230.809657" y="170.067314" style="fill: #2563eb; stroke: #2563eb"/>
     <use xlink:href="#m928d3eb5ee" x="245.79726" y="192.228333" style="fill: #2563eb; stroke: #2563eb"/>
     <use xlink:href="#m928d3eb5ee" x="260.784863" y="192.228333" style="fill: #2563eb; stroke: #2563eb"/>
     <use xlink:href="#m928d3eb5ee" x="275.772466" y="214.382467" style="fill: #2563eb; stroke: #2563eb"/>
     <use xlink:href="#m928d3eb5ee" x="290.76007" y="214.382467" style="fill: #2563eb; stroke: #2563eb"/>
     <use xlink:href="#m928d3eb5ee" x="305.747673" y="236.535098" style="fill: #2563eb; stroke: #2563eb"/>
    </g>
   </g>
   <g id="line2d_36">
    <path d="M 65.94602 35.555812 
L 80.933623 36.933803 
L 95.921227 120.301732 
L 110.90883 203.698894 
L 125.896433 269.915812 
L 140.884037 269.915812 
" clip-path="url(#p167580c58c)" style="fill: none; stroke: #dc2626; stroke-width: 2.1; stroke-linecap: square"/>
    <defs>
     <path id="m14fbb13597" d="M 0 2 
C 0.530406 2 1.03916 1.789267 1.414214 1.414214 
C 1.789267 1.03916 2 0.530406 2 0 
C 2 -0.530406 1.789267 -1.03916 1.414214 -1.414214 
C 1.03916 -1.789267 0.530406 -2 0 -2 
C -0.530406 -2 -1.03916 -1.789267 -1.414214 -1.414214 
C -1.789267 -1.03916 -2 -0.530406 -2 0 
C -2 0.530406 -1.789267 1.03916 -1.414214 1.414214 
C -1.03916 1.789267 -0.530406 2 0 2 
z
" style="stroke: #dc2626"/>
    </defs>
    <g clip-path="url(#p167580c58c)">
     <use xlink:href="#m14fbb13597" x="65.94602" y="35.555812" style="fill: #dc2626; stroke: #dc2626"/>
     <use xlink:href="#m14fbb13597" x="80.933623" y="36.933803" style="fill: #dc2626; stroke: #dc2626"/>
     <use xlink:href="#m14fbb13597" x="95.921227" y="120.301732" style="fill: #dc2626; stroke: #dc2626"/>
     <use xlink:href="#m14fbb13597" x="110.90883" y="203.698894" style="fill: #dc2626; stroke: #dc2626"/>
     <use xlink:href="#m14fbb13597" x="125.896433" y="269.915812" style="fill: #dc2626; stroke: #dc2626"/>
     <use xlink:href="#m14fbb13597" x="140.884037" y="269.915812" style="fill: #dc2626; stroke: #dc2626"/>
    </g>
   </g>
   <g id="patch_3">
    <path d="M 53.955938 281.633812 
L 53.955938 23.837812 
" style="fill: none; stroke: #000000; stroke-width: 0.8; stroke-linejoin: miter; stroke-linecap: square"/>
   </g>
   <g id="patch_4">
    <path d="M 53.955938 281.633812 
L 317.737756 281.633812 
" style="fill: none; stroke: #000000; stroke-width: 0.8; stroke-linejoin: miter; stroke-linecap: square"/>
   </g>
   <g id="text_20">
    <!-- Objective progress -->
    <g transform="translate(120.216378 17.837812) scale(0.14 -0.14)">
     <defs>
      <path id="DejaVuSans-4f" d="M 2522 4238 
Q 1834 4238 1429 3725 
Q 1025 3213 1025 2328 
Q 1025 1447 1429 934 
Q 1834 422 2522 422 
Q 3209 422 3611 934 
Q 4013 1447 4013 2328 
Q 4013 3213 3611 3725 
Q 3209 4238 2522 4238 
z
M 2522 4750 
Q 3503 4750 4090 4092 
Q 4678 3434 4678 2328 
Q 4678 1225 4090 567 
Q 3503 -91 2522 -91 
Q 1538 -91 948 565 
Q 359 1222 359 2328 
Q 359 3434 948 4092 
Q 1538 4750 2522 4750 
z
" transform="scale(0.015625)"/>
      <path id="DejaVuSans-62" d="M 3116 1747 
Q 3116 2381 2855 2742 
Q 2594 3103 2138 3103 
Q 1681 3103 1420 2742 
Q 1159 2381 1159 1747 
Q 1159 1113 1420 752 
Q 1681 391 2138 391 
Q 2594 391 2855 752 
Q 3116 1113 3116 1747 
z
M 1159 2969 
Q 1341 3281 1617 3432 
Q 1894 3584 2278 3584 
Q 2916 3584 3314 3078 
Q 3713 2572 3713 1747 
Q 3713 922 3314 415 
Q 2916 -91 2278 -91 
Q 1894 -91 1617 61 
Q 1341 213 1159 525 
L 1159 0 
L 581 0 
L 581 4863 
L 1159 4863 
L 1159 2969 
z
" transform="scale(0.015625)"/>
      <path id="DejaVuSans-6a" d="M 603 3500 
L 1178 3500 
L 1178 -63 
Q 1178 -731 923 -1031 
Q 669 -1331 103 -1331 
L -116 -1331 
L -116 -844 
L 38 -844 
Q 366 -844 484 -692 
Q 603 -541 603 -63 
L 603 3500 
z
M 603 4863 
L 1178 4863 
L 1178 4134 
L 603 4134 
L 603 4863 
z
" transform="scale(0.015625)"/>
      <path id="DejaVuSans-76" d="M 191 3500 
L 800 3500 
L 1894 563 
L 2988 3500 
L 3597 3500 
L 2284 0 
L 1503 0 
L 191 3500 
z
" transform="scale(0.015625)"/>
      <path id="DejaVuSans-70" d="M 1159 525 
L 1159 -1331 
L 581 -1331 
L 581 3500 
L 1159 3500 
L 1159 2969 
Q 1341 3281 1617 3432 
Q 1894 3584 2278 3584 
Q 2916 3584 3314 3078 
Q 3713 2572 3713 1747 
Q 3713 922 3314 415 
Q 2916 -91 2278 -91 
Q 1894 -91 1617 61 
Q 1341 213 1159 525 
z
M 3116 1747 
Q 3116 2381 2855 2742 
Q 2594 3103 2138 3103 
Q 1681 3103 1420 2742 
Q 1159 2381 1159 1747 
Q 1159 1113 1420 752 
Q 1681 391 2138 391 
Q 2594 391 2855 752 
Q 3116 1113 3116 1747 
z
" transform="scale(0.015625)"/>
      <path id="DejaVuSans-67" d="M 2906 1791 
Q 2906 2416 2648 2759 
Q 2391 3103 1925 3103 
Q 1463 3103 1205 2759 
Q 947 2416 947 1791 
Q 947 1169 1205 825 
Q 1463 481 1925 481 
Q 2391 481 2648 825 
Q 2906 1169 2906 1791 
z
M 3481 434 
Q 3481 -459 3084 -895 
Q 2688 -1331 1869 -1331 
Q 1566 -1331 1297 -1286 
Q 1028 -1241 775 -1147 
L 775 -588 
Q 1028 -725 1275 -790 
Q 1522 -856 1778 -856 
Q 2344 -856 2625 -561 
Q 2906 -266 2906 331 
L 2906 616 
Q 2728 306 2450 153 
Q 2172 0 1784 0 
Q 1141 0 747 490 
Q 353 981 353 1791 
Q 353 2603 747 3093 
Q 1141 3584 1784 3584 
Q 2172 3584 2450 3431 
Q 2728 3278 2906 2969 
L 2906 3500 
L 3481 3500 
L 3481 434 
z
" transform="scale(0.015625)"/>
      <path id="DejaVuSans-73" d="M 2834 3397 
L 2834 2853 
Q 2591 2978 2328 3040 
Q 2066 3103 1784 3103 
Q 1356 3103 1142 2972 
Q 928 2841 928 2578 
Q 928 2378 1081 2264 
Q 1234 2150 1697 2047 
L 1894 2003 
Q 2506 1872 2764 1633 
Q 3022 1394 3022 966 
Q 3022 478 2636 193 
Q 2250 -91 1575 -91 
Q 1294 -91 989 -36 
Q 684 19 347 128 
L 347 722 
Q 666 556 975 473 
Q 1284 391 1588 391 
Q 1994 391 2212 530 
Q 2431 669 2431 922 
Q 2431 1156 2273 1281 
Q 2116 1406 1581 1522 
L 1381 1569 
Q 847 1681 609 1914 
Q 372 2147 372 2553 
Q 372 3047 722 3315 
Q 1072 3584 1716 3584 
Q 2034 3584 2315 3537 
Q 2597 3491 2834 3397 
z
" transform="scale(0.015625)"/>
     </defs>
     <use xlink:href="#DejaVuSans-4f"/>
     <use xlink:href="#DejaVuSans-62" transform="translate(78.710938 0)"/>
     <use xlink:href="#DejaVuSans-6a" transform="translate(142.1875 0)"/>
     <use xlink:href="#DejaVuSans-65" transform="translate(169.970703 0)"/>
     <use xlink:href="#DejaVuSans-63" transform="translate(231.494141 0)"/>
     <use xlink:href="#DejaVuSans-74" transform="translate(286.474609 0)"/>
     <use xlink:href="#DejaVuSans-69" transform="translate(325.683594 0)"/>
     <use xlink:href="#DejaVuSans-76" transform="translate(353.466797 0)"/>
     <use xlink:href="#DejaVuSans-65" transform="translate(412.646484 0)"/>
     <use xlink:href="#DejaVuSans-20" transform="translate(474.169922 0)"/>
     <use xlink:href="#DejaVuSans-70" transform="translate(505.957031 0)"/>
     <use xlink:href="#DejaVuSans-72" transform="translate(569.433594 0)"/>
     <use xlink:href="#DejaVuSans-6f" transform="translate(608.296875 0)"/>
     <use xlink:href="#DejaVuSans-67" transform="translate(669.478516 0)"/>
     <use xlink:href="#DejaVuSans-72" transform="translate(732.955078 0)"/>
     <use xlink:href="#DejaVuSans-65" transform="translate(771.818359 0)"/>
     <use xlink:href="#DejaVuSans-73" transform="translate(833.341797 0)"/>
     <use xlink:href="#DejaVuSans-73" transform="translate(885.441406 0)"/>
    </g>
   </g>
   <g id="legend_1">
    <g id="line2d_37">
     <path d="M 152.706506 36.93625 
L 162.706506 36.93625 
L 172.706506 36.93625 
" style="fill: none; stroke: #2563eb; stroke-width: 2.1; stroke-linecap: square"/>
     <g>
      <use xlink:href="#m928d3eb5ee" x="162.706506" y="36.93625" style="fill: #2563eb; stroke: #2563eb"/>
     </g>
    </g>
    <g id="text_21">
     <!-- trust-constr: 16 iterations -->
     <g transform="translate(180.706506 40.43625) scale(0.1 -0.1)">
      <defs>
       <path id="DejaVuSans-75" d="M 544 1381 
L 544 3500 
L 1119 3500 
L 1119 1403 
Q 1119 906 1312 657 
Q 1506 409 1894 409 
Q 2359 409 2629 706 
Q 2900 1003 2900 1516 
L 2900 3500 
L 3475 3500 
L 3475 0 
L 2900 0 
L 2900 538 
Q 2691 219 2414 64 
Q 2138 -91 1772 -91 
Q 1169 -91 856 284 
Q 544 659 544 1381 
z
M 1991 3584 
L 1991 3584 
z
" transform="scale(0.015625)"/>
       <path id="DejaVuSans-2d" d="M 313 2009 
L 1997 2009 
L 1997 1497 
L 313 1497 
L 313 2009 
z
" transform="scale(0.015625)"/>
       <path id="DejaVuSans-6e" d="M 3513 2113 
L 3513 0 
L 2938 0 
L 2938 2094 
Q 2938 2591 2744 2837 
Q 2550 3084 2163 3084 
Q 1697 3084 1428 2787 
Q 1159 2491 1159 1978 
L 1159 0 
L 581 0 
L 581 3500 
L 1159 3500 
L 1159 2956 
Q 1366 3272 1645 3428 
Q 1925 3584 2291 3584 
Q 2894 3584 3203 3211 
Q 3513 2838 3513 2113 
z
" transform="scale(0.015625)"/>
       <path id="DejaVuSans-3a" d="M 750 794 
L 1409 794 
L 1409 0 
L 750 0 
L 750 794 
z
M 750 3309 
L 1409 3309 
L 1409 2516 
L 750 2516 
L 750 3309 
z
" transform="scale(0.015625)"/>
      </defs>
      <use xlink:href="#DejaVuSans-74"/>
      <use xlink:href="#DejaVuSans-72" transform="translate(39.208984 0)"/>
      <use xlink:href="#DejaVuSans-75" transform="translate(80.322266 0)"/>
      <use xlink:href="#DejaVuSans-73" transform="translate(143.701172 0)"/>
      <use xlink:href="#DejaVuSans-74" transform="translate(195.800781 0)"/>
      <use xlink:href="#DejaVuSans-2d" transform="translate(235.009766 0)"/>
      <use xlink:href="#DejaVuSans-63" transform="translate(271.09375 0)"/>
      <use xlink:href="#DejaVuSans-6f" transform="translate(326.074219 0)"/>
      <use xlink:href="#DejaVuSans-6e" transform="translate(387.255859 0)"/>
      <use xlink:href="#DejaVuSans-73" transform="translate(450.634766 0)"/>
      <use xlink:href="#DejaVuSans-74" transform="translate(502.734375 0)"/>
      <use xlink:href="#DejaVuSans-72" transform="translate(541.943359 0)"/>
      <use xlink:href="#DejaVuSans-3a" transform="translate(581.306641 0)"/>
      <use xlink:href="#DejaVuSans-20" transform="translate(614.998047 0)"/>
      <use xlink:href="#DejaVuSans-31" transform="translate(646.785156 0)"/>
      <use xlink:href="#DejaVuSans-36" transform="translate(710.408203 0)"/>
      <use xlink:href="#DejaVuSans-20" transform="translate(774.03125 0)"/>
      <use xlink:href="#DejaVuSans-69" transform="translate(805.818359 0)"/>
      <use xlink:href="#DejaVuSans-74" transform="translate(833.601562 0)"/>
      <use xlink:href="#DejaVuSans-65" transform="translate(872.810547 0)"/>
      <use xlink:href="#DejaVuSans-72" transform="translate(934.333984 0)"/>
      <use xlink:href="#DejaVuSans-61" transform="translate(975.447266 0)"/>
      <use xlink:href="#DejaVuSans-74" transform="translate(1036.726562 0)"/>
      <use xlink:href="#DejaVuSans-69" transform="translate(1075.935547 0)"/>
      <use xlink:href="#DejaVuSans-6f" transform="translate(1103.71875 0)"/>
      <use xlink:href="#DejaVuSans-6e" transform="translate(1164.900391 0)"/>
      <use xlink:href="#DejaVuSans-73" transform="translate(1228.279297 0)"/>
     </g>
    </g>
    <g id="line2d_38">
     <path d="M 152.706506 51.614375 
L 162.706506 51.614375 
L 172.706506 51.614375 
" style="fill: none; stroke: #dc2626; stroke-width: 2.1; stroke-linecap: square"/>
     <g>
      <use xlink:href="#m14fbb13597" x="162.706506" y="51.614375" style="fill: #dc2626; stroke: #dc2626"/>
     </g>
    </g>
    <g id="text_22">
     <!-- SLSQP: 5 iterations -->
     <g transform="translate(180.706506 55.114375) scale(0.1 -0.1)">
      <defs>
       <path id="DejaVuSans-53" d="M 3425 4513 
L 3425 3897 
Q 3066 4069 2747 4153 
Q 2428 4238 2131 4238 
Q 1616 4238 1336 4038 
Q 1056 3838 1056 3469 
Q 1056 3159 1242 3001 
Q 1428 2844 1947 2747 
L 2328 2669 
Q 3034 2534 3370 2195 
Q 3706 1856 3706 1288 
Q 3706 609 3251 259 
Q 2797 -91 1919 -91 
Q 1588 -91 1214 -16 
Q 841 59 441 206 
L 441 856 
Q 825 641 1194 531 
Q 1563 422 1919 422 
Q 2459 422 2753 634 
Q 3047 847 3047 1241 
Q 3047 1584 2836 1778 
Q 2625 1972 2144 2069 
L 1759 2144 
Q 1053 2284 737 2584 
Q 422 2884 422 3419 
Q 422 4038 858 4394 
Q 1294 4750 2059 4750 
Q 2388 4750 2728 4690 
Q 3069 4631 3425 4513 
z
" transform="scale(0.015625)"/>
       <path id="DejaVuSans-4c" d="M 628 4666 
L 1259 4666 
L 1259 531 
L 3531 531 
L 3531 0 
L 628 0 
L 628 4666 
z
" transform="scale(0.015625)"/>
       <path id="DejaVuSans-51" d="M 2522 4238 
Q 1834 4238 1429 3725 
Q 1025 3213 1025 2328 
Q 1025 1447 1429 934 
Q 1834 422 2522 422 
Q 3209 422 3611 934 
Q 4013 1447 4013 2328 
Q 4013 3213 3611 3725 
Q 3209 4238 2522 4238 
z
M 3406 84 
L 4238 -825 
L 3475 -825 
L 2784 -78 
Q 2681 -84 2626 -87 
Q 2572 -91 2522 -91 
Q 1538 -91 948 567 
Q 359 1225 359 2328 
Q 359 3434 948 4092 
Q 1538 4750 2522 4750 
Q 3503 4750 4090 4092 
Q 4678 3434 4678 2328 
Q 4678 1516 4351 937 
Q 4025 359 3406 84 
z
" transform="scale(0.015625)"/>
       <path id="DejaVuSans-50" d="M 1259 4147 
L 1259 2394 
L 2053 2394 
Q 2494 2394 2734 2622 
Q 2975 2850 2975 3272 
Q 2975 3691 2734 3919 
Q 2494 4147 2053 4147 
L 1259 4147 
z
M 628 4666 
L 2053 4666 
Q 2838 4666 3239 4311 
Q 3641 3956 3641 3272 
Q 3641 2581 3239 2228 
Q 2838 1875 2053 1875 
L 1259 1875 
L 1259 0 
L 628 0 
L 628 4666 
z
" transform="scale(0.015625)"/>
      </defs>
      <use xlink:href="#DejaVuSans-53"/>
      <use xlink:href="#DejaVuSans-4c" transform="translate(63.476562 0)"/>
      <use xlink:href="#DejaVuSans-53" transform="translate(119.189453 0)"/>
      <use xlink:href="#DejaVuSans-51" transform="translate(182.666016 0)"/>
      <use xlink:href="#DejaVuSans-50" transform="translate(261.376953 0)"/>
      <use xlink:href="#DejaVuSans-3a" transform="translate(321.679688 0)"/>
      <use xlink:href="#DejaVuSans-20" transform="translate(355.371094 0)"/>
      <use xlink:href="#DejaVuSans-35" transform="translate(387.158203 0)"/>
      <use xlink:href="#DejaVuSans-20" transform="translate(450.78125 0)"/>
      <use xlink:href="#DejaVuSans-69" transform="translate(482.568359 0)"/>
      <use xlink:href="#DejaVuSans-74" transform="translate(510.351562 0)"/>
      <use xlink:href="#DejaVuSans-65" transform="translate(549.560547 0)"/>
      <use xlink:href="#DejaVuSans-72" transform="translate(611.083984 0)"/>
      <use xlink:href="#DejaVuSans-61" transform="translate(652.197266 0)"/>
      <use xlink:href="#DejaVuSans-74" transform="translate(713.476562 0)"/>
      <use xlink:href="#DejaVuSans-69" transform="translate(752.685547 0)"/>
      <use xlink:href="#DejaVuSans-6f" transform="translate(780.46875 0)"/>
      <use xlink:href="#DejaVuSans-6e" transform="translate(841.650391 0)"/>
      <use xlink:href="#DejaVuSans-73" transform="translate(905.029297 0)"/>
     </g>
    </g>
   </g>
  </g>
  <g id="axes_2">
   <g id="patch_5">
    <path d="M 370.494119 281.633812 
L 634.275937 281.633812 
L 634.275937 23.837812 
L 370.494119 23.837812 
z
" style="fill: #ffffff"/>
   </g>
   <g id="matplotlib.axis_3">
    <g id="xtick_10">
     <g id="line2d_39">
      <path d="M 382.484202 281.633812 
L 382.484202 23.837812 
" clip-path="url(#p0e68028e27)" style="fill: none; stroke-dasharray: 0.7,1.155; stroke-dashoffset: 0; stroke: #cbd5e1; stroke-width: 0.7"/>
     </g>
     <g id="line2d_40">
      <g>
       <use xlink:href="#m4c3c3fbd83" x="382.484202" y="281.633812" style="stroke: #000000; stroke-width: 0.8"/>
      </g>
     </g>
     <g id="text_23">
      <!-- 0 -->
      <g transform="translate(379.621077 295.472406) scale(0.09 -0.09)">
       <use xlink:href="#DejaVuSans-30"/>
      </g>
     </g>
    </g>
    <g id="xtick_11">
     <g id="line2d_41">
      <path d="M 412.459409 281.633812 
L 412.459409 23.837812 
" clip-path="url(#p0e68028e27)" style="fill: none; stroke-dasharray: 0.7,1.155; stroke-dashoffset: 0; stroke: #cbd5e1; stroke-width: 0.7"/>
     </g>
     <g id="line2d_42">
      <g>
       <use xlink:href="#m4c3c3fbd83" x="412.459409" y="281.633812" style="stroke: #000000; stroke-width: 0.8"/>
      </g>
     </g>
     <g id="text_24">
      <!-- 2 -->
      <g transform="translate(409.596284 295.472406) scale(0.09 -0.09)">
       <use xlink:href="#DejaVuSans-32"/>
      </g>
     </g>
    </g>
    <g id="xtick_12">
     <g id="line2d_43">
      <path d="M 442.434615 281.633812 
L 442.434615 23.837812 
" clip-path="url(#p0e68028e27)" style="fill: none; stroke-dasharray: 0.7,1.155; stroke-dashoffset: 0; stroke: #cbd5e1; stroke-width: 0.7"/>
     </g>
     <g id="line2d_44">
      <g>
       <use xlink:href="#m4c3c3fbd83" x="442.434615" y="281.633812" style="stroke: #000000; stroke-width: 0.8"/>
      </g>
     </g>
     <g id="text_25">
      <!-- 4 -->
      <g transform="translate(439.57149 295.472406) scale(0.09 -0.09)">
       <use xlink:href="#DejaVuSans-34"/>
      </g>
     </g>
    </g>
    <g id="xtick_13">
     <g id="line2d_45">
      <path d="M 472.409822 281.633812 
L 472.409822 23.837812 
" clip-path="url(#p0e68028e27)" style="fill: none; stroke-dasharray: 0.7,1.155; stroke-dashoffset: 0; stroke: #cbd5e1; stroke-width: 0.7"/>
     </g>
     <g id="line2d_46">
      <g>
       <use xlink:href="#m4c3c3fbd83" x="472.409822" y="281.633812" style="stroke: #000000; stroke-width: 0.8"/>
      </g>
     </g>
     <g id="text_26">
      <!-- 6 -->
      <g transform="translate(469.546697 295.472406) scale(0.09 -0.09)">
       <use xlink:href="#DejaVuSans-36"/>
      </g>
     </g>
    </g>
    <g id="xtick_14">
     <g id="line2d_47">
      <path d="M 502.385028 281.633812 
L 502.385028 23.837812 
" clip-path="url(#p0e68028e27)" style="fill: none; stroke-dasharray: 0.7,1.155; stroke-dashoffset: 0; stroke: #cbd5e1; stroke-width: 0.7"/>
     </g>
     <g id="line2d_48">
      <g>
       <use xlink:href="#m4c3c3fbd83" x="502.385028" y="281.633812" style="stroke: #000000; stroke-width: 0.8"/>
      </g>
     </g>
     <g id="text_27">
      <!-- 8 -->
      <g transform="translate(499.521903 295.472406) scale(0.09 -0.09)">
       <use xlink:href="#DejaVuSans-38"/>
      </g>
     </g>
    </g>
    <g id="xtick_15">
     <g id="line2d_49">
      <path d="M 532.360235 281.633812 
L 532.360235 23.837812 
" clip-path="url(#p0e68028e27)" style="fill: none; stroke-dasharray: 0.7,1.155; stroke-dashoffset: 0; stroke: #cbd5e1; stroke-width: 0.7"/>
     </g>
     <g id="line2d_50">
      <g>
       <use xlink:href="#m4c3c3fbd83" x="532.360235" y="281.633812" style="stroke: #000000; stroke-width: 0.8"/>
      </g>
     </g>
     <g id="text_28">
      <!-- 10 -->
      <g transform="translate(526.633985 295.472406) scale(0.09 -0.09)">
       <use xlink:href="#DejaVuSans-31"/>
       <use xlink:href="#DejaVuSans-30" transform="translate(63.623047 0)"/>
      </g>
     </g>
    </g>
    <g id="xtick_16">
     <g id="line2d_51">
      <path d="M 562.335442 281.633812 
L 562.335442 23.837812 
" clip-path="url(#p0e68028e27)" style="fill: none; stroke-dasharray: 0.7,1.155; stroke-dashoffset: 0; stroke: #cbd5e1; stroke-width: 0.7"/>
     </g>
     <g id="line2d_52">
      <g>
       <use xlink:href="#m4c3c3fbd83" x="562.335442" y="281.633812" style="stroke: #000000; stroke-width: 0.8"/>
      </g>
     </g>
     <g id="text_29">
      <!-- 12 -->
      <g transform="translate(556.609192 295.472406) scale(0.09 -0.09)">
       <use xlink:href="#DejaVuSans-31"/>
       <use xlink:href="#DejaVuSans-32" transform="translate(63.623047 0)"/>
      </g>
     </g>
    </g>
    <g id="xtick_17">
     <g id="line2d_53">
      <path d="M 592.310648 281.633812 
L 592.310648 23.837812 
" clip-path="url(#p0e68028e27)" style="fill: none; stroke-dasharray: 0.7,1.155; stroke-dashoffset: 0; stroke: #cbd5e1; stroke-width: 0.7"/>
     </g>
     <g id="line2d_54">
      <g>
       <use xlink:href="#m4c3c3fbd83" x="592.310648" y="281.633812" style="stroke: #000000; stroke-width: 0.8"/>
      </g>
     </g>
     <g id="text_30">
      <!-- 14 -->
      <g transform="translate(586.584398 295.472406) scale(0.09 -0.09)">
       <use xlink:href="#DejaVuSans-31"/>
       <use xlink:href="#DejaVuSans-34" transform="translate(63.623047 0)"/>
      </g>
     </g>
    </g>
    <g id="xtick_18">
     <g id="line2d_55">
      <path d="M 622.285855 281.633812 
L 622.285855 23.837812 
" clip-path="url(#p0e68028e27)" style="fill: none; stroke-dasharray: 0.7,1.155; stroke-dashoffset: 0; stroke: #cbd5e1; stroke-width: 0.7"/>
     </g>
     <g id="line2d_56">
      <g>
       <use xlink:href="#m4c3c3fbd83" x="622.285855" y="281.633812" style="stroke: #000000; stroke-width: 0.8"/>
      </g>
     </g>
     <g id="text_31">
      <!-- 16 -->
      <g transform="translate(616.559605 295.472406) scale(0.09 -0.09)">
       <use xlink:href="#DejaVuSans-31"/>
       <use xlink:href="#DejaVuSans-36" transform="translate(63.623047 0)"/>
      </g>
     </g>
    </g>
    <g id="text_32">
     <!-- recorded iterate -->
     <g transform="translate(457.953622 309.702406) scale(0.11 -0.11)">
      <use xlink:href="#DejaVuSans-72"/>
      <use xlink:href="#DejaVuSans-65" transform="translate(38.863281 0)"/>
      <use xlink:href="#DejaVuSans-63" transform="translate(100.386719 0)"/>
      <use xlink:href="#DejaVuSans-6f" transform="translate(155.367188 0)"/>
      <use xlink:href="#DejaVuSans-72" transform="translate(216.548828 0)"/>
      <use xlink:href="#DejaVuSans-64" transform="translate(255.912109 0)"/>
      <use xlink:href="#DejaVuSans-65" transform="translate(319.388672 0)"/>
      <use xlink:href="#DejaVuSans-64" transform="translate(380.912109 0)"/>
      <use xlink:href="#DejaVuSans-20" transform="translate(444.388672 0)"/>
      <use xlink:href="#DejaVuSans-69" transform="translate(476.175781 0)"/>
      <use xlink:href="#DejaVuSans-74" transform="translate(503.958984 0)"/>
      <use xlink:href="#DejaVuSans-65" transform="translate(543.167969 0)"/>
      <use xlink:href="#DejaVuSans-72" transform="translate(604.691406 0)"/>
      <use xlink:href="#DejaVuSans-61" transform="translate(645.804688 0)"/>
      <use xlink:href="#DejaVuSans-74" transform="translate(707.083984 0)"/>
      <use xlink:href="#DejaVuSans-65" transform="translate(746.292969 0)"/>
     </g>
    </g>
   </g>
   <g id="matplotlib.axis_4">
    <g id="ytick_9">
     <g id="line2d_57">
      <path d="M 370.494119 252.030428 
L 634.275937 252.030428 
" clip-path="url(#p0e68028e27)" style="fill: none; stroke-dasharray: 0.7,1.155; stroke-dashoffset: 0; stroke: #cbd5e1; stroke-width: 0.7"/>
     </g>
     <g id="line2d_58">
      <g>
       <use xlink:href="#m73f80c09e3" x="370.494119" y="252.030428" style="stroke: #000000; stroke-width: 0.8"/>
      </g>
     </g>
     <g id="text_33">
      <!-- $\mathdefault{10^{-13}}$ -->
      <g transform="translate(338.384119 255.449725) scale(0.09 -0.09)">
       <use xlink:href="#DejaVuSans-31" transform="translate(0 0.765625)"/>
       <use xlink:href="#DejaVuSans-30" transform="translate(63.623047 0.765625)"/>
       <use xlink:href="#DejaVuSans-2212" transform="translate(128.203125 39.046875) scale(0.7)"/>
       <use xlink:href="#DejaVuSans-31" transform="translate(186.855469 39.046875) scale(0.7)"/>
       <use xlink:href="#DejaVuSans-33" transform="translate(231.391602 39.046875) scale(0.7)"/>
      </g>
     </g>
    </g>
    <g id="ytick_10">
     <g id="line2d_59">
      <path d="M 370.494119 216.259659 
L 634.275937 216.259659 
" clip-path="url(#p0e68028e27)" style="fill: none; stroke-dasharray: 0.7,1.155; stroke-dashoffset: 0; stroke: #cbd5e1; stroke-width: 0.7"/>
     </g>
     <g id="line2d_60">
      <g>
       <use xlink:href="#m73f80c09e3" x="370.494119" y="216.259659" style="stroke: #000000; stroke-width: 0.8"/>
      </g>
     </g>
     <g id="text_34">
      <!-- $\mathdefault{10^{-11}}$ -->
      <g transform="translate(338.384119 219.678956) scale(0.09 -0.09)">
       <use xlink:href="#DejaVuSans-31" transform="translate(0 0.684375)"/>
       <use xlink:href="#DejaVuSans-30" transform="translate(63.623047 0.684375)"/>
       <use xlink:href="#DejaVuSans-2212" transform="translate(128.203125 38.965625) scale(0.7)"/>
       <use xlink:href="#DejaVuSans-31" transform="translate(186.855469 38.965625) scale(0.7)"/>
       <use xlink:href="#DejaVuSans-31" transform="translate(231.391602 38.965625) scale(0.7)"/>
      </g>
     </g>
    </g>
    <g id="ytick_11">
     <g id="line2d_61">
      <path d="M 370.494119 180.48889 
L 634.275937 180.48889 
" clip-path="url(#p0e68028e27)" style="fill: none; stroke-dasharray: 0.7,1.155; stroke-dashoffset: 0; stroke: #cbd5e1; stroke-width: 0.7"/>
     </g>
     <g id="line2d_62">
      <g>
       <use xlink:href="#m73f80c09e3" x="370.494119" y="180.48889" style="stroke: #000000; stroke-width: 0.8"/>
      </g>
     </g>
     <g id="text_35">
      <!-- $\mathdefault{10^{-9}}$ -->
      <g transform="translate(342.344119 183.908187) scale(0.09 -0.09)">
       <use xlink:href="#DejaVuSans-31" transform="translate(0 0.765625)"/>
       <use xlink:href="#DejaVuSans-30" transform="translate(63.623047 0.765625)"/>
       <use xlink:href="#DejaVuSans-2212" transform="translate(128.203125 39.046875) scale(0.7)"/>
       <use xlink:href="#DejaVuSans-39" transform="translate(186.855469 39.046875) scale(0.7)"/>
      </g>
     </g>
    </g>
    <g id="ytick_12">
     <g id="line2d_63">
      <path d="M 370.494119 144.718121 
L 634.275937 144.718121 
" clip-path="url(#p0e68028e27)" style="fill: none; stroke-dasharray: 0.7,1.155; stroke-dashoffset: 0; stroke: #cbd5e1; stroke-width: 0.7"/>
     </g>
     <g id="line2d_64">
      <g>
       <use xlink:href="#m73f80c09e3" x="370.494119" y="144.718121" style="stroke: #000000; stroke-width: 0.8"/>
      </g>
     </g>
     <g id="text_36">
      <!-- $\mathdefault{10^{-7}}$ -->
      <g transform="translate(342.344119 148.137418) scale(0.09 -0.09)">
       <use xlink:href="#DejaVuSans-31" transform="translate(0 0.684375)"/>
       <use xlink:href="#DejaVuSans-30" transform="translate(63.623047 0.684375)"/>
       <use xlink:href="#DejaVuSans-2212" transform="translate(128.203125 38.965625) scale(0.7)"/>
       <use xlink:href="#DejaVuSans-37" transform="translate(186.855469 38.965625) scale(0.7)"/>
      </g>
     </g>
    </g>
    <g id="ytick_13">
     <g id="line2d_65">
      <path d="M 370.494119 108.947352 
L 634.275937 108.947352 
" clip-path="url(#p0e68028e27)" style="fill: none; stroke-dasharray: 0.7,1.155; stroke-dashoffset: 0; stroke: #cbd5e1; stroke-width: 0.7"/>
     </g>
     <g id="line2d_66">
      <g>
       <use xlink:href="#m73f80c09e3" x="370.494119" y="108.947352" style="stroke: #000000; stroke-width: 0.8"/>
      </g>
     </g>
     <g id="text_37">
      <!-- $\mathdefault{10^{-5}}$ -->
      <g transform="translate(342.344119 112.366649) scale(0.09 -0.09)">
       <use xlink:href="#DejaVuSans-31" transform="translate(0 0.684375)"/>
       <use xlink:href="#DejaVuSans-30" transform="translate(63.623047 0.684375)"/>
       <use xlink:href="#DejaVuSans-2212" transform="translate(128.203125 38.965625) scale(0.7)"/>
       <use xlink:href="#DejaVuSans-35" transform="translate(186.855469 38.965625) scale(0.7)"/>
      </g>
     </g>
    </g>
    <g id="ytick_14">
     <g id="line2d_67">
      <path d="M 370.494119 73.176584 
L 634.275937 73.176584 
" clip-path="url(#p0e68028e27)" style="fill: none; stroke-dasharray: 0.7,1.155; stroke-dashoffset: 0; stroke: #cbd5e1; stroke-width: 0.7"/>
     </g>
     <g id="line2d_68">
      <g>
       <use xlink:href="#m73f80c09e3" x="370.494119" y="73.176584" style="stroke: #000000; stroke-width: 0.8"/>
      </g>
     </g>
     <g id="text_38">
      <!-- $\mathdefault{10^{-3}}$ -->
      <g transform="translate(342.344119 76.59588) scale(0.09 -0.09)">
       <use xlink:href="#DejaVuSans-31" transform="translate(0 0.765625)"/>
       <use xlink:href="#DejaVuSans-30" transform="translate(63.623047 0.765625)"/>
       <use xlink:href="#DejaVuSans-2212" transform="translate(128.203125 39.046875) scale(0.7)"/>
       <use xlink:href="#DejaVuSans-33" transform="translate(186.855469 39.046875) scale(0.7)"/>
      </g>
     </g>
    </g>
    <g id="ytick_15">
     <g id="line2d_69">
      <path d="M 370.494119 37.405815 
L 634.275937 37.405815 
" clip-path="url(#p0e68028e27)" style="fill: none; stroke-dasharray: 0.7,1.155; stroke-dashoffset: 0; stroke: #cbd5e1; stroke-width: 0.7"/>
     </g>
     <g id="line2d_70">
      <g>
       <use xlink:href="#m73f80c09e3" x="370.494119" y="37.405815" style="stroke: #000000; stroke-width: 0.8"/>
      </g>
     </g>
     <g id="text_39">
      <!-- $\mathdefault{10^{-1}}$ -->
      <g transform="translate(342.344119 40.825112) scale(0.09 -0.09)">
       <use xlink:href="#DejaVuSans-31" transform="translate(0 0.684375)"/>
       <use xlink:href="#DejaVuSans-30" transform="translate(63.623047 0.684375)"/>
       <use xlink:href="#DejaVuSans-2212" transform="translate(128.203125 38.965625) scale(0.7)"/>
       <use xlink:href="#DejaVuSans-31" transform="translate(186.855469 38.965625) scale(0.7)"/>
      </g>
     </g>
    </g>
    <g id="text_40">
     <!-- violation -->
     <g transform="translate(332.096463 176.317922) rotate(-90) scale(0.11 -0.11)">
      <defs>
       <path id="DejaVuSans-6c" d="M 603 4863 
L 1178 4863 
L 1178 0 
L 603 0 
L 603 4863 
z
" transform="scale(0.015625)"/>
      </defs>
      <use xlink:href="#DejaVuSans-76"/>
      <use xlink:href="#DejaVuSans-69" transform="translate(59.179688 0)"/>
      <use xlink:href="#DejaVuSans-6f" transform="translate(86.962891 0)"/>
      <use xlink:href="#DejaVuSans-6c" transform="translate(148.144531 0)"/>
      <use xlink:href="#DejaVuSans-61" transform="translate(175.927734 0)"/>
      <use xlink:href="#DejaVuSans-74" transform="translate(237.207031 0)"/>
      <use xlink:href="#DejaVuSans-69" transform="translate(276.416016 0)"/>
      <use xlink:href="#DejaVuSans-6f" transform="translate(304.199219 0)"/>
      <use xlink:href="#DejaVuSans-6e" transform="translate(365.380859 0)"/>
     </g>
    </g>
   </g>
   <g id="line2d_71">
    <path d="M 382.484202 269.915812 
L 397.471805 269.915812 
L 412.459409 35.555812 
L 427.447012 269.915812 
L 442.434615 269.915812 
L 457.422218 269.915812 
L 472.409822 269.915812 
L 487.397425 269.915812 
L 502.385028 269.915812 
L 517.372632 269.915812 
L 532.360235 269.915812 
L 547.347838 269.915812 
L 562.335442 269.915812 
L 577.323045 269.915812 
L 592.310648 269.915812 
L 607.298252 269.915812 
L 622.285855 269.915812 
" clip-path="url(#p0e68028e27)" style="fill: none; stroke: #2563eb; stroke-width: 2.1; stroke-linecap: square"/>
    <g clip-path="url(#p0e68028e27)">
     <use xlink:href="#m928d3eb5ee" x="382.484202" y="269.915812" style="fill: #2563eb; stroke: #2563eb"/>
     <use xlink:href="#m928d3eb5ee" x="397.471805" y="269.915812" style="fill: #2563eb; stroke: #2563eb"/>
     <use xlink:href="#m928d3eb5ee" x="412.459409" y="35.555812" style="fill: #2563eb; stroke: #2563eb"/>
     <use xlink:href="#m928d3eb5ee" x="427.447012" y="269.915812" style="fill: #2563eb; stroke: #2563eb"/>
     <use xlink:href="#m928d3eb5ee" x="442.434615" y="269.915812" style="fill: #2563eb; stroke: #2563eb"/>
     <use xlink:href="#m928d3eb5ee" x="457.422218" y="269.915812" style="fill: #2563eb; stroke: #2563eb"/>
     <use xlink:href="#m928d3eb5ee" x="472.409822" y="269.915812" style="fill: #2563eb; stroke: #2563eb"/>
     <use xlink:href="#m928d3eb5ee" x="487.397425" y="269.915812" style="fill: #2563eb; stroke: #2563eb"/>
     <use xlink:href="#m928d3eb5ee" x="502.385028" y="269.915812" style="fill: #2563eb; stroke: #2563eb"/>
     <use xlink:href="#m928d3eb5ee" x="517.372632" y="269.915812" style="fill: #2563eb; stroke: #2563eb"/>
     <use xlink:href="#m928d3eb5ee" x="532.360235" y="269.915812" style="fill: #2563eb; stroke: #2563eb"/>
     <use xlink:href="#m928d3eb5ee" x="547.347838" y="269.915812" style="fill: #2563eb; stroke: #2563eb"/>
     <use xlink:href="#m928d3eb5ee" x="562.335442" y="269.915812" style="fill: #2563eb; stroke: #2563eb"/>
     <use xlink:href="#m928d3eb5ee" x="577.323045" y="269.915812" style="fill: #2563eb; stroke: #2563eb"/>
     <use xlink:href="#m928d3eb5ee" x="592.310648" y="269.915812" style="fill: #2563eb; stroke: #2563eb"/>
     <use xlink:href="#m928d3eb5ee" x="607.298252" y="269.915812" style="fill: #2563eb; stroke: #2563eb"/>
     <use xlink:href="#m928d3eb5ee" x="622.285855" y="269.915812" style="fill: #2563eb; stroke: #2563eb"/>
    </g>
   </g>
   <g id="line2d_72">
    <path d="M 382.484202 269.915812 
L 397.471805 269.915812 
L 412.459409 269.915812 
L 427.447012 269.915812 
L 442.434615 269.915812 
L 457.422218 269.915812 
" clip-path="url(#p0e68028e27)" style="fill: none; stroke: #dc2626; stroke-width: 2.1; stroke-linecap: square"/>
    <g clip-path="url(#p0e68028e27)">
     <use xlink:href="#m14fbb13597" x="382.484202" y="269.915812" style="fill: #dc2626; stroke: #dc2626"/>
     <use xlink:href="#m14fbb13597" x="397.471805" y="269.915812" style="fill: #dc2626; stroke: #dc2626"/>
     <use xlink:href="#m14fbb13597" x="412.459409" y="269.915812" style="fill: #dc2626; stroke: #dc2626"/>
     <use xlink:href="#m14fbb13597" x="427.447012" y="269.915812" style="fill: #dc2626; stroke: #dc2626"/>
     <use xlink:href="#m14fbb13597" x="442.434615" y="269.915812" style="fill: #dc2626; stroke: #dc2626"/>
     <use xlink:href="#m14fbb13597" x="457.422218" y="269.915812" style="fill: #dc2626; stroke: #dc2626"/>
    </g>
   </g>
   <g id="patch_6">
    <path d="M 370.494119 281.633812 
L 370.494119 23.837812 
" style="fill: none; stroke: #000000; stroke-width: 0.8; stroke-linejoin: miter; stroke-linecap: square"/>
   </g>
   <g id="patch_7">
    <path d="M 370.494119 281.633812 
L 634.275937 281.633812 
" style="fill: none; stroke: #000000; stroke-width: 0.8; stroke-linejoin: miter; stroke-linecap: square"/>
   </g>
   <g id="text_41">
    <g id="patch_8">
     <path d="M 381.045392 266.031851 
L 542.463205 266.031851 
Q 545.613205 266.031851 545.613205 262.881851 
L 545.613205 244.093507 
Q 545.613205 240.943507 542.463205 240.943507 
L 381.045392 240.943507 
Q 377.895392 240.943507 377.895392 244.093507 
L 377.895392 262.881851 
Q 377.895392 266.031851 381.045392 266.031851 
z
" style="fill: #ffffff; stroke: #cbd5e1; stroke-linejoin: miter"/>
    </g>
    <!-- Violation combines inequality slack, -->
    <g style="fill: #374151" transform="translate(381.045392 250.932101) scale(0.09 -0.09)">
     <defs>
      <path id="DejaVuSans-56" d="M 1831 0 
L 50 4666 
L 709 4666 
L 2188 738 
L 3669 4666 
L 4325 4666 
L 2547 0 
L 1831 0 
z
" transform="scale(0.015625)"/>
      <path id="DejaVuSans-6d" d="M 3328 2828 
Q 3544 3216 3844 3400 
Q 4144 3584 4550 3584 
Q 5097 3584 5394 3201 
Q 5691 2819 5691 2113 
L 5691 0 
L 5113 0 
L 5113 2094 
Q 5113 2597 4934 2840 
Q 4756 3084 4391 3084 
Q 3944 3084 3684 2787 
Q 3425 2491 3425 1978 
L 3425 0 
L 2847 0 
L 2847 2094 
Q 2847 2600 2669 2842 
Q 2491 3084 2119 3084 
Q 1678 3084 1418 2786 
Q 1159 2488 1159 1978 
L 1159 0 
L 581 0 
L 581 3500 
L 1159 3500 
L 1159 2956 
Q 1356 3278 1631 3431 
Q 1906 3584 2284 3584 
Q 2666 3584 2933 3390 
Q 3200 3197 3328 2828 
z
" transform="scale(0.015625)"/>
      <path id="DejaVuSans-71" d="M 947 1747 
Q 947 1113 1208 752 
Q 1469 391 1925 391 
Q 2381 391 2643 752 
Q 2906 1113 2906 1747 
Q 2906 2381 2643 2742 
Q 2381 3103 1925 3103 
Q 1469 3103 1208 2742 
Q 947 2381 947 1747 
z
M 2906 525 
Q 2725 213 2448 61 
Q 2172 -91 1784 -91 
Q 1150 -91 751 415 
Q 353 922 353 1747 
Q 353 2572 751 3078 
Q 1150 3584 1784 3584 
Q 2172 3584 2448 3432 
Q 2725 3281 2906 2969 
L 2906 3500 
L 3481 3500 
L 3481 -1331 
L 2906 -1331 
L 2906 525 
z
" transform="scale(0.015625)"/>
      <path id="DejaVuSans-79" d="M 2059 -325 
Q 1816 -950 1584 -1140 
Q 1353 -1331 966 -1331 
L 506 -1331 
L 506 -850 
L 844 -850 
Q 1081 -850 1212 -737 
Q 1344 -625 1503 -206 
L 1606 56 
L 191 3500 
L 800 3500 
L 1894 763 
L 2988 3500 
L 3597 3500 
L 2059 -325 
z
" transform="scale(0.015625)"/>
      <path id="DejaVuSans-6b" d="M 581 4863 
L 1159 4863 
L 1159 1991 
L 2875 3500 
L 3609 3500 
L 1753 1863 
L 3688 0 
L 2938 0 
L 1159 1709 
L 1159 0 
L 581 0 
L 581 4863 
z
" transform="scale(0.015625)"/>
      <path id="DejaVuSans-2c" d="M 750 794 
L 1409 794 
L 1409 256 
L 897 -744 
L 494 -744 
L 750 256 
L 750 794 
z
" transform="scale(0.015625)"/>
     </defs>
     <use xlink:href="#DejaVuSans-56"/>
     <use xlink:href="#DejaVuSans-69" transform="translate(66.158203 0)"/>
     <use xlink:href="#DejaVuSans-6f" transform="translate(93.941406 0)"/>
     <use xlink:href="#DejaVuSans-6c" transform="translate(155.123047 0)"/>
     <use xlink:href="#DejaVuSans-61" transform="translate(182.90625 0)"/>
     <use xlink:href="#DejaVuSans-74" transform="translate(244.185547 0)"/>
     <use xlink:href="#DejaVuSans-69" transform="translate(283.394531 0)"/>
     <use xlink:href="#DejaVuSans-6f" transform="translate(311.177734 0)"/>
     <use xlink:href="#DejaVuSans-6e" transform="translate(372.359375 0)"/>
     <use xlink:href="#DejaVuSans-20" transform="translate(435.738281 0)"/>
     <use xlink:href="#DejaVuSans-63" transform="translate(467.525391 0)"/>
     <use xlink:href="#DejaVuSans-6f" transform="translate(522.505859 0)"/>
     <use xlink:href="#DejaVuSans-6d" transform="translate(583.6875 0)"/>
     <use xlink:href="#DejaVuSans-62" transform="translate(681.099609 0)"/>
     <use xlink:href="#DejaVuSans-69" transform="translate(744.576172 0)"/>
     <use xlink:href="#DejaVuSans-6e" transform="translate(772.359375 0)"/>
     <use xlink:href="#DejaVuSans-65" transform="translate(835.738281 0)"/>
     <use xlink:href="#DejaVuSans-73" transform="translate(897.261719 0)"/>
     <use xlink:href="#DejaVuSans-20" transform="translate(949.361328 0)"/>
     <use xlink:href="#DejaVuSans-69" transform="translate(981.148438 0)"/>
     <use xlink:href="#DejaVuSans-6e" transform="translate(1008.931641 0)"/>
     <use xlink:href="#DejaVuSans-65" transform="translate(1072.310547 0)"/>
     <use xlink:href="#DejaVuSans-71" transform="translate(1133.833984 0)"/>
     <use xlink:href="#DejaVuSans-75" transform="translate(1197.310547 0)"/>
     <use xlink:href="#DejaVuSans-61" transform="translate(1260.689453 0)"/>
     <use xlink:href="#DejaVuSans-6c" transform="translate(1321.96875 0)"/>
     <use xlink:href="#DejaVuSans-69" transform="translate(1349.751953 0)"/>
     <use xlink:href="#DejaVuSans-74" transform="translate(1377.535156 0)"/>
     <use xlink:href="#DejaVuSans-79" transform="translate(1416.744141 0)"/>
     <use xlink:href="#DejaVuSans-20" transform="translate(1475.923828 0)"/>
     <use xlink:href="#DejaVuSans-73" transform="translate(1507.710938 0)"/>
     <use xlink:href="#DejaVuSans-6c" transform="translate(1559.810547 0)"/>
     <use xlink:href="#DejaVuSans-61" transform="translate(1587.59375 0)"/>
     <use xlink:href="#DejaVuSans-63" transform="translate(1648.873047 0)"/>
     <use xlink:href="#DejaVuSans-6b" transform="translate(1703.853516 0)"/>
     <use xlink:href="#DejaVuSans-2c" transform="translate(1761.763672 0)"/>
    </g>
    <!-- box bounds, and equality residual. -->
    <g style="fill: #374151" transform="translate(381.045392 261.010132) scale(0.09 -0.09)">
     <defs>
      <path id="DejaVuSans-78" d="M 3513 3500 
L 2247 1797 
L 3578 0 
L 2900 0 
L 1881 1375 
L 863 0 
L 184 0 
L 1544 1831 
L 300 3500 
L 978 3500 
L 1906 2253 
L 2834 3500 
L 3513 3500 
z
" transform="scale(0.015625)"/>
      <path id="DejaVuSans-2e" d="M 684 794 
L 1344 794 
L 1344 0 
L 684 0 
L 684 794 
z
" transform="scale(0.015625)"/>
     </defs>
     <use xlink:href="#DejaVuSans-62"/>
     <use xlink:href="#DejaVuSans-6f" transform="translate(63.476562 0)"/>
     <use xlink:href="#DejaVuSans-78" transform="translate(121.533203 0)"/>
     <use xlink:href="#DejaVuSans-20" transform="translate(180.712891 0)"/>
     <use xlink:href="#DejaVuSans-62" transform="translate(212.5 0)"/>
     <use xlink:href="#DejaVuSans-6f" transform="translate(275.976562 0)"/>
     <use xlink:href="#DejaVuSans-75" transform="translate(337.158203 0)"/>
     <use xlink:href="#DejaVuSans-6e" transform="translate(400.537109 0)"/>
     <use xlink:href="#DejaVuSans-64" transform="translate(463.916016 0)"/>
     <use xlink:href="#DejaVuSans-73" transform="translate(527.392578 0)"/>
     <use xlink:href="#DejaVuSans-2c" transform="translate(579.492188 0)"/>
     <use xlink:href="#DejaVuSans-20" transform="translate(611.279297 0)"/>
     <use xlink:href="#DejaVuSans-61" transform="translate(643.066406 0)"/>
     <use xlink:href="#DejaVuSans-6e" transform="translate(704.345703 0)"/>
     <use xlink:href="#DejaVuSans-64" transform="translate(767.724609 0)"/>
     <use xlink:href="#DejaVuSans-20" transform="translate(831.201172 0)"/>
     <use xlink:href="#DejaVuSans-65" transform="translate(862.988281 0)"/>
     <use xlink:href="#DejaVuSans-71" transform="translate(924.511719 0)"/>
     <use xlink:href="#DejaVuSans-75" transform="translate(987.988281 0)"/>
     <use xlink:href="#DejaVuSans-61" transform="translate(1051.367188 0)"/>
     <use xlink:href="#DejaVuSans-6c" transform="translate(1112.646484 0)"/>
     <use xlink:href="#DejaVuSans-69" transform="translate(1140.429688 0)"/>
     <use xlink:href="#DejaVuSans-74" transform="translate(1168.212891 0)"/>
     <use xlink:href="#DejaVuSans-79" transform="translate(1207.421875 0)"/>
     <use xlink:href="#DejaVuSans-20" transform="translate(1266.601562 0)"/>
     <use xlink:href="#DejaVuSans-72" transform="translate(1298.388672 0)"/>
     <use xlink:href="#DejaVuSans-65" transform="translate(1337.251953 0)"/>
     <use xlink:href="#DejaVuSans-73" transform="translate(1398.775391 0)"/>
     <use xlink:href="#DejaVuSans-69" transform="translate(1450.875 0)"/>
     <use xlink:href="#DejaVuSans-64" transform="translate(1478.658203 0)"/>
     <use xlink:href="#DejaVuSans-75" transform="translate(1542.134766 0)"/>
     <use xlink:href="#DejaVuSans-61" transform="translate(1605.513672 0)"/>
     <use xlink:href="#DejaVuSans-6c" transform="translate(1666.792969 0)"/>
     <use xlink:href="#DejaVuSans-2e" transform="translate(1694.576172 0)"/>
    </g>
   </g>
   <g id="text_42">
    <!-- Maximum constraint violation -->
    <g transform="translate(398.180185 17.837812) scale(0.14 -0.14)">
     <defs>
      <path id="DejaVuSans-4d" d="M 628 4666 
L 1569 4666 
L 2759 1491 
L 3956 4666 
L 4897 4666 
L 4897 0 
L 4281 0 
L 4281 4097 
L 3078 897 
L 2444 897 
L 1241 4097 
L 1241 0 
L 628 0 
L 628 4666 
z
" transform="scale(0.015625)"/>
     </defs>
     <use xlink:href="#DejaVuSans-4d"/>
     <use xlink:href="#DejaVuSans-61" transform="translate(86.279297 0)"/>
     <use xlink:href="#DejaVuSans-78" transform="translate(147.558594 0)"/>
     <use xlink:href="#DejaVuSans-69" transform="translate(206.738281 0)"/>
     <use xlink:href="#DejaVuSans-6d" transform="translate(234.521484 0)"/>
     <use xlink:href="#DejaVuSans-75" transform="translate(331.933594 0)"/>
     <use xlink:href="#DejaVuSans-6d" transform="translate(395.3125 0)"/>
     <use xlink:href="#DejaVuSans-20" transform="translate(492.724609 0)"/>
     <use xlink:href="#DejaVuSans-63" transform="translate(524.511719 0)"/>
     <use xlink:href="#DejaVuSans-6f" transform="translate(579.492188 0)"/>
     <use xlink:href="#DejaVuSans-6e" transform="translate(640.673828 0)"/>
     <use xlink:href="#DejaVuSans-73" transform="translate(704.052734 0)"/>
     <use xlink:href="#DejaVuSans-74" transform="translate(756.152344 0)"/>
     <use xlink:href="#DejaVuSans-72" transform="translate(795.361328 0)"/>
     <use xlink:href="#DejaVuSans-61" transform="translate(836.474609 0)"/>
     <use xlink:href="#DejaVuSans-69" transform="translate(897.753906 0)"/>
     <use xlink:href="#DejaVuSans-6e" transform="translate(925.537109 0)"/>
     <use xlink:href="#DejaVuSans-74" transform="translate(988.916016 0)"/>
     <use xlink:href="#DejaVuSans-20" transform="translate(1028.125 0)"/>
     <use xlink:href="#DejaVuSans-76" transform="translate(1059.912109 0)"/>
     <use xlink:href="#DejaVuSans-69" transform="translate(1119.091797 0)"/>
     <use xlink:href="#DejaVuSans-6f" transform="translate(1146.875 0)"/>
     <use xlink:href="#DejaVuSans-6c" transform="translate(1208.056641 0)"/>
     <use xlink:href="#DejaVuSans-61" transform="translate(1235.839844 0)"/>
     <use xlink:href="#DejaVuSans-74" transform="translate(1297.119141 0)"/>
     <use xlink:href="#DejaVuSans-69" transform="translate(1336.328125 0)"/>
     <use xlink:href="#DejaVuSans-6f" transform="translate(1364.111328 0)"/>
     <use xlink:href="#DejaVuSans-6e" transform="translate(1425.292969 0)"/>
    </g>
   </g>
   <g id="legend_2">
    <g id="line2d_73">
     <path d="M 538.974375 36.93625 
L 548.974375 36.93625 
L 558.974375 36.93625 
" style="fill: none; stroke: #2563eb; stroke-width: 2.1; stroke-linecap: square"/>
     <g>
      <use xlink:href="#m928d3eb5ee" x="548.974375" y="36.93625" style="fill: #2563eb; stroke: #2563eb"/>
     </g>
    </g>
    <g id="text_43">
     <!-- trust-constr -->
     <g transform="translate(566.974375 40.43625) scale(0.1 -0.1)">
      <use xlink:href="#DejaVuSans-74"/>
      <use xlink:href="#DejaVuSans-72" transform="translate(39.208984 0)"/>
      <use xlink:href="#DejaVuSans-75" transform="translate(80.322266 0)"/>
      <use xlink:href="#DejaVuSans-73" transform="translate(143.701172 0)"/>
      <use xlink:href="#DejaVuSans-74" transform="translate(195.800781 0)"/>
      <use xlink:href="#DejaVuSans-2d" transform="translate(235.009766 0)"/>
      <use xlink:href="#DejaVuSans-63" transform="translate(271.09375 0)"/>
      <use xlink:href="#DejaVuSans-6f" transform="translate(326.074219 0)"/>
      <use xlink:href="#DejaVuSans-6e" transform="translate(387.255859 0)"/>
      <use xlink:href="#DejaVuSans-73" transform="translate(450.634766 0)"/>
      <use xlink:href="#DejaVuSans-74" transform="translate(502.734375 0)"/>
      <use xlink:href="#DejaVuSans-72" transform="translate(541.943359 0)"/>
     </g>
    </g>
    <g id="line2d_74">
     <path d="M 538.974375 51.614375 
L 548.974375 51.614375 
L 558.974375 51.614375 
" style="fill: none; stroke: #dc2626; stroke-width: 2.1; stroke-linecap: square"/>
     <g>
      <use xlink:href="#m14fbb13597" x="548.974375" y="51.614375" style="fill: #dc2626; stroke: #dc2626"/>
     </g>
    </g>
    <g id="text_44">
     <!-- SLSQP -->
     <g transform="translate(566.974375 55.114375) scale(0.1 -0.1)">
      <use xlink:href="#DejaVuSans-53"/>
      <use xlink:href="#DejaVuSans-4c" transform="translate(63.476562 0)"/>
      <use xlink:href="#DejaVuSans-53" transform="translate(119.189453 0)"/>
      <use xlink:href="#DejaVuSans-51" transform="translate(182.666016 0)"/>
      <use xlink:href="#DejaVuSans-50" transform="translate(261.376953 0)"/>
     </g>
    </g>
   </g>
  </g>
 </g>
 <defs>
  <clipPath id="p167580c58c">
   <rect x="53.955938" y="23.837812" width="263.781818" height="257.796"/>
  </clipPath>
  <clipPath id="p0e68028e27">
   <rect x="370.494119" y="23.837812" width="263.781818" height="257.796"/>
  </clipPath>
 </defs>
</svg>
