<?xml version="1.0" encoding="utf-8" standalone="no"?>
<!DOCTYPE svg PUBLIC "-//W3C//DTD SVG 1.1//EN"
  "http://www.w3.org/Graphics/SVG/1.1/DTD/svg11.dtd">
<svg xmlns:xlink="http://www.w3.org/1999/xlink" width="554.02pt" height="333.050062pt" viewBox="0 0 554.02 333.050062" xmlns="http://www.w3.org/2000/svg" version="1.1">
 <metadata>
  <rdf:RDF xmlns:dc="http://purl.org/dc/elements/1.1/" xmlns:cc="http://creativecommons.org/ns#" xmlns:rdf="http://www.w3.org/1999/02/22-rdf-syntax-ns#">
   <cc:Work>
    <dc:type rdf:resource="http://purl.org/dc/dcmitype/StillImage"/>
    <dc:date>2026-06-10T16:02:21.222691</dc:date>
    <dc:format>image/svg+xml</dc:format>
    <dc:creator>
     <cc:Agent>
      <dc:title>Matplotlib v3.10.8, https://matplotlib.org/</dc:title>
     </cc:Agent>
    </dc:creator>
   </cc:Work>
  </rdf:RDF>
 </metadata>
 <defs>
  <style type="text/css">*{stroke-linejoin: round; stroke-linecap: butt}</style>
 </defs>
 <g id="figure_1">
  <g id="patch_1">
   <path d="M 0 333.050062 
L 554.02 333.050062 
L 554.02 0 
L 0 0 
z
" style="fill: #ffffff"/>
  </g>
  <g id="axes_1">
   <g id="patch_2">
    <path d="M 66.94 295.493812 
L 546.82 295.493812 
L 546.82 23.837812 
L 66.94 23.837812 
z
" style="fill: #ffffff"/>
   </g>
   <g id="patch_3">
    <path d="M 66.94 36.185812 
L 128.088913 36.185812 
L 128.088913 65.23993 
L 66.94 65.23993 
z
" clip-path="url(#p8cfeb8a0d8)" style="fill: #f59e0b; opacity: 0.88"/>
   </g>
   <g id="patch_4">
    <path d="M 66.94 72.50346 
L 231.208029 72.50346 
L 231.208029 101.557577 
L 66.94 101.557577 
z
" clip-path="url(#p8cfeb8a0d8)" style="fill: #64748b; opacity: 0.88"/>
   </g>
   <g id="patch_5">
    <path d="M 66.94 108.821107 
L 316.181196 108.821107 
L 316.181196 137.875224 
L 66.94 137.875224 
z
" clip-path="url(#p8cfeb8a0d8)" style="fill: #64748b; opacity: 0.88"/>
   </g>
   <g id="patch_6">
    <path d="M 66.94 145.138754 
L 170.575497 145.138754 
L 170.575497 174.192871 
L 66.94 174.192871 
z
" clip-path="url(#p8cfeb8a0d8)" style="fill: #16a34a; opacity: 0.88"/>
   </g>
   <g id="patch_7">
    <path d="M 66.94 181.456401 
L 213.06208 181.456401 
L 213.06208 210.510518 
L 66.94 210.510518 
z
" clip-path="url(#p8cfeb8a0d8)" style="fill: #16a34a; opacity: 0.88"/>
   </g>
   <g id="patch_8">
    <path d="M 66.94 217.774048 
L 234.305372 217.774048 
L 234.305372 246.828165 
L 66.94 246.828165 
z
" clip-path="url(#p8cfeb8a0d8)" style="fill: #16a34a; opacity: 0.88"/>
   </g>
   <g id="patch_9">
    <path d="M 66.94 254.091695 
L 523.968571 254.091695 
L 523.968571 283.145812 
L 66.94 283.145812 
z
" clip-path="url(#p8cfeb8a0d8)" style="fill: #16a34a; opacity: 0.88"/>
   </g>
   <g id="matplotlib.axis_1">
    <g id="xtick_1">
     <g id="line2d_1">
      <path d="M 66.94 295.493812 
L 66.94 23.837812 
" clip-path="url(#p8cfeb8a0d8)" style="fill: none; stroke-dasharray: 0.7,1.155; stroke-dashoffset: 0; stroke: #cbd5e1; stroke-width: 0.7"/>
     </g>
     <g id="line2d_2">
      <defs>
       <path id="m67af2f0ee4" d="M 0 0 
L 0 3.5 
" style="stroke: #000000; stroke-width: 0.8"/>
      </defs>
      <g>
       <use xlink:href="#m67af2f0ee4" x="66.94" y="295.493812" style="stroke: #000000; stroke-width: 0.8"/>
      </g>
     </g>
     <g id="text_1">
      <!-- 0.00 -->
      <g transform="translate(56.920469 309.332406) scale(0.09 -0.09)">
       <defs>
        <path id="DejaVuSans-30" d="M 2034 4250 
Q 1547 4250 1301 3770 
Q 1056 3291 1056 2328 
Q 1056 1369 1301 889 
Q 1547 409 2034 409 
Q 2525 409 2770 889 
Q 3016 1369 3016 2328 
Q 3016 3291 2770 3770 
Q 2525 4250 2034 4250 
z
M 2034 4750 
Q 2819 4750 3233 4129 
Q 3647 3509 3647 2328 
Q 3647 1150 3233 529 
Q 2819 -91 2034 -91 
Q 1250 -91 836 529 
Q 422 1150 422 2328 
Q 422 3509 836 4129 
Q 1250 4750 2034 4750 
z
" transform="scale(0.015625)"/>
        <path id="DejaVuSans-2e" d="M 684 794 
L 1344 794 
L 1344 0 
L 684 0 
L 684 794 
z
" transform="scale(0.015625)"/>
       </defs>
       <use xlink:href="#DejaVuSans-30"/>
       <use xlink:href="#DejaVuSans-2e" transform="translate(63.623047 0)"/>
       <use xlink:href="#DejaVuSans-30" transform="translate(95.410156 0)"/>
       <use xlink:href="#DejaVuSans-30" transform="translate(159.033203 0)"/>
      </g>
     </g>
    </g>
    <g id="xtick_2">
     <g id="line2d_3">
      <path d="M 129.379394 295.493812 
L 129.379394 23.837812 
" clip-path="url(#p8cfeb8a0d8)" style="fill: none; stroke-dasharray: 0.7,1.155; stroke-dashoffset: 0; stroke: #cbd5e1; stroke-width: 0.7"/>
     </g>
     <g id="line2d_4">
      <g>
       <use xlink:href="#m67af2f0ee4" x="129.379394" y="295.493812" style="stroke: #000000; stroke-width: 0.8"/>
      </g>
     </g>
     <g id="text_2">
      <!-- 0.25 -->
      <g transform="translate(119.359863 309.332406) scale(0.09 -0.09)">
       <defs>
        <path id="DejaVuSans-32" d="M 1228 531 
L 3431 531 
L 3431 0 
L 469 0 
L 469 531 
Q 828 903 1448 1529 
Q 2069 2156 2228 2338 
Q 2531 2678 2651 2914 
Q 2772 3150 2772 3378 
Q 2772 3750 2511 3984 
Q 2250 4219 1831 4219 
Q 1534 4219 1204 4116 
Q 875 4013 500 3803 
L 500 4441 
Q 881 4594 1212 4672 
Q 1544 4750 1819 4750 
Q 2544 4750 2975 4387 
Q 3406 4025 3406 3419 
Q 3406 3131 3298 2873 
Q 3191 2616 2906 2266 
Q 2828 2175 2409 1742 
Q 1991 1309 1228 531 
z
" transform="scale(0.015625)"/>
        <path id="DejaVuSans-35" d="M 691 4666 
L 3169 4666 
L 3169 4134 
L 1269 4134 
L 1269 2991 
Q 1406 3038 1543 3061 
Q 1681 3084 1819 3084 
Q 2600 3084 3056 2656 
Q 3513 2228 3513 1497 
Q 3513 744 3044 326 
Q 2575 -91 1722 -91 
Q 1428 -91 1123 -41 
Q 819 9 494 109 
L 494 744 
Q 775 591 1075 516 
Q 1375 441 1709 441 
Q 2250 441 2565 725 
Q 2881 1009 2881 1497 
Q 2881 1984 2565 2268 
Q 2250 2553 1709 2553 
Q 1456 2553 1204 2497 
Q 953 2441 691 2322 
L 691 4666 
z
" transform="scale(0.015625)"/>
       </defs>
       <use xlink:href="#DejaVuSans-30"/>
       <use xlink:href="#DejaVuSans-2e" transform="translate(63.623047 0)"/>
       <use xlink:href="#DejaVuSans-32" transform="translate(95.410156 0)"/>
       <use xlink:href="#DejaVuSans-35" transform="translate(159.033203 0)"/>
      </g>
     </g>
    </g>
    <g id="xtick_3">
     <g id="line2d_5">
      <path d="M 191.818789 295.493812 
L 191.818789 23.837812 
" clip-path="url(#p8cfeb8a0d8)" style="fill: none; stroke-dasharray: 0.7,1.155; stroke-dashoffset: 0; stroke: #cbd5e1; stroke-width: 0.7"/>
     </g>
     <g id="line2d_6">
      <g>
       <use xlink:href="#m67af2f0ee4" x="191.818789" y="295.493812" style="stroke: #000000; stroke-width: 0.8"/>
      </g>
     </g>
     <g id="text_3">
      <!-- 0.50 -->
      <g transform="translate(181.799257 309.332406) scale(0.09 -0.09)">
       <use xlink:href="#DejaVuSans-30"/>
       <use xlink:href="#DejaVuSans-2e" transform="translate(63.623047 0)"/>
       <use xlink:href="#DejaVuSans-35" transform="translate(95.410156 0)"/>
       <use xlink:href="#DejaVuSans-30" transform="translate(159.033203 0)"/>
      </g>
     </g>
    </g>
    <g id="xtick_4">
     <g id="line2d_7">
      <path d="M 254.258183 295.493812 
L 254.258183 23.837812 
" clip-path="url(#p8cfeb8a0d8)" style="fill: none; stroke-dasharray: 0.7,1.155; stroke-dashoffset: 0; stroke: #cbd5e1; stroke-width: 0.7"/>
     </g>
     <g id="line2d_8">
      <g>
       <use xlink:href="#m67af2f0ee4" x="254.258183" y="295.493812" style="stroke: #000000; stroke-width: 0.8"/>
      </g>
     </g>
     <g id="text_4">
      <!-- 0.75 -->
      <g transform="translate(244.238652 309.332406) scale(0.09 -0.09)">
       <defs>
        <path id="DejaVuSans-37" d="M 525 4666 
L 3525 4666 
L 3525 4397 
L 1831 0 
L 1172 0 
L 2766 4134 
L 525 4134 
L 525 4666 
z
" transform="scale(0.015625)"/>
       </defs>
       <use xlink:href="#DejaVuSans-30"/>
       <use xlink:href="#DejaVuSans-2e" transform="translate(63.623047 0)"/>
       <use xlink:href="#DejaVuSans-37" transform="translate(95.410156 0)"/>
       <use xlink:href="#DejaVuSans-35" transform="translate(159.033203 0)"/>
      </g>
     </g>
    </g>
    <g id="xtick_5">
     <g id="line2d_9">
      <path d="M 316.697577 295.493812 
L 316.697577 23.837812 
" clip-path="url(#p8cfeb8a0d8)" style="fill: none; stroke-dasharray: 0.7,1.155; stroke-dashoffset: 0; stroke: #cbd5e1; stroke-width: 0.7"/>
     </g>
     <g id="line2d_10">
      <g>
       <use xlink:href="#m67af2f0ee4" x="316.697577" y="295.493812" style="stroke: #000000; stroke-width: 0.8"/>
      </g>
     </g>
     <g id="text_5">
      <!-- 1.00 -->
      <g transform="translate(306.678046 309.332406) scale(0.09 -0.09)">
       <defs>
        <path id="DejaVuSans-31" d="M 794 531 
L 1825 531 
L 1825 4091 
L 703 3866 
L 703 4441 
L 1819 4666 
L 2450 4666 
L 2450 531 
L 3481 531 
L 3481 0 
L 794 0 
L 794 531 
z
" transform="scale(0.015625)"/>
       </defs>
       <use xlink:href="#DejaVuSans-31"/>
       <use xlink:href="#DejaVuSans-2e" transform="translate(63.623047 0)"/>
       <use xlink:href="#DejaVuSans-30" transform="translate(95.410156 0)"/>
       <use xlink:href="#DejaVuSans-30" transform="translate(159.033203 0)"/>
      </g>
     </g>
    </g>
    <g id="xtick_6">
     <g id="line2d_11">
      <path d="M 379.136972 295.493812 
L 379.136972 23.837812 
" clip-path="url(#p8cfeb8a0d8)" style="fill: none; stroke-dasharray: 0.7,1.155; stroke-dashoffset: 0; stroke: #cbd5e1; stroke-width: 0.7"/>
     </g>
     <g id="line2d_12">
      <g>
       <use xlink:href="#m67af2f0ee4" x="379.136972" y="295.493812" style="stroke: #000000; stroke-width: 0.8"/>
      </g>
     </g>
     <g id="text_6">
      <!-- 1.25 -->
      <g transform="translate(369.117441 309.332406) scale(0.09 -0.09)">
       <use xlink:href="#DejaVuSans-31"/>
       <use xlink:href="#DejaVuSans-2e" transform="translate(63.623047 0)"/>
       <use xlink:href="#DejaVuSans-32" transform="translate(95.410156 0)"/>
       <use xlink:href="#DejaVuSans-35" transform="translate(159.033203 0)"/>
      </g>
     </g>
    </g>
    <g id="xtick_7">
     <g id="line2d_13">
      <path d="M 441.576366 295.493812 
L 441.576366 23.837812 
" clip-path="url(#p8cfeb8a0d8)" style="fill: none; stroke-dasharray: 0.7,1.155; stroke-dashoffset: 0; stroke: #cbd5e1; stroke-width: 0.7"/>
     </g>
     <g id="line2d_14">
      <g>
       <use xlink:href="#m67af2f0ee4" x="441.576366" y="295.493812" style="stroke: #000000; stroke-width: 0.8"/>
      </g>
     </g>
     <g id="text_7">
      <!-- 1.50 -->
      <g transform="translate(431.556835 309.332406) scale(0.09 -0.09)">
       <use xlink:href="#DejaVuSans-31"/>
       <use xlink:href="#DejaVuSans-2e" transform="translate(63.623047 0)"/>
       <use xlink:href="#DejaVuSans-35" transform="translate(95.410156 0)"/>
       <use xlink:href="#DejaVuSans-30" transform="translate(159.033203 0)"/>
      </g>
     </g>
    </g>
    <g id="xtick_8">
     <g id="line2d_15">
      <path d="M 504.015761 295.493812 
L 504.015761 23.837812 
" clip-path="url(#p8cfeb8a0d8)" style="fill: none; stroke-dasharray: 0.7,1.155; stroke-dashoffset: 0; stroke: #cbd5e1; stroke-width: 0.7"/>
     </g>
     <g id="line2d_16">
      <g>
       <use xlink:href="#m67af2f0ee4" x="504.015761" y="295.493812" style="stroke: #000000; stroke-width: 0.8"/>
      </g>
     </g>
     <g id="text_8">
      <!-- 1.75 -->
      <g transform="translate(493.996229 309.332406) scale(0.09 -0.09)">
       <use xlink:href="#DejaVuSans-31"/>
       <use xlink:href="#DejaVuSans-2e" transform="translate(63.623047 0)"/>
       <use xlink:href="#DejaVuSans-37" transform="translate(95.410156 0)"/>
       <use xlink:href="#DejaVuSans-35" transform="translate(159.033203 0)"/>
      </g>
     </g>
    </g>
    <g id="text_9">
     <!-- slack at the trust-constr solution -->
     <g transform="translate(217.517891 323.562406) scale(0.11 -0.11)">
      <defs>
       <path id="DejaVuSans-73" d="M 2834 3397 
L 2834 2853 
Q 2591 2978 2328 3040 
Q 2066 3103 1784 3103 
Q 1356 3103 1142 2972 
Q 928 2841 928 2578 
Q 928 2378 1081 2264 
Q 1234 2150 1697 2047 
L 1894 2003 
Q 2506 1872 2764 1633 
Q 3022 1394 3022 966 
Q 3022 478 2636 193 
Q 2250 -91 1575 -91 
Q 1294 -91 989 -36 
Q 684 19 347 128 
L 347 722 
Q 666 556 975 473 
Q 1284 391 1588 391 
Q 1994 391 2212 530 
Q 2431 669 2431 922 
Q 2431 1156 2273 1281 
Q 2116 1406 1581 1522 
L 1381 1569 
Q 847 1681 609 1914 
Q 372 2147 372 2553 
Q 372 3047 722 3315 
Q 1072 3584 1716 3584 
Q 2034 3584 2315 3537 
Q 2597 3491 2834 3397 
z
" transform="scale(0.015625)"/>
       <path id="DejaVuSans-6c" d="M 603 4863 
L 1178 4863 
L 1178 0 
L 603 0 
L 603 4863 
z
" transform="scale(0.015625)"/>
       <path id="DejaVuSans-61" d="M 2194 1759 
Q 1497 1759 1228 1600 
Q 959 1441 959 1056 
Q 959 750 1161 570 
Q 1363 391 1709 391 
Q 2188 391 2477 730 
Q 2766 1069 2766 1631 
L 2766 1759 
L 2194 1759 
z
M 3341 1997 
L 3341 0 
L 2766 0 
L 2766 531 
Q 2569 213 2275 61 
Q 1981 -91 1556 -91 
Q 1019 -91 701 211 
Q 384 513 384 1019 
Q 384 1609 779 1909 
Q 1175 2209 1959 2209 
L 2766 2209 
L 2766 2266 
Q 2766 2663 2505 2880 
Q 2244 3097 1772 3097 
Q 1472 3097 1187 3025 
Q 903 2953 641 2809 
L 641 3341 
Q 956 3463 1253 3523 
Q 1550 3584 1831 3584 
Q 2591 3584 2966 3190 
Q 3341 2797 3341 1997 
z
" transform="scale(0.015625)"/>
       <path id="DejaVuSans-63" d="M 3122 3366 
L 3122 2828 
Q 2878 2963 2633 3030 
Q 2388 3097 2138 3097 
Q 1578 3097 1268 2742 
Q 959 2388 959 1747 
Q 959 1106 1268 751 
Q 1578 397 2138 397 
Q 2388 397 2633 464 
Q 2878 531 3122 666 
L 3122 134 
Q 2881 22 2623 -34 
Q 2366 -91 2075 -91 
Q 1284 -91 818 406 
Q 353 903 353 1747 
Q 353 2603 823 3093 
Q 1294 3584 2113 3584 
Q 2378 3584 2631 3529 
Q 2884 3475 3122 3366 
z
" transform="scale(0.015625)"/>
       <path id="DejaVuSans-6b" d="M 581 4863 
L 1159 4863 
L 1159 1991 
L 2875 3500 
L 3609 3500 
L 1753 1863 
L 3688 0 
L 2938 0 
L 1159 1709 
L 1159 0 
L 581 0 
L 581 4863 
z
" transform="scale(0.015625)"/>
       <path id="DejaVuSans-20" transform="scale(0.015625)"/>
       <path id="DejaVuSans-74" d="M 1172 4494 
L 1172 3500 
L 2356 3500 
L 2356 3053 
L 1172 3053 
L 1172 1153 
Q 1172 725 1289 603 
Q 1406 481 1766 481 
L 2356 481 
L 2356 0 
L 1766 0 
Q 1100 0 847 248 
Q 594 497 594 1153 
L 594 3053 
L 172 3053 
L 172 3500 
L 594 3500 
L 594 4494 
L 1172 4494 
z
" transform="scale(0.015625)"/>
       <path id="DejaVuSans-68" d="M 3513 2113 
L 3513 0 
L 2938 0 
L 2938 2094 
Q 2938 2591 2744 2837 
Q 2550 3084 2163 3084 
Q 1697 3084 1428 2787 
Q 1159 2491 1159 1978 
L 1159 0 
L 581 0 
L 581 4863 
L 1159 4863 
L 1159 2956 
Q 1366 3272 1645 3428 
Q 1925 3584 2291 3584 
Q 2894 3584 3203 3211 
Q 3513 2838 3513 2113 
z
" transform="scale(0.015625)"/>
       <path id="DejaVuSans-65" d="M 3597 1894 
L 3597 1613 
L 953 1613 
Q 991 1019 1311 708 
Q 1631 397 2203 397 
Q 2534 397 2845 478 
Q 3156 559 3463 722 
L 3463 178 
Q 3153 47 2828 -22 
Q 2503 -91 2169 -91 
Q 1331 -91 842 396 
Q 353 884 353 1716 
Q 353 2575 817 3079 
Q 1281 3584 2069 3584 
Q 2775 3584 3186 3129 
Q 3597 2675 3597 1894 
z
M 3022 2063 
Q 3016 2534 2758 2815 
Q 2500 3097 2075 3097 
Q 1594 3097 1305 2825 
Q 1016 2553 972 2059 
L 3022 2063 
z
" transform="scale(0.015625)"/>
       <path id="DejaVuSans-72" d="M 2631 2963 
Q 2534 3019 2420 3045 
Q 2306 3072 2169 3072 
Q 1681 3072 1420 2755 
Q 1159 2438 1159 1844 
L 1159 0 
L 581 0 
L 581 3500 
L 1159 3500 
L 1159 2956 
Q 1341 3275 1631 3429 
Q 1922 3584 2338 3584 
Q 2397 3584 2469 3576 
Q 2541 3569 2628 3553 
L 2631 2963 
z
" transform="scale(0.015625)"/>
       <path id="DejaVuSans-75" d="M 544 1381 
L 544 3500 
L 1119 3500 
L 1119 1403 
Q 1119 906 1312 657 
Q 1506 409 1894 409 
Q 2359 409 2629 706 
Q 2900 1003 2900 1516 
L 2900 3500 
L 3475 3500 
L 3475 0 
L 2900 0 
L 2900 538 
Q 2691 219 2414 64 
Q 2138 -91 1772 -91 
Q 1169 -91 856 284 
Q 544 659 544 1381 
z
M 1991 3584 
L 1991 3584 
z
" transform="scale(0.015625)"/>
       <path id="DejaVuSans-2d" d="M 313 2009 
L 1997 2009 
L 1997 1497 
L 313 1497 
L 313 2009 
z
" transform="scale(0.015625)"/>
       <path id="DejaVuSans-6f" d="M 1959 3097 
Q 1497 3097 1228 2736 
Q 959 2375 959 1747 
Q 959 1119 1226 758 
Q 1494 397 1959 397 
Q 2419 397 2687 759 
Q 2956 1122 2956 1747 
Q 2956 2369 2687 2733 
Q 2419 3097 1959 3097 
z
M 1959 3584 
Q 2709 3584 3137 3096 
Q 3566 2609 3566 1747 
Q 3566 888 3137 398 
Q 2709 -91 1959 -91 
Q 1206 -91 779 398 
Q 353 888 353 1747 
Q 353 2609 779 3096 
Q 1206 3584 1959 3584 
z
" transform="scale(0.015625)"/>
       <path id="DejaVuSans-6e" d="M 3513 2113 
L 3513 0 
L 2938 0 
L 2938 2094 
Q 2938 2591 2744 2837 
Q 2550 3084 2163 3084 
Q 1697 3084 1428 2787 
Q 1159 2491 1159 1978 
L 1159 0 
L 581 0 
L 581 3500 
L 1159 3500 
L 1159 2956 
Q 1366 3272 1645 3428 
Q 1925 3584 2291 3584 
Q 2894 3584 3203 3211 
Q 3513 2838 3513 2113 
z
" transform="scale(0.015625)"/>
       <path id="DejaVuSans-69" d="M 603 3500 
L 1178 3500 
L 1178 0 
L 603 0 
L 603 3500 
z
M 603 4863 
L 1178 4863 
L 1178 4134 
L 603 4134 
L 603 4863 
z
" transform="scale(0.015625)"/>
      </defs>
      <use xlink:href="#DejaVuSans-73"/>
      <use xlink:href="#DejaVuSans-6c" transform="translate(52.099609 0)"/>
      <use xlink:href="#DejaVuSans-61" transform="translate(79.882812 0)"/>
      <use xlink:href="#DejaVuSans-63" transform="translate(141.162109 0)"/>
      <use xlink:href="#DejaVuSans-6b" transform="translate(196.142578 0)"/>
      <use xlink:href="#DejaVuSans-20" transform="translate(254.052734 0)"/>
      <use xlink:href="#DejaVuSans-61" transform="translate(285.839844 0)"/>
      <use xlink:href="#DejaVuSans-74" transform="translate(347.119141 0)"/>
      <use xlink:href="#DejaVuSans-20" transform="translate(386.328125 0)"/>
      <use xlink:href="#DejaVuSans-74" transform="translate(418.115234 0)"/>
      <use xlink:href="#DejaVuSans-68" transform="translate(457.324219 0)"/>
      <use xlink:href="#DejaVuSans-65" transform="translate(520.703125 0)"/>
      <use xlink:href="#DejaVuSans-20" transform="translate(582.226562 0)"/>
      <use xlink:href="#DejaVuSans-74" transform="translate(614.013672 0)"/>
      <use xlink:href="#DejaVuSans-72" transform="translate(653.222656 0)"/>
      <use xlink:href="#DejaVuSans-75" transform="translate(694.335938 0)"/>
      <use xlink:href="#DejaVuSans-73" transform="translate(757.714844 0)"/>
      <use xlink:href="#DejaVuSans-74" transform="translate(809.814453 0)"/>
      <use xlink:href="#DejaVuSans-2d" transform="translate(849.023438 0)"/>
      <use xlink:href="#DejaVuSans-63" transform="translate(885.107422 0)"/>
      <use xlink:href="#DejaVuSans-6f" transform="translate(940.087891 0)"/>
      <use xlink:href="#DejaVuSans-6e" transform="translate(1001.269531 0)"/>
      <use xlink:href="#DejaVuSans-73" transform="translate(1064.648438 0)"/>
      <use xlink:href="#DejaVuSans-74" transform="translate(1116.748047 0)"/>
      <use xlink:href="#DejaVuSans-72" transform="translate(1155.957031 0)"/>
      <use xlink:href="#DejaVuSans-20" transform="translate(1197.070312 0)"/>
      <use xlink:href="#DejaVuSans-73" transform="translate(1228.857422 0)"/>
      <use xlink:href="#DejaVuSans-6f" transform="translate(1280.957031 0)"/>
      <use xlink:href="#DejaVuSans-6c" transform="translate(1342.138672 0)"/>
      <use xlink:href="#DejaVuSans-75" transform="translate(1369.921875 0)"/>
      <use xlink:href="#DejaVuSans-74" transform="translate(1433.300781 0)"/>
      <use xlink:href="#DejaVuSans-69" transform="translate(1472.509766 0)"/>
      <use xlink:href="#DejaVuSans-6f" transform="translate(1500.292969 0)"/>
      <use xlink:href="#DejaVuSans-6e" transform="translate(1561.474609 0)"/>
     </g>
    </g>
   </g>
   <g id="matplotlib.axis_2">
    <g id="ytick_1">
     <g id="line2d_17">
      <defs>
       <path id="m868d3529ed" d="M 0 0 
L -3.5 0 
" style="stroke: #000000; stroke-width: 0.8"/>
      </defs>
      <g>
       <use xlink:href="#m868d3529ed" x="66.94" y="50.712871" style="stroke: #000000; stroke-width: 0.8"/>
      </g>
     </g>
     <g id="text_10">
      <!-- $1-x_0-2x_1$ -->
      <g transform="translate(7.2 54.132168) scale(0.09 -0.09)">
       <defs>
        <path id="DejaVuSans-2212" d="M 678 2272 
L 4684 2272 
L 4684 1741 
L 678 1741 
L 678 2272 
z
" transform="scale(0.015625)"/>
        <path id="DejaVuSans-Oblique-78" d="M 3841 3500 
L 2234 1784 
L 3219 0 
L 2559 0 
L 1819 1388 
L 531 0 
L -166 0 
L 1556 1844 
L 641 3500 
L 1300 3500 
L 1972 2234 
L 3144 3500 
L 3841 3500 
z
" transform="scale(0.015625)"/>
       </defs>
       <use xlink:href="#DejaVuSans-31" transform="translate(0 0.78125)"/>
       <use xlink:href="#DejaVuSans-2212" transform="translate(83.105469 0.78125)"/>
       <use xlink:href="#DejaVuSans-Oblique-78" transform="translate(186.376953 0.78125)"/>
       <use xlink:href="#DejaVuSans-30" transform="translate(245.556641 -15.625) scale(0.7)"/>
       <use xlink:href="#DejaVuSans-2212" transform="translate(312.30957 0.78125)"/>
       <use xlink:href="#DejaVuSans-32" transform="translate(415.581055 0.78125)"/>
       <use xlink:href="#DejaVuSans-Oblique-78" transform="translate(479.204102 0.78125)"/>
       <use xlink:href="#DejaVuSans-31" transform="translate(538.383789 -15.625) scale(0.7)"/>
      </g>
     </g>
    </g>
    <g id="ytick_2">
     <g id="line2d_18">
      <g>
       <use xlink:href="#m868d3529ed" x="66.94" y="87.030518" style="stroke: #000000; stroke-width: 0.8"/>
      </g>
     </g>
     <g id="text_11">
      <!-- $1-x_0^2-x_1$ -->
      <g transform="translate(12.51 91.125518) scale(0.09 -0.09)">
       <use xlink:href="#DejaVuSans-31" transform="translate(0 0.765625)"/>
       <use xlink:href="#DejaVuSans-2212" transform="translate(83.105469 0.765625)"/>
       <use xlink:href="#DejaVuSans-Oblique-78" transform="translate(186.376953 0.765625)"/>
       <use xlink:href="#DejaVuSans-32" transform="translate(250.022786 39.046875) scale(0.7)"/>
       <use xlink:href="#DejaVuSans-30" transform="translate(245.556641 -26.578125) scale(0.7)"/>
       <use xlink:href="#DejaVuSans-2212" transform="translate(316.775716 0.765625)"/>
       <use xlink:href="#DejaVuSans-Oblique-78" transform="translate(420.047201 0.765625)"/>
       <use xlink:href="#DejaVuSans-31" transform="translate(479.226888 -15.640625) scale(0.7)"/>
      </g>
     </g>
    </g>
    <g id="ytick_3">
     <g id="line2d_19">
      <g>
       <use xlink:href="#m868d3529ed" x="66.94" y="123.348165" style="stroke: #000000; stroke-width: 0.8"/>
      </g>
     </g>
     <g id="text_12">
      <!-- $1-x_0^2+x_1$ -->
      <g transform="translate(12.51 127.443165) scale(0.09 -0.09)">
       <defs>
        <path id="DejaVuSans-2b" d="M 2944 4013 
L 2944 2272 
L 4684 2272 
L 4684 1741 
L 2944 1741 
L 2944 0 
L 2419 0 
L 2419 1741 
L 678 1741 
L 678 2272 
L 2419 2272 
L 2419 4013 
L 2944 4013 
z
" transform="scale(0.015625)"/>
       </defs>
       <use xlink:href="#DejaVuSans-31" transform="translate(0 0.765625)"/>
       <use xlink:href="#DejaVuSans-2212" transform="translate(83.105469 0.765625)"/>
       <use xlink:href="#DejaVuSans-Oblique-78" transform="translate(186.376953 0.765625)"/>
       <use xlink:href="#DejaVuSans-32" transform="translate(250.022786 39.046875) scale(0.7)"/>
       <use xlink:href="#DejaVuSans-30" transform="translate(245.556641 -26.578125) scale(0.7)"/>
       <use xlink:href="#DejaVuSans-2b" transform="translate(316.775716 0.765625)"/>
       <use xlink:href="#DejaVuSans-Oblique-78" transform="translate(420.047201 0.765625)"/>
       <use xlink:href="#DejaVuSans-31" transform="translate(479.226888 -15.640625) scale(0.7)"/>
      </g>
     </g>
    </g>
    <g id="ytick_4">
     <g id="line2d_20">
      <g>
       <use xlink:href="#m868d3529ed" x="66.94" y="159.665812" style="stroke: #000000; stroke-width: 0.8"/>
      </g>
     </g>
     <g id="text_13">
      <!-- $x_0-\ell_0$ -->
      <g transform="translate(31.32 163.085109) scale(0.09 -0.09)">
       <defs>
        <path id="DejaVuSans-Oblique-2113" d="M 950 838 
Q 1078 213 1350 213 
Q 1531 213 1766 572 
L 2181 572 
Q 1994 253 1775 88 
Q 1538 -91 1319 -91 
Q 831 -91 634 344 
L 400 0 
L -88 0 
Q 250 459 500 888 
Q 469 1131 469 1397 
Q 469 1872 566 2347 
Q 931 4131 1256 4497 
Q 1481 4750 1866 4750 
Q 2256 4750 2256 4209 
Q 2253 3966 2197 3675 
Q 1972 2484 950 838 
z
M 947 1656 
Q 1531 2744 1709 3613 
Q 1803 4072 1803 4191 
Q 1803 4406 1725 4406 
Q 1384 4134 1081 2516 
Q 997 2063 947 1656 
z
" transform="scale(0.015625)"/>
       </defs>
       <use xlink:href="#DejaVuSans-Oblique-78" transform="translate(0 0.78125)"/>
       <use xlink:href="#DejaVuSans-30" transform="translate(59.179688 -15.625) scale(0.7)"/>
       <use xlink:href="#DejaVuSans-2212" transform="translate(125.932617 0.78125)"/>
       <use xlink:href="#DejaVuSans-Oblique-2113" transform="translate(229.204102 0.78125)"/>
       <use xlink:href="#DejaVuSans-30" transform="translate(270.512695 -15.625) scale(0.7)"/>
      </g>
     </g>
    </g>
    <g id="ytick_5">
     <g id="line2d_21">
      <g>
       <use xlink:href="#m868d3529ed" x="66.94" y="195.98346" style="stroke: #000000; stroke-width: 0.8"/>
      </g>
     </g>
     <g id="text_14">
      <!-- $u_0-x_0$ -->
      <g transform="translate(29.34 199.402756) scale(0.09 -0.09)">
       <defs>
        <path id="DejaVuSans-Oblique-75" d="M 428 1388 
L 838 3500 
L 1416 3500 
L 1006 1409 
Q 975 1256 961 1147 
Q 947 1038 947 966 
Q 947 700 1109 554 
Q 1272 409 1569 409 
Q 2031 409 2368 721 
Q 2706 1034 2809 1563 
L 3194 3500 
L 3769 3500 
L 3091 0 
L 2516 0 
L 2631 550 
Q 2388 244 2052 76 
Q 1716 -91 1338 -91 
Q 878 -91 622 161 
Q 366 413 366 863 
Q 366 956 381 1097 
Q 397 1238 428 1388 
z
" transform="scale(0.015625)"/>
       </defs>
       <use xlink:href="#DejaVuSans-Oblique-75" transform="translate(0 0.3125)"/>
       <use xlink:href="#DejaVuSans-30" transform="translate(63.378906 -16.09375) scale(0.7)"/>
       <use xlink:href="#DejaVuSans-2212" transform="translate(130.131836 0.3125)"/>
       <use xlink:href="#DejaVuSans-Oblique-78" transform="translate(233.40332 0.3125)"/>
       <use xlink:href="#DejaVuSans-30" transform="translate(292.583008 -16.09375) scale(0.7)"/>
      </g>
     </g>
    </g>
    <g id="ytick_6">
     <g id="line2d_22">
      <g>
       <use xlink:href="#m868d3529ed" x="66.94" y="232.301107" style="stroke: #000000; stroke-width: 0.8"/>
      </g>
     </g>
     <g id="text_15">
      <!-- $x_1-\ell_1$ -->
      <g transform="translate(31.32 235.720403) scale(0.09 -0.09)">
       <use xlink:href="#DejaVuSans-Oblique-78" transform="translate(0 0.78125)"/>
       <use xlink:href="#DejaVuSans-31" transform="translate(59.179688 -15.625) scale(0.7)"/>
       <use xlink:href="#DejaVuSans-2212" transform="translate(125.932617 0.78125)"/>
       <use xlink:href="#DejaVuSans-Oblique-2113" transform="translate(229.204102 0.78125)"/>
       <use xlink:href="#DejaVuSans-31" transform="translate(270.512695 -15.625) scale(0.7)"/>
      </g>
     </g>
    </g>
    <g id="ytick_7">
     <g id="line2d_23">
      <g>
       <use xlink:href="#m868d3529ed" x="66.94" y="268.618754" style="stroke: #000000; stroke-width: 0.8"/>
      </g>
     </g>
     <g id="text_16">
      <!-- $u_1-x_1$ -->
      <g transform="translate(29.34 272.038051) scale(0.09 -0.09)">
       <use xlink:href="#DejaVuSans-Oblique-75" transform="translate(0 0.3125)"/>
       <use xlink:href="#DejaVuSans-31" transform="translate(63.378906 -16.09375) scale(0.7)"/>
       <use xlink:href="#DejaVuSans-2212" transform="translate(130.131836 0.3125)"/>
       <use xlink:href="#DejaVuSans-Oblique-78" transform="translate(233.40332 0.3125)"/>
       <use xlink:href="#DejaVuSans-31" transform="translate(292.583008 -16.09375) scale(0.7)"/>
      </g>
     </g>
    </g>
   </g>
   <g id="line2d_24">
    <path d="M 66.94 295.493812 
L 66.94 23.837812 
" clip-path="url(#p8cfeb8a0d8)" style="fill: none; stroke: #111827; stroke-width: 0.8; stroke-linecap: square"/>
   </g>
   <g id="patch_10">
    <path d="M 66.94 295.493812 
L 66.94 23.837812 
" style="fill: none; stroke: #000000; stroke-width: 0.8; stroke-linejoin: miter; stroke-linecap: square"/>
   </g>
   <g id="patch_11">
    <path d="M 66.94 295.493812 
L 546.82 295.493812 
" style="fill: none; stroke: #000000; stroke-width: 0.8; stroke-linejoin: miter; stroke-linecap: square"/>
   </g>
   <g id="text_17">
    <g id="patch_12">
     <path d="M 347.1424 276.354772 
L 537.2224 276.354772 
Q 540.3724 276.354772 540.3724 273.204772 
L 540.3724 264.114773 
Q 540.3724 260.964772 537.2224 260.964772 
L 347.1424 260.964772 
Q 343.9924 260.964772 343.9924 264.114773 
L 343.9924 273.204772 
Q 343.9924 276.354772 347.1424 276.354772 
z
" style="fill: #ffffff; stroke: #cbd5e1; stroke-linejoin: miter"/>
    </g>
    <!-- equality residual $|2x_0+x_1-1|=0.0e+00$ -->
    <g style="fill: #374151" transform="translate(347.1424 271.044772) scale(0.09 -0.09)">
     <defs>
      <path id="DejaVuSans-71" d="M 947 1747 
Q 947 1113 1208 752 
Q 1469 391 1925 391 
Q 2381 391 2643 752 
Q 2906 1113 2906 1747 
Q 2906 2381 2643 2742 
Q 2381 3103 1925 3103 
Q 1469 3103 1208 2742 
Q 947 2381 947 1747 
z
M 2906 525 
Q 2725 213 2448 61 
Q 2172 -91 1784 -91 
Q 1150 -91 751 415 
Q 353 922 353 1747 
Q 353 2572 751 3078 
Q 1150 3584 1784 3584 
Q 2172 3584 2448 3432 
Q 2725 3281 2906 2969 
L 2906 3500 
L 3481 3500 
L 3481 -1331 
L 2906 -1331 
L 2906 525 
z
" transform="scale(0.015625)"/>
      <path id="DejaVuSans-79" d="M 2059 -325 
Q 1816 -950 1584 -1140 
Q 1353 -1331 966 -1331 
L 506 -1331 
L 506 -850 
L 844 -850 
Q 1081 -850 1212 -737 
Q 1344 -625 1503 -206 
L 1606 56 
L 191 3500 
L 800 3500 
L 1894 763 
L 2988 3500 
L 3597 3500 
L 2059 -325 
z
" transform="scale(0.015625)"/>
      <path id="DejaVuSans-64" d="M 2906 2969 
L 2906 4863 
L 3481 4863 
L 3481 0 
L 2906 0 
L 2906 525 
Q 2725 213 2448 61 
Q 2172 -91 1784 -91 
Q 1150 -91 751 415 
Q 353 922 353 1747 
Q 353 2572 751 3078 
Q 1150 3584 1784 3584 
Q 2172 3584 2448 3432 
Q 2725 3281 2906 2969 
z
M 947 1747 
Q 947 1113 1208 752 
Q 1469 391 1925 391 
Q 2381 391 2643 752 
Q 2906 1113 2906 1747 
Q 2906 2381 2643 2742 
Q 2381 3103 1925 3103 
Q 1469 3103 1208 2742 
Q 947 2381 947 1747 
z
" transform="scale(0.015625)"/>
      <path id="DejaVuSans-7c" d="M 1344 4891 
L 1344 -1509 
L 813 -1509 
L 813 4891 
L 1344 4891 
z
" transform="scale(0.015625)"/>
      <path id="DejaVuSans-3d" d="M 678 2906 
L 4684 2906 
L 4684 2381 
L 678 2381 
L 678 2906 
z
M 678 1631 
L 4684 1631 
L 4684 1100 
L 678 1100 
L 678 1631 
z
" transform="scale(0.015625)"/>
      <path id="DejaVuSans-Oblique-65" d="M 3078 2063 
Q 3088 2113 3092 2166 
Q 3097 2219 3097 2272 
Q 3097 2653 2873 2875 
Q 2650 3097 2266 3097 
Q 1838 3097 1509 2826 
Q 1181 2556 1013 2059 
L 3078 2063 
z
M 3578 1613 
L 903 1613 
Q 884 1494 878 1425 
Q 872 1356 872 1306 
Q 872 872 1139 634 
Q 1406 397 1894 397 
Q 2269 397 2603 481 
Q 2938 566 3225 728 
L 3116 159 
Q 2806 34 2476 -28 
Q 2147 -91 1806 -91 
Q 1078 -91 686 257 
Q 294 606 294 1247 
Q 294 1794 489 2264 
Q 684 2734 1063 3103 
Q 1306 3334 1642 3459 
Q 1978 3584 2356 3584 
Q 2950 3584 3301 3228 
Q 3653 2872 3653 2272 
Q 3653 2128 3634 1964 
Q 3616 1800 3578 1613 
z
" transform="scale(0.015625)"/>
     </defs>
     <use xlink:href="#DejaVuSans-65" transform="translate(0 0.578125)"/>
     <use xlink:href="#DejaVuSans-71" transform="translate(61.523438 0.578125)"/>
     <use xlink:href="#DejaVuSans-75" transform="translate(125 0.578125)"/>
     <use xlink:href="#DejaVuSans-61" transform="translate(188.378906 0.578125)"/>
     <use xlink:href="#DejaVuSans-6c" transform="translate(249.658203 0.578125)"/>
     <use xlink:href="#DejaVuSans-69" transform="translate(277.441406 0.578125)"/>
     <use xlink:href="#DejaVuSans-74" transform="translate(305.224609 0.578125)"/>
     <use xlink:href="#DejaVuSans-79" transform="translate(344.433594 0.578125)"/>
     <use xlink:href="#DejaVuSans-20" transform="translate(403.613281 0.578125)"/>
     <use xlink:href="#DejaVuSans-72" transform="translate(435.400391 0.578125)"/>
     <use xlink:href="#DejaVuSans-65" transform="translate(476.513672 0.578125)"/>
     <use xlink:href="#DejaVuSans-73" transform="translate(538.037109 0.578125)"/>
     <use xlink:href="#DejaVuSans-69" transform="translate(590.136719 0.578125)"/>
     <use xlink:href="#DejaVuSans-64" transform="translate(617.919922 0.578125)"/>
     <use xlink:href="#DejaVuSans-75" transform="translate(681.396484 0.578125)"/>
     <use xlink:href="#DejaVuSans-61" transform="translate(744.775391 0.578125)"/>
     <use xlink:href="#DejaVuSans-6c" transform="translate(806.054688 0.578125)"/>
     <use xlink:href="#DejaVuSans-20" transform="translate(833.837891 0.578125)"/>
     <use xlink:href="#DejaVuSans-7c" transform="translate(865.625 0.578125)"/>
     <use xlink:href="#DejaVuSans-32" transform="translate(899.316406 0.578125)"/>
     <use xlink:href="#DejaVuSans-Oblique-78" transform="translate(962.939453 0.578125)"/>
     <use xlink:href="#DejaVuSans-30" transform="translate(1022.119141 -15.828125) scale(0.7)"/>
     <use xlink:href="#DejaVuSans-2b" transform="translate(1088.87207 0.578125)"/>
     <use xlink:href="#DejaVuSans-Oblique-78" transform="translate(1192.143555 0.578125)"/>
     <use xlink:href="#DejaVuSans-31" transform="translate(1251.323242 -15.828125) scale(0.7)"/>
     <use xlink:href="#DejaVuSans-2212" transform="translate(1318.076172 0.578125)"/>
     <use xlink:href="#DejaVuSans-31" transform="translate(1421.347656 0.578125)"/>
     <use xlink:href="#DejaVuSans-7c" transform="translate(1484.970703 0.578125)"/>
     <use xlink:href="#DejaVuSans-3d" transform="translate(1538.144531 0.578125)"/>
     <use xlink:href="#DejaVuSans-30" transform="translate(1641.416016 0.578125)"/>
     <use xlink:href="#DejaVuSans-2e" transform="translate(1705.039062 0.578125)"/>
     <use xlink:href="#DejaVuSans-30" transform="translate(1736.826172 0.578125)"/>
     <use xlink:href="#DejaVuSans-Oblique-65" transform="translate(1800.449219 0.578125)"/>
     <use xlink:href="#DejaVuSans-2b" transform="translate(1881.455078 0.578125)"/>
     <use xlink:href="#DejaVuSans-30" transform="translate(1984.726562 0.578125)"/>
     <use xlink:href="#DejaVuSans-30" transform="translate(2048.349609 0.578125)"/>
    </g>
   </g>
   <g id="text_18">
    <!-- Positive slack means an inequality is satisfied -->
    <g transform="translate(146.88625 17.837812) scale(0.14 -0.14)">
     <defs>
      <path id="DejaVuSans-50" d="M 1259 4147 
L 1259 2394 
L 2053 2394 
Q 2494 2394 2734 2622 
Q 2975 2850 2975 3272 
Q 2975 3691 2734 3919 
Q 2494 4147 2053 4147 
L 1259 4147 
z
M 628 4666 
L 2053 4666 
Q 2838 4666 3239 4311 
Q 3641 3956 3641 3272 
Q 3641 2581 3239 2228 
Q 2838 1875 2053 1875 
L 1259 1875 
L 1259 0 
L 628 0 
L 628 4666 
z
" transform="scale(0.015625)"/>
      <path id="DejaVuSans-76" d="M 191 3500 
L 800 3500 
L 1894 563 
L 2988 3500 
L 3597 3500 
L 2284 0 
L 1503 0 
L 191 3500 
z
" transform="scale(0.015625)"/>
      <path id="DejaVuSans-6d" d="M 3328 2828 
Q 3544 3216 3844 3400 
Q 4144 3584 4550 3584 
Q 5097 3584 5394 3201 
Q 5691 2819 5691 2113 
L 5691 0 
L 5113 0 
L 5113 2094 
Q 5113 2597 4934 2840 
Q 4756 3084 4391 3084 
Q 3944 3084 3684 2787 
Q 3425 2491 3425 1978 
L 3425 0 
L 2847 0 
L 2847 2094 
Q 2847 2600 2669 2842 
Q 2491 3084 2119 3084 
Q 1678 3084 1418 2786 
Q 1159 2488 1159 1978 
L 1159 0 
L 581 0 
L 581 3500 
L 1159 3500 
L 1159 2956 
Q 1356 3278 1631 3431 
Q 1906 3584 2284 3584 
Q 2666 3584 2933 3390 
Q 3200 3197 3328 2828 
z
" transform="scale(0.015625)"/>
      <path id="DejaVuSans-66" d="M 2375 4863 
L 2375 4384 
L 1825 4384 
Q 1516 4384 1395 4259 
Q 1275 4134 1275 3809 
L 1275 3500 
L 2222 3500 
L 2222 3053 
L 1275 3053 
L 1275 0 
L 697 0 
L 697 3053 
L 147 3053 
L 147 3500 
L 697 3500 
L 697 3744 
Q 697 4328 969 4595 
Q 1241 4863 1831 4863 
L 2375 4863 
z
" transform="scale(0.015625)"/>
     </defs>
     <use xlink:href="#DejaVuSans-50"/>
     <use xlink:href="#DejaVuSans-6f" transform="translate(56.677734 0)"/>
     <use xlink:href="#DejaVuSans-73" transform="translate(117.859375 0)"/>
     <use xlink:href="#DejaVuSans-69" transform="translate(169.958984 0)"/>
     <use xlink:href="#DejaVuSans-74" transform="translate(197.742188 0)"/>
     <use xlink:href="#DejaVuSans-69" transform="translate(236.951172 0)"/>
     <use xlink:href="#DejaVuSans-76" transform="translate(264.734375 0)"/>
     <use xlink:href="#DejaVuSans-65" transform="translate(323.914062 0)"/>
     <use xlink:href="#DejaVuSans-20" transform="translate(385.4375 0)"/>
     <use xlink:href="#DejaVuSans-73" transform="translate(417.224609 0)"/>
     <use xlink:href="#DejaVuSans-6c" transform="translate(469.324219 0)"/>
     <use xlink:href="#DejaVuSans-61" transform="translate(497.107422 0)"/>
     <use xlink:href="#DejaVuSans-63" transform="translate(558.386719 0)"/>
     <use xlink:href="#DejaVuSans-6b" transform="translate(613.367188 0)"/>
     <use xlink:href="#DejaVuSans-20" transform="translate(671.277344 0)"/>
     <use xlink:href="#DejaVuSans-6d" transform="translate(703.064453 0)"/>
     <use xlink:href="#DejaVuSans-65" transform="translate(800.476562 0)"/>
     <use xlink:href="#DejaVuSans-61" transform="translate(862 0)"/>
     <use xlink:href="#DejaVuSans-6e" transform="translate(923.279297 0)"/>
     <use xlink:href="#DejaVuSans-73" transform="translate(986.658203 0)"/>
     <use xlink:href="#DejaVuSans-20" transform="translate(1038.757812 0)"/>
     <use xlink:href="#DejaVuSans-61" transform="translate(1070.544922 0)"/>
     <use xlink:href="#DejaVuSans-6e" transform="translate(1131.824219 0)"/>
     <use xlink:href="#DejaVuSans-20" transform="translate(1195.203125 0)"/>
     <use xlink:href="#DejaVuSans-69" transform="translate(1226.990234 0)"/>
     <use xlink:href="#DejaVuSans-6e" transform="translate(1254.773438 0)"/>
     <use xlink:href="#DejaVuSans-65" transform="translate(1318.152344 0)"/>
     <use xlink:href="#DejaVuSans-71" transform="translate(1379.675781 0)"/>
     <use xlink:href="#DejaVuSans-75" transform="translate(1443.152344 0)"/>
     <use xlink:href="#DejaVuSans-61" transform="translate(1506.53125 0)"/>
     <use xlink:href="#DejaVuSans-6c" transform="translate(1567.810547 0)"/>
     <use xlink:href="#DejaVuSans-69" transform="translate(1595.59375 0)"/>
     <use xlink:href="#DejaVuSans-74" transform="translate(1623.376953 0)"/>
     <use xlink:href="#DejaVuSans-79" transform="translate(1662.585938 0)"/>
     <use xlink:href="#DejaVuSans-20" transform="translate(1721.765625 0)"/>
     <use xlink:href="#DejaVuSans-69" transform="translate(1753.552734 0)"/>
     <use xlink:href="#DejaVuSans-73" transform="translate(1781.335938 0)"/>
     <use xlink:href="#DejaVuSans-20" transform="translate(1833.435547 0)"/>
     <use xlink:href="#DejaVuSans-73" transform="translate(1865.222656 0)"/>
     <use xlink:href="#DejaVuSans-61" transform="translate(1917.322266 0)"/>
     <use xlink:href="#DejaVuSans-74" transform="translate(1978.601562 0)"/>
     <use xlink:href="#DejaVuSans-69" transform="translate(2017.810547 0)"/>
     <use xlink:href="#DejaVuSans-73" transform="translate(2045.59375 0)"/>
     <use xlink:href="#DejaVuSans-66" transform="translate(2097.693359 0)"/>
     <use xlink:href="#DejaVuSans-69" transform="translate(2132.898438 0)"/>
     <use xlink:href="#DejaVuSans-65" transform="translate(2160.681641 0)"/>
     <use xlink:href="#DejaVuSans-64" transform="translate(2222.205078 0)"/>
    </g>
   </g>
  </g>
 </g>
 <defs>
  <clipPath id="p8cfeb8a0d8">
   <rect x="66.94" y="23.837812" width="479.88" height="271.656"/>
  </clipPath>
 </defs>
</svg>
