<?xml version="1.0" encoding="utf-8" standalone="no"?>
<!DOCTYPE svg PUBLIC "-//W3C//DTD SVG 1.1//EN"
  "http://www.w3.org/Graphics/SVG/1.1/DTD/svg11.dtd">
<svg xmlns:xlink="http://www.w3.org/1999/xlink" width="535.81875pt" height="413.462125pt" viewBox="0 0 535.81875 413.462125" xmlns="http://www.w3.org/2000/svg" version="1.1">
 <metadata>
  <rdf:RDF xmlns:dc="http://purl.org/dc/elements/1.1/" xmlns:cc="http://creativecommons.org/ns#" xmlns:rdf="http://www.w3.org/1999/02/22-rdf-syntax-ns#">
   <cc:Work>
    <dc:type rdf:resource="http://purl.org/dc/dcmitype/StillImage"/>
    <dc:date>2026-06-10T15:34:12.709593</dc:date>
    <dc:format>image/svg+xml</dc:format>
    <dc:creator>
     <cc:Agent>
      <dc:title>Matplotlib v3.10.8, https://matplotlib.org/</dc:title>
     </cc:Agent>
    </dc:creator>
   </cc:Work>
  </rdf:RDF>
 </metadata>
 <defs>
  <style type="text/css">*{stroke-linejoin: round; stroke-linecap: butt}</style>
 </defs>
 <g id="figure_1">
  <g id="patch_1">
   <path d="M 0 413.462125 
L 535.81875 413.462125 
L 535.81875 0 
L 0 0 
z
" style="fill: #ffffff"/>
  </g>
  <g id="axes_1">
   <g id="patch_2">
    <path d="M 43.15875 238.946665 
L 528.61875 238.946665 
L 528.61875 23.837812 
L 43.15875 23.837812 
z
" style="fill: #ffffff"/>
   </g>
   <g id="PathCollection_1">
    <defs>
     <path id="m36a8b3244f" d="M 0 2.915476 
C 0.773193 2.915476 1.514823 2.608283 2.061553 2.061553 
C 2.608283 1.514823 2.915476 0.773193 2.915476 0 
C 2.915476 -0.773193 2.608283 -1.514823 2.061553 -2.061553 
C 1.514823 -2.608283 0.773193 -2.915476 0 -2.915476 
C -0.773193 -2.915476 -1.514823 -2.608283 -2.061553 -2.061553 
C -2.608283 -1.514823 -2.915476 -0.773193 -2.915476 0 
C -2.915476 0.773193 -2.608283 1.514823 -2.061553 2.061553 
C -1.514823 2.608283 -0.773193 2.915476 0 2.915476 
z
" style="stroke: #ffffff; stroke-width: 0.4"/>
    </defs>
    <g clip-path="url(#p0ea9ead456)">
     <use xlink:href="#m36a8b3244f" x="65.225114" y="39.347396" style="fill: #64748b; stroke: #ffffff; stroke-width: 0.4"/>
     <use xlink:href="#m36a8b3244f" x="75.032386" y="49.390476" style="fill: #64748b; stroke: #ffffff; stroke-width: 0.4"/>
     <use xlink:href="#m36a8b3244f" x="84.839659" y="62.680907" style="fill: #64748b; stroke: #ffffff; stroke-width: 0.4"/>
     <use xlink:href="#m36a8b3244f" x="94.646932" y="79.752881" style="fill: #64748b; stroke: #ffffff; stroke-width: 0.4"/>
     <use xlink:href="#m36a8b3244f" x="104.454205" y="89.833837" style="fill: #64748b; stroke: #ffffff; stroke-width: 0.4"/>
     <use xlink:href="#m36a8b3244f" x="114.261477" y="100.333907" style="fill: #64748b; stroke: #ffffff; stroke-width: 0.4"/>
     <use xlink:href="#m36a8b3244f" x="124.06875" y="105.915934" style="fill: #64748b; stroke: #ffffff; stroke-width: 0.4"/>
     <use xlink:href="#m36a8b3244f" x="133.876023" y="115.998587" style="fill: #64748b; stroke: #ffffff; stroke-width: 0.4"/>
     <use xlink:href="#m36a8b3244f" x="143.683295" y="52.701894" style="fill: #64748b; stroke: #ffffff; stroke-width: 0.4"/>
     <use xlink:href="#m36a8b3244f" x="153.490568" y="135.746425" style="fill: #64748b; stroke: #ffffff; stroke-width: 0.4"/>
     <use xlink:href="#m36a8b3244f" x="163.297841" y="131.497559" style="fill: #64748b; stroke: #ffffff; stroke-width: 0.4"/>
     <use xlink:href="#m36a8b3244f" x="173.105114" y="142.264731" style="fill: #64748b; stroke: #ffffff; stroke-width: 0.4"/>
     <use xlink:href="#m36a8b3244f" x="182.912386" y="145.061762" style="fill: #64748b; stroke: #ffffff; stroke-width: 0.4"/>
     <use xlink:href="#m36a8b3244f" x="192.719659" y="152.291676" style="fill: #64748b; stroke: #ffffff; stroke-width: 0.4"/>
     <use xlink:href="#m36a8b3244f" x="202.526932" y="157.34981" style="fill: #64748b; stroke: #ffffff; stroke-width: 0.4"/>
     <use xlink:href="#m36a8b3244f" x="212.334205" y="158.708206" style="fill: #64748b; stroke: #ffffff; stroke-width: 0.4"/>
     <use xlink:href="#m36a8b3244f" x="222.141477" y="161.196898" style="fill: #64748b; stroke: #ffffff; stroke-width: 0.4"/>
     <use xlink:href="#m36a8b3244f" x="231.94875" y="167.627048" style="fill: #64748b; stroke: #ffffff; stroke-width: 0.4"/>
     <use xlink:href="#m36a8b3244f" x="241.756023" y="170.4717" style="fill: #64748b; stroke: #ffffff; stroke-width: 0.4"/>
     <use xlink:href="#m36a8b3244f" x="251.563295" y="170.638413" style="fill: #64748b; stroke: #ffffff; stroke-width: 0.4"/>
     <use xlink:href="#m36a8b3244f" x="261.370568" y="177.904407" style="fill: #64748b; stroke: #ffffff; stroke-width: 0.4"/>
     <use xlink:href="#m36a8b3244f" x="271.177841" y="182.158248" style="fill: #64748b; stroke: #ffffff; stroke-width: 0.4"/>
     <use xlink:href="#m36a8b3244f" x="280.985114" y="229.16899" style="fill: #64748b; stroke: #ffffff; stroke-width: 0.4"/>
     <use xlink:href="#m36a8b3244f" x="290.792386" y="183.554691" style="fill: #64748b; stroke: #ffffff; stroke-width: 0.4"/>
     <use xlink:href="#m36a8b3244f" x="300.599659" y="189.119321" style="fill: #64748b; stroke: #ffffff; stroke-width: 0.4"/>
     <use xlink:href="#m36a8b3244f" x="310.406932" y="187.313176" style="fill: #64748b; stroke: #ffffff; stroke-width: 0.4"/>
     <use xlink:href="#m36a8b3244f" x="320.214205" y="187.697456" style="fill: #64748b; stroke: #ffffff; stroke-width: 0.4"/>
     <use xlink:href="#m36a8b3244f" x="330.021477" y="191.24094" style="fill: #64748b; stroke: #ffffff; stroke-width: 0.4"/>
     <use xlink:href="#m36a8b3244f" x="339.82875" y="193.363026" style="fill: #64748b; stroke: #ffffff; stroke-width: 0.4"/>
     <use xlink:href="#m36a8b3244f" x="349.636023" y="189.777511" style="fill: #64748b; stroke: #ffffff; stroke-width: 0.4"/>
     <use xlink:href="#m36a8b3244f" x="359.443295" y="188.144651" style="fill: #64748b; stroke: #ffffff; stroke-width: 0.4"/>
     <use xlink:href="#m36a8b3244f" x="369.250568" y="192.525339" style="fill: #64748b; stroke: #ffffff; stroke-width: 0.4"/>
     <use xlink:href="#m36a8b3244f" x="379.057841" y="194.926569" style="fill: #64748b; stroke: #ffffff; stroke-width: 0.4"/>
     <use xlink:href="#m36a8b3244f" x="388.865114" y="192.232348" style="fill: #64748b; stroke: #ffffff; stroke-width: 0.4"/>
     <use xlink:href="#m36a8b3244f" x="398.672386" y="191.911838" style="fill: #64748b; stroke: #ffffff; stroke-width: 0.4"/>
     <use xlink:href="#m36a8b3244f" x="408.479659" y="195.665822" style="fill: #64748b; stroke: #ffffff; stroke-width: 0.4"/>
     <use xlink:href="#m36a8b3244f" x="418.286932" y="193.658844" style="fill: #64748b; stroke: #ffffff; stroke-width: 0.4"/>
     <use xlink:href="#m36a8b3244f" x="428.094205" y="138.380971" style="fill: #64748b; stroke: #ffffff; stroke-width: 0.4"/>
     <use xlink:href="#m36a8b3244f" x="437.901477" y="196.977322" style="fill: #64748b; stroke: #ffffff; stroke-width: 0.4"/>
     <use xlink:href="#m36a8b3244f" x="447.70875" y="199.278336" style="fill: #64748b; stroke: #ffffff; stroke-width: 0.4"/>
     <use xlink:href="#m36a8b3244f" x="457.516023" y="196.123982" style="fill: #64748b; stroke: #ffffff; stroke-width: 0.4"/>
     <use xlink:href="#m36a8b3244f" x="467.323295" y="196.799381" style="fill: #64748b; stroke: #ffffff; stroke-width: 0.4"/>
     <use xlink:href="#m36a8b3244f" x="477.130568" y="194.527383" style="fill: #64748b; stroke: #ffffff; stroke-width: 0.4"/>
     <use xlink:href="#m36a8b3244f" x="486.937841" y="202.138062" style="fill: #64748b; stroke: #ffffff; stroke-width: 0.4"/>
     <use xlink:href="#m36a8b3244f" x="496.745114" y="200.50958" style="fill: #64748b; stroke: #ffffff; stroke-width: 0.4"/>
     <use xlink:href="#m36a8b3244f" x="506.552386" y="201.306651" style="fill: #64748b; stroke: #ffffff; stroke-width: 0.4"/>
    </g>
   </g>
   <g id="matplotlib.axis_1">
    <g id="xtick_1">
     <g id="line2d_1">
      <path d="M 65.225114 238.946665 
L 65.225114 23.837812 
" clip-path="url(#p0ea9ead456)" style="fill: none; stroke-dasharray: 0.7,1.155; stroke-dashoffset: 0; stroke: #cbd5e1; stroke-width: 0.7"/>
     </g>
     <g id="line2d_2">
      <defs>
       <path id="m327c17036b" d="M 0 0 
L 0 3.5 
" style="stroke: #000000; stroke-width: 0.8"/>
      </defs>
      <g>
       <use xlink:href="#m327c17036b" x="65.225114" y="238.946665" style="stroke: #000000; stroke-width: 0.8"/>
      </g>
     </g>
    </g>
    <g id="xtick_2">
     <g id="line2d_3">
      <path d="M 153.490568 238.946665 
L 153.490568 23.837812 
" clip-path="url(#p0ea9ead456)" style="fill: none; stroke-dasharray: 0.7,1.155; stroke-dashoffset: 0; stroke: #cbd5e1; stroke-width: 0.7"/>
     </g>
     <g id="line2d_4">
      <g>
       <use xlink:href="#m327c17036b" x="153.490568" y="238.946665" style="stroke: #000000; stroke-width: 0.8"/>
      </g>
     </g>
    </g>
    <g id="xtick_3">
     <g id="line2d_5">
      <path d="M 241.756023 238.946665 
L 241.756023 23.837812 
" clip-path="url(#p0ea9ead456)" style="fill: none; stroke-dasharray: 0.7,1.155; stroke-dashoffset: 0; stroke: #cbd5e1; stroke-width: 0.7"/>
     </g>
     <g id="line2d_6">
      <g>
       <use xlink:href="#m327c17036b" x="241.756023" y="238.946665" style="stroke: #000000; stroke-width: 0.8"/>
      </g>
     </g>
    </g>
    <g id="xtick_4">
     <g id="line2d_7">
      <path d="M 330.021477 238.946665 
L 330.021477 23.837812 
" clip-path="url(#p0ea9ead456)" style="fill: none; stroke-dasharray: 0.7,1.155; stroke-dashoffset: 0; stroke: #cbd5e1; stroke-width: 0.7"/>
     </g>
     <g id="line2d_8">
      <g>
       <use xlink:href="#m327c17036b" x="330.021477" y="238.946665" style="stroke: #000000; stroke-width: 0.8"/>
      </g>
     </g>
    </g>
    <g id="xtick_5">
     <g id="line2d_9">
      <path d="M 418.286932 238.946665 
L 418.286932 23.837812 
" clip-path="url(#p0ea9ead456)" style="fill: none; stroke-dasharray: 0.7,1.155; stroke-dashoffset: 0; stroke: #cbd5e1; stroke-width: 0.7"/>
     </g>
     <g id="line2d_10">
      <g>
       <use xlink:href="#m327c17036b" x="418.286932" y="238.946665" style="stroke: #000000; stroke-width: 0.8"/>
      </g>
     </g>
    </g>
    <g id="xtick_6">
     <g id="line2d_11">
      <path d="M 506.552386 238.946665 
L 506.552386 23.837812 
" clip-path="url(#p0ea9ead456)" style="fill: none; stroke-dasharray: 0.7,1.155; stroke-dashoffset: 0; stroke: #cbd5e1; stroke-width: 0.7"/>
     </g>
     <g id="line2d_12">
      <g>
       <use xlink:href="#m327c17036b" x="506.552386" y="238.946665" style="stroke: #000000; stroke-width: 0.8"/>
      </g>
     </g>
    </g>
   </g>
   <g id="matplotlib.axis_2">
    <g id="ytick_1">
     <g id="line2d_13">
      <path d="M 43.15875 220.683875 
L 528.61875 220.683875 
" clip-path="url(#p0ea9ead456)" style="fill: none; stroke-dasharray: 0.7,1.155; stroke-dashoffset: 0; stroke: #cbd5e1; stroke-width: 0.7"/>
     </g>
     <g id="line2d_14">
      <defs>
       <path id="m3aeeef9c39" d="M 0 0 
L -3.5 0 
" style="stroke: #000000; stroke-width: 0.8"/>
      </defs>
      <g>
       <use xlink:href="#m3aeeef9c39" x="43.15875" y="220.683875" style="stroke: #000000; stroke-width: 0.8"/>
      </g>
     </g>
     <g id="text_1">
      <!-- 0.0 -->
      <g transform="translate(21.845937 224.103172) scale(0.09 -0.09)">
       <defs>
        <path id="DejaVuSans-30" d="M 2034 4250 
Q 1547 4250 1301 3770 
Q 1056 3291 1056 2328 
Q 1056 1369 1301 889 
Q 1547 409 2034 409 
Q 2525 409 2770 889 
Q 3016 1369 3016 2328 
Q 3016 3291 2770 3770 
Q 2525 4250 2034 4250 
z
M 2034 4750 
Q 2819 4750 3233 4129 
Q 3647 3509 3647 2328 
Q 3647 1150 3233 529 
Q 2819 -91 2034 -91 
Q 1250 -91 836 529 
Q 422 1150 422 2328 
Q 422 3509 836 4129 
Q 1250 4750 2034 4750 
z
" transform="scale(0.015625)"/>
        <path id="DejaVuSans-2e" d="M 684 794 
L 1344 794 
L 1344 0 
L 684 0 
L 684 794 
z
" transform="scale(0.015625)"/>
       </defs>
       <use xlink:href="#DejaVuSans-30"/>
       <use xlink:href="#DejaVuSans-2e" transform="translate(63.623047 0)"/>
       <use xlink:href="#DejaVuSans-30" transform="translate(95.410156 0)"/>
      </g>
     </g>
    </g>
    <g id="ytick_2">
     <g id="line2d_15">
      <path d="M 43.15875 176.908101 
L 528.61875 176.908101 
" clip-path="url(#p0ea9ead456)" style="fill: none; stroke-dasharray: 0.7,1.155; stroke-dashoffset: 0; stroke: #cbd5e1; stroke-width: 0.7"/>
     </g>
     <g id="line2d_16">
      <g>
       <use xlink:href="#m3aeeef9c39" x="43.15875" y="176.908101" style="stroke: #000000; stroke-width: 0.8"/>
      </g>
     </g>
     <g id="text_2">
      <!-- 0.5 -->
      <g transform="translate(21.845937 180.327398) scale(0.09 -0.09)">
       <defs>
        <path id="DejaVuSans-35" d="M 691 4666 
L 3169 4666 
L 3169 4134 
L 1269 4134 
L 1269 2991 
Q 1406 3038 1543 3061 
Q 1681 3084 1819 3084 
Q 2600 3084 3056 2656 
Q 3513 2228 3513 1497 
Q 3513 744 3044 326 
Q 2575 -91 1722 -91 
Q 1428 -91 1123 -41 
Q 819 9 494 109 
L 494 744 
Q 775 591 1075 516 
Q 1375 441 1709 441 
Q 2250 441 2565 725 
Q 2881 1009 2881 1497 
Q 2881 1984 2565 2268 
Q 2250 2553 1709 2553 
Q 1456 2553 1204 2497 
Q 953 2441 691 2322 
L 691 4666 
z
" transform="scale(0.015625)"/>
       </defs>
       <use xlink:href="#DejaVuSans-30"/>
       <use xlink:href="#DejaVuSans-2e" transform="translate(63.623047 0)"/>
       <use xlink:href="#DejaVuSans-35" transform="translate(95.410156 0)"/>
      </g>
     </g>
    </g>
    <g id="ytick_3">
     <g id="line2d_17">
      <path d="M 43.15875 133.132328 
L 528.61875 133.132328 
" clip-path="url(#p0ea9ead456)" style="fill: none; stroke-dasharray: 0.7,1.155; stroke-dashoffset: 0; stroke: #cbd5e1; stroke-width: 0.7"/>
     </g>
     <g id="line2d_18">
      <g>
       <use xlink:href="#m3aeeef9c39" x="43.15875" y="133.132328" style="stroke: #000000; stroke-width: 0.8"/>
      </g>
     </g>
     <g id="text_3">
      <!-- 1.0 -->
      <g transform="translate(21.845937 136.551625) scale(0.09 -0.09)">
       <defs>
        <path id="DejaVuSans-31" d="M 794 531 
L 1825 531 
L 1825 4091 
L 703 3866 
L 703 4441 
L 1819 4666 
L 2450 4666 
L 2450 531 
L 3481 531 
L 3481 0 
L 794 0 
L 794 531 
z
" transform="scale(0.015625)"/>
       </defs>
       <use xlink:href="#DejaVuSans-31"/>
       <use xlink:href="#DejaVuSans-2e" transform="translate(63.623047 0)"/>
       <use xlink:href="#DejaVuSans-30" transform="translate(95.410156 0)"/>
      </g>
     </g>
    </g>
    <g id="ytick_4">
     <g id="line2d_19">
      <path d="M 43.15875 89.356554 
L 528.61875 89.356554 
" clip-path="url(#p0ea9ead456)" style="fill: none; stroke-dasharray: 0.7,1.155; stroke-dashoffset: 0; stroke: #cbd5e1; stroke-width: 0.7"/>
     </g>
     <g id="line2d_20">
      <g>
       <use xlink:href="#m3aeeef9c39" x="43.15875" y="89.356554" style="stroke: #000000; stroke-width: 0.8"/>
      </g>
     </g>
     <g id="text_4">
      <!-- 1.5 -->
      <g transform="translate(21.845937 92.775851) scale(0.09 -0.09)">
       <use xlink:href="#DejaVuSans-31"/>
       <use xlink:href="#DejaVuSans-2e" transform="translate(63.623047 0)"/>
       <use xlink:href="#DejaVuSans-35" transform="translate(95.410156 0)"/>
      </g>
     </g>
    </g>
    <g id="ytick_5">
     <g id="line2d_21">
      <path d="M 43.15875 45.580781 
L 528.61875 45.580781 
" clip-path="url(#p0ea9ead456)" style="fill: none; stroke-dasharray: 0.7,1.155; stroke-dashoffset: 0; stroke: #cbd5e1; stroke-width: 0.7"/>
     </g>
     <g id="line2d_22">
      <g>
       <use xlink:href="#m3aeeef9c39" x="43.15875" y="45.580781" style="stroke: #000000; stroke-width: 0.8"/>
      </g>
     </g>
     <g id="text_5">
      <!-- 2.0 -->
      <g transform="translate(21.845937 49.000078) scale(0.09 -0.09)">
       <defs>
        <path id="DejaVuSans-32" d="M 1228 531 
L 3431 531 
L 3431 0 
L 469 0 
L 469 531 
Q 828 903 1448 1529 
Q 2069 2156 2228 2338 
Q 2531 2678 2651 2914 
Q 2772 3150 2772 3378 
Q 2772 3750 2511 3984 
Q 2250 4219 1831 4219 
Q 1534 4219 1204 4116 
Q 875 4013 500 3803 
L 500 4441 
Q 881 4594 1212 4672 
Q 1544 4750 1819 4750 
Q 2544 4750 2975 4387 
Q 3406 4025 3406 3419 
Q 3406 3131 3298 2873 
Q 3191 2616 2906 2266 
Q 2828 2175 2409 1742 
Q 1991 1309 1228 531 
z
" transform="scale(0.015625)"/>
       </defs>
       <use xlink:href="#DejaVuSans-32"/>
       <use xlink:href="#DejaVuSans-2e" transform="translate(63.623047 0)"/>
       <use xlink:href="#DejaVuSans-30" transform="translate(95.410156 0)"/>
      </g>
     </g>
    </g>
    <g id="text_6">
     <!-- $y$ -->
     <g transform="translate(15.535937 134.692239) rotate(-90) scale(0.11 -0.11)">
      <defs>
       <path id="DejaVuSans-Oblique-79" d="M 1588 -325 
Q 1188 -997 936 -1164 
Q 684 -1331 294 -1331 
L -159 -1331 
L -63 -850 
L 269 -850 
Q 509 -850 678 -719 
Q 847 -588 1056 -206 
L 1234 128 
L 459 3500 
L 1069 3500 
L 1650 819 
L 3256 3500 
L 3859 3500 
L 1588 -325 
z
" transform="scale(0.015625)"/>
      </defs>
      <use xlink:href="#DejaVuSans-Oblique-79" transform="translate(0 0.3125)"/>
     </g>
    </g>
   </g>
   <g id="line2d_23">
    <path d="M 65.225114 39.452173 
L 70.491549 47.186001 
L 75.757984 54.550552 
L 81.024419 61.563457 
L 86.290855 68.241507 
L 91.55729 74.600691 
L 96.823725 80.656233 
L 102.09016 86.422634 
L 108.409883 92.980038 
L 114.729605 99.163532 
L 121.049327 104.994438 
L 127.369049 110.49286 
L 133.688772 115.677757 
L 140.008494 120.567006 
L 146.328216 125.177465 
L 152.647939 129.525032 
L 158.967661 133.624696 
L 165.287383 137.490594 
L 172.660392 141.723092 
L 180.033402 145.675386 
L 187.406411 149.366026 
L 194.77942 152.812333 
L 202.15243 156.030484 
L 210.578726 159.448325 
L 219.005023 162.608816 
L 227.431319 165.531335 
L 235.857615 168.2338 
L 245.337199 171.031621 
L 254.816782 173.593584 
L 264.296366 175.939574 
L 274.829236 178.315017 
L 285.362106 180.469029 
L 296.948264 182.607265 
L 308.534422 184.527302 
L 321.173866 186.399133 
L 334.866598 188.193666 
L 349.612616 189.887273 
L 365.411922 191.462002 
L 382.264515 192.905508 
L 400.170395 194.210733 
L 420.182849 195.43428 
L 441.248589 196.498659 
L 465.474192 197.490975 
L 491.806368 198.344146 
L 506.552386 198.738252 
L 506.552386 198.738252 
" clip-path="url(#p0ea9ead456)" style="fill: none; stroke-dasharray: 1.8,2.97; stroke-dashoffset: 0; stroke: #111827; stroke-width: 1.8"/>
   </g>
   <g id="line2d_24">
    <path d="M 65.225114 33.615488 
L 70.491549 41.686937 
L 75.757984 49.369674 
L 81.024419 56.682417 
L 86.290855 63.642985 
L 91.55729 70.26834 
L 96.823725 76.574623 
L 102.09016 82.577202 
L 107.356596 88.290703 
L 113.676318 94.784874 
L 119.99604 100.905573 
L 126.315762 106.674278 
L 132.635485 112.11123 
L 138.955207 117.23551 
L 145.274929 122.065098 
L 151.594651 126.616942 
L 157.914374 130.907015 
L 164.234096 134.95037 
L 170.553818 138.761196 
L 177.926828 142.931067 
L 185.299837 146.822529 
L 192.672846 150.45417 
L 200.045856 153.843337 
L 207.418865 157.00622 
L 215.845161 160.363196 
L 224.271458 163.465263 
L 232.697754 166.331778 
L 241.12405 168.980627 
L 250.603634 171.720934 
L 260.083217 174.228285 
L 270.616088 176.76504 
L 281.148958 179.063342 
L 291.681829 181.145607 
L 303.267986 183.210754 
L 315.907431 185.22206 
L 328.546875 187.008682 
L 342.239607 188.719681 
L 356.985626 190.332576 
L 372.784931 191.830387 
L 389.637524 193.201553 
L 407.543404 194.439607 
L 427.555858 195.598392 
L 449.674886 196.650033 
L 473.900488 197.57732 
L 501.285951 198.400859 
L 506.552386 198.536404 
L 506.552386 198.536404 
" clip-path="url(#p0ea9ead456)" style="fill: none; stroke: #dc2626; stroke-width: 2.4; stroke-linecap: square"/>
   </g>
   <g id="line2d_25">
    <path d="M 65.225114 37.345188 
L 70.491549 45.287463 
L 75.757984 52.846873 
L 81.024419 60.041874 
L 86.290855 66.890033 
L 91.55729 73.408069 
L 96.823725 79.611898 
L 102.09016 85.516664 
L 107.356596 91.136786 
L 113.676318 97.524473 
L 119.99604 103.544456 
L 126.315762 109.2179 
L 132.635485 114.564754 
L 138.955207 119.603818 
L 145.274929 124.352811 
L 151.594651 128.828429 
L 157.914374 133.04641 
L 164.234096 137.021584 
L 171.607105 141.371009 
L 178.980115 145.429755 
L 186.353124 149.217251 
L 193.726133 152.751623 
L 201.099143 156.049788 
L 208.472152 159.127532 
L 216.898448 162.393903 
L 225.324745 165.412007 
L 233.751041 168.200715 
L 243.230625 171.085468 
L 252.710208 173.724751 
L 262.189791 176.139451 
L 272.722662 178.58224 
L 283.255532 180.795192 
L 294.84169 182.989724 
L 306.427847 184.958229 
L 319.067292 186.875195 
L 332.760024 188.710796 
L 346.452755 190.325117 
L 361.198774 191.846674 
L 376.99808 193.259463 
L 394.903959 194.626832 
L 413.863126 195.844899 
L 434.928867 196.966986 
L 458.101182 197.970325 
L 483.380071 198.842686 
L 506.552386 199.479545 
L 506.552386 199.479545 
" clip-path="url(#p0ea9ead456)" style="fill: none; stroke: #2563eb; stroke-width: 2.7; stroke-linecap: square"/>
   </g>
   <g id="patch_3">
    <path d="M 43.15875 238.946665 
L 43.15875 23.837812 
" style="fill: none; stroke: #000000; stroke-width: 0.8; stroke-linejoin: miter; stroke-linecap: square"/>
   </g>
   <g id="patch_4">
    <path d="M 43.15875 238.946665 
L 528.61875 238.946665 
" style="fill: none; stroke: #000000; stroke-width: 0.8; stroke-linejoin: miter; stroke-linecap: square"/>
   </g>
   <g id="text_7">
    <!-- Robust least squares reduces outlier leverage -->
    <g transform="translate(125.371094 17.837812) scale(0.14 -0.14)">
     <defs>
      <path id="DejaVuSans-52" d="M 2841 2188 
Q 3044 2119 3236 1894 
Q 3428 1669 3622 1275 
L 4263 0 
L 3584 0 
L 2988 1197 
Q 2756 1666 2539 1819 
Q 2322 1972 1947 1972 
L 1259 1972 
L 1259 0 
L 628 0 
L 628 4666 
L 2053 4666 
Q 2853 4666 3247 4331 
Q 3641 3997 3641 3322 
Q 3641 2881 3436 2590 
Q 3231 2300 2841 2188 
z
M 1259 4147 
L 1259 2491 
L 2053 2491 
Q 2509 2491 2742 2702 
Q 2975 2913 2975 3322 
Q 2975 3731 2742 3939 
Q 2509 4147 2053 4147 
L 1259 4147 
z
" transform="scale(0.015625)"/>
      <path id="DejaVuSans-6f" d="M 1959 3097 
Q 1497 3097 1228 2736 
Q 959 2375 959 1747 
Q 959 1119 1226 758 
Q 1494 397 1959 397 
Q 2419 397 2687 759 
Q 2956 1122 2956 1747 
Q 2956 2369 2687 2733 
Q 2419 3097 1959 3097 
z
M 1959 3584 
Q 2709 3584 3137 3096 
Q 3566 2609 3566 1747 
Q 3566 888 3137 398 
Q 2709 -91 1959 -91 
Q 1206 -91 779 398 
Q 353 888 353 1747 
Q 353 2609 779 3096 
Q 1206 3584 1959 3584 
z
" transform="scale(0.015625)"/>
      <path id="DejaVuSans-62" d="M 3116 1747 
Q 3116 2381 2855 2742 
Q 2594 3103 2138 3103 
Q 1681 3103 1420 2742 
Q 1159 2381 1159 1747 
Q 1159 1113 1420 752 
Q 1681 391 2138 391 
Q 2594 391 2855 752 
Q 3116 1113 3116 1747 
z
M 1159 2969 
Q 1341 3281 1617 3432 
Q 1894 3584 2278 3584 
Q 2916 3584 3314 3078 
Q 3713 2572 3713 1747 
Q 3713 922 3314 415 
Q 2916 -91 2278 -91 
Q 1894 -91 1617 61 
Q 1341 213 1159 525 
L 1159 0 
L 581 0 
L 581 4863 
L 1159 4863 
L 1159 2969 
z
" transform="scale(0.015625)"/>
      <path id="DejaVuSans-75" d="M 544 1381 
L 544 3500 
L 1119 3500 
L 1119 1403 
Q 1119 906 1312 657 
Q 1506 409 1894 409 
Q 2359 409 2629 706 
Q 2900 1003 2900 1516 
L 2900 3500 
L 3475 3500 
L 3475 0 
L 2900 0 
L 2900 538 
Q 2691 219 2414 64 
Q 2138 -91 1772 -91 
Q 1169 -91 856 284 
Q 544 659 544 1381 
z
M 1991 3584 
L 1991 3584 
z
" transform="scale(0.015625)"/>
      <path id="DejaVuSans-73" d="M 2834 3397 
L 2834 2853 
Q 2591 2978 2328 3040 
Q 2066 3103 1784 3103 
Q 1356 3103 1142 2972 
Q 928 2841 928 2578 
Q 928 2378 1081 2264 
Q 1234 2150 1697 2047 
L 1894 2003 
Q 2506 1872 2764 1633 
Q 3022 1394 3022 966 
Q 3022 478 2636 193 
Q 2250 -91 1575 -91 
Q 1294 -91 989 -36 
Q 684 19 347 128 
L 347 722 
Q 666 556 975 473 
Q 1284 391 1588 391 
Q 1994 391 2212 530 
Q 2431 669 2431 922 
Q 2431 1156 2273 1281 
Q 2116 1406 1581 1522 
L 1381 1569 
Q 847 1681 609 1914 
Q 372 2147 372 2553 
Q 372 3047 722 3315 
Q 1072 3584 1716 3584 
Q 2034 3584 2315 3537 
Q 2597 3491 2834 3397 
z
" transform="scale(0.015625)"/>
      <path id="DejaVuSans-74" d="M 1172 4494 
L 1172 3500 
L 2356 3500 
L 2356 3053 
L 1172 3053 
L 1172 1153 
Q 1172 725 1289 603 
Q 1406 481 1766 481 
L 2356 481 
L 2356 0 
L 1766 0 
Q 1100 0 847 248 
Q 594 497 594 1153 
L 594 3053 
L 172 3053 
L 172 3500 
L 594 3500 
L 594 4494 
L 1172 4494 
z
" transform="scale(0.015625)"/>
      <path id="DejaVuSans-20" transform="scale(0.015625)"/>
      <path id="DejaVuSans-6c" d="M 603 4863 
L 1178 4863 
L 1178 0 
L 603 0 
L 603 4863 
z
" transform="scale(0.015625)"/>
      <path id="DejaVuSans-65" d="M 3597 1894 
L 3597 1613 
L 953 1613 
Q 991 1019 1311 708 
Q 1631 397 2203 397 
Q 2534 397 2845 478 
Q 3156 559 3463 722 
L 3463 178 
Q 3153 47 2828 -22 
Q 2503 -91 2169 -91 
Q 1331 -91 842 396 
Q 353 884 353 1716 
Q 353 2575 817 3079 
Q 1281 3584 2069 3584 
Q 2775 3584 3186 3129 
Q 3597 2675 3597 1894 
z
M 3022 2063 
Q 3016 2534 2758 2815 
Q 2500 3097 2075 3097 
Q 1594 3097 1305 2825 
Q 1016 2553 972 2059 
L 3022 2063 
z
" transform="scale(0.015625)"/>
      <path id="DejaVuSans-61" d="M 2194 1759 
Q 1497 1759 1228 1600 
Q 959 1441 959 1056 
Q 959 750 1161 570 
Q 1363 391 1709 391 
Q 2188 391 2477 730 
Q 2766 1069 2766 1631 
L 2766 1759 
L 2194 1759 
z
M 3341 1997 
L 3341 0 
L 2766 0 
L 2766 531 
Q 2569 213 2275 61 
Q 1981 -91 1556 -91 
Q 1019 -91 701 211 
Q 384 513 384 1019 
Q 384 1609 779 1909 
Q 1175 2209 1959 2209 
L 2766 2209 
L 2766 2266 
Q 2766 2663 2505 2880 
Q 2244 3097 1772 3097 
Q 1472 3097 1187 3025 
Q 903 2953 641 2809 
L 641 3341 
Q 956 3463 1253 3523 
Q 1550 3584 1831 3584 
Q 2591 3584 2966 3190 
Q 3341 2797 3341 1997 
z
" transform="scale(0.015625)"/>
      <path id="DejaVuSans-71" d="M 947 1747 
Q 947 1113 1208 752 
Q 1469 391 1925 391 
Q 2381 391 2643 752 
Q 2906 1113 2906 1747 
Q 2906 2381 2643 2742 
Q 2381 3103 1925 3103 
Q 1469 3103 1208 2742 
Q 947 2381 947 1747 
z
M 2906 525 
Q 2725 213 2448 61 
Q 2172 -91 1784 -91 
Q 1150 -91 751 415 
Q 353 922 353 1747 
Q 353 2572 751 3078 
Q 1150 3584 1784 3584 
Q 2172 3584 2448 3432 
Q 2725 3281 2906 2969 
L 2906 3500 
L 3481 3500 
L 3481 -1331 
L 2906 -1331 
L 2906 525 
z
" transform="scale(0.015625)"/>
      <path id="DejaVuSans-72" d="M 2631 2963 
Q 2534 3019 2420 3045 
Q 2306 3072 2169 3072 
Q 1681 3072 1420 2755 
Q 1159 2438 1159 1844 
L 1159 0 
L 581 0 
L 581 3500 
L 1159 3500 
L 1159 2956 
Q 1341 3275 1631 3429 
Q 1922 3584 2338 3584 
Q 2397 3584 2469 3576 
Q 2541 3569 2628 3553 
L 2631 2963 
z
" transform="scale(0.015625)"/>
      <path id="DejaVuSans-64" d="M 2906 2969 
L 2906 4863 
L 3481 4863 
L 3481 0 
L 2906 0 
L 2906 525 
Q 2725 213 2448 61 
Q 2172 -91 1784 -91 
Q 1150 -91 751 415 
Q 353 922 353 1747 
Q 353 2572 751 3078 
Q 1150 3584 1784 3584 
Q 2172 3584 2448 3432 
Q 2725 3281 2906 2969 
z
M 947 1747 
Q 947 1113 1208 752 
Q 1469 391 1925 391 
Q 2381 391 2643 752 
Q 2906 1113 2906 1747 
Q 2906 2381 2643 2742 
Q 2381 3103 1925 3103 
Q 1469 3103 1208 2742 
Q 947 2381 947 1747 
z
" transform="scale(0.015625)"/>
      <path id="DejaVuSans-63" d="M 3122 3366 
L 3122 2828 
Q 2878 2963 2633 3030 
Q 2388 3097 2138 3097 
Q 1578 3097 1268 2742 
Q 959 2388 959 1747 
Q 959 1106 1268 751 
Q 1578 397 2138 397 
Q 2388 397 2633 464 
Q 2878 531 3122 666 
L 3122 134 
Q 2881 22 2623 -34 
Q 2366 -91 2075 -91 
Q 1284 -91 818 406 
Q 353 903 353 1747 
Q 353 2603 823 3093 
Q 1294 3584 2113 3584 
Q 2378 3584 2631 3529 
Q 2884 3475 3122 3366 
z
" transform="scale(0.015625)"/>
      <path id="DejaVuSans-69" d="M 603 3500 
L 1178 3500 
L 1178 0 
L 603 0 
L 603 3500 
z
M 603 4863 
L 1178 4863 
L 1178 4134 
L 603 4134 
L 603 4863 
z
" transform="scale(0.015625)"/>
      <path id="DejaVuSans-76" d="M 191 3500 
L 800 3500 
L 1894 563 
L 2988 3500 
L 3597 3500 
L 2284 0 
L 1503 0 
L 191 3500 
z
" transform="scale(0.015625)"/>
      <path id="DejaVuSans-67" d="M 2906 1791 
Q 2906 2416 2648 2759 
Q 2391 3103 1925 3103 
Q 1463 3103 1205 2759 
Q 947 2416 947 1791 
Q 947 1169 1205 825 
Q 1463 481 1925 481 
Q 2391 481 2648 825 
Q 2906 1169 2906 1791 
z
M 3481 434 
Q 3481 -459 3084 -895 
Q 2688 -1331 1869 -1331 
Q 1566 -1331 1297 -1286 
Q 1028 -1241 775 -1147 
L 775 -588 
Q 1028 -725 1275 -790 
Q 1522 -856 1778 -856 
Q 2344 -856 2625 -561 
Q 2906 -266 2906 331 
L 2906 616 
Q 2728 306 2450 153 
Q 2172 0 1784 0 
Q 1141 0 747 490 
Q 353 981 353 1791 
Q 353 2603 747 3093 
Q 1141 3584 1784 3584 
Q 2172 3584 2450 3431 
Q 2728 3278 2906 2969 
L 2906 3500 
L 3481 3500 
L 3481 434 
z
" transform="scale(0.015625)"/>
     </defs>
     <use xlink:href="#DejaVuSans-52"/>
     <use xlink:href="#DejaVuSans-6f" transform="translate(64.982422 0)"/>
     <use xlink:href="#DejaVuSans-62" transform="translate(126.164062 0)"/>
     <use xlink:href="#DejaVuSans-75" transform="translate(189.640625 0)"/>
     <use xlink:href="#DejaVuSans-73" transform="translate(253.019531 0)"/>
     <use xlink:href="#DejaVuSans-74" transform="translate(305.119141 0)"/>
     <use xlink:href="#DejaVuSans-20" transform="translate(344.328125 0)"/>
     <use xlink:href="#DejaVuSans-6c" transform="translate(376.115234 0)"/>
     <use xlink:href="#DejaVuSans-65" transform="translate(403.898438 0)"/>
     <use xlink:href="#DejaVuSans-61" transform="translate(465.421875 0)"/>
     <use xlink:href="#DejaVuSans-73" transform="translate(526.701172 0)"/>
     <use xlink:href="#DejaVuSans-74" transform="translate(578.800781 0)"/>
     <use xlink:href="#DejaVuSans-20" transform="translate(618.009766 0)"/>
     <use xlink:href="#DejaVuSans-73" transform="translate(649.796875 0)"/>
     <use xlink:href="#DejaVuSans-71" transform="translate(701.896484 0)"/>
     <use xlink:href="#DejaVuSans-75" transform="translate(765.373047 0)"/>
     <use xlink:href="#DejaVuSans-61" transform="translate(828.751953 0)"/>
     <use xlink:href="#DejaVuSans-72" transform="translate(890.03125 0)"/>
     <use xlink:href="#DejaVuSans-65" transform="translate(928.894531 0)"/>
     <use xlink:href="#DejaVuSans-73" transform="translate(990.417969 0)"/>
     <use xlink:href="#DejaVuSans-20" transform="translate(1042.517578 0)"/>
     <use xlink:href="#DejaVuSans-72" transform="translate(1074.304688 0)"/>
     <use xlink:href="#DejaVuSans-65" transform="translate(1113.167969 0)"/>
     <use xlink:href="#DejaVuSans-64" transform="translate(1174.691406 0)"/>
     <use xlink:href="#DejaVuSans-75" transform="translate(1238.167969 0)"/>
     <use xlink:href="#DejaVuSans-63" transform="translate(1301.546875 0)"/>
     <use xlink:href="#DejaVuSans-65" transform="translate(1356.527344 0)"/>
     <use xlink:href="#DejaVuSans-73" transform="translate(1418.050781 0)"/>
     <use xlink:href="#DejaVuSans-20" transform="translate(1470.150391 0)"/>
     <use xlink:href="#DejaVuSans-6f" transform="translate(1501.9375 0)"/>
     <use xlink:href="#DejaVuSans-75" transform="translate(1563.119141 0)"/>
     <use xlink:href="#DejaVuSans-74" transform="translate(1626.498047 0)"/>
     <use xlink:href="#DejaVuSans-6c" transform="translate(1665.707031 0)"/>
     <use xlink:href="#DejaVuSans-69" transform="translate(1693.490234 0)"/>
     <use xlink:href="#DejaVuSans-65" transform="translate(1721.273438 0)"/>
     <use xlink:href="#DejaVuSans-72" transform="translate(1782.796875 0)"/>
     <use xlink:href="#DejaVuSans-20" transform="translate(1823.910156 0)"/>
     <use xlink:href="#DejaVuSans-6c" transform="translate(1855.697266 0)"/>
     <use xlink:href="#DejaVuSans-65" transform="translate(1883.480469 0)"/>
     <use xlink:href="#DejaVuSans-76" transform="translate(1945.003906 0)"/>
     <use xlink:href="#DejaVuSans-65" transform="translate(2004.183594 0)"/>
     <use xlink:href="#DejaVuSans-72" transform="translate(2065.707031 0)"/>
     <use xlink:href="#DejaVuSans-61" transform="translate(2106.820312 0)"/>
     <use xlink:href="#DejaVuSans-67" transform="translate(2168.099609 0)"/>
     <use xlink:href="#DejaVuSans-65" transform="translate(2231.576172 0)"/>
    </g>
   </g>
   <g id="PathCollection_2">
    <defs>
     <path id="m597f5e1ba3" d="M 0 4.242641 
C 1.125161 4.242641 2.204391 3.795609 3 3 
C 3.795609 2.204391 4.242641 1.125161 4.242641 0 
C 4.242641 -1.125161 3.795609 -2.204391 3 -3 
C 2.204391 -3.795609 1.125161 -4.242641 0 -4.242641 
C -1.125161 -4.242641 -2.204391 -3.795609 -3 -3 
C -3.795609 -2.204391 -4.242641 -1.125161 -4.242641 0 
C -4.242641 1.125161 -3.795609 2.204391 -3 3 
C -2.204391 3.795609 -1.125161 4.242641 0 4.242641 
z
" style="stroke: #111827; stroke-width: 0.5"/>
    </defs>
    <g clip-path="url(#p0ea9ead456)">
     <use xlink:href="#m597f5e1ba3" x="143.683295" y="52.701894" style="fill: #f59e0b; stroke: #111827; stroke-width: 0.5"/>
     <use xlink:href="#m597f5e1ba3" x="280.985114" y="229.16899" style="fill: #f59e0b; stroke: #111827; stroke-width: 0.5"/>
     <use xlink:href="#m597f5e1ba3" x="428.094205" y="138.380971" style="fill: #f59e0b; stroke: #111827; stroke-width: 0.5"/>
    </g>
   </g>
   <g id="legend_1">
    <g id="line2d_26">
     <path d="M 401.392187 36.93625 
L 411.392187 36.93625 
L 421.392187 36.93625 
" style="fill: none; stroke-dasharray: 1.8,2.97; stroke-dashoffset: 0; stroke: #111827; stroke-width: 1.8"/>
    </g>
    <g id="text_8">
     <!-- true curve -->
     <g transform="translate(429.392187 40.43625) scale(0.1 -0.1)">
      <use xlink:href="#DejaVuSans-74"/>
      <use xlink:href="#DejaVuSans-72" transform="translate(39.208984 0)"/>
      <use xlink:href="#DejaVuSans-75" transform="translate(80.322266 0)"/>
      <use xlink:href="#DejaVuSans-65" transform="translate(143.701172 0)"/>
      <use xlink:href="#DejaVuSans-20" transform="translate(205.224609 0)"/>
      <use xlink:href="#DejaVuSans-63" transform="translate(237.011719 0)"/>
      <use xlink:href="#DejaVuSans-75" transform="translate(291.992188 0)"/>
      <use xlink:href="#DejaVuSans-72" transform="translate(355.371094 0)"/>
      <use xlink:href="#DejaVuSans-76" transform="translate(396.484375 0)"/>
      <use xlink:href="#DejaVuSans-65" transform="translate(455.664062 0)"/>
     </g>
    </g>
    <g id="line2d_27">
     <path d="M 401.392187 51.614375 
L 411.392187 51.614375 
L 421.392187 51.614375 
" style="fill: none; stroke: #dc2626; stroke-width: 2.4; stroke-linecap: square"/>
    </g>
    <g id="text_9">
     <!-- linear loss -->
     <g transform="translate(429.392187 55.114375) scale(0.1 -0.1)">
      <defs>
       <path id="DejaVuSans-6e" d="M 3513 2113 
L 3513 0 
L 2938 0 
L 2938 2094 
Q 2938 2591 2744 2837 
Q 2550 3084 2163 3084 
Q 1697 3084 1428 2787 
Q 1159 2491 1159 1978 
L 1159 0 
L 581 0 
L 581 3500 
L 1159 3500 
L 1159 2956 
Q 1366 3272 1645 3428 
Q 1925 3584 2291 3584 
Q 2894 3584 3203 3211 
Q 3513 2838 3513 2113 
z
" transform="scale(0.015625)"/>
      </defs>
      <use xlink:href="#DejaVuSans-6c"/>
      <use xlink:href="#DejaVuSans-69" transform="translate(27.783203 0)"/>
      <use xlink:href="#DejaVuSans-6e" transform="translate(55.566406 0)"/>
      <use xlink:href="#DejaVuSans-65" transform="translate(118.945312 0)"/>
      <use xlink:href="#DejaVuSans-61" transform="translate(180.46875 0)"/>
      <use xlink:href="#DejaVuSans-72" transform="translate(241.748047 0)"/>
      <use xlink:href="#DejaVuSans-20" transform="translate(282.861328 0)"/>
      <use xlink:href="#DejaVuSans-6c" transform="translate(314.648438 0)"/>
      <use xlink:href="#DejaVuSans-6f" transform="translate(342.431641 0)"/>
      <use xlink:href="#DejaVuSans-73" transform="translate(403.613281 0)"/>
      <use xlink:href="#DejaVuSans-73" transform="translate(455.712891 0)"/>
     </g>
    </g>
    <g id="line2d_28">
     <path d="M 401.392187 66.2925 
L 411.392187 66.2925 
L 421.392187 66.2925 
" style="fill: none; stroke: #2563eb; stroke-width: 2.7; stroke-linecap: square"/>
    </g>
    <g id="text_10">
     <!-- soft_l1 robust loss -->
     <g transform="translate(429.392187 69.7925) scale(0.1 -0.1)">
      <defs>
       <path id="DejaVuSans-66" d="M 2375 4863 
L 2375 4384 
L 1825 4384 
Q 1516 4384 1395 4259 
Q 1275 4134 1275 3809 
L 1275 3500 
L 2222 3500 
L 2222 3053 
L 1275 3053 
L 1275 0 
L 697 0 
L 697 3053 
L 147 3053 
L 147 3500 
L 697 3500 
L 697 3744 
Q 697 4328 969 4595 
Q 1241 4863 1831 4863 
L 2375 4863 
z
" transform="scale(0.015625)"/>
       <path id="DejaVuSans-5f" d="M 3263 -1063 
L 3263 -1509 
L -63 -1509 
L -63 -1063 
L 3263 -1063 
z
" transform="scale(0.015625)"/>
      </defs>
      <use xlink:href="#DejaVuSans-73"/>
      <use xlink:href="#DejaVuSans-6f" transform="translate(52.099609 0)"/>
      <use xlink:href="#DejaVuSans-66" transform="translate(113.28125 0)"/>
      <use xlink:href="#DejaVuSans-74" transform="translate(146.736328 0)"/>
      <use xlink:href="#DejaVuSans-5f" transform="translate(185.945312 0)"/>
      <use xlink:href="#DejaVuSans-6c" transform="translate(235.945312 0)"/>
      <use xlink:href="#DejaVuSans-31" transform="translate(263.728516 0)"/>
      <use xlink:href="#DejaVuSans-20" transform="translate(327.351562 0)"/>
      <use xlink:href="#DejaVuSans-72" transform="translate(359.138672 0)"/>
      <use xlink:href="#DejaVuSans-6f" transform="translate(398.001953 0)"/>
      <use xlink:href="#DejaVuSans-62" transform="translate(459.183594 0)"/>
      <use xlink:href="#DejaVuSans-75" transform="translate(522.660156 0)"/>
      <use xlink:href="#DejaVuSans-73" transform="translate(586.039062 0)"/>
      <use xlink:href="#DejaVuSans-74" transform="translate(638.138672 0)"/>
      <use xlink:href="#DejaVuSans-20" transform="translate(677.347656 0)"/>
      <use xlink:href="#DejaVuSans-6c" transform="translate(709.134766 0)"/>
      <use xlink:href="#DejaVuSans-6f" transform="translate(736.917969 0)"/>
      <use xlink:href="#DejaVuSans-73" transform="translate(798.099609 0)"/>
      <use xlink:href="#DejaVuSans-73" transform="translate(850.199219 0)"/>
     </g>
    </g>
    <g id="PathCollection_3">
     <g>
      <use xlink:href="#m36a8b3244f" x="411.392187" y="82.12375" style="fill: #64748b; stroke: #ffffff; stroke-width: 0.4"/>
     </g>
    </g>
    <g id="text_11">
     <!-- noisy data -->
     <g transform="translate(429.392187 84.74875) scale(0.1 -0.1)">
      <defs>
       <path id="DejaVuSans-79" d="M 2059 -325 
Q 1816 -950 1584 -1140 
Q 1353 -1331 966 -1331 
L 506 -1331 
L 506 -850 
L 844 -850 
Q 1081 -850 1212 -737 
Q 1344 -625 1503 -206 
L 1606 56 
L 191 3500 
L 800 3500 
L 1894 763 
L 2988 3500 
L 3597 3500 
L 2059 -325 
z
" transform="scale(0.015625)"/>
      </defs>
      <use xlink:href="#DejaVuSans-6e"/>
      <use xlink:href="#DejaVuSans-6f" transform="translate(63.378906 0)"/>
      <use xlink:href="#DejaVuSans-69" transform="translate(124.560547 0)"/>
      <use xlink:href="#DejaVuSans-73" transform="translate(152.34375 0)"/>
      <use xlink:href="#DejaVuSans-79" transform="translate(204.443359 0)"/>
      <use xlink:href="#DejaVuSans-20" transform="translate(263.623047 0)"/>
      <use xlink:href="#DejaVuSans-64" transform="translate(295.410156 0)"/>
      <use xlink:href="#DejaVuSans-61" transform="translate(358.886719 0)"/>
      <use xlink:href="#DejaVuSans-74" transform="translate(420.166016 0)"/>
      <use xlink:href="#DejaVuSans-61" transform="translate(459.375 0)"/>
     </g>
    </g>
    <g id="PathCollection_4">
     <g>
      <use xlink:href="#m597f5e1ba3" x="411.392187" y="96.801875" style="fill: #f59e0b; stroke: #111827; stroke-width: 0.5"/>
     </g>
    </g>
    <g id="text_12">
     <!-- outliers -->
     <g transform="translate(429.392187 99.426875) scale(0.1 -0.1)">
      <use xlink:href="#DejaVuSans-6f"/>
      <use xlink:href="#DejaVuSans-75" transform="translate(61.181641 0)"/>
      <use xlink:href="#DejaVuSans-74" transform="translate(124.560547 0)"/>
      <use xlink:href="#DejaVuSans-6c" transform="translate(163.769531 0)"/>
      <use xlink:href="#DejaVuSans-69" transform="translate(191.552734 0)"/>
      <use xlink:href="#DejaVuSans-65" transform="translate(219.335938 0)"/>
      <use xlink:href="#DejaVuSans-72" transform="translate(280.859375 0)"/>
      <use xlink:href="#DejaVuSans-73" transform="translate(321.972656 0)"/>
     </g>
    </g>
   </g>
  </g>
  <g id="axes_2">
   <g id="patch_5">
    <path d="M 43.15875 375.881812 
L 528.61875 375.881812 
L 528.61875 270.950665 
L 43.15875 270.950665 
z
" style="fill: #ffffff"/>
   </g>
   <g id="matplotlib.axis_3">
    <g id="xtick_7">
     <g id="line2d_29">
      <path d="M 65.225114 375.881812 
L 65.225114 270.950665 
" clip-path="url(#pc624402375)" style="fill: none; stroke-dasharray: 0.7,1.155; stroke-dashoffset: 0; stroke: #cbd5e1; stroke-width: 0.7"/>
     </g>
     <g id="line2d_30">
      <g>
       <use xlink:href="#m327c17036b" x="65.225114" y="375.881812" style="stroke: #000000; stroke-width: 0.8"/>
      </g>
     </g>
     <g id="text_13">
      <!-- 0 -->
      <g transform="translate(62.361989 389.720406) scale(0.09 -0.09)">
       <use xlink:href="#DejaVuSans-30"/>
      </g>
     </g>
    </g>
    <g id="xtick_8">
     <g id="line2d_31">
      <path d="M 153.490568 375.881812 
L 153.490568 270.950665 
" clip-path="url(#pc624402375)" style="fill: none; stroke-dasharray: 0.7,1.155; stroke-dashoffset: 0; stroke: #cbd5e1; stroke-width: 0.7"/>
     </g>
     <g id="line2d_32">
      <g>
       <use xlink:href="#m327c17036b" x="153.490568" y="375.881812" style="stroke: #000000; stroke-width: 0.8"/>
      </g>
     </g>
     <g id="text_14">
      <!-- 1 -->
      <g transform="translate(150.627443 389.720406) scale(0.09 -0.09)">
       <use xlink:href="#DejaVuSans-31"/>
      </g>
     </g>
    </g>
    <g id="xtick_9">
     <g id="line2d_33">
      <path d="M 241.756023 375.881812 
L 241.756023 270.950665 
" clip-path="url(#pc624402375)" style="fill: none; stroke-dasharray: 0.7,1.155; stroke-dashoffset: 0; stroke: #cbd5e1; stroke-width: 0.7"/>
     </g>
     <g id="line2d_34">
      <g>
       <use xlink:href="#m327c17036b" x="241.756023" y="375.881812" style="stroke: #000000; stroke-width: 0.8"/>
      </g>
     </g>
     <g id="text_15">
      <!-- 2 -->
      <g transform="translate(238.892898 389.720406) scale(0.09 -0.09)">
       <use xlink:href="#DejaVuSans-32"/>
      </g>
     </g>
    </g>
    <g id="xtick_10">
     <g id="line2d_35">
      <path d="M 330.021477 375.881812 
L 330.021477 270.950665 
" clip-path="url(#pc624402375)" style="fill: none; stroke-dasharray: 0.7,1.155; stroke-dashoffset: 0; stroke: #cbd5e1; stroke-width: 0.7"/>
     </g>
     <g id="line2d_36">
      <g>
       <use xlink:href="#m327c17036b" x="330.021477" y="375.881812" style="stroke: #000000; stroke-width: 0.8"/>
      </g>
     </g>
     <g id="text_16">
      <!-- 3 -->
      <g transform="translate(327.158352 389.720406) scale(0.09 -0.09)">
       <defs>
        <path id="DejaVuSans-33" d="M 2597 2516 
Q 3050 2419 3304 2112 
Q 3559 1806 3559 1356 
Q 3559 666 3084 287 
Q 2609 -91 1734 -91 
Q 1441 -91 1130 -33 
Q 819 25 488 141 
L 488 750 
Q 750 597 1062 519 
Q 1375 441 1716 441 
Q 2309 441 2620 675 
Q 2931 909 2931 1356 
Q 2931 1769 2642 2001 
Q 2353 2234 1838 2234 
L 1294 2234 
L 1294 2753 
L 1863 2753 
Q 2328 2753 2575 2939 
Q 2822 3125 2822 3475 
Q 2822 3834 2567 4026 
Q 2313 4219 1838 4219 
Q 1578 4219 1281 4162 
Q 984 4106 628 3988 
L 628 4550 
Q 988 4650 1302 4700 
Q 1616 4750 1894 4750 
Q 2613 4750 3031 4423 
Q 3450 4097 3450 3541 
Q 3450 3153 3228 2886 
Q 3006 2619 2597 2516 
z
" transform="scale(0.015625)"/>
       </defs>
       <use xlink:href="#DejaVuSans-33"/>
      </g>
     </g>
    </g>
    <g id="xtick_11">
     <g id="line2d_37">
      <path d="M 418.286932 375.881812 
L 418.286932 270.950665 
" clip-path="url(#pc624402375)" style="fill: none; stroke-dasharray: 0.7,1.155; stroke-dashoffset: 0; stroke: #cbd5e1; stroke-width: 0.7"/>
     </g>
     <g id="line2d_38">
      <g>
       <use xlink:href="#m327c17036b" x="418.286932" y="375.881812" style="stroke: #000000; stroke-width: 0.8"/>
      </g>
     </g>
     <g id="text_17">
      <!-- 4 -->
      <g transform="translate(415.423807 389.720406) scale(0.09 -0.09)">
       <defs>
        <path id="DejaVuSans-34" d="M 2419 4116 
L 825 1625 
L 2419 1625 
L 2419 4116 
z
M 2253 4666 
L 3047 4666 
L 3047 1625 
L 3713 1625 
L 3713 1100 
L 3047 1100 
L 3047 0 
L 2419 0 
L 2419 1100 
L 313 1100 
L 313 1709 
L 2253 4666 
z
" transform="scale(0.015625)"/>
       </defs>
       <use xlink:href="#DejaVuSans-34"/>
      </g>
     </g>
    </g>
    <g id="xtick_12">
     <g id="line2d_39">
      <path d="M 506.552386 375.881812 
L 506.552386 270.950665 
" clip-path="url(#pc624402375)" style="fill: none; stroke-dasharray: 0.7,1.155; stroke-dashoffset: 0; stroke: #cbd5e1; stroke-width: 0.7"/>
     </g>
     <g id="line2d_40">
      <g>
       <use xlink:href="#m327c17036b" x="506.552386" y="375.881812" style="stroke: #000000; stroke-width: 0.8"/>
      </g>
     </g>
     <g id="text_18">
      <!-- 5 -->
      <g transform="translate(503.689261 389.720406) scale(0.09 -0.09)">
       <use xlink:href="#DejaVuSans-35"/>
      </g>
     </g>
    </g>
    <g id="text_19">
     <!-- input $t$ -->
     <g transform="translate(267.79375 403.952125) scale(0.11 -0.11)">
      <defs>
       <path id="DejaVuSans-70" d="M 1159 525 
L 1159 -1331 
L 581 -1331 
L 581 3500 
L 1159 3500 
L 1159 2969 
Q 1341 3281 1617 3432 
Q 1894 3584 2278 3584 
Q 2916 3584 3314 3078 
Q 3713 2572 3713 1747 
Q 3713 922 3314 415 
Q 2916 -91 2278 -91 
Q 1894 -91 1617 61 
Q 1341 213 1159 525 
z
M 3116 1747 
Q 3116 2381 2855 2742 
Q 2594 3103 2138 3103 
Q 1681 3103 1420 2742 
Q 1159 2381 1159 1747 
Q 1159 1113 1420 752 
Q 1681 391 2138 391 
Q 2594 391 2855 752 
Q 3116 1113 3116 1747 
z
" transform="scale(0.015625)"/>
       <path id="DejaVuSans-Oblique-74" d="M 2706 3500 
L 2619 3053 
L 1472 3053 
L 1100 1153 
Q 1081 1047 1072 975 
Q 1063 903 1063 863 
Q 1063 663 1183 572 
Q 1303 481 1569 481 
L 2150 481 
L 2053 0 
L 1503 0 
Q 991 0 739 200 
Q 488 400 488 806 
Q 488 878 497 964 
Q 506 1050 525 1153 
L 897 3053 
L 409 3053 
L 500 3500 
L 978 3500 
L 1172 4494 
L 1747 4494 
L 1556 3500 
L 2706 3500 
z
" transform="scale(0.015625)"/>
      </defs>
      <use xlink:href="#DejaVuSans-69" transform="translate(0 0.015625)"/>
      <use xlink:href="#DejaVuSans-6e" transform="translate(27.783203 0.015625)"/>
      <use xlink:href="#DejaVuSans-70" transform="translate(91.162109 0.015625)"/>
      <use xlink:href="#DejaVuSans-75" transform="translate(154.638672 0.015625)"/>
      <use xlink:href="#DejaVuSans-74" transform="translate(218.017578 0.015625)"/>
      <use xlink:href="#DejaVuSans-20" transform="translate(257.226562 0.015625)"/>
      <use xlink:href="#DejaVuSans-Oblique-74" transform="translate(289.013672 0.015625)"/>
     </g>
    </g>
   </g>
   <g id="matplotlib.axis_4">
    <g id="ytick_6">
     <g id="line2d_41">
      <path d="M 43.15875 371.11819 
L 528.61875 371.11819 
" clip-path="url(#pc624402375)" style="fill: none; stroke-dasharray: 0.7,1.155; stroke-dashoffset: 0; stroke: #cbd5e1; stroke-width: 0.7"/>
     </g>
     <g id="line2d_42">
      <g>
       <use xlink:href="#m3aeeef9c39" x="43.15875" y="371.11819" style="stroke: #000000; stroke-width: 0.8"/>
      </g>
     </g>
     <g id="text_20">
      <!-- 0.0 -->
      <g transform="translate(21.845937 374.537487) scale(0.09 -0.09)">
       <use xlink:href="#DejaVuSans-30"/>
       <use xlink:href="#DejaVuSans-2e" transform="translate(63.623047 0)"/>
       <use xlink:href="#DejaVuSans-30" transform="translate(95.410156 0)"/>
      </g>
     </g>
    </g>
    <g id="ytick_7">
     <g id="line2d_43">
      <path d="M 43.15875 347.417606 
L 528.61875 347.417606 
" clip-path="url(#pc624402375)" style="fill: none; stroke-dasharray: 0.7,1.155; stroke-dashoffset: 0; stroke: #cbd5e1; stroke-width: 0.7"/>
     </g>
     <g id="line2d_44">
      <g>
       <use xlink:href="#m3aeeef9c39" x="43.15875" y="347.417606" style="stroke: #000000; stroke-width: 0.8"/>
      </g>
     </g>
     <g id="text_21">
      <!-- 0.2 -->
      <g transform="translate(21.845937 350.836903) scale(0.09 -0.09)">
       <use xlink:href="#DejaVuSans-30"/>
       <use xlink:href="#DejaVuSans-2e" transform="translate(63.623047 0)"/>
       <use xlink:href="#DejaVuSans-32" transform="translate(95.410156 0)"/>
      </g>
     </g>
    </g>
    <g id="ytick_8">
     <g id="line2d_45">
      <path d="M 43.15875 323.717022 
L 528.61875 323.717022 
" clip-path="url(#pc624402375)" style="fill: none; stroke-dasharray: 0.7,1.155; stroke-dashoffset: 0; stroke: #cbd5e1; stroke-width: 0.7"/>
     </g>
     <g id="line2d_46">
      <g>
       <use xlink:href="#m3aeeef9c39" x="43.15875" y="323.717022" style="stroke: #000000; stroke-width: 0.8"/>
      </g>
     </g>
     <g id="text_22">
      <!-- 0.4 -->
      <g transform="translate(21.845937 327.136319) scale(0.09 -0.09)">
       <use xlink:href="#DejaVuSans-30"/>
       <use xlink:href="#DejaVuSans-2e" transform="translate(63.623047 0)"/>
       <use xlink:href="#DejaVuSans-34" transform="translate(95.410156 0)"/>
      </g>
     </g>
    </g>
    <g id="ytick_9">
     <g id="line2d_47">
      <path d="M 43.15875 300.016438 
L 528.61875 300.016438 
" clip-path="url(#pc624402375)" style="fill: none; stroke-dasharray: 0.7,1.155; stroke-dashoffset: 0; stroke: #cbd5e1; stroke-width: 0.7"/>
     </g>
     <g id="line2d_48">
      <g>
       <use xlink:href="#m3aeeef9c39" x="43.15875" y="300.016438" style="stroke: #000000; stroke-width: 0.8"/>
      </g>
     </g>
     <g id="text_23">
      <!-- 0.6 -->
      <g transform="translate(21.845937 303.435735) scale(0.09 -0.09)">
       <defs>
        <path id="DejaVuSans-36" d="M 2113 2584 
Q 1688 2584 1439 2293 
Q 1191 2003 1191 1497 
Q 1191 994 1439 701 
Q 1688 409 2113 409 
Q 2538 409 2786 701 
Q 3034 994 3034 1497 
Q 3034 2003 2786 2293 
Q 2538 2584 2113 2584 
z
M 3366 4563 
L 3366 3988 
Q 3128 4100 2886 4159 
Q 2644 4219 2406 4219 
Q 1781 4219 1451 3797 
Q 1122 3375 1075 2522 
Q 1259 2794 1537 2939 
Q 1816 3084 2150 3084 
Q 2853 3084 3261 2657 
Q 3669 2231 3669 1497 
Q 3669 778 3244 343 
Q 2819 -91 2113 -91 
Q 1303 -91 875 529 
Q 447 1150 447 2328 
Q 447 3434 972 4092 
Q 1497 4750 2381 4750 
Q 2619 4750 2861 4703 
Q 3103 4656 3366 4563 
z
" transform="scale(0.015625)"/>
       </defs>
       <use xlink:href="#DejaVuSans-30"/>
       <use xlink:href="#DejaVuSans-2e" transform="translate(63.623047 0)"/>
       <use xlink:href="#DejaVuSans-36" transform="translate(95.410156 0)"/>
      </g>
     </g>
    </g>
    <g id="ytick_10">
     <g id="line2d_49">
      <path d="M 43.15875 276.315855 
L 528.61875 276.315855 
" clip-path="url(#pc624402375)" style="fill: none; stroke-dasharray: 0.7,1.155; stroke-dashoffset: 0; stroke: #cbd5e1; stroke-width: 0.7"/>
     </g>
     <g id="line2d_50">
      <g>
       <use xlink:href="#m3aeeef9c39" x="43.15875" y="276.315855" style="stroke: #000000; stroke-width: 0.8"/>
      </g>
     </g>
     <g id="text_24">
      <!-- 0.8 -->
      <g transform="translate(21.845937 279.735151) scale(0.09 -0.09)">
       <defs>
        <path id="DejaVuSans-38" d="M 2034 2216 
Q 1584 2216 1326 1975 
Q 1069 1734 1069 1313 
Q 1069 891 1326 650 
Q 1584 409 2034 409 
Q 2484 409 2743 651 
Q 3003 894 3003 1313 
Q 3003 1734 2745 1975 
Q 2488 2216 2034 2216 
z
M 1403 2484 
Q 997 2584 770 2862 
Q 544 3141 544 3541 
Q 544 4100 942 4425 
Q 1341 4750 2034 4750 
Q 2731 4750 3128 4425 
Q 3525 4100 3525 3541 
Q 3525 3141 3298 2862 
Q 3072 2584 2669 2484 
Q 3125 2378 3379 2068 
Q 3634 1759 3634 1313 
Q 3634 634 3220 271 
Q 2806 -91 2034 -91 
Q 1263 -91 848 271 
Q 434 634 434 1313 
Q 434 1759 690 2068 
Q 947 2378 1403 2484 
z
M 1172 3481 
Q 1172 3119 1398 2916 
Q 1625 2713 2034 2713 
Q 2441 2713 2670 2916 
Q 2900 3119 2900 3481 
Q 2900 3844 2670 4047 
Q 2441 4250 2034 4250 
Q 1625 4250 1398 4047 
Q 1172 3844 1172 3481 
z
" transform="scale(0.015625)"/>
       </defs>
       <use xlink:href="#DejaVuSans-30"/>
       <use xlink:href="#DejaVuSans-2e" transform="translate(63.623047 0)"/>
       <use xlink:href="#DejaVuSans-38" transform="translate(95.410156 0)"/>
      </g>
     </g>
    </g>
    <g id="text_25">
     <!-- absolute residual -->
     <g transform="translate(15.558281 370.601082) rotate(-90) scale(0.11 -0.11)">
      <use xlink:href="#DejaVuSans-61"/>
      <use xlink:href="#DejaVuSans-62" transform="translate(61.279297 0)"/>
      <use xlink:href="#DejaVuSans-73" transform="translate(124.755859 0)"/>
      <use xlink:href="#DejaVuSans-6f" transform="translate(176.855469 0)"/>
      <use xlink:href="#DejaVuSans-6c" transform="translate(238.037109 0)"/>
      <use xlink:href="#DejaVuSans-75" transform="translate(265.820312 0)"/>
      <use xlink:href="#DejaVuSans-74" transform="translate(329.199219 0)"/>
      <use xlink:href="#DejaVuSans-65" transform="translate(368.408203 0)"/>
      <use xlink:href="#DejaVuSans-20" transform="translate(429.931641 0)"/>
      <use xlink:href="#DejaVuSans-72" transform="translate(461.71875 0)"/>
      <use xlink:href="#DejaVuSans-65" transform="translate(500.582031 0)"/>
      <use xlink:href="#DejaVuSans-73" transform="translate(562.105469 0)"/>
      <use xlink:href="#DejaVuSans-69" transform="translate(614.205078 0)"/>
      <use xlink:href="#DejaVuSans-64" transform="translate(641.988281 0)"/>
      <use xlink:href="#DejaVuSans-75" transform="translate(705.464844 0)"/>
      <use xlink:href="#DejaVuSans-61" transform="translate(768.84375 0)"/>
      <use xlink:href="#DejaVuSans-6c" transform="translate(830.123047 0)"/>
     </g>
    </g>
   </g>
   <g id="line2d_51">
    <path d="M 65.225114 363.359928 
L 75.032386 369.68762 
L 84.839659 369.870538 
L 94.646932 363.339268 
L 104.454205 364.814841 
L 114.261477 364.395315 
L 124.06875 369.421251 
L 133.876023 367.250643 
L 143.683295 278.843635 
L 153.490568 360.539501 
L 163.297841 367.235205 
L 173.105114 368.373366 
L 182.912386 370.400835 
L 192.719659 368.661222 
L 202.526932 367.845849 
L 212.334205 370.727844 
L 222.141477 369.078143 
L 231.94875 369.032408 
L 241.756023 369.357644 
L 251.563295 369.295531 
L 261.370568 366.580541 
L 271.177841 363.99214 
L 280.985114 303.253032 
L 290.792386 367.630052 
L 300.599659 362.503703 
L 310.406932 367.142614 
L 320.214205 368.624046 
L 330.021477 365.653656 
L 339.82875 364.446823 
L 349.636023 370.819098 
L 359.443295 367.821379 
L 369.250568 369.74974 
L 379.057841 367.652711 
L 388.865114 369.885157 
L 398.672386 368.491879 
L 408.479659 369.538603 
L 418.286932 369.182944 
L 428.094205 293.634906 
L 437.901477 369.954326 
L 447.70875 367.445804 
L 457.516023 369.968351 
L 467.323295 370.378319 
L 477.130568 366.8432 
L 486.937841 365.511492 
L 496.745114 368.098369 
L 506.552386 367.3686 
" clip-path="url(#pc624402375)" style="fill: none; stroke: #dc2626; stroke-width: 1.8; stroke-linecap: square"/>
    <defs>
     <path id="m4ca0f80590" d="M 0 1.75 
C 0.464105 1.75 0.909265 1.565609 1.237437 1.237437 
C 1.565609 0.909265 1.75 0.464105 1.75 0 
C 1.75 -0.464105 1.565609 -0.909265 1.237437 -1.237437 
C 0.909265 -1.565609 0.464105 -1.75 0 -1.75 
C -0.464105 -1.75 -0.909265 -1.565609 -1.237437 -1.237437 
C -1.565609 -0.909265 -1.75 -0.464105 -1.75 0 
C -1.75 0.464105 -1.565609 0.909265 -1.237437 1.237437 
C -0.909265 1.565609 -0.464105 1.75 0 1.75 
z
" style="stroke: #dc2626"/>
    </defs>
    <g clip-path="url(#pc624402375)">
     <use xlink:href="#m4ca0f80590" x="65.225114" y="363.359928" style="fill: #dc2626; stroke: #dc2626"/>
     <use xlink:href="#m4ca0f80590" x="75.032386" y="369.68762" style="fill: #dc2626; stroke: #dc2626"/>
     <use xlink:href="#m4ca0f80590" x="84.839659" y="369.870538" style="fill: #dc2626; stroke: #dc2626"/>
     <use xlink:href="#m4ca0f80590" x="94.646932" y="363.339268" style="fill: #dc2626; stroke: #dc2626"/>
     <use xlink:href="#m4ca0f80590" x="104.454205" y="364.814841" style="fill: #dc2626; stroke: #dc2626"/>
     <use xlink:href="#m4ca0f80590" x="114.261477" y="364.395315" style="fill: #dc2626; stroke: #dc2626"/>
     <use xlink:href="#m4ca0f80590" x="124.06875" y="369.421251" style="fill: #dc2626; stroke: #dc2626"/>
     <use xlink:href="#m4ca0f80590" x="133.876023" y="367.250643" style="fill: #dc2626; stroke: #dc2626"/>
     <use xlink:href="#m4ca0f80590" x="143.683295" y="278.843635" style="fill: #dc2626; stroke: #dc2626"/>
     <use xlink:href="#m4ca0f80590" x="153.490568" y="360.539501" style="fill: #dc2626; stroke: #dc2626"/>
     <use xlink:href="#m4ca0f80590" x="163.297841" y="367.235205" style="fill: #dc2626; stroke: #dc2626"/>
     <use xlink:href="#m4ca0f80590" x="173.105114" y="368.373366" style="fill: #dc2626; stroke: #dc2626"/>
     <use xlink:href="#m4ca0f80590" x="182.912386" y="370.400835" style="fill: #dc2626; stroke: #dc2626"/>
     <use xlink:href="#m4ca0f80590" x="192.719659" y="368.661222" style="fill: #dc2626; stroke: #dc2626"/>
     <use xlink:href="#m4ca0f80590" x="202.526932" y="367.845849" style="fill: #dc2626; stroke: #dc2626"/>
     <use xlink:href="#m4ca0f80590" x="212.334205" y="370.727844" style="fill: #dc2626; stroke: #dc2626"/>
     <use xlink:href="#m4ca0f80590" x="222.141477" y="369.078143" style="fill: #dc2626; stroke: #dc2626"/>
     <use xlink:href="#m4ca0f80590" x="231.94875" y="369.032408" style="fill: #dc2626; stroke: #dc2626"/>
     <use xlink:href="#m4ca0f80590" x="241.756023" y="369.357644" style="fill: #dc2626; stroke: #dc2626"/>
     <use xlink:href="#m4ca0f80590" x="251.563295" y="369.295531" style="fill: #dc2626; stroke: #dc2626"/>
     <use xlink:href="#m4ca0f80590" x="261.370568" y="366.580541" style="fill: #dc2626; stroke: #dc2626"/>
     <use xlink:href="#m4ca0f80590" x="271.177841" y="363.99214" style="fill: #dc2626; stroke: #dc2626"/>
     <use xlink:href="#m4ca0f80590" x="280.985114" y="303.253032" style="fill: #dc2626; stroke: #dc2626"/>
     <use xlink:href="#m4ca0f80590" x="290.792386" y="367.630052" style="fill: #dc2626; stroke: #dc2626"/>
     <use xlink:href="#m4ca0f80590" x="300.599659" y="362.503703" style="fill: #dc2626; stroke: #dc2626"/>
     <use xlink:href="#m4ca0f80590" x="310.406932" y="367.142614" style="fill: #dc2626; stroke: #dc2626"/>
     <use xlink:href="#m4ca0f80590" x="320.214205" y="368.624046" style="fill: #dc2626; stroke: #dc2626"/>
     <use xlink:href="#m4ca0f80590" x="330.021477" y="365.653656" style="fill: #dc2626; stroke: #dc2626"/>
     <use xlink:href="#m4ca0f80590" x="339.82875" y="364.446823" style="fill: #dc2626; stroke: #dc2626"/>
     <use xlink:href="#m4ca0f80590" x="349.636023" y="370.819098" style="fill: #dc2626; stroke: #dc2626"/>
     <use xlink:href="#m4ca0f80590" x="359.443295" y="367.821379" style="fill: #dc2626; stroke: #dc2626"/>
     <use xlink:href="#m4ca0f80590" x="369.250568" y="369.74974" style="fill: #dc2626; stroke: #dc2626"/>
     <use xlink:href="#m4ca0f80590" x="379.057841" y="367.652711" style="fill: #dc2626; stroke: #dc2626"/>
     <use xlink:href="#m4ca0f80590" x="388.865114" y="369.885157" style="fill: #dc2626; stroke: #dc2626"/>
     <use xlink:href="#m4ca0f80590" x="398.672386" y="368.491879" style="fill: #dc2626; stroke: #dc2626"/>
     <use xlink:href="#m4ca0f80590" x="408.479659" y="369.538603" style="fill: #dc2626; stroke: #dc2626"/>
     <use xlink:href="#m4ca0f80590" x="418.286932" y="369.182944" style="fill: #dc2626; stroke: #dc2626"/>
     <use xlink:href="#m4ca0f80590" x="428.094205" y="293.634906" style="fill: #dc2626; stroke: #dc2626"/>
     <use xlink:href="#m4ca0f80590" x="437.901477" y="369.954326" style="fill: #dc2626; stroke: #dc2626"/>
     <use xlink:href="#m4ca0f80590" x="447.70875" y="367.445804" style="fill: #dc2626; stroke: #dc2626"/>
     <use xlink:href="#m4ca0f80590" x="457.516023" y="369.968351" style="fill: #dc2626; stroke: #dc2626"/>
     <use xlink:href="#m4ca0f80590" x="467.323295" y="370.378319" style="fill: #dc2626; stroke: #dc2626"/>
     <use xlink:href="#m4ca0f80590" x="477.130568" y="366.8432" style="fill: #dc2626; stroke: #dc2626"/>
     <use xlink:href="#m4ca0f80590" x="486.937841" y="365.511492" style="fill: #dc2626; stroke: #dc2626"/>
     <use xlink:href="#m4ca0f80590" x="496.745114" y="368.098369" style="fill: #dc2626; stroke: #dc2626"/>
     <use xlink:href="#m4ca0f80590" x="506.552386" y="367.3686" style="fill: #dc2626; stroke: #dc2626"/>
    </g>
   </g>
   <g id="line2d_52">
    <path d="M 65.225114 368.408158 
L 75.032386 367.819753 
L 84.839659 367.929668 
L 94.646932 367.506825 
L 104.454205 368.736006 
L 114.261477 368.090478 
L 124.06875 369.327257 
L 133.876023 370.548389 
L 143.683295 275.720263 
L 153.490568 363.50295 
L 163.297841 364.418423 
L 173.105114 371.055645 
L 182.912386 367.841904 
L 192.719659 371.107041 
L 202.526932 370.187945 
L 212.334205 368.480859 
L 222.141477 366.918369 
L 231.94875 371.112215 
L 241.756023 370.872249 
L 251.563295 367.35627 
L 261.370568 368.458166 
L 271.177841 365.813257 
L 280.985114 305.022341 
L 290.792386 369.351865 
L 300.599659 364.181975 
L 310.406932 368.78097 
L 320.214205 370.225811 
L 330.021477 367.221879 
L 339.82875 365.984299 
L 349.636023 369.90799 
L 359.443295 366.337921 
L 369.250568 371.02686 
L 379.057841 369.090786 
L 388.865114 368.466973 
L 398.672386 367.091928 
L 408.479659 370.921845 
L 418.286932 367.815017 
L 428.094205 292.281014 
L 437.901477 370.941023 
L 447.70875 368.775047 
L 457.516023 368.64991 
L 467.323295 369.069778 
L 477.130568 365.54373 
L 486.937841 366.802651 
L 496.745114 369.38191 
L 506.552386 368.645162 
" clip-path="url(#pc624402375)" style="fill: none; stroke: #2563eb; stroke-width: 1.8; stroke-linecap: square"/>
    <defs>
     <path id="m7acc0fecd1" d="M -1.75 1.75 
L 1.75 1.75 
L 1.75 -1.75 
L -1.75 -1.75 
z
" style="stroke: #2563eb; stroke-linejoin: miter"/>
    </defs>
    <g clip-path="url(#pc624402375)">
     <use xlink:href="#m7acc0fecd1" x="65.225114" y="368.408158" style="fill: #2563eb; stroke: #2563eb; stroke-linejoin: miter"/>
     <use xlink:href="#m7acc0fecd1" x="75.032386" y="367.819753" style="fill: #2563eb; stroke: #2563eb; stroke-linejoin: miter"/>
     <use xlink:href="#m7acc0fecd1" x="84.839659" y="367.929668" style="fill: #2563eb; stroke: #2563eb; stroke-linejoin: miter"/>
     <use xlink:href="#m7acc0fecd1" x="94.646932" y="367.506825" style="fill: #2563eb; stroke: #2563eb; stroke-linejoin: miter"/>
     <use xlink:href="#m7acc0fecd1" x="104.454205" y="368.736006" style="fill: #2563eb; stroke: #2563eb; stroke-linejoin: miter"/>
     <use xlink:href="#m7acc0fecd1" x="114.261477" y="368.090478" style="fill: #2563eb; stroke: #2563eb; stroke-linejoin: miter"/>
     <use xlink:href="#m7acc0fecd1" x="124.06875" y="369.327257" style="fill: #2563eb; stroke: #2563eb; stroke-linejoin: miter"/>
     <use xlink:href="#m7acc0fecd1" x="133.876023" y="370.548389" style="fill: #2563eb; stroke: #2563eb; stroke-linejoin: miter"/>
     <use xlink:href="#m7acc0fecd1" x="143.683295" y="275.720263" style="fill: #2563eb; stroke: #2563eb; stroke-linejoin: miter"/>
     <use xlink:href="#m7acc0fecd1" x="153.490568" y="363.50295" style="fill: #2563eb; stroke: #2563eb; stroke-linejoin: miter"/>
     <use xlink:href="#m7acc0fecd1" x="163.297841" y="364.418423" style="fill: #2563eb; stroke: #2563eb; stroke-linejoin: miter"/>
     <use xlink:href="#m7acc0fecd1" x="173.105114" y="371.055645" style="fill: #2563eb; stroke: #2563eb; stroke-linejoin: miter"/>
     <use xlink:href="#m7acc0fecd1" x="182.912386" y="367.841904" style="fill: #2563eb; stroke: #2563eb; stroke-linejoin: miter"/>
     <use xlink:href="#m7acc0fecd1" x="192.719659" y="371.107041" style="fill: #2563eb; stroke: #2563eb; stroke-linejoin: miter"/>
     <use xlink:href="#m7acc0fecd1" x="202.526932" y="370.187945" style="fill: #2563eb; stroke: #2563eb; stroke-linejoin: miter"/>
     <use xlink:href="#m7acc0fecd1" x="212.334205" y="368.480859" style="fill: #2563eb; stroke: #2563eb; stroke-linejoin: miter"/>
     <use xlink:href="#m7acc0fecd1" x="222.141477" y="366.918369" style="fill: #2563eb; stroke: #2563eb; stroke-linejoin: miter"/>
     <use xlink:href="#m7acc0fecd1" x="231.94875" y="371.112215" style="fill: #2563eb; stroke: #2563eb; stroke-linejoin: miter"/>
     <use xlink:href="#m7acc0fecd1" x="241.756023" y="370.872249" style="fill: #2563eb; stroke: #2563eb; stroke-linejoin: miter"/>
     <use xlink:href="#m7acc0fecd1" x="251.563295" y="367.35627" style="fill: #2563eb; stroke: #2563eb; stroke-linejoin: miter"/>
     <use xlink:href="#m7acc0fecd1" x="261.370568" y="368.458166" style="fill: #2563eb; stroke: #2563eb; stroke-linejoin: miter"/>
     <use xlink:href="#m7acc0fecd1" x="271.177841" y="365.813257" style="fill: #2563eb; stroke: #2563eb; stroke-linejoin: miter"/>
     <use xlink:href="#m7acc0fecd1" x="280.985114" y="305.022341" style="fill: #2563eb; stroke: #2563eb; stroke-linejoin: miter"/>
     <use xlink:href="#m7acc0fecd1" x="290.792386" y="369.351865" style="fill: #2563eb; stroke: #2563eb; stroke-linejoin: miter"/>
     <use xlink:href="#m7acc0fecd1" x="300.599659" y="364.181975" style="fill: #2563eb; stroke: #2563eb; stroke-linejoin: miter"/>
     <use xlink:href="#m7acc0fecd1" x="310.406932" y="368.78097" style="fill: #2563eb; stroke: #2563eb; stroke-linejoin: miter"/>
     <use xlink:href="#m7acc0fecd1" x="320.214205" y="370.225811" style="fill: #2563eb; stroke: #2563eb; stroke-linejoin: miter"/>
     <use xlink:href="#m7acc0fecd1" x="330.021477" y="367.221879" style="fill: #2563eb; stroke: #2563eb; stroke-linejoin: miter"/>
     <use xlink:href="#m7acc0fecd1" x="339.82875" y="365.984299" style="fill: #2563eb; stroke: #2563eb; stroke-linejoin: miter"/>
     <use xlink:href="#m7acc0fecd1" x="349.636023" y="369.90799" style="fill: #2563eb; stroke: #2563eb; stroke-linejoin: miter"/>
     <use xlink:href="#m7acc0fecd1" x="359.443295" y="366.337921" style="fill: #2563eb; stroke: #2563eb; stroke-linejoin: miter"/>
     <use xlink:href="#m7acc0fecd1" x="369.250568" y="371.02686" style="fill: #2563eb; stroke: #2563eb; stroke-linejoin: miter"/>
     <use xlink:href="#m7acc0fecd1" x="379.057841" y="369.090786" style="fill: #2563eb; stroke: #2563eb; stroke-linejoin: miter"/>
     <use xlink:href="#m7acc0fecd1" x="388.865114" y="368.466973" style="fill: #2563eb; stroke: #2563eb; stroke-linejoin: miter"/>
     <use xlink:href="#m7acc0fecd1" x="398.672386" y="367.091928" style="fill: #2563eb; stroke: #2563eb; stroke-linejoin: miter"/>
     <use xlink:href="#m7acc0fecd1" x="408.479659" y="370.921845" style="fill: #2563eb; stroke: #2563eb; stroke-linejoin: miter"/>
     <use xlink:href="#m7acc0fecd1" x="418.286932" y="367.815017" style="fill: #2563eb; stroke: #2563eb; stroke-linejoin: miter"/>
     <use xlink:href="#m7acc0fecd1" x="428.094205" y="292.281014" style="fill: #2563eb; stroke: #2563eb; stroke-linejoin: miter"/>
     <use xlink:href="#m7acc0fecd1" x="437.901477" y="370.941023" style="fill: #2563eb; stroke: #2563eb; stroke-linejoin: miter"/>
     <use xlink:href="#m7acc0fecd1" x="447.70875" y="368.775047" style="fill: #2563eb; stroke: #2563eb; stroke-linejoin: miter"/>
     <use xlink:href="#m7acc0fecd1" x="457.516023" y="368.64991" style="fill: #2563eb; stroke: #2563eb; stroke-linejoin: miter"/>
     <use xlink:href="#m7acc0fecd1" x="467.323295" y="369.069778" style="fill: #2563eb; stroke: #2563eb; stroke-linejoin: miter"/>
     <use xlink:href="#m7acc0fecd1" x="477.130568" y="365.54373" style="fill: #2563eb; stroke: #2563eb; stroke-linejoin: miter"/>
     <use xlink:href="#m7acc0fecd1" x="486.937841" y="366.802651" style="fill: #2563eb; stroke: #2563eb; stroke-linejoin: miter"/>
     <use xlink:href="#m7acc0fecd1" x="496.745114" y="369.38191" style="fill: #2563eb; stroke: #2563eb; stroke-linejoin: miter"/>
     <use xlink:href="#m7acc0fecd1" x="506.552386" y="368.645162" style="fill: #2563eb; stroke: #2563eb; stroke-linejoin: miter"/>
    </g>
   </g>
   <g id="patch_6">
    <path d="M 43.15875 375.881812 
L 43.15875 270.950665 
" style="fill: none; stroke: #000000; stroke-width: 0.8; stroke-linejoin: miter; stroke-linecap: square"/>
   </g>
   <g id="patch_7">
    <path d="M 43.15875 375.881812 
L 528.61875 375.881812 
" style="fill: none; stroke: #000000; stroke-width: 0.8; stroke-linejoin: miter; stroke-linecap: square"/>
   </g>
   <g id="text_26">
    <g id="patch_8">
     <path d="M 57.72255 300.234189 
L 267.702394 300.234189 
Q 270.852394 300.234189 270.852394 297.084189 
L 270.852394 278.295845 
Q 270.852394 275.145845 267.702394 275.145845 
L 57.72255 275.145845 
Q 54.57255 275.145845 54.57255 278.295845 
L 54.57255 297.084189 
Q 54.57255 300.234189 57.72255 300.234189 
z
" style="fill: #ffffff; stroke: #cbd5e1; stroke-linejoin: miter"/>
    </g>
    <!-- Robust loss accepts larger residuals at outliers -->
    <g style="fill: #374151" transform="translate(57.72255 285.134439) scale(0.09 -0.09)">
     <use xlink:href="#DejaVuSans-52"/>
     <use xlink:href="#DejaVuSans-6f" transform="translate(64.982422 0)"/>
     <use xlink:href="#DejaVuSans-62" transform="translate(126.164062 0)"/>
     <use xlink:href="#DejaVuSans-75" transform="translate(189.640625 0)"/>
     <use xlink:href="#DejaVuSans-73" transform="translate(253.019531 0)"/>
     <use xlink:href="#DejaVuSans-74" transform="translate(305.119141 0)"/>
     <use xlink:href="#DejaVuSans-20" transform="translate(344.328125 0)"/>
     <use xlink:href="#DejaVuSans-6c" transform="translate(376.115234 0)"/>
     <use xlink:href="#DejaVuSans-6f" transform="translate(403.898438 0)"/>
     <use xlink:href="#DejaVuSans-73" transform="translate(465.080078 0)"/>
     <use xlink:href="#DejaVuSans-73" transform="translate(517.179688 0)"/>
     <use xlink:href="#DejaVuSans-20" transform="translate(569.279297 0)"/>
     <use xlink:href="#DejaVuSans-61" transform="translate(601.066406 0)"/>
     <use xlink:href="#DejaVuSans-63" transform="translate(662.345703 0)"/>
     <use xlink:href="#DejaVuSans-63" transform="translate(717.326172 0)"/>
     <use xlink:href="#DejaVuSans-65" transform="translate(772.306641 0)"/>
     <use xlink:href="#DejaVuSans-70" transform="translate(833.830078 0)"/>
     <use xlink:href="#DejaVuSans-74" transform="translate(897.306641 0)"/>
     <use xlink:href="#DejaVuSans-73" transform="translate(936.515625 0)"/>
     <use xlink:href="#DejaVuSans-20" transform="translate(988.615234 0)"/>
     <use xlink:href="#DejaVuSans-6c" transform="translate(1020.402344 0)"/>
     <use xlink:href="#DejaVuSans-61" transform="translate(1048.185547 0)"/>
     <use xlink:href="#DejaVuSans-72" transform="translate(1109.464844 0)"/>
     <use xlink:href="#DejaVuSans-67" transform="translate(1148.828125 0)"/>
     <use xlink:href="#DejaVuSans-65" transform="translate(1212.304688 0)"/>
     <use xlink:href="#DejaVuSans-72" transform="translate(1273.828125 0)"/>
     <use xlink:href="#DejaVuSans-20" transform="translate(1314.941406 0)"/>
     <use xlink:href="#DejaVuSans-72" transform="translate(1346.728516 0)"/>
     <use xlink:href="#DejaVuSans-65" transform="translate(1385.591797 0)"/>
     <use xlink:href="#DejaVuSans-73" transform="translate(1447.115234 0)"/>
     <use xlink:href="#DejaVuSans-69" transform="translate(1499.214844 0)"/>
     <use xlink:href="#DejaVuSans-64" transform="translate(1526.998047 0)"/>
     <use xlink:href="#DejaVuSans-75" transform="translate(1590.474609 0)"/>
     <use xlink:href="#DejaVuSans-61" transform="translate(1653.853516 0)"/>
     <use xlink:href="#DejaVuSans-6c" transform="translate(1715.132812 0)"/>
     <use xlink:href="#DejaVuSans-73" transform="translate(1742.916016 0)"/>
     <use xlink:href="#DejaVuSans-20" transform="translate(1795.015625 0)"/>
     <use xlink:href="#DejaVuSans-61" transform="translate(1826.802734 0)"/>
     <use xlink:href="#DejaVuSans-74" transform="translate(1888.082031 0)"/>
     <use xlink:href="#DejaVuSans-20" transform="translate(1927.291016 0)"/>
     <use xlink:href="#DejaVuSans-6f" transform="translate(1959.078125 0)"/>
     <use xlink:href="#DejaVuSans-75" transform="translate(2020.259766 0)"/>
     <use xlink:href="#DejaVuSans-74" transform="translate(2083.638672 0)"/>
     <use xlink:href="#DejaVuSans-6c" transform="translate(2122.847656 0)"/>
     <use xlink:href="#DejaVuSans-69" transform="translate(2150.630859 0)"/>
     <use xlink:href="#DejaVuSans-65" transform="translate(2178.414062 0)"/>
     <use xlink:href="#DejaVuSans-72" transform="translate(2239.9375 0)"/>
     <use xlink:href="#DejaVuSans-73" transform="translate(2281.050781 0)"/>
    </g>
    <!-- so the main trend is fitted better. -->
    <g style="fill: #374151" transform="translate(57.72255 295.21247) scale(0.09 -0.09)">
     <defs>
      <path id="DejaVuSans-68" d="M 3513 2113 
L 3513 0 
L 2938 0 
L 2938 2094 
Q 2938 2591 2744 2837 
Q 2550 3084 2163 3084 
Q 1697 3084 1428 2787 
Q 1159 2491 1159 1978 
L 1159 0 
L 581 0 
L 581 4863 
L 1159 4863 
L 1159 2956 
Q 1366 3272 1645 3428 
Q 1925 3584 2291 3584 
Q 2894 3584 3203 3211 
Q 3513 2838 3513 2113 
z
" transform="scale(0.015625)"/>
      <path id="DejaVuSans-6d" d="M 3328 2828 
Q 3544 3216 3844 3400 
Q 4144 3584 4550 3584 
Q 5097 3584 5394 3201 
Q 5691 2819 5691 2113 
L 5691 0 
L 5113 0 
L 5113 2094 
Q 5113 2597 4934 2840 
Q 4756 3084 4391 3084 
Q 3944 3084 3684 2787 
Q 3425 2491 3425 1978 
L 3425 0 
L 2847 0 
L 2847 2094 
Q 2847 2600 2669 2842 
Q 2491 3084 2119 3084 
Q 1678 3084 1418 2786 
Q 1159 2488 1159 1978 
L 1159 0 
L 581 0 
L 581 3500 
L 1159 3500 
L 1159 2956 
Q 1356 3278 1631 3431 
Q 1906 3584 2284 3584 
Q 2666 3584 2933 3390 
Q 3200 3197 3328 2828 
z
" transform="scale(0.015625)"/>
     </defs>
     <use xlink:href="#DejaVuSans-73"/>
     <use xlink:href="#DejaVuSans-6f" transform="translate(52.099609 0)"/>
     <use xlink:href="#DejaVuSans-20" transform="translate(113.28125 0)"/>
     <use xlink:href="#DejaVuSans-74" transform="translate(145.068359 0)"/>
     <use xlink:href="#DejaVuSans-68" transform="translate(184.277344 0)"/>
     <use xlink:href="#DejaVuSans-65" transform="translate(247.65625 0)"/>
     <use xlink:href="#DejaVuSans-20" transform="translate(309.179688 0)"/>
     <use xlink:href="#DejaVuSans-6d" transform="translate(340.966797 0)"/>
     <use xlink:href="#DejaVuSans-61" transform="translate(438.378906 0)"/>
     <use xlink:href="#DejaVuSans-69" transform="translate(499.658203 0)"/>
     <use xlink:href="#DejaVuSans-6e" transform="translate(527.441406 0)"/>
     <use xlink:href="#DejaVuSans-20" transform="translate(590.820312 0)"/>
     <use xlink:href="#DejaVuSans-74" transform="translate(622.607422 0)"/>
     <use xlink:href="#DejaVuSans-72" transform="translate(661.816406 0)"/>
     <use xlink:href="#DejaVuSans-65" transform="translate(700.679688 0)"/>
     <use xlink:href="#DejaVuSans-6e" transform="translate(762.203125 0)"/>
     <use xlink:href="#DejaVuSans-64" transform="translate(825.582031 0)"/>
     <use xlink:href="#DejaVuSans-20" transform="translate(889.058594 0)"/>
     <use xlink:href="#DejaVuSans-69" transform="translate(920.845703 0)"/>
     <use xlink:href="#DejaVuSans-73" transform="translate(948.628906 0)"/>
     <use xlink:href="#DejaVuSans-20" transform="translate(1000.728516 0)"/>
     <use xlink:href="#DejaVuSans-66" transform="translate(1032.515625 0)"/>
     <use xlink:href="#DejaVuSans-69" transform="translate(1067.720703 0)"/>
     <use xlink:href="#DejaVuSans-74" transform="translate(1095.503906 0)"/>
     <use xlink:href="#DejaVuSans-74" transform="translate(1134.712891 0)"/>
     <use xlink:href="#DejaVuSans-65" transform="translate(1173.921875 0)"/>
     <use xlink:href="#DejaVuSans-64" transform="translate(1235.445312 0)"/>
     <use xlink:href="#DejaVuSans-20" transform="translate(1298.921875 0)"/>
     <use xlink:href="#DejaVuSans-62" transform="translate(1330.708984 0)"/>
     <use xlink:href="#DejaVuSans-65" transform="translate(1394.185547 0)"/>
     <use xlink:href="#DejaVuSans-74" transform="translate(1455.708984 0)"/>
     <use xlink:href="#DejaVuSans-74" transform="translate(1494.917969 0)"/>
     <use xlink:href="#DejaVuSans-65" transform="translate(1534.126953 0)"/>
     <use xlink:href="#DejaVuSans-72" transform="translate(1595.650391 0)"/>
     <use xlink:href="#DejaVuSans-2e" transform="translate(1627.638672 0)"/>
    </g>
   </g>
   <g id="legend_2">
    <g id="line2d_53">
     <path d="M 409.35 284.092852 
L 419.35 284.092852 
L 429.35 284.092852 
" style="fill: none; stroke: #dc2626; stroke-width: 1.8; stroke-linecap: square"/>
     <g>
      <use xlink:href="#m4ca0f80590" x="419.35" y="284.092852" style="fill: #dc2626; stroke: #dc2626"/>
     </g>
    </g>
    <g id="text_27">
     <!-- linear |residual| -->
     <g transform="translate(437.35 287.592852) scale(0.1 -0.1)">
      <defs>
       <path id="DejaVuSans-7c" d="M 1344 4891 
L 1344 -1509 
L 813 -1509 
L 813 4891 
L 1344 4891 
z
" transform="scale(0.015625)"/>
      </defs>
      <use xlink:href="#DejaVuSans-6c"/>
      <use xlink:href="#DejaVuSans-69" transform="translate(27.783203 0)"/>
      <use xlink:href="#DejaVuSans-6e" transform="translate(55.566406 0)"/>
      <use xlink:href="#DejaVuSans-65" transform="translate(118.945312 0)"/>
      <use xlink:href="#DejaVuSans-61" transform="translate(180.46875 0)"/>
      <use xlink:href="#DejaVuSans-72" transform="translate(241.748047 0)"/>
      <use xlink:href="#DejaVuSans-20" transform="translate(282.861328 0)"/>
      <use xlink:href="#DejaVuSans-7c" transform="translate(314.648438 0)"/>
      <use xlink:href="#DejaVuSans-72" transform="translate(348.339844 0)"/>
      <use xlink:href="#DejaVuSans-65" transform="translate(387.203125 0)"/>
      <use xlink:href="#DejaVuSans-73" transform="translate(448.726562 0)"/>
      <use xlink:href="#DejaVuSans-69" transform="translate(500.826172 0)"/>
      <use xlink:href="#DejaVuSans-64" transform="translate(528.609375 0)"/>
      <use xlink:href="#DejaVuSans-75" transform="translate(592.085938 0)"/>
      <use xlink:href="#DejaVuSans-61" transform="translate(655.464844 0)"/>
      <use xlink:href="#DejaVuSans-6c" transform="translate(716.744141 0)"/>
      <use xlink:href="#DejaVuSans-7c" transform="translate(744.527344 0)"/>
     </g>
    </g>
    <g id="line2d_54">
     <path d="M 409.35 299.092852 
L 419.35 299.092852 
L 429.35 299.092852 
" style="fill: none; stroke: #2563eb; stroke-width: 1.8; stroke-linecap: square"/>
     <g>
      <use xlink:href="#m7acc0fecd1" x="419.35" y="299.092852" style="fill: #2563eb; stroke: #2563eb; stroke-linejoin: miter"/>
     </g>
    </g>
    <g id="text_28">
     <!-- soft_l1 |residual| -->
     <g transform="translate(437.35 302.592852) scale(0.1 -0.1)">
      <use xlink:href="#DejaVuSans-73"/>
      <use xlink:href="#DejaVuSans-6f" transform="translate(52.099609 0)"/>
      <use xlink:href="#DejaVuSans-66" transform="translate(113.28125 0)"/>
      <use xlink:href="#DejaVuSans-74" transform="translate(146.736328 0)"/>
      <use xlink:href="#DejaVuSans-5f" transform="translate(185.945312 0)"/>
      <use xlink:href="#DejaVuSans-6c" transform="translate(235.945312 0)"/>
      <use xlink:href="#DejaVuSans-31" transform="translate(263.728516 0)"/>
      <use xlink:href="#DejaVuSans-20" transform="translate(327.351562 0)"/>
      <use xlink:href="#DejaVuSans-7c" transform="translate(359.138672 0)"/>
      <use xlink:href="#DejaVuSans-72" transform="translate(392.830078 0)"/>
      <use xlink:href="#DejaVuSans-65" transform="translate(431.693359 0)"/>
      <use xlink:href="#DejaVuSans-73" transform="translate(493.216797 0)"/>
      <use xlink:href="#DejaVuSans-69" transform="translate(545.316406 0)"/>
      <use xlink:href="#DejaVuSans-64" transform="translate(573.099609 0)"/>
      <use xlink:href="#DejaVuSans-75" transform="translate(636.576172 0)"/>
      <use xlink:href="#DejaVuSans-61" transform="translate(699.955078 0)"/>
      <use xlink:href="#DejaVuSans-6c" transform="translate(761.234375 0)"/>
      <use xlink:href="#DejaVuSans-7c" transform="translate(789.017578 0)"/>
     </g>
    </g>
   </g>
  </g>
 </g>
 <defs>
  <clipPath id="p0ea9ead456">
   <rect x="43.15875" y="23.837812" width="485.46" height="215.108852"/>
  </clipPath>
  <clipPath id="pc624402375">
   <rect x="43.15875" y="270.950665" width="485.46" height="104.931148"/>
  </clipPath>
 </defs>
</svg>
