<?xml version="1.0" encoding="utf-8" standalone="no"?>
<!DOCTYPE svg PUBLIC "-//W3C//DTD SVG 1.1//EN"
  "http://www.w3.org/Graphics/SVG/1.1/DTD/svg11.dtd">
<svg xmlns:xlink="http://www.w3.org/1999/xlink" width="507.942812pt" height="394.058125pt" viewBox="0 0 507.942812 394.058125" xmlns="http://www.w3.org/2000/svg" version="1.1">
 <metadata>
  <rdf:RDF xmlns:dc="http://purl.org/dc/elements/1.1/" xmlns:cc="http://creativecommons.org/ns#" xmlns:rdf="http://www.w3.org/1999/02/22-rdf-syntax-ns#">
   <cc:Work>
    <dc:type rdf:resource="http://purl.org/dc/dcmitype/StillImage"/>
    <dc:date>2026-06-09T15:49:39.464600</dc:date>
    <dc:format>image/svg+xml</dc:format>
    <dc:creator>
     <cc:Agent>
      <dc:title>Matplotlib v3.10.8, https://matplotlib.org/</dc:title>
     </cc:Agent>
    </dc:creator>
   </cc:Work>
  </rdf:RDF>
 </metadata>
 <defs>
  <style type="text/css">*{stroke-linejoin: round; stroke-linecap: butt}</style>
 </defs>
 <g id="figure_1">
  <g id="patch_1">
   <path d="M 0 394.058125 
L 507.942812 394.058125 
L 507.942812 0 
L 0 0 
z
" style="fill: #ffffff"/>
  </g>
  <g id="axes_1">
   <g id="patch_2">
    <path d="M 43.182813 356.477812 
L 500.742813 356.477812 
L 500.742813 23.837812 
L 43.182813 23.837812 
z
" style="fill: #ffffff"/>
   </g>
   <g id="matplotlib.axis_1">
    <g id="xtick_1">
     <g id="line2d_1">
      <path d="M 119.002439 356.477812 
L 119.002439 23.837812 
" clip-path="url(#p5ab45f45e0)" style="fill: none; stroke-dasharray: 0.6,0.99; stroke-dashoffset: 0; stroke: #cbd5e1; stroke-width: 0.6"/>
     </g>
     <g id="line2d_2">
      <defs>
       <path id="md2600330d2" d="M 0 0 
L 0 3.5 
" style="stroke: #000000; stroke-width: 0.8"/>
      </defs>
      <g>
       <use xlink:href="#md2600330d2" x="119.002439" y="356.477812" style="stroke: #000000; stroke-width: 0.8"/>
      </g>
     </g>
     <g id="text_1">
      <!-- −0.3 -->
      <g transform="translate(108.075173 370.316406) scale(0.09 -0.09)">
       <defs>
        <path id="DejaVuSans-2212" d="M 678 2272 
L 4684 2272 
L 4684 1741 
L 678 1741 
L 678 2272 
z
" transform="scale(0.015625)"/>
        <path id="DejaVuSans-30" d="M 2034 4250 
Q 1547 4250 1301 3770 
Q 1056 3291 1056 2328 
Q 1056 1369 1301 889 
Q 1547 409 2034 409 
Q 2525 409 2770 889 
Q 3016 1369 3016 2328 
Q 3016 3291 2770 3770 
Q 2525 4250 2034 4250 
z
M 2034 4750 
Q 2819 4750 3233 4129 
Q 3647 3509 3647 2328 
Q 3647 1150 3233 529 
Q 2819 -91 2034 -91 
Q 1250 -91 836 529 
Q 422 1150 422 2328 
Q 422 3509 836 4129 
Q 1250 4750 2034 4750 
z
" transform="scale(0.015625)"/>
        <path id="DejaVuSans-2e" d="M 684 794 
L 1344 794 
L 1344 0 
L 684 0 
L 684 794 
z
" transform="scale(0.015625)"/>
        <path id="DejaVuSans-33" d="M 2597 2516 
Q 3050 2419 3304 2112 
Q 3559 1806 3559 1356 
Q 3559 666 3084 287 
Q 2609 -91 1734 -91 
Q 1441 -91 1130 -33 
Q 819 25 488 141 
L 488 750 
Q 750 597 1062 519 
Q 1375 441 1716 441 
Q 2309 441 2620 675 
Q 2931 909 2931 1356 
Q 2931 1769 2642 2001 
Q 2353 2234 1838 2234 
L 1294 2234 
L 1294 2753 
L 1863 2753 
Q 2328 2753 2575 2939 
Q 2822 3125 2822 3475 
Q 2822 3834 2567 4026 
Q 2313 4219 1838 4219 
Q 1578 4219 1281 4162 
Q 984 4106 628 3988 
L 628 4550 
Q 988 4650 1302 4700 
Q 1616 4750 1894 4750 
Q 2613 4750 3031 4423 
Q 3450 4097 3450 3541 
Q 3450 3153 3228 2886 
Q 3006 2619 2597 2516 
z
" transform="scale(0.015625)"/>
       </defs>
       <use xlink:href="#DejaVuSans-2212"/>
       <use xlink:href="#DejaVuSans-30" transform="translate(83.789062 0)"/>
       <use xlink:href="#DejaVuSans-2e" transform="translate(147.412109 0)"/>
       <use xlink:href="#DejaVuSans-33" transform="translate(179.199219 0)"/>
      </g>
     </g>
    </g>
    <g id="xtick_2">
     <g id="line2d_3">
      <path d="M 212.109847 356.477812 
L 212.109847 23.837812 
" clip-path="url(#p5ab45f45e0)" style="fill: none; stroke-dasharray: 0.6,0.99; stroke-dashoffset: 0; stroke: #cbd5e1; stroke-width: 0.6"/>
     </g>
     <g id="line2d_4">
      <g>
       <use xlink:href="#md2600330d2" x="212.109847" y="356.477812" style="stroke: #000000; stroke-width: 0.8"/>
      </g>
     </g>
     <g id="text_2">
      <!-- −0.2 -->
      <g transform="translate(201.182582 370.316406) scale(0.09 -0.09)">
       <defs>
        <path id="DejaVuSans-32" d="M 1228 531 
L 3431 531 
L 3431 0 
L 469 0 
L 469 531 
Q 828 903 1448 1529 
Q 2069 2156 2228 2338 
Q 2531 2678 2651 2914 
Q 2772 3150 2772 3378 
Q 2772 3750 2511 3984 
Q 2250 4219 1831 4219 
Q 1534 4219 1204 4116 
Q 875 4013 500 3803 
L 500 4441 
Q 881 4594 1212 4672 
Q 1544 4750 1819 4750 
Q 2544 4750 2975 4387 
Q 3406 4025 3406 3419 
Q 3406 3131 3298 2873 
Q 3191 2616 2906 2266 
Q 2828 2175 2409 1742 
Q 1991 1309 1228 531 
z
" transform="scale(0.015625)"/>
       </defs>
       <use xlink:href="#DejaVuSans-2212"/>
       <use xlink:href="#DejaVuSans-30" transform="translate(83.789062 0)"/>
       <use xlink:href="#DejaVuSans-2e" transform="translate(147.412109 0)"/>
       <use xlink:href="#DejaVuSans-32" transform="translate(179.199219 0)"/>
      </g>
     </g>
    </g>
    <g id="xtick_3">
     <g id="line2d_5">
      <path d="M 305.217255 356.477812 
L 305.217255 23.837812 
" clip-path="url(#p5ab45f45e0)" style="fill: none; stroke-dasharray: 0.6,0.99; stroke-dashoffset: 0; stroke: #cbd5e1; stroke-width: 0.6"/>
     </g>
     <g id="line2d_6">
      <g>
       <use xlink:href="#md2600330d2" x="305.217255" y="356.477812" style="stroke: #000000; stroke-width: 0.8"/>
      </g>
     </g>
     <g id="text_3">
      <!-- −0.1 -->
      <g transform="translate(294.28999 370.316406) scale(0.09 -0.09)">
       <defs>
        <path id="DejaVuSans-31" d="M 794 531 
L 1825 531 
L 1825 4091 
L 703 3866 
L 703 4441 
L 1819 4666 
L 2450 4666 
L 2450 531 
L 3481 531 
L 3481 0 
L 794 0 
L 794 531 
z
" transform="scale(0.015625)"/>
       </defs>
       <use xlink:href="#DejaVuSans-2212"/>
       <use xlink:href="#DejaVuSans-30" transform="translate(83.789062 0)"/>
       <use xlink:href="#DejaVuSans-2e" transform="translate(147.412109 0)"/>
       <use xlink:href="#DejaVuSans-31" transform="translate(179.199219 0)"/>
      </g>
     </g>
    </g>
    <g id="xtick_4">
     <g id="line2d_7">
      <path d="M 398.324664 356.477812 
L 398.324664 23.837812 
" clip-path="url(#p5ab45f45e0)" style="fill: none; stroke-dasharray: 0.6,0.99; stroke-dashoffset: 0; stroke: #cbd5e1; stroke-width: 0.6"/>
     </g>
     <g id="line2d_8">
      <g>
       <use xlink:href="#md2600330d2" x="398.324664" y="356.477812" style="stroke: #000000; stroke-width: 0.8"/>
      </g>
     </g>
     <g id="text_4">
      <!-- 0.0 -->
      <g transform="translate(391.168257 370.316406) scale(0.09 -0.09)">
       <use xlink:href="#DejaVuSans-30"/>
       <use xlink:href="#DejaVuSans-2e" transform="translate(63.623047 0)"/>
       <use xlink:href="#DejaVuSans-30" transform="translate(95.410156 0)"/>
      </g>
     </g>
    </g>
    <g id="xtick_5">
     <g id="line2d_9">
      <path d="M 491.432072 356.477812 
L 491.432072 23.837812 
" clip-path="url(#p5ab45f45e0)" style="fill: none; stroke-dasharray: 0.6,0.99; stroke-dashoffset: 0; stroke: #cbd5e1; stroke-width: 0.6"/>
     </g>
     <g id="line2d_10">
      <g>
       <use xlink:href="#md2600330d2" x="491.432072" y="356.477812" style="stroke: #000000; stroke-width: 0.8"/>
      </g>
     </g>
     <g id="text_5">
      <!-- 0.1 -->
      <g transform="translate(484.275665 370.316406) scale(0.09 -0.09)">
       <use xlink:href="#DejaVuSans-30"/>
       <use xlink:href="#DejaVuSans-2e" transform="translate(63.623047 0)"/>
       <use xlink:href="#DejaVuSans-31" transform="translate(95.410156 0)"/>
      </g>
     </g>
    </g>
    <g id="text_6">
     <!-- step coordinate $p_0$ -->
     <g transform="translate(221.032812 384.548125) scale(0.11 -0.11)">
      <defs>
       <path id="DejaVuSans-73" d="M 2834 3397 
L 2834 2853 
Q 2591 2978 2328 3040 
Q 2066 3103 1784 3103 
Q 1356 3103 1142 2972 
Q 928 2841 928 2578 
Q 928 2378 1081 2264 
Q 1234 2150 1697 2047 
L 1894 2003 
Q 2506 1872 2764 1633 
Q 3022 1394 3022 966 
Q 3022 478 2636 193 
Q 2250 -91 1575 -91 
Q 1294 -91 989 -36 
Q 684 19 347 128 
L 347 722 
Q 666 556 975 473 
Q 1284 391 1588 391 
Q 1994 391 2212 530 
Q 2431 669 2431 922 
Q 2431 1156 2273 1281 
Q 2116 1406 1581 1522 
L 1381 1569 
Q 847 1681 609 1914 
Q 372 2147 372 2553 
Q 372 3047 722 3315 
Q 1072 3584 1716 3584 
Q 2034 3584 2315 3537 
Q 2597 3491 2834 3397 
z
" transform="scale(0.015625)"/>
       <path id="DejaVuSans-74" d="M 1172 4494 
L 1172 3500 
L 2356 3500 
L 2356 3053 
L 1172 3053 
L 1172 1153 
Q 1172 725 1289 603 
Q 1406 481 1766 481 
L 2356 481 
L 2356 0 
L 1766 0 
Q 1100 0 847 248 
Q 594 497 594 1153 
L 594 3053 
L 172 3053 
L 172 3500 
L 594 3500 
L 594 4494 
L 1172 4494 
z
" transform="scale(0.015625)"/>
       <path id="DejaVuSans-65" d="M 3597 1894 
L 3597 1613 
L 953 1613 
Q 991 1019 1311 708 
Q 1631 397 2203 397 
Q 2534 397 2845 478 
Q 3156 559 3463 722 
L 3463 178 
Q 3153 47 2828 -22 
Q 2503 -91 2169 -91 
Q 1331 -91 842 396 
Q 353 884 353 1716 
Q 353 2575 817 3079 
Q 1281 3584 2069 3584 
Q 2775 3584 3186 3129 
Q 3597 2675 3597 1894 
z
M 3022 2063 
Q 3016 2534 2758 2815 
Q 2500 3097 2075 3097 
Q 1594 3097 1305 2825 
Q 1016 2553 972 2059 
L 3022 2063 
z
" transform="scale(0.015625)"/>
       <path id="DejaVuSans-70" d="M 1159 525 
L 1159 -1331 
L 581 -1331 
L 581 3500 
L 1159 3500 
L 1159 2969 
Q 1341 3281 1617 3432 
Q 1894 3584 2278 3584 
Q 2916 3584 3314 3078 
Q 3713 2572 3713 1747 
Q 3713 922 3314 415 
Q 2916 -91 2278 -91 
Q 1894 -91 1617 61 
Q 1341 213 1159 525 
z
M 3116 1747 
Q 3116 2381 2855 2742 
Q 2594 3103 2138 3103 
Q 1681 3103 1420 2742 
Q 1159 2381 1159 1747 
Q 1159 1113 1420 752 
Q 1681 391 2138 391 
Q 2594 391 2855 752 
Q 3116 1113 3116 1747 
z
" transform="scale(0.015625)"/>
       <path id="DejaVuSans-20" transform="scale(0.015625)"/>
       <path id="DejaVuSans-63" d="M 3122 3366 
L 3122 2828 
Q 2878 2963 2633 3030 
Q 2388 3097 2138 3097 
Q 1578 3097 1268 2742 
Q 959 2388 959 1747 
Q 959 1106 1268 751 
Q 1578 397 2138 397 
Q 2388 397 2633 464 
Q 2878 531 3122 666 
L 3122 134 
Q 2881 22 2623 -34 
Q 2366 -91 2075 -91 
Q 1284 -91 818 406 
Q 353 903 353 1747 
Q 353 2603 823 3093 
Q 1294 3584 2113 3584 
Q 2378 3584 2631 3529 
Q 2884 3475 3122 3366 
z
" transform="scale(0.015625)"/>
       <path id="DejaVuSans-6f" d="M 1959 3097 
Q 1497 3097 1228 2736 
Q 959 2375 959 1747 
Q 959 1119 1226 758 
Q 1494 397 1959 397 
Q 2419 397 2687 759 
Q 2956 1122 2956 1747 
Q 2956 2369 2687 2733 
Q 2419 3097 1959 3097 
z
M 1959 3584 
Q 2709 3584 3137 3096 
Q 3566 2609 3566 1747 
Q 3566 888 3137 398 
Q 2709 -91 1959 -91 
Q 1206 -91 779 398 
Q 353 888 353 1747 
Q 353 2609 779 3096 
Q 1206 3584 1959 3584 
z
" transform="scale(0.015625)"/>
       <path id="DejaVuSans-72" d="M 2631 2963 
Q 2534 3019 2420 3045 
Q 2306 3072 2169 3072 
Q 1681 3072 1420 2755 
Q 1159 2438 1159 1844 
L 1159 0 
L 581 0 
L 581 3500 
L 1159 3500 
L 1159 2956 
Q 1341 3275 1631 3429 
Q 1922 3584 2338 3584 
Q 2397 3584 2469 3576 
Q 2541 3569 2628 3553 
L 2631 2963 
z
" transform="scale(0.015625)"/>
       <path id="DejaVuSans-64" d="M 2906 2969 
L 2906 4863 
L 3481 4863 
L 3481 0 
L 2906 0 
L 2906 525 
Q 2725 213 2448 61 
Q 2172 -91 1784 -91 
Q 1150 -91 751 415 
Q 353 922 353 1747 
Q 353 2572 751 3078 
Q 1150 3584 1784 3584 
Q 2172 3584 2448 3432 
Q 2725 3281 2906 2969 
z
M 947 1747 
Q 947 1113 1208 752 
Q 1469 391 1925 391 
Q 2381 391 2643 752 
Q 2906 1113 2906 1747 
Q 2906 2381 2643 2742 
Q 2381 3103 1925 3103 
Q 1469 3103 1208 2742 
Q 947 2381 947 1747 
z
" transform="scale(0.015625)"/>
       <path id="DejaVuSans-69" d="M 603 3500 
L 1178 3500 
L 1178 0 
L 603 0 
L 603 3500 
z
M 603 4863 
L 1178 4863 
L 1178 4134 
L 603 4134 
L 603 4863 
z
" transform="scale(0.015625)"/>
       <path id="DejaVuSans-6e" d="M 3513 2113 
L 3513 0 
L 2938 0 
L 2938 2094 
Q 2938 2591 2744 2837 
Q 2550 3084 2163 3084 
Q 1697 3084 1428 2787 
Q 1159 2491 1159 1978 
L 1159 0 
L 581 0 
L 581 3500 
L 1159 3500 
L 1159 2956 
Q 1366 3272 1645 3428 
Q 1925 3584 2291 3584 
Q 2894 3584 3203 3211 
Q 3513 2838 3513 2113 
z
" transform="scale(0.015625)"/>
       <path id="DejaVuSans-61" d="M 2194 1759 
Q 1497 1759 1228 1600 
Q 959 1441 959 1056 
Q 959 750 1161 570 
Q 1363 391 1709 391 
Q 2188 391 2477 730 
Q 2766 1069 2766 1631 
L 2766 1759 
L 2194 1759 
z
M 3341 1997 
L 3341 0 
L 2766 0 
L 2766 531 
Q 2569 213 2275 61 
Q 1981 -91 1556 -91 
Q 1019 -91 701 211 
Q 384 513 384 1019 
Q 384 1609 779 1909 
Q 1175 2209 1959 2209 
L 2766 2209 
L 2766 2266 
Q 2766 2663 2505 2880 
Q 2244 3097 1772 3097 
Q 1472 3097 1187 3025 
Q 903 2953 641 2809 
L 641 3341 
Q 956 3463 1253 3523 
Q 1550 3584 1831 3584 
Q 2591 3584 2966 3190 
Q 3341 2797 3341 1997 
z
" transform="scale(0.015625)"/>
       <path id="DejaVuSans-Oblique-70" d="M 3175 2156 
Q 3175 2616 2975 2859 
Q 2775 3103 2400 3103 
Q 2144 3103 1911 2972 
Q 1678 2841 1497 2591 
Q 1319 2344 1212 1994 
Q 1106 1644 1106 1300 
Q 1106 863 1306 627 
Q 1506 391 1875 391 
Q 2147 391 2380 519 
Q 2613 647 2778 891 
Q 2956 1147 3065 1494 
Q 3175 1841 3175 2156 
z
M 1394 2969 
Q 1625 3272 1939 3428 
Q 2253 3584 2638 3584 
Q 3175 3584 3472 3232 
Q 3769 2881 3769 2247 
Q 3769 1728 3584 1258 
Q 3400 788 3053 416 
Q 2822 169 2531 39 
Q 2241 -91 1919 -91 
Q 1547 -91 1294 64 
Q 1041 219 916 525 
L 556 -1331 
L -19 -1331 
L 922 3500 
L 1497 3500 
L 1394 2969 
z
" transform="scale(0.015625)"/>
      </defs>
      <use xlink:href="#DejaVuSans-73" transform="translate(0 0.015625)"/>
      <use xlink:href="#DejaVuSans-74" transform="translate(52.099609 0.015625)"/>
      <use xlink:href="#DejaVuSans-65" transform="translate(91.308594 0.015625)"/>
      <use xlink:href="#DejaVuSans-70" transform="translate(152.832031 0.015625)"/>
      <use xlink:href="#DejaVuSans-20" transform="translate(216.308594 0.015625)"/>
      <use xlink:href="#DejaVuSans-63" transform="translate(248.095703 0.015625)"/>
      <use xlink:href="#DejaVuSans-6f" transform="translate(303.076172 0.015625)"/>
      <use xlink:href="#DejaVuSans-6f" transform="translate(364.257812 0.015625)"/>
      <use xlink:href="#DejaVuSans-72" transform="translate(425.439453 0.015625)"/>
      <use xlink:href="#DejaVuSans-64" transform="translate(466.552734 0.015625)"/>
      <use xlink:href="#DejaVuSans-69" transform="translate(530.029297 0.015625)"/>
      <use xlink:href="#DejaVuSans-6e" transform="translate(557.8125 0.015625)"/>
      <use xlink:href="#DejaVuSans-61" transform="translate(621.191406 0.015625)"/>
      <use xlink:href="#DejaVuSans-74" transform="translate(682.470703 0.015625)"/>
      <use xlink:href="#DejaVuSans-65" transform="translate(721.679688 0.015625)"/>
      <use xlink:href="#DejaVuSans-20" transform="translate(783.203125 0.015625)"/>
      <use xlink:href="#DejaVuSans-Oblique-70" transform="translate(814.990234 0.015625)"/>
      <use xlink:href="#DejaVuSans-30" transform="translate(878.466797 -16.390625) scale(0.7)"/>
     </g>
    </g>
   </g>
   <g id="matplotlib.axis_2">
    <g id="ytick_1">
     <g id="line2d_11">
      <path d="M 43.182813 311.996666 
L 500.742813 311.996666 
" clip-path="url(#p5ab45f45e0)" style="fill: none; stroke-dasharray: 0.6,0.99; stroke-dashoffset: 0; stroke: #cbd5e1; stroke-width: 0.6"/>
     </g>
     <g id="line2d_12">
      <defs>
       <path id="m6792567a64" d="M 0 0 
L -3.5 0 
" style="stroke: #000000; stroke-width: 0.8"/>
      </defs>
      <g>
       <use xlink:href="#m6792567a64" x="43.182813" y="311.996666" style="stroke: #000000; stroke-width: 0.8"/>
      </g>
     </g>
     <g id="text_7">
      <!-- 0.0 -->
      <g transform="translate(21.87 315.415963) scale(0.09 -0.09)">
       <use xlink:href="#DejaVuSans-30"/>
       <use xlink:href="#DejaVuSans-2e" transform="translate(63.623047 0)"/>
       <use xlink:href="#DejaVuSans-30" transform="translate(95.410156 0)"/>
      </g>
     </g>
    </g>
    <g id="ytick_2">
     <g id="line2d_13">
      <path d="M 43.182813 262.573169 
L 500.742813 262.573169 
" clip-path="url(#p5ab45f45e0)" style="fill: none; stroke-dasharray: 0.6,0.99; stroke-dashoffset: 0; stroke: #cbd5e1; stroke-width: 0.6"/>
     </g>
     <g id="line2d_14">
      <g>
       <use xlink:href="#m6792567a64" x="43.182813" y="262.573169" style="stroke: #000000; stroke-width: 0.8"/>
      </g>
     </g>
     <g id="text_8">
      <!-- 0.2 -->
      <g transform="translate(21.87 265.992466) scale(0.09 -0.09)">
       <use xlink:href="#DejaVuSans-30"/>
       <use xlink:href="#DejaVuSans-2e" transform="translate(63.623047 0)"/>
       <use xlink:href="#DejaVuSans-32" transform="translate(95.410156 0)"/>
      </g>
     </g>
    </g>
    <g id="ytick_3">
     <g id="line2d_15">
      <path d="M 43.182813 213.149673 
L 500.742813 213.149673 
" clip-path="url(#p5ab45f45e0)" style="fill: none; stroke-dasharray: 0.6,0.99; stroke-dashoffset: 0; stroke: #cbd5e1; stroke-width: 0.6"/>
     </g>
     <g id="line2d_16">
      <g>
       <use xlink:href="#m6792567a64" x="43.182813" y="213.149673" style="stroke: #000000; stroke-width: 0.8"/>
      </g>
     </g>
     <g id="text_9">
      <!-- 0.4 -->
      <g transform="translate(21.87 216.56897) scale(0.09 -0.09)">
       <defs>
        <path id="DejaVuSans-34" d="M 2419 4116 
L 825 1625 
L 2419 1625 
L 2419 4116 
z
M 2253 4666 
L 3047 4666 
L 3047 1625 
L 3713 1625 
L 3713 1100 
L 3047 1100 
L 3047 0 
L 2419 0 
L 2419 1100 
L 313 1100 
L 313 1709 
L 2253 4666 
z
" transform="scale(0.015625)"/>
       </defs>
       <use xlink:href="#DejaVuSans-30"/>
       <use xlink:href="#DejaVuSans-2e" transform="translate(63.623047 0)"/>
       <use xlink:href="#DejaVuSans-34" transform="translate(95.410156 0)"/>
      </g>
     </g>
    </g>
    <g id="ytick_4">
     <g id="line2d_17">
      <path d="M 43.182813 163.726176 
L 500.742813 163.726176 
" clip-path="url(#p5ab45f45e0)" style="fill: none; stroke-dasharray: 0.6,0.99; stroke-dashoffset: 0; stroke: #cbd5e1; stroke-width: 0.6"/>
     </g>
     <g id="line2d_18">
      <g>
       <use xlink:href="#m6792567a64" x="43.182813" y="163.726176" style="stroke: #000000; stroke-width: 0.8"/>
      </g>
     </g>
     <g id="text_10">
      <!-- 0.6 -->
      <g transform="translate(21.87 167.145473) scale(0.09 -0.09)">
       <defs>
        <path id="DejaVuSans-36" d="M 2113 2584 
Q 1688 2584 1439 2293 
Q 1191 2003 1191 1497 
Q 1191 994 1439 701 
Q 1688 409 2113 409 
Q 2538 409 2786 701 
Q 3034 994 3034 1497 
Q 3034 2003 2786 2293 
Q 2538 2584 2113 2584 
z
M 3366 4563 
L 3366 3988 
Q 3128 4100 2886 4159 
Q 2644 4219 2406 4219 
Q 1781 4219 1451 3797 
Q 1122 3375 1075 2522 
Q 1259 2794 1537 2939 
Q 1816 3084 2150 3084 
Q 2853 3084 3261 2657 
Q 3669 2231 3669 1497 
Q 3669 778 3244 343 
Q 2819 -91 2113 -91 
Q 1303 -91 875 529 
Q 447 1150 447 2328 
Q 447 3434 972 4092 
Q 1497 4750 2381 4750 
Q 2619 4750 2861 4703 
Q 3103 4656 3366 4563 
z
" transform="scale(0.015625)"/>
       </defs>
       <use xlink:href="#DejaVuSans-30"/>
       <use xlink:href="#DejaVuSans-2e" transform="translate(63.623047 0)"/>
       <use xlink:href="#DejaVuSans-36" transform="translate(95.410156 0)"/>
      </g>
     </g>
    </g>
    <g id="ytick_5">
     <g id="line2d_19">
      <path d="M 43.182813 114.30268 
L 500.742813 114.30268 
" clip-path="url(#p5ab45f45e0)" style="fill: none; stroke-dasharray: 0.6,0.99; stroke-dashoffset: 0; stroke: #cbd5e1; stroke-width: 0.6"/>
     </g>
     <g id="line2d_20">
      <g>
       <use xlink:href="#m6792567a64" x="43.182813" y="114.30268" style="stroke: #000000; stroke-width: 0.8"/>
      </g>
     </g>
     <g id="text_11">
      <!-- 0.8 -->
      <g transform="translate(21.87 117.721977) scale(0.09 -0.09)">
       <defs>
        <path id="DejaVuSans-38" d="M 2034 2216 
Q 1584 2216 1326 1975 
Q 1069 1734 1069 1313 
Q 1069 891 1326 650 
Q 1584 409 2034 409 
Q 2484 409 2743 651 
Q 3003 894 3003 1313 
Q 3003 1734 2745 1975 
Q 2488 2216 2034 2216 
z
M 1403 2484 
Q 997 2584 770 2862 
Q 544 3141 544 3541 
Q 544 4100 942 4425 
Q 1341 4750 2034 4750 
Q 2731 4750 3128 4425 
Q 3525 4100 3525 3541 
Q 3525 3141 3298 2862 
Q 3072 2584 2669 2484 
Q 3125 2378 3379 2068 
Q 3634 1759 3634 1313 
Q 3634 634 3220 271 
Q 2806 -91 2034 -91 
Q 1263 -91 848 271 
Q 434 634 434 1313 
Q 434 1759 690 2068 
Q 947 2378 1403 2484 
z
M 1172 3481 
Q 1172 3119 1398 2916 
Q 1625 2713 2034 2713 
Q 2441 2713 2670 2916 
Q 2900 3119 2900 3481 
Q 2900 3844 2670 4047 
Q 2441 4250 2034 4250 
Q 1625 4250 1398 4047 
Q 1172 3844 1172 3481 
z
" transform="scale(0.015625)"/>
       </defs>
       <use xlink:href="#DejaVuSans-30"/>
       <use xlink:href="#DejaVuSans-2e" transform="translate(63.623047 0)"/>
       <use xlink:href="#DejaVuSans-38" transform="translate(95.410156 0)"/>
      </g>
     </g>
    </g>
    <g id="ytick_6">
     <g id="line2d_21">
      <path d="M 43.182813 64.879183 
L 500.742813 64.879183 
" clip-path="url(#p5ab45f45e0)" style="fill: none; stroke-dasharray: 0.6,0.99; stroke-dashoffset: 0; stroke: #cbd5e1; stroke-width: 0.6"/>
     </g>
     <g id="line2d_22">
      <g>
       <use xlink:href="#m6792567a64" x="43.182813" y="64.879183" style="stroke: #000000; stroke-width: 0.8"/>
      </g>
     </g>
     <g id="text_12">
      <!-- 1.0 -->
      <g transform="translate(21.87 68.29848) scale(0.09 -0.09)">
       <use xlink:href="#DejaVuSans-31"/>
       <use xlink:href="#DejaVuSans-2e" transform="translate(63.623047 0)"/>
       <use xlink:href="#DejaVuSans-30" transform="translate(95.410156 0)"/>
      </g>
     </g>
    </g>
    <g id="text_13">
     <!-- step coordinate $p_1$ -->
     <g transform="translate(15.56 241.087812) rotate(-90) scale(0.11 -0.11)">
      <use xlink:href="#DejaVuSans-73" transform="translate(0 0.015625)"/>
      <use xlink:href="#DejaVuSans-74" transform="translate(52.099609 0.015625)"/>
      <use xlink:href="#DejaVuSans-65" transform="translate(91.308594 0.015625)"/>
      <use xlink:href="#DejaVuSans-70" transform="translate(152.832031 0.015625)"/>
      <use xlink:href="#DejaVuSans-20" transform="translate(216.308594 0.015625)"/>
      <use xlink:href="#DejaVuSans-63" transform="translate(248.095703 0.015625)"/>
      <use xlink:href="#DejaVuSans-6f" transform="translate(303.076172 0.015625)"/>
      <use xlink:href="#DejaVuSans-6f" transform="translate(364.257812 0.015625)"/>
      <use xlink:href="#DejaVuSans-72" transform="translate(425.439453 0.015625)"/>
      <use xlink:href="#DejaVuSans-64" transform="translate(466.552734 0.015625)"/>
      <use xlink:href="#DejaVuSans-69" transform="translate(530.029297 0.015625)"/>
      <use xlink:href="#DejaVuSans-6e" transform="translate(557.8125 0.015625)"/>
      <use xlink:href="#DejaVuSans-61" transform="translate(621.191406 0.015625)"/>
      <use xlink:href="#DejaVuSans-74" transform="translate(682.470703 0.015625)"/>
      <use xlink:href="#DejaVuSans-65" transform="translate(721.679688 0.015625)"/>
      <use xlink:href="#DejaVuSans-20" transform="translate(783.203125 0.015625)"/>
      <use xlink:href="#DejaVuSans-Oblique-70" transform="translate(814.990234 0.015625)"/>
      <use xlink:href="#DejaVuSans-31" transform="translate(878.466797 -16.390625) scale(0.7)"/>
     </g>
    </g>
   </g>
   <g id="QuadContourSet_1">
    <path d="M 397.000092 68.364806 
L 396.902668 68.295665 
L 397.000092 68.214702 
L 397.080283 68.295665 
L 397.000092 68.364806 
z
" clip-path="url(#p5ab45f45e0)" style="fill: none; stroke: #440154; stroke-width: 0.8"/>
    <path d="M 397.000092 68.415855 
L 396.830738 68.295665 
L 397.000092 68.154925 
L 397.139489 68.295665 
L 397.000092 68.415855 
" clip-path="url(#p5ab45f45e0)" style="fill: none; stroke: #440154; stroke-width: 0.8"/>
    <path d="M 395.908063 69.122465 
L 395.872135 69.089555 
L 395.908063 69.042166 
L 395.97127 69.089555 
L 395.908063 69.122465 
M 397.000092 68.50345 
L 396.707312 68.295665 
L 397.000092 68.052354 
L 397.241082 68.295665 
L 397.000092 68.50345 
z
" clip-path="url(#p5ab45f45e0)" style="fill: none; stroke: #440154; stroke-width: 0.8"/>
    <path d="M 395.908063 69.259836 
L 395.722164 69.089555 
L 395.908063 68.844355 
L 396.235109 69.089555 
L 395.908063 69.259836 
M 397.000092 68.653755 
L 396.495524 68.295665 
L 397.000092 67.876352 
L 397.415407 68.295665 
L 397.000092 68.653755 
M 398.09212 67.651549 
L 397.766895 67.501774 
L 398.09212 67.35868 
L 398.209613 67.501774 
L 398.09212 67.651549 
" clip-path="url(#p5ab45f45e0)" style="fill: none; stroke: #440154; stroke-width: 0.8"/>
    <path d="M 395.908063 69.495554 
L 395.464826 69.089555 
L 395.908063 68.50493 
L 396.132116 68.295665 
L 397.000092 67.574347 
L 397.148656 67.501774 
L 398.09212 67.086663 
L 398.432962 67.501774 
L 398.09212 67.936265 
L 397.714532 68.295665 
L 397.000092 68.911665 
L 396.687833 69.089555 
L 395.908063 69.495554 
z
" clip-path="url(#p5ab45f45e0)" style="fill: none; stroke: #440154; stroke-width: 0.8"/>
    <path d="M 394.816034 70.153415 
L 394.568262 69.883445 
L 394.816034 69.401536 
L 395.023258 69.089555 
L 395.78379 68.295665 
L 395.908063 68.187187 
L 396.80876 67.501774 
L 397.000092 67.361236 
L 398.042953 66.707884 
L 398.09212 66.678116 
L 399.184149 66.497266 
L 399.335832 66.707884 
L 399.184149 66.978335 
L 398.816208 67.501774 
L 398.140183 68.295665 
L 398.09212 68.338054 
L 397.123673 69.089555 
L 397.000092 69.182289 
L 395.917874 69.883445 
L 395.908063 69.889598 
L 394.816034 70.153415 
" clip-path="url(#p5ab45f45e0)" style="fill: none; stroke: #440154; stroke-width: 0.8"/>
    <path d="M 393.724006 70.770922 
L 393.648392 70.677335 
L 393.724006 70.467344 
L 393.981758 69.883445 
L 394.601713 69.089555 
L 394.816034 68.870602 
L 395.450964 68.295665 
L 395.908063 67.896665 
L 396.426986 67.501774 
L 397.000092 67.080814 
L 397.595352 66.707884 
L 398.09212 66.407116 
L 399.076287 65.913994 
L 399.184149 65.861706 
L 400.08618 65.913994 
L 399.860528 66.707884 
L 399.306828 67.501774 
L 399.184149 67.627258 
L 398.452154 68.295665 
L 398.09212 68.613207 
L 397.478259 69.089555 
L 397.000092 69.448365 
L 396.328556 69.883445 
L 395.908063 70.147177 
L 394.903926 70.677335 
L 394.816034 70.722303 
L 393.724006 70.770922 
" clip-path="url(#p5ab45f45e0)" style="fill: none; stroke: #440154; stroke-width: 0.8"/>
    <path d="M 392.631977 71.521124 
L 392.595436 71.471225 
L 392.631977 71.327341 
L 392.827476 70.677335 
L 393.385877 69.883445 
L 393.724006 69.483822 
L 394.095513 69.089555 
L 394.816034 68.353464 
L 394.879865 68.295665 
L 395.832004 67.501774 
L 395.908063 67.441153 
L 396.910405 66.707884 
L 397.000092 66.643628 
L 398.09212 65.942104 
L 398.148221 65.913994 
L 399.184149 65.41181 
L 399.944264 65.120104 
L 400.276178 64.996737 
L 401.077453 65.120104 
L 401.006795 65.913994 
L 400.508515 66.707884 
L 400.276178 66.980665 
L 399.784712 67.501774 
L 399.184149 68.116071 
L 398.987471 68.295665 
L 398.09212 69.085345 
L 398.086695 69.089555 
L 397.018014 69.883445 
L 397.000092 69.896468 
L 395.908063 70.58916 
L 395.741056 70.677335 
L 394.816034 71.150608 
L 394.044356 71.471225 
L 393.724006 71.600329 
L 392.631977 71.521124 
" clip-path="url(#p5ab45f45e0)" style="fill: none; stroke: #440154; stroke-width: 0.8"/>
    <path d="M 391.539949 72.643169 
L 391.283995 72.265116 
L 391.467011 71.471225 
L 391.539949 71.358694 
L 392.022465 70.677335 
L 392.615148 69.883445 
L 392.631977 69.865598 
L 393.415383 69.089555 
L 393.724006 68.790558 
L 394.27361 68.295665 
L 394.816034 67.817751 
L 395.204123 67.501774 
L 395.908063 66.940713 
L 396.226329 66.707884 
L 397.000092 66.153516 
L 397.367269 65.913994 
L 398.09212 65.450709 
L 398.665773 65.120104 
L 399.184149 64.827276 
L 400.179676 64.326213 
L 400.276178 64.278587 
L 401.368206 63.961477 
L 402.460235 64.097623 
L 402.590489 64.326213 
L 402.460235 64.898378 
L 402.402493 65.120104 
L 401.853483 65.913994 
L 401.368206 66.562697 
L 401.249073 66.707884 
L 400.484578 67.501774 
L 400.276178 67.704196 
L 399.622772 68.295665 
L 399.184149 68.684439 
L 398.691085 69.089555 
L 398.09212 69.57164 
L 397.671592 69.883445 
L 397.000092 70.37138 
L 396.539662 70.677335 
L 395.908063 71.088803 
L 395.260499 71.471225 
L 394.816034 71.728659 
L 393.783303 72.265116 
L 393.724006 72.295337 
L 392.631977 72.640188 
L 391.539949 72.643169 
" clip-path="url(#p5ab45f45e0)" style="fill: none; stroke: #440154; stroke-width: 0.8"/>
    <path d="M 390.44792 74.147581 
L 389.598062 73.852896 
L 389.535155 73.059006 
L 389.908338 72.265116 
L 390.38443 71.471225 
L 390.44792 71.39143 
L 391.051224 70.677335 
L 391.539949 70.112174 
L 391.750779 69.883445 
L 392.52905 69.089555 
L 392.631977 68.992105 
L 393.407228 68.295665 
L 393.724006 68.015457 
L 394.337827 67.501774 
L 394.816034 67.107632 
L 395.330354 66.707884 
L 395.908063 66.265554 
L 396.396757 65.913994 
L 397.000092 65.486331 
L 397.552272 65.120104 
L 398.09212 64.767233 
L 398.816633 64.326213 
L 399.184149 64.105691 
L 400.215868 63.532323 
L 400.276178 63.499278 
L 401.368206 63.02351 
L 402.147837 62.738433 
L 402.460235 62.62634 
L 403.552264 62.48802 
L 404.164796 62.738433 
L 404.295757 63.532323 
L 403.963009 64.326213 
L 403.552264 65.025432 
L 403.492136 65.120104 
L 402.83438 65.913994 
L 402.460235 66.345214 
L 402.125517 66.707884 
L 401.37472 67.501774 
L 401.368206 67.507956 
L 400.494717 68.295665 
L 400.276178 68.489787 
L 399.563603 69.089555 
L 399.184149 69.40422 
L 398.572393 69.883445 
L 398.09212 70.254196 
L 397.509869 70.677335 
L 397.000092 71.04249 
L 396.36183 71.471225 
L 395.908063 71.77172 
L 395.110041 72.265116 
L 394.816034 72.444357 
L 393.730685 73.059006 
L 393.724006 73.062736 
L 392.631977 73.547452 
L 391.83893 73.852896 
L 391.539949 73.965956 
L 390.44792 74.147581 
z
" clip-path="url(#p5ab45f45e0)" style="fill: none; stroke: #440154; stroke-width: 0.8"/>
    <path d="M 387.171834 75.462152 
L 387.159965 75.440676 
L 387.164393 74.646786 
L 387.171834 74.628304 
L 387.505088 73.852896 
L 387.954865 73.059006 
L 388.263863 72.603986 
L 388.506648 72.265116 
L 389.141169 71.471225 
L 389.355891 71.225224 
L 389.856312 70.677335 
L 390.44792 70.040031 
L 390.600353 69.883445 
L 391.412708 69.089555 
L 391.539949 68.970624 
L 392.292256 68.295665 
L 392.631977 67.994507 
L 393.212056 67.501774 
L 393.724006 67.072038 
L 394.177617 66.707884 
L 394.816034 66.201341 
L 395.1955 65.913994 
L 395.908063 65.380627 
L 396.273586 65.120104 
L 397.000092 64.608189 
L 397.421421 64.326213 
L 398.09212 63.882398 
L 398.65068 63.532323 
L 399.184149 63.201695 
L 399.975801 62.738433 
L 400.276178 62.564592 
L 401.368206 61.976521 
L 401.43861 61.944543 
L 402.460235 61.486862 
L 403.289323 61.150653 
L 403.552264 61.045464 
L 404.644292 60.754673 
L 405.736321 60.664126 
L 406.611984 61.150653 
L 406.660578 61.944543 
L 406.35302 62.738433 
L 405.926582 63.532323 
L 405.736321 63.809489 
L 405.36264 64.326213 
L 404.7501 65.120104 
L 404.644292 65.24106 
L 404.028962 65.913994 
L 403.552264 66.427133 
L 403.279071 66.707884 
L 402.488549 67.501774 
L 402.460235 67.528296 
L 401.607503 68.295665 
L 401.368206 68.508484 
L 400.686973 69.089555 
L 400.276178 69.435894 
L 399.72168 69.883445 
L 399.184149 70.312337 
L 398.705362 70.677335 
L 398.09212 71.139544 
L 397.63053 71.471225 
L 397.000092 71.919167 
L 396.488155 72.265116 
L 395.908063 72.652785 
L 395.26725 73.059006 
L 394.816034 73.341908 
L 393.954306 73.852896 
L 393.724006 73.987981 
L 392.631977 74.577852 
L 392.484248 74.646786 
L 391.539949 75.081523 
L 390.682338 75.440676 
L 390.44792 75.53755 
L 389.355891 75.848736 
L 388.263863 75.987684 
L 387.171834 75.462152 
" clip-path="url(#p5ab45f45e0)" style="fill: none; stroke: #440154; stroke-width: 0.8"/>
    <path d="M 384.987777 78.307379 
L 384.275352 77.822347 
L 384.095949 77.028457 
L 384.287385 76.234567 
L 384.630221 75.440676 
L 384.987777 74.782997 
L 385.065327 74.646786 
L 385.623618 73.852896 
L 386.079805 73.230161 
L 386.210294 73.059006 
L 386.878269 72.265116 
L 387.171834 71.930523 
L 387.589246 71.471225 
L 388.263863 70.738211 
L 388.32197 70.677335 
L 389.126511 69.883445 
L 389.355891 69.661592 
L 389.966861 69.089555 
L 390.44792 68.643587 
L 390.83603 68.295665 
L 391.539949 67.670789 
L 391.737071 67.501774 
L 392.631977 66.741888 
L 392.67349 66.707884 
L 393.661994 65.913994 
L 393.724006 65.864877 
L 394.694962 65.120104 
L 394.816034 65.027976 
L 395.769369 64.326213 
L 395.908063 64.224928 
L 396.889553 63.532323 
L 397.000092 63.454933 
L 398.060478 62.738433 
L 398.09212 62.717219 
L 399.184149 62.022991 
L 399.314021 61.944543 
L 400.276178 61.368619 
L 400.658262 61.150653 
L 401.368206 60.749285 
L 402.09849 60.356762 
L 402.460235 60.164055 
L 403.552264 59.622344 
L 403.691282 59.562872 
L 404.644292 59.159475 
L 405.644211 58.768982 
L 405.736321 58.733386 
L 406.828349 58.43683 
L 407.920378 58.262523 
L 409.012407 58.382866 
L 409.528527 58.768982 
L 409.734369 59.562872 
L 409.567303 60.356762 
L 409.242922 61.150653 
L 409.012407 61.567373 
L 408.794153 61.944543 
L 408.255434 62.738433 
L 407.920378 63.193023 
L 407.66032 63.532323 
L 407.009963 64.326213 
L 406.828349 64.532875 
L 406.294151 65.120104 
L 405.736321 65.725776 
L 405.556653 65.913994 
L 404.769553 66.707884 
L 404.644292 66.829181 
L 403.927183 67.501774 
L 403.552264 67.850008 
L 403.056364 68.295665 
L 402.460235 68.826247 
L 402.154133 69.089555 
L 401.368206 69.759172 
L 401.217104 69.883445 
L 400.276178 70.650007 
L 400.241382 70.677335 
L 399.215869 71.471225 
L 399.184149 71.495472 
L 398.143931 72.265116 
L 398.09212 72.30315 
L 397.027204 73.059006 
L 397.000092 73.0781 
L 395.908063 73.815388 
L 395.849816 73.852896 
L 394.816034 74.512617 
L 394.596154 74.646786 
L 393.724006 75.174216 
L 393.262223 75.440676 
L 392.631977 75.801129 
L 391.835871 76.234567 
L 391.539949 76.394269 
L 390.44792 76.93925 
L 390.244171 77.028457 
L 389.355891 77.413333 
L 388.336029 77.822347 
L 388.263863 77.850992 
L 387.171834 78.162532 
L 386.079805 78.364318 
L 384.987777 78.307379 
z
" clip-path="url(#p5ab45f45e0)" style="fill: none; stroke: #440154; stroke-width: 0.8"/>
    <path d="M 380.619662 81.132489 
L 380.469291 80.997908 
L 380.131357 80.204018 
L 380.159826 79.410128 
L 380.619662 78.011843 
L 381.148316 77.028457 
L 382.199413 75.440676 
L 383.447961 73.852896 
L 385.607848 71.471225 
L 388.263863 68.892661 
L 391.723697 65.913994 
L 394.816034 63.514371 
L 398.202282 61.150653 
L 402.078526 58.768982 
L 404.644292 57.394568 
L 406.828349 56.380963 
L 409.012407 55.583611 
L 411.196464 55.141436 
L 412.288493 55.159738 
L 413.380521 55.6241 
L 413.709961 56.387311 
L 413.695532 57.181202 
L 413.380521 58.251894 
L 412.721962 59.562872 
L 411.67666 61.150653 
L 410.104435 63.128677 
L 407.920378 65.490019 
L 404.965994 68.295665 
L 402.171601 70.677335 
L 399.109932 73.059006 
L 395.70477 75.440676 
L 391.847883 77.822347 
L 389.355891 79.163454 
L 387.135306 80.204018 
L 384.987777 81.005599 
L 382.803719 81.481306 
L 381.711691 81.500261 
L 380.619662 81.132489 
L 380.619662 81.132489 
" clip-path="url(#p5ab45f45e0)" style="fill: none; stroke: #440154; stroke-width: 0.8"/>
    <path d="M 376.251548 85.451515 
L 375.403477 84.967359 
L 375.159519 84.653504 
L 374.948563 84.173469 
L 374.878789 83.379579 
L 375.159519 82.008662 
L 375.573108 80.997908 
L 376.428467 79.410128 
L 378.0865 77.028457 
L 380.054508 74.646786 
L 382.269853 72.265116 
L 384.987777 69.613416 
L 388.263863 66.693385 
L 392.631977 63.183174 
L 397.000092 60.011169 
L 401.368206 57.158044 
L 405.736321 54.666754 
L 409.012407 53.069692 
L 411.196464 52.177357 
L 413.380521 51.46588 
L 415.564579 51.046578 
L 416.656607 51.017923 
L 417.748636 51.24368 
L 418.37408 51.62397 
L 418.895953 52.41786 
L 418.974811 53.21175 
L 418.840665 54.112274 
L 418.2893 55.593421 
L 417.437017 57.181202 
L 415.794556 59.562872 
L 413.829021 61.944543 
L 411.196464 64.756639 
L 407.920378 67.880888 
L 404.644292 70.727141 
L 400.276178 74.161128 
L 395.908063 77.263969 
L 391.539949 80.03908 
L 388.263863 81.888918 
L 384.987777 83.498456 
L 381.711691 84.792416 
L 379.527634 85.39168 
L 378.435605 85.575991 
L 377.343576 85.63097 
L 376.251548 85.451515 
L 376.251548 85.451515 
" clip-path="url(#p5ab45f45e0)" style="fill: none; stroke: #440154; stroke-width: 0.8"/>
    <path d="M 369.699376 90.730074 
L 369.261591 90.524591 
L 368.398247 89.7307 
L 368.101244 88.93681 
L 368.036849 88.14292 
L 368.312048 86.555139 
L 368.925708 84.967359 
L 369.748871 83.379579 
L 371.304887 80.997908 
L 373.112401 78.616237 
L 375.868358 75.440676 
L 378.937791 72.265116 
L 382.290842 69.089555 
L 386.079805 65.77123 
L 390.836616 61.944543 
L 395.115963 58.768982 
L 399.765774 55.593421 
L 403.552264 53.208194 
L 407.920378 50.722922 
L 411.196464 49.062064 
L 414.47255 47.608929 
L 417.748636 46.451044 
L 419.932693 45.896344 
L 422.11675 45.640604 
L 423.208779 45.693157 
L 424.511488 46.066739 
L 425.430469 46.860629 
L 425.73434 47.654519 
L 425.80744 48.448409 
L 425.549229 50.03619 
L 424.935482 51.62397 
L 424.114482 53.21175 
L 422.570533 55.593421 
L 420.763864 57.975092 
L 418.018382 61.150653 
L 414.951501 64.326213 
L 411.603061 67.501774 
L 407.920378 70.735907 
L 403.065063 74.646786 
L 398.789863 77.822347 
L 394.148183 80.997908 
L 390.369409 83.379579 
L 386.079805 85.831192 
L 381.711691 88.014193 
L 378.435605 89.387333 
L 376.251548 90.138868 
L 374.06749 90.709223 
L 371.883433 90.992776 
L 370.791404 90.963476 
L 369.699376 90.730074 
L 369.699376 90.730074 
" clip-path="url(#p5ab45f45e0)" style="fill: none; stroke: #440154; stroke-width: 0.8"/>
    <path d="M 362.055175 97.899445 
L 361.22415 97.669602 
L 360.963147 97.570434 
L 359.933691 96.875712 
L 359.871118 96.808282 
L 359.401982 96.081822 
L 359.145314 95.287932 
L 359.066996 94.494042 
L 359.115226 93.700151 
L 359.256494 92.906261 
L 359.468158 92.112371 
L 359.734376 91.318481 
L 359.871118 90.981656 
L 360.059913 90.524591 
L 360.432782 89.7307 
L 360.832453 88.93681 
L 360.963147 88.701395 
L 361.277956 88.14292 
L 361.749923 87.34903 
L 362.055175 86.859938 
L 362.248187 86.555139 
L 362.778234 85.761249 
L 363.147204 85.22393 
L 363.325843 84.967359 
L 363.902656 84.173469 
L 364.239233 83.720906 
L 364.496459 83.379579 
L 365.110959 82.585688 
L 365.331261 82.308893 
L 365.748057 81.791798 
L 366.392906 80.997908 
L 366.42329 80.961901 
L 367.07063 80.204018 
L 367.515318 79.685777 
L 367.754769 79.410128 
L 368.455756 78.616237 
L 368.607347 78.448217 
L 369.178718 77.822347 
L 369.699376 77.254404 
L 369.908998 77.028457 
L 370.655723 76.234567 
L 370.791404 76.092853 
L 371.423028 75.440676 
L 371.883433 74.967105 
L 372.198482 74.646786 
L 372.975462 73.859817 
L 372.982375 73.852896 
L 373.792663 73.059006 
L 374.06749 72.790803 
L 374.61228 72.265116 
L 375.159519 71.738922 
L 375.441121 71.471225 
L 376.251548 70.703516 
L 376.279506 70.677335 
L 377.140601 69.883445 
L 377.343576 69.697215 
L 378.013283 69.089555 
L 378.435605 68.707607 
L 378.896245 68.295665 
L 379.527634 67.732857 
L 379.789841 67.501774 
L 380.619662 66.772821 
L 380.69444 66.707884 
L 381.616423 65.913994 
L 381.711691 65.832528 
L 382.554103 65.120104 
L 382.803719 64.909642 
L 383.503484 64.326213 
L 383.895748 64.00015 
L 384.464968 63.532323 
L 384.987777 63.103932 
L 385.438972 62.738433 
L 386.079805 62.220869 
L 386.425934 61.944543 
L 387.171834 61.350843 
L 387.426312 61.150653 
L 388.263863 60.493737 
L 388.440587 60.356762 
L 389.355891 59.649437 
L 389.469263 59.562872 
L 390.44792 58.817829 
L 390.512868 58.768982 
L 391.539949 57.9988 
L 391.571956 57.975092 
L 392.631977 57.192239 
L 392.64711 57.181202 
L 393.724006 56.398037 
L 393.738942 56.387311 
L 394.816034 55.616085 
L 394.848094 55.593421 
L 395.908063 54.846276 
L 395.975244 54.799531 
L 397.000092 54.088504 
L 397.121104 54.005641 
L 398.09212 53.342664 
L 398.286425 53.21175 
L 399.184149 52.608653 
L 399.471998 52.41786 
L 400.276178 51.886368 
L 400.678657 51.62397 
L 401.368206 51.175709 
L 401.907285 50.83008 
L 402.460235 50.476574 
L 403.158813 50.03619 
L 403.552264 49.788867 
L 404.434225 49.242299 
L 404.644292 49.112488 
L 405.734562 48.448409 
L 405.736321 48.447341 
L 406.828349 47.801536 
L 407.080956 47.654519 
L 407.920378 47.167438 
L 408.457735 46.860629 
L 409.012407 46.544879 
L 409.866252 46.066739 
L 410.104435 45.933756 
L 411.196464 45.33776 
L 411.319214 45.272848 
L 412.288493 44.761891 
L 412.835334 44.478958 
L 413.380521 44.197764 
L 414.393657 43.685068 
L 414.47255 43.645269 
L 415.564579 43.118204 
L 416.047517 42.891178 
L 416.656607 42.605794 
L 417.748636 42.105871 
L 417.768615 42.097287 
L 418.840665 41.638288 
L 419.643273 41.303397 
L 419.932693 41.183058 
L 421.024722 40.757034 
L 421.692277 40.509507 
L 422.11675 40.3527 
L 423.208779 39.98037 
L 424.041971 39.715617 
L 424.300808 39.633697 
L 425.392836 39.332224 
L 426.484865 39.063391 
L 427.190208 38.921727 
L 427.576894 38.844425 
L 428.668922 38.691083 
L 429.760951 38.608395 
L 430.85298 38.621403 
L 431.945008 38.768565 
L 432.470863 38.921727 
L 433.037037 39.14921 
L 433.844796 39.715617 
L 434.129065 40.036855 
L 434.422169 40.509507 
L 434.685328 41.303397 
L 434.771013 42.097287 
L 434.730183 42.891178 
L 434.595993 43.685068 
L 434.390942 44.478958 
L 434.130838 45.272848 
L 434.129065 45.277163 
L 433.799048 46.066739 
L 433.432865 46.860629 
L 433.039212 47.654519 
L 433.037037 47.658414 
L 432.589247 48.448409 
L 432.123449 49.242299 
L 431.945008 49.527074 
L 431.621367 50.03619 
L 431.097477 50.83008 
L 430.85298 51.185139 
L 430.546616 51.62397 
L 429.975842 52.41786 
L 429.760951 52.70624 
L 429.379285 53.21175 
L 428.770636 54.005641 
L 428.668922 54.133269 
L 428.131228 54.799531 
L 427.576894 55.482963 
L 427.486153 55.593421 
L 426.812354 56.387311 
L 426.484865 56.768689 
L 426.12629 57.181202 
L 425.431017 57.975092 
L 425.392836 58.017394 
L 424.706489 58.768982 
L 424.300808 59.211387 
L 423.974652 59.562872 
L 423.233629 60.356762 
L 423.208779 60.382717 
L 422.465097 61.150653 
L 422.11675 61.508993 
L 421.688435 61.944543 
L 421.024722 62.616913 
L 420.903358 62.738433 
L 420.098953 63.532323 
L 419.932693 63.694638 
L 419.278461 64.326213 
L 418.840665 64.747371 
L 418.44878 65.120104 
L 417.748636 65.783712 
L 417.609593 65.913994 
L 416.754421 66.707884 
L 416.656607 66.797691 
L 415.881223 67.501774 
L 415.564579 67.78837 
L 414.997793 68.295665 
L 414.47255 68.764259 
L 414.103782 69.089555 
L 413.380521 69.7255 
L 413.198825 69.883445 
L 412.288493 70.672235 
L 412.282538 70.677335 
L 411.345118 71.471225 
L 411.196464 71.596701 
L 410.395711 72.265116 
L 410.104435 72.507523 
L 409.434273 73.059006 
L 409.012407 73.405125 
L 408.460391 73.852896 
L 407.920378 74.289625 
L 407.473632 74.646786 
L 406.828349 75.161139 
L 406.473544 75.440676 
L 405.736321 76.019784 
L 405.459651 76.234567 
L 404.644292 76.865672 
L 404.431457 77.028457 
L 403.552264 77.698917 
L 403.38844 77.822347 
L 402.460235 78.519631 
L 402.330054 78.616237 
L 401.368206 79.327923 
L 401.255723 79.410128 
L 400.276178 80.123903 
L 400.164846 80.204018 
L 399.184149 80.907677 
L 399.056787 80.997908 
L 398.09212 81.679353 
L 397.930881 81.791798 
L 397.000092 82.439035 
L 396.786425 82.585688 
L 395.908063 83.186827 
L 395.62268 83.379579 
L 394.816034 83.922831 
L 394.438868 84.173469 
L 393.724006 84.647151 
L 393.234167 84.967359 
L 392.631977 85.359884 
L 392.00771 85.761249 
L 391.539949 86.061132 
L 390.758582 86.555139 
L 390.44792 86.750992 
L 389.485815 87.34903 
L 389.355891 87.42956 
L 388.263863 88.09422 
L 388.182042 88.14292 
L 387.171834 88.742404 
L 386.839028 88.93681 
L 386.079805 89.378983 
L 385.466146 89.7307 
L 384.987777 90.004062 
L 384.061927 90.524591 
L 383.895748 90.617742 
L 382.803719 91.214053 
L 382.607176 91.318481 
L 381.711691 91.792783 
L 381.097039 92.112371 
L 380.619662 92.35981 
L 379.545346 92.906261 
L 379.527634 92.915243 
L 378.435605 93.443546 
L 377.893134 93.700151 
L 377.343576 93.959255 
L 376.251548 94.460937 
L 376.175093 94.494042 
L 375.159519 94.932249 
L 374.313956 95.287932 
L 374.06749 95.391246 
L 372.975462 95.820208 
L 372.277233 96.081822 
L 371.883433 96.228826 
L 370.791404 96.605169 
L 369.951846 96.875712 
L 369.699376 96.956747 
L 368.607347 97.263722 
L 367.515318 97.53925 
L 366.8854 97.669602 
L 366.42329 97.764786 
L 365.331261 97.92759 
L 364.239233 98.022336 
L 363.147204 98.025136 
L 362.055175 97.899445 
z
" clip-path="url(#p5ab45f45e0)" style="fill: none; stroke: #440154; stroke-width: 0.8"/>
    <path d="M 352.226918 107.216298 
L 352.067251 107.196285 
L 351.134889 107.05315 
L 350.04286 106.72742 
L 349.367562 106.402395 
L 348.950832 106.134106 
L 348.373348 105.608505 
L 347.858803 104.901505 
L 347.809882 104.814614 
L 347.514732 104.020724 
L 347.366556 103.226834 
L 347.331025 102.432944 
L 347.383729 101.639054 
L 347.506835 100.845163 
L 347.687013 100.051273 
L 347.858803 99.459785 
L 347.918449 99.257383 
L 348.20397 98.463493 
L 348.522384 97.669602 
L 348.868389 96.875712 
L 348.950832 96.705619 
L 349.25694 96.081822 
L 349.669974 95.287932 
L 350.04286 94.602416 
L 350.102514 94.494042 
L 350.571939 93.700151 
L 351.051365 92.906261 
L 351.134889 92.775525 
L 351.563187 92.112371 
L 352.085471 91.318481 
L 352.226918 91.112242 
L 352.634197 90.524591 
L 353.192913 89.7307 
L 353.318946 89.55796 
L 353.776755 88.93681 
L 354.36646 88.14292 
L 354.410975 88.085147 
L 354.983738 87.34903 
L 355.503003 86.684373 
L 355.60497 86.555139 
L 356.248938 85.761249 
L 356.595032 85.33896 
L 356.902512 84.967359 
L 357.56692 84.173469 
L 357.687061 84.033035 
L 358.251295 83.379579 
L 358.779089 82.770439 
L 358.940673 82.585688 
L 359.646639 81.791798 
L 359.871118 81.542429 
L 360.365756 80.997908 
L 360.963147 80.342387 
L 361.090404 80.204018 
L 361.831872 79.410128 
L 362.055175 79.173329 
L 362.585202 78.616237 
L 363.147204 78.027313 
L 363.34456 77.822347 
L 364.116118 77.028457 
L 364.239233 76.903349 
L 364.903106 76.234567 
L 365.331261 75.804463 
L 365.69659 75.440676 
L 366.42329 74.719081 
L 366.496743 74.646786 
L 367.31347 73.852896 
L 367.515318 73.65787 
L 368.14048 73.059006 
L 368.607347 72.612963 
L 368.974604 72.265116 
L 369.699376 71.580464 
L 369.816031 71.471225 
L 370.6707 70.677335 
L 370.791404 70.566057 
L 371.538157 69.883445 
L 371.883433 69.568615 
L 372.41334 69.089555 
L 372.975462 68.58264 
L 373.296452 68.295665 
L 374.06749 67.608048 
L 374.187699 67.501774 
L 375.090569 66.707884 
L 375.159519 66.647696 
L 376.007169 65.913994 
L 376.251548 65.702966 
L 376.932312 65.120104 
L 377.343576 64.768815 
L 377.866223 64.326213 
L 378.435605 63.845168 
L 378.809128 63.532323 
L 379.527634 62.931951 
L 379.761268 62.738433 
L 380.619662 62.029092 
L 380.722886 61.944543 
L 381.695039 61.150653 
L 381.711691 61.137138 
L 382.681522 60.356762 
L 382.803719 60.258655 
L 383.677885 59.562872 
L 383.895748 59.389852 
L 384.684389 58.768982 
L 384.987777 58.530665 
L 385.701303 57.975092 
L 386.079805 57.681031 
L 386.728906 57.181202 
L 387.171834 56.840885 
L 387.767486 56.387311 
L 388.263863 56.010165 
L 388.817342 55.593421 
L 389.355891 55.18881 
L 389.878786 54.799531 
L 390.44792 54.376757 
L 390.952139 54.005641 
L 391.539949 53.573946 
L 392.037734 53.21175 
L 392.631977 52.780315 
L 393.135919 52.41786 
L 393.724006 51.995806 
L 394.247052 51.62397 
L 394.816034 51.220358 
L 395.371508 50.83008 
L 395.908063 50.453912 
L 396.509674 50.03619 
L 397.000092 49.69641 
L 397.661953 49.242299 
L 398.09212 48.947794 
L 398.828765 48.448409 
L 399.184149 48.208007 
L 400.010545 47.654519 
L 400.276178 47.476991 
L 401.207748 46.860629 
L 401.368206 46.754691 
L 402.420844 46.066739 
L 402.460235 46.04105 
L 403.552264 45.338787 
L 403.656076 45.272848 
L 404.644292 44.64656 
L 404.911668 44.478958 
L 405.736321 43.96318 
L 406.185942 43.685068 
L 406.828349 43.288589 
L 407.47953 42.891178 
L 407.920378 42.622726 
L 408.793092 42.097287 
L 409.012407 41.965535 
L 410.104435 41.317573 
L 410.128834 41.303397 
L 411.196464 40.684509 
L 411.502117 40.509507 
L 412.288493 40.060298 
L 412.899496 39.715617 
L 413.380521 39.444879 
L 414.321893 38.921727 
L 414.47255 38.838192 
L 415.564579 38.245447 
L 415.785655 38.127836 
L 416.656607 37.6656 
L 417.29033 37.333946 
L 417.748636 37.094663 
L 418.82609 36.540056 
L 418.840665 36.532572 
L 419.932693 35.990619 
L 420.433338 35.746166 
L 421.024722 35.458119 
L 422.079872 34.952276 
L 422.11675 34.934639 
L 423.208779 34.433413 
L 423.819693 34.158385 
L 424.300808 33.94235 
L 425.392836 33.465591 
L 425.634588 33.364495 
L 426.484865 33.009885 
L 427.559754 32.570605 
L 427.576894 32.563619 
L 428.668922 32.146236 
L 429.659405 31.776715 
L 429.760951 31.738938 
L 430.85298 31.362292 
L 431.945008 30.998754 
L 431.997984 30.982824 
L 433.037037 30.671366 
L 434.129065 30.365068 
L 434.827257 30.188934 
L 435.221094 30.089912 
L 436.313123 29.855322 
L 437.405151 29.656756 
L 438.49718 29.502491 
L 439.589209 29.403554 
L 439.934348 29.395044 
L 440.681237 29.37671 
L 441.05365 29.395044 
L 441.773266 29.437708 
L 442.865295 29.622057 
L 443.957323 29.973311 
L 444.39115 30.188934 
L 445.049352 30.628048 
L 445.427906 30.982824 
L 446.002965 31.776715 
L 446.141381 32.080555 
L 446.319242 32.570605 
L 446.472262 33.364495 
L 446.512925 34.158385 
L 446.465371 34.952276 
L 446.347288 35.746166 
L 446.17193 36.540056 
L 446.141381 36.643467 
L 445.934437 37.333946 
L 445.654338 38.127836 
L 445.340956 38.921727 
L 445.049352 39.594423 
L 444.99613 39.715617 
L 444.607044 40.509507 
L 444.198872 41.303397 
L 443.957323 41.745408 
L 443.762748 42.097287 
L 443.298269 42.891178 
L 442.865295 43.61186 
L 442.820811 43.685068 
L 442.308789 44.478958 
L 441.791035 45.272848 
L 441.773266 45.298701 
L 441.239859 46.066739 
L 440.685619 46.860629 
L 440.681237 46.866624 
L 440.099616 47.654519 
L 439.589209 48.342905 
L 439.510183 48.448409 
L 438.895123 49.242299 
L 438.49718 49.75108 
L 438.271977 50.03619 
L 437.632542 50.83008 
L 437.405151 51.107302 
L 436.977302 51.62397 
L 436.31727 52.41786 
L 436.313123 52.422705 
L 435.631454 53.21175 
L 435.221094 53.685117 
L 434.940634 54.005641 
L 434.239087 54.799531 
L 434.129065 54.921715 
L 433.518739 55.593421 
L 433.037037 56.12187 
L 432.792863 56.387311 
L 432.055808 57.181202 
L 431.945008 57.298689 
L 431.301449 57.975092 
L 430.85298 58.445038 
L 430.541071 58.768982 
L 429.773883 59.562872 
L 429.760951 59.576015 
L 428.986059 60.356762 
L 428.668922 60.675398 
L 428.191755 61.150653 
L 427.576894 61.761333 
L 427.390798 61.944543 
L 426.578518 62.738433 
L 426.484865 62.828951 
L 425.750879 63.532323 
L 425.392836 63.874526 
L 424.916147 64.326213 
L 424.300808 64.907741 
L 424.074134 65.120104 
L 423.223931 65.913994 
L 423.208779 65.92797 
L 422.356054 66.707884 
L 422.11675 66.926209 
L 421.480477 67.501774 
L 421.024722 67.91302 
L 420.597002 68.295665 
L 419.932693 68.888489 
L 419.70542 69.089555 
L 418.840665 69.8527 
L 418.80552 69.883445 
L 417.890329 70.677335 
L 417.748636 70.799785 
L 416.965044 71.471225 
L 416.656607 71.734896 
L 416.031029 72.265116 
L 415.564579 72.659537 
L 415.088057 73.059006 
L 414.47255 73.573781 
L 414.135894 73.852896 
L 413.380521 74.4777 
L 413.174294 74.646786 
L 412.288493 75.371367 
L 412.203006 75.440676 
L 411.220602 76.234567 
L 411.196464 76.253966 
L 410.224456 77.028457 
L 410.104435 77.123877 
L 409.21822 77.822347 
L 409.012407 77.9842 
L 408.201626 78.616237 
L 407.920378 78.834999 
L 407.1744 79.410128 
L 406.828349 79.676336 
L 406.136253 80.204018 
L 405.736321 80.508273 
L 405.086891 80.997908 
L 404.644292 81.330873 
L 404.026006 81.791798 
L 403.552264 82.144196 
L 402.95328 82.585688 
L 402.460235 82.948304 
L 401.868382 83.379579 
L 401.368206 83.743256 
L 400.770969 84.173469 
L 400.276178 84.529112 
L 399.660686 84.967359 
L 399.184149 85.305932 
L 398.537164 85.761249 
L 398.09212 86.073773 
L 397.400019 86.555139 
L 397.000092 86.832694 
L 396.248851 87.34903 
L 395.908063 87.582753 
L 395.083248 88.14292 
L 394.816034 88.324006 
L 393.902778 88.93681 
L 393.724006 89.056511 
L 392.706993 89.7307 
L 392.631977 89.780323 
L 391.539949 90.494222 
L 391.492859 90.524591 
L 390.44792 91.196996 
L 390.257081 91.318481 
L 389.355891 91.890889 
L 389.003368 92.112371 
L 388.263863 92.575957 
L 387.731123 92.906261 
L 387.171834 93.252261 
L 386.439723 93.700151 
L 386.079805 93.919857 
L 385.128517 94.494042 
L 384.987777 94.578804 
L 383.895748 95.226504 
L 383.790322 95.287932 
L 382.803719 95.861477 
L 382.419994 96.081822 
L 381.711691 96.48762 
L 381.025801 96.875712 
L 380.619662 97.104992 
L 379.606837 97.669602 
L 379.527634 97.713655 
L 378.435605 98.306666 
L 378.141853 98.463493 
L 377.343576 98.888664 
L 376.641597 99.257383 
L 376.251548 99.461775 
L 375.159519 100.024837 
L 375.106571 100.051273 
L 374.06749 100.568798 
L 373.503943 100.845163 
L 372.975462 101.103695 
L 371.883433 101.629115 
L 371.861908 101.639054 
L 370.791404 102.132069 
L 370.126574 102.432944 
L 369.699376 102.625781 
L 368.607347 103.104144 
L 368.315781 103.226834 
L 367.515318 103.562761 
L 366.42329 104.011473 
L 366.399314 104.020724 
L 365.331261 104.431677 
L 364.312832 104.814614 
L 364.239233 104.842211 
L 363.147204 105.221807 
L 362.055175 105.588707 
L 361.990121 105.608505 
L 360.963147 105.920057 
L 359.871118 106.230667 
L 359.201242 106.402395 
L 358.779089 106.510258 
L 357.687061 106.750399 
L 356.595032 106.955513 
L 355.503003 107.117602 
L 354.693654 107.196285 
L 354.410975 107.223655 
L 353.318946 107.260288 
L 352.226918 107.216298 
z
" clip-path="url(#p5ab45f45e0)" style="fill: none; stroke: #440154; stroke-width: 0.8"/>
    <path d="M 461.882351 23.837812 
L 461.709864 25.425593 
L 461.347782 27.013373 
L 460.524354 29.395044 
L 459.245724 32.179883 
L 457.710763 34.952276 
L 455.695272 38.127836 
L 452.855432 42.097287 
L 449.713545 46.066739 
L 446.141381 50.232256 
L 441.773266 54.96753 
L 436.44091 60.356762 
L 431.424068 65.120104 
L 426.138283 69.883445 
L 419.932693 75.187811 
L 413.380521 80.492429 
L 406.509122 85.761249 
L 399.953943 90.524591 
L 393.025763 95.287932 
L 386.917735 99.257383 
L 380.432561 103.226834 
L 374.06749 106.859928 
L 368.607347 109.751997 
L 363.147204 112.40516 
L 358.764232 114.341297 
L 354.410975 116.051029 
L 350.034824 117.516858 
L 346.766774 118.39438 
L 343.490688 119.032219 
L 341.306631 119.273676 
L 339.122574 119.31422 
L 336.938517 119.063612 
L 335.846488 118.760093 
L 334.754459 118.295763 
L 333.647996 117.516858 
L 332.959601 116.722968 
L 332.493118 115.929077 
L 332.03916 114.341297 
L 331.961713 112.753517 
L 332.142161 111.165736 
L 332.570402 109.371641 
L 333.3385 107.196285 
L 334.416752 104.814614 
L 335.846488 102.168252 
L 337.650868 99.257383 
L 339.847357 96.081822 
L 342.877748 92.112371 
L 346.180071 88.14292 
L 350.04286 83.826274 
L 354.410975 79.257085 
L 359.921674 73.852896 
L 365.964281 68.295665 
L 371.883433 63.150541 
L 378.435605 57.754938 
L 385.283489 52.41786 
L 391.727667 47.654519 
L 398.530536 42.891178 
L 404.644292 38.834901 
L 411.196464 34.736728 
L 417.748636 30.903134 
L 423.449089 27.807264 
L 428.668922 25.187241 
L 431.557501 23.837812 
L 431.557501 23.837812 
" clip-path="url(#p5ab45f45e0)" style="fill: none; stroke: #440256; stroke-width: 0.8"/>
    <path d="M 477.00856 23.837812 
L 475.068529 27.013373 
L 472.350068 31.031738 
L 468.827886 35.746166 
L 464.961882 40.509507 
L 460.819681 45.272848 
L 455.969638 50.520318 
L 450.509495 56.095485 
L 444.460218 61.944543 
L 438.423388 67.501774 
L 431.174419 73.852896 
L 424.300808 79.597549 
L 416.576669 85.761249 
L 409.012407 91.518207 
L 401.368206 97.072932 
L 393.630785 102.432944 
L 386.079805 107.406861 
L 378.435605 112.180716 
L 370.791404 116.679064 
L 363.491384 120.692419 
L 357.288238 123.86798 
L 351.134889 126.776597 
L 345.674746 129.12436 
L 340.214602 131.21357 
L 335.846488 132.660264 
L 331.478373 133.852092 
L 328.202287 134.539946 
L 324.926202 134.999523 
L 322.742144 135.13233 
L 320.558087 135.088324 
L 318.37403 134.793672 
L 316.189972 134.123514 
L 314.851132 133.394662 
L 313.86934 132.600772 
L 312.913886 131.401847 
L 312.336764 130.219101 
L 311.922722 128.631321 
L 311.805374 127.04354 
L 311.905235 125.45576 
L 312.357381 123.074089 
L 313.078501 120.692419 
L 314.017024 118.310748 
L 315.547851 115.135187 
L 317.323576 111.959626 
L 319.846542 107.990175 
L 322.742144 103.88252 
L 326.307994 99.257383 
L 330.386345 94.359694 
L 335.230922 88.93681 
L 340.214602 83.687706 
L 345.674746 78.240692 
L 351.985034 72.265116 
L 358.779089 66.152479 
L 365.535149 60.356762 
L 372.975462 54.264223 
L 380.619662 48.291343 
L 388.945588 42.097287 
L 396.794232 36.540056 
L 403.850976 31.776715 
L 411.257744 27.013373 
L 416.431215 23.837812 
L 416.431215 23.837812 
" clip-path="url(#p5ab45f45e0)" style="fill: none; stroke: #440256; stroke-width: 0.8"/>
    <path d="M 492.512151 23.837812 
L 488.730497 28.650038 
L 484.11943 34.158385 
L 478.90224 40.036681 
L 473.257146 46.066739 
L 466.889925 52.536199 
L 459.626579 59.562872 
L 452.693552 65.978396 
L 444.705701 73.059006 
L 437.245744 79.410128 
L 428.668922 86.426608 
L 419.932693 93.283678 
L 410.947908 100.051273 
L 402.157879 106.402395 
L 392.98307 112.753517 
L 384.596801 118.310748 
L 375.821068 123.86798 
L 367.515318 128.876313 
L 359.624617 133.394662 
L 352.226918 137.404903 
L 344.504598 141.333564 
L 336.938517 144.89814 
L 330.386345 147.729514 
L 323.834173 150.277259 
L 318.37403 152.146665 
L 314.005915 153.442976 
L 309.637801 154.522419 
L 306.361715 155.160014 
L 303.027163 155.623588 
L 299.809543 155.839208 
L 297.625486 155.823792 
L 295.335661 155.623588 
L 293.257371 155.218855 
L 291.073314 154.473552 
L 289.981285 153.923201 
L 288.889256 153.191618 
L 287.797228 152.178989 
L 286.811624 150.860247 
L 286.39315 150.066357 
L 285.819381 148.478576 
L 285.519026 146.890796 
L 285.428409 145.303015 
L 285.584482 142.921345 
L 286.025092 140.539674 
L 286.705199 138.072571 
L 287.827725 134.982443 
L 289.240156 131.806882 
L 291.29994 127.837431 
L 293.640293 123.86798 
L 296.533457 119.433152 
L 299.809543 114.826601 
L 303.837036 109.577956 
L 308.403919 104.020724 
L 313.255557 98.463493 
L 318.37403 92.894624 
L 324.926202 86.127258 
L 331.762711 79.410128 
L 338.523225 73.059006 
L 345.674746 66.609023 
L 353.8216 59.562872 
L 362.055175 52.729213 
L 370.791404 45.769524 
L 379.751132 38.921727 
L 388.409053 32.570605 
L 397.43835 26.219483 
L 400.928137 23.837812 
L 400.928137 23.837812 
" clip-path="url(#p5ab45f45e0)" style="fill: none; stroke: #450559; stroke-width: 0.8"/>
    <path d="M 500.742812 35.133928 
L 494.082536 42.097287 
L 486.54644 49.645712 
L 478.711092 57.181202 
L 470.126228 65.120104 
L 461.204648 73.059006 
L 451.94856 80.997908 
L 442.3521 88.93681 
L 432.404692 96.875712 
L 423.139482 104.020724 
L 413.380521 111.29465 
L 403.552264 118.369189 
L 393.339132 125.45576 
L 383.842798 131.806882 
L 373.972932 138.158003 
L 363.671042 144.509125 
L 354.240879 150.066357 
L 344.582717 155.486411 
L 335.359311 160.386929 
L 327.110259 164.523895 
L 319.027417 168.325832 
L 311.781948 171.501392 
L 304.177657 174.560502 
L 297.274985 177.058624 
L 292.165342 178.710977 
L 286.705199 180.255222 
L 281.245056 181.524848 
L 276.876941 182.302198 
L 273.600855 182.715133 
L 270.32477 182.94524 
L 267.048684 182.952996 
L 263.772598 182.672295 
L 261.58854 182.266544 
L 259.404483 181.631403 
L 257.220426 180.667338 
L 256.128397 180.013278 
L 254.435462 178.646404 
L 253.694364 177.852514 
L 252.582125 176.264734 
L 251.760283 174.51228 
L 251.325733 173.089173 
L 251.026605 171.501392 
L 250.872025 169.119722 
L 250.999731 166.738051 
L 251.350591 164.356381 
L 251.884225 161.97471 
L 252.852311 158.757619 
L 254.024946 155.623588 
L 255.783298 151.654137 
L 257.798775 147.684686 
L 260.036535 143.715235 
L 262.977804 138.951894 
L 266.165737 134.188552 
L 270.32477 128.412522 
L 275.053923 122.280199 
L 280.256086 115.929077 
L 286.449664 108.784065 
L 292.231619 102.432944 
L 299.032147 95.287932 
L 306.361715 87.910413 
L 314.340722 80.204018 
L 322.742144 72.403475 
L 331.478373 64.594056 
L 340.214602 57.058063 
L 350.04286 48.879933 
L 359.871118 40.99309 
L 369.718551 33.364495 
L 380.349827 25.425593 
L 382.52494 23.837812 
L 382.52494 23.837812 
" clip-path="url(#p5ab45f45e0)" style="fill: none; stroke: #46085c; stroke-width: 0.8"/>
    <path d="M 500.742812 56.839589 
L 490.839614 65.913994 
L 480.082965 75.440676 
L 469.898298 84.173469 
L 459.245724 93.033383 
L 447.580896 102.432944 
L 436.313123 111.231362 
L 424.300808 120.317412 
L 412.288493 129.112668 
L 400.276178 137.622523 
L 388.263863 145.849515 
L 376.251548 153.79295 
L 364.666909 161.18082 
L 354.347799 167.531941 
L 343.490688 173.96984 
L 332.476901 180.234185 
L 321.650116 186.113914 
L 311.520009 191.348648 
L 301.791709 196.111989 
L 293.205329 200.08144 
L 284.030684 204.050891 
L 276.114326 207.226452 
L 269.232741 209.774109 
L 262.680569 211.99167 
L 256.128397 213.9736 
L 250.668254 215.421043 
L 245.208111 216.650413 
L 239.747968 217.619904 
L 235.379853 218.169935 
L 231.011739 218.476555 
L 227.735653 218.510296 
L 224.459567 218.338201 
L 221.183481 217.900606 
L 218.999423 217.427501 
L 216.782501 216.753135 
L 214.631309 215.853737 
L 212.447252 214.602263 
L 211.084543 213.577574 
L 209.464751 211.989793 
L 208.262193 210.402013 
L 207.364955 208.814233 
L 206.697863 207.226452 
L 206.217865 205.638672 
L 205.776932 203.257001 
L 205.611823 200.87533 
L 205.666708 198.49366 
L 205.905539 196.111989 
L 206.472524 192.936428 
L 207.271342 189.760867 
L 208.550429 185.791416 
L 210.092204 181.821965 
L 211.863804 177.852514 
L 214.249324 173.089173 
L 216.883686 168.325832 
L 220.237572 162.7686 
L 223.858347 157.211369 
L 227.735653 151.625576 
L 232.39132 145.303015 
L 237.56391 138.651125 
L 243.156297 131.806882 
L 249.962912 123.86798 
L 256.360353 116.722968 
L 263.772598 108.763764 
L 272.508827 99.756549 
L 281.245056 91.09004 
L 290.123669 82.585688 
L 299.809543 73.616802 
L 310.186816 64.326213 
L 320.558087 55.338221 
L 331.60292 46.066739 
L 342.39866 37.282983 
L 354.41926 27.807264 
L 359.575907 23.837812 
L 359.575907 23.837812 
" clip-path="url(#p5ab45f45e0)" style="fill: none; stroke: #471063; stroke-width: 0.8"/>
    <path d="M 500.742812 82.074649 
L 487.971716 92.906261 
L 475.458461 103.226834 
L 462.52181 113.609196 
L 449.384004 123.86798 
L 435.793951 134.188552 
L 422.901877 143.715235 
L 409.653308 153.241918 
L 396.023469 162.7686 
L 383.163636 171.501392 
L 370.791404 179.669341 
L 357.518588 188.173087 
L 344.582717 196.197876 
L 331.478373 204.054492 
L 318.37403 211.62442 
L 306.290049 218.340915 
L 294.3494 224.712623 
L 283.429113 230.294261 
L 272.123884 235.8065 
L 261.835213 240.569841 
L 252.791034 244.539292 
L 243.024054 248.573546 
L 234.287824 251.936306 
L 226.080487 254.859865 
L 218.793545 257.241536 
L 211.355223 259.436233 
L 204.528034 261.210987 
L 198.250879 262.609804 
L 192.790736 263.61662 
L 187.330593 264.393708 
L 182.962478 264.820706 
L 178.594364 265.047144 
L 174.226249 265.030634 
L 170.950163 264.826209 
L 167.443382 264.386548 
L 164.397991 263.775713 
L 162.213934 263.175177 
L 160.029877 262.408898 
L 157.408252 261.210987 
L 155.661762 260.196419 
L 153.477705 258.590437 
L 152.030669 257.241536 
L 150.655791 255.653755 
L 149.555349 254.065975 
L 148.673331 252.478194 
L 147.676983 250.096524 
L 146.994019 247.714853 
L 146.569169 245.333182 
L 146.354078 242.951512 
L 146.342096 239.775951 
L 146.594764 236.60039 
L 147.071543 233.424829 
L 147.938213 229.455378 
L 149.109591 225.341284 
L 150.41387 221.516476 
L 152.291167 216.753135 
L 154.569734 211.668973 
L 157.175662 206.432562 
L 160.196563 200.87533 
L 163.939104 194.524209 
L 167.956904 188.173087 
L 172.224807 181.821965 
L 177.502335 174.399084 
L 183.24762 166.738051 
L 189.51465 158.774686 
L 196.689926 150.066357 
L 203.711023 141.887982 
L 211.355223 133.307738 
L 220.091452 123.853092 
L 229.197583 114.341297 
L 238.655939 104.779648 
L 249.16457 94.494042 
L 259.404483 84.772334 
L 270.383274 74.646786 
L 282.337085 63.941444 
L 294.672796 53.21175 
L 306.876924 42.891178 
L 319.466058 32.531026 
L 330.299341 23.837812 
L 330.299341 23.837812 
" clip-path="url(#p5ab45f45e0)" style="fill: none; stroke: #481a6c; stroke-width: 0.8"/>
    <path d="M 500.742812 113.277695 
L 486.54644 124.713874 
L 471.258039 136.740339 
L 455.969638 148.478839 
L 440.071815 160.386929 
L 424.864467 171.501392 
L 410.104435 182.034012 
L 394.443781 192.936428 
L 379.23443 203.257001 
L 363.618169 213.577574 
L 348.808981 223.104256 
L 333.580103 232.630939 
L 318.37403 241.863276 
L 304.177657 250.223198 
L 289.981285 258.322007 
L 276.107093 265.974328 
L 263.772598 272.54852 
L 251.760283 278.732814 
L 238.655939 285.217698 
L 226.643624 290.906687 
L 215.06239 296.142156 
L 204.803051 300.559241 
L 194.230509 304.874949 
L 185.146536 308.374526 
L 176.410307 311.541051 
L 167.674077 314.493603 
L 158.937848 317.207306 
L 151.293648 319.36465 
L 143.649447 321.292919 
L 137.097276 322.740519 
L 130.545104 323.974137 
L 123.992932 324.960207 
L 118.532789 325.566497 
L 113.072645 325.941925 
L 108.704531 326.051587 
L 104.336416 325.96194 
L 99.968302 325.638768 
L 96.692216 325.21317 
L 93.41613 324.60321 
L 90.140044 323.770059 
L 86.863958 322.663164 
L 84.274146 321.546643 
L 82.495844 320.628161 
L 80.133813 319.164972 
L 78.043574 317.577192 
L 75.943672 315.599427 
L 74.2475 313.607741 
L 73.131702 312.01996 
L 71.773349 309.63829 
L 70.727065 307.256619 
L 69.936229 304.874949 
L 69.357138 302.493278 
L 68.871692 299.317717 
L 68.657592 296.142156 
L 68.67704 292.966595 
L 68.898948 289.791034 
L 69.422545 285.821583 
L 70.19008 281.852132 
L 71.168619 277.882681 
L 72.58875 273.11934 
L 74.25057 268.355999 
L 76.124305 263.592657 
L 78.553892 258.035426 
L 81.403815 252.106644 
L 84.52168 246.127073 
L 88.076836 239.775951 
L 92.348601 232.630939 
L 96.884834 225.485927 
L 102.206953 217.547025 
L 107.804395 209.608123 
L 114.253678 200.87533 
L 120.989036 192.142538 
L 128.361046 182.956497 
L 136.005247 173.77555 
L 144.81607 163.56249 
L 154.032009 153.241918 
L 163.545355 142.921345 
L 173.345389 132.600772 
L 184.208273 121.486309 
L 195.382683 110.371846 
L 206.987108 99.135431 
L 219.487393 87.34903 
L 232.103767 75.756337 
L 245.208111 64.01268 
L 258.465233 52.41786 
L 272.508827 40.428614 
L 286.705199 28.597546 
L 292.513553 23.837812 
L 292.513553 23.837812 
" clip-path="url(#p5ab45f45e0)" style="fill: none; stroke: #482979; stroke-width: 0.8"/>
    <path d="M 43.182813 220.870496 
L 51.818383 210.402013 
L 61.276495 199.28755 
L 71.018133 188.173087 
L 81.403815 176.651329 
L 92.324101 164.859566 
L 104.336416 152.229047 
L 116.51917 139.745784 
L 129.453075 126.817516 
L 143.056526 113.547407 
L 156.753791 100.495421 
L 170.950163 87.269704 
L 186.238564 73.345758 
L 201.715375 59.562872 
L 217.202261 46.066739 
L 233.195796 32.421004 
L 243.430605 23.837812 
M 500.742812 152.917507 
L 483.270354 166.458291 
L 465.797896 179.716175 
L 448.000396 192.936428 
L 430.531267 205.638672 
L 412.68098 218.340915 
L 395.579898 230.249268 
L 378.100712 242.157622 
L 360.963147 253.574162 
L 343.490688 264.94766 
L 326.01823 276.048888 
L 308.966565 286.615474 
L 293.206692 296.142156 
L 276.876941 305.762968 
L 260.416268 315.195521 
L 244.116082 324.262959 
L 228.544151 332.661106 
L 213.338861 340.600008 
L 199.185791 347.74502 
L 185.146536 354.586082 
L 181.168575 356.477812 
L 181.168575 356.477812 
" clip-path="url(#p5ab45f45e0)" style="fill: none; stroke: #414287; stroke-width: 0.8"/>
    <path d="M 500.742812 203.967881 
L 480.607815 219.134805 
L 460.337753 234.122493 
L 440.516426 248.508743 
L 419.932693 263.169302 
L 400.012143 277.088791 
L 379.527634 291.127125 
L 359.059834 304.874949 
L 339.766362 317.577192 
L 320.079433 330.279435 
L 300.901571 342.398536 
L 281.245056 354.554606 
L 278.094591 356.477812 
M 43.182813 148.28762 
L 58.471213 133.278973 
L 74.037241 118.310748 
L 90.140044 103.134054 
L 107.227698 87.34903 
L 123.992932 72.16069 
L 141.739974 56.387311 
L 159.030928 41.303397 
L 177.571804 25.425593 
L 179.445408 23.837812 
L 179.445408 23.837812 
" clip-path="url(#p5ab45f45e0)" style="fill: none; stroke: #30698e; stroke-width: 0.8"/>
    <path d="M 500.742812 270.198413 
L 477.396368 287.409364 
L 454.408165 304.081058 
L 431.945008 320.110656 
L 408.408025 336.630557 
L 385.398744 352.508361 
L 379.585157 356.477812 
M 43.182813 69.96611 
L 62.960265 52.41786 
L 83.587872 34.413557 
L 95.863645 23.837812 
L 95.863645 23.837812 
" clip-path="url(#p5ab45f45e0)" style="fill: none; stroke: #20a486; stroke-width: 0.8"/>
    <path clip-path="url(#p5ab45f45e0)" style="fill: none; stroke: #fde725; stroke-width: 0.8"/>
   </g>
   <g id="line2d_23">
    <path d="M 398.324664 311.996666 
L 145.600961 286.228353 
L 396.921034 68.318959 
" clip-path="url(#p5ab45f45e0)" style="fill: none; stroke: #2563eb; stroke-width: 2.5; stroke-linecap: square"/>
    <defs>
     <path id="meaacd33616" d="M 0 3 
C 0.795609 3 1.55874 2.683901 2.12132 2.12132 
C 2.683901 1.55874 3 0.795609 3 0 
C 3 -0.795609 2.683901 -1.55874 2.12132 -2.12132 
C 1.55874 -2.683901 0.795609 -3 0 -3 
C -0.795609 -3 -1.55874 -2.683901 -2.12132 -2.12132 
C -2.683901 -1.55874 -3 -0.795609 -3 0 
C -3 0.795609 -2.683901 1.55874 -2.12132 2.12132 
C -1.55874 2.683901 -0.795609 3 0 3 
z
" style="stroke: #2563eb"/>
    </defs>
    <g clip-path="url(#p5ab45f45e0)">
     <use xlink:href="#meaacd33616" x="398.324664" y="311.996666" style="fill: #2563eb; stroke: #2563eb"/>
     <use xlink:href="#meaacd33616" x="145.600961" y="286.228353" style="fill: #2563eb; stroke: #2563eb"/>
     <use xlink:href="#meaacd33616" x="396.921034" y="68.318959" style="fill: #2563eb; stroke: #2563eb"/>
    </g>
   </g>
   <g id="patch_3">
    <path d="M 43.182813 356.477812 
L 43.182813 23.837812 
" style="fill: none; stroke: #000000; stroke-width: 0.8; stroke-linejoin: miter; stroke-linecap: square"/>
   </g>
   <g id="patch_4">
    <path d="M 43.182813 356.477812 
L 500.742812 356.477812 
" style="fill: none; stroke: #000000; stroke-width: 0.8; stroke-linejoin: miter; stroke-linecap: square"/>
   </g>
   <g id="text_14">
    <!-- $p_0$ -->
    <g transform="translate(409.497552 325.588127) scale(0.1 -0.1)">
     <use xlink:href="#DejaVuSans-Oblique-70"/>
     <use xlink:href="#DejaVuSans-30" transform="translate(63.476562 -16.40625) scale(0.7)"/>
    </g>
   </g>
   <g id="text_15">
    <!-- $p_1$ -->
    <g transform="translate(155.842776 280.791768) scale(0.1 -0.1)">
     <use xlink:href="#DejaVuSans-Oblique-70"/>
     <use xlink:href="#DejaVuSans-31" transform="translate(63.476562 -16.40625) scale(0.7)"/>
    </g>
   </g>
   <g id="text_16">
    <!-- $p_2$ -->
    <g transform="translate(341.056589 81.910421) scale(0.1 -0.1)">
     <use xlink:href="#DejaVuSans-Oblique-70"/>
     <use xlink:href="#DejaVuSans-32" transform="translate(63.476562 -16.40625) scale(0.7)"/>
    </g>
   </g>
   <g id="text_17">
    <g id="patch_5">
     <path d="M 56.909613 348.212212 
L 308.009612 348.212212 
Q 311.159612 348.212212 311.159612 345.062212 
L 311.159612 336.332212 
Q 311.159612 333.182212 308.009612 333.182212 
L 56.909613 333.182212 
Q 53.759613 333.182212 53.759613 336.332212 
L 53.759613 345.062212 
Q 53.759613 348.212212 56.909613 348.212212 
z
" style="fill: #ffffff; stroke: #cbd5e1; stroke-linejoin: miter"/>
    </g>
    <!-- CG approximately solves $H_kp=-g_k$ using products $H_kv$. -->
    <g style="fill: #374151" transform="translate(56.909613 343.172212) scale(0.09 -0.09)">
     <defs>
      <path id="DejaVuSans-43" d="M 4122 4306 
L 4122 3641 
Q 3803 3938 3442 4084 
Q 3081 4231 2675 4231 
Q 1875 4231 1450 3742 
Q 1025 3253 1025 2328 
Q 1025 1406 1450 917 
Q 1875 428 2675 428 
Q 3081 428 3442 575 
Q 3803 722 4122 1019 
L 4122 359 
Q 3791 134 3420 21 
Q 3050 -91 2638 -91 
Q 1578 -91 968 557 
Q 359 1206 359 2328 
Q 359 3453 968 4101 
Q 1578 4750 2638 4750 
Q 3056 4750 3426 4639 
Q 3797 4528 4122 4306 
z
" transform="scale(0.015625)"/>
      <path id="DejaVuSans-47" d="M 3809 666 
L 3809 1919 
L 2778 1919 
L 2778 2438 
L 4434 2438 
L 4434 434 
Q 4069 175 3628 42 
Q 3188 -91 2688 -91 
Q 1594 -91 976 548 
Q 359 1188 359 2328 
Q 359 3472 976 4111 
Q 1594 4750 2688 4750 
Q 3144 4750 3555 4637 
Q 3966 4525 4313 4306 
L 4313 3634 
Q 3963 3931 3569 4081 
Q 3175 4231 2741 4231 
Q 1884 4231 1454 3753 
Q 1025 3275 1025 2328 
Q 1025 1384 1454 906 
Q 1884 428 2741 428 
Q 3075 428 3337 486 
Q 3600 544 3809 666 
z
" transform="scale(0.015625)"/>
      <path id="DejaVuSans-78" d="M 3513 3500 
L 2247 1797 
L 3578 0 
L 2900 0 
L 1881 1375 
L 863 0 
L 184 0 
L 1544 1831 
L 300 3500 
L 978 3500 
L 1906 2253 
L 2834 3500 
L 3513 3500 
z
" transform="scale(0.015625)"/>
      <path id="DejaVuSans-6d" d="M 3328 2828 
Q 3544 3216 3844 3400 
Q 4144 3584 4550 3584 
Q 5097 3584 5394 3201 
Q 5691 2819 5691 2113 
L 5691 0 
L 5113 0 
L 5113 2094 
Q 5113 2597 4934 2840 
Q 4756 3084 4391 3084 
Q 3944 3084 3684 2787 
Q 3425 2491 3425 1978 
L 3425 0 
L 2847 0 
L 2847 2094 
Q 2847 2600 2669 2842 
Q 2491 3084 2119 3084 
Q 1678 3084 1418 2786 
Q 1159 2488 1159 1978 
L 1159 0 
L 581 0 
L 581 3500 
L 1159 3500 
L 1159 2956 
Q 1356 3278 1631 3431 
Q 1906 3584 2284 3584 
Q 2666 3584 2933 3390 
Q 3200 3197 3328 2828 
z
" transform="scale(0.015625)"/>
      <path id="DejaVuSans-6c" d="M 603 4863 
L 1178 4863 
L 1178 0 
L 603 0 
L 603 4863 
z
" transform="scale(0.015625)"/>
      <path id="DejaVuSans-79" d="M 2059 -325 
Q 1816 -950 1584 -1140 
Q 1353 -1331 966 -1331 
L 506 -1331 
L 506 -850 
L 844 -850 
Q 1081 -850 1212 -737 
Q 1344 -625 1503 -206 
L 1606 56 
L 191 3500 
L 800 3500 
L 1894 763 
L 2988 3500 
L 3597 3500 
L 2059 -325 
z
" transform="scale(0.015625)"/>
      <path id="DejaVuSans-76" d="M 191 3500 
L 800 3500 
L 1894 563 
L 2988 3500 
L 3597 3500 
L 2284 0 
L 1503 0 
L 191 3500 
z
" transform="scale(0.015625)"/>
      <path id="DejaVuSans-Oblique-48" d="M 1081 4666 
L 1716 4666 
L 1344 2753 
L 3634 2753 
L 4006 4666 
L 4641 4666 
L 3731 0 
L 3097 0 
L 3531 2222 
L 1241 2222 
L 806 0 
L 172 0 
L 1081 4666 
z
" transform="scale(0.015625)"/>
      <path id="DejaVuSans-Oblique-6b" d="M 1172 4863 
L 1747 4863 
L 1197 2028 
L 3169 3500 
L 3916 3500 
L 1716 1825 
L 3322 0 
L 2625 0 
L 1131 1709 
L 800 0 
L 225 0 
L 1172 4863 
z
" transform="scale(0.015625)"/>
      <path id="DejaVuSans-3d" d="M 678 2906 
L 4684 2906 
L 4684 2381 
L 678 2381 
L 678 2906 
z
M 678 1631 
L 4684 1631 
L 4684 1100 
L 678 1100 
L 678 1631 
z
" transform="scale(0.015625)"/>
      <path id="DejaVuSans-Oblique-67" d="M 3816 3500 
L 3219 434 
Q 3047 -456 2561 -893 
Q 2075 -1331 1253 -1331 
Q 950 -1331 690 -1286 
Q 431 -1241 206 -1147 
L 313 -588 
Q 525 -725 762 -790 
Q 1000 -856 1269 -856 
Q 1816 -856 2167 -557 
Q 2519 -259 2631 300 
L 2681 563 
Q 2441 288 2122 144 
Q 1803 0 1434 0 
Q 903 0 598 351 
Q 294 703 294 1319 
Q 294 1803 478 2267 
Q 663 2731 997 3091 
Q 1219 3328 1514 3456 
Q 1809 3584 2131 3584 
Q 2484 3584 2746 3420 
Q 3009 3256 3138 2956 
L 3238 3500 
L 3816 3500 
z
M 2950 2216 
Q 2950 2641 2750 2872 
Q 2550 3103 2181 3103 
Q 1953 3103 1747 3012 
Q 1541 2922 1394 2759 
Q 1156 2491 1023 2127 
Q 891 1763 891 1375 
Q 891 944 1092 712 
Q 1294 481 1672 481 
Q 2219 481 2584 976 
Q 2950 1472 2950 2216 
z
" transform="scale(0.015625)"/>
      <path id="DejaVuSans-75" d="M 544 1381 
L 544 3500 
L 1119 3500 
L 1119 1403 
Q 1119 906 1312 657 
Q 1506 409 1894 409 
Q 2359 409 2629 706 
Q 2900 1003 2900 1516 
L 2900 3500 
L 3475 3500 
L 3475 0 
L 2900 0 
L 2900 538 
Q 2691 219 2414 64 
Q 2138 -91 1772 -91 
Q 1169 -91 856 284 
Q 544 659 544 1381 
z
M 1991 3584 
L 1991 3584 
z
" transform="scale(0.015625)"/>
      <path id="DejaVuSans-67" d="M 2906 1791 
Q 2906 2416 2648 2759 
Q 2391 3103 1925 3103 
Q 1463 3103 1205 2759 
Q 947 2416 947 1791 
Q 947 1169 1205 825 
Q 1463 481 1925 481 
Q 2391 481 2648 825 
Q 2906 1169 2906 1791 
z
M 3481 434 
Q 3481 -459 3084 -895 
Q 2688 -1331 1869 -1331 
Q 1566 -1331 1297 -1286 
Q 1028 -1241 775 -1147 
L 775 -588 
Q 1028 -725 1275 -790 
Q 1522 -856 1778 -856 
Q 2344 -856 2625 -561 
Q 2906 -266 2906 331 
L 2906 616 
Q 2728 306 2450 153 
Q 2172 0 1784 0 
Q 1141 0 747 490 
Q 353 981 353 1791 
Q 353 2603 747 3093 
Q 1141 3584 1784 3584 
Q 2172 3584 2450 3431 
Q 2728 3278 2906 2969 
L 2906 3500 
L 3481 3500 
L 3481 434 
z
" transform="scale(0.015625)"/>
      <path id="DejaVuSans-Oblique-76" d="M 459 3500 
L 1069 3500 
L 1581 525 
L 3256 3500 
L 3866 3500 
L 1875 0 
L 1100 0 
L 459 3500 
z
" transform="scale(0.015625)"/>
     </defs>
     <use xlink:href="#DejaVuSans-43" transform="translate(0 0.015625)"/>
     <use xlink:href="#DejaVuSans-47" transform="translate(69.824219 0.015625)"/>
     <use xlink:href="#DejaVuSans-20" transform="translate(147.314453 0.015625)"/>
     <use xlink:href="#DejaVuSans-61" transform="translate(179.101562 0.015625)"/>
     <use xlink:href="#DejaVuSans-70" transform="translate(240.380859 0.015625)"/>
     <use xlink:href="#DejaVuSans-70" transform="translate(303.857422 0.015625)"/>
     <use xlink:href="#DejaVuSans-72" transform="translate(367.333984 0.015625)"/>
     <use xlink:href="#DejaVuSans-6f" transform="translate(408.447266 0.015625)"/>
     <use xlink:href="#DejaVuSans-78" transform="translate(469.628906 0.015625)"/>
     <use xlink:href="#DejaVuSans-69" transform="translate(528.808594 0.015625)"/>
     <use xlink:href="#DejaVuSans-6d" transform="translate(556.591797 0.015625)"/>
     <use xlink:href="#DejaVuSans-61" transform="translate(654.003906 0.015625)"/>
     <use xlink:href="#DejaVuSans-74" transform="translate(715.283203 0.015625)"/>
     <use xlink:href="#DejaVuSans-65" transform="translate(754.492188 0.015625)"/>
     <use xlink:href="#DejaVuSans-6c" transform="translate(816.015625 0.015625)"/>
     <use xlink:href="#DejaVuSans-79" transform="translate(843.798828 0.015625)"/>
     <use xlink:href="#DejaVuSans-20" transform="translate(902.978516 0.015625)"/>
     <use xlink:href="#DejaVuSans-73" transform="translate(934.765625 0.015625)"/>
     <use xlink:href="#DejaVuSans-6f" transform="translate(986.865234 0.015625)"/>
     <use xlink:href="#DejaVuSans-6c" transform="translate(1048.046875 0.015625)"/>
     <use xlink:href="#DejaVuSans-76" transform="translate(1075.830078 0.015625)"/>
     <use xlink:href="#DejaVuSans-65" transform="translate(1135.009766 0.015625)"/>
     <use xlink:href="#DejaVuSans-73" transform="translate(1196.533203 0.015625)"/>
     <use xlink:href="#DejaVuSans-20" transform="translate(1248.632812 0.015625)"/>
     <use xlink:href="#DejaVuSans-Oblique-48" transform="translate(1280.419922 0.015625)"/>
     <use xlink:href="#DejaVuSans-Oblique-6b" transform="translate(1355.615234 -16.390625) scale(0.7)"/>
     <use xlink:href="#DejaVuSans-Oblique-70" transform="translate(1398.886719 0.015625)"/>
     <use xlink:href="#DejaVuSans-3d" transform="translate(1481.845703 0.015625)"/>
     <use xlink:href="#DejaVuSans-2212" transform="translate(1585.117188 0.015625)"/>
     <use xlink:href="#DejaVuSans-Oblique-67" transform="translate(1668.90625 0.015625)"/>
     <use xlink:href="#DejaVuSans-Oblique-6b" transform="translate(1732.382812 -16.390625) scale(0.7)"/>
     <use xlink:href="#DejaVuSans-20" transform="translate(1775.654297 0.015625)"/>
     <use xlink:href="#DejaVuSans-75" transform="translate(1807.441406 0.015625)"/>
     <use xlink:href="#DejaVuSans-73" transform="translate(1870.820312 0.015625)"/>
     <use xlink:href="#DejaVuSans-69" transform="translate(1922.919922 0.015625)"/>
     <use xlink:href="#DejaVuSans-6e" transform="translate(1950.703125 0.015625)"/>
     <use xlink:href="#DejaVuSans-67" transform="translate(2014.082031 0.015625)"/>
     <use xlink:href="#DejaVuSans-20" transform="translate(2077.558594 0.015625)"/>
     <use xlink:href="#DejaVuSans-70" transform="translate(2109.345703 0.015625)"/>
     <use xlink:href="#DejaVuSans-72" transform="translate(2172.822266 0.015625)"/>
     <use xlink:href="#DejaVuSans-6f" transform="translate(2213.935547 0.015625)"/>
     <use xlink:href="#DejaVuSans-64" transform="translate(2275.117188 0.015625)"/>
     <use xlink:href="#DejaVuSans-75" transform="translate(2338.59375 0.015625)"/>
     <use xlink:href="#DejaVuSans-63" transform="translate(2401.972656 0.015625)"/>
     <use xlink:href="#DejaVuSans-74" transform="translate(2456.953125 0.015625)"/>
     <use xlink:href="#DejaVuSans-73" transform="translate(2496.162109 0.015625)"/>
     <use xlink:href="#DejaVuSans-20" transform="translate(2548.261719 0.015625)"/>
     <use xlink:href="#DejaVuSans-Oblique-48" transform="translate(2580.048828 0.015625)"/>
     <use xlink:href="#DejaVuSans-Oblique-6b" transform="translate(2655.244141 -16.390625) scale(0.7)"/>
     <use xlink:href="#DejaVuSans-Oblique-76" transform="translate(2698.515625 0.015625)"/>
     <use xlink:href="#DejaVuSans-2e" transform="translate(2757.695312 0.015625)"/>
    </g>
   </g>
   <g id="text_18">
    <!-- Inner CG solve of the local quadratic model -->
    <g transform="translate(119.96875 17.837812) scale(0.14 -0.14)">
     <defs>
      <path id="DejaVuSans-49" d="M 628 4666 
L 1259 4666 
L 1259 0 
L 628 0 
L 628 4666 
z
" transform="scale(0.015625)"/>
      <path id="DejaVuSans-66" d="M 2375 4863 
L 2375 4384 
L 1825 4384 
Q 1516 4384 1395 4259 
Q 1275 4134 1275 3809 
L 1275 3500 
L 2222 3500 
L 2222 3053 
L 1275 3053 
L 1275 0 
L 697 0 
L 697 3053 
L 147 3053 
L 147 3500 
L 697 3500 
L 697 3744 
Q 697 4328 969 4595 
Q 1241 4863 1831 4863 
L 2375 4863 
z
" transform="scale(0.015625)"/>
      <path id="DejaVuSans-68" d="M 3513 2113 
L 3513 0 
L 2938 0 
L 2938 2094 
Q 2938 2591 2744 2837 
Q 2550 3084 2163 3084 
Q 1697 3084 1428 2787 
Q 1159 2491 1159 1978 
L 1159 0 
L 581 0 
L 581 4863 
L 1159 4863 
L 1159 2956 
Q 1366 3272 1645 3428 
Q 1925 3584 2291 3584 
Q 2894 3584 3203 3211 
Q 3513 2838 3513 2113 
z
" transform="scale(0.015625)"/>
      <path id="DejaVuSans-71" d="M 947 1747 
Q 947 1113 1208 752 
Q 1469 391 1925 391 
Q 2381 391 2643 752 
Q 2906 1113 2906 1747 
Q 2906 2381 2643 2742 
Q 2381 3103 1925 3103 
Q 1469 3103 1208 2742 
Q 947 2381 947 1747 
z
M 2906 525 
Q 2725 213 2448 61 
Q 2172 -91 1784 -91 
Q 1150 -91 751 415 
Q 353 922 353 1747 
Q 353 2572 751 3078 
Q 1150 3584 1784 3584 
Q 2172 3584 2448 3432 
Q 2725 3281 2906 2969 
L 2906 3500 
L 3481 3500 
L 3481 -1331 
L 2906 -1331 
L 2906 525 
z
" transform="scale(0.015625)"/>
     </defs>
     <use xlink:href="#DejaVuSans-49"/>
     <use xlink:href="#DejaVuSans-6e" transform="translate(29.492188 0)"/>
     <use xlink:href="#DejaVuSans-6e" transform="translate(92.871094 0)"/>
     <use xlink:href="#DejaVuSans-65" transform="translate(156.25 0)"/>
     <use xlink:href="#DejaVuSans-72" transform="translate(217.773438 0)"/>
     <use xlink:href="#DejaVuSans-20" transform="translate(258.886719 0)"/>
     <use xlink:href="#DejaVuSans-43" transform="translate(290.673828 0)"/>
     <use xlink:href="#DejaVuSans-47" transform="translate(360.498047 0)"/>
     <use xlink:href="#DejaVuSans-20" transform="translate(437.988281 0)"/>
     <use xlink:href="#DejaVuSans-73" transform="translate(469.775391 0)"/>
     <use xlink:href="#DejaVuSans-6f" transform="translate(521.875 0)"/>
     <use xlink:href="#DejaVuSans-6c" transform="translate(583.056641 0)"/>
     <use xlink:href="#DejaVuSans-76" transform="translate(610.839844 0)"/>
     <use xlink:href="#DejaVuSans-65" transform="translate(670.019531 0)"/>
     <use xlink:href="#DejaVuSans-20" transform="translate(731.542969 0)"/>
     <use xlink:href="#DejaVuSans-6f" transform="translate(763.330078 0)"/>
     <use xlink:href="#DejaVuSans-66" transform="translate(824.511719 0)"/>
     <use xlink:href="#DejaVuSans-20" transform="translate(859.716797 0)"/>
     <use xlink:href="#DejaVuSans-74" transform="translate(891.503906 0)"/>
     <use xlink:href="#DejaVuSans-68" transform="translate(930.712891 0)"/>
     <use xlink:href="#DejaVuSans-65" transform="translate(994.091797 0)"/>
     <use xlink:href="#DejaVuSans-20" transform="translate(1055.615234 0)"/>
     <use xlink:href="#DejaVuSans-6c" transform="translate(1087.402344 0)"/>
     <use xlink:href="#DejaVuSans-6f" transform="translate(1115.185547 0)"/>
     <use xlink:href="#DejaVuSans-63" transform="translate(1176.367188 0)"/>
     <use xlink:href="#DejaVuSans-61" transform="translate(1231.347656 0)"/>
     <use xlink:href="#DejaVuSans-6c" transform="translate(1292.626953 0)"/>
     <use xlink:href="#DejaVuSans-20" transform="translate(1320.410156 0)"/>
     <use xlink:href="#DejaVuSans-71" transform="translate(1352.197266 0)"/>
     <use xlink:href="#DejaVuSans-75" transform="translate(1415.673828 0)"/>
     <use xlink:href="#DejaVuSans-61" transform="translate(1479.052734 0)"/>
     <use xlink:href="#DejaVuSans-64" transform="translate(1540.332031 0)"/>
     <use xlink:href="#DejaVuSans-72" transform="translate(1603.808594 0)"/>
     <use xlink:href="#DejaVuSans-61" transform="translate(1644.921875 0)"/>
     <use xlink:href="#DejaVuSans-74" transform="translate(1706.201172 0)"/>
     <use xlink:href="#DejaVuSans-69" transform="translate(1745.410156 0)"/>
     <use xlink:href="#DejaVuSans-63" transform="translate(1773.193359 0)"/>
     <use xlink:href="#DejaVuSans-20" transform="translate(1828.173828 0)"/>
     <use xlink:href="#DejaVuSans-6d" transform="translate(1859.960938 0)"/>
     <use xlink:href="#DejaVuSans-6f" transform="translate(1957.373047 0)"/>
     <use xlink:href="#DejaVuSans-64" transform="translate(2018.554688 0)"/>
     <use xlink:href="#DejaVuSans-65" transform="translate(2082.03125 0)"/>
     <use xlink:href="#DejaVuSans-6c" transform="translate(2143.554688 0)"/>
    </g>
   </g>
   <g id="PathCollection_1">
    <defs>
     <path id="me0e4ac0456" d="M 0 -6.892024 
L -1.547356 -2.129753 
L -6.554705 -2.129753 
L -2.503674 0.813493 
L -4.05103 5.575765 
L -0 2.632519 
L 4.05103 5.575765 
L 2.503674 0.813493 
L 6.554705 -2.129753 
L 1.547356 -2.129753 
z
" style="stroke: #111827; stroke-width: 0.5"/>
    </defs>
    <g clip-path="url(#p5ab45f45e0)">
     <use xlink:href="#me0e4ac0456" x="396.921034" y="68.318959" style="fill: #f59e0b; stroke: #111827; stroke-width: 0.5"/>
    </g>
   </g>
   <g id="legend_1">
    <g id="line2d_24">
     <path d="M 52.182813 36.93625 
L 62.182813 36.93625 
L 72.182813 36.93625 
" style="fill: none; stroke: #2563eb; stroke-width: 2.5; stroke-linecap: square"/>
     <g>
      <use xlink:href="#meaacd33616" x="62.182813" y="36.93625" style="fill: #2563eb; stroke: #2563eb"/>
     </g>
    </g>
    <g id="text_19">
     <!-- CG iterates -->
     <g transform="translate(80.182813 40.43625) scale(0.1 -0.1)">
      <use xlink:href="#DejaVuSans-43"/>
      <use xlink:href="#DejaVuSans-47" transform="translate(69.824219 0)"/>
      <use xlink:href="#DejaVuSans-20" transform="translate(147.314453 0)"/>
      <use xlink:href="#DejaVuSans-69" transform="translate(179.101562 0)"/>
      <use xlink:href="#DejaVuSans-74" transform="translate(206.884766 0)"/>
      <use xlink:href="#DejaVuSans-65" transform="translate(246.09375 0)"/>
      <use xlink:href="#DejaVuSans-72" transform="translate(307.617188 0)"/>
      <use xlink:href="#DejaVuSans-61" transform="translate(348.730469 0)"/>
      <use xlink:href="#DejaVuSans-74" transform="translate(410.009766 0)"/>
      <use xlink:href="#DejaVuSans-65" transform="translate(449.21875 0)"/>
      <use xlink:href="#DejaVuSans-73" transform="translate(510.742188 0)"/>
     </g>
    </g>
    <g id="PathCollection_2">
     <g>
      <use xlink:href="#me0e4ac0456" x="62.182813" y="52.489375" style="fill: #f59e0b; stroke: #111827; stroke-width: 0.5"/>
     </g>
    </g>
    <g id="text_20">
     <!-- exact Newton step -->
     <g transform="translate(80.182813 55.114375) scale(0.1 -0.1)">
      <defs>
       <path id="DejaVuSans-4e" d="M 628 4666 
L 1478 4666 
L 3547 763 
L 3547 4666 
L 4159 4666 
L 4159 0 
L 3309 0 
L 1241 3903 
L 1241 0 
L 628 0 
L 628 4666 
z
" transform="scale(0.015625)"/>
       <path id="DejaVuSans-77" d="M 269 3500 
L 844 3500 
L 1563 769 
L 2278 3500 
L 2956 3500 
L 3675 769 
L 4391 3500 
L 4966 3500 
L 4050 0 
L 3372 0 
L 2619 2869 
L 1863 0 
L 1184 0 
L 269 3500 
z
" transform="scale(0.015625)"/>
      </defs>
      <use xlink:href="#DejaVuSans-65"/>
      <use xlink:href="#DejaVuSans-78" transform="translate(59.773438 0)"/>
      <use xlink:href="#DejaVuSans-61" transform="translate(118.953125 0)"/>
      <use xlink:href="#DejaVuSans-63" transform="translate(180.232422 0)"/>
      <use xlink:href="#DejaVuSans-74" transform="translate(235.212891 0)"/>
      <use xlink:href="#DejaVuSans-20" transform="translate(274.421875 0)"/>
      <use xlink:href="#DejaVuSans-4e" transform="translate(306.208984 0)"/>
      <use xlink:href="#DejaVuSans-65" transform="translate(381.013672 0)"/>
      <use xlink:href="#DejaVuSans-77" transform="translate(442.537109 0)"/>
      <use xlink:href="#DejaVuSans-74" transform="translate(524.324219 0)"/>
      <use xlink:href="#DejaVuSans-6f" transform="translate(563.533203 0)"/>
      <use xlink:href="#DejaVuSans-6e" transform="translate(624.714844 0)"/>
      <use xlink:href="#DejaVuSans-20" transform="translate(688.09375 0)"/>
      <use xlink:href="#DejaVuSans-73" transform="translate(719.880859 0)"/>
      <use xlink:href="#DejaVuSans-74" transform="translate(771.980469 0)"/>
      <use xlink:href="#DejaVuSans-65" transform="translate(811.189453 0)"/>
      <use xlink:href="#DejaVuSans-70" transform="translate(872.712891 0)"/>
     </g>
    </g>
   </g>
  </g>
 </g>
 <defs>
  <clipPath id="p5ab45f45e0">
   <rect x="43.182813" y="23.837812" width="457.56" height="332.64"/>
  </clipPath>
 </defs>
</svg>
