<?xml version="1.0" encoding="utf-8" standalone="no"?>
<!DOCTYPE svg PUBLIC "-//W3C//DTD SVG 1.1//EN"
  "http://www.w3.org/Graphics/SVG/1.1/DTD/svg11.dtd">
<svg xmlns:xlink="http://www.w3.org/1999/xlink" width="557.093906pt" height="341.366062pt" viewBox="0 0 557.093906 341.366062" xmlns="http://www.w3.org/2000/svg" version="1.1">
 <metadata>
  <rdf:RDF xmlns:dc="http://purl.org/dc/elements/1.1/" xmlns:cc="http://creativecommons.org/ns#" xmlns:rdf="http://www.w3.org/1999/02/22-rdf-syntax-ns#">
   <cc:Work>
    <dc:type rdf:resource="http://purl.org/dc/dcmitype/StillImage"/>
    <dc:date>2026-06-10T16:08:52.161369</dc:date>
    <dc:format>image/svg+xml</dc:format>
    <dc:creator>
     <cc:Agent>
      <dc:title>Matplotlib v3.10.8, https://matplotlib.org/</dc:title>
     </cc:Agent>
    </dc:creator>
   </cc:Work>
  </rdf:RDF>
 </metadata>
 <defs>
  <style type="text/css">*{stroke-linejoin: round; stroke-linecap: butt}</style>
 </defs>
 <g id="figure_1">
  <g id="patch_1">
   <path d="M 0 341.366062 
L 557.093906 341.366062 
L 557.093906 0 
L 0 0 
z
" style="fill: #ffffff"/>
  </g>
  <g id="axes_1">
   <g id="patch_2">
    <path d="M 42.113906 303.809812 
L 549.893906 303.809812 
L 549.893906 23.837812 
L 42.113906 23.837812 
z
" style="fill: #ffffff"/>
   </g>
   <g id="patch_3">
    <path d="M 104.989486 303.809812 
L 423.346853 303.809812 
L 423.346853 23.837812 
L 104.989486 23.837812 
z
" clip-path="url(#p95c6256da3)" style="fill: #dbeafe; opacity: 0.55; stroke: #dbeafe; stroke-linejoin: miter"/>
   </g>
   <g id="matplotlib.axis_1">
    <g id="xtick_1">
     <g id="line2d_1">
      <path d="M 104.989486 303.809812 
L 104.989486 23.837812 
" clip-path="url(#p95c6256da3)" style="fill: none; stroke-dasharray: 0.7,1.155; stroke-dashoffset: 0; stroke: #cbd5e1; stroke-width: 0.7"/>
     </g>
     <g id="line2d_2">
      <defs>
       <path id="mfd3bec4b6f" d="M 0 0 
L 0 3.5 
" style="stroke: #000000; stroke-width: 0.8"/>
      </defs>
      <g>
       <use xlink:href="#mfd3bec4b6f" x="104.989486" y="303.809812" style="stroke: #000000; stroke-width: 0.8"/>
      </g>
     </g>
     <g id="text_1">
      <!-- −2.0 -->
      <g transform="translate(94.062221 317.648406) scale(0.09 -0.09)">
       <defs>
        <path id="DejaVuSans-2212" d="M 678 2272 
L 4684 2272 
L 4684 1741 
L 678 1741 
L 678 2272 
z
" transform="scale(0.015625)"/>
        <path id="DejaVuSans-32" d="M 1228 531 
L 3431 531 
L 3431 0 
L 469 0 
L 469 531 
Q 828 903 1448 1529 
Q 2069 2156 2228 2338 
Q 2531 2678 2651 2914 
Q 2772 3150 2772 3378 
Q 2772 3750 2511 3984 
Q 2250 4219 1831 4219 
Q 1534 4219 1204 4116 
Q 875 4013 500 3803 
L 500 4441 
Q 881 4594 1212 4672 
Q 1544 4750 1819 4750 
Q 2544 4750 2975 4387 
Q 3406 4025 3406 3419 
Q 3406 3131 3298 2873 
Q 3191 2616 2906 2266 
Q 2828 2175 2409 1742 
Q 1991 1309 1228 531 
z
" transform="scale(0.015625)"/>
        <path id="DejaVuSans-2e" d="M 684 794 
L 1344 794 
L 1344 0 
L 684 0 
L 684 794 
z
" transform="scale(0.015625)"/>
        <path id="DejaVuSans-30" d="M 2034 4250 
Q 1547 4250 1301 3770 
Q 1056 3291 1056 2328 
Q 1056 1369 1301 889 
Q 1547 409 2034 409 
Q 2525 409 2770 889 
Q 3016 1369 3016 2328 
Q 3016 3291 2770 3770 
Q 2525 4250 2034 4250 
z
M 2034 4750 
Q 2819 4750 3233 4129 
Q 3647 3509 3647 2328 
Q 3647 1150 3233 529 
Q 2819 -91 2034 -91 
Q 1250 -91 836 529 
Q 422 1150 422 2328 
Q 422 3509 836 4129 
Q 1250 4750 2034 4750 
z
" transform="scale(0.015625)"/>
       </defs>
       <use xlink:href="#DejaVuSans-2212"/>
       <use xlink:href="#DejaVuSans-32" transform="translate(83.789062 0)"/>
       <use xlink:href="#DejaVuSans-2e" transform="translate(147.412109 0)"/>
       <use xlink:href="#DejaVuSans-30" transform="translate(179.199219 0)"/>
      </g>
     </g>
    </g>
    <g id="xtick_2">
     <g id="line2d_3">
      <path d="M 184.578828 303.809812 
L 184.578828 23.837812 
" clip-path="url(#p95c6256da3)" style="fill: none; stroke-dasharray: 0.7,1.155; stroke-dashoffset: 0; stroke: #cbd5e1; stroke-width: 0.7"/>
     </g>
     <g id="line2d_4">
      <g>
       <use xlink:href="#mfd3bec4b6f" x="184.578828" y="303.809812" style="stroke: #000000; stroke-width: 0.8"/>
      </g>
     </g>
     <g id="text_2">
      <!-- −1.5 -->
      <g transform="translate(173.651562 317.648406) scale(0.09 -0.09)">
       <defs>
        <path id="DejaVuSans-31" d="M 794 531 
L 1825 531 
L 1825 4091 
L 703 3866 
L 703 4441 
L 1819 4666 
L 2450 4666 
L 2450 531 
L 3481 531 
L 3481 0 
L 794 0 
L 794 531 
z
" transform="scale(0.015625)"/>
        <path id="DejaVuSans-35" d="M 691 4666 
L 3169 4666 
L 3169 4134 
L 1269 4134 
L 1269 2991 
Q 1406 3038 1543 3061 
Q 1681 3084 1819 3084 
Q 2600 3084 3056 2656 
Q 3513 2228 3513 1497 
Q 3513 744 3044 326 
Q 2575 -91 1722 -91 
Q 1428 -91 1123 -41 
Q 819 9 494 109 
L 494 744 
Q 775 591 1075 516 
Q 1375 441 1709 441 
Q 2250 441 2565 725 
Q 2881 1009 2881 1497 
Q 2881 1984 2565 2268 
Q 2250 2553 1709 2553 
Q 1456 2553 1204 2497 
Q 953 2441 691 2322 
L 691 4666 
z
" transform="scale(0.015625)"/>
       </defs>
       <use xlink:href="#DejaVuSans-2212"/>
       <use xlink:href="#DejaVuSans-31" transform="translate(83.789062 0)"/>
       <use xlink:href="#DejaVuSans-2e" transform="translate(147.412109 0)"/>
       <use xlink:href="#DejaVuSans-35" transform="translate(179.199219 0)"/>
      </g>
     </g>
    </g>
    <g id="xtick_3">
     <g id="line2d_5">
      <path d="M 264.16817 303.809812 
L 264.16817 23.837812 
" clip-path="url(#p95c6256da3)" style="fill: none; stroke-dasharray: 0.7,1.155; stroke-dashoffset: 0; stroke: #cbd5e1; stroke-width: 0.7"/>
     </g>
     <g id="line2d_6">
      <g>
       <use xlink:href="#mfd3bec4b6f" x="264.16817" y="303.809812" style="stroke: #000000; stroke-width: 0.8"/>
      </g>
     </g>
     <g id="text_3">
      <!-- −1.0 -->
      <g transform="translate(253.240904 317.648406) scale(0.09 -0.09)">
       <use xlink:href="#DejaVuSans-2212"/>
       <use xlink:href="#DejaVuSans-31" transform="translate(83.789062 0)"/>
       <use xlink:href="#DejaVuSans-2e" transform="translate(147.412109 0)"/>
       <use xlink:href="#DejaVuSans-30" transform="translate(179.199219 0)"/>
      </g>
     </g>
    </g>
    <g id="xtick_4">
     <g id="line2d_7">
      <path d="M 343.757511 303.809812 
L 343.757511 23.837812 
" clip-path="url(#p95c6256da3)" style="fill: none; stroke-dasharray: 0.7,1.155; stroke-dashoffset: 0; stroke: #cbd5e1; stroke-width: 0.7"/>
     </g>
     <g id="line2d_8">
      <g>
       <use xlink:href="#mfd3bec4b6f" x="343.757511" y="303.809812" style="stroke: #000000; stroke-width: 0.8"/>
      </g>
     </g>
     <g id="text_4">
      <!-- −0.5 -->
      <g transform="translate(332.830246 317.648406) scale(0.09 -0.09)">
       <use xlink:href="#DejaVuSans-2212"/>
       <use xlink:href="#DejaVuSans-30" transform="translate(83.789062 0)"/>
       <use xlink:href="#DejaVuSans-2e" transform="translate(147.412109 0)"/>
       <use xlink:href="#DejaVuSans-35" transform="translate(179.199219 0)"/>
      </g>
     </g>
    </g>
    <g id="xtick_5">
     <g id="line2d_9">
      <path d="M 423.346853 303.809812 
L 423.346853 23.837812 
" clip-path="url(#p95c6256da3)" style="fill: none; stroke-dasharray: 0.7,1.155; stroke-dashoffset: 0; stroke: #cbd5e1; stroke-width: 0.7"/>
     </g>
     <g id="line2d_10">
      <g>
       <use xlink:href="#mfd3bec4b6f" x="423.346853" y="303.809812" style="stroke: #000000; stroke-width: 0.8"/>
      </g>
     </g>
     <g id="text_5">
      <!-- 0.0 -->
      <g transform="translate(416.190447 317.648406) scale(0.09 -0.09)">
       <use xlink:href="#DejaVuSans-30"/>
       <use xlink:href="#DejaVuSans-2e" transform="translate(63.623047 0)"/>
       <use xlink:href="#DejaVuSans-30" transform="translate(95.410156 0)"/>
      </g>
     </g>
    </g>
    <g id="xtick_6">
     <g id="line2d_11">
      <path d="M 502.936195 303.809812 
L 502.936195 23.837812 
" clip-path="url(#p95c6256da3)" style="fill: none; stroke-dasharray: 0.7,1.155; stroke-dashoffset: 0; stroke: #cbd5e1; stroke-width: 0.7"/>
     </g>
     <g id="line2d_12">
      <g>
       <use xlink:href="#mfd3bec4b6f" x="502.936195" y="303.809812" style="stroke: #000000; stroke-width: 0.8"/>
      </g>
     </g>
     <g id="text_6">
      <!-- 0.5 -->
      <g transform="translate(495.779788 317.648406) scale(0.09 -0.09)">
       <use xlink:href="#DejaVuSans-30"/>
       <use xlink:href="#DejaVuSans-2e" transform="translate(63.623047 0)"/>
       <use xlink:href="#DejaVuSans-35" transform="translate(95.410156 0)"/>
      </g>
     </g>
    </g>
    <g id="text_7">
     <!-- $x$ -->
     <g transform="translate(292.703906 331.878406) scale(0.11 -0.11)">
      <defs>
       <path id="DejaVuSans-Oblique-78" d="M 3841 3500 
L 2234 1784 
L 3219 0 
L 2559 0 
L 1819 1388 
L 531 0 
L -166 0 
L 1556 1844 
L 641 3500 
L 1300 3500 
L 1972 2234 
L 3144 3500 
L 3841 3500 
z
" transform="scale(0.015625)"/>
      </defs>
      <use xlink:href="#DejaVuSans-Oblique-78" transform="translate(0 0.3125)"/>
     </g>
    </g>
   </g>
   <g id="matplotlib.axis_2">
    <g id="ytick_1">
     <g id="line2d_13">
      <path d="M 42.113906 268.717347 
L 549.893906 268.717347 
" clip-path="url(#p95c6256da3)" style="fill: none; stroke-dasharray: 0.7,1.155; stroke-dashoffset: 0; stroke: #cbd5e1; stroke-width: 0.7"/>
     </g>
     <g id="line2d_14">
      <defs>
       <path id="m4381e5191b" d="M 0 0 
L -3.5 0 
" style="stroke: #000000; stroke-width: 0.8"/>
      </defs>
      <g>
       <use xlink:href="#m4381e5191b" x="42.113906" y="268.717347" style="stroke: #000000; stroke-width: 0.8"/>
      </g>
     </g>
     <g id="text_8">
      <!-- −3 -->
      <g transform="translate(21.845938 272.136644) scale(0.09 -0.09)">
       <defs>
        <path id="DejaVuSans-33" d="M 2597 2516 
Q 3050 2419 3304 2112 
Q 3559 1806 3559 1356 
Q 3559 666 3084 287 
Q 2609 -91 1734 -91 
Q 1441 -91 1130 -33 
Q 819 25 488 141 
L 488 750 
Q 750 597 1062 519 
Q 1375 441 1716 441 
Q 2309 441 2620 675 
Q 2931 909 2931 1356 
Q 2931 1769 2642 2001 
Q 2353 2234 1838 2234 
L 1294 2234 
L 1294 2753 
L 1863 2753 
Q 2328 2753 2575 2939 
Q 2822 3125 2822 3475 
Q 2822 3834 2567 4026 
Q 2313 4219 1838 4219 
Q 1578 4219 1281 4162 
Q 984 4106 628 3988 
L 628 4550 
Q 988 4650 1302 4700 
Q 1616 4750 1894 4750 
Q 2613 4750 3031 4423 
Q 3450 4097 3450 3541 
Q 3450 3153 3228 2886 
Q 3006 2619 2597 2516 
z
" transform="scale(0.015625)"/>
       </defs>
       <use xlink:href="#DejaVuSans-2212"/>
       <use xlink:href="#DejaVuSans-33" transform="translate(83.789062 0)"/>
      </g>
     </g>
    </g>
    <g id="ytick_2">
     <g id="line2d_15">
      <path d="M 42.113906 224.545161 
L 549.893906 224.545161 
" clip-path="url(#p95c6256da3)" style="fill: none; stroke-dasharray: 0.7,1.155; stroke-dashoffset: 0; stroke: #cbd5e1; stroke-width: 0.7"/>
     </g>
     <g id="line2d_16">
      <g>
       <use xlink:href="#m4381e5191b" x="42.113906" y="224.545161" style="stroke: #000000; stroke-width: 0.8"/>
      </g>
     </g>
     <g id="text_9">
      <!-- −2 -->
      <g transform="translate(21.845938 227.964457) scale(0.09 -0.09)">
       <use xlink:href="#DejaVuSans-2212"/>
       <use xlink:href="#DejaVuSans-32" transform="translate(83.789062 0)"/>
      </g>
     </g>
    </g>
    <g id="ytick_3">
     <g id="line2d_17">
      <path d="M 42.113906 180.372974 
L 549.893906 180.372974 
" clip-path="url(#p95c6256da3)" style="fill: none; stroke-dasharray: 0.7,1.155; stroke-dashoffset: 0; stroke: #cbd5e1; stroke-width: 0.7"/>
     </g>
     <g id="line2d_18">
      <g>
       <use xlink:href="#m4381e5191b" x="42.113906" y="180.372974" style="stroke: #000000; stroke-width: 0.8"/>
      </g>
     </g>
     <g id="text_10">
      <!-- −1 -->
      <g transform="translate(21.845938 183.792271) scale(0.09 -0.09)">
       <use xlink:href="#DejaVuSans-2212"/>
       <use xlink:href="#DejaVuSans-31" transform="translate(83.789062 0)"/>
      </g>
     </g>
    </g>
    <g id="ytick_4">
     <g id="line2d_19">
      <path d="M 42.113906 136.200787 
L 549.893906 136.200787 
" clip-path="url(#p95c6256da3)" style="fill: none; stroke-dasharray: 0.7,1.155; stroke-dashoffset: 0; stroke: #cbd5e1; stroke-width: 0.7"/>
     </g>
     <g id="line2d_20">
      <g>
       <use xlink:href="#m4381e5191b" x="42.113906" y="136.200787" style="stroke: #000000; stroke-width: 0.8"/>
      </g>
     </g>
     <g id="text_11">
      <!-- 0 -->
      <g transform="translate(29.387656 139.620084) scale(0.09 -0.09)">
       <use xlink:href="#DejaVuSans-30"/>
      </g>
     </g>
    </g>
    <g id="ytick_5">
     <g id="line2d_21">
      <path d="M 42.113906 92.0286 
L 549.893906 92.0286 
" clip-path="url(#p95c6256da3)" style="fill: none; stroke-dasharray: 0.7,1.155; stroke-dashoffset: 0; stroke: #cbd5e1; stroke-width: 0.7"/>
     </g>
     <g id="line2d_22">
      <g>
       <use xlink:href="#m4381e5191b" x="42.113906" y="92.0286" style="stroke: #000000; stroke-width: 0.8"/>
      </g>
     </g>
     <g id="text_12">
      <!-- 1 -->
      <g transform="translate(29.387656 95.447897) scale(0.09 -0.09)">
       <use xlink:href="#DejaVuSans-31"/>
      </g>
     </g>
    </g>
    <g id="ytick_6">
     <g id="line2d_23">
      <path d="M 42.113906 47.856413 
L 549.893906 47.856413 
" clip-path="url(#p95c6256da3)" style="fill: none; stroke-dasharray: 0.7,1.155; stroke-dashoffset: 0; stroke: #cbd5e1; stroke-width: 0.7"/>
     </g>
     <g id="line2d_24">
      <g>
       <use xlink:href="#m4381e5191b" x="42.113906" y="47.856413" style="stroke: #000000; stroke-width: 0.8"/>
      </g>
     </g>
     <g id="text_13">
      <!-- 2 -->
      <g transform="translate(29.387656 51.27571) scale(0.09 -0.09)">
       <use xlink:href="#DejaVuSans-32"/>
      </g>
     </g>
    </g>
    <g id="text_14">
     <!-- $f(x)$ -->
     <g transform="translate(15.558281 173.338812) rotate(-90) scale(0.11 -0.11)">
      <defs>
       <path id="DejaVuSans-Oblique-66" d="M 3059 4863 
L 2969 4384 
L 2419 4384 
Q 2106 4384 1964 4261 
Q 1822 4138 1753 3809 
L 1691 3500 
L 2638 3500 
L 2553 3053 
L 1606 3053 
L 1013 0 
L 434 0 
L 1031 3053 
L 481 3053 
L 563 3500 
L 1113 3500 
L 1159 3744 
Q 1278 4363 1576 4613 
Q 1875 4863 2516 4863 
L 3059 4863 
z
" transform="scale(0.015625)"/>
       <path id="DejaVuSans-28" d="M 1984 4856 
Q 1566 4138 1362 3434 
Q 1159 2731 1159 2009 
Q 1159 1288 1364 580 
Q 1569 -128 1984 -844 
L 1484 -844 
Q 1016 -109 783 600 
Q 550 1309 550 2009 
Q 550 2706 781 3412 
Q 1013 4119 1484 4856 
L 1984 4856 
z
" transform="scale(0.015625)"/>
       <path id="DejaVuSans-29" d="M 513 4856 
L 1013 4856 
Q 1481 4119 1714 3412 
Q 1947 2706 1947 2009 
Q 1947 1309 1714 600 
Q 1481 -109 1013 -844 
L 513 -844 
Q 928 -128 1133 580 
Q 1338 1288 1338 2009 
Q 1338 2731 1133 3434 
Q 928 4138 513 4856 
z
" transform="scale(0.015625)"/>
      </defs>
      <use xlink:href="#DejaVuSans-Oblique-66" transform="translate(0 0.015625)"/>
      <use xlink:href="#DejaVuSans-28" transform="translate(35.205078 0.015625)"/>
      <use xlink:href="#DejaVuSans-Oblique-78" transform="translate(74.21875 0.015625)"/>
      <use xlink:href="#DejaVuSans-29" transform="translate(133.398438 0.015625)"/>
     </g>
    </g>
   </g>
   <g id="line2d_25">
    <path d="M 65.194815 291.083812 
L 76.381039 283.016061 
L 88.313012 274.136133 
L 100.990733 264.425253 
L 115.15995 253.282918 
L 130.820663 240.679355 
L 150.210119 224.771678 
L 184.514539 196.263265 
L 209.869981 175.327611 
L 227.767939 160.835764 
L 242.682905 149.040183 
L 256.106374 138.702054 
L 268.784094 129.224035 
L 280.716067 120.591706 
L 291.902291 112.779862 
L 302.342767 105.755132 
L 312.783242 99.005736 
L 322.47797 92.999477 
L 332.172698 87.257215 
L 341.121677 82.200789 
L 350.070656 77.387092 
L 359.019635 72.823489 
L 367.968615 68.516552 
L 376.917594 64.472044 
L 385.120825 60.999343 
L 393.324056 57.754486 
L 401.527287 54.740045 
L 409.730518 51.957979 
L 417.933749 49.409631 
L 426.13698 47.095722 
L 434.340211 45.016354 
L 442.543442 43.171001 
L 450.746673 41.558521 
L 458.949904 40.177149 
L 467.153135 39.02451 
L 475.356366 38.09762 
L 483.559597 37.392895 
L 491.762828 36.906162 
L 499.966059 36.632669 
L 508.16929 36.567098 
L 517.11827 36.725788 
L 526.067249 37.116578 
L 526.812997 37.159341 
L 526.812997 37.159341 
" clip-path="url(#p95c6256da3)" style="fill: none; stroke: #111827; stroke-width: 2.2; stroke-linecap: square"/>
   </g>
   <g id="line2d_26">
    <path d="M 42.113906 136.200787 
L 549.893906 136.200787 
" clip-path="url(#p95c6256da3)" style="fill: none; stroke: #111827; stroke-width: 0.8; stroke-linecap: square"/>
   </g>
   <g id="line2d_27">
    <path d="M 288.044972 111.041756 
L 289.933533 110.015168 
L 291.822093 108.988579 
L 293.710654 107.961991 
L 295.599215 106.935403 
L 297.487775 105.908814 
L 299.376336 104.882226 
L 301.264897 103.855637 
L 303.153457 102.829049 
L 305.042018 101.802461 
L 306.930579 100.775872 
L 308.819139 99.749284 
L 310.7077 98.722695 
L 312.596261 97.696107 
L 314.484821 96.669519 
L 316.373382 95.64293 
L 318.261942 94.616342 
L 320.150503 93.589753 
L 322.039064 92.563165 
L 323.927624 91.536577 
L 325.816185 90.509988 
L 327.704746 89.4834 
L 329.593306 88.456812 
L 331.481867 87.430223 
L 333.370428 86.403635 
L 335.258988 85.377046 
L 337.147549 84.350458 
L 339.03611 83.32387 
L 340.92467 82.297281 
L 342.813231 81.270693 
L 344.701792 80.244104 
L 346.590352 79.217516 
L 348.478913 78.190928 
L 350.367474 77.164339 
L 352.256034 76.137751 
L 354.144595 75.111162 
L 356.033155 74.084574 
L 357.921716 73.057986 
L 359.810277 72.031397 
L 361.698837 71.004809 
L 363.587398 69.978221 
L 365.475959 68.951632 
L 367.364519 67.925044 
L 369.25308 66.898455 
L 371.141641 65.871867 
L 373.030201 64.845279 
L 374.918762 63.81869 
L 376.807323 62.792102 
L 378.695883 61.765513 
L 380.584444 60.738925 
L 382.473005 59.712337 
L 384.361565 58.685748 
L 386.250126 57.65916 
L 388.138687 56.632571 
L 390.027247 55.605983 
L 391.915808 54.579395 
L 393.804368 53.552806 
L 395.692929 52.526218 
L 397.58149 51.499629 
L 399.47005 50.473041 
" clip-path="url(#p95c6256da3)" style="fill: none; stroke: #f59e0b; stroke-opacity: 0.5; stroke-linecap: square"/>
   </g>
   <g id="line2d_28">
    <path d="M 186.048688 193.325865 
L 187.937248 191.849066 
L 189.825809 190.372267 
L 191.714369 188.895468 
L 193.60293 187.418668 
L 195.491491 185.941869 
L 197.380051 184.46507 
L 199.268612 182.988271 
L 201.157173 181.511471 
L 203.045733 180.034672 
L 204.934294 178.557873 
L 206.822855 177.081074 
L 208.711415 175.604274 
L 210.599976 174.127475 
L 212.488537 172.650676 
L 214.377097 171.173877 
L 216.265658 169.697077 
L 218.154219 168.220278 
L 220.042779 166.743479 
L 221.93134 165.26668 
L 223.819901 163.78988 
L 225.708461 162.313081 
L 227.597022 160.836282 
L 229.485583 159.359483 
L 231.374143 157.882684 
L 233.262704 156.405884 
L 235.151264 154.929085 
L 237.039825 153.452286 
L 238.928386 151.975487 
L 240.816946 150.498687 
L 242.705507 149.021888 
L 244.594068 147.545089 
L 246.482628 146.06829 
L 248.371189 144.59149 
L 250.25975 143.114691 
L 252.14831 141.637892 
L 254.036871 140.161093 
L 255.925432 138.684293 
L 257.813992 137.207494 
L 259.702553 135.730695 
L 261.591114 134.253896 
L 263.479674 132.777096 
L 265.368235 131.300297 
L 267.256796 129.823498 
L 269.145356 128.346699 
L 271.033917 126.869899 
L 272.922477 125.3931 
L 274.811038 123.916301 
L 276.699599 122.439502 
L 278.588159 120.962703 
L 280.47672 119.485903 
L 282.365281 118.009104 
L 284.253841 116.532305 
L 286.142402 115.055506 
L 288.030963 113.578706 
L 289.919523 112.101907 
L 291.808084 110.625108 
L 293.696645 109.148309 
L 295.585205 107.671509 
L 297.473766 106.19471 
" clip-path="url(#p95c6256da3)" style="fill: none; stroke: #f59e0b; stroke-opacity: 0.5; stroke-linecap: square"/>
   </g>
   <g id="line2d_29">
    <path d="M 203.388851 178.433898 
L 205.277411 177.010254 
L 207.165972 175.586609 
L 209.054533 174.162965 
L 210.943093 172.739321 
L 212.831654 171.315677 
L 214.720214 169.892033 
L 216.608775 168.468388 
L 218.497336 167.044744 
L 220.385896 165.6211 
L 222.274457 164.197456 
L 224.163018 162.773812 
L 226.051578 161.350167 
L 227.940139 159.926523 
L 229.8287 158.502879 
L 231.71726 157.079235 
L 233.605821 155.655591 
L 235.494382 154.231947 
L 237.382942 152.808302 
L 239.271503 151.384658 
L 241.160064 149.961014 
L 243.048624 148.53737 
L 244.937185 147.113726 
L 246.825746 145.690081 
L 248.714306 144.266437 
L 250.602867 142.842793 
L 252.491427 141.419149 
L 254.379988 139.995505 
L 256.268549 138.57186 
L 258.157109 137.148216 
L 260.04567 135.724572 
L 261.934231 134.300928 
L 263.822791 132.877284 
L 265.711352 131.453639 
L 267.599913 130.029995 
L 269.488473 128.606351 
L 271.377034 127.182707 
L 273.265595 125.759063 
L 275.154155 124.335418 
L 277.042716 122.911774 
L 278.931277 121.48813 
L 280.819837 120.064486 
L 282.708398 118.640842 
L 284.596959 117.217197 
L 286.485519 115.793553 
L 288.37408 114.369909 
L 290.26264 112.946265 
L 292.151201 111.522621 
L 294.039762 110.098976 
L 295.928322 108.675332 
L 297.816883 107.251688 
L 299.705444 105.828044 
L 301.594004 104.4044 
L 303.482565 102.980755 
L 305.371126 101.557111 
L 307.259686 100.133467 
L 309.148247 98.709823 
L 311.036808 97.286179 
L 312.925368 95.862535 
L 314.813929 94.43889 
" clip-path="url(#p95c6256da3)" style="fill: none; stroke: #f59e0b; stroke-opacity: 0.5; stroke-linecap: square"/>
   </g>
   <g id="line2d_30">
    <path d="M 203.701399 178.167166 
L 205.58996 176.74458 
L 207.478521 175.321994 
L 209.367081 173.899408 
L 211.255642 172.476822 
L 213.144203 171.054236 
L 215.032763 169.631649 
L 216.921324 168.209063 
L 218.809885 166.786477 
L 220.698445 165.363891 
L 222.587006 163.941305 
L 224.475567 162.518719 
L 226.364127 161.096132 
L 228.252688 159.673546 
L 230.141249 158.25096 
L 232.029809 156.828374 
L 233.91837 155.405788 
L 235.80693 153.983202 
L 237.695491 152.560615 
L 239.584052 151.138029 
L 241.472612 149.715443 
L 243.361173 148.292857 
L 245.249734 146.870271 
L 247.138294 145.447685 
L 249.026855 144.025098 
L 250.915416 142.602512 
L 252.803976 141.179926 
L 254.692537 139.75734 
L 256.581098 138.334754 
L 258.469658 136.912168 
L 260.358219 135.489581 
L 262.24678 134.066995 
L 264.13534 132.644409 
L 266.023901 131.221823 
L 267.912462 129.799237 
L 269.801022 128.376651 
L 271.689583 126.954064 
L 273.578143 125.531478 
L 275.466704 124.108892 
L 277.355265 122.686306 
L 279.243825 121.26372 
L 281.132386 119.841134 
L 283.020947 118.418547 
L 284.909507 116.995961 
L 286.798068 115.573375 
L 288.686629 114.150789 
L 290.575189 112.728203 
L 292.46375 111.305617 
L 294.352311 109.88303 
L 296.240871 108.460444 
L 298.129432 107.037858 
L 300.017993 105.615272 
L 301.906553 104.192686 
L 303.795114 102.7701 
L 305.683675 101.347513 
L 307.572235 99.924927 
L 309.460796 98.502341 
L 311.349356 97.079755 
L 313.237917 95.657169 
L 315.126478 94.234583 
" clip-path="url(#p95c6256da3)" style="fill: none; stroke: #f59e0b; stroke-opacity: 0.5; stroke-linecap: square"/>
   </g>
   <g id="patch_4">
    <path d="M 42.113906 303.809812 
L 42.113906 23.837812 
" style="fill: none; stroke: #000000; stroke-width: 0.8; stroke-linejoin: miter; stroke-linecap: square"/>
   </g>
   <g id="patch_5">
    <path d="M 42.113906 303.809812 
L 549.893906 303.809812 
" style="fill: none; stroke: #000000; stroke-width: 0.8; stroke-linejoin: miter; stroke-linecap: square"/>
   </g>
   <g id="text_15">
    <g id="patch_6">
     <path d="M 346.781906 280.834331 
L 432.011906 280.834331 
Q 435.161906 280.834331 435.161906 277.684331 
L 435.161906 248.817956 
Q 435.161906 245.667956 432.011906 245.667956 
L 346.781906 245.667956 
Q 343.631906 245.667956 343.631906 248.817956 
L 343.631906 277.684331 
Q 343.631906 280.834331 346.781906 280.834331 
z
" style="fill: #ffffff; stroke: #cbd5e1; stroke-linejoin: miter"/>
    </g>
    <!-- $x^\star=-1.02986653$ -->
    <g style="fill: #374151" transform="translate(346.781906 255.65655) scale(0.09 -0.09)">
     <defs>
      <path id="DejaVuSans-22c6" d="M 778 2391 
L 1713 2391 
L 2003 3278 
L 2297 2391 
L 3228 2391 
L 2472 1841 
L 2766 953 
L 2003 1503 
L 1244 953 
L 1534 1841 
L 778 2391 
z
" transform="scale(0.015625)"/>
      <path id="DejaVuSans-3d" d="M 678 2906 
L 4684 2906 
L 4684 2381 
L 678 2381 
L 678 2906 
z
M 678 1631 
L 4684 1631 
L 4684 1100 
L 678 1100 
L 678 1631 
z
" transform="scale(0.015625)"/>
      <path id="DejaVuSans-39" d="M 703 97 
L 703 672 
Q 941 559 1184 500 
Q 1428 441 1663 441 
Q 2288 441 2617 861 
Q 2947 1281 2994 2138 
Q 2813 1869 2534 1725 
Q 2256 1581 1919 1581 
Q 1219 1581 811 2004 
Q 403 2428 403 3163 
Q 403 3881 828 4315 
Q 1253 4750 1959 4750 
Q 2769 4750 3195 4129 
Q 3622 3509 3622 2328 
Q 3622 1225 3098 567 
Q 2575 -91 1691 -91 
Q 1453 -91 1209 -44 
Q 966 3 703 97 
z
M 1959 2075 
Q 2384 2075 2632 2365 
Q 2881 2656 2881 3163 
Q 2881 3666 2632 3958 
Q 2384 4250 1959 4250 
Q 1534 4250 1286 3958 
Q 1038 3666 1038 3163 
Q 1038 2656 1286 2365 
Q 1534 2075 1959 2075 
z
" transform="scale(0.015625)"/>
      <path id="DejaVuSans-38" d="M 2034 2216 
Q 1584 2216 1326 1975 
Q 1069 1734 1069 1313 
Q 1069 891 1326 650 
Q 1584 409 2034 409 
Q 2484 409 2743 651 
Q 3003 894 3003 1313 
Q 3003 1734 2745 1975 
Q 2488 2216 2034 2216 
z
M 1403 2484 
Q 997 2584 770 2862 
Q 544 3141 544 3541 
Q 544 4100 942 4425 
Q 1341 4750 2034 4750 
Q 2731 4750 3128 4425 
Q 3525 4100 3525 3541 
Q 3525 3141 3298 2862 
Q 3072 2584 2669 2484 
Q 3125 2378 3379 2068 
Q 3634 1759 3634 1313 
Q 3634 634 3220 271 
Q 2806 -91 2034 -91 
Q 1263 -91 848 271 
Q 434 634 434 1313 
Q 434 1759 690 2068 
Q 947 2378 1403 2484 
z
M 1172 3481 
Q 1172 3119 1398 2916 
Q 1625 2713 2034 2713 
Q 2441 2713 2670 2916 
Q 2900 3119 2900 3481 
Q 2900 3844 2670 4047 
Q 2441 4250 2034 4250 
Q 1625 4250 1398 4047 
Q 1172 3844 1172 3481 
z
" transform="scale(0.015625)"/>
      <path id="DejaVuSans-36" d="M 2113 2584 
Q 1688 2584 1439 2293 
Q 1191 2003 1191 1497 
Q 1191 994 1439 701 
Q 1688 409 2113 409 
Q 2538 409 2786 701 
Q 3034 994 3034 1497 
Q 3034 2003 2786 2293 
Q 2538 2584 2113 2584 
z
M 3366 4563 
L 3366 3988 
Q 3128 4100 2886 4159 
Q 2644 4219 2406 4219 
Q 1781 4219 1451 3797 
Q 1122 3375 1075 2522 
Q 1259 2794 1537 2939 
Q 1816 3084 2150 3084 
Q 2853 3084 3261 2657 
Q 3669 2231 3669 1497 
Q 3669 778 3244 343 
Q 2819 -91 2113 -91 
Q 1303 -91 875 529 
Q 447 1150 447 2328 
Q 447 3434 972 4092 
Q 1497 4750 2381 4750 
Q 2619 4750 2861 4703 
Q 3103 4656 3366 4563 
z
" transform="scale(0.015625)"/>
     </defs>
     <use xlink:href="#DejaVuSans-Oblique-78" transform="translate(0 0.78125)"/>
     <use xlink:href="#DejaVuSans-22c6" transform="translate(77.283529 39.0625) scale(0.7)"/>
     <use xlink:href="#DejaVuSans-3d" transform="translate(156.95638 0.78125)"/>
     <use xlink:href="#DejaVuSans-2212" transform="translate(260.227865 0.78125)"/>
     <use xlink:href="#DejaVuSans-31" transform="translate(344.016927 0.78125)"/>
     <use xlink:href="#DejaVuSans-2e" transform="translate(407.639974 0.78125)"/>
     <use xlink:href="#DejaVuSans-30" transform="translate(439.427083 0.78125)"/>
     <use xlink:href="#DejaVuSans-32" transform="translate(503.05013 0.78125)"/>
     <use xlink:href="#DejaVuSans-39" transform="translate(564.923177 0.78125)"/>
     <use xlink:href="#DejaVuSans-38" transform="translate(628.546224 0.78125)"/>
     <use xlink:href="#DejaVuSans-36" transform="translate(692.169271 0.78125)"/>
     <use xlink:href="#DejaVuSans-36" transform="translate(755.792318 0.78125)"/>
     <use xlink:href="#DejaVuSans-35" transform="translate(819.415365 0.78125)"/>
     <use xlink:href="#DejaVuSans-33" transform="translate(883.038411 0.78125)"/>
    </g>
    <!-- brentq calls: 9 -->
    <g style="fill: #374151" transform="translate(346.781906 265.734581) scale(0.09 -0.09)">
     <defs>
      <path id="DejaVuSans-62" d="M 3116 1747 
Q 3116 2381 2855 2742 
Q 2594 3103 2138 3103 
Q 1681 3103 1420 2742 
Q 1159 2381 1159 1747 
Q 1159 1113 1420 752 
Q 1681 391 2138 391 
Q 2594 391 2855 752 
Q 3116 1113 3116 1747 
z
M 1159 2969 
Q 1341 3281 1617 3432 
Q 1894 3584 2278 3584 
Q 2916 3584 3314 3078 
Q 3713 2572 3713 1747 
Q 3713 922 3314 415 
Q 2916 -91 2278 -91 
Q 1894 -91 1617 61 
Q 1341 213 1159 525 
L 1159 0 
L 581 0 
L 581 4863 
L 1159 4863 
L 1159 2969 
z
" transform="scale(0.015625)"/>
      <path id="DejaVuSans-72" d="M 2631 2963 
Q 2534 3019 2420 3045 
Q 2306 3072 2169 3072 
Q 1681 3072 1420 2755 
Q 1159 2438 1159 1844 
L 1159 0 
L 581 0 
L 581 3500 
L 1159 3500 
L 1159 2956 
Q 1341 3275 1631 3429 
Q 1922 3584 2338 3584 
Q 2397 3584 2469 3576 
Q 2541 3569 2628 3553 
L 2631 2963 
z
" transform="scale(0.015625)"/>
      <path id="DejaVuSans-65" d="M 3597 1894 
L 3597 1613 
L 953 1613 
Q 991 1019 1311 708 
Q 1631 397 2203 397 
Q 2534 397 2845 478 
Q 3156 559 3463 722 
L 3463 178 
Q 3153 47 2828 -22 
Q 2503 -91 2169 -91 
Q 1331 -91 842 396 
Q 353 884 353 1716 
Q 353 2575 817 3079 
Q 1281 3584 2069 3584 
Q 2775 3584 3186 3129 
Q 3597 2675 3597 1894 
z
M 3022 2063 
Q 3016 2534 2758 2815 
Q 2500 3097 2075 3097 
Q 1594 3097 1305 2825 
Q 1016 2553 972 2059 
L 3022 2063 
z
" transform="scale(0.015625)"/>
      <path id="DejaVuSans-6e" d="M 3513 2113 
L 3513 0 
L 2938 0 
L 2938 2094 
Q 2938 2591 2744 2837 
Q 2550 3084 2163 3084 
Q 1697 3084 1428 2787 
Q 1159 2491 1159 1978 
L 1159 0 
L 581 0 
L 581 3500 
L 1159 3500 
L 1159 2956 
Q 1366 3272 1645 3428 
Q 1925 3584 2291 3584 
Q 2894 3584 3203 3211 
Q 3513 2838 3513 2113 
z
" transform="scale(0.015625)"/>
      <path id="DejaVuSans-74" d="M 1172 4494 
L 1172 3500 
L 2356 3500 
L 2356 3053 
L 1172 3053 
L 1172 1153 
Q 1172 725 1289 603 
Q 1406 481 1766 481 
L 2356 481 
L 2356 0 
L 1766 0 
Q 1100 0 847 248 
Q 594 497 594 1153 
L 594 3053 
L 172 3053 
L 172 3500 
L 594 3500 
L 594 4494 
L 1172 4494 
z
" transform="scale(0.015625)"/>
      <path id="DejaVuSans-71" d="M 947 1747 
Q 947 1113 1208 752 
Q 1469 391 1925 391 
Q 2381 391 2643 752 
Q 2906 1113 2906 1747 
Q 2906 2381 2643 2742 
Q 2381 3103 1925 3103 
Q 1469 3103 1208 2742 
Q 947 2381 947 1747 
z
M 2906 525 
Q 2725 213 2448 61 
Q 2172 -91 1784 -91 
Q 1150 -91 751 415 
Q 353 922 353 1747 
Q 353 2572 751 3078 
Q 1150 3584 1784 3584 
Q 2172 3584 2448 3432 
Q 2725 3281 2906 2969 
L 2906 3500 
L 3481 3500 
L 3481 -1331 
L 2906 -1331 
L 2906 525 
z
" transform="scale(0.015625)"/>
      <path id="DejaVuSans-20" transform="scale(0.015625)"/>
      <path id="DejaVuSans-63" d="M 3122 3366 
L 3122 2828 
Q 2878 2963 2633 3030 
Q 2388 3097 2138 3097 
Q 1578 3097 1268 2742 
Q 959 2388 959 1747 
Q 959 1106 1268 751 
Q 1578 397 2138 397 
Q 2388 397 2633 464 
Q 2878 531 3122 666 
L 3122 134 
Q 2881 22 2623 -34 
Q 2366 -91 2075 -91 
Q 1284 -91 818 406 
Q 353 903 353 1747 
Q 353 2603 823 3093 
Q 1294 3584 2113 3584 
Q 2378 3584 2631 3529 
Q 2884 3475 3122 3366 
z
" transform="scale(0.015625)"/>
      <path id="DejaVuSans-61" d="M 2194 1759 
Q 1497 1759 1228 1600 
Q 959 1441 959 1056 
Q 959 750 1161 570 
Q 1363 391 1709 391 
Q 2188 391 2477 730 
Q 2766 1069 2766 1631 
L 2766 1759 
L 2194 1759 
z
M 3341 1997 
L 3341 0 
L 2766 0 
L 2766 531 
Q 2569 213 2275 61 
Q 1981 -91 1556 -91 
Q 1019 -91 701 211 
Q 384 513 384 1019 
Q 384 1609 779 1909 
Q 1175 2209 1959 2209 
L 2766 2209 
L 2766 2266 
Q 2766 2663 2505 2880 
Q 2244 3097 1772 3097 
Q 1472 3097 1187 3025 
Q 903 2953 641 2809 
L 641 3341 
Q 956 3463 1253 3523 
Q 1550 3584 1831 3584 
Q 2591 3584 2966 3190 
Q 3341 2797 3341 1997 
z
" transform="scale(0.015625)"/>
      <path id="DejaVuSans-6c" d="M 603 4863 
L 1178 4863 
L 1178 0 
L 603 0 
L 603 4863 
z
" transform="scale(0.015625)"/>
      <path id="DejaVuSans-73" d="M 2834 3397 
L 2834 2853 
Q 2591 2978 2328 3040 
Q 2066 3103 1784 3103 
Q 1356 3103 1142 2972 
Q 928 2841 928 2578 
Q 928 2378 1081 2264 
Q 1234 2150 1697 2047 
L 1894 2003 
Q 2506 1872 2764 1633 
Q 3022 1394 3022 966 
Q 3022 478 2636 193 
Q 2250 -91 1575 -91 
Q 1294 -91 989 -36 
Q 684 19 347 128 
L 347 722 
Q 666 556 975 473 
Q 1284 391 1588 391 
Q 1994 391 2212 530 
Q 2431 669 2431 922 
Q 2431 1156 2273 1281 
Q 2116 1406 1581 1522 
L 1381 1569 
Q 847 1681 609 1914 
Q 372 2147 372 2553 
Q 372 3047 722 3315 
Q 1072 3584 1716 3584 
Q 2034 3584 2315 3537 
Q 2597 3491 2834 3397 
z
" transform="scale(0.015625)"/>
      <path id="DejaVuSans-3a" d="M 750 794 
L 1409 794 
L 1409 0 
L 750 0 
L 750 794 
z
M 750 3309 
L 1409 3309 
L 1409 2516 
L 750 2516 
L 750 3309 
z
" transform="scale(0.015625)"/>
     </defs>
     <use xlink:href="#DejaVuSans-62"/>
     <use xlink:href="#DejaVuSans-72" transform="translate(63.476562 0)"/>
     <use xlink:href="#DejaVuSans-65" transform="translate(102.339844 0)"/>
     <use xlink:href="#DejaVuSans-6e" transform="translate(163.863281 0)"/>
     <use xlink:href="#DejaVuSans-74" transform="translate(227.242188 0)"/>
     <use xlink:href="#DejaVuSans-71" transform="translate(266.451172 0)"/>
     <use xlink:href="#DejaVuSans-20" transform="translate(329.927734 0)"/>
     <use xlink:href="#DejaVuSans-63" transform="translate(361.714844 0)"/>
     <use xlink:href="#DejaVuSans-61" transform="translate(416.695312 0)"/>
     <use xlink:href="#DejaVuSans-6c" transform="translate(477.974609 0)"/>
     <use xlink:href="#DejaVuSans-6c" transform="translate(505.757812 0)"/>
     <use xlink:href="#DejaVuSans-73" transform="translate(533.541016 0)"/>
     <use xlink:href="#DejaVuSans-3a" transform="translate(585.640625 0)"/>
     <use xlink:href="#DejaVuSans-20" transform="translate(619.332031 0)"/>
     <use xlink:href="#DejaVuSans-39" transform="translate(651.119141 0)"/>
    </g>
    <!-- Newton calls: 10 -->
    <g style="fill: #374151" transform="translate(346.781906 275.812612) scale(0.09 -0.09)">
     <defs>
      <path id="DejaVuSans-4e" d="M 628 4666 
L 1478 4666 
L 3547 763 
L 3547 4666 
L 4159 4666 
L 4159 0 
L 3309 0 
L 1241 3903 
L 1241 0 
L 628 0 
L 628 4666 
z
" transform="scale(0.015625)"/>
      <path id="DejaVuSans-77" d="M 269 3500 
L 844 3500 
L 1563 769 
L 2278 3500 
L 2956 3500 
L 3675 769 
L 4391 3500 
L 4966 3500 
L 4050 0 
L 3372 0 
L 2619 2869 
L 1863 0 
L 1184 0 
L 269 3500 
z
" transform="scale(0.015625)"/>
      <path id="DejaVuSans-6f" d="M 1959 3097 
Q 1497 3097 1228 2736 
Q 959 2375 959 1747 
Q 959 1119 1226 758 
Q 1494 397 1959 397 
Q 2419 397 2687 759 
Q 2956 1122 2956 1747 
Q 2956 2369 2687 2733 
Q 2419 3097 1959 3097 
z
M 1959 3584 
Q 2709 3584 3137 3096 
Q 3566 2609 3566 1747 
Q 3566 888 3137 398 
Q 2709 -91 1959 -91 
Q 1206 -91 779 398 
Q 353 888 353 1747 
Q 353 2609 779 3096 
Q 1206 3584 1959 3584 
z
" transform="scale(0.015625)"/>
     </defs>
     <use xlink:href="#DejaVuSans-4e"/>
     <use xlink:href="#DejaVuSans-65" transform="translate(74.804688 0)"/>
     <use xlink:href="#DejaVuSans-77" transform="translate(136.328125 0)"/>
     <use xlink:href="#DejaVuSans-74" transform="translate(218.115234 0)"/>
     <use xlink:href="#DejaVuSans-6f" transform="translate(257.324219 0)"/>
     <use xlink:href="#DejaVuSans-6e" transform="translate(318.505859 0)"/>
     <use xlink:href="#DejaVuSans-20" transform="translate(381.884766 0)"/>
     <use xlink:href="#DejaVuSans-63" transform="translate(413.671875 0)"/>
     <use xlink:href="#DejaVuSans-61" transform="translate(468.652344 0)"/>
     <use xlink:href="#DejaVuSans-6c" transform="translate(529.931641 0)"/>
     <use xlink:href="#DejaVuSans-6c" transform="translate(557.714844 0)"/>
     <use xlink:href="#DejaVuSans-73" transform="translate(585.498047 0)"/>
     <use xlink:href="#DejaVuSans-3a" transform="translate(637.597656 0)"/>
     <use xlink:href="#DejaVuSans-20" transform="translate(671.289062 0)"/>
     <use xlink:href="#DejaVuSans-31" transform="translate(703.076172 0)"/>
     <use xlink:href="#DejaVuSans-30" transform="translate(766.699219 0)"/>
    </g>
   </g>
   <g id="text_16">
    <!-- Scalar root finding: bracketed safety versus derivative speed -->
    <g transform="translate(82.225 17.837812) scale(0.14 -0.14)">
     <defs>
      <path id="DejaVuSans-53" d="M 3425 4513 
L 3425 3897 
Q 3066 4069 2747 4153 
Q 2428 4238 2131 4238 
Q 1616 4238 1336 4038 
Q 1056 3838 1056 3469 
Q 1056 3159 1242 3001 
Q 1428 2844 1947 2747 
L 2328 2669 
Q 3034 2534 3370 2195 
Q 3706 1856 3706 1288 
Q 3706 609 3251 259 
Q 2797 -91 1919 -91 
Q 1588 -91 1214 -16 
Q 841 59 441 206 
L 441 856 
Q 825 641 1194 531 
Q 1563 422 1919 422 
Q 2459 422 2753 634 
Q 3047 847 3047 1241 
Q 3047 1584 2836 1778 
Q 2625 1972 2144 2069 
L 1759 2144 
Q 1053 2284 737 2584 
Q 422 2884 422 3419 
Q 422 4038 858 4394 
Q 1294 4750 2059 4750 
Q 2388 4750 2728 4690 
Q 3069 4631 3425 4513 
z
" transform="scale(0.015625)"/>
      <path id="DejaVuSans-66" d="M 2375 4863 
L 2375 4384 
L 1825 4384 
Q 1516 4384 1395 4259 
Q 1275 4134 1275 3809 
L 1275 3500 
L 2222 3500 
L 2222 3053 
L 1275 3053 
L 1275 0 
L 697 0 
L 697 3053 
L 147 3053 
L 147 3500 
L 697 3500 
L 697 3744 
Q 697 4328 969 4595 
Q 1241 4863 1831 4863 
L 2375 4863 
z
" transform="scale(0.015625)"/>
      <path id="DejaVuSans-69" d="M 603 3500 
L 1178 3500 
L 1178 0 
L 603 0 
L 603 3500 
z
M 603 4863 
L 1178 4863 
L 1178 4134 
L 603 4134 
L 603 4863 
z
" transform="scale(0.015625)"/>
      <path id="DejaVuSans-64" d="M 2906 2969 
L 2906 4863 
L 3481 4863 
L 3481 0 
L 2906 0 
L 2906 525 
Q 2725 213 2448 61 
Q 2172 -91 1784 -91 
Q 1150 -91 751 415 
Q 353 922 353 1747 
Q 353 2572 751 3078 
Q 1150 3584 1784 3584 
Q 2172 3584 2448 3432 
Q 2725 3281 2906 2969 
z
M 947 1747 
Q 947 1113 1208 752 
Q 1469 391 1925 391 
Q 2381 391 2643 752 
Q 2906 1113 2906 1747 
Q 2906 2381 2643 2742 
Q 2381 3103 1925 3103 
Q 1469 3103 1208 2742 
Q 947 2381 947 1747 
z
" transform="scale(0.015625)"/>
      <path id="DejaVuSans-67" d="M 2906 1791 
Q 2906 2416 2648 2759 
Q 2391 3103 1925 3103 
Q 1463 3103 1205 2759 
Q 947 2416 947 1791 
Q 947 1169 1205 825 
Q 1463 481 1925 481 
Q 2391 481 2648 825 
Q 2906 1169 2906 1791 
z
M 3481 434 
Q 3481 -459 3084 -895 
Q 2688 -1331 1869 -1331 
Q 1566 -1331 1297 -1286 
Q 1028 -1241 775 -1147 
L 775 -588 
Q 1028 -725 1275 -790 
Q 1522 -856 1778 -856 
Q 2344 -856 2625 -561 
Q 2906 -266 2906 331 
L 2906 616 
Q 2728 306 2450 153 
Q 2172 0 1784 0 
Q 1141 0 747 490 
Q 353 981 353 1791 
Q 353 2603 747 3093 
Q 1141 3584 1784 3584 
Q 2172 3584 2450 3431 
Q 2728 3278 2906 2969 
L 2906 3500 
L 3481 3500 
L 3481 434 
z
" transform="scale(0.015625)"/>
      <path id="DejaVuSans-6b" d="M 581 4863 
L 1159 4863 
L 1159 1991 
L 2875 3500 
L 3609 3500 
L 1753 1863 
L 3688 0 
L 2938 0 
L 1159 1709 
L 1159 0 
L 581 0 
L 581 4863 
z
" transform="scale(0.015625)"/>
      <path id="DejaVuSans-79" d="M 2059 -325 
Q 1816 -950 1584 -1140 
Q 1353 -1331 966 -1331 
L 506 -1331 
L 506 -850 
L 844 -850 
Q 1081 -850 1212 -737 
Q 1344 -625 1503 -206 
L 1606 56 
L 191 3500 
L 800 3500 
L 1894 763 
L 2988 3500 
L 3597 3500 
L 2059 -325 
z
" transform="scale(0.015625)"/>
      <path id="DejaVuSans-76" d="M 191 3500 
L 800 3500 
L 1894 563 
L 2988 3500 
L 3597 3500 
L 2284 0 
L 1503 0 
L 191 3500 
z
" transform="scale(0.015625)"/>
      <path id="DejaVuSans-75" d="M 544 1381 
L 544 3500 
L 1119 3500 
L 1119 1403 
Q 1119 906 1312 657 
Q 1506 409 1894 409 
Q 2359 409 2629 706 
Q 2900 1003 2900 1516 
L 2900 3500 
L 3475 3500 
L 3475 0 
L 2900 0 
L 2900 538 
Q 2691 219 2414 64 
Q 2138 -91 1772 -91 
Q 1169 -91 856 284 
Q 544 659 544 1381 
z
M 1991 3584 
L 1991 3584 
z
" transform="scale(0.015625)"/>
      <path id="DejaVuSans-70" d="M 1159 525 
L 1159 -1331 
L 581 -1331 
L 581 3500 
L 1159 3500 
L 1159 2969 
Q 1341 3281 1617 3432 
Q 1894 3584 2278 3584 
Q 2916 3584 3314 3078 
Q 3713 2572 3713 1747 
Q 3713 922 3314 415 
Q 2916 -91 2278 -91 
Q 1894 -91 1617 61 
Q 1341 213 1159 525 
z
M 3116 1747 
Q 3116 2381 2855 2742 
Q 2594 3103 2138 3103 
Q 1681 3103 1420 2742 
Q 1159 2381 1159 1747 
Q 1159 1113 1420 752 
Q 1681 391 2138 391 
Q 2594 391 2855 752 
Q 3116 1113 3116 1747 
z
" transform="scale(0.015625)"/>
     </defs>
     <use xlink:href="#DejaVuSans-53"/>
     <use xlink:href="#DejaVuSans-63" transform="translate(63.476562 0)"/>
     <use xlink:href="#DejaVuSans-61" transform="translate(118.457031 0)"/>
     <use xlink:href="#DejaVuSans-6c" transform="translate(179.736328 0)"/>
     <use xlink:href="#DejaVuSans-61" transform="translate(207.519531 0)"/>
     <use xlink:href="#DejaVuSans-72" transform="translate(268.798828 0)"/>
     <use xlink:href="#DejaVuSans-20" transform="translate(309.912109 0)"/>
     <use xlink:href="#DejaVuSans-72" transform="translate(341.699219 0)"/>
     <use xlink:href="#DejaVuSans-6f" transform="translate(380.5625 0)"/>
     <use xlink:href="#DejaVuSans-6f" transform="translate(441.744141 0)"/>
     <use xlink:href="#DejaVuSans-74" transform="translate(502.925781 0)"/>
     <use xlink:href="#DejaVuSans-20" transform="translate(542.134766 0)"/>
     <use xlink:href="#DejaVuSans-66" transform="translate(573.921875 0)"/>
     <use xlink:href="#DejaVuSans-69" transform="translate(609.126953 0)"/>
     <use xlink:href="#DejaVuSans-6e" transform="translate(636.910156 0)"/>
     <use xlink:href="#DejaVuSans-64" transform="translate(700.289062 0)"/>
     <use xlink:href="#DejaVuSans-69" transform="translate(763.765625 0)"/>
     <use xlink:href="#DejaVuSans-6e" transform="translate(791.548828 0)"/>
     <use xlink:href="#DejaVuSans-67" transform="translate(854.927734 0)"/>
     <use xlink:href="#DejaVuSans-3a" transform="translate(918.404297 0)"/>
     <use xlink:href="#DejaVuSans-20" transform="translate(952.095703 0)"/>
     <use xlink:href="#DejaVuSans-62" transform="translate(983.882812 0)"/>
     <use xlink:href="#DejaVuSans-72" transform="translate(1047.359375 0)"/>
     <use xlink:href="#DejaVuSans-61" transform="translate(1088.472656 0)"/>
     <use xlink:href="#DejaVuSans-63" transform="translate(1149.751953 0)"/>
     <use xlink:href="#DejaVuSans-6b" transform="translate(1204.732422 0)"/>
     <use xlink:href="#DejaVuSans-65" transform="translate(1259.017578 0)"/>
     <use xlink:href="#DejaVuSans-74" transform="translate(1320.541016 0)"/>
     <use xlink:href="#DejaVuSans-65" transform="translate(1359.75 0)"/>
     <use xlink:href="#DejaVuSans-64" transform="translate(1421.273438 0)"/>
     <use xlink:href="#DejaVuSans-20" transform="translate(1484.75 0)"/>
     <use xlink:href="#DejaVuSans-73" transform="translate(1516.537109 0)"/>
     <use xlink:href="#DejaVuSans-61" transform="translate(1568.636719 0)"/>
     <use xlink:href="#DejaVuSans-66" transform="translate(1629.916016 0)"/>
     <use xlink:href="#DejaVuSans-65" transform="translate(1665.121094 0)"/>
     <use xlink:href="#DejaVuSans-74" transform="translate(1726.644531 0)"/>
     <use xlink:href="#DejaVuSans-79" transform="translate(1765.853516 0)"/>
     <use xlink:href="#DejaVuSans-20" transform="translate(1825.033203 0)"/>
     <use xlink:href="#DejaVuSans-76" transform="translate(1856.820312 0)"/>
     <use xlink:href="#DejaVuSans-65" transform="translate(1916 0)"/>
     <use xlink:href="#DejaVuSans-72" transform="translate(1977.523438 0)"/>
     <use xlink:href="#DejaVuSans-73" transform="translate(2018.636719 0)"/>
     <use xlink:href="#DejaVuSans-75" transform="translate(2070.736328 0)"/>
     <use xlink:href="#DejaVuSans-73" transform="translate(2134.115234 0)"/>
     <use xlink:href="#DejaVuSans-20" transform="translate(2186.214844 0)"/>
     <use xlink:href="#DejaVuSans-64" transform="translate(2218.001953 0)"/>
     <use xlink:href="#DejaVuSans-65" transform="translate(2281.478516 0)"/>
     <use xlink:href="#DejaVuSans-72" transform="translate(2343.001953 0)"/>
     <use xlink:href="#DejaVuSans-69" transform="translate(2384.115234 0)"/>
     <use xlink:href="#DejaVuSans-76" transform="translate(2411.898438 0)"/>
     <use xlink:href="#DejaVuSans-61" transform="translate(2471.078125 0)"/>
     <use xlink:href="#DejaVuSans-74" transform="translate(2532.357422 0)"/>
     <use xlink:href="#DejaVuSans-69" transform="translate(2571.566406 0)"/>
     <use xlink:href="#DejaVuSans-76" transform="translate(2599.349609 0)"/>
     <use xlink:href="#DejaVuSans-65" transform="translate(2658.529297 0)"/>
     <use xlink:href="#DejaVuSans-20" transform="translate(2720.052734 0)"/>
     <use xlink:href="#DejaVuSans-73" transform="translate(2751.839844 0)"/>
     <use xlink:href="#DejaVuSans-70" transform="translate(2803.939453 0)"/>
     <use xlink:href="#DejaVuSans-65" transform="translate(2867.416016 0)"/>
     <use xlink:href="#DejaVuSans-65" transform="translate(2928.939453 0)"/>
     <use xlink:href="#DejaVuSans-64" transform="translate(2990.462891 0)"/>
    </g>
   </g>
   <g id="PathCollection_1">
    <defs>
     <path id="m209c5438c8" d="M 0 3.464102 
C 0.91869 3.464102 1.799877 3.099102 2.44949 2.44949 
C 3.099102 1.799877 3.464102 0.91869 3.464102 0 
C 3.464102 -0.91869 3.099102 -1.799877 2.44949 -2.44949 
C 1.799877 -3.099102 0.91869 -3.464102 0 -3.464102 
C -0.91869 -3.464102 -1.799877 -3.099102 -2.44949 -2.44949 
C -3.099102 -1.799877 -3.464102 -0.91869 -3.464102 0 
C -3.464102 0.91869 -3.099102 1.799877 -2.44949 2.44949 
C -1.799877 3.099102 -0.91869 3.464102 0 3.464102 
z
" style="stroke: #ffffff; stroke-width: 0.45"/>
    </defs>
    <g clip-path="url(#p95c6256da3)">
     <use xlink:href="#m209c5438c8" x="104.989486" y="261.309392" style="fill: #2563eb; stroke: #ffffff; stroke-width: 0.45"/>
     <use xlink:href="#m209c5438c8" x="423.346853" y="47.856413" style="fill: #2563eb; stroke: #ffffff; stroke-width: 0.45"/>
     <use xlink:href="#m209c5438c8" x="291.584428" y="112.997865" style="fill: #2563eb; stroke: #ffffff; stroke-width: 0.45"/>
     <use xlink:href="#m209c5438c8" x="251.994099" y="141.838112" style="fill: #2563eb; stroke: #ffffff; stroke-width: 0.45"/>
     <use xlink:href="#m209c5438c8" x="259.732714" y="135.960843" style="fill: #2563eb; stroke: #ffffff; stroke-width: 0.45"/>
     <use xlink:href="#m209c5438c8" x="259.41678" y="136.198734" style="fill: #2563eb; stroke: #ffffff; stroke-width: 0.45"/>
     <use xlink:href="#m209c5438c8" x="259.414055" y="136.200787" style="fill: #2563eb; stroke: #ffffff; stroke-width: 0.45"/>
     <use xlink:href="#m209c5438c8" x="259.414055" y="136.200787" style="fill: #2563eb; stroke: #ffffff; stroke-width: 0.45"/>
     <use xlink:href="#m209c5438c8" x="259.414055" y="136.200787" style="fill: #2563eb; stroke: #ffffff; stroke-width: 0.45"/>
    </g>
   </g>
   <g id="legend_1">
    <g id="line2d_31">
     <path d="M 51.113906 36.93625 
L 61.113906 36.93625 
L 71.113906 36.93625 
" style="fill: none; stroke: #111827; stroke-width: 2.2; stroke-linecap: square"/>
    </g>
    <g id="text_17">
     <!-- $f(x)=x+2\cos x$ -->
     <g transform="translate(79.113906 40.43625) scale(0.1 -0.1)">
      <defs>
       <path id="DejaVuSans-2b" d="M 2944 4013 
L 2944 2272 
L 4684 2272 
L 4684 1741 
L 2944 1741 
L 2944 0 
L 2419 0 
L 2419 1741 
L 678 1741 
L 678 2272 
L 2419 2272 
L 2419 4013 
L 2944 4013 
z
" transform="scale(0.015625)"/>
      </defs>
      <use xlink:href="#DejaVuSans-Oblique-66" transform="translate(0 0.015625)"/>
      <use xlink:href="#DejaVuSans-28" transform="translate(35.205078 0.015625)"/>
      <use xlink:href="#DejaVuSans-Oblique-78" transform="translate(74.21875 0.015625)"/>
      <use xlink:href="#DejaVuSans-29" transform="translate(133.398438 0.015625)"/>
      <use xlink:href="#DejaVuSans-3d" transform="translate(191.894531 0.015625)"/>
      <use xlink:href="#DejaVuSans-Oblique-78" transform="translate(295.166016 0.015625)"/>
      <use xlink:href="#DejaVuSans-2b" transform="translate(373.828125 0.015625)"/>
      <use xlink:href="#DejaVuSans-32" transform="translate(477.099609 0.015625)"/>
      <use xlink:href="#DejaVuSans-63" transform="translate(540.722656 0.015625)"/>
      <use xlink:href="#DejaVuSans-6f" transform="translate(595.703125 0.015625)"/>
      <use xlink:href="#DejaVuSans-73" transform="translate(656.884766 0.015625)"/>
      <use xlink:href="#DejaVuSans-Oblique-78" transform="translate(725.220051 0.015625)"/>
     </g>
    </g>
    <g id="patch_7">
     <path d="M 51.113906 55.114375 
L 71.113906 55.114375 
L 71.113906 48.114375 
L 51.113906 48.114375 
z
" style="fill: #dbeafe; opacity: 0.55; stroke: #dbeafe; stroke-linejoin: miter"/>
    </g>
    <g id="text_18">
     <!-- brentq sign-change bracket -->
     <g transform="translate(79.113906 55.114375) scale(0.1 -0.1)">
      <defs>
       <path id="DejaVuSans-2d" d="M 313 2009 
L 1997 2009 
L 1997 1497 
L 313 1497 
L 313 2009 
z
" transform="scale(0.015625)"/>
       <path id="DejaVuSans-68" d="M 3513 2113 
L 3513 0 
L 2938 0 
L 2938 2094 
Q 2938 2591 2744 2837 
Q 2550 3084 2163 3084 
Q 1697 3084 1428 2787 
Q 1159 2491 1159 1978 
L 1159 0 
L 581 0 
L 581 4863 
L 1159 4863 
L 1159 2956 
Q 1366 3272 1645 3428 
Q 1925 3584 2291 3584 
Q 2894 3584 3203 3211 
Q 3513 2838 3513 2113 
z
" transform="scale(0.015625)"/>
      </defs>
      <use xlink:href="#DejaVuSans-62"/>
      <use xlink:href="#DejaVuSans-72" transform="translate(63.476562 0)"/>
      <use xlink:href="#DejaVuSans-65" transform="translate(102.339844 0)"/>
      <use xlink:href="#DejaVuSans-6e" transform="translate(163.863281 0)"/>
      <use xlink:href="#DejaVuSans-74" transform="translate(227.242188 0)"/>
      <use xlink:href="#DejaVuSans-71" transform="translate(266.451172 0)"/>
      <use xlink:href="#DejaVuSans-20" transform="translate(329.927734 0)"/>
      <use xlink:href="#DejaVuSans-73" transform="translate(361.714844 0)"/>
      <use xlink:href="#DejaVuSans-69" transform="translate(413.814453 0)"/>
      <use xlink:href="#DejaVuSans-67" transform="translate(441.597656 0)"/>
      <use xlink:href="#DejaVuSans-6e" transform="translate(505.074219 0)"/>
      <use xlink:href="#DejaVuSans-2d" transform="translate(568.453125 0)"/>
      <use xlink:href="#DejaVuSans-63" transform="translate(604.537109 0)"/>
      <use xlink:href="#DejaVuSans-68" transform="translate(659.517578 0)"/>
      <use xlink:href="#DejaVuSans-61" transform="translate(722.896484 0)"/>
      <use xlink:href="#DejaVuSans-6e" transform="translate(784.175781 0)"/>
      <use xlink:href="#DejaVuSans-67" transform="translate(847.554688 0)"/>
      <use xlink:href="#DejaVuSans-65" transform="translate(911.03125 0)"/>
      <use xlink:href="#DejaVuSans-20" transform="translate(972.554688 0)"/>
      <use xlink:href="#DejaVuSans-62" transform="translate(1004.341797 0)"/>
      <use xlink:href="#DejaVuSans-72" transform="translate(1067.818359 0)"/>
      <use xlink:href="#DejaVuSans-61" transform="translate(1108.931641 0)"/>
      <use xlink:href="#DejaVuSans-63" transform="translate(1170.210938 0)"/>
      <use xlink:href="#DejaVuSans-6b" transform="translate(1225.191406 0)"/>
      <use xlink:href="#DejaVuSans-65" transform="translate(1279.476562 0)"/>
      <use xlink:href="#DejaVuSans-74" transform="translate(1341 0)"/>
     </g>
    </g>
    <g id="PathCollection_2">
     <g>
      <use xlink:href="#m209c5438c8" x="61.113906" y="67.1675" style="fill: #2563eb; stroke: #ffffff; stroke-width: 0.45"/>
     </g>
    </g>
    <g id="text_19">
     <!-- brentq evaluations -->
     <g transform="translate(79.113906 69.7925) scale(0.1 -0.1)">
      <use xlink:href="#DejaVuSans-62"/>
      <use xlink:href="#DejaVuSans-72" transform="translate(63.476562 0)"/>
      <use xlink:href="#DejaVuSans-65" transform="translate(102.339844 0)"/>
      <use xlink:href="#DejaVuSans-6e" transform="translate(163.863281 0)"/>
      <use xlink:href="#DejaVuSans-74" transform="translate(227.242188 0)"/>
      <use xlink:href="#DejaVuSans-71" transform="translate(266.451172 0)"/>
      <use xlink:href="#DejaVuSans-20" transform="translate(329.927734 0)"/>
      <use xlink:href="#DejaVuSans-65" transform="translate(361.714844 0)"/>
      <use xlink:href="#DejaVuSans-76" transform="translate(423.238281 0)"/>
      <use xlink:href="#DejaVuSans-61" transform="translate(482.417969 0)"/>
      <use xlink:href="#DejaVuSans-6c" transform="translate(543.697266 0)"/>
      <use xlink:href="#DejaVuSans-75" transform="translate(571.480469 0)"/>
      <use xlink:href="#DejaVuSans-61" transform="translate(634.859375 0)"/>
      <use xlink:href="#DejaVuSans-74" transform="translate(696.138672 0)"/>
      <use xlink:href="#DejaVuSans-69" transform="translate(735.347656 0)"/>
      <use xlink:href="#DejaVuSans-6f" transform="translate(763.130859 0)"/>
      <use xlink:href="#DejaVuSans-6e" transform="translate(824.3125 0)"/>
      <use xlink:href="#DejaVuSans-73" transform="translate(887.691406 0)"/>
     </g>
    </g>
    <g id="PathCollection_3">
     <defs>
      <path id="m3cd8f3689a" d="M -3.391165 3.391165 
L 3.391165 3.391165 
L 3.391165 -3.391165 
L -3.391165 -3.391165 
z
" style="stroke: #ffffff; stroke-width: 0.45"/>
     </defs>
     <g>
      <use xlink:href="#m3cd8f3689a" x="61.113906" y="81.845625" style="fill: #f59e0b; stroke: #ffffff; stroke-width: 0.45"/>
     </g>
    </g>
    <g id="text_20">
     <!-- Newton evaluations -->
     <g transform="translate(79.113906 84.470625) scale(0.1 -0.1)">
      <use xlink:href="#DejaVuSans-4e"/>
      <use xlink:href="#DejaVuSans-65" transform="translate(74.804688 0)"/>
      <use xlink:href="#DejaVuSans-77" transform="translate(136.328125 0)"/>
      <use xlink:href="#DejaVuSans-74" transform="translate(218.115234 0)"/>
      <use xlink:href="#DejaVuSans-6f" transform="translate(257.324219 0)"/>
      <use xlink:href="#DejaVuSans-6e" transform="translate(318.505859 0)"/>
      <use xlink:href="#DejaVuSans-20" transform="translate(381.884766 0)"/>
      <use xlink:href="#DejaVuSans-65" transform="translate(413.671875 0)"/>
      <use xlink:href="#DejaVuSans-76" transform="translate(475.195312 0)"/>
      <use xlink:href="#DejaVuSans-61" transform="translate(534.375 0)"/>
      <use xlink:href="#DejaVuSans-6c" transform="translate(595.654297 0)"/>
      <use xlink:href="#DejaVuSans-75" transform="translate(623.4375 0)"/>
      <use xlink:href="#DejaVuSans-61" transform="translate(686.816406 0)"/>
      <use xlink:href="#DejaVuSans-74" transform="translate(748.095703 0)"/>
      <use xlink:href="#DejaVuSans-69" transform="translate(787.304688 0)"/>
      <use xlink:href="#DejaVuSans-6f" transform="translate(815.087891 0)"/>
      <use xlink:href="#DejaVuSans-6e" transform="translate(876.269531 0)"/>
      <use xlink:href="#DejaVuSans-73" transform="translate(939.648438 0)"/>
     </g>
    </g>
    <g id="PathCollection_4">
     <defs>
      <path id="m817990cca8" d="M 0 -7.745967 
L -1.739078 -2.393635 
L -7.366852 -2.393635 
L -2.813887 0.914287 
L -4.552965 6.266619 
L -0 2.958696 
L 4.552965 6.266619 
L 2.813887 0.914287 
L 7.366852 -2.393635 
L 1.739078 -2.393635 
z
" style="stroke: #111827; stroke-width: 0.55"/>
     </defs>
     <g>
      <use xlink:href="#m817990cca8" x="61.113906" y="96.52375" style="fill: #16a34a; stroke: #111827; stroke-width: 0.55"/>
     </g>
    </g>
    <g id="text_21">
     <!-- root -->
     <g transform="translate(79.113906 99.14875) scale(0.1 -0.1)">
      <use xlink:href="#DejaVuSans-72"/>
      <use xlink:href="#DejaVuSans-6f" transform="translate(38.863281 0)"/>
      <use xlink:href="#DejaVuSans-6f" transform="translate(100.044922 0)"/>
      <use xlink:href="#DejaVuSans-74" transform="translate(161.226562 0)"/>
     </g>
    </g>
   </g>
   <g id="PathCollection_5">
    <g clip-path="url(#p95c6256da3)">
     <use xlink:href="#m3cd8f3689a" x="343.757511" y="80.757399" style="fill: #f59e0b; stroke: #ffffff; stroke-width: 0.45"/>
     <use xlink:href="#m3cd8f3689a" x="241.761227" y="149.760288" style="fill: #f59e0b; stroke: #ffffff; stroke-width: 0.45"/>
     <use xlink:href="#m3cd8f3689a" x="259.10139" y="136.436394" style="fill: #f59e0b; stroke: #ffffff; stroke-width: 0.45"/>
     <use xlink:href="#m3cd8f3689a" x="259.413939" y="136.200874" style="fill: #f59e0b; stroke: #ffffff; stroke-width: 0.45"/>
     <use xlink:href="#m3cd8f3689a" x="259.414055" y="136.200787" style="fill: #f59e0b; stroke: #ffffff; stroke-width: 0.45"/>
    </g>
   </g>
   <g id="PathCollection_6">
    <g clip-path="url(#p95c6256da3)">
     <use xlink:href="#m817990cca8" x="259.414055" y="136.200787" style="fill: #16a34a; stroke: #111827; stroke-width: 0.55"/>
    </g>
   </g>
  </g>
 </g>
 <defs>
  <clipPath id="p95c6256da3">
   <rect x="42.113906" y="23.837812" width="507.78" height="279.972"/>
  </clipPath>
 </defs>
</svg>
