<svg xmlns="http://www.w3.org/2000/svg" width="980" height="560" viewBox="0 0 980 560" role="img" aria-labelledby="title desc">
  <title id="title">Rosenbrock progress comparison</title>
  <desc id="desc">A Python-generated log-scale comparison of best Rosenbrock objective value by accepted step for BFGS, Newton-CG, and Nelder-Mead.</desc>
  <defs>
    <clipPath id="progress-clip">
      <rect x="84.0" y="80.0" width="770.0" height="330.0" />
    </clipPath>
    <style>
      .title { font: 700 24px Inter, Arial, sans-serif; fill: #172033; }
      .body { font: 14px Inter, Arial, sans-serif; fill: #5f6b7a; }
      .axis { font: 700 14px Inter, Arial, sans-serif; fill: #172033; }
      .tick { font: 12px Inter, Arial, sans-serif; fill: #64748b; }
      .small { font: 13px Inter, Arial, sans-serif; fill: #475569; }
    </style>
  </defs>
  <rect width="100%" height="100%" fill="#ffffff" />
  <text x="48" y="38" class="title">Rosenbrock objective progress</text>
  <text x="48" y="61" class="body">Best objective value so far on a log scale. The x-axis is accepted outer step or simplex update, not equal compute cost.</text>
  <rect x="84.0" y="80.0" width="770.0" height="330.0" fill="#ffffff" stroke="#d9e1ea" />
  <line x1="84.0" y1="410.00" x2="854.0" y2="410.00" stroke="#e2e8f0" /><text x="72.00" y="414.00" text-anchor="end" class="tick">1e-16</text><line x1="84.0" y1="391.67" x2="854.0" y2="391.67" stroke="#e2e8f0" /><text x="72.00" y="395.67" text-anchor="end" class="tick">1e-15</text><line x1="84.0" y1="373.33" x2="854.0" y2="373.33" stroke="#e2e8f0" /><text x="72.00" y="377.33" text-anchor="end" class="tick">1e-14</text><line x1="84.0" y1="355.00" x2="854.0" y2="355.00" stroke="#e2e8f0" /><text x="72.00" y="359.00" text-anchor="end" class="tick">1e-13</text><line x1="84.0" y1="336.67" x2="854.0" y2="336.67" stroke="#e2e8f0" /><text x="72.00" y="340.67" text-anchor="end" class="tick">1e-12</text><line x1="84.0" y1="318.33" x2="854.0" y2="318.33" stroke="#e2e8f0" /><text x="72.00" y="322.33" text-anchor="end" class="tick">1e-11</text><line x1="84.0" y1="300.00" x2="854.0" y2="300.00" stroke="#e2e8f0" /><text x="72.00" y="304.00" text-anchor="end" class="tick">1e-10</text><line x1="84.0" y1="281.67" x2="854.0" y2="281.67" stroke="#e2e8f0" /><text x="72.00" y="285.67" text-anchor="end" class="tick">1e-9</text><line x1="84.0" y1="263.33" x2="854.0" y2="263.33" stroke="#e2e8f0" /><text x="72.00" y="267.33" text-anchor="end" class="tick">1e-8</text><line x1="84.0" y1="245.00" x2="854.0" y2="245.00" stroke="#e2e8f0" /><text x="72.00" y="249.00" text-anchor="end" class="tick">1e-7</text><line x1="84.0" y1="226.67" x2="854.0" y2="226.67" stroke="#e2e8f0" /><text x="72.00" y="230.67" text-anchor="end" class="tick">1e-6</text><line x1="84.0" y1="208.33" x2="854.0" y2="208.33" stroke="#e2e8f0" /><text x="72.00" y="212.33" text-anchor="end" class="tick">1e-5</text><line x1="84.0" y1="190.00" x2="854.0" y2="190.00" stroke="#e2e8f0" /><text x="72.00" y="194.00" text-anchor="end" class="tick">1e-4</text><line x1="84.0" y1="171.67" x2="854.0" y2="171.67" stroke="#e2e8f0" /><text x="72.00" y="175.67" text-anchor="end" class="tick">1e-3</text><line x1="84.0" y1="153.33" x2="854.0" y2="153.33" stroke="#e2e8f0" /><text x="72.00" y="157.33" text-anchor="end" class="tick">1e-2</text><line x1="84.0" y1="135.00" x2="854.0" y2="135.00" stroke="#e2e8f0" /><text x="72.00" y="139.00" text-anchor="end" class="tick">1e-1</text><line x1="84.0" y1="116.67" x2="854.0" y2="116.67" stroke="#e2e8f0" /><text x="72.00" y="120.67" text-anchor="end" class="tick">1e0</text><line x1="84.0" y1="98.33" x2="854.0" y2="98.33" stroke="#e2e8f0" /><text x="72.00" y="102.33" text-anchor="end" class="tick">1e1</text><line x1="84.0" y1="80.00" x2="854.0" y2="80.00" stroke="#e2e8f0" /><text x="72.00" y="84.00" text-anchor="end" class="tick">1e2</text><line x1="84.00" y1="80.0" x2="84.00" y2="410.0" stroke="#f1f5f9" /><text x="84.00" y="434.00" text-anchor="middle" class="tick">0</text><line x1="171.50" y1="80.0" x2="171.50" y2="410.0" stroke="#f1f5f9" /><text x="171.50" y="434.00" text-anchor="middle" class="tick">10</text><line x1="259.00" y1="80.0" x2="259.00" y2="410.0" stroke="#f1f5f9" /><text x="259.00" y="434.00" text-anchor="middle" class="tick">20</text><line x1="346.50" y1="80.0" x2="346.50" y2="410.0" stroke="#f1f5f9" /><text x="346.50" y="434.00" text-anchor="middle" class="tick">30</text><line x1="434.00" y1="80.0" x2="434.00" y2="410.0" stroke="#f1f5f9" /><text x="434.00" y="434.00" text-anchor="middle" class="tick">40</text><line x1="521.50" y1="80.0" x2="521.50" y2="410.0" stroke="#f1f5f9" /><text x="521.50" y="434.00" text-anchor="middle" class="tick">50</text><line x1="740.25" y1="80.0" x2="740.25" y2="410.0" stroke="#f1f5f9" /><text x="740.25" y="434.00" text-anchor="middle" class="tick">75</text><line x1="854.00" y1="80.0" x2="854.00" y2="410.0" stroke="#f1f5f9" /><text x="854.00" y="434.00" text-anchor="middle" class="tick">88</text>
  <g clip-path="url(#progress-clip)">
      <path d="M 84.00 91.30 L 92.75 104.29 L 101.50 105.46 L 110.25 107.33 L 119.00 107.37 L 127.75 111.38 L 136.50 112.92 L 145.25 115.36 L 154.00 117.31 L 162.75 120.77 L 171.50 122.98 L 180.25 126.78 L 189.00 129.04 L 197.75 135.93 L 206.50 140.28 L 215.25 147.82 L 224.00 155.98 L 232.75 171.13 L 241.50 192.00 L 250.25 236.73 L 259.00 319.61 L 267.75 410.00" fill="none" stroke="#2563eb" stroke-width="3.2" stroke-linejoin="round" stroke-linecap="round" /><circle cx="267.75" cy="410.00" r="5" fill="#2563eb" stroke="white" stroke-width="2" /><path d="M 84.00 91.30 L 92.75 103.69 L 101.50 107.38 L 110.25 107.59 L 119.00 108.84 L 127.75 110.10 L 136.50 111.46 L 145.25 111.89 L 154.00 112.46 L 162.75 114.69 L 171.50 115.44 L 180.25 117.85 L 189.00 118.98 L 197.75 121.72 L 206.50 122.20 L 215.25 123.58 L 224.00 124.34 L 232.75 125.53 L 241.50 127.12 L 250.25 129.42 L 259.00 131.36 L 267.75 133.60 L 276.50 135.99 L 285.25 138.98 L 294.00 144.43 L 302.75 150.12 L 311.50 157.46 L 320.25 158.93 L 329.00 169.88 L 337.75 182.12 L 346.50 201.16 L 355.25 231.39 L 364.00 282.81 L 372.75 350.03" fill="none" stroke="#7c3aed" stroke-width="3.2" stroke-linejoin="round" stroke-linecap="round" /><circle cx="372.75" cy="350.03" r="5" fill="#7c3aed" stroke="white" stroke-width="2" /><path d="M 84.00 99.63 L 92.75 99.63 L 101.50 99.63 L 110.25 99.63 L 119.00 99.93 L 127.75 101.43 L 136.50 101.43 L 145.25 102.42 L 154.00 102.94 L 162.75 102.94 L 171.50 104.20 L 180.25 104.20 L 189.00 104.97 L 197.75 104.97 L 206.50 105.83 L 215.25 105.83 L 224.00 105.98 L 232.75 106.76 L 241.50 107.80 L 250.25 107.80 L 259.00 108.47 L 267.75 109.93 L 276.50 109.93 L 285.25 112.21 L 294.00 112.21 L 302.75 112.21 L 311.50 112.81 L 320.25 113.09 L 329.00 115.11 L 337.75 115.11 L 346.50 116.20 L 355.25 116.20 L 364.00 116.20 L 372.75 116.20 L 381.50 116.20 L 390.25 116.20 L 399.00 116.84 L 407.75 116.84 L 416.50 117.88 L 425.25 117.88 L 434.00 118.37 L 442.75 119.93 L 451.50 121.96 L 460.25 121.96 L 469.00 121.96 L 477.75 126.07 L 486.50 126.07 L 495.25 126.07 L 504.00 126.43 L 512.75 127.12 L 521.50 128.56 L 530.25 128.56 L 539.00 132.98 L 547.75 132.98 L 556.50 132.98 L 565.25 134.83 L 574.00 134.83 L 582.75 134.83 L 591.50 138.34 L 600.25 138.34 L 609.00 138.34 L 617.75 138.59 L 626.50 143.93 L 635.25 143.93 L 644.00 143.93 L 652.75 153.71 L 661.50 153.71 L 670.25 170.95 L 679.00 170.95 L 687.75 170.95 L 696.50 170.95 L 705.25 180.87 L 714.00 180.87 L 722.75 187.75 L 731.50 196.47 L 740.25 196.47 L 749.00 201.53 L 757.75 204.63 L 766.50 209.71 L 775.25 228.70 L 784.00 228.70 L 792.75 228.70 L 801.50 228.70 L 810.25 239.22 L 819.00 243.42 L 827.75 246.24 L 836.50 254.13 L 845.25 256.29 L 854.00 264.70" fill="none" stroke="#be123c" stroke-width="3.2" stroke-linejoin="round" stroke-linecap="round" /><circle cx="854.00" cy="264.70" r="5" fill="#be123c" stroke="white" stroke-width="2" />
  </g>
  <text x="469.00" y="464.00" text-anchor="middle" class="axis">accepted outer step / simplex update</text>
  <text x="27" y="245.00" text-anchor="middle" transform="rotate(-90 27 245.00)" class="axis">best f(x) so far</text>
  <rect x="618" y="84" width="230" height="98" rx="8" fill="#ffffff" opacity="0.94" stroke="#d9e1ea" />
  <line x1="638" y1="106" x2="666" y2="106" stroke="#2563eb" stroke-width="4" stroke-linecap="round" /><text x="676" y="111" class="small">Newton-CG</text><line x1="638" y1="134" x2="666" y2="134" stroke="#7c3aed" stroke-width="4" stroke-linecap="round" /><text x="676" y="139" class="small">BFGS</text><line x1="638" y1="162" x2="666" y2="162" stroke="#be123c" stroke-width="4" stroke-linecap="round" /><text x="676" y="167" class="small">Nelder-Mead</text>
  <rect x="610" y="432" width="300" height="88" rx="8" fill="#ffffff" opacity="0.94" stroke="#d9e1ea" />
  <text x="626" y="464" class="small" fill="#2563eb">Newton-CG: 21 steps, final best f=3.7e-21</text><text x="626" y="486" class="small" fill="#7c3aed">BFGS: 33 steps, final best f=1.9e-13</text><text x="626" y="508" class="small" fill="#be123c">Nelder-Mead: 88 steps, final best f=8.4e-09</text>
  <text x="86" y="466" class="small">Read this as convergence shape, not a stopwatch.</text>
  <text x="86" y="489" class="small">Newton-CG spends Hessian-vector products; BFGS spends gradients;</text>
  <text x="86" y="512" class="small">Nelder-Mead spends only objective evaluations.</text>
</svg>
