<?xml version="1.0" encoding="utf-8" standalone="no"?>
<!DOCTYPE svg PUBLIC "-//W3C//DTD SVG 1.1//EN"
  "http://www.w3.org/Graphics/SVG/1.1/DTD/svg11.dtd">
<svg xmlns:xlink="http://www.w3.org/1999/xlink" width="493.164531pt" height="427.93602pt" viewBox="0 0 493.164531 427.93602" xmlns="http://www.w3.org/2000/svg" version="1.1">
 <metadata>
  <rdf:RDF xmlns:dc="http://purl.org/dc/elements/1.1/" xmlns:cc="http://creativecommons.org/ns#" xmlns:rdf="http://www.w3.org/1999/02/22-rdf-syntax-ns#">
   <cc:Work>
    <dc:type rdf:resource="http://purl.org/dc/dcmitype/StillImage"/>
    <dc:date>2026-06-09T16:03:15.729621</dc:date>
    <dc:format>image/svg+xml</dc:format>
    <dc:creator>
     <cc:Agent>
      <dc:title>Matplotlib v3.10.8, https://matplotlib.org/</dc:title>
     </cc:Agent>
    </dc:creator>
   </cc:Work>
  </rdf:RDF>
 </metadata>
 <defs>
  <style type="text/css">*{stroke-linejoin: round; stroke-linecap: butt}</style>
 </defs>
 <g id="figure_1">
  <g id="patch_1">
   <path d="M 0 427.93602 
L 493.164531 427.93602 
L 493.164531 0 
L 0 0 
z
" style="fill: #ffffff"/>
  </g>
  <g id="axes_1">
   <g id="patch_2">
    <path d="M 50.724531 390.355707 
L 485.964531 390.355707 
L 485.964531 23.837812 
L 50.724531 23.837812 
z
" style="fill: #ffffff"/>
   </g>
   <g id="patch_3">
    <path d="M 268.344531 374.320549 
C 289.607399 374.320549 310.002258 365.872722 325.037376 350.837604 
C 340.072494 335.802486 348.520321 315.407628 348.520321 294.14476 
C 348.520321 272.881892 340.072494 252.487034 325.037376 237.451915 
C 310.002258 222.416797 289.607399 213.96897 268.344531 213.96897 
C 247.081663 213.96897 226.686805 222.416797 211.651687 237.451915 
C 196.616569 252.487034 188.168742 272.881892 188.168742 294.14476 
C 188.168742 315.407628 196.616569 335.802486 211.651687 350.837604 
C 226.686805 365.872722 247.081663 374.320549 268.344531 374.320549 
L 268.344531 374.320549 
z
" clip-path="url(#p1c223eb1a0)" style="fill: none; stroke: #2563eb; stroke-width: 2.2; stroke-linejoin: miter"/>
   </g>
   <g id="matplotlib.axis_1">
    <g id="xtick_1">
     <g id="line2d_1">
      <path d="M 96.539268 390.355707 
L 96.539268 23.837812 
" clip-path="url(#p1c223eb1a0)" style="fill: none; stroke-dasharray: 0.6,0.99; stroke-dashoffset: 0; stroke: #cbd5e1; stroke-width: 0.6"/>
     </g>
     <g id="line2d_2">
      <defs>
       <path id="m3c1bd593c8" d="M 0 0 
L 0 3.5 
" style="stroke: #000000; stroke-width: 0.8"/>
      </defs>
      <g>
       <use xlink:href="#m3c1bd593c8" x="96.539268" y="390.355707" style="stroke: #000000; stroke-width: 0.8"/>
      </g>
     </g>
     <g id="text_1">
      <!-- −0.75 -->
      <g transform="translate(82.748877 404.194301) scale(0.09 -0.09)">
       <defs>
        <path id="DejaVuSans-2212" d="M 678 2272 
L 4684 2272 
L 4684 1741 
L 678 1741 
L 678 2272 
z
" transform="scale(0.015625)"/>
        <path id="DejaVuSans-30" d="M 2034 4250 
Q 1547 4250 1301 3770 
Q 1056 3291 1056 2328 
Q 1056 1369 1301 889 
Q 1547 409 2034 409 
Q 2525 409 2770 889 
Q 3016 1369 3016 2328 
Q 3016 3291 2770 3770 
Q 2525 4250 2034 4250 
z
M 2034 4750 
Q 2819 4750 3233 4129 
Q 3647 3509 3647 2328 
Q 3647 1150 3233 529 
Q 2819 -91 2034 -91 
Q 1250 -91 836 529 
Q 422 1150 422 2328 
Q 422 3509 836 4129 
Q 1250 4750 2034 4750 
z
" transform="scale(0.015625)"/>
        <path id="DejaVuSans-2e" d="M 684 794 
L 1344 794 
L 1344 0 
L 684 0 
L 684 794 
z
" transform="scale(0.015625)"/>
        <path id="DejaVuSans-37" d="M 525 4666 
L 3525 4666 
L 3525 4397 
L 1831 0 
L 1172 0 
L 2766 4134 
L 525 4134 
L 525 4666 
z
" transform="scale(0.015625)"/>
        <path id="DejaVuSans-35" d="M 691 4666 
L 3169 4666 
L 3169 4134 
L 1269 4134 
L 1269 2991 
Q 1406 3038 1543 3061 
Q 1681 3084 1819 3084 
Q 2600 3084 3056 2656 
Q 3513 2228 3513 1497 
Q 3513 744 3044 326 
Q 2575 -91 1722 -91 
Q 1428 -91 1123 -41 
Q 819 9 494 109 
L 494 744 
Q 775 591 1075 516 
Q 1375 441 1709 441 
Q 2250 441 2565 725 
Q 2881 1009 2881 1497 
Q 2881 1984 2565 2268 
Q 2250 2553 1709 2553 
Q 1456 2553 1204 2497 
Q 953 2441 691 2322 
L 691 4666 
z
" transform="scale(0.015625)"/>
       </defs>
       <use xlink:href="#DejaVuSans-2212"/>
       <use xlink:href="#DejaVuSans-30" transform="translate(83.789062 0)"/>
       <use xlink:href="#DejaVuSans-2e" transform="translate(147.412109 0)"/>
       <use xlink:href="#DejaVuSans-37" transform="translate(179.199219 0)"/>
       <use xlink:href="#DejaVuSans-35" transform="translate(242.822266 0)"/>
      </g>
     </g>
    </g>
    <g id="xtick_2">
     <g id="line2d_3">
      <path d="M 153.807689 390.355707 
L 153.807689 23.837812 
" clip-path="url(#p1c223eb1a0)" style="fill: none; stroke-dasharray: 0.6,0.99; stroke-dashoffset: 0; stroke: #cbd5e1; stroke-width: 0.6"/>
     </g>
     <g id="line2d_4">
      <g>
       <use xlink:href="#m3c1bd593c8" x="153.807689" y="390.355707" style="stroke: #000000; stroke-width: 0.8"/>
      </g>
     </g>
     <g id="text_2">
      <!-- −0.50 -->
      <g transform="translate(140.017299 404.194301) scale(0.09 -0.09)">
       <use xlink:href="#DejaVuSans-2212"/>
       <use xlink:href="#DejaVuSans-30" transform="translate(83.789062 0)"/>
       <use xlink:href="#DejaVuSans-2e" transform="translate(147.412109 0)"/>
       <use xlink:href="#DejaVuSans-35" transform="translate(179.199219 0)"/>
       <use xlink:href="#DejaVuSans-30" transform="translate(242.822266 0)"/>
      </g>
     </g>
    </g>
    <g id="xtick_3">
     <g id="line2d_5">
      <path d="M 211.07611 390.355707 
L 211.07611 23.837812 
" clip-path="url(#p1c223eb1a0)" style="fill: none; stroke-dasharray: 0.6,0.99; stroke-dashoffset: 0; stroke: #cbd5e1; stroke-width: 0.6"/>
     </g>
     <g id="line2d_6">
      <g>
       <use xlink:href="#m3c1bd593c8" x="211.07611" y="390.355707" style="stroke: #000000; stroke-width: 0.8"/>
      </g>
     </g>
     <g id="text_3">
      <!-- −0.25 -->
      <g transform="translate(197.28572 404.194301) scale(0.09 -0.09)">
       <defs>
        <path id="DejaVuSans-32" d="M 1228 531 
L 3431 531 
L 3431 0 
L 469 0 
L 469 531 
Q 828 903 1448 1529 
Q 2069 2156 2228 2338 
Q 2531 2678 2651 2914 
Q 2772 3150 2772 3378 
Q 2772 3750 2511 3984 
Q 2250 4219 1831 4219 
Q 1534 4219 1204 4116 
Q 875 4013 500 3803 
L 500 4441 
Q 881 4594 1212 4672 
Q 1544 4750 1819 4750 
Q 2544 4750 2975 4387 
Q 3406 4025 3406 3419 
Q 3406 3131 3298 2873 
Q 3191 2616 2906 2266 
Q 2828 2175 2409 1742 
Q 1991 1309 1228 531 
z
" transform="scale(0.015625)"/>
       </defs>
       <use xlink:href="#DejaVuSans-2212"/>
       <use xlink:href="#DejaVuSans-30" transform="translate(83.789062 0)"/>
       <use xlink:href="#DejaVuSans-2e" transform="translate(147.412109 0)"/>
       <use xlink:href="#DejaVuSans-32" transform="translate(179.199219 0)"/>
       <use xlink:href="#DejaVuSans-35" transform="translate(242.822266 0)"/>
      </g>
     </g>
    </g>
    <g id="xtick_4">
     <g id="line2d_7">
      <path d="M 268.344531 390.355707 
L 268.344531 23.837812 
" clip-path="url(#p1c223eb1a0)" style="fill: none; stroke-dasharray: 0.6,0.99; stroke-dashoffset: 0; stroke: #cbd5e1; stroke-width: 0.6"/>
     </g>
     <g id="line2d_8">
      <g>
       <use xlink:href="#m3c1bd593c8" x="268.344531" y="390.355707" style="stroke: #000000; stroke-width: 0.8"/>
      </g>
     </g>
     <g id="text_4">
      <!-- 0.00 -->
      <g transform="translate(258.325 404.194301) scale(0.09 -0.09)">
       <use xlink:href="#DejaVuSans-30"/>
       <use xlink:href="#DejaVuSans-2e" transform="translate(63.623047 0)"/>
       <use xlink:href="#DejaVuSans-30" transform="translate(95.410156 0)"/>
       <use xlink:href="#DejaVuSans-30" transform="translate(159.033203 0)"/>
      </g>
     </g>
    </g>
    <g id="xtick_5">
     <g id="line2d_9">
      <path d="M 325.612952 390.355707 
L 325.612952 23.837812 
" clip-path="url(#p1c223eb1a0)" style="fill: none; stroke-dasharray: 0.6,0.99; stroke-dashoffset: 0; stroke: #cbd5e1; stroke-width: 0.6"/>
     </g>
     <g id="line2d_10">
      <g>
       <use xlink:href="#m3c1bd593c8" x="325.612952" y="390.355707" style="stroke: #000000; stroke-width: 0.8"/>
      </g>
     </g>
     <g id="text_5">
      <!-- 0.25 -->
      <g transform="translate(315.593421 404.194301) scale(0.09 -0.09)">
       <use xlink:href="#DejaVuSans-30"/>
       <use xlink:href="#DejaVuSans-2e" transform="translate(63.623047 0)"/>
       <use xlink:href="#DejaVuSans-32" transform="translate(95.410156 0)"/>
       <use xlink:href="#DejaVuSans-35" transform="translate(159.033203 0)"/>
      </g>
     </g>
    </g>
    <g id="xtick_6">
     <g id="line2d_11">
      <path d="M 382.881373 390.355707 
L 382.881373 23.837812 
" clip-path="url(#p1c223eb1a0)" style="fill: none; stroke-dasharray: 0.6,0.99; stroke-dashoffset: 0; stroke: #cbd5e1; stroke-width: 0.6"/>
     </g>
     <g id="line2d_12">
      <g>
       <use xlink:href="#m3c1bd593c8" x="382.881373" y="390.355707" style="stroke: #000000; stroke-width: 0.8"/>
      </g>
     </g>
     <g id="text_6">
      <!-- 0.50 -->
      <g transform="translate(372.861842 404.194301) scale(0.09 -0.09)">
       <use xlink:href="#DejaVuSans-30"/>
       <use xlink:href="#DejaVuSans-2e" transform="translate(63.623047 0)"/>
       <use xlink:href="#DejaVuSans-35" transform="translate(95.410156 0)"/>
       <use xlink:href="#DejaVuSans-30" transform="translate(159.033203 0)"/>
      </g>
     </g>
    </g>
    <g id="xtick_7">
     <g id="line2d_13">
      <path d="M 440.149794 390.355707 
L 440.149794 23.837812 
" clip-path="url(#p1c223eb1a0)" style="fill: none; stroke-dasharray: 0.6,0.99; stroke-dashoffset: 0; stroke: #cbd5e1; stroke-width: 0.6"/>
     </g>
     <g id="line2d_14">
      <g>
       <use xlink:href="#m3c1bd593c8" x="440.149794" y="390.355707" style="stroke: #000000; stroke-width: 0.8"/>
      </g>
     </g>
     <g id="text_7">
      <!-- 0.75 -->
      <g transform="translate(430.130263 404.194301) scale(0.09 -0.09)">
       <use xlink:href="#DejaVuSans-30"/>
       <use xlink:href="#DejaVuSans-2e" transform="translate(63.623047 0)"/>
       <use xlink:href="#DejaVuSans-37" transform="translate(95.410156 0)"/>
       <use xlink:href="#DejaVuSans-35" transform="translate(159.033203 0)"/>
      </g>
     </g>
    </g>
    <g id="text_8">
     <!-- step coordinate $p_0$ -->
     <g transform="translate(217.414531 418.42602) scale(0.11 -0.11)">
      <defs>
       <path id="DejaVuSans-73" d="M 2834 3397 
L 2834 2853 
Q 2591 2978 2328 3040 
Q 2066 3103 1784 3103 
Q 1356 3103 1142 2972 
Q 928 2841 928 2578 
Q 928 2378 1081 2264 
Q 1234 2150 1697 2047 
L 1894 2003 
Q 2506 1872 2764 1633 
Q 3022 1394 3022 966 
Q 3022 478 2636 193 
Q 2250 -91 1575 -91 
Q 1294 -91 989 -36 
Q 684 19 347 128 
L 347 722 
Q 666 556 975 473 
Q 1284 391 1588 391 
Q 1994 391 2212 530 
Q 2431 669 2431 922 
Q 2431 1156 2273 1281 
Q 2116 1406 1581 1522 
L 1381 1569 
Q 847 1681 609 1914 
Q 372 2147 372 2553 
Q 372 3047 722 3315 
Q 1072 3584 1716 3584 
Q 2034 3584 2315 3537 
Q 2597 3491 2834 3397 
z
" transform="scale(0.015625)"/>
       <path id="DejaVuSans-74" d="M 1172 4494 
L 1172 3500 
L 2356 3500 
L 2356 3053 
L 1172 3053 
L 1172 1153 
Q 1172 725 1289 603 
Q 1406 481 1766 481 
L 2356 481 
L 2356 0 
L 1766 0 
Q 1100 0 847 248 
Q 594 497 594 1153 
L 594 3053 
L 172 3053 
L 172 3500 
L 594 3500 
L 594 4494 
L 1172 4494 
z
" transform="scale(0.015625)"/>
       <path id="DejaVuSans-65" d="M 3597 1894 
L 3597 1613 
L 953 1613 
Q 991 1019 1311 708 
Q 1631 397 2203 397 
Q 2534 397 2845 478 
Q 3156 559 3463 722 
L 3463 178 
Q 3153 47 2828 -22 
Q 2503 -91 2169 -91 
Q 1331 -91 842 396 
Q 353 884 353 1716 
Q 353 2575 817 3079 
Q 1281 3584 2069 3584 
Q 2775 3584 3186 3129 
Q 3597 2675 3597 1894 
z
M 3022 2063 
Q 3016 2534 2758 2815 
Q 2500 3097 2075 3097 
Q 1594 3097 1305 2825 
Q 1016 2553 972 2059 
L 3022 2063 
z
" transform="scale(0.015625)"/>
       <path id="DejaVuSans-70" d="M 1159 525 
L 1159 -1331 
L 581 -1331 
L 581 3500 
L 1159 3500 
L 1159 2969 
Q 1341 3281 1617 3432 
Q 1894 3584 2278 3584 
Q 2916 3584 3314 3078 
Q 3713 2572 3713 1747 
Q 3713 922 3314 415 
Q 2916 -91 2278 -91 
Q 1894 -91 1617 61 
Q 1341 213 1159 525 
z
M 3116 1747 
Q 3116 2381 2855 2742 
Q 2594 3103 2138 3103 
Q 1681 3103 1420 2742 
Q 1159 2381 1159 1747 
Q 1159 1113 1420 752 
Q 1681 391 2138 391 
Q 2594 391 2855 752 
Q 3116 1113 3116 1747 
z
" transform="scale(0.015625)"/>
       <path id="DejaVuSans-20" transform="scale(0.015625)"/>
       <path id="DejaVuSans-63" d="M 3122 3366 
L 3122 2828 
Q 2878 2963 2633 3030 
Q 2388 3097 2138 3097 
Q 1578 3097 1268 2742 
Q 959 2388 959 1747 
Q 959 1106 1268 751 
Q 1578 397 2138 397 
Q 2388 397 2633 464 
Q 2878 531 3122 666 
L 3122 134 
Q 2881 22 2623 -34 
Q 2366 -91 2075 -91 
Q 1284 -91 818 406 
Q 353 903 353 1747 
Q 353 2603 823 3093 
Q 1294 3584 2113 3584 
Q 2378 3584 2631 3529 
Q 2884 3475 3122 3366 
z
" transform="scale(0.015625)"/>
       <path id="DejaVuSans-6f" d="M 1959 3097 
Q 1497 3097 1228 2736 
Q 959 2375 959 1747 
Q 959 1119 1226 758 
Q 1494 397 1959 397 
Q 2419 397 2687 759 
Q 2956 1122 2956 1747 
Q 2956 2369 2687 2733 
Q 2419 3097 1959 3097 
z
M 1959 3584 
Q 2709 3584 3137 3096 
Q 3566 2609 3566 1747 
Q 3566 888 3137 398 
Q 2709 -91 1959 -91 
Q 1206 -91 779 398 
Q 353 888 353 1747 
Q 353 2609 779 3096 
Q 1206 3584 1959 3584 
z
" transform="scale(0.015625)"/>
       <path id="DejaVuSans-72" d="M 2631 2963 
Q 2534 3019 2420 3045 
Q 2306 3072 2169 3072 
Q 1681 3072 1420 2755 
Q 1159 2438 1159 1844 
L 1159 0 
L 581 0 
L 581 3500 
L 1159 3500 
L 1159 2956 
Q 1341 3275 1631 3429 
Q 1922 3584 2338 3584 
Q 2397 3584 2469 3576 
Q 2541 3569 2628 3553 
L 2631 2963 
z
" transform="scale(0.015625)"/>
       <path id="DejaVuSans-64" d="M 2906 2969 
L 2906 4863 
L 3481 4863 
L 3481 0 
L 2906 0 
L 2906 525 
Q 2725 213 2448 61 
Q 2172 -91 1784 -91 
Q 1150 -91 751 415 
Q 353 922 353 1747 
Q 353 2572 751 3078 
Q 1150 3584 1784 3584 
Q 2172 3584 2448 3432 
Q 2725 3281 2906 2969 
z
M 947 1747 
Q 947 1113 1208 752 
Q 1469 391 1925 391 
Q 2381 391 2643 752 
Q 2906 1113 2906 1747 
Q 2906 2381 2643 2742 
Q 2381 3103 1925 3103 
Q 1469 3103 1208 2742 
Q 947 2381 947 1747 
z
" transform="scale(0.015625)"/>
       <path id="DejaVuSans-69" d="M 603 3500 
L 1178 3500 
L 1178 0 
L 603 0 
L 603 3500 
z
M 603 4863 
L 1178 4863 
L 1178 4134 
L 603 4134 
L 603 4863 
z
" transform="scale(0.015625)"/>
       <path id="DejaVuSans-6e" d="M 3513 2113 
L 3513 0 
L 2938 0 
L 2938 2094 
Q 2938 2591 2744 2837 
Q 2550 3084 2163 3084 
Q 1697 3084 1428 2787 
Q 1159 2491 1159 1978 
L 1159 0 
L 581 0 
L 581 3500 
L 1159 3500 
L 1159 2956 
Q 1366 3272 1645 3428 
Q 1925 3584 2291 3584 
Q 2894 3584 3203 3211 
Q 3513 2838 3513 2113 
z
" transform="scale(0.015625)"/>
       <path id="DejaVuSans-61" d="M 2194 1759 
Q 1497 1759 1228 1600 
Q 959 1441 959 1056 
Q 959 750 1161 570 
Q 1363 391 1709 391 
Q 2188 391 2477 730 
Q 2766 1069 2766 1631 
L 2766 1759 
L 2194 1759 
z
M 3341 1997 
L 3341 0 
L 2766 0 
L 2766 531 
Q 2569 213 2275 61 
Q 1981 -91 1556 -91 
Q 1019 -91 701 211 
Q 384 513 384 1019 
Q 384 1609 779 1909 
Q 1175 2209 1959 2209 
L 2766 2209 
L 2766 2266 
Q 2766 2663 2505 2880 
Q 2244 3097 1772 3097 
Q 1472 3097 1187 3025 
Q 903 2953 641 2809 
L 641 3341 
Q 956 3463 1253 3523 
Q 1550 3584 1831 3584 
Q 2591 3584 2966 3190 
Q 3341 2797 3341 1997 
z
" transform="scale(0.015625)"/>
       <path id="DejaVuSans-Oblique-70" d="M 3175 2156 
Q 3175 2616 2975 2859 
Q 2775 3103 2400 3103 
Q 2144 3103 1911 2972 
Q 1678 2841 1497 2591 
Q 1319 2344 1212 1994 
Q 1106 1644 1106 1300 
Q 1106 863 1306 627 
Q 1506 391 1875 391 
Q 2147 391 2380 519 
Q 2613 647 2778 891 
Q 2956 1147 3065 1494 
Q 3175 1841 3175 2156 
z
M 1394 2969 
Q 1625 3272 1939 3428 
Q 2253 3584 2638 3584 
Q 3175 3584 3472 3232 
Q 3769 2881 3769 2247 
Q 3769 1728 3584 1258 
Q 3400 788 3053 416 
Q 2822 169 2531 39 
Q 2241 -91 1919 -91 
Q 1547 -91 1294 64 
Q 1041 219 916 525 
L 556 -1331 
L -19 -1331 
L 922 3500 
L 1497 3500 
L 1394 2969 
z
" transform="scale(0.015625)"/>
      </defs>
      <use xlink:href="#DejaVuSans-73" transform="translate(0 0.015625)"/>
      <use xlink:href="#DejaVuSans-74" transform="translate(52.099609 0.015625)"/>
      <use xlink:href="#DejaVuSans-65" transform="translate(91.308594 0.015625)"/>
      <use xlink:href="#DejaVuSans-70" transform="translate(152.832031 0.015625)"/>
      <use xlink:href="#DejaVuSans-20" transform="translate(216.308594 0.015625)"/>
      <use xlink:href="#DejaVuSans-63" transform="translate(248.095703 0.015625)"/>
      <use xlink:href="#DejaVuSans-6f" transform="translate(303.076172 0.015625)"/>
      <use xlink:href="#DejaVuSans-6f" transform="translate(364.257812 0.015625)"/>
      <use xlink:href="#DejaVuSans-72" transform="translate(425.439453 0.015625)"/>
      <use xlink:href="#DejaVuSans-64" transform="translate(466.552734 0.015625)"/>
      <use xlink:href="#DejaVuSans-69" transform="translate(530.029297 0.015625)"/>
      <use xlink:href="#DejaVuSans-6e" transform="translate(557.8125 0.015625)"/>
      <use xlink:href="#DejaVuSans-61" transform="translate(621.191406 0.015625)"/>
      <use xlink:href="#DejaVuSans-74" transform="translate(682.470703 0.015625)"/>
      <use xlink:href="#DejaVuSans-65" transform="translate(721.679688 0.015625)"/>
      <use xlink:href="#DejaVuSans-20" transform="translate(783.203125 0.015625)"/>
      <use xlink:href="#DejaVuSans-Oblique-70" transform="translate(814.990234 0.015625)"/>
      <use xlink:href="#DejaVuSans-30" transform="translate(878.466797 -16.390625) scale(0.7)"/>
     </g>
    </g>
   </g>
   <g id="matplotlib.axis_2">
    <g id="ytick_1">
     <g id="line2d_15">
      <path d="M 50.724531 385.774234 
L 485.964531 385.774234 
" clip-path="url(#p1c223eb1a0)" style="fill: none; stroke-dasharray: 0.6,0.99; stroke-dashoffset: 0; stroke: #cbd5e1; stroke-width: 0.6"/>
     </g>
     <g id="line2d_16">
      <defs>
       <path id="m3bdf6ec2b2" d="M 0 0 
L -3.5 0 
" style="stroke: #000000; stroke-width: 0.8"/>
      </defs>
      <g>
       <use xlink:href="#m3bdf6ec2b2" x="50.724531" y="385.774234" style="stroke: #000000; stroke-width: 0.8"/>
      </g>
     </g>
     <g id="text_9">
      <!-- −0.4 -->
      <g transform="translate(21.87 389.19353) scale(0.09 -0.09)">
       <defs>
        <path id="DejaVuSans-34" d="M 2419 4116 
L 825 1625 
L 2419 1625 
L 2419 4116 
z
M 2253 4666 
L 3047 4666 
L 3047 1625 
L 3713 1625 
L 3713 1100 
L 3047 1100 
L 3047 0 
L 2419 0 
L 2419 1100 
L 313 1100 
L 313 1709 
L 2253 4666 
z
" transform="scale(0.015625)"/>
       </defs>
       <use xlink:href="#DejaVuSans-2212"/>
       <use xlink:href="#DejaVuSans-30" transform="translate(83.789062 0)"/>
       <use xlink:href="#DejaVuSans-2e" transform="translate(147.412109 0)"/>
       <use xlink:href="#DejaVuSans-34" transform="translate(179.199219 0)"/>
      </g>
     </g>
    </g>
    <g id="ytick_2">
     <g id="line2d_17">
      <path d="M 50.724531 339.959497 
L 485.964531 339.959497 
" clip-path="url(#p1c223eb1a0)" style="fill: none; stroke-dasharray: 0.6,0.99; stroke-dashoffset: 0; stroke: #cbd5e1; stroke-width: 0.6"/>
     </g>
     <g id="line2d_18">
      <g>
       <use xlink:href="#m3bdf6ec2b2" x="50.724531" y="339.959497" style="stroke: #000000; stroke-width: 0.8"/>
      </g>
     </g>
     <g id="text_10">
      <!-- −0.2 -->
      <g transform="translate(21.87 343.378794) scale(0.09 -0.09)">
       <use xlink:href="#DejaVuSans-2212"/>
       <use xlink:href="#DejaVuSans-30" transform="translate(83.789062 0)"/>
       <use xlink:href="#DejaVuSans-2e" transform="translate(147.412109 0)"/>
       <use xlink:href="#DejaVuSans-32" transform="translate(179.199219 0)"/>
      </g>
     </g>
    </g>
    <g id="ytick_3">
     <g id="line2d_19">
      <path d="M 50.724531 294.14476 
L 485.964531 294.14476 
" clip-path="url(#p1c223eb1a0)" style="fill: none; stroke-dasharray: 0.6,0.99; stroke-dashoffset: 0; stroke: #cbd5e1; stroke-width: 0.6"/>
     </g>
     <g id="line2d_20">
      <g>
       <use xlink:href="#m3bdf6ec2b2" x="50.724531" y="294.14476" style="stroke: #000000; stroke-width: 0.8"/>
      </g>
     </g>
     <g id="text_11">
      <!-- 0.0 -->
      <g transform="translate(29.411719 297.564057) scale(0.09 -0.09)">
       <use xlink:href="#DejaVuSans-30"/>
       <use xlink:href="#DejaVuSans-2e" transform="translate(63.623047 0)"/>
       <use xlink:href="#DejaVuSans-30" transform="translate(95.410156 0)"/>
      </g>
     </g>
    </g>
    <g id="ytick_4">
     <g id="line2d_21">
      <path d="M 50.724531 248.330023 
L 485.964531 248.330023 
" clip-path="url(#p1c223eb1a0)" style="fill: none; stroke-dasharray: 0.6,0.99; stroke-dashoffset: 0; stroke: #cbd5e1; stroke-width: 0.6"/>
     </g>
     <g id="line2d_22">
      <g>
       <use xlink:href="#m3bdf6ec2b2" x="50.724531" y="248.330023" style="stroke: #000000; stroke-width: 0.8"/>
      </g>
     </g>
     <g id="text_12">
      <!-- 0.2 -->
      <g transform="translate(29.411719 251.74932) scale(0.09 -0.09)">
       <use xlink:href="#DejaVuSans-30"/>
       <use xlink:href="#DejaVuSans-2e" transform="translate(63.623047 0)"/>
       <use xlink:href="#DejaVuSans-32" transform="translate(95.410156 0)"/>
      </g>
     </g>
    </g>
    <g id="ytick_5">
     <g id="line2d_23">
      <path d="M 50.724531 202.515286 
L 485.964531 202.515286 
" clip-path="url(#p1c223eb1a0)" style="fill: none; stroke-dasharray: 0.6,0.99; stroke-dashoffset: 0; stroke: #cbd5e1; stroke-width: 0.6"/>
     </g>
     <g id="line2d_24">
      <g>
       <use xlink:href="#m3bdf6ec2b2" x="50.724531" y="202.515286" style="stroke: #000000; stroke-width: 0.8"/>
      </g>
     </g>
     <g id="text_13">
      <!-- 0.4 -->
      <g transform="translate(29.411719 205.934583) scale(0.09 -0.09)">
       <use xlink:href="#DejaVuSans-30"/>
       <use xlink:href="#DejaVuSans-2e" transform="translate(63.623047 0)"/>
       <use xlink:href="#DejaVuSans-34" transform="translate(95.410156 0)"/>
      </g>
     </g>
    </g>
    <g id="ytick_6">
     <g id="line2d_25">
      <path d="M 50.724531 156.700549 
L 485.964531 156.700549 
" clip-path="url(#p1c223eb1a0)" style="fill: none; stroke-dasharray: 0.6,0.99; stroke-dashoffset: 0; stroke: #cbd5e1; stroke-width: 0.6"/>
     </g>
     <g id="line2d_26">
      <g>
       <use xlink:href="#m3bdf6ec2b2" x="50.724531" y="156.700549" style="stroke: #000000; stroke-width: 0.8"/>
      </g>
     </g>
     <g id="text_14">
      <!-- 0.6 -->
      <g transform="translate(29.411719 160.119846) scale(0.09 -0.09)">
       <defs>
        <path id="DejaVuSans-36" d="M 2113 2584 
Q 1688 2584 1439 2293 
Q 1191 2003 1191 1497 
Q 1191 994 1439 701 
Q 1688 409 2113 409 
Q 2538 409 2786 701 
Q 3034 994 3034 1497 
Q 3034 2003 2786 2293 
Q 2538 2584 2113 2584 
z
M 3366 4563 
L 3366 3988 
Q 3128 4100 2886 4159 
Q 2644 4219 2406 4219 
Q 1781 4219 1451 3797 
Q 1122 3375 1075 2522 
Q 1259 2794 1537 2939 
Q 1816 3084 2150 3084 
Q 2853 3084 3261 2657 
Q 3669 2231 3669 1497 
Q 3669 778 3244 343 
Q 2819 -91 2113 -91 
Q 1303 -91 875 529 
Q 447 1150 447 2328 
Q 447 3434 972 4092 
Q 1497 4750 2381 4750 
Q 2619 4750 2861 4703 
Q 3103 4656 3366 4563 
z
" transform="scale(0.015625)"/>
       </defs>
       <use xlink:href="#DejaVuSans-30"/>
       <use xlink:href="#DejaVuSans-2e" transform="translate(63.623047 0)"/>
       <use xlink:href="#DejaVuSans-36" transform="translate(95.410156 0)"/>
      </g>
     </g>
    </g>
    <g id="ytick_7">
     <g id="line2d_27">
      <path d="M 50.724531 110.885812 
L 485.964531 110.885812 
" clip-path="url(#p1c223eb1a0)" style="fill: none; stroke-dasharray: 0.6,0.99; stroke-dashoffset: 0; stroke: #cbd5e1; stroke-width: 0.6"/>
     </g>
     <g id="line2d_28">
      <g>
       <use xlink:href="#m3bdf6ec2b2" x="50.724531" y="110.885812" style="stroke: #000000; stroke-width: 0.8"/>
      </g>
     </g>
     <g id="text_15">
      <!-- 0.8 -->
      <g transform="translate(29.411719 114.305109) scale(0.09 -0.09)">
       <defs>
        <path id="DejaVuSans-38" d="M 2034 2216 
Q 1584 2216 1326 1975 
Q 1069 1734 1069 1313 
Q 1069 891 1326 650 
Q 1584 409 2034 409 
Q 2484 409 2743 651 
Q 3003 894 3003 1313 
Q 3003 1734 2745 1975 
Q 2488 2216 2034 2216 
z
M 1403 2484 
Q 997 2584 770 2862 
Q 544 3141 544 3541 
Q 544 4100 942 4425 
Q 1341 4750 2034 4750 
Q 2731 4750 3128 4425 
Q 3525 4100 3525 3541 
Q 3525 3141 3298 2862 
Q 3072 2584 2669 2484 
Q 3125 2378 3379 2068 
Q 3634 1759 3634 1313 
Q 3634 634 3220 271 
Q 2806 -91 2034 -91 
Q 1263 -91 848 271 
Q 434 634 434 1313 
Q 434 1759 690 2068 
Q 947 2378 1403 2484 
z
M 1172 3481 
Q 1172 3119 1398 2916 
Q 1625 2713 2034 2713 
Q 2441 2713 2670 2916 
Q 2900 3119 2900 3481 
Q 2900 3844 2670 4047 
Q 2441 4250 2034 4250 
Q 1625 4250 1398 4047 
Q 1172 3844 1172 3481 
z
" transform="scale(0.015625)"/>
       </defs>
       <use xlink:href="#DejaVuSans-30"/>
       <use xlink:href="#DejaVuSans-2e" transform="translate(63.623047 0)"/>
       <use xlink:href="#DejaVuSans-38" transform="translate(95.410156 0)"/>
      </g>
     </g>
    </g>
    <g id="ytick_8">
     <g id="line2d_29">
      <path d="M 50.724531 65.071076 
L 485.964531 65.071076 
" clip-path="url(#p1c223eb1a0)" style="fill: none; stroke-dasharray: 0.6,0.99; stroke-dashoffset: 0; stroke: #cbd5e1; stroke-width: 0.6"/>
     </g>
     <g id="line2d_30">
      <g>
       <use xlink:href="#m3bdf6ec2b2" x="50.724531" y="65.071076" style="stroke: #000000; stroke-width: 0.8"/>
      </g>
     </g>
     <g id="text_16">
      <!-- 1.0 -->
      <g transform="translate(29.411719 68.490373) scale(0.09 -0.09)">
       <defs>
        <path id="DejaVuSans-31" d="M 794 531 
L 1825 531 
L 1825 4091 
L 703 3866 
L 703 4441 
L 1819 4666 
L 2450 4666 
L 2450 531 
L 3481 531 
L 3481 0 
L 794 0 
L 794 531 
z
" transform="scale(0.015625)"/>
       </defs>
       <use xlink:href="#DejaVuSans-31"/>
       <use xlink:href="#DejaVuSans-2e" transform="translate(63.623047 0)"/>
       <use xlink:href="#DejaVuSans-30" transform="translate(95.410156 0)"/>
      </g>
     </g>
    </g>
    <g id="text_17">
     <!-- step coordinate $p_1$ -->
     <g transform="translate(15.56 258.02676) rotate(-90) scale(0.11 -0.11)">
      <use xlink:href="#DejaVuSans-73" transform="translate(0 0.015625)"/>
      <use xlink:href="#DejaVuSans-74" transform="translate(52.099609 0.015625)"/>
      <use xlink:href="#DejaVuSans-65" transform="translate(91.308594 0.015625)"/>
      <use xlink:href="#DejaVuSans-70" transform="translate(152.832031 0.015625)"/>
      <use xlink:href="#DejaVuSans-20" transform="translate(216.308594 0.015625)"/>
      <use xlink:href="#DejaVuSans-63" transform="translate(248.095703 0.015625)"/>
      <use xlink:href="#DejaVuSans-6f" transform="translate(303.076172 0.015625)"/>
      <use xlink:href="#DejaVuSans-6f" transform="translate(364.257812 0.015625)"/>
      <use xlink:href="#DejaVuSans-72" transform="translate(425.439453 0.015625)"/>
      <use xlink:href="#DejaVuSans-64" transform="translate(466.552734 0.015625)"/>
      <use xlink:href="#DejaVuSans-69" transform="translate(530.029297 0.015625)"/>
      <use xlink:href="#DejaVuSans-6e" transform="translate(557.8125 0.015625)"/>
      <use xlink:href="#DejaVuSans-61" transform="translate(621.191406 0.015625)"/>
      <use xlink:href="#DejaVuSans-74" transform="translate(682.470703 0.015625)"/>
      <use xlink:href="#DejaVuSans-65" transform="translate(721.679688 0.015625)"/>
      <use xlink:href="#DejaVuSans-20" transform="translate(783.203125 0.015625)"/>
      <use xlink:href="#DejaVuSans-Oblique-70" transform="translate(814.990234 0.015625)"/>
      <use xlink:href="#DejaVuSans-31" transform="translate(878.466797 -16.390625) scale(0.7)"/>
     </g>
    </g>
   </g>
   <g id="QuadContourSet_1">
    <path d="M 255.898498 107.257979 
L 255.864377 107.233489 
L 255.657189 107.057205 
L 255.415881 106.726233 
L 255.370354 106.639362 
L 255.174572 106.169489 
L 255.135395 106.045236 
L 254.990475 105.45111 
L 254.933264 105.126711 
L 254.894291 104.856983 
L 254.833513 104.262857 
L 254.795924 103.668731 
L 254.777203 103.074604 
L 254.774038 102.480478 
L 254.783851 101.886351 
L 254.804602 101.292225 
L 254.834659 100.698099 
L 254.872699 100.103972 
L 254.917637 99.509846 
L 254.933264 99.333135 
L 254.970799 98.915719 
L 255.030277 98.321593 
L 255.094371 97.727467 
L 255.162522 97.13334 
L 255.174572 97.036791 
L 255.237606 96.539214 
L 255.316429 95.945087 
L 255.397939 95.350961 
L 255.415881 95.227593 
L 255.485311 94.756835 
L 255.575583 94.162708 
L 255.657189 93.637817 
L 255.668102 93.568582 
L 255.766231 92.974455 
L 255.865487 92.380329 
L 255.898498 92.189205 
L 255.969008 91.786203 
L 256.074805 91.192076 
L 256.139806 90.833727 
L 256.183117 90.59795 
L 256.294799 90.003824 
L 256.381115 89.548798 
L 256.407829 89.409697 
L 256.524805 88.815571 
L 256.622424 88.321683 
L 256.642477 88.221444 
L 256.764212 87.627318 
L 256.863732 87.142538 
L 256.886447 87.033192 
L 257.012459 86.439065 
L 257.105041 86.003633 
L 257.139176 85.844939 
L 257.269028 85.250812 
L 257.346349 84.898817 
L 257.400146 84.656686 
L 257.533441 84.06256 
L 257.587658 83.823128 
L 257.668877 83.468433 
L 257.805255 82.874307 
L 257.828967 82.772525 
L 257.944927 82.28018 
L 258.070275 81.746512 
L 258.084634 81.686054 
L 258.227887 81.091928 
L 258.311584 80.744915 
L 258.371837 80.497801 
L 258.517377 79.903675 
L 258.552892 79.760047 
L 258.665483 79.309549 
L 258.794201 78.793222 
L 258.813806 78.715422 
L 258.965222 78.121296 
L 259.035509 77.845855 
L 259.117698 77.527169 
L 259.270727 76.933043 
L 259.276818 76.909692 
L 259.427266 76.338917 
L 259.518127 75.993402 
L 259.584195 75.74479 
L 259.74221 75.150664 
L 259.759435 75.086502 
L 259.903189 74.556537 
L 260.000744 74.196083 
L 260.064648 73.962411 
L 260.227188 73.368285 
L 260.242052 73.314422 
L 260.39268 72.774158 
L 260.483361 72.448205 
L 260.558743 72.180032 
L 260.72467 71.588455 
L 260.725392 71.585905 
L 260.895438 70.991779 
L 260.965978 70.74483 
L 261.066171 70.397653 
L 261.207287 69.907647 
L 261.237585 69.803526 
L 261.411169 69.2094 
L 261.448595 69.081658 
L 261.586637 68.615273 
L 261.689904 68.265667 
L 261.762878 68.021147 
L 261.931212 67.455942 
L 261.939916 67.427021 
L 262.119851 66.832894 
L 262.172521 66.658873 
L 262.300978 66.238768 
L 262.41383 65.868969 
L 262.482998 65.644642 
L 262.655138 65.085251 
L 262.665939 65.050515 
L 262.851602 64.456389 
L 262.896447 64.31284 
L 263.038658 63.862262 
L 263.137755 63.547683 
L 263.226733 63.268136 
L 263.379064 62.78863 
L 263.41586 62.67401 
L 263.606615 62.079883 
L 263.620372 62.037185 
L 263.799875 61.485757 
L 263.861681 61.295535 
L 263.994286 60.89163 
L 264.10299 60.559906 
L 264.189884 60.297504 
L 264.344298 59.830334 
L 264.386708 59.703378 
L 264.584829 59.109251 
L 264.585607 59.10693 
L 264.78586 58.515125 
L 264.826915 58.393575 
L 264.988223 57.920998 
L 265.068224 57.686194 
L 265.191959 57.326872 
L 265.309533 56.984819 
L 265.397114 56.732746 
L 265.550841 56.289483 
L 265.603733 56.138619 
L 265.79215 55.600219 
L 265.811867 55.544493 
L 266.022039 54.950366 
L 266.033458 54.918118 
L 266.23457 54.35624 
L 266.274767 54.243736 
L 266.448732 53.762114 
L 266.516075 53.575341 
L 266.664579 53.167987 
L 266.757384 52.912964 
L 266.882168 52.573861 
L 266.998693 52.256637 
L 267.101558 51.979735 
L 267.240001 51.606393 
L 267.322811 51.385608 
L 267.48131 50.962265 
L 267.545992 50.791482 
L 267.722618 50.324286 
L 267.771168 50.197355 
L 267.963927 49.692489 
L 267.998411 49.603229 
L 268.205236 49.066907 
L 268.227795 49.009103 
L 268.446544 48.447575 
L 268.459398 48.414976 
L 268.687853 47.834526 
L 268.693302 47.82085 
L 268.929161 47.227795 
L 268.929593 47.226723 
L 269.168456 46.632597 
L 269.17047 46.627579 
L 269.409796 46.038471 
L 269.411778 46.033582 
L 269.653087 45.445853 
L 269.653715 45.444344 
L 269.894396 44.864739 
L 269.900505 44.850218 
L 270.135704 44.290118 
L 270.150183 44.256091 
L 270.377013 43.722026 
L 270.402865 43.661965 
L 270.618321 43.160497 
L 270.658676 43.067839 
L 270.85963 42.60557 
L 270.917743 42.473712 
L 271.100938 42.05728 
L 271.180205 41.879586 
L 271.342247 41.515663 
L 271.446207 41.285459 
L 271.583556 40.980758 
L 271.715902 40.691333 
L 271.824864 40.452602 
L 271.989451 40.097207 
L 272.066173 39.931232 
L 272.267028 39.50308 
L 272.307481 39.416686 
L 272.54879 38.909004 
L 272.548814 38.908954 
L 272.790099 38.411448 
L 272.837719 38.314828 
L 273.031407 37.921084 
L 273.131606 37.720701 
L 273.272716 37.437954 
L 273.430725 37.126575 
L 273.514024 36.962102 
L 273.735344 36.532448 
L 273.755333 36.493568 
L 273.996641 36.035799 
L 274.04915 35.938322 
L 274.23795 35.587126 
L 274.371019 35.344196 
L 274.479259 35.146193 
L 274.699981 34.750069 
L 274.720567 34.713048 
L 274.961876 34.292724 
L 275.042353 34.155943 
L 275.203184 33.882008 
L 275.395252 33.561816 
L 275.444493 33.479553 
L 275.685802 33.090072 
L 275.76415 32.96769 
L 275.92711 32.712576 
L 276.149027 32.373564 
L 276.168419 32.343873 
L 276.409727 31.992513 
L 276.560729 31.779437 
L 276.651036 31.65171 
L 276.892344 31.326174 
L 277.002117 31.185311 
L 277.133653 31.016108 
L 277.374962 30.721752 
L 277.489257 30.591184 
L 277.61627 30.445716 
L 277.857579 30.189198 
L 278.052364 29.997058 
L 278.098887 29.951042 
L 278.340196 29.740714 
L 278.581504 29.55262 
L 278.805646 29.402932 
L 278.822813 29.391432 
L 279.064122 29.268395 
L 279.30543 29.181752 
L 279.546739 29.139006 
L 279.788047 29.149874 
L 280.029356 29.227171 
L 280.270665 29.388146 
L 280.285139 29.402932 
L 280.511973 29.681597 
L 280.683869 29.997058 
L 280.753282 30.156828 
L 280.895105 30.591184 
L 280.99459 30.999737 
L 281.030786 31.185311 
L 281.11715 31.779437 
L 281.174635 32.373564 
L 281.209057 32.96769 
L 281.224769 33.561816 
L 281.225095 34.155943 
L 281.212614 34.750069 
L 281.189359 35.344196 
L 281.156956 35.938322 
L 281.116717 36.532448 
L 281.069717 37.126575 
L 281.016841 37.720701 
L 280.99459 37.942604 
L 280.956658 38.314828 
L 280.890585 38.908954 
L 280.820583 39.50308 
L 280.753282 40.045475 
L 280.746765 40.097207 
L 280.666076 40.691333 
L 280.582821 41.285459 
L 280.511973 41.774345 
L 280.496505 41.879586 
L 280.404489 42.473712 
L 280.310872 43.067839 
L 280.270665 43.314049 
L 280.213088 43.661965 
L 280.112212 44.256091 
L 280.029356 44.736586 
L 280.009505 44.850218 
L 279.902106 45.444344 
L 279.79425 46.038471 
L 279.788047 46.071473 
L 279.681284 46.632597 
L 279.567957 47.226723 
L 279.546739 47.335038 
L 279.450418 47.82085 
L 279.332162 48.414976 
L 279.30543 48.54632 
L 279.210124 49.009103 
L 279.08743 49.603229 
L 279.064122 49.71377 
L 278.96097 50.197355 
L 278.834281 50.791482 
L 278.822813 50.844111 
L 278.703477 51.385608 
L 278.581504 51.940749 
L 278.57284 51.979735 
L 278.438127 52.573861 
L 278.340196 53.00617 
L 278.303125 53.167987 
L 278.165366 53.762114 
L 278.098887 54.047321 
L 278.026084 54.35624 
L 277.885607 54.950366 
L 277.857579 55.06744 
L 277.742129 55.544493 
L 277.61627 56.065934 
L 277.598534 56.138619 
L 277.451642 56.732746 
L 277.374962 57.042589 
L 277.303848 57.326872 
L 277.154977 57.920998 
L 277.133653 58.005157 
L 277.003073 58.515125 
L 276.892344 58.948613 
L 276.850873 59.109251 
L 276.696535 59.703378 
L 276.651036 59.87761 
L 276.540232 60.297504 
L 276.409727 60.793218 
L 276.383543 60.89163 
L 276.224224 61.485757 
L 276.168419 61.693374 
L 276.063446 62.079883 
L 275.92711 62.583001 
L 275.902189 62.67401 
L 275.738354 63.268136 
L 275.685802 63.458319 
L 275.573026 63.862262 
L 275.444493 64.323651 
L 275.407128 64.456389 
L 275.239225 65.050515 
L 275.203184 65.177528 
L 275.069279 65.644642 
L 274.961876 66.020093 
L 274.898672 66.238768 
L 274.727127 66.832894 
L 274.720567 66.855431 
L 274.5525 67.427021 
L 274.479259 67.676617 
L 274.37712 68.021147 
L 274.23795 68.491546 
L 274.200964 68.615273 
L 274.022976 69.2094 
L 273.996641 69.296975 
L 273.842763 69.803526 
L 273.755333 70.091907 
L 273.66168 70.397653 
L 273.514024 70.880661 
L 273.479701 70.991779 
L 273.295885 71.585905 
L 273.272716 71.660551 
L 273.109821 72.180032 
L 273.031407 72.430578 
L 272.922763 72.774158 
L 272.790099 73.194509 
L 272.73468 73.368285 
L 272.54879 73.952308 
L 272.54554 73.962411 
L 272.353477 74.556537 
L 272.307481 74.699018 
L 272.160167 75.150664 
L 272.066173 75.439375 
L 271.965697 75.74479 
L 271.824864 76.173683 
L 271.770032 76.338917 
L 271.583556 76.901907 
L 271.573132 76.933043 
L 271.373688 77.527169 
L 271.342247 77.620861 
L 271.172544 78.121296 
L 271.100938 78.332837 
L 270.970058 78.715422 
L 270.85963 79.038812 
L 270.766187 79.309549 
L 270.618321 79.738754 
L 270.560887 79.903675 
L 270.377013 80.43263 
L 270.354109 80.497801 
L 270.145404 81.091928 
L 270.135704 81.119501 
L 269.934255 81.686054 
L 269.894396 81.798354 
L 269.721513 82.28018 
L 269.653087 82.471227 
L 269.507126 82.874307 
L 269.411778 83.138087 
L 269.291038 83.468433 
L 269.17047 83.798901 
L 269.073192 84.06256 
L 268.929161 84.453638 
L 268.853528 84.656686 
L 268.687853 85.102264 
L 268.631983 85.250812 
L 268.446544 85.744747 
L 268.40849 85.844939 
L 268.205236 86.381053 
L 268.182982 86.439065 
L 267.963927 87.011148 
L 267.955386 87.033192 
L 267.725496 87.627318 
L 267.722618 87.634759 
L 267.493085 88.221444 
L 267.48131 88.251595 
L 267.25844 88.815571 
L 267.240001 88.862314 
L 267.021482 89.409697 
L 266.998693 89.466885 
L 266.782125 90.003824 
L 266.757384 90.065274 
L 266.540282 90.59795 
L 266.516075 90.657448 
L 266.29586 91.192076 
L 266.274767 91.243375 
L 266.048761 91.786203 
L 266.033458 91.823022 
L 265.798883 92.380329 
L 265.79215 92.396354 
L 265.550841 92.962972 
L 265.545879 92.974455 
L 265.309533 93.522467 
L 265.289371 93.568582 
L 265.068224 94.075331 
L 265.02956 94.162708 
L 264.826915 94.621524 
L 264.766308 94.756835 
L 264.585607 95.161011 
L 264.499465 95.350961 
L 264.344298 95.693754 
L 264.228876 95.945087 
L 264.10299 96.219715 
L 263.954373 96.539214 
L 263.861681 96.738857 
L 263.675782 97.13334 
L 263.620372 97.25114 
L 263.392915 97.727467 
L 263.379064 97.756527 
L 263.137755 98.252668 
L 263.103609 98.321593 
L 262.896447 98.740572 
L 262.808402 98.915719 
L 262.655138 99.221204 
L 262.50787 99.509846 
L 262.41383 99.694521 
L 262.201735 100.103972 
L 262.172521 100.160481 
L 261.931212 100.616168 
L 261.886801 100.698099 
L 261.689904 101.062073 
L 261.563018 101.292225 
L 261.448595 101.500195 
L 261.231992 101.886351 
L 261.207287 101.930485 
L 260.965978 102.34805 
L 260.887471 102.480478 
L 260.72467 102.755684 
L 260.531865 103.074604 
L 260.483361 103.155007 
L 260.242052 103.541087 
L 260.159596 103.668731 
L 260.000744 103.915187 
L 259.771027 104.262857 
L 259.759435 104.28044 
L 259.518127 104.627605 
L 259.35378 104.856983 
L 259.276818 104.96465 
L 259.035509 105.285294 
L 258.904581 105.45111 
L 258.794201 105.591246 
L 258.552892 105.879863 
L 258.405767 106.045236 
L 258.311584 106.151374 
L 258.070275 106.401114 
L 257.828967 106.634004 
L 257.822564 106.639362 
L 257.587658 106.836528 
L 257.346349 107.0155 
L 257.105041 107.166948 
L 256.965949 107.233489 
L 256.863732 107.282547 
L 256.622424 107.356459 
L 256.381115 107.38439 
L 256.139806 107.356082 
L 255.898498 107.257979 
z
" clip-path="url(#p1c223eb1a0)" style="fill: none; stroke: #440154; stroke-width: 0.8"/>
    <path d="M 293.542637 32.744886 
L 290.85733 43.661965 
L 287.692646 55.544493 
L 284.292684 67.427021 
L 280.753282 79.023924 
L 276.892344 90.916482 
L 272.899068 102.480478 
L 269.17047 112.652971 
L 265.264112 122.680775 
L 261.559177 131.592671 
L 258.070275 139.428526 
L 254.933264 145.973548 
L 251.902946 151.792968 
L 249.383166 156.201911 
L 246.97008 159.990838 
L 244.798303 162.961531 
L 243.109143 164.916362 
L 241.661292 166.279254 
L 240.454749 167.139377 
L 239.489514 167.596522 
L 238.52428 167.792323 
L 237.800354 167.712546 
L 237.076429 167.37396 
L 236.593811 166.953849 
L 235.953366 166.052002 
L 235.429525 164.863749 
L 235.079642 163.675496 
L 234.651382 161.29899 
L 234.405971 158.328359 
L 234.357865 154.7636 
L 234.517056 150.604715 
L 234.951191 145.257578 
L 235.728425 138.722188 
L 236.83512 131.385964 
L 238.282971 123.253083 
L 240.21344 113.729697 
L 242.626526 103.050622 
L 245.522229 91.376476 
L 248.65924 79.700528 
L 252.200542 67.427021 
L 255.673395 56.138619 
L 259.55853 44.256091 
L 263.481976 32.96769 
L 265.646485 27.026426 
L 265.646485 27.026426 
" clip-path="url(#p1c223eb1a0)" style="fill: none; stroke: #470d60; stroke-width: 0.8"/>
    <path d="M 293.542637 55.322736 
L 289.515711 69.2094 
L 285.328349 82.874307 
L 280.753282 97.02171 
L 276.168419 110.464824 
L 271.565308 123.274901 
L 266.998693 135.328897 
L 262.552009 146.445831 
L 258.27677 156.545979 
L 254.209338 165.592536 
L 250.348401 173.633896 
L 246.728772 180.639493 
L 243.585292 186.252299 
L 240.66999 191.00531 
L 238.041663 194.854036 
L 235.869886 197.663692 
L 233.845135 199.917206 
L 232.250257 201.392667 
L 230.802405 202.451203 
L 229.595863 203.082823 
L 228.630628 203.387746 
L 227.665394 203.472367 
L 226.941468 203.355847 
L 226.217542 203.04824 
L 225.493617 202.495802 
L 224.769691 201.614445 
L 224.045765 200.247335 
L 223.506626 198.728953 
L 222.956101 196.352448 
L 222.555955 193.381816 
L 222.331818 189.817057 
L 222.299368 185.658172 
L 222.502892 180.311035 
L 222.958076 174.369771 
L 223.736488 167.240254 
L 224.796873 159.516611 
L 226.343841 150.010589 
L 228.221663 139.91044 
L 230.561097 128.599337 
L 233.38385 116.145385 
L 236.439161 103.668731 
L 239.861872 90.59795 
L 243.59176 77.197467 
L 247.697736 63.268136 
L 252.142216 49.009103 
L 256.435903 35.938322 
L 259.490265 27.026426 
L 259.490265 27.026426 
" clip-path="url(#p1c223eb1a0)" style="fill: none; stroke: #48186a; stroke-width: 0.8"/>
    <path d="M 293.542637 70.87351 
L 288.944303 85.844939 
L 283.962865 101.292225 
L 279.064122 115.776117 
L 273.996641 130.071078 
L 268.929161 143.696499 
L 263.861681 156.664107 
L 259.022557 168.428507 
L 254.382261 179.122782 
L 250.018058 188.628804 
L 245.96239 196.946574 
L 242.143909 204.278603 
L 238.593066 210.611481 
L 235.628577 215.493623 
L 232.732874 219.852747 
L 230.319788 223.128354 
L 227.906703 226.020244 
L 225.976234 228.005937 
L 224.287074 229.458014 
L 222.839222 230.448665 
L 221.391371 231.155976 
L 220.184828 231.481506 
L 219.219594 231.528378 
L 218.254359 231.342016 
L 217.530434 231.011975 
L 216.806508 230.479384 
L 216.033569 229.623525 
L 215.298321 228.435273 
L 214.634731 226.907569 
L 214.019089 224.870514 
L 213.531348 222.494009 
L 213.14205 219.523377 
L 212.890493 215.958618 
L 212.80324 211.205607 
L 212.94557 205.775472 
L 213.356145 199.323079 
L 214.03563 192.193563 
L 215.057418 183.875793 
L 216.368281 174.963897 
L 218.178983 164.269622 
L 220.322443 152.981221 
L 222.839222 140.902502 
L 225.882249 127.433786 
L 229.196268 113.768879 
L 232.876718 99.509846 
L 236.936671 84.656686 
L 241.218166 69.803526 
L 245.902768 54.35624 
L 250.632037 39.50308 
L 254.781218 27.026426 
L 254.781218 27.026426 
" clip-path="url(#p1c223eb1a0)" style="fill: none; stroke: #482374; stroke-width: 0.8"/>
    <path d="M 293.542637 83.515047 
L 288.233848 100.226787 
L 282.925059 116.197957 
L 277.366067 132.186797 
L 271.963862 147.039957 
L 266.757384 160.735592 
L 261.448595 174.075639 
L 256.364518 186.252299 
L 251.406618 197.5407 
L 246.97008 207.126135 
L 242.626526 216.00281 
L 238.52428 223.883173 
L 234.904651 230.387897 
L 231.447764 236.158916 
L 228.352399 240.911927 
L 225.493617 244.900547 
L 222.976939 248.041444 
L 220.813353 250.417949 
L 218.93042 252.200328 
L 217.289125 253.498639 
L 215.599965 254.539928 
L 214.152113 255.146137 
L 212.94557 255.405587 
L 211.980336 255.420387 
L 211.015102 255.228325 
L 210.049868 254.780429 
L 209.325942 254.237473 
L 208.537111 253.388581 
L 207.755148 252.200328 
L 207.154165 250.970254 
L 206.430239 248.942248 
L 205.897602 246.853191 
L 205.375936 243.882559 
L 204.982387 240.200777 
L 204.770265 236.158916 
L 204.72869 231.405905 
L 204.907413 225.464641 
L 205.323994 218.92925 
L 206.042395 211.205607 
L 207.10799 202.293711 
L 208.467275 192.787689 
L 210.219606 182.093414 
L 212.397543 170.210886 
L 214.906693 157.734232 
L 217.882082 144.069325 
L 221.211363 129.810292 
L 225.011 114.526415 
L 229.120579 98.915719 
L 233.741119 82.28018 
L 238.52428 65.905809 
L 243.59176 49.362628 
L 248.900549 32.81498 
L 250.81582 27.026426 
L 250.81582 27.026426 
" clip-path="url(#p1c223eb1a0)" style="fill: none; stroke: #472e7c; stroke-width: 0.8"/>
    <path d="M 293.542637 94.446072 
L 287.992539 111.553404 
L 282.201133 128.657521 
L 276.409727 145.044657 
L 270.618321 160.74478 
L 264.910406 175.558024 
L 259.518127 188.950768 
L 254.14637 201.699585 
L 249.141858 213.025235 
L 244.187906 223.682262 
L 239.730823 232.767625 
L 235.387269 241.122337 
L 231.526331 248.094247 
L 227.906703 254.196629 
L 224.528382 259.466576 
L 221.391371 263.939793 
L 218.736976 267.361045 
L 216.323891 270.13666 
L 214.061276 272.400626 
L 212.221645 273.959925 
L 210.532485 275.129452 
L 208.929334 275.965384 
L 207.636782 276.409997 
L 206.430239 276.604334 
L 205.223696 276.542673 
L 204.258462 276.26932 
L 203.293227 275.753299 
L 202.327993 274.932246 
L 201.604067 274.061327 
L 200.880141 272.905667 
L 200.093992 271.212373 
L 199.43229 269.276567 
L 198.746507 266.459362 
L 198.225747 263.274658 
L 197.828538 259.329845 
L 197.601043 254.576834 
L 197.57865 249.229696 
L 197.796475 242.694306 
L 198.265367 235.564789 
L 199.046663 227.24702 
L 200.156216 217.935438 
L 201.525113 208.234975 
L 203.34271 196.946574 
L 205.587539 184.46992 
L 208.165493 171.399139 
L 211.25641 156.920196 
L 214.743657 141.69282 
L 218.505169 126.245533 
L 222.839222 109.422048 
L 227.466853 92.380329 
L 232.379138 75.150664 
L 237.340509 58.515125 
L 242.706234 41.285459 
L 247.324886 27.026426 
L 247.324886 27.026426 
" clip-path="url(#p1c223eb1a0)" style="fill: none; stroke: #453882; stroke-width: 0.8"/>
    <path d="M 293.542637 104.217077 
L 287.652474 122.086649 
L 281.947575 138.722188 
L 275.92711 155.595991 
L 269.894396 171.825955 
L 264.075677 186.846425 
L 258.311584 201.110642 
L 252.761486 214.254547 
L 247.452698 226.265215 
L 242.310833 237.347169 
L 237.559046 247.074029 
L 232.974183 255.951889 
L 228.84038 263.48873 
L 225.011 270.032476 
L 221.391371 275.783477 
L 218.013051 280.7214 
L 215.117348 284.575194 
L 212.381214 287.847912 
L 210.049868 290.31008 
L 207.87809 292.287812 
L 205.886032 293.789176 
L 204.258462 294.754875 
L 202.81061 295.381919 
L 201.362759 295.751144 
L 200.156216 295.824887 
L 198.949673 295.643324 
L 197.984438 295.274957 
L 197.019204 294.665721 
L 196.05397 293.757278 
L 195.088735 292.458464 
L 194.211157 290.818544 
L 193.500064 289.036165 
L 192.793808 286.659659 
L 192.162679 283.689027 
L 191.652046 280.124269 
L 191.289966 275.965384 
L 191.096319 271.212373 
L 191.09504 265.271109 
L 191.324643 258.735719 
L 191.833107 251.012076 
L 192.604639 242.694306 
L 193.712532 233.188284 
L 195.192595 222.494009 
L 197.019204 210.949587 
L 199.190981 198.619577 
L 201.845376 184.85971 
L 204.904241 170.210886 
L 208.360707 154.761825 
L 212.321614 138.128061 
L 216.510625 121.492522 
L 221.074502 104.262857 
L 225.976234 86.61367 
L 231.204915 68.615273 
L 236.6092 50.791482 
L 242.432828 32.373564 
L 244.16998 27.026426 
L 244.16998 27.026426 
" clip-path="url(#p1c223eb1a0)" style="fill: none; stroke: #424186; stroke-width: 0.8"/>
    <path d="M 293.542637 113.133193 
L 287.509922 131.222143 
L 281.235899 149.31889 
L 274.961876 166.718277 
L 268.687853 183.439666 
L 262.655138 198.885581 
L 256.622424 213.707673 
L 250.831018 227.336965 
L 245.28092 239.825996 
L 239.972132 251.220244 
L 235.129848 261.112224 
L 230.319788 270.426686 
L 225.976234 278.360341 
L 221.826246 285.471406 
L 218.013051 291.555332 
L 214.634731 296.539251 
L 211.497719 300.779735 
L 208.602016 304.315064 
L 206.18893 306.942355 
L 203.773166 309.236462 
L 201.604067 310.962228 
L 199.673599 312.185991 
L 197.984438 312.97121 
L 196.535591 313.395347 
L 195.330044 313.539876 
L 194.123501 313.462874 
L 193.158267 313.211917 
L 192.193033 312.762502 
L 191.227798 312.072673 
L 190.206223 311.018841 
L 189.29733 309.722402 
L 188.424437 308.048209 
L 187.608169 305.95062 
L 186.848861 303.295198 
L 186.160318 299.877302 
L 185.658915 296.165681 
L 185.275986 291.41267 
L 185.093682 286.065533 
L 185.118132 280.124269 
L 185.385463 272.994752 
L 185.919009 265.052392 
L 186.726808 256.359213 
L 187.900333 246.259064 
L 189.455474 234.970663 
L 191.322234 223.088135 
L 193.60519 210.017355 
L 196.295278 195.940023 
L 199.272771 181.499288 
L 202.67521 166.052002 
L 206.430239 149.983835 
L 210.825788 132.186797 
L 215.460207 114.363006 
L 220.426136 96.14113 
L 225.734925 77.506726 
L 231.381411 58.515125 
L 237.084308 40.097207 
L 241.269583 27.026426 
L 241.269583 27.026426 
" clip-path="url(#p1c223eb1a0)" style="fill: none; stroke: #3e4a89; stroke-width: 0.8"/>
    <path d="M 293.542637 121.385989 
L 287.268613 140.016226 
L 280.753282 158.647837 
L 274.396424 176.15215 
L 268.123698 192.787689 
L 261.931212 208.594611 
L 255.781448 223.682262 
L 249.979658 237.347169 
L 244.315686 250.135599 
L 238.765589 262.111693 
L 233.4568 273.020589 
L 228.597676 282.500774 
L 224.045765 290.906318 
L 219.702211 298.455837 
L 215.624851 305.077577 
L 212.221645 310.218699 
L 208.843325 314.931355 
L 205.846508 318.742484 
L 203.261325 321.713116 
L 200.880141 324.152127 
L 198.708364 326.09201 
L 196.632092 327.65438 
L 194.847427 328.733665 
L 193.158267 329.492536 
L 191.710415 329.905696 
L 190.503872 330.055783 
L 189.29733 329.998891 
L 188.090787 329.697931 
L 187.125552 329.24932 
L 186.160318 328.577912 
L 185.195084 327.636749 
L 184.229849 326.353997 
L 183.264615 324.624618 
L 182.530086 322.901369 
L 181.752179 320.524863 
L 181.033143 317.554231 
L 180.421498 313.989473 
L 179.948746 309.830588 
L 179.635959 305.077577 
L 179.499437 299.73044 
L 179.564897 293.195049 
L 179.886295 285.609961 
L 180.43676 277.747763 
L 181.33611 268.241741 
L 182.595453 257.547466 
L 184.156947 246.259064 
L 186.016025 234.376537 
L 188.332095 221.008656 
L 190.98649 206.966712 
L 194.123501 191.580228 
L 197.749871 174.963897 
L 201.845376 157.319107 
L 206.18893 139.606462 
L 210.855544 121.492522 
L 215.841273 103.002231 
L 221.391371 83.302534 
L 227.182777 63.600121 
L 233.215491 43.891838 
L 238.570473 27.026426 
L 238.570473 27.026426 
" clip-path="url(#p1c223eb1a0)" style="fill: none; stroke: #3a548c; stroke-width: 0.8"/>
    <path d="M 176.601057 335.378023 
L 175.884596 332.407391 
L 175.263097 328.842633 
L 174.770797 324.683748 
L 174.430875 319.930737 
L 174.260006 314.583599 
L 174.282071 308.048209 
L 174.529914 300.918692 
L 175.049703 292.600923 
L 175.826984 283.689027 
L 176.930801 273.588878 
L 178.395147 262.300477 
L 180.156421 250.417949 
L 182.418006 236.753042 
L 185.009114 222.494009 
L 188.048506 207.046723 
L 191.469107 190.831972 
L 195.330044 173.627878 
L 199.673599 155.335941 
L 204.423882 136.345682 
L 209.41039 117.333638 
L 214.634731 98.259908 
L 220.426136 77.979216 
L 226.458851 57.693701 
L 232.732874 37.404156 
L 236.035915 27.026426 
M 293.542637 129.104812 
L 287.027305 148.295398 
L 280.355637 167.240254 
L 273.996641 184.656576 
L 267.48131 201.865314 
L 260.965978 218.434619 
L 254.691347 233.78241 
L 248.623996 248.041444 
L 242.827136 261.112224 
L 237.317737 273.010603 
L 231.84965 284.283153 
L 226.941468 293.914806 
L 222.224092 302.701072 
L 217.834599 310.424715 
L 213.887512 316.960105 
L 210.04967 322.901369 
L 206.430239 328.085882 
L 203.134624 332.407391 
L 200.65316 335.378023 
L 200.65316 335.378023 
" clip-path="url(#p1c223eb1a0)" style="fill: none; stroke: #365d8d; stroke-width: 0.8"/>
    <path d="M 169.591813 335.378023 
L 169.338941 330.030886 
L 169.273764 323.495495 
L 169.437959 316.365979 
L 169.831695 308.642335 
L 170.508583 299.73044 
L 171.509238 289.630291 
L 172.867279 278.341889 
L 174.577506 266.100158 
L 176.573812 253.388581 
L 179.042191 239.129548 
L 181.837375 224.276388 
L 185.195084 207.698146 
L 188.814712 190.950546 
L 193.021632 172.587392 
L 197.470793 154.169474 
L 202.327993 135.006185 
L 207.64499 114.957132 
L 213.235845 94.756835 
L 219.055009 74.556537 
L 225.099833 54.35624 
L 231.370945 34.155943 
L 233.638915 27.026426 
M 293.542637 136.381632 
L 286.785996 156.145974 
L 279.907415 175.558024 
L 273.272716 193.626354 
L 266.516075 211.376769 
L 260.000744 227.874745 
L 253.485412 243.759148 
L 247.211389 258.462438 
L 241.178674 272.032204 
L 235.387269 284.509984 
L 229.837171 295.932757 
L 224.563944 306.26583 
L 219.943519 314.869465 
L 215.358656 322.954188 
L 211.015102 330.15534 
L 207.662164 335.378023 
L 207.662164 335.378023 
" clip-path="url(#p1c223eb1a0)" style="fill: none; stroke: #32658e; stroke-width: 0.8"/>
    <path d="M 168.303483 288.430475 
L 170.041525 275.965384 
L 172.183919 262.300477 
L 174.753969 247.447317 
L 177.658474 232.000031 
L 180.895602 215.958618 
L 184.597326 198.728953 
L 188.649169 180.905161 
L 193.158267 162.065822 
L 197.984438 142.836811 
L 203.432134 122.086649 
L 208.964128 101.886351 
L 214.715261 81.686054 
L 220.860936 60.89163 
L 227.234897 40.097207 
L 231.359324 27.026426 
M 293.542637 143.284241 
L 286.737668 163.08137 
L 279.976276 182.093414 
L 273.198892 200.511332 
L 266.407859 218.335124 
L 259.759435 235.174871 
L 253.244104 251.086648 
L 246.961086 265.865235 
L 240.696057 280.02973 
L 234.663343 293.105128 
L 228.871937 305.107036 
L 223.475168 315.771852 
L 218.416958 325.277874 
L 213.669496 333.730741 
L 212.711288 335.378023 
L 212.711288 335.378023 
" clip-path="url(#p1c223eb1a0)" style="fill: none; stroke: #2e6d8e; stroke-width: 0.8"/>
    <path d="M 168.303483 268.911519 
L 170.802768 254.576834 
L 173.712501 239.129548 
L 177.06929 222.494009 
L 180.896617 204.670217 
L 185.079699 186.252299 
L 189.621629 167.240254 
L 194.606118 147.328695 
L 199.965072 126.83966 
L 205.706313 105.778616 
L 211.739028 84.500696 
L 218.165997 62.67401 
L 224.528382 41.829549 
L 229.181364 27.026426 
M 293.542637 149.86554 
L 286.51271 170.210886 
L 279.505742 189.817057 
L 272.476542 208.829102 
L 265.550841 226.927817 
L 258.593709 244.476685 
L 252.037561 260.428433 
L 245.408953 275.965384 
L 239.248206 289.855663 
L 233.215491 302.92022 
L 227.424085 314.934787 
L 221.873988 325.932148 
L 216.871556 335.378023 
L 216.871556 335.378023 
" clip-path="url(#p1c223eb1a0)" style="fill: none; stroke: #2b758e; stroke-width: 0.8"/>
    <path d="M 168.303483 254.435079 
L 171.51766 237.941295 
L 175.097077 220.71163 
L 179.162369 202.240817 
L 183.747232 182.495193 
L 188.626293 162.487243 
L 193.930696 141.69282 
L 199.461523 120.898396 
L 205.465004 99.201346 
L 211.739028 77.371263 
L 218.254359 55.509468 
L 225.029371 33.561816 
L 227.092584 27.026426 
M 293.542637 156.166329 
L 286.303379 177.021626 
L 279.064122 197.190913 
L 271.824864 216.69173 
L 264.805246 234.970663 
L 257.828967 252.522137 
L 251.072326 268.930988 
L 244.517025 284.283153 
L 238.041663 298.881088 
L 231.76764 312.463787 
L 225.878026 324.683748 
L 220.493388 335.378023 
L 220.493388 335.378023 
" clip-path="url(#p1c223eb1a0)" style="fill: none; stroke: #287d8e; stroke-width: 0.8"/>
    <path d="M 168.303483 242.387114 
L 172.091102 224.276388 
L 176.266666 205.411494 
L 180.728443 186.252299 
L 185.656765 166.052002 
L 190.98649 145.142183 
L 196.796552 123.274901 
L 202.871959 101.292225 
L 209.176761 79.309549 
L 215.70816 57.326872 
L 222.466162 35.344196 
L 225.082804 27.026426 
M 293.542637 162.219793 
L 286.203345 183.281667 
L 278.931445 203.481964 
L 271.824864 222.595748 
L 264.558179 241.506053 
L 257.471804 259.329845 
L 250.589709 276.050721 
L 243.781821 292.006796 
L 237.201215 306.859956 
L 231.043714 320.229048 
L 224.914466 333.001517 
L 223.743655 335.378023 
L 223.743655 335.378023 
" clip-path="url(#p1c223eb1a0)" style="fill: none; stroke: #25848e; stroke-width: 0.8"/>
    <path d="M 168.303483 231.84503 
L 172.582706 212.39386 
L 177.122567 192.787689 
L 182.058072 172.437834 
L 187.437708 151.198842 
L 193.158267 129.517201 
L 199.269545 107.233489 
L 205.522436 85.250812 
L 212.172719 62.67401 
L 218.978285 40.340803 
L 223.143714 27.026426 
M 293.542637 168.052961 
L 286.062071 189.443901 
L 278.581504 210.156681 
L 271.096696 230.217652 
L 263.76549 249.229696 
L 256.622424 267.147845 
L 249.5536 284.283153 
L 242.697173 300.324566 
L 236.352503 314.644582 
L 230.07848 328.288973 
L 226.717663 335.378023 
L 226.717663 335.378023 
" clip-path="url(#p1c223eb1a0)" style="fill: none; stroke: #228c8d; stroke-width: 0.8"/>
    <path d="M 168.303483 222.355043 
L 172.888562 202.293711 
L 178.017424 180.905161 
L 183.37869 159.516611 
L 189.056021 137.768895 
L 195.088735 115.526977 
L 201.604067 92.376271 
L 208.360707 69.209221 
L 215.358656 46.022492 
L 221.268373 27.026426 
M 293.542637 173.688331 
L 286.009333 195.164195 
L 278.482214 215.958618 
L 271.100938 235.719436 
L 263.598358 255.17096 
L 256.2554 273.588878 
L 249.141858 290.840866 
L 242.143909 307.232079 
L 235.387269 322.495291 
L 229.475502 335.378023 
L 229.475502 335.378023 
" clip-path="url(#p1c223eb1a0)" style="fill: none; stroke: #1f948c; stroke-width: 0.8"/>
    <path d="M 168.303483 213.653516 
L 173.129655 193.173062 
L 178.492834 171.399139 
L 184.137036 149.416463 
L 190.021255 127.361723 
L 196.536587 103.828766 
L 203.231659 80.497801 
L 210.110305 57.326872 
L 217.217618 34.155943 
L 219.450721 27.026426 
M 293.542637 179.144655 
L 285.815564 201.105459 
L 278.049816 222.494009 
L 270.481391 242.694306 
L 263.132096 261.706351 
L 255.657189 280.431546 
L 248.417932 297.972376 
L 241.322794 314.583599 
L 234.485734 330.030886 
L 232.058754 335.378023 
L 232.058754 335.378023 
" clip-path="url(#p1c223eb1a0)" style="fill: none; stroke: #1e9c89; stroke-width: 0.8"/>
    <path d="M 168.303483 205.571881 
L 173.551616 183.875793 
L 179.096935 161.893117 
L 185.019414 139.316314 
L 191.328252 116.145385 
L 197.864191 92.974455 
L 204.623465 69.803526 
L 211.739028 46.193817 
L 217.686039 27.026426 
M 293.542637 184.4379 
L 285.776978 206.452596 
L 277.997561 227.841146 
L 270.377013 248.159742 
L 262.604907 268.241741 
L 255.174572 286.834886 
L 247.694006 304.948316 
L 240.454749 321.88646 
L 234.49667 335.378023 
L 234.49667 335.378023 
" clip-path="url(#p1c223eb1a0)" style="fill: none; stroke: #20a386; stroke-width: 0.8"/>
    <path d="M 168.303483 197.993422 
L 173.85358 175.543632 
L 179.886295 152.119855 
L 186.175323 128.622039 
L 192.770001 104.856983 
L 199.594824 81.091928 
L 206.671547 57.246454 
L 214.152113 32.840132 
L 215.969706 27.026426 
M 293.542637 189.581798 
L 285.579453 212.097364 
L 277.61627 233.935201 
L 269.653087 255.107337 
L 261.78737 275.371258 
L 254.410289 293.789176 
L 246.97008 311.781487 
L 239.674745 328.842633 
L 236.811501 335.378023 
L 236.811501 335.378023 
" clip-path="url(#p1c223eb1a0)" style="fill: none; stroke: #25ab82; stroke-width: 0.8"/>
    <path d="M 293.542637 194.588827 
L 285.547359 217.146871 
L 277.61627 238.866628 
L 269.653087 260.027004 
L 261.689904 280.543 
L 253.968029 299.82047 
L 246.386775 318.148358 
L 239.248206 334.853143 
L 239.02006 335.378023 
M 168.303483 190.834779 
L 174.096926 167.834381 
L 180.368912 143.89291 
L 186.944545 119.710143 
L 193.640884 95.926278 
L 200.880141 71.063048 
L 208.229776 46.632597 
L 214.298011 27.026426 
L 214.298011 27.026426 
" clip-path="url(#p1c223eb1a0)" style="fill: none; stroke: #2eb37c; stroke-width: 0.8"/>
    <path d="M 293.542637 199.468713 
L 285.338145 222.564002 
L 277.133653 244.976629 
L 269.028094 266.459362 
L 261.171974 286.659659 
L 253.485412 305.829599 
L 245.763537 324.488468 
L 241.135735 335.378023 
M 168.303483 184.032928 
L 174.275546 160.704864 
L 180.429635 137.533935 
L 186.964108 113.768879 
L 193.718758 90.003824 
L 200.880141 65.602603 
L 208.426662 40.691333 
L 212.667609 27.026426 
L 212.667609 27.026426 
" clip-path="url(#p1c223eb1a0)" style="fill: none; stroke: #3aba76; stroke-width: 0.8"/>
    <path d="M 293.542637 204.231097 
L 285.338145 227.285285 
L 277.077511 249.823823 
L 269.002832 271.212373 
L 261.147941 291.41267 
L 253.244104 311.133569 
L 245.428002 330.030886 
L 243.169435 335.378023 
M 168.303483 177.539385 
L 174.37153 154.169474 
L 180.927658 129.810292 
L 187.712859 105.45111 
L 194.722667 81.091928 
L 202.086684 56.295462 
L 209.778721 31.185311 
L 211.075694 27.026426 
L 211.075694 27.026426 
" clip-path="url(#p1c223eb1a0)" style="fill: none; stroke: #48c16e; stroke-width: 0.8"/>
    <path d="M 293.542637 208.884063 
L 285.301845 232.000031 
L 277.01721 254.576834 
L 268.929161 275.987342 
L 260.72467 297.072231 
L 252.747235 316.960105 
L 245.12998 335.378023 
M 168.303483 171.315493 
L 174.818815 146.56375 
L 181.493427 122.086649 
L 188.358556 97.727467 
L 195.617981 72.774158 
L 203.105416 47.82085 
L 209.519562 27.026426 
L 209.519562 27.026426 
" clip-path="url(#p1c223eb1a0)" style="fill: none; stroke: #58c765; stroke-width: 0.8"/>
    <path d="M 293.542637 213.434555 
L 285.096836 237.080425 
L 276.651036 260.051765 
L 268.378589 281.906648 
L 260.242052 302.783321 
L 252.163272 322.901369 
L 247.024796 335.378023 
M 168.303483 165.3305 
L 174.913524 140.504567 
L 181.622598 116.145385 
L 188.814712 90.863238 
L 196.295278 65.385077 
L 204.017153 39.878993 
L 207.996986 27.026426 
L 207.996986 27.026426 
" clip-path="url(#p1c223eb1a0)" style="fill: none; stroke: #6ccd5a; stroke-width: 0.8"/>
    <path d="M 293.542637 217.889304 
L 285.094949 241.506053 
L 276.566816 264.676982 
L 268.205236 286.750775 
L 259.899206 308.048209 
L 251.783997 328.248506 
L 248.860022 335.378023 
M 168.303483 159.558544 
L 174.866093 135.157429 
L 181.816764 110.146503 
L 189.302666 84.06256 
L 197.045392 57.920998 
L 204.982387 31.927775 
L 206.505788 27.026426 
L 206.505788 27.026426 
" clip-path="url(#p1c223eb1a0)" style="fill: none; stroke: #7fd34e; stroke-width: 0.8"/>
    <path d="M 293.542637 222.253993 
L 284.941991 246.259064 
L 276.624395 268.835867 
L 268.205236 291.057104 
L 259.759435 312.713779 
L 251.554943 333.140082 
L 250.640932 335.378023 
M 168.303483 153.978772 
L 175.301432 128.227046 
L 182.540689 102.450324 
L 190.109331 76.338917 
L 197.74313 50.787053 
L 205.044156 27.026426 
L 205.044156 27.026426 
" clip-path="url(#p1c223eb1a0)" style="fill: none; stroke: #93d741; stroke-width: 0.8"/>
    <path d="M 293.542637 226.534017 
L 284.855528 250.745665 
L 276.168419 274.286033 
L 267.636687 296.759808 
L 259.276818 318.163376 
L 252.372086 335.378023 
M 168.303483 148.572824 
L 175.401622 122.680775 
L 182.631861 97.13334 
L 190.083984 71.585905 
L 197.756762 46.038471 
L 203.610412 27.026426 
L 203.610412 27.026426 
" clip-path="url(#p1c223eb1a0)" style="fill: none; stroke: #a8db34; stroke-width: 0.8"/>
    <path d="M 293.542637 230.733995 
L 284.762622 255.17096 
L 276.168419 278.439179 
L 267.48131 301.311202 
L 259.035509 322.926286 
L 254.057487 335.378023 
M 168.303483 143.325435 
L 175.54274 117.13449 
L 183.113421 90.59795 
L 190.800745 64.456389 
L 198.71498 38.314828 
L 202.203006 27.026426 
L 202.203006 27.026426 
" clip-path="url(#p1c223eb1a0)" style="fill: none; stroke: #c0df25; stroke-width: 0.8"/>
    <path d="M 293.542637 234.858216 
L 284.739672 259.329845 
L 276.168419 282.519168 
L 267.371246 305.671703 
L 259.014472 327.060254 
L 255.700587 335.378023 
M 168.303483 138.22349 
L 175.609892 111.9865 
L 183.115763 85.844939 
L 190.845045 59.703378 
L 198.797419 33.561816 
L 200.820497 27.026426 
L 200.820497 27.026426 
" clip-path="url(#p1c223eb1a0)" style="fill: none; stroke: #d5e21a; stroke-width: 0.8"/>
    <path d="M 293.542637 238.910669 
L 284.614219 263.699182 
L 275.673879 287.847912 
L 266.998693 310.643656 
L 258.24926 333.001517 
L 257.304352 335.378023 
M 168.303483 133.255599 
L 175.784049 106.585353 
L 183.672664 79.309549 
L 191.63686 52.573861 
L 199.461637 27.026426 
L 199.461637 27.026426 
" clip-path="url(#p1c223eb1a0)" style="fill: none; stroke: #eae51a; stroke-width: 0.8"/>
    <path d="M 293.542637 242.895068 
L 284.614219 267.657868 
L 275.685802 291.759875 
L 266.757384 315.208931 
L 258.871478 335.378023 
M 168.303483 128.411692 
L 175.961446 101.292225 
L 183.747232 74.530934 
L 191.951724 47.13582 
L 198.125334 27.026426 
L 198.125334 27.026426 
" clip-path="url(#p1c223eb1a0)" style="fill: none; stroke: #fde725; stroke-width: 0.8"/>
   </g>
   <g id="line2d_31">
    <path d="M 268.344531 294.14476 
L 224.153667 227.246892 
" clip-path="url(#p1c223eb1a0)" style="fill: none; stroke: #2563eb; stroke-width: 2.8; stroke-linecap: square"/>
    <defs>
     <path id="m178089c4d2" d="M 0 3 
C 0.795609 3 1.55874 2.683901 2.12132 2.12132 
C 2.683901 1.55874 3 0.795609 3 0 
C 3 -0.795609 2.683901 -1.55874 2.12132 -2.12132 
C 1.55874 -2.683901 0.795609 -3 0 -3 
C -0.795609 -3 -1.55874 -2.683901 -2.12132 -2.12132 
C -2.683901 -1.55874 -3 -0.795609 -3 0 
C -3 0.795609 -2.683901 1.55874 -2.12132 2.12132 
C -1.55874 2.683901 -0.795609 3 0 3 
z
" style="stroke: #2563eb"/>
    </defs>
    <g clip-path="url(#p1c223eb1a0)">
     <use xlink:href="#m178089c4d2" x="268.344531" y="294.14476" style="fill: #2563eb; stroke: #2563eb"/>
     <use xlink:href="#m178089c4d2" x="224.153667" y="227.246892" style="fill: #2563eb; stroke: #2563eb"/>
    </g>
   </g>
   <g id="patch_4">
    <path d="M 50.724531 390.355707 
L 50.724531 23.837812 
" style="fill: none; stroke: #000000; stroke-width: 0.8; stroke-linejoin: miter; stroke-linecap: square"/>
   </g>
   <g id="patch_5">
    <path d="M 50.724531 390.355707 
L 485.964531 390.355707 
" style="fill: none; stroke: #000000; stroke-width: 0.8; stroke-linejoin: miter; stroke-linecap: square"/>
   </g>
   <g id="text_18">
    <!-- $p=0$ -->
    <g transform="translate(270.635268 288.417918) scale(0.1 -0.1)">
     <defs>
      <path id="DejaVuSans-3d" d="M 678 2906 
L 4684 2906 
L 4684 2381 
L 678 2381 
L 678 2906 
z
M 678 1631 
L 4684 1631 
L 4684 1100 
L 678 1100 
L 678 1631 
z
" transform="scale(0.015625)"/>
     </defs>
     <use xlink:href="#DejaVuSans-Oblique-70" transform="translate(0 0.78125)"/>
     <use xlink:href="#DejaVuSans-3d" transform="translate(82.958984 0.78125)"/>
     <use xlink:href="#DejaVuSans-30" transform="translate(186.230469 0.78125)"/>
    </g>
   </g>
   <g id="text_19">
    <!-- $p_k$ -->
    <g transform="translate(227.589772 238.700576) scale(0.1 -0.1)">
     <defs>
      <path id="DejaVuSans-Oblique-6b" d="M 1172 4863 
L 1747 4863 
L 1197 2028 
L 3169 3500 
L 3916 3500 
L 1716 1825 
L 3322 0 
L 2625 0 
L 1131 1709 
L 800 0 
L 225 0 
L 1172 4863 
z
" transform="scale(0.015625)"/>
     </defs>
     <use xlink:href="#DejaVuSans-Oblique-70"/>
     <use xlink:href="#DejaVuSans-Oblique-6b" transform="translate(63.476562 -16.40625) scale(0.7)"/>
    </g>
   </g>
   <g id="text_20">
    <!-- accepted step -->
    <g style="fill: #1d4ed8" transform="translate(178.33893 218.083944) scale(0.1 -0.1)">
     <use xlink:href="#DejaVuSans-61"/>
     <use xlink:href="#DejaVuSans-63" transform="translate(61.279297 0)"/>
     <use xlink:href="#DejaVuSans-63" transform="translate(116.259766 0)"/>
     <use xlink:href="#DejaVuSans-65" transform="translate(171.240234 0)"/>
     <use xlink:href="#DejaVuSans-70" transform="translate(232.763672 0)"/>
     <use xlink:href="#DejaVuSans-74" transform="translate(296.240234 0)"/>
     <use xlink:href="#DejaVuSans-65" transform="translate(335.449219 0)"/>
     <use xlink:href="#DejaVuSans-64" transform="translate(396.972656 0)"/>
     <use xlink:href="#DejaVuSans-20" transform="translate(460.449219 0)"/>
     <use xlink:href="#DejaVuSans-73" transform="translate(492.236328 0)"/>
     <use xlink:href="#DejaVuSans-74" transform="translate(544.335938 0)"/>
     <use xlink:href="#DejaVuSans-65" transform="translate(583.544922 0)"/>
     <use xlink:href="#DejaVuSans-70" transform="translate(645.068359 0)"/>
    </g>
   </g>
   <g id="text_21">
    <!-- unconstrained -->
    <g style="fill: #92400e" transform="translate(274.871405 63.934087) scale(0.1 -0.1)">
     <defs>
      <path id="DejaVuSans-75" d="M 544 1381 
L 544 3500 
L 1119 3500 
L 1119 1403 
Q 1119 906 1312 657 
Q 1506 409 1894 409 
Q 2359 409 2629 706 
Q 2900 1003 2900 1516 
L 2900 3500 
L 3475 3500 
L 3475 0 
L 2900 0 
L 2900 538 
Q 2691 219 2414 64 
Q 2138 -91 1772 -91 
Q 1169 -91 856 284 
Q 544 659 544 1381 
z
M 1991 3584 
L 1991 3584 
z
" transform="scale(0.015625)"/>
     </defs>
     <use xlink:href="#DejaVuSans-75"/>
     <use xlink:href="#DejaVuSans-6e" transform="translate(63.378906 0)"/>
     <use xlink:href="#DejaVuSans-63" transform="translate(126.757812 0)"/>
     <use xlink:href="#DejaVuSans-6f" transform="translate(181.738281 0)"/>
     <use xlink:href="#DejaVuSans-6e" transform="translate(242.919922 0)"/>
     <use xlink:href="#DejaVuSans-73" transform="translate(306.298828 0)"/>
     <use xlink:href="#DejaVuSans-74" transform="translate(358.398438 0)"/>
     <use xlink:href="#DejaVuSans-72" transform="translate(397.607422 0)"/>
     <use xlink:href="#DejaVuSans-61" transform="translate(438.720703 0)"/>
     <use xlink:href="#DejaVuSans-69" transform="translate(500 0)"/>
     <use xlink:href="#DejaVuSans-6e" transform="translate(527.783203 0)"/>
     <use xlink:href="#DejaVuSans-65" transform="translate(591.162109 0)"/>
     <use xlink:href="#DejaVuSans-64" transform="translate(652.685547 0)"/>
    </g>
    <!-- Newton step -->
    <g style="fill: #92400e" transform="translate(274.871405 75.1319) scale(0.1 -0.1)">
     <defs>
      <path id="DejaVuSans-4e" d="M 628 4666 
L 1478 4666 
L 3547 763 
L 3547 4666 
L 4159 4666 
L 4159 0 
L 3309 0 
L 1241 3903 
L 1241 0 
L 628 0 
L 628 4666 
z
" transform="scale(0.015625)"/>
      <path id="DejaVuSans-77" d="M 269 3500 
L 844 3500 
L 1563 769 
L 2278 3500 
L 2956 3500 
L 3675 769 
L 4391 3500 
L 4966 3500 
L 4050 0 
L 3372 0 
L 2619 2869 
L 1863 0 
L 1184 0 
L 269 3500 
z
" transform="scale(0.015625)"/>
     </defs>
     <use xlink:href="#DejaVuSans-4e"/>
     <use xlink:href="#DejaVuSans-65" transform="translate(74.804688 0)"/>
     <use xlink:href="#DejaVuSans-77" transform="translate(136.328125 0)"/>
     <use xlink:href="#DejaVuSans-74" transform="translate(218.115234 0)"/>
     <use xlink:href="#DejaVuSans-6f" transform="translate(257.324219 0)"/>
     <use xlink:href="#DejaVuSans-6e" transform="translate(318.505859 0)"/>
     <use xlink:href="#DejaVuSans-20" transform="translate(381.884766 0)"/>
     <use xlink:href="#DejaVuSans-73" transform="translate(413.671875 0)"/>
     <use xlink:href="#DejaVuSans-74" transform="translate(465.771484 0)"/>
     <use xlink:href="#DejaVuSans-65" transform="translate(504.980469 0)"/>
     <use xlink:href="#DejaVuSans-70" transform="translate(566.503906 0)"/>
    </g>
   </g>
   <g id="text_22">
    <!-- steepest -->
    <g style="fill: #0f766e" transform="translate(175.175694 240.45029) scale(0.1 -0.1)">
     <use xlink:href="#DejaVuSans-73"/>
     <use xlink:href="#DejaVuSans-74" transform="translate(52.099609 0)"/>
     <use xlink:href="#DejaVuSans-65" transform="translate(91.308594 0)"/>
     <use xlink:href="#DejaVuSans-65" transform="translate(152.832031 0)"/>
     <use xlink:href="#DejaVuSans-70" transform="translate(214.355469 0)"/>
     <use xlink:href="#DejaVuSans-65" transform="translate(277.832031 0)"/>
     <use xlink:href="#DejaVuSans-73" transform="translate(339.355469 0)"/>
     <use xlink:href="#DejaVuSans-74" transform="translate(391.455078 0)"/>
    </g>
    <!-- boundary -->
    <g style="fill: #0f766e" transform="translate(175.175694 251.648102) scale(0.1 -0.1)">
     <defs>
      <path id="DejaVuSans-62" d="M 3116 1747 
Q 3116 2381 2855 2742 
Q 2594 3103 2138 3103 
Q 1681 3103 1420 2742 
Q 1159 2381 1159 1747 
Q 1159 1113 1420 752 
Q 1681 391 2138 391 
Q 2594 391 2855 752 
Q 3116 1113 3116 1747 
z
M 1159 2969 
Q 1341 3281 1617 3432 
Q 1894 3584 2278 3584 
Q 2916 3584 3314 3078 
Q 3713 2572 3713 1747 
Q 3713 922 3314 415 
Q 2916 -91 2278 -91 
Q 1894 -91 1617 61 
Q 1341 213 1159 525 
L 1159 0 
L 581 0 
L 581 4863 
L 1159 4863 
L 1159 2969 
z
" transform="scale(0.015625)"/>
      <path id="DejaVuSans-79" d="M 2059 -325 
Q 1816 -950 1584 -1140 
Q 1353 -1331 966 -1331 
L 506 -1331 
L 506 -850 
L 844 -850 
Q 1081 -850 1212 -737 
Q 1344 -625 1503 -206 
L 1606 56 
L 191 3500 
L 800 3500 
L 1894 763 
L 2988 3500 
L 3597 3500 
L 2059 -325 
z
" transform="scale(0.015625)"/>
     </defs>
     <use xlink:href="#DejaVuSans-62"/>
     <use xlink:href="#DejaVuSans-6f" transform="translate(63.476562 0)"/>
     <use xlink:href="#DejaVuSans-75" transform="translate(124.658203 0)"/>
     <use xlink:href="#DejaVuSans-6e" transform="translate(188.037109 0)"/>
     <use xlink:href="#DejaVuSans-64" transform="translate(251.416016 0)"/>
     <use xlink:href="#DejaVuSans-61" transform="translate(314.892578 0)"/>
     <use xlink:href="#DejaVuSans-72" transform="translate(376.171875 0)"/>
     <use xlink:href="#DejaVuSans-79" transform="translate(417.285156 0)"/>
    </g>
   </g>
   <g id="text_23">
    <g id="patch_6">
     <path d="M 68.134131 381.004991 
L 249.844131 381.004991 
Q 252.994131 381.004991 252.994131 377.854991 
L 252.994131 368.764991 
Q 252.994131 365.614991 249.844131 365.614991 
L 68.134131 365.614991 
Q 64.984131 365.614991 64.984131 368.764991 
L 64.984131 377.854991 
Q 64.984131 381.004991 68.134131 381.004991 
z
" style="fill: #ffffff; stroke: #cbd5e1; stroke-linejoin: miter"/>
    </g>
    <!-- Minimize $m_k(p)$ while enforcing $\|p\|\leq\Delta_k$. -->
    <g style="fill: #374151" transform="translate(68.134131 375.694991) scale(0.09 -0.09)">
     <defs>
      <path id="DejaVuSans-4d" d="M 628 4666 
L 1569 4666 
L 2759 1491 
L 3956 4666 
L 4897 4666 
L 4897 0 
L 4281 0 
L 4281 4097 
L 3078 897 
L 2444 897 
L 1241 4097 
L 1241 0 
L 628 0 
L 628 4666 
z
" transform="scale(0.015625)"/>
      <path id="DejaVuSans-6d" d="M 3328 2828 
Q 3544 3216 3844 3400 
Q 4144 3584 4550 3584 
Q 5097 3584 5394 3201 
Q 5691 2819 5691 2113 
L 5691 0 
L 5113 0 
L 5113 2094 
Q 5113 2597 4934 2840 
Q 4756 3084 4391 3084 
Q 3944 3084 3684 2787 
Q 3425 2491 3425 1978 
L 3425 0 
L 2847 0 
L 2847 2094 
Q 2847 2600 2669 2842 
Q 2491 3084 2119 3084 
Q 1678 3084 1418 2786 
Q 1159 2488 1159 1978 
L 1159 0 
L 581 0 
L 581 3500 
L 1159 3500 
L 1159 2956 
Q 1356 3278 1631 3431 
Q 1906 3584 2284 3584 
Q 2666 3584 2933 3390 
Q 3200 3197 3328 2828 
z
" transform="scale(0.015625)"/>
      <path id="DejaVuSans-7a" d="M 353 3500 
L 3084 3500 
L 3084 2975 
L 922 459 
L 3084 459 
L 3084 0 
L 275 0 
L 275 525 
L 2438 3041 
L 353 3041 
L 353 3500 
z
" transform="scale(0.015625)"/>
      <path id="DejaVuSans-Oblique-6d" d="M 5747 2113 
L 5338 0 
L 4763 0 
L 5166 2094 
Q 5191 2228 5203 2325 
Q 5216 2422 5216 2491 
Q 5216 2772 5059 2928 
Q 4903 3084 4622 3084 
Q 4203 3084 3875 2770 
Q 3547 2456 3450 1953 
L 3066 0 
L 2491 0 
L 2900 2094 
Q 2925 2209 2937 2307 
Q 2950 2406 2950 2484 
Q 2950 2769 2794 2926 
Q 2638 3084 2363 3084 
Q 1938 3084 1609 2770 
Q 1281 2456 1184 1953 
L 800 0 
L 225 0 
L 909 3500 
L 1484 3500 
L 1375 2956 
Q 1609 3263 1923 3423 
Q 2238 3584 2597 3584 
Q 2978 3584 3223 3384 
Q 3469 3184 3519 2828 
Q 3781 3197 4126 3390 
Q 4472 3584 4856 3584 
Q 5306 3584 5551 3325 
Q 5797 3066 5797 2591 
Q 5797 2488 5784 2364 
Q 5772 2241 5747 2113 
z
" transform="scale(0.015625)"/>
      <path id="DejaVuSans-28" d="M 1984 4856 
Q 1566 4138 1362 3434 
Q 1159 2731 1159 2009 
Q 1159 1288 1364 580 
Q 1569 -128 1984 -844 
L 1484 -844 
Q 1016 -109 783 600 
Q 550 1309 550 2009 
Q 550 2706 781 3412 
Q 1013 4119 1484 4856 
L 1984 4856 
z
" transform="scale(0.015625)"/>
      <path id="DejaVuSans-29" d="M 513 4856 
L 1013 4856 
Q 1481 4119 1714 3412 
Q 1947 2706 1947 2009 
Q 1947 1309 1714 600 
Q 1481 -109 1013 -844 
L 513 -844 
Q 928 -128 1133 580 
Q 1338 1288 1338 2009 
Q 1338 2731 1133 3434 
Q 928 4138 513 4856 
z
" transform="scale(0.015625)"/>
      <path id="DejaVuSans-68" d="M 3513 2113 
L 3513 0 
L 2938 0 
L 2938 2094 
Q 2938 2591 2744 2837 
Q 2550 3084 2163 3084 
Q 1697 3084 1428 2787 
Q 1159 2491 1159 1978 
L 1159 0 
L 581 0 
L 581 4863 
L 1159 4863 
L 1159 2956 
Q 1366 3272 1645 3428 
Q 1925 3584 2291 3584 
Q 2894 3584 3203 3211 
Q 3513 2838 3513 2113 
z
" transform="scale(0.015625)"/>
      <path id="DejaVuSans-6c" d="M 603 4863 
L 1178 4863 
L 1178 0 
L 603 0 
L 603 4863 
z
" transform="scale(0.015625)"/>
      <path id="DejaVuSans-66" d="M 2375 4863 
L 2375 4384 
L 1825 4384 
Q 1516 4384 1395 4259 
Q 1275 4134 1275 3809 
L 1275 3500 
L 2222 3500 
L 2222 3053 
L 1275 3053 
L 1275 0 
L 697 0 
L 697 3053 
L 147 3053 
L 147 3500 
L 697 3500 
L 697 3744 
Q 697 4328 969 4595 
Q 1241 4863 1831 4863 
L 2375 4863 
z
" transform="scale(0.015625)"/>
      <path id="DejaVuSans-67" d="M 2906 1791 
Q 2906 2416 2648 2759 
Q 2391 3103 1925 3103 
Q 1463 3103 1205 2759 
Q 947 2416 947 1791 
Q 947 1169 1205 825 
Q 1463 481 1925 481 
Q 2391 481 2648 825 
Q 2906 1169 2906 1791 
z
M 3481 434 
Q 3481 -459 3084 -895 
Q 2688 -1331 1869 -1331 
Q 1566 -1331 1297 -1286 
Q 1028 -1241 775 -1147 
L 775 -588 
Q 1028 -725 1275 -790 
Q 1522 -856 1778 -856 
Q 2344 -856 2625 -561 
Q 2906 -266 2906 331 
L 2906 616 
Q 2728 306 2450 153 
Q 2172 0 1784 0 
Q 1141 0 747 490 
Q 353 981 353 1791 
Q 353 2603 747 3093 
Q 1141 3584 1784 3584 
Q 2172 3584 2450 3431 
Q 2728 3278 2906 2969 
L 2906 3500 
L 3481 3500 
L 3481 434 
z
" transform="scale(0.015625)"/>
      <path id="DejaVuSans-2016" d="M 1344 4891 
L 1344 -1509 
L 813 -1509 
L 813 4891 
L 1344 4891 
z
M 2376 4891 
L 2376 -1509 
L 1845 -1509 
L 1845 4891 
L 2376 4891 
z
" transform="scale(0.015625)"/>
      <path id="DejaVuSans-2264" d="M 4684 3175 
L 1684 2309 
L 4684 1453 
L 4684 897 
L 678 2047 
L 678 2578 
L 4684 3725 
L 4684 3175 
z
M 678 531 
L 4684 531 
L 4684 0 
L 678 0 
L 678 531 
z
" transform="scale(0.015625)"/>
      <path id="DejaVuSans-394" d="M 2188 4044 
L 906 525 
L 3472 525 
L 2188 4044 
z
M 50 0 
L 1831 4666 
L 2547 4666 
L 4325 0 
L 50 0 
z
" transform="scale(0.015625)"/>
     </defs>
     <use xlink:href="#DejaVuSans-4d" transform="translate(0 0.578125)"/>
     <use xlink:href="#DejaVuSans-69" transform="translate(86.279297 0.578125)"/>
     <use xlink:href="#DejaVuSans-6e" transform="translate(114.0625 0.578125)"/>
     <use xlink:href="#DejaVuSans-69" transform="translate(177.441406 0.578125)"/>
     <use xlink:href="#DejaVuSans-6d" transform="translate(205.224609 0.578125)"/>
     <use xlink:href="#DejaVuSans-69" transform="translate(302.636719 0.578125)"/>
     <use xlink:href="#DejaVuSans-7a" transform="translate(330.419922 0.578125)"/>
     <use xlink:href="#DejaVuSans-65" transform="translate(382.910156 0.578125)"/>
     <use xlink:href="#DejaVuSans-20" transform="translate(444.433594 0.578125)"/>
     <use xlink:href="#DejaVuSans-Oblique-6d" transform="translate(476.220703 0.578125)"/>
     <use xlink:href="#DejaVuSans-Oblique-6b" transform="translate(573.632812 -15.828125) scale(0.7)"/>
     <use xlink:href="#DejaVuSans-28" transform="translate(616.904297 0.578125)"/>
     <use xlink:href="#DejaVuSans-Oblique-70" transform="translate(655.917969 0.578125)"/>
     <use xlink:href="#DejaVuSans-29" transform="translate(719.394531 0.578125)"/>
     <use xlink:href="#DejaVuSans-20" transform="translate(758.408203 0.578125)"/>
     <use xlink:href="#DejaVuSans-77" transform="translate(790.195312 0.578125)"/>
     <use xlink:href="#DejaVuSans-68" transform="translate(871.982422 0.578125)"/>
     <use xlink:href="#DejaVuSans-69" transform="translate(935.361328 0.578125)"/>
     <use xlink:href="#DejaVuSans-6c" transform="translate(963.144531 0.578125)"/>
     <use xlink:href="#DejaVuSans-65" transform="translate(990.927734 0.578125)"/>
     <use xlink:href="#DejaVuSans-20" transform="translate(1052.451172 0.578125)"/>
     <use xlink:href="#DejaVuSans-65" transform="translate(1084.238281 0.578125)"/>
     <use xlink:href="#DejaVuSans-6e" transform="translate(1145.761719 0.578125)"/>
     <use xlink:href="#DejaVuSans-66" transform="translate(1209.140625 0.578125)"/>
     <use xlink:href="#DejaVuSans-6f" transform="translate(1244.345703 0.578125)"/>
     <use xlink:href="#DejaVuSans-72" transform="translate(1305.527344 0.578125)"/>
     <use xlink:href="#DejaVuSans-63" transform="translate(1346.640625 0.578125)"/>
     <use xlink:href="#DejaVuSans-69" transform="translate(1401.621094 0.578125)"/>
     <use xlink:href="#DejaVuSans-6e" transform="translate(1429.404297 0.578125)"/>
     <use xlink:href="#DejaVuSans-67" transform="translate(1492.783203 0.578125)"/>
     <use xlink:href="#DejaVuSans-20" transform="translate(1556.259766 0.578125)"/>
     <use xlink:href="#DejaVuSans-2016" transform="translate(1588.046875 0.578125)"/>
     <use xlink:href="#DejaVuSans-Oblique-70" transform="translate(1638.046875 0.578125)"/>
     <use xlink:href="#DejaVuSans-2016" transform="translate(1701.523438 0.578125)"/>
     <use xlink:href="#DejaVuSans-2264" transform="translate(1771.005859 0.578125)"/>
     <use xlink:href="#DejaVuSans-394" transform="translate(1874.277344 0.578125)"/>
     <use xlink:href="#DejaVuSans-Oblique-6b" transform="translate(1943.642578 -15.828125) scale(0.7)"/>
     <use xlink:href="#DejaVuSans-2e" transform="translate(1986.914062 0.578125)"/>
    </g>
   </g>
   <g id="text_24">
    <!-- Trust-region subproblem -->
    <g transform="translate(183.023281 17.837812) scale(0.14 -0.14)">
     <defs>
      <path id="DejaVuSans-54" d="M -19 4666 
L 3928 4666 
L 3928 4134 
L 2272 4134 
L 2272 0 
L 1638 0 
L 1638 4134 
L -19 4134 
L -19 4666 
z
" transform="scale(0.015625)"/>
      <path id="DejaVuSans-2d" d="M 313 2009 
L 1997 2009 
L 1997 1497 
L 313 1497 
L 313 2009 
z
" transform="scale(0.015625)"/>
     </defs>
     <use xlink:href="#DejaVuSans-54"/>
     <use xlink:href="#DejaVuSans-72" transform="translate(46.333984 0)"/>
     <use xlink:href="#DejaVuSans-75" transform="translate(87.447266 0)"/>
     <use xlink:href="#DejaVuSans-73" transform="translate(150.826172 0)"/>
     <use xlink:href="#DejaVuSans-74" transform="translate(202.925781 0)"/>
     <use xlink:href="#DejaVuSans-2d" transform="translate(242.134766 0)"/>
     <use xlink:href="#DejaVuSans-72" transform="translate(278.21875 0)"/>
     <use xlink:href="#DejaVuSans-65" transform="translate(317.082031 0)"/>
     <use xlink:href="#DejaVuSans-67" transform="translate(378.605469 0)"/>
     <use xlink:href="#DejaVuSans-69" transform="translate(442.082031 0)"/>
     <use xlink:href="#DejaVuSans-6f" transform="translate(469.865234 0)"/>
     <use xlink:href="#DejaVuSans-6e" transform="translate(531.046875 0)"/>
     <use xlink:href="#DejaVuSans-20" transform="translate(594.425781 0)"/>
     <use xlink:href="#DejaVuSans-73" transform="translate(626.212891 0)"/>
     <use xlink:href="#DejaVuSans-75" transform="translate(678.3125 0)"/>
     <use xlink:href="#DejaVuSans-62" transform="translate(741.691406 0)"/>
     <use xlink:href="#DejaVuSans-70" transform="translate(805.167969 0)"/>
     <use xlink:href="#DejaVuSans-72" transform="translate(868.644531 0)"/>
     <use xlink:href="#DejaVuSans-6f" transform="translate(907.507812 0)"/>
     <use xlink:href="#DejaVuSans-62" transform="translate(968.689453 0)"/>
     <use xlink:href="#DejaVuSans-6c" transform="translate(1032.166016 0)"/>
     <use xlink:href="#DejaVuSans-65" transform="translate(1059.949219 0)"/>
     <use xlink:href="#DejaVuSans-6d" transform="translate(1121.472656 0)"/>
    </g>
   </g>
   <g id="PathCollection_1">
    <defs>
     <path id="m8f8096b538" d="M 0 -6.708204 
L -1.506086 -2.072949 
L -6.379881 -2.072949 
L -2.436898 0.791796 
L -3.942983 5.427051 
L -0 2.562306 
L 3.942983 5.427051 
L 2.436898 0.791796 
L 6.379881 -2.072949 
L 1.506086 -2.072949 
z
" style="stroke: #111827; stroke-width: 0.5"/>
    </defs>
    <g clip-path="url(#p1c223eb1a0)">
     <use xlink:href="#m8f8096b538" x="267.999194" y="68.259689" style="fill: #f59e0b; stroke: #111827; stroke-width: 0.5"/>
    </g>
   </g>
   <g id="PathCollection_2">
    <defs>
     <path id="m9861469eae" d="M -4.242641 4.242641 
L 4.242641 4.242641 
L 4.242641 -4.242641 
L -4.242641 -4.242641 
z
" style="stroke: #ffffff; stroke-width: 0.6"/>
    </defs>
    <g clip-path="url(#p1c223eb1a0)">
     <use xlink:href="#m9861469eae" x="193.501588" y="265.392523" style="fill: #0f766e; stroke: #ffffff; stroke-width: 0.6"/>
    </g>
   </g>
   <g id="PathCollection_3">
    <defs>
     <path id="md8d895aa6e" d="M 0 3.24037 
C 0.859356 3.24037 1.683631 2.898944 2.291288 2.291288 
C 2.898944 1.683631 3.24037 0.859356 3.24037 0 
C 3.24037 -0.859356 2.898944 -1.683631 2.291288 -2.291288 
C 1.683631 -2.898944 0.859356 -3.24037 0 -3.24037 
C -0.859356 -3.24037 -1.683631 -2.898944 -2.291288 -2.291288 
C -2.898944 -1.683631 -3.24037 -0.859356 -3.24037 0 
C -3.24037 0.859356 -2.898944 1.683631 -2.291288 2.291288 
C -1.683631 2.898944 -0.859356 3.24037 0 3.24037 
z
" style="stroke: #111827"/>
    </defs>
    <g clip-path="url(#p1c223eb1a0)">
     <use xlink:href="#md8d895aa6e" x="268.344531" y="294.14476" style="fill: #111827; stroke: #111827"/>
    </g>
   </g>
  </g>
 </g>
 <defs>
  <clipPath id="p1c223eb1a0">
   <rect x="50.724531" y="23.837812" width="435.24" height="366.517895"/>
  </clipPath>
 </defs>
</svg>
