<?xml version="1.0" encoding="utf-8" standalone="no"?>
<!DOCTYPE svg PUBLIC "-//W3C//DTD SVG 1.1//EN"
  "http://www.w3.org/Graphics/SVG/1.1/DTD/svg11.dtd">
<svg xmlns:xlink="http://www.w3.org/1999/xlink" width="541.5pt" height="405.146125pt" viewBox="0 0 541.5 405.146125" xmlns="http://www.w3.org/2000/svg" version="1.1">
 <metadata>
  <rdf:RDF xmlns:dc="http://purl.org/dc/elements/1.1/" xmlns:cc="http://creativecommons.org/ns#" xmlns:rdf="http://www.w3.org/1999/02/22-rdf-syntax-ns#">
   <cc:Work>
    <dc:type rdf:resource="http://purl.org/dc/dcmitype/StillImage"/>
    <dc:date>2026-06-09T16:11:30.477877</dc:date>
    <dc:format>image/svg+xml</dc:format>
    <dc:creator>
     <cc:Agent>
      <dc:title>Matplotlib v3.10.8, https://matplotlib.org/</dc:title>
     </cc:Agent>
    </dc:creator>
   </cc:Work>
  </rdf:RDF>
 </metadata>
 <defs>
  <style type="text/css">*{stroke-linejoin: round; stroke-linecap: butt}</style>
 </defs>
 <g id="figure_1">
  <g id="patch_1">
   <path d="M 0 405.146125 
L 541.5 405.146125 
L 541.5 0 
L 0 0 
z
" style="fill: #ffffff"/>
  </g>
  <g id="axes_1">
   <g id="patch_2">
    <path d="M 54.42 232.157813 
L 534.3 232.157813 
L 534.3 23.837812 
L 54.42 23.837812 
z
" style="fill: #ffffff"/>
   </g>
   <g id="matplotlib.axis_1">
    <g id="xtick_1">
     <g id="line2d_1">
      <path d="M 76.232727 232.157813 
L 76.232727 23.837812 
" clip-path="url(#pe4aad34166)" style="fill: none; stroke-dasharray: 0.7,1.155; stroke-dashoffset: 0; stroke: #cbd5e1; stroke-width: 0.7"/>
     </g>
     <g id="line2d_2">
      <defs>
       <path id="m61cd741775" d="M 0 0 
L 0 3.5 
" style="stroke: #000000; stroke-width: 0.8"/>
      </defs>
      <g>
       <use xlink:href="#m61cd741775" x="76.232727" y="232.157813" style="stroke: #000000; stroke-width: 0.8"/>
      </g>
     </g>
    </g>
    <g id="xtick_2">
     <g id="line2d_3">
      <path d="M 130.764545 232.157813 
L 130.764545 23.837812 
" clip-path="url(#pe4aad34166)" style="fill: none; stroke-dasharray: 0.7,1.155; stroke-dashoffset: 0; stroke: #cbd5e1; stroke-width: 0.7"/>
     </g>
     <g id="line2d_4">
      <g>
       <use xlink:href="#m61cd741775" x="130.764545" y="232.157813" style="stroke: #000000; stroke-width: 0.8"/>
      </g>
     </g>
    </g>
    <g id="xtick_3">
     <g id="line2d_5">
      <path d="M 185.296364 232.157813 
L 185.296364 23.837812 
" clip-path="url(#pe4aad34166)" style="fill: none; stroke-dasharray: 0.7,1.155; stroke-dashoffset: 0; stroke: #cbd5e1; stroke-width: 0.7"/>
     </g>
     <g id="line2d_6">
      <g>
       <use xlink:href="#m61cd741775" x="185.296364" y="232.157813" style="stroke: #000000; stroke-width: 0.8"/>
      </g>
     </g>
    </g>
    <g id="xtick_4">
     <g id="line2d_7">
      <path d="M 239.828182 232.157813 
L 239.828182 23.837812 
" clip-path="url(#pe4aad34166)" style="fill: none; stroke-dasharray: 0.7,1.155; stroke-dashoffset: 0; stroke: #cbd5e1; stroke-width: 0.7"/>
     </g>
     <g id="line2d_8">
      <g>
       <use xlink:href="#m61cd741775" x="239.828182" y="232.157813" style="stroke: #000000; stroke-width: 0.8"/>
      </g>
     </g>
    </g>
    <g id="xtick_5">
     <g id="line2d_9">
      <path d="M 294.36 232.157813 
L 294.36 23.837812 
" clip-path="url(#pe4aad34166)" style="fill: none; stroke-dasharray: 0.7,1.155; stroke-dashoffset: 0; stroke: #cbd5e1; stroke-width: 0.7"/>
     </g>
     <g id="line2d_10">
      <g>
       <use xlink:href="#m61cd741775" x="294.36" y="232.157813" style="stroke: #000000; stroke-width: 0.8"/>
      </g>
     </g>
    </g>
    <g id="xtick_6">
     <g id="line2d_11">
      <path d="M 348.891818 232.157813 
L 348.891818 23.837812 
" clip-path="url(#pe4aad34166)" style="fill: none; stroke-dasharray: 0.7,1.155; stroke-dashoffset: 0; stroke: #cbd5e1; stroke-width: 0.7"/>
     </g>
     <g id="line2d_12">
      <g>
       <use xlink:href="#m61cd741775" x="348.891818" y="232.157813" style="stroke: #000000; stroke-width: 0.8"/>
      </g>
     </g>
    </g>
    <g id="xtick_7">
     <g id="line2d_13">
      <path d="M 403.423636 232.157813 
L 403.423636 23.837812 
" clip-path="url(#pe4aad34166)" style="fill: none; stroke-dasharray: 0.7,1.155; stroke-dashoffset: 0; stroke: #cbd5e1; stroke-width: 0.7"/>
     </g>
     <g id="line2d_14">
      <g>
       <use xlink:href="#m61cd741775" x="403.423636" y="232.157813" style="stroke: #000000; stroke-width: 0.8"/>
      </g>
     </g>
    </g>
    <g id="xtick_8">
     <g id="line2d_15">
      <path d="M 457.955455 232.157813 
L 457.955455 23.837812 
" clip-path="url(#pe4aad34166)" style="fill: none; stroke-dasharray: 0.7,1.155; stroke-dashoffset: 0; stroke: #cbd5e1; stroke-width: 0.7"/>
     </g>
     <g id="line2d_16">
      <g>
       <use xlink:href="#m61cd741775" x="457.955455" y="232.157813" style="stroke: #000000; stroke-width: 0.8"/>
      </g>
     </g>
    </g>
    <g id="xtick_9">
     <g id="line2d_17">
      <path d="M 512.487273 232.157813 
L 512.487273 23.837812 
" clip-path="url(#pe4aad34166)" style="fill: none; stroke-dasharray: 0.7,1.155; stroke-dashoffset: 0; stroke: #cbd5e1; stroke-width: 0.7"/>
     </g>
     <g id="line2d_18">
      <g>
       <use xlink:href="#m61cd741775" x="512.487273" y="232.157813" style="stroke: #000000; stroke-width: 0.8"/>
      </g>
     </g>
    </g>
   </g>
   <g id="matplotlib.axis_2">
    <g id="ytick_1">
     <g id="line2d_19">
      <path d="M 54.42 220.308869 
L 534.3 220.308869 
" clip-path="url(#pe4aad34166)" style="fill: none; stroke-dasharray: 0.7,1.155; stroke-dashoffset: 0; stroke: #cbd5e1; stroke-width: 0.7"/>
     </g>
     <g id="line2d_20">
      <defs>
       <path id="m63c7246dc3" d="M 0 0 
L -3.5 0 
" style="stroke: #000000; stroke-width: 0.8"/>
      </defs>
      <g>
       <use xlink:href="#m63c7246dc3" x="54.42" y="220.308869" style="stroke: #000000; stroke-width: 0.8"/>
      </g>
     </g>
     <g id="text_1">
      <!-- 0.8 -->
      <g transform="translate(33.107188 223.728166) scale(0.09 -0.09)">
       <defs>
        <path id="DejaVuSans-30" d="M 2034 4250 
Q 1547 4250 1301 3770 
Q 1056 3291 1056 2328 
Q 1056 1369 1301 889 
Q 1547 409 2034 409 
Q 2525 409 2770 889 
Q 3016 1369 3016 2328 
Q 3016 3291 2770 3770 
Q 2525 4250 2034 4250 
z
M 2034 4750 
Q 2819 4750 3233 4129 
Q 3647 3509 3647 2328 
Q 3647 1150 3233 529 
Q 2819 -91 2034 -91 
Q 1250 -91 836 529 
Q 422 1150 422 2328 
Q 422 3509 836 4129 
Q 1250 4750 2034 4750 
z
" transform="scale(0.015625)"/>
        <path id="DejaVuSans-2e" d="M 684 794 
L 1344 794 
L 1344 0 
L 684 0 
L 684 794 
z
" transform="scale(0.015625)"/>
        <path id="DejaVuSans-38" d="M 2034 2216 
Q 1584 2216 1326 1975 
Q 1069 1734 1069 1313 
Q 1069 891 1326 650 
Q 1584 409 2034 409 
Q 2484 409 2743 651 
Q 3003 894 3003 1313 
Q 3003 1734 2745 1975 
Q 2488 2216 2034 2216 
z
M 1403 2484 
Q 997 2584 770 2862 
Q 544 3141 544 3541 
Q 544 4100 942 4425 
Q 1341 4750 2034 4750 
Q 2731 4750 3128 4425 
Q 3525 4100 3525 3541 
Q 3525 3141 3298 2862 
Q 3072 2584 2669 2484 
Q 3125 2378 3379 2068 
Q 3634 1759 3634 1313 
Q 3634 634 3220 271 
Q 2806 -91 2034 -91 
Q 1263 -91 848 271 
Q 434 634 434 1313 
Q 434 1759 690 2068 
Q 947 2378 1403 2484 
z
M 1172 3481 
Q 1172 3119 1398 2916 
Q 1625 2713 2034 2713 
Q 2441 2713 2670 2916 
Q 2900 3119 2900 3481 
Q 2900 3844 2670 4047 
Q 2441 4250 2034 4250 
Q 1625 4250 1398 4047 
Q 1172 3844 1172 3481 
z
" transform="scale(0.015625)"/>
       </defs>
       <use xlink:href="#DejaVuSans-30"/>
       <use xlink:href="#DejaVuSans-2e" transform="translate(63.623047 0)"/>
       <use xlink:href="#DejaVuSans-38" transform="translate(95.410156 0)"/>
      </g>
     </g>
    </g>
    <g id="ytick_2">
     <g id="line2d_21">
      <path d="M 54.42 191.427184 
L 534.3 191.427184 
" clip-path="url(#pe4aad34166)" style="fill: none; stroke-dasharray: 0.7,1.155; stroke-dashoffset: 0; stroke: #cbd5e1; stroke-width: 0.7"/>
     </g>
     <g id="line2d_22">
      <g>
       <use xlink:href="#m63c7246dc3" x="54.42" y="191.427184" style="stroke: #000000; stroke-width: 0.8"/>
      </g>
     </g>
     <g id="text_2">
      <!-- 1.0 -->
      <g transform="translate(33.107188 194.84648) scale(0.09 -0.09)">
       <defs>
        <path id="DejaVuSans-31" d="M 794 531 
L 1825 531 
L 1825 4091 
L 703 3866 
L 703 4441 
L 1819 4666 
L 2450 4666 
L 2450 531 
L 3481 531 
L 3481 0 
L 794 0 
L 794 531 
z
" transform="scale(0.015625)"/>
       </defs>
       <use xlink:href="#DejaVuSans-31"/>
       <use xlink:href="#DejaVuSans-2e" transform="translate(63.623047 0)"/>
       <use xlink:href="#DejaVuSans-30" transform="translate(95.410156 0)"/>
      </g>
     </g>
    </g>
    <g id="ytick_3">
     <g id="line2d_23">
      <path d="M 54.42 162.545498 
L 534.3 162.545498 
" clip-path="url(#pe4aad34166)" style="fill: none; stroke-dasharray: 0.7,1.155; stroke-dashoffset: 0; stroke: #cbd5e1; stroke-width: 0.7"/>
     </g>
     <g id="line2d_24">
      <g>
       <use xlink:href="#m63c7246dc3" x="54.42" y="162.545498" style="stroke: #000000; stroke-width: 0.8"/>
      </g>
     </g>
     <g id="text_3">
      <!-- 1.2 -->
      <g transform="translate(33.107188 165.964795) scale(0.09 -0.09)">
       <defs>
        <path id="DejaVuSans-32" d="M 1228 531 
L 3431 531 
L 3431 0 
L 469 0 
L 469 531 
Q 828 903 1448 1529 
Q 2069 2156 2228 2338 
Q 2531 2678 2651 2914 
Q 2772 3150 2772 3378 
Q 2772 3750 2511 3984 
Q 2250 4219 1831 4219 
Q 1534 4219 1204 4116 
Q 875 4013 500 3803 
L 500 4441 
Q 881 4594 1212 4672 
Q 1544 4750 1819 4750 
Q 2544 4750 2975 4387 
Q 3406 4025 3406 3419 
Q 3406 3131 3298 2873 
Q 3191 2616 2906 2266 
Q 2828 2175 2409 1742 
Q 1991 1309 1228 531 
z
" transform="scale(0.015625)"/>
       </defs>
       <use xlink:href="#DejaVuSans-31"/>
       <use xlink:href="#DejaVuSans-2e" transform="translate(63.623047 0)"/>
       <use xlink:href="#DejaVuSans-32" transform="translate(95.410156 0)"/>
      </g>
     </g>
    </g>
    <g id="ytick_4">
     <g id="line2d_25">
      <path d="M 54.42 133.663813 
L 534.3 133.663813 
" clip-path="url(#pe4aad34166)" style="fill: none; stroke-dasharray: 0.7,1.155; stroke-dashoffset: 0; stroke: #cbd5e1; stroke-width: 0.7"/>
     </g>
     <g id="line2d_26">
      <g>
       <use xlink:href="#m63c7246dc3" x="54.42" y="133.663813" style="stroke: #000000; stroke-width: 0.8"/>
      </g>
     </g>
     <g id="text_4">
      <!-- 1.4 -->
      <g transform="translate(33.107188 137.08311) scale(0.09 -0.09)">
       <defs>
        <path id="DejaVuSans-34" d="M 2419 4116 
L 825 1625 
L 2419 1625 
L 2419 4116 
z
M 2253 4666 
L 3047 4666 
L 3047 1625 
L 3713 1625 
L 3713 1100 
L 3047 1100 
L 3047 0 
L 2419 0 
L 2419 1100 
L 313 1100 
L 313 1709 
L 2253 4666 
z
" transform="scale(0.015625)"/>
       </defs>
       <use xlink:href="#DejaVuSans-31"/>
       <use xlink:href="#DejaVuSans-2e" transform="translate(63.623047 0)"/>
       <use xlink:href="#DejaVuSans-34" transform="translate(95.410156 0)"/>
      </g>
     </g>
    </g>
    <g id="ytick_5">
     <g id="line2d_27">
      <path d="M 54.42 104.782128 
L 534.3 104.782128 
" clip-path="url(#pe4aad34166)" style="fill: none; stroke-dasharray: 0.7,1.155; stroke-dashoffset: 0; stroke: #cbd5e1; stroke-width: 0.7"/>
     </g>
     <g id="line2d_28">
      <g>
       <use xlink:href="#m63c7246dc3" x="54.42" y="104.782128" style="stroke: #000000; stroke-width: 0.8"/>
      </g>
     </g>
     <g id="text_5">
      <!-- 1.6 -->
      <g transform="translate(33.107188 108.201425) scale(0.09 -0.09)">
       <defs>
        <path id="DejaVuSans-36" d="M 2113 2584 
Q 1688 2584 1439 2293 
Q 1191 2003 1191 1497 
Q 1191 994 1439 701 
Q 1688 409 2113 409 
Q 2538 409 2786 701 
Q 3034 994 3034 1497 
Q 3034 2003 2786 2293 
Q 2538 2584 2113 2584 
z
M 3366 4563 
L 3366 3988 
Q 3128 4100 2886 4159 
Q 2644 4219 2406 4219 
Q 1781 4219 1451 3797 
Q 1122 3375 1075 2522 
Q 1259 2794 1537 2939 
Q 1816 3084 2150 3084 
Q 2853 3084 3261 2657 
Q 3669 2231 3669 1497 
Q 3669 778 3244 343 
Q 2819 -91 2113 -91 
Q 1303 -91 875 529 
Q 447 1150 447 2328 
Q 447 3434 972 4092 
Q 1497 4750 2381 4750 
Q 2619 4750 2861 4703 
Q 3103 4656 3366 4563 
z
" transform="scale(0.015625)"/>
       </defs>
       <use xlink:href="#DejaVuSans-31"/>
       <use xlink:href="#DejaVuSans-2e" transform="translate(63.623047 0)"/>
       <use xlink:href="#DejaVuSans-36" transform="translate(95.410156 0)"/>
      </g>
     </g>
    </g>
    <g id="ytick_6">
     <g id="line2d_29">
      <path d="M 54.42 75.900443 
L 534.3 75.900443 
" clip-path="url(#pe4aad34166)" style="fill: none; stroke-dasharray: 0.7,1.155; stroke-dashoffset: 0; stroke: #cbd5e1; stroke-width: 0.7"/>
     </g>
     <g id="line2d_30">
      <g>
       <use xlink:href="#m63c7246dc3" x="54.42" y="75.900443" style="stroke: #000000; stroke-width: 0.8"/>
      </g>
     </g>
     <g id="text_6">
      <!-- 1.8 -->
      <g transform="translate(33.107188 79.31974) scale(0.09 -0.09)">
       <use xlink:href="#DejaVuSans-31"/>
       <use xlink:href="#DejaVuSans-2e" transform="translate(63.623047 0)"/>
       <use xlink:href="#DejaVuSans-38" transform="translate(95.410156 0)"/>
      </g>
     </g>
    </g>
    <g id="ytick_7">
     <g id="line2d_31">
      <path d="M 54.42 47.018758 
L 534.3 47.018758 
" clip-path="url(#pe4aad34166)" style="fill: none; stroke-dasharray: 0.7,1.155; stroke-dashoffset: 0; stroke: #cbd5e1; stroke-width: 0.7"/>
     </g>
     <g id="line2d_32">
      <g>
       <use xlink:href="#m63c7246dc3" x="54.42" y="47.018758" style="stroke: #000000; stroke-width: 0.8"/>
      </g>
     </g>
     <g id="text_7">
      <!-- 2.0 -->
      <g transform="translate(33.107188 50.438055) scale(0.09 -0.09)">
       <use xlink:href="#DejaVuSans-32"/>
       <use xlink:href="#DejaVuSans-2e" transform="translate(63.623047 0)"/>
       <use xlink:href="#DejaVuSans-30" transform="translate(95.410156 0)"/>
      </g>
     </g>
    </g>
    <g id="text_8">
     <!-- predicted model reduction -->
     <g transform="translate(26.819531 200.767109) rotate(-90) scale(0.11 -0.11)">
      <defs>
       <path id="DejaVuSans-70" d="M 1159 525 
L 1159 -1331 
L 581 -1331 
L 581 3500 
L 1159 3500 
L 1159 2969 
Q 1341 3281 1617 3432 
Q 1894 3584 2278 3584 
Q 2916 3584 3314 3078 
Q 3713 2572 3713 1747 
Q 3713 922 3314 415 
Q 2916 -91 2278 -91 
Q 1894 -91 1617 61 
Q 1341 213 1159 525 
z
M 3116 1747 
Q 3116 2381 2855 2742 
Q 2594 3103 2138 3103 
Q 1681 3103 1420 2742 
Q 1159 2381 1159 1747 
Q 1159 1113 1420 752 
Q 1681 391 2138 391 
Q 2594 391 2855 752 
Q 3116 1113 3116 1747 
z
" transform="scale(0.015625)"/>
       <path id="DejaVuSans-72" d="M 2631 2963 
Q 2534 3019 2420 3045 
Q 2306 3072 2169 3072 
Q 1681 3072 1420 2755 
Q 1159 2438 1159 1844 
L 1159 0 
L 581 0 
L 581 3500 
L 1159 3500 
L 1159 2956 
Q 1341 3275 1631 3429 
Q 1922 3584 2338 3584 
Q 2397 3584 2469 3576 
Q 2541 3569 2628 3553 
L 2631 2963 
z
" transform="scale(0.015625)"/>
       <path id="DejaVuSans-65" d="M 3597 1894 
L 3597 1613 
L 953 1613 
Q 991 1019 1311 708 
Q 1631 397 2203 397 
Q 2534 397 2845 478 
Q 3156 559 3463 722 
L 3463 178 
Q 3153 47 2828 -22 
Q 2503 -91 2169 -91 
Q 1331 -91 842 396 
Q 353 884 353 1716 
Q 353 2575 817 3079 
Q 1281 3584 2069 3584 
Q 2775 3584 3186 3129 
Q 3597 2675 3597 1894 
z
M 3022 2063 
Q 3016 2534 2758 2815 
Q 2500 3097 2075 3097 
Q 1594 3097 1305 2825 
Q 1016 2553 972 2059 
L 3022 2063 
z
" transform="scale(0.015625)"/>
       <path id="DejaVuSans-64" d="M 2906 2969 
L 2906 4863 
L 3481 4863 
L 3481 0 
L 2906 0 
L 2906 525 
Q 2725 213 2448 61 
Q 2172 -91 1784 -91 
Q 1150 -91 751 415 
Q 353 922 353 1747 
Q 353 2572 751 3078 
Q 1150 3584 1784 3584 
Q 2172 3584 2448 3432 
Q 2725 3281 2906 2969 
z
M 947 1747 
Q 947 1113 1208 752 
Q 1469 391 1925 391 
Q 2381 391 2643 752 
Q 2906 1113 2906 1747 
Q 2906 2381 2643 2742 
Q 2381 3103 1925 3103 
Q 1469 3103 1208 2742 
Q 947 2381 947 1747 
z
" transform="scale(0.015625)"/>
       <path id="DejaVuSans-69" d="M 603 3500 
L 1178 3500 
L 1178 0 
L 603 0 
L 603 3500 
z
M 603 4863 
L 1178 4863 
L 1178 4134 
L 603 4134 
L 603 4863 
z
" transform="scale(0.015625)"/>
       <path id="DejaVuSans-63" d="M 3122 3366 
L 3122 2828 
Q 2878 2963 2633 3030 
Q 2388 3097 2138 3097 
Q 1578 3097 1268 2742 
Q 959 2388 959 1747 
Q 959 1106 1268 751 
Q 1578 397 2138 397 
Q 2388 397 2633 464 
Q 2878 531 3122 666 
L 3122 134 
Q 2881 22 2623 -34 
Q 2366 -91 2075 -91 
Q 1284 -91 818 406 
Q 353 903 353 1747 
Q 353 2603 823 3093 
Q 1294 3584 2113 3584 
Q 2378 3584 2631 3529 
Q 2884 3475 3122 3366 
z
" transform="scale(0.015625)"/>
       <path id="DejaVuSans-74" d="M 1172 4494 
L 1172 3500 
L 2356 3500 
L 2356 3053 
L 1172 3053 
L 1172 1153 
Q 1172 725 1289 603 
Q 1406 481 1766 481 
L 2356 481 
L 2356 0 
L 1766 0 
Q 1100 0 847 248 
Q 594 497 594 1153 
L 594 3053 
L 172 3053 
L 172 3500 
L 594 3500 
L 594 4494 
L 1172 4494 
z
" transform="scale(0.015625)"/>
       <path id="DejaVuSans-20" transform="scale(0.015625)"/>
       <path id="DejaVuSans-6d" d="M 3328 2828 
Q 3544 3216 3844 3400 
Q 4144 3584 4550 3584 
Q 5097 3584 5394 3201 
Q 5691 2819 5691 2113 
L 5691 0 
L 5113 0 
L 5113 2094 
Q 5113 2597 4934 2840 
Q 4756 3084 4391 3084 
Q 3944 3084 3684 2787 
Q 3425 2491 3425 1978 
L 3425 0 
L 2847 0 
L 2847 2094 
Q 2847 2600 2669 2842 
Q 2491 3084 2119 3084 
Q 1678 3084 1418 2786 
Q 1159 2488 1159 1978 
L 1159 0 
L 581 0 
L 581 3500 
L 1159 3500 
L 1159 2956 
Q 1356 3278 1631 3431 
Q 1906 3584 2284 3584 
Q 2666 3584 2933 3390 
Q 3200 3197 3328 2828 
z
" transform="scale(0.015625)"/>
       <path id="DejaVuSans-6f" d="M 1959 3097 
Q 1497 3097 1228 2736 
Q 959 2375 959 1747 
Q 959 1119 1226 758 
Q 1494 397 1959 397 
Q 2419 397 2687 759 
Q 2956 1122 2956 1747 
Q 2956 2369 2687 2733 
Q 2419 3097 1959 3097 
z
M 1959 3584 
Q 2709 3584 3137 3096 
Q 3566 2609 3566 1747 
Q 3566 888 3137 398 
Q 2709 -91 1959 -91 
Q 1206 -91 779 398 
Q 353 888 353 1747 
Q 353 2609 779 3096 
Q 1206 3584 1959 3584 
z
" transform="scale(0.015625)"/>
       <path id="DejaVuSans-6c" d="M 603 4863 
L 1178 4863 
L 1178 0 
L 603 0 
L 603 4863 
z
" transform="scale(0.015625)"/>
       <path id="DejaVuSans-75" d="M 544 1381 
L 544 3500 
L 1119 3500 
L 1119 1403 
Q 1119 906 1312 657 
Q 1506 409 1894 409 
Q 2359 409 2629 706 
Q 2900 1003 2900 1516 
L 2900 3500 
L 3475 3500 
L 3475 0 
L 2900 0 
L 2900 538 
Q 2691 219 2414 64 
Q 2138 -91 1772 -91 
Q 1169 -91 856 284 
Q 544 659 544 1381 
z
M 1991 3584 
L 1991 3584 
z
" transform="scale(0.015625)"/>
       <path id="DejaVuSans-6e" d="M 3513 2113 
L 3513 0 
L 2938 0 
L 2938 2094 
Q 2938 2591 2744 2837 
Q 2550 3084 2163 3084 
Q 1697 3084 1428 2787 
Q 1159 2491 1159 1978 
L 1159 0 
L 581 0 
L 581 3500 
L 1159 3500 
L 1159 2956 
Q 1366 3272 1645 3428 
Q 1925 3584 2291 3584 
Q 2894 3584 3203 3211 
Q 3513 2838 3513 2113 
z
" transform="scale(0.015625)"/>
      </defs>
      <use xlink:href="#DejaVuSans-70"/>
      <use xlink:href="#DejaVuSans-72" transform="translate(63.476562 0)"/>
      <use xlink:href="#DejaVuSans-65" transform="translate(102.339844 0)"/>
      <use xlink:href="#DejaVuSans-64" transform="translate(163.863281 0)"/>
      <use xlink:href="#DejaVuSans-69" transform="translate(227.339844 0)"/>
      <use xlink:href="#DejaVuSans-63" transform="translate(255.123047 0)"/>
      <use xlink:href="#DejaVuSans-74" transform="translate(310.103516 0)"/>
      <use xlink:href="#DejaVuSans-65" transform="translate(349.3125 0)"/>
      <use xlink:href="#DejaVuSans-64" transform="translate(410.835938 0)"/>
      <use xlink:href="#DejaVuSans-20" transform="translate(474.3125 0)"/>
      <use xlink:href="#DejaVuSans-6d" transform="translate(506.099609 0)"/>
      <use xlink:href="#DejaVuSans-6f" transform="translate(603.511719 0)"/>
      <use xlink:href="#DejaVuSans-64" transform="translate(664.693359 0)"/>
      <use xlink:href="#DejaVuSans-65" transform="translate(728.169922 0)"/>
      <use xlink:href="#DejaVuSans-6c" transform="translate(789.693359 0)"/>
      <use xlink:href="#DejaVuSans-20" transform="translate(817.476562 0)"/>
      <use xlink:href="#DejaVuSans-72" transform="translate(849.263672 0)"/>
      <use xlink:href="#DejaVuSans-65" transform="translate(888.126953 0)"/>
      <use xlink:href="#DejaVuSans-64" transform="translate(949.650391 0)"/>
      <use xlink:href="#DejaVuSans-75" transform="translate(1013.126953 0)"/>
      <use xlink:href="#DejaVuSans-63" transform="translate(1076.505859 0)"/>
      <use xlink:href="#DejaVuSans-74" transform="translate(1131.486328 0)"/>
      <use xlink:href="#DejaVuSans-69" transform="translate(1170.695312 0)"/>
      <use xlink:href="#DejaVuSans-6f" transform="translate(1198.478516 0)"/>
      <use xlink:href="#DejaVuSans-6e" transform="translate(1259.660156 0)"/>
     </g>
    </g>
   </g>
   <g id="line2d_33">
    <path d="M 76.232727 222.688722 
L 130.764545 60.863505 
L 185.296364 50.299665 
L 239.828182 40.873891 
L 294.36 34.712911 
L 348.891818 33.480121 
L 403.423636 33.319173 
L 457.955455 33.307231 
L 512.487273 33.306903 
" clip-path="url(#pe4aad34166)" style="fill: none; stroke: #2563eb; stroke-width: 2.5; stroke-linecap: square"/>
    <defs>
     <path id="mb73a2b5f52" d="M 0 3 
C 0.795609 3 1.55874 2.683901 2.12132 2.12132 
C 2.683901 1.55874 3 0.795609 3 0 
C 3 -0.795609 2.683901 -1.55874 2.12132 -2.12132 
C 1.55874 -2.683901 0.795609 -3 0 -3 
C -0.795609 -3 -1.55874 -2.683901 -2.12132 -2.12132 
C -2.683901 -1.55874 -3 -0.795609 -3 0 
C -3 0.795609 -2.683901 1.55874 -2.12132 2.12132 
C -1.55874 2.683901 -0.795609 3 0 3 
z
" style="stroke: #2563eb"/>
    </defs>
    <g clip-path="url(#pe4aad34166)">
     <use xlink:href="#mb73a2b5f52" x="76.232727" y="222.688722" style="fill: #2563eb; stroke: #2563eb"/>
     <use xlink:href="#mb73a2b5f52" x="130.764545" y="60.863505" style="fill: #2563eb; stroke: #2563eb"/>
     <use xlink:href="#mb73a2b5f52" x="185.296364" y="50.299665" style="fill: #2563eb; stroke: #2563eb"/>
     <use xlink:href="#mb73a2b5f52" x="239.828182" y="40.873891" style="fill: #2563eb; stroke: #2563eb"/>
     <use xlink:href="#mb73a2b5f52" x="294.36" y="34.712911" style="fill: #2563eb; stroke: #2563eb"/>
     <use xlink:href="#mb73a2b5f52" x="348.891818" y="33.480121" style="fill: #2563eb; stroke: #2563eb"/>
     <use xlink:href="#mb73a2b5f52" x="403.423636" y="33.319173" style="fill: #2563eb; stroke: #2563eb"/>
     <use xlink:href="#mb73a2b5f52" x="457.955455" y="33.307231" style="fill: #2563eb; stroke: #2563eb"/>
     <use xlink:href="#mb73a2b5f52" x="512.487273" y="33.306903" style="fill: #2563eb; stroke: #2563eb"/>
    </g>
   </g>
   <g id="line2d_34">
    <path d="M 54.42 33.306903 
L 534.3 33.306903 
" clip-path="url(#pe4aad34166)" style="fill: none; stroke-dasharray: 4.07,1.76; stroke-dashoffset: 0; stroke: #111827; stroke-width: 1.1"/>
   </g>
   <g id="patch_3">
    <path d="M 54.42 232.157813 
L 54.42 23.837812 
" style="fill: none; stroke: #000000; stroke-width: 0.8; stroke-linejoin: miter; stroke-linecap: square"/>
   </g>
   <g id="patch_4">
    <path d="M 54.42 232.157813 
L 534.3 232.157813 
" style="fill: none; stroke: #000000; stroke-width: 0.8; stroke-linejoin: miter; stroke-linecap: square"/>
   </g>
   <g id="text_9">
    <!-- Projected trust-region solves improve with Krylov dimension -->
    <g transform="translate(83.479531 17.837812) scale(0.14 -0.14)">
     <defs>
      <path id="DejaVuSans-50" d="M 1259 4147 
L 1259 2394 
L 2053 2394 
Q 2494 2394 2734 2622 
Q 2975 2850 2975 3272 
Q 2975 3691 2734 3919 
Q 2494 4147 2053 4147 
L 1259 4147 
z
M 628 4666 
L 2053 4666 
Q 2838 4666 3239 4311 
Q 3641 3956 3641 3272 
Q 3641 2581 3239 2228 
Q 2838 1875 2053 1875 
L 1259 1875 
L 1259 0 
L 628 0 
L 628 4666 
z
" transform="scale(0.015625)"/>
      <path id="DejaVuSans-6a" d="M 603 3500 
L 1178 3500 
L 1178 -63 
Q 1178 -731 923 -1031 
Q 669 -1331 103 -1331 
L -116 -1331 
L -116 -844 
L 38 -844 
Q 366 -844 484 -692 
Q 603 -541 603 -63 
L 603 3500 
z
M 603 4863 
L 1178 4863 
L 1178 4134 
L 603 4134 
L 603 4863 
z
" transform="scale(0.015625)"/>
      <path id="DejaVuSans-73" d="M 2834 3397 
L 2834 2853 
Q 2591 2978 2328 3040 
Q 2066 3103 1784 3103 
Q 1356 3103 1142 2972 
Q 928 2841 928 2578 
Q 928 2378 1081 2264 
Q 1234 2150 1697 2047 
L 1894 2003 
Q 2506 1872 2764 1633 
Q 3022 1394 3022 966 
Q 3022 478 2636 193 
Q 2250 -91 1575 -91 
Q 1294 -91 989 -36 
Q 684 19 347 128 
L 347 722 
Q 666 556 975 473 
Q 1284 391 1588 391 
Q 1994 391 2212 530 
Q 2431 669 2431 922 
Q 2431 1156 2273 1281 
Q 2116 1406 1581 1522 
L 1381 1569 
Q 847 1681 609 1914 
Q 372 2147 372 2553 
Q 372 3047 722 3315 
Q 1072 3584 1716 3584 
Q 2034 3584 2315 3537 
Q 2597 3491 2834 3397 
z
" transform="scale(0.015625)"/>
      <path id="DejaVuSans-2d" d="M 313 2009 
L 1997 2009 
L 1997 1497 
L 313 1497 
L 313 2009 
z
" transform="scale(0.015625)"/>
      <path id="DejaVuSans-67" d="M 2906 1791 
Q 2906 2416 2648 2759 
Q 2391 3103 1925 3103 
Q 1463 3103 1205 2759 
Q 947 2416 947 1791 
Q 947 1169 1205 825 
Q 1463 481 1925 481 
Q 2391 481 2648 825 
Q 2906 1169 2906 1791 
z
M 3481 434 
Q 3481 -459 3084 -895 
Q 2688 -1331 1869 -1331 
Q 1566 -1331 1297 -1286 
Q 1028 -1241 775 -1147 
L 775 -588 
Q 1028 -725 1275 -790 
Q 1522 -856 1778 -856 
Q 2344 -856 2625 -561 
Q 2906 -266 2906 331 
L 2906 616 
Q 2728 306 2450 153 
Q 2172 0 1784 0 
Q 1141 0 747 490 
Q 353 981 353 1791 
Q 353 2603 747 3093 
Q 1141 3584 1784 3584 
Q 2172 3584 2450 3431 
Q 2728 3278 2906 2969 
L 2906 3500 
L 3481 3500 
L 3481 434 
z
" transform="scale(0.015625)"/>
      <path id="DejaVuSans-76" d="M 191 3500 
L 800 3500 
L 1894 563 
L 2988 3500 
L 3597 3500 
L 2284 0 
L 1503 0 
L 191 3500 
z
" transform="scale(0.015625)"/>
      <path id="DejaVuSans-77" d="M 269 3500 
L 844 3500 
L 1563 769 
L 2278 3500 
L 2956 3500 
L 3675 769 
L 4391 3500 
L 4966 3500 
L 4050 0 
L 3372 0 
L 2619 2869 
L 1863 0 
L 1184 0 
L 269 3500 
z
" transform="scale(0.015625)"/>
      <path id="DejaVuSans-68" d="M 3513 2113 
L 3513 0 
L 2938 0 
L 2938 2094 
Q 2938 2591 2744 2837 
Q 2550 3084 2163 3084 
Q 1697 3084 1428 2787 
Q 1159 2491 1159 1978 
L 1159 0 
L 581 0 
L 581 4863 
L 1159 4863 
L 1159 2956 
Q 1366 3272 1645 3428 
Q 1925 3584 2291 3584 
Q 2894 3584 3203 3211 
Q 3513 2838 3513 2113 
z
" transform="scale(0.015625)"/>
      <path id="DejaVuSans-4b" d="M 628 4666 
L 1259 4666 
L 1259 2694 
L 3353 4666 
L 4166 4666 
L 1850 2491 
L 4331 0 
L 3500 0 
L 1259 2247 
L 1259 0 
L 628 0 
L 628 4666 
z
" transform="scale(0.015625)"/>
      <path id="DejaVuSans-79" d="M 2059 -325 
Q 1816 -950 1584 -1140 
Q 1353 -1331 966 -1331 
L 506 -1331 
L 506 -850 
L 844 -850 
Q 1081 -850 1212 -737 
Q 1344 -625 1503 -206 
L 1606 56 
L 191 3500 
L 800 3500 
L 1894 763 
L 2988 3500 
L 3597 3500 
L 2059 -325 
z
" transform="scale(0.015625)"/>
     </defs>
     <use xlink:href="#DejaVuSans-50"/>
     <use xlink:href="#DejaVuSans-72" transform="translate(58.552734 0)"/>
     <use xlink:href="#DejaVuSans-6f" transform="translate(97.416016 0)"/>
     <use xlink:href="#DejaVuSans-6a" transform="translate(158.597656 0)"/>
     <use xlink:href="#DejaVuSans-65" transform="translate(186.380859 0)"/>
     <use xlink:href="#DejaVuSans-63" transform="translate(247.904297 0)"/>
     <use xlink:href="#DejaVuSans-74" transform="translate(302.884766 0)"/>
     <use xlink:href="#DejaVuSans-65" transform="translate(342.09375 0)"/>
     <use xlink:href="#DejaVuSans-64" transform="translate(403.617188 0)"/>
     <use xlink:href="#DejaVuSans-20" transform="translate(467.09375 0)"/>
     <use xlink:href="#DejaVuSans-74" transform="translate(498.880859 0)"/>
     <use xlink:href="#DejaVuSans-72" transform="translate(538.089844 0)"/>
     <use xlink:href="#DejaVuSans-75" transform="translate(579.203125 0)"/>
     <use xlink:href="#DejaVuSans-73" transform="translate(642.582031 0)"/>
     <use xlink:href="#DejaVuSans-74" transform="translate(694.681641 0)"/>
     <use xlink:href="#DejaVuSans-2d" transform="translate(733.890625 0)"/>
     <use xlink:href="#DejaVuSans-72" transform="translate(769.974609 0)"/>
     <use xlink:href="#DejaVuSans-65" transform="translate(808.837891 0)"/>
     <use xlink:href="#DejaVuSans-67" transform="translate(870.361328 0)"/>
     <use xlink:href="#DejaVuSans-69" transform="translate(933.837891 0)"/>
     <use xlink:href="#DejaVuSans-6f" transform="translate(961.621094 0)"/>
     <use xlink:href="#DejaVuSans-6e" transform="translate(1022.802734 0)"/>
     <use xlink:href="#DejaVuSans-20" transform="translate(1086.181641 0)"/>
     <use xlink:href="#DejaVuSans-73" transform="translate(1117.96875 0)"/>
     <use xlink:href="#DejaVuSans-6f" transform="translate(1170.068359 0)"/>
     <use xlink:href="#DejaVuSans-6c" transform="translate(1231.25 0)"/>
     <use xlink:href="#DejaVuSans-76" transform="translate(1259.033203 0)"/>
     <use xlink:href="#DejaVuSans-65" transform="translate(1318.212891 0)"/>
     <use xlink:href="#DejaVuSans-73" transform="translate(1379.736328 0)"/>
     <use xlink:href="#DejaVuSans-20" transform="translate(1431.835938 0)"/>
     <use xlink:href="#DejaVuSans-69" transform="translate(1463.623047 0)"/>
     <use xlink:href="#DejaVuSans-6d" transform="translate(1491.40625 0)"/>
     <use xlink:href="#DejaVuSans-70" transform="translate(1588.818359 0)"/>
     <use xlink:href="#DejaVuSans-72" transform="translate(1652.294922 0)"/>
     <use xlink:href="#DejaVuSans-6f" transform="translate(1691.158203 0)"/>
     <use xlink:href="#DejaVuSans-76" transform="translate(1752.339844 0)"/>
     <use xlink:href="#DejaVuSans-65" transform="translate(1811.519531 0)"/>
     <use xlink:href="#DejaVuSans-20" transform="translate(1873.042969 0)"/>
     <use xlink:href="#DejaVuSans-77" transform="translate(1904.830078 0)"/>
     <use xlink:href="#DejaVuSans-69" transform="translate(1986.617188 0)"/>
     <use xlink:href="#DejaVuSans-74" transform="translate(2014.400391 0)"/>
     <use xlink:href="#DejaVuSans-68" transform="translate(2053.609375 0)"/>
     <use xlink:href="#DejaVuSans-20" transform="translate(2116.988281 0)"/>
     <use xlink:href="#DejaVuSans-4b" transform="translate(2148.775391 0)"/>
     <use xlink:href="#DejaVuSans-72" transform="translate(2214.351562 0)"/>
     <use xlink:href="#DejaVuSans-79" transform="translate(2255.464844 0)"/>
     <use xlink:href="#DejaVuSans-6c" transform="translate(2314.644531 0)"/>
     <use xlink:href="#DejaVuSans-6f" transform="translate(2342.427734 0)"/>
     <use xlink:href="#DejaVuSans-76" transform="translate(2403.609375 0)"/>
     <use xlink:href="#DejaVuSans-20" transform="translate(2462.789062 0)"/>
     <use xlink:href="#DejaVuSans-64" transform="translate(2494.576172 0)"/>
     <use xlink:href="#DejaVuSans-69" transform="translate(2558.052734 0)"/>
     <use xlink:href="#DejaVuSans-6d" transform="translate(2585.835938 0)"/>
     <use xlink:href="#DejaVuSans-65" transform="translate(2683.248047 0)"/>
     <use xlink:href="#DejaVuSans-6e" transform="translate(2744.771484 0)"/>
     <use xlink:href="#DejaVuSans-73" transform="translate(2808.150391 0)"/>
     <use xlink:href="#DejaVuSans-69" transform="translate(2860.25 0)"/>
     <use xlink:href="#DejaVuSans-6f" transform="translate(2888.033203 0)"/>
     <use xlink:href="#DejaVuSans-6e" transform="translate(2949.214844 0)"/>
    </g>
   </g>
   <g id="legend_1">
    <g id="line2d_35">
     <path d="M 371.796875 202.9 
L 381.796875 202.9 
L 391.796875 202.9 
" style="fill: none; stroke: #2563eb; stroke-width: 2.5; stroke-linecap: square"/>
     <g>
      <use xlink:href="#mb73a2b5f52" x="381.796875" y="202.9" style="fill: #2563eb; stroke: #2563eb"/>
     </g>
    </g>
    <g id="text_10">
     <!-- Krylov-restricted solution -->
     <g transform="translate(399.796875 206.4) scale(0.1 -0.1)">
      <use xlink:href="#DejaVuSans-4b"/>
      <use xlink:href="#DejaVuSans-72" transform="translate(65.576172 0)"/>
      <use xlink:href="#DejaVuSans-79" transform="translate(106.689453 0)"/>
      <use xlink:href="#DejaVuSans-6c" transform="translate(165.869141 0)"/>
      <use xlink:href="#DejaVuSans-6f" transform="translate(193.652344 0)"/>
      <use xlink:href="#DejaVuSans-76" transform="translate(254.833984 0)"/>
      <use xlink:href="#DejaVuSans-2d" transform="translate(311.388672 0)"/>
      <use xlink:href="#DejaVuSans-72" transform="translate(347.472656 0)"/>
      <use xlink:href="#DejaVuSans-65" transform="translate(386.335938 0)"/>
      <use xlink:href="#DejaVuSans-73" transform="translate(447.859375 0)"/>
      <use xlink:href="#DejaVuSans-74" transform="translate(499.958984 0)"/>
      <use xlink:href="#DejaVuSans-72" transform="translate(539.167969 0)"/>
      <use xlink:href="#DejaVuSans-69" transform="translate(580.28125 0)"/>
      <use xlink:href="#DejaVuSans-63" transform="translate(608.064453 0)"/>
      <use xlink:href="#DejaVuSans-74" transform="translate(663.044922 0)"/>
      <use xlink:href="#DejaVuSans-65" transform="translate(702.253906 0)"/>
      <use xlink:href="#DejaVuSans-64" transform="translate(763.777344 0)"/>
      <use xlink:href="#DejaVuSans-20" transform="translate(827.253906 0)"/>
      <use xlink:href="#DejaVuSans-73" transform="translate(859.041016 0)"/>
      <use xlink:href="#DejaVuSans-6f" transform="translate(911.140625 0)"/>
      <use xlink:href="#DejaVuSans-6c" transform="translate(972.322266 0)"/>
      <use xlink:href="#DejaVuSans-75" transform="translate(1000.105469 0)"/>
      <use xlink:href="#DejaVuSans-74" transform="translate(1063.484375 0)"/>
      <use xlink:href="#DejaVuSans-69" transform="translate(1102.693359 0)"/>
      <use xlink:href="#DejaVuSans-6f" transform="translate(1130.476562 0)"/>
      <use xlink:href="#DejaVuSans-6e" transform="translate(1191.658203 0)"/>
     </g>
    </g>
    <g id="line2d_36">
     <path d="M 371.796875 217.578125 
L 381.796875 217.578125 
L 391.796875 217.578125 
" style="fill: none; stroke-dasharray: 4.07,1.76; stroke-dashoffset: 0; stroke: #111827; stroke-width: 1.1"/>
    </g>
    <g id="text_11">
     <!-- full-space trust solution -->
     <g transform="translate(399.796875 221.078125) scale(0.1 -0.1)">
      <defs>
       <path id="DejaVuSans-66" d="M 2375 4863 
L 2375 4384 
L 1825 4384 
Q 1516 4384 1395 4259 
Q 1275 4134 1275 3809 
L 1275 3500 
L 2222 3500 
L 2222 3053 
L 1275 3053 
L 1275 0 
L 697 0 
L 697 3053 
L 147 3053 
L 147 3500 
L 697 3500 
L 697 3744 
Q 697 4328 969 4595 
Q 1241 4863 1831 4863 
L 2375 4863 
z
" transform="scale(0.015625)"/>
       <path id="DejaVuSans-61" d="M 2194 1759 
Q 1497 1759 1228 1600 
Q 959 1441 959 1056 
Q 959 750 1161 570 
Q 1363 391 1709 391 
Q 2188 391 2477 730 
Q 2766 1069 2766 1631 
L 2766 1759 
L 2194 1759 
z
M 3341 1997 
L 3341 0 
L 2766 0 
L 2766 531 
Q 2569 213 2275 61 
Q 1981 -91 1556 -91 
Q 1019 -91 701 211 
Q 384 513 384 1019 
Q 384 1609 779 1909 
Q 1175 2209 1959 2209 
L 2766 2209 
L 2766 2266 
Q 2766 2663 2505 2880 
Q 2244 3097 1772 3097 
Q 1472 3097 1187 3025 
Q 903 2953 641 2809 
L 641 3341 
Q 956 3463 1253 3523 
Q 1550 3584 1831 3584 
Q 2591 3584 2966 3190 
Q 3341 2797 3341 1997 
z
" transform="scale(0.015625)"/>
      </defs>
      <use xlink:href="#DejaVuSans-66"/>
      <use xlink:href="#DejaVuSans-75" transform="translate(35.205078 0)"/>
      <use xlink:href="#DejaVuSans-6c" transform="translate(98.583984 0)"/>
      <use xlink:href="#DejaVuSans-6c" transform="translate(126.367188 0)"/>
      <use xlink:href="#DejaVuSans-2d" transform="translate(154.150391 0)"/>
      <use xlink:href="#DejaVuSans-73" transform="translate(190.234375 0)"/>
      <use xlink:href="#DejaVuSans-70" transform="translate(242.333984 0)"/>
      <use xlink:href="#DejaVuSans-61" transform="translate(305.810547 0)"/>
      <use xlink:href="#DejaVuSans-63" transform="translate(367.089844 0)"/>
      <use xlink:href="#DejaVuSans-65" transform="translate(422.070312 0)"/>
      <use xlink:href="#DejaVuSans-20" transform="translate(483.59375 0)"/>
      <use xlink:href="#DejaVuSans-74" transform="translate(515.380859 0)"/>
      <use xlink:href="#DejaVuSans-72" transform="translate(554.589844 0)"/>
      <use xlink:href="#DejaVuSans-75" transform="translate(595.703125 0)"/>
      <use xlink:href="#DejaVuSans-73" transform="translate(659.082031 0)"/>
      <use xlink:href="#DejaVuSans-74" transform="translate(711.181641 0)"/>
      <use xlink:href="#DejaVuSans-20" transform="translate(750.390625 0)"/>
      <use xlink:href="#DejaVuSans-73" transform="translate(782.177734 0)"/>
      <use xlink:href="#DejaVuSans-6f" transform="translate(834.277344 0)"/>
      <use xlink:href="#DejaVuSans-6c" transform="translate(895.458984 0)"/>
      <use xlink:href="#DejaVuSans-75" transform="translate(923.242188 0)"/>
      <use xlink:href="#DejaVuSans-74" transform="translate(986.621094 0)"/>
      <use xlink:href="#DejaVuSans-69" transform="translate(1025.830078 0)"/>
      <use xlink:href="#DejaVuSans-6f" transform="translate(1053.613281 0)"/>
      <use xlink:href="#DejaVuSans-6e" transform="translate(1114.794922 0)"/>
     </g>
    </g>
   </g>
  </g>
  <g id="axes_2">
   <g id="patch_5">
    <path d="M 54.42 367.565812 
L 534.3 367.565812 
L 534.3 263.405813 
L 54.42 263.405813 
z
" style="fill: #ffffff"/>
   </g>
   <g id="matplotlib.axis_3">
    <g id="xtick_10">
     <g id="line2d_37">
      <path d="M 76.232727 367.565812 
L 76.232727 263.405813 
" clip-path="url(#pe1c52934cd)" style="fill: none; stroke-dasharray: 0.7,1.155; stroke-dashoffset: 0; stroke: #cbd5e1; stroke-width: 0.7"/>
     </g>
     <g id="line2d_38">
      <g>
       <use xlink:href="#m61cd741775" x="76.232727" y="367.565812" style="stroke: #000000; stroke-width: 0.8"/>
      </g>
     </g>
     <g id="text_12">
      <!-- 1 -->
      <g transform="translate(73.369602 381.404406) scale(0.09 -0.09)">
       <use xlink:href="#DejaVuSans-31"/>
      </g>
     </g>
    </g>
    <g id="xtick_11">
     <g id="line2d_39">
      <path d="M 130.764545 367.565812 
L 130.764545 263.405813 
" clip-path="url(#pe1c52934cd)" style="fill: none; stroke-dasharray: 0.7,1.155; stroke-dashoffset: 0; stroke: #cbd5e1; stroke-width: 0.7"/>
     </g>
     <g id="line2d_40">
      <g>
       <use xlink:href="#m61cd741775" x="130.764545" y="367.565812" style="stroke: #000000; stroke-width: 0.8"/>
      </g>
     </g>
     <g id="text_13">
      <!-- 2 -->
      <g transform="translate(127.90142 381.404406) scale(0.09 -0.09)">
       <use xlink:href="#DejaVuSans-32"/>
      </g>
     </g>
    </g>
    <g id="xtick_12">
     <g id="line2d_41">
      <path d="M 185.296364 367.565812 
L 185.296364 263.405813 
" clip-path="url(#pe1c52934cd)" style="fill: none; stroke-dasharray: 0.7,1.155; stroke-dashoffset: 0; stroke: #cbd5e1; stroke-width: 0.7"/>
     </g>
     <g id="line2d_42">
      <g>
       <use xlink:href="#m61cd741775" x="185.296364" y="367.565812" style="stroke: #000000; stroke-width: 0.8"/>
      </g>
     </g>
     <g id="text_14">
      <!-- 3 -->
      <g transform="translate(182.433239 381.404406) scale(0.09 -0.09)">
       <defs>
        <path id="DejaVuSans-33" d="M 2597 2516 
Q 3050 2419 3304 2112 
Q 3559 1806 3559 1356 
Q 3559 666 3084 287 
Q 2609 -91 1734 -91 
Q 1441 -91 1130 -33 
Q 819 25 488 141 
L 488 750 
Q 750 597 1062 519 
Q 1375 441 1716 441 
Q 2309 441 2620 675 
Q 2931 909 2931 1356 
Q 2931 1769 2642 2001 
Q 2353 2234 1838 2234 
L 1294 2234 
L 1294 2753 
L 1863 2753 
Q 2328 2753 2575 2939 
Q 2822 3125 2822 3475 
Q 2822 3834 2567 4026 
Q 2313 4219 1838 4219 
Q 1578 4219 1281 4162 
Q 984 4106 628 3988 
L 628 4550 
Q 988 4650 1302 4700 
Q 1616 4750 1894 4750 
Q 2613 4750 3031 4423 
Q 3450 4097 3450 3541 
Q 3450 3153 3228 2886 
Q 3006 2619 2597 2516 
z
" transform="scale(0.015625)"/>
       </defs>
       <use xlink:href="#DejaVuSans-33"/>
      </g>
     </g>
    </g>
    <g id="xtick_13">
     <g id="line2d_43">
      <path d="M 239.828182 367.565812 
L 239.828182 263.405813 
" clip-path="url(#pe1c52934cd)" style="fill: none; stroke-dasharray: 0.7,1.155; stroke-dashoffset: 0; stroke: #cbd5e1; stroke-width: 0.7"/>
     </g>
     <g id="line2d_44">
      <g>
       <use xlink:href="#m61cd741775" x="239.828182" y="367.565812" style="stroke: #000000; stroke-width: 0.8"/>
      </g>
     </g>
     <g id="text_15">
      <!-- 4 -->
      <g transform="translate(236.965057 381.404406) scale(0.09 -0.09)">
       <use xlink:href="#DejaVuSans-34"/>
      </g>
     </g>
    </g>
    <g id="xtick_14">
     <g id="line2d_45">
      <path d="M 294.36 367.565812 
L 294.36 263.405813 
" clip-path="url(#pe1c52934cd)" style="fill: none; stroke-dasharray: 0.7,1.155; stroke-dashoffset: 0; stroke: #cbd5e1; stroke-width: 0.7"/>
     </g>
     <g id="line2d_46">
      <g>
       <use xlink:href="#m61cd741775" x="294.36" y="367.565812" style="stroke: #000000; stroke-width: 0.8"/>
      </g>
     </g>
     <g id="text_16">
      <!-- 5 -->
      <g transform="translate(291.496875 381.404406) scale(0.09 -0.09)">
       <defs>
        <path id="DejaVuSans-35" d="M 691 4666 
L 3169 4666 
L 3169 4134 
L 1269 4134 
L 1269 2991 
Q 1406 3038 1543 3061 
Q 1681 3084 1819 3084 
Q 2600 3084 3056 2656 
Q 3513 2228 3513 1497 
Q 3513 744 3044 326 
Q 2575 -91 1722 -91 
Q 1428 -91 1123 -41 
Q 819 9 494 109 
L 494 744 
Q 775 591 1075 516 
Q 1375 441 1709 441 
Q 2250 441 2565 725 
Q 2881 1009 2881 1497 
Q 2881 1984 2565 2268 
Q 2250 2553 1709 2553 
Q 1456 2553 1204 2497 
Q 953 2441 691 2322 
L 691 4666 
z
" transform="scale(0.015625)"/>
       </defs>
       <use xlink:href="#DejaVuSans-35"/>
      </g>
     </g>
    </g>
    <g id="xtick_15">
     <g id="line2d_47">
      <path d="M 348.891818 367.565812 
L 348.891818 263.405813 
" clip-path="url(#pe1c52934cd)" style="fill: none; stroke-dasharray: 0.7,1.155; stroke-dashoffset: 0; stroke: #cbd5e1; stroke-width: 0.7"/>
     </g>
     <g id="line2d_48">
      <g>
       <use xlink:href="#m61cd741775" x="348.891818" y="367.565812" style="stroke: #000000; stroke-width: 0.8"/>
      </g>
     </g>
     <g id="text_17">
      <!-- 6 -->
      <g transform="translate(346.028693 381.404406) scale(0.09 -0.09)">
       <use xlink:href="#DejaVuSans-36"/>
      </g>
     </g>
    </g>
    <g id="xtick_16">
     <g id="line2d_49">
      <path d="M 403.423636 367.565812 
L 403.423636 263.405813 
" clip-path="url(#pe1c52934cd)" style="fill: none; stroke-dasharray: 0.7,1.155; stroke-dashoffset: 0; stroke: #cbd5e1; stroke-width: 0.7"/>
     </g>
     <g id="line2d_50">
      <g>
       <use xlink:href="#m61cd741775" x="403.423636" y="367.565812" style="stroke: #000000; stroke-width: 0.8"/>
      </g>
     </g>
     <g id="text_18">
      <!-- 7 -->
      <g transform="translate(400.560511 381.404406) scale(0.09 -0.09)">
       <defs>
        <path id="DejaVuSans-37" d="M 525 4666 
L 3525 4666 
L 3525 4397 
L 1831 0 
L 1172 0 
L 2766 4134 
L 525 4134 
L 525 4666 
z
" transform="scale(0.015625)"/>
       </defs>
       <use xlink:href="#DejaVuSans-37"/>
      </g>
     </g>
    </g>
    <g id="xtick_17">
     <g id="line2d_51">
      <path d="M 457.955455 367.565812 
L 457.955455 263.405813 
" clip-path="url(#pe1c52934cd)" style="fill: none; stroke-dasharray: 0.7,1.155; stroke-dashoffset: 0; stroke: #cbd5e1; stroke-width: 0.7"/>
     </g>
     <g id="line2d_52">
      <g>
       <use xlink:href="#m61cd741775" x="457.955455" y="367.565812" style="stroke: #000000; stroke-width: 0.8"/>
      </g>
     </g>
     <g id="text_19">
      <!-- 8 -->
      <g transform="translate(455.09233 381.404406) scale(0.09 -0.09)">
       <use xlink:href="#DejaVuSans-38"/>
      </g>
     </g>
    </g>
    <g id="xtick_18">
     <g id="line2d_53">
      <path d="M 512.487273 367.565812 
L 512.487273 263.405813 
" clip-path="url(#pe1c52934cd)" style="fill: none; stroke-dasharray: 0.7,1.155; stroke-dashoffset: 0; stroke: #cbd5e1; stroke-width: 0.7"/>
     </g>
     <g id="line2d_54">
      <g>
       <use xlink:href="#m61cd741775" x="512.487273" y="367.565812" style="stroke: #000000; stroke-width: 0.8"/>
      </g>
     </g>
     <g id="text_20">
      <!-- 9 -->
      <g transform="translate(509.624148 381.404406) scale(0.09 -0.09)">
       <defs>
        <path id="DejaVuSans-39" d="M 703 97 
L 703 672 
Q 941 559 1184 500 
Q 1428 441 1663 441 
Q 2288 441 2617 861 
Q 2947 1281 2994 2138 
Q 2813 1869 2534 1725 
Q 2256 1581 1919 1581 
Q 1219 1581 811 2004 
Q 403 2428 403 3163 
Q 403 3881 828 4315 
Q 1253 4750 1959 4750 
Q 2769 4750 3195 4129 
Q 3622 3509 3622 2328 
Q 3622 1225 3098 567 
Q 2575 -91 1691 -91 
Q 1453 -91 1209 -44 
Q 966 3 703 97 
z
M 1959 2075 
Q 2384 2075 2632 2365 
Q 2881 2656 2881 3163 
Q 2881 3666 2632 3958 
Q 2384 4250 1959 4250 
Q 1534 4250 1286 3958 
Q 1038 3666 1038 3163 
Q 1038 2656 1286 2365 
Q 1534 2075 1959 2075 
z
" transform="scale(0.015625)"/>
       </defs>
       <use xlink:href="#DejaVuSans-39"/>
      </g>
     </g>
    </g>
    <g id="text_21">
     <!-- Krylov dimension $m$ -->
     <g transform="translate(239.69 395.636125) scale(0.11 -0.11)">
      <defs>
       <path id="DejaVuSans-Oblique-6d" d="M 5747 2113 
L 5338 0 
L 4763 0 
L 5166 2094 
Q 5191 2228 5203 2325 
Q 5216 2422 5216 2491 
Q 5216 2772 5059 2928 
Q 4903 3084 4622 3084 
Q 4203 3084 3875 2770 
Q 3547 2456 3450 1953 
L 3066 0 
L 2491 0 
L 2900 2094 
Q 2925 2209 2937 2307 
Q 2950 2406 2950 2484 
Q 2950 2769 2794 2926 
Q 2638 3084 2363 3084 
Q 1938 3084 1609 2770 
Q 1281 2456 1184 1953 
L 800 0 
L 225 0 
L 909 3500 
L 1484 3500 
L 1375 2956 
Q 1609 3263 1923 3423 
Q 2238 3584 2597 3584 
Q 2978 3584 3223 3384 
Q 3469 3184 3519 2828 
Q 3781 3197 4126 3390 
Q 4472 3584 4856 3584 
Q 5306 3584 5551 3325 
Q 5797 3066 5797 2591 
Q 5797 2488 5784 2364 
Q 5772 2241 5747 2113 
z
" transform="scale(0.015625)"/>
      </defs>
      <use xlink:href="#DejaVuSans-4b" transform="translate(0 0.015625)"/>
      <use xlink:href="#DejaVuSans-72" transform="translate(65.576172 0.015625)"/>
      <use xlink:href="#DejaVuSans-79" transform="translate(106.689453 0.015625)"/>
      <use xlink:href="#DejaVuSans-6c" transform="translate(165.869141 0.015625)"/>
      <use xlink:href="#DejaVuSans-6f" transform="translate(193.652344 0.015625)"/>
      <use xlink:href="#DejaVuSans-76" transform="translate(254.833984 0.015625)"/>
      <use xlink:href="#DejaVuSans-20" transform="translate(314.013672 0.015625)"/>
      <use xlink:href="#DejaVuSans-64" transform="translate(345.800781 0.015625)"/>
      <use xlink:href="#DejaVuSans-69" transform="translate(409.277344 0.015625)"/>
      <use xlink:href="#DejaVuSans-6d" transform="translate(437.060547 0.015625)"/>
      <use xlink:href="#DejaVuSans-65" transform="translate(534.472656 0.015625)"/>
      <use xlink:href="#DejaVuSans-6e" transform="translate(595.996094 0.015625)"/>
      <use xlink:href="#DejaVuSans-73" transform="translate(659.375 0.015625)"/>
      <use xlink:href="#DejaVuSans-69" transform="translate(711.474609 0.015625)"/>
      <use xlink:href="#DejaVuSans-6f" transform="translate(739.257812 0.015625)"/>
      <use xlink:href="#DejaVuSans-6e" transform="translate(800.439453 0.015625)"/>
      <use xlink:href="#DejaVuSans-20" transform="translate(863.818359 0.015625)"/>
      <use xlink:href="#DejaVuSans-Oblique-6d" transform="translate(895.605469 0.015625)"/>
     </g>
    </g>
   </g>
   <g id="matplotlib.axis_4">
    <g id="ytick_8">
     <g id="line2d_55">
      <path d="M 54.42 349.069824 
L 534.3 349.069824 
" clip-path="url(#pe1c52934cd)" style="fill: none; stroke-dasharray: 0.7,1.155; stroke-dashoffset: 0; stroke: #cbd5e1; stroke-width: 0.7"/>
     </g>
     <g id="line2d_56">
      <g>
       <use xlink:href="#m63c7246dc3" x="54.42" y="349.069824" style="stroke: #000000; stroke-width: 0.8"/>
      </g>
     </g>
     <g id="text_22">
      <!-- $\mathdefault{10^{-12}}$ -->
      <g transform="translate(22.31 352.48912) scale(0.09 -0.09)">
       <defs>
        <path id="DejaVuSans-2212" d="M 678 2272 
L 4684 2272 
L 4684 1741 
L 678 1741 
L 678 2272 
z
" transform="scale(0.015625)"/>
       </defs>
       <use xlink:href="#DejaVuSans-31" transform="translate(0 0.765625)"/>
       <use xlink:href="#DejaVuSans-30" transform="translate(63.623047 0.765625)"/>
       <use xlink:href="#DejaVuSans-2212" transform="translate(128.203125 39.046875) scale(0.7)"/>
       <use xlink:href="#DejaVuSans-31" transform="translate(186.855469 39.046875) scale(0.7)"/>
       <use xlink:href="#DejaVuSans-32" transform="translate(231.391602 39.046875) scale(0.7)"/>
      </g>
     </g>
    </g>
    <g id="ytick_9">
     <g id="line2d_57">
      <path d="M 54.42 328.427658 
L 534.3 328.427658 
" clip-path="url(#pe1c52934cd)" style="fill: none; stroke-dasharray: 0.7,1.155; stroke-dashoffset: 0; stroke: #cbd5e1; stroke-width: 0.7"/>
     </g>
     <g id="line2d_58">
      <g>
       <use xlink:href="#m63c7246dc3" x="54.42" y="328.427658" style="stroke: #000000; stroke-width: 0.8"/>
      </g>
     </g>
     <g id="text_23">
      <!-- $\mathdefault{10^{-9}}$ -->
      <g transform="translate(26.27 331.846955) scale(0.09 -0.09)">
       <use xlink:href="#DejaVuSans-31" transform="translate(0 0.765625)"/>
       <use xlink:href="#DejaVuSans-30" transform="translate(63.623047 0.765625)"/>
       <use xlink:href="#DejaVuSans-2212" transform="translate(128.203125 39.046875) scale(0.7)"/>
       <use xlink:href="#DejaVuSans-39" transform="translate(186.855469 39.046875) scale(0.7)"/>
      </g>
     </g>
    </g>
    <g id="ytick_10">
     <g id="line2d_59">
      <path d="M 54.42 307.785493 
L 534.3 307.785493 
" clip-path="url(#pe1c52934cd)" style="fill: none; stroke-dasharray: 0.7,1.155; stroke-dashoffset: 0; stroke: #cbd5e1; stroke-width: 0.7"/>
     </g>
     <g id="line2d_60">
      <g>
       <use xlink:href="#m63c7246dc3" x="54.42" y="307.785493" style="stroke: #000000; stroke-width: 0.8"/>
      </g>
     </g>
     <g id="text_24">
      <!-- $\mathdefault{10^{-6}}$ -->
      <g transform="translate(26.27 311.20479) scale(0.09 -0.09)">
       <use xlink:href="#DejaVuSans-31" transform="translate(0 0.765625)"/>
       <use xlink:href="#DejaVuSans-30" transform="translate(63.623047 0.765625)"/>
       <use xlink:href="#DejaVuSans-2212" transform="translate(128.203125 39.046875) scale(0.7)"/>
       <use xlink:href="#DejaVuSans-36" transform="translate(186.855469 39.046875) scale(0.7)"/>
      </g>
     </g>
    </g>
    <g id="ytick_11">
     <g id="line2d_61">
      <path d="M 54.42 287.143328 
L 534.3 287.143328 
" clip-path="url(#pe1c52934cd)" style="fill: none; stroke-dasharray: 0.7,1.155; stroke-dashoffset: 0; stroke: #cbd5e1; stroke-width: 0.7"/>
     </g>
     <g id="line2d_62">
      <g>
       <use xlink:href="#m63c7246dc3" x="54.42" y="287.143328" style="stroke: #000000; stroke-width: 0.8"/>
      </g>
     </g>
     <g id="text_25">
      <!-- $\mathdefault{10^{-3}}$ -->
      <g transform="translate(26.27 290.562625) scale(0.09 -0.09)">
       <use xlink:href="#DejaVuSans-31" transform="translate(0 0.765625)"/>
       <use xlink:href="#DejaVuSans-30" transform="translate(63.623047 0.765625)"/>
       <use xlink:href="#DejaVuSans-2212" transform="translate(128.203125 39.046875) scale(0.7)"/>
       <use xlink:href="#DejaVuSans-33" transform="translate(186.855469 39.046875) scale(0.7)"/>
      </g>
     </g>
    </g>
    <g id="ytick_12">
     <g id="line2d_63">
      <path d="M 54.42 266.501163 
L 534.3 266.501163 
" clip-path="url(#pe1c52934cd)" style="fill: none; stroke-dasharray: 0.7,1.155; stroke-dashoffset: 0; stroke: #cbd5e1; stroke-width: 0.7"/>
     </g>
     <g id="line2d_64">
      <g>
       <use xlink:href="#m63c7246dc3" x="54.42" y="266.501163" style="stroke: #000000; stroke-width: 0.8"/>
      </g>
     </g>
     <g id="text_26">
      <!-- $\mathdefault{10^{0}}$ -->
      <g transform="translate(31.58 269.92046) scale(0.09 -0.09)">
       <use xlink:href="#DejaVuSans-31" transform="translate(0 0.765625)"/>
       <use xlink:href="#DejaVuSans-30" transform="translate(63.623047 0.765625)"/>
       <use xlink:href="#DejaVuSans-30" transform="translate(128.203125 39.046875) scale(0.7)"/>
      </g>
     </g>
    </g>
    <g id="text_27">
     <!-- $\|p_m-p_\star\|$ -->
     <g transform="translate(15.67 342.710812) rotate(-90) scale(0.11 -0.11)">
      <defs>
       <path id="DejaVuSans-2016" d="M 1344 4891 
L 1344 -1509 
L 813 -1509 
L 813 4891 
L 1344 4891 
z
M 2376 4891 
L 2376 -1509 
L 1845 -1509 
L 1845 4891 
L 2376 4891 
z
" transform="scale(0.015625)"/>
       <path id="DejaVuSans-Oblique-70" d="M 3175 2156 
Q 3175 2616 2975 2859 
Q 2775 3103 2400 3103 
Q 2144 3103 1911 2972 
Q 1678 2841 1497 2591 
Q 1319 2344 1212 1994 
Q 1106 1644 1106 1300 
Q 1106 863 1306 627 
Q 1506 391 1875 391 
Q 2147 391 2380 519 
Q 2613 647 2778 891 
Q 2956 1147 3065 1494 
Q 3175 1841 3175 2156 
z
M 1394 2969 
Q 1625 3272 1939 3428 
Q 2253 3584 2638 3584 
Q 3175 3584 3472 3232 
Q 3769 2881 3769 2247 
Q 3769 1728 3584 1258 
Q 3400 788 3053 416 
Q 2822 169 2531 39 
Q 2241 -91 1919 -91 
Q 1547 -91 1294 64 
Q 1041 219 916 525 
L 556 -1331 
L -19 -1331 
L 922 3500 
L 1497 3500 
L 1394 2969 
z
" transform="scale(0.015625)"/>
       <path id="DejaVuSans-22c6" d="M 778 2391 
L 1713 2391 
L 2003 3278 
L 2297 2391 
L 3228 2391 
L 2472 1841 
L 2766 953 
L 2003 1503 
L 1244 953 
L 1534 1841 
L 778 2391 
z
" transform="scale(0.015625)"/>
      </defs>
      <use xlink:href="#DejaVuSans-2016" transform="translate(0 0.578125)"/>
      <use xlink:href="#DejaVuSans-Oblique-70" transform="translate(50 0.578125)"/>
      <use xlink:href="#DejaVuSans-Oblique-6d" transform="translate(113.476562 -15.828125) scale(0.7)"/>
      <use xlink:href="#DejaVuSans-2212" transform="translate(203.881836 0.578125)"/>
      <use xlink:href="#DejaVuSans-Oblique-70" transform="translate(307.15332 0.578125)"/>
      <use xlink:href="#DejaVuSans-22c6" transform="translate(384.267578 -15.828125) scale(0.7)"/>
      <use xlink:href="#DejaVuSans-2016" transform="translate(444.458008 0.578125)"/>
     </g>
    </g>
   </g>
   <g id="line2d_65">
    <path d="M 76.232727 268.140358 
L 130.764545 268.860012 
L 185.296364 269.335981 
L 239.828182 271.112137 
L 294.36 274.019325 
L 348.891818 277.236142 
L 403.423636 281.189379 
L 457.955455 286.616129 
L 512.487273 362.831267 
" clip-path="url(#pe1c52934cd)" style="fill: none; stroke: #0f766e; stroke-width: 2.3; stroke-linecap: square"/>
    <defs>
     <path id="mdc3ad0f2e1" d="M -3 3 
L 3 3 
L 3 -3 
L -3 -3 
z
" style="stroke: #0f766e; stroke-linejoin: miter"/>
    </defs>
    <g clip-path="url(#pe1c52934cd)">
     <use xlink:href="#mdc3ad0f2e1" x="76.232727" y="268.140358" style="fill: #0f766e; stroke: #0f766e; stroke-linejoin: miter"/>
     <use xlink:href="#mdc3ad0f2e1" x="130.764545" y="268.860012" style="fill: #0f766e; stroke: #0f766e; stroke-linejoin: miter"/>
     <use xlink:href="#mdc3ad0f2e1" x="185.296364" y="269.335981" style="fill: #0f766e; stroke: #0f766e; stroke-linejoin: miter"/>
     <use xlink:href="#mdc3ad0f2e1" x="239.828182" y="271.112137" style="fill: #0f766e; stroke: #0f766e; stroke-linejoin: miter"/>
     <use xlink:href="#mdc3ad0f2e1" x="294.36" y="274.019325" style="fill: #0f766e; stroke: #0f766e; stroke-linejoin: miter"/>
     <use xlink:href="#mdc3ad0f2e1" x="348.891818" y="277.236142" style="fill: #0f766e; stroke: #0f766e; stroke-linejoin: miter"/>
     <use xlink:href="#mdc3ad0f2e1" x="403.423636" y="281.189379" style="fill: #0f766e; stroke: #0f766e; stroke-linejoin: miter"/>
     <use xlink:href="#mdc3ad0f2e1" x="457.955455" y="286.616129" style="fill: #0f766e; stroke: #0f766e; stroke-linejoin: miter"/>
     <use xlink:href="#mdc3ad0f2e1" x="512.487273" y="362.831267" style="fill: #0f766e; stroke: #0f766e; stroke-linejoin: miter"/>
    </g>
   </g>
   <g id="patch_6">
    <path d="M 54.42 367.565812 
L 54.42 263.405813 
" style="fill: none; stroke: #000000; stroke-width: 0.8; stroke-linejoin: miter; stroke-linecap: square"/>
   </g>
   <g id="patch_7">
    <path d="M 54.42 367.565812 
L 534.3 367.565812 
" style="fill: none; stroke: #000000; stroke-width: 0.8; stroke-linejoin: miter; stroke-linecap: square"/>
   </g>
   <g id="text_28">
    <g id="patch_8">
     <path d="M 327.83365 293.249537 
L 524.7024 293.249537 
Q 528.2024 293.249537 528.2024 289.749537 
L 528.2024 280.071412 
Q 528.2024 276.571412 524.7024 276.571412 
L 327.83365 276.571412 
Q 324.33365 276.571412 324.33365 280.071412 
L 324.33365 289.749537 
Q 324.33365 293.249537 327.83365 293.249537 
z
" style="fill: #ffffff; stroke: #cbd5e1; stroke-linejoin: miter"/>
    </g>
    <!-- step approaches the full-space solution -->
    <g transform="translate(327.83365 287.66985) scale(0.1 -0.1)">
     <use xlink:href="#DejaVuSans-73"/>
     <use xlink:href="#DejaVuSans-74" transform="translate(52.099609 0)"/>
     <use xlink:href="#DejaVuSans-65" transform="translate(91.308594 0)"/>
     <use xlink:href="#DejaVuSans-70" transform="translate(152.832031 0)"/>
     <use xlink:href="#DejaVuSans-20" transform="translate(216.308594 0)"/>
     <use xlink:href="#DejaVuSans-61" transform="translate(248.095703 0)"/>
     <use xlink:href="#DejaVuSans-70" transform="translate(309.375 0)"/>
     <use xlink:href="#DejaVuSans-70" transform="translate(372.851562 0)"/>
     <use xlink:href="#DejaVuSans-72" transform="translate(436.328125 0)"/>
     <use xlink:href="#DejaVuSans-6f" transform="translate(475.191406 0)"/>
     <use xlink:href="#DejaVuSans-61" transform="translate(536.373047 0)"/>
     <use xlink:href="#DejaVuSans-63" transform="translate(597.652344 0)"/>
     <use xlink:href="#DejaVuSans-68" transform="translate(652.632812 0)"/>
     <use xlink:href="#DejaVuSans-65" transform="translate(716.011719 0)"/>
     <use xlink:href="#DejaVuSans-73" transform="translate(777.535156 0)"/>
     <use xlink:href="#DejaVuSans-20" transform="translate(829.634766 0)"/>
     <use xlink:href="#DejaVuSans-74" transform="translate(861.421875 0)"/>
     <use xlink:href="#DejaVuSans-68" transform="translate(900.630859 0)"/>
     <use xlink:href="#DejaVuSans-65" transform="translate(964.009766 0)"/>
     <use xlink:href="#DejaVuSans-20" transform="translate(1025.533203 0)"/>
     <use xlink:href="#DejaVuSans-66" transform="translate(1057.320312 0)"/>
     <use xlink:href="#DejaVuSans-75" transform="translate(1092.525391 0)"/>
     <use xlink:href="#DejaVuSans-6c" transform="translate(1155.904297 0)"/>
     <use xlink:href="#DejaVuSans-6c" transform="translate(1183.6875 0)"/>
     <use xlink:href="#DejaVuSans-2d" transform="translate(1211.470703 0)"/>
     <use xlink:href="#DejaVuSans-73" transform="translate(1247.554688 0)"/>
     <use xlink:href="#DejaVuSans-70" transform="translate(1299.654297 0)"/>
     <use xlink:href="#DejaVuSans-61" transform="translate(1363.130859 0)"/>
     <use xlink:href="#DejaVuSans-63" transform="translate(1424.410156 0)"/>
     <use xlink:href="#DejaVuSans-65" transform="translate(1479.390625 0)"/>
     <use xlink:href="#DejaVuSans-20" transform="translate(1540.914062 0)"/>
     <use xlink:href="#DejaVuSans-73" transform="translate(1572.701172 0)"/>
     <use xlink:href="#DejaVuSans-6f" transform="translate(1624.800781 0)"/>
     <use xlink:href="#DejaVuSans-6c" transform="translate(1685.982422 0)"/>
     <use xlink:href="#DejaVuSans-75" transform="translate(1713.765625 0)"/>
     <use xlink:href="#DejaVuSans-74" transform="translate(1777.144531 0)"/>
     <use xlink:href="#DejaVuSans-69" transform="translate(1816.353516 0)"/>
     <use xlink:href="#DejaVuSans-6f" transform="translate(1844.136719 0)"/>
     <use xlink:href="#DejaVuSans-6e" transform="translate(1905.318359 0)"/>
    </g>
   </g>
  </g>
 </g>
 <defs>
  <clipPath id="pe4aad34166">
   <rect x="54.42" y="23.837812" width="479.88" height="208.32"/>
  </clipPath>
  <clipPath id="pe1c52934cd">
   <rect x="54.42" y="263.405813" width="479.88" height="104.16"/>
  </clipPath>
 </defs>
</svg>
