<?xml version="1.0" encoding="utf-8" standalone="no"?>
<!DOCTYPE svg PUBLIC "-//W3C//DTD SVG 1.1//EN"
  "http://www.w3.org/Graphics/SVG/1.1/DTD/svg11.dtd">
<svg xmlns:xlink="http://www.w3.org/1999/xlink" width="366.50875pt" height="449.498125pt" viewBox="0 0 366.50875 449.498125" xmlns="http://www.w3.org/2000/svg" version="1.1">
 <metadata>
  <rdf:RDF xmlns:dc="http://purl.org/dc/elements/1.1/" xmlns:cc="http://creativecommons.org/ns#" xmlns:rdf="http://www.w3.org/1999/02/22-rdf-syntax-ns#">
   <cc:Work>
    <dc:type rdf:resource="http://purl.org/dc/dcmitype/StillImage"/>
    <dc:date>2026-06-09T16:21:26.525324</dc:date>
    <dc:format>image/svg+xml</dc:format>
    <dc:creator>
     <cc:Agent>
      <dc:title>Matplotlib v3.10.8, https://matplotlib.org/</dc:title>
     </cc:Agent>
    </dc:creator>
   </cc:Work>
  </rdf:RDF>
 </metadata>
 <defs>
  <style type="text/css">*{stroke-linejoin: round; stroke-linecap: butt}</style>
 </defs>
 <g id="figure_1">
  <g id="patch_1">
   <path d="M 0 449.498125 
L 366.50875 449.498125 
L 366.50875 0 
L 0 0 
z
" style="fill: #ffffff"/>
  </g>
  <g id="axes_1">
   <g id="patch_2">
    <path d="M 78.623675 411.917812 
L 287.885075 411.917812 
L 287.885075 23.837812 
L 78.623675 23.837812 
z
" style="fill: #ffffff"/>
   </g>
   <g id="patch_3">
    <path d="M 191.454305 393.437812 
C 214.385341 393.437812 236.380268 384.327215 252.594958 368.112525 
C 268.809649 351.897834 277.920246 329.902907 277.920246 306.971871 
C 277.920246 284.040836 268.809649 262.045909 252.594958 245.831218 
C 236.380268 229.616527 214.385341 220.50593 191.454305 220.50593 
C 168.523269 220.50593 146.528343 229.616527 130.313652 245.831218 
C 114.098961 262.045909 104.988364 284.040836 104.988364 306.971871 
C 104.988364 329.902907 114.098961 351.897834 130.313652 368.112525 
C 146.528343 384.327215 168.523269 393.437812 191.454305 393.437812 
L 191.454305 393.437812 
z
" clip-path="url(#pc5f6560c21)" style="fill: none; stroke: #2563eb; stroke-width: 2.25; stroke-linejoin: miter"/>
   </g>
   <g id="matplotlib.axis_1">
    <g id="xtick_1">
     <g id="line2d_1">
      <path d="M 92.636087 411.917812 
L 92.636087 23.837812 
" clip-path="url(#pc5f6560c21)" style="fill: none; stroke-dasharray: 0.6,0.99; stroke-dashoffset: 0; stroke: #cbd5e1; stroke-width: 0.6"/>
     </g>
     <g id="line2d_2">
      <defs>
       <path id="m19cd0ff3c1" d="M 0 0 
L 0 3.5 
" style="stroke: #000000; stroke-width: 0.8"/>
      </defs>
      <g>
       <use xlink:href="#m19cd0ff3c1" x="92.636087" y="411.917812" style="stroke: #000000; stroke-width: 0.8"/>
      </g>
     </g>
     <g id="text_1">
      <!-- −0.4 -->
      <g transform="translate(81.708821 425.756406) scale(0.09 -0.09)">
       <defs>
        <path id="DejaVuSans-2212" d="M 678 2272 
L 4684 2272 
L 4684 1741 
L 678 1741 
L 678 2272 
z
" transform="scale(0.015625)"/>
        <path id="DejaVuSans-30" d="M 2034 4250 
Q 1547 4250 1301 3770 
Q 1056 3291 1056 2328 
Q 1056 1369 1301 889 
Q 1547 409 2034 409 
Q 2525 409 2770 889 
Q 3016 1369 3016 2328 
Q 3016 3291 2770 3770 
Q 2525 4250 2034 4250 
z
M 2034 4750 
Q 2819 4750 3233 4129 
Q 3647 3509 3647 2328 
Q 3647 1150 3233 529 
Q 2819 -91 2034 -91 
Q 1250 -91 836 529 
Q 422 1150 422 2328 
Q 422 3509 836 4129 
Q 1250 4750 2034 4750 
z
" transform="scale(0.015625)"/>
        <path id="DejaVuSans-2e" d="M 684 794 
L 1344 794 
L 1344 0 
L 684 0 
L 684 794 
z
" transform="scale(0.015625)"/>
        <path id="DejaVuSans-34" d="M 2419 4116 
L 825 1625 
L 2419 1625 
L 2419 4116 
z
M 2253 4666 
L 3047 4666 
L 3047 1625 
L 3713 1625 
L 3713 1100 
L 3047 1100 
L 3047 0 
L 2419 0 
L 2419 1100 
L 313 1100 
L 313 1709 
L 2253 4666 
z
" transform="scale(0.015625)"/>
       </defs>
       <use xlink:href="#DejaVuSans-2212"/>
       <use xlink:href="#DejaVuSans-30" transform="translate(83.789062 0)"/>
       <use xlink:href="#DejaVuSans-2e" transform="translate(147.412109 0)"/>
       <use xlink:href="#DejaVuSans-34" transform="translate(179.199219 0)"/>
      </g>
     </g>
    </g>
    <g id="xtick_2">
     <g id="line2d_3">
      <path d="M 142.045196 411.917812 
L 142.045196 23.837812 
" clip-path="url(#pc5f6560c21)" style="fill: none; stroke-dasharray: 0.6,0.99; stroke-dashoffset: 0; stroke: #cbd5e1; stroke-width: 0.6"/>
     </g>
     <g id="line2d_4">
      <g>
       <use xlink:href="#m19cd0ff3c1" x="142.045196" y="411.917812" style="stroke: #000000; stroke-width: 0.8"/>
      </g>
     </g>
     <g id="text_2">
      <!-- −0.2 -->
      <g transform="translate(131.11793 425.756406) scale(0.09 -0.09)">
       <defs>
        <path id="DejaVuSans-32" d="M 1228 531 
L 3431 531 
L 3431 0 
L 469 0 
L 469 531 
Q 828 903 1448 1529 
Q 2069 2156 2228 2338 
Q 2531 2678 2651 2914 
Q 2772 3150 2772 3378 
Q 2772 3750 2511 3984 
Q 2250 4219 1831 4219 
Q 1534 4219 1204 4116 
Q 875 4013 500 3803 
L 500 4441 
Q 881 4594 1212 4672 
Q 1544 4750 1819 4750 
Q 2544 4750 2975 4387 
Q 3406 4025 3406 3419 
Q 3406 3131 3298 2873 
Q 3191 2616 2906 2266 
Q 2828 2175 2409 1742 
Q 1991 1309 1228 531 
z
" transform="scale(0.015625)"/>
       </defs>
       <use xlink:href="#DejaVuSans-2212"/>
       <use xlink:href="#DejaVuSans-30" transform="translate(83.789062 0)"/>
       <use xlink:href="#DejaVuSans-2e" transform="translate(147.412109 0)"/>
       <use xlink:href="#DejaVuSans-32" transform="translate(179.199219 0)"/>
      </g>
     </g>
    </g>
    <g id="xtick_3">
     <g id="line2d_5">
      <path d="M 191.454305 411.917812 
L 191.454305 23.837812 
" clip-path="url(#pc5f6560c21)" style="fill: none; stroke-dasharray: 0.6,0.99; stroke-dashoffset: 0; stroke: #cbd5e1; stroke-width: 0.6"/>
     </g>
     <g id="line2d_6">
      <g>
       <use xlink:href="#m19cd0ff3c1" x="191.454305" y="411.917812" style="stroke: #000000; stroke-width: 0.8"/>
      </g>
     </g>
     <g id="text_3">
      <!-- 0.0 -->
      <g transform="translate(184.297899 425.756406) scale(0.09 -0.09)">
       <use xlink:href="#DejaVuSans-30"/>
       <use xlink:href="#DejaVuSans-2e" transform="translate(63.623047 0)"/>
       <use xlink:href="#DejaVuSans-30" transform="translate(95.410156 0)"/>
      </g>
     </g>
    </g>
    <g id="xtick_4">
     <g id="line2d_7">
      <path d="M 240.863414 411.917812 
L 240.863414 23.837812 
" clip-path="url(#pc5f6560c21)" style="fill: none; stroke-dasharray: 0.6,0.99; stroke-dashoffset: 0; stroke: #cbd5e1; stroke-width: 0.6"/>
     </g>
     <g id="line2d_8">
      <g>
       <use xlink:href="#m19cd0ff3c1" x="240.863414" y="411.917812" style="stroke: #000000; stroke-width: 0.8"/>
      </g>
     </g>
     <g id="text_4">
      <!-- 0.2 -->
      <g transform="translate(233.707008 425.756406) scale(0.09 -0.09)">
       <use xlink:href="#DejaVuSans-30"/>
       <use xlink:href="#DejaVuSans-2e" transform="translate(63.623047 0)"/>
       <use xlink:href="#DejaVuSans-32" transform="translate(95.410156 0)"/>
      </g>
     </g>
    </g>
    <g id="text_5">
     <!-- step coordinate $p_0$ -->
     <g transform="translate(132.324375 439.988125) scale(0.11 -0.11)">
      <defs>
       <path id="DejaVuSans-73" d="M 2834 3397 
L 2834 2853 
Q 2591 2978 2328 3040 
Q 2066 3103 1784 3103 
Q 1356 3103 1142 2972 
Q 928 2841 928 2578 
Q 928 2378 1081 2264 
Q 1234 2150 1697 2047 
L 1894 2003 
Q 2506 1872 2764 1633 
Q 3022 1394 3022 966 
Q 3022 478 2636 193 
Q 2250 -91 1575 -91 
Q 1294 -91 989 -36 
Q 684 19 347 128 
L 347 722 
Q 666 556 975 473 
Q 1284 391 1588 391 
Q 1994 391 2212 530 
Q 2431 669 2431 922 
Q 2431 1156 2273 1281 
Q 2116 1406 1581 1522 
L 1381 1569 
Q 847 1681 609 1914 
Q 372 2147 372 2553 
Q 372 3047 722 3315 
Q 1072 3584 1716 3584 
Q 2034 3584 2315 3537 
Q 2597 3491 2834 3397 
z
" transform="scale(0.015625)"/>
       <path id="DejaVuSans-74" d="M 1172 4494 
L 1172 3500 
L 2356 3500 
L 2356 3053 
L 1172 3053 
L 1172 1153 
Q 1172 725 1289 603 
Q 1406 481 1766 481 
L 2356 481 
L 2356 0 
L 1766 0 
Q 1100 0 847 248 
Q 594 497 594 1153 
L 594 3053 
L 172 3053 
L 172 3500 
L 594 3500 
L 594 4494 
L 1172 4494 
z
" transform="scale(0.015625)"/>
       <path id="DejaVuSans-65" d="M 3597 1894 
L 3597 1613 
L 953 1613 
Q 991 1019 1311 708 
Q 1631 397 2203 397 
Q 2534 397 2845 478 
Q 3156 559 3463 722 
L 3463 178 
Q 3153 47 2828 -22 
Q 2503 -91 2169 -91 
Q 1331 -91 842 396 
Q 353 884 353 1716 
Q 353 2575 817 3079 
Q 1281 3584 2069 3584 
Q 2775 3584 3186 3129 
Q 3597 2675 3597 1894 
z
M 3022 2063 
Q 3016 2534 2758 2815 
Q 2500 3097 2075 3097 
Q 1594 3097 1305 2825 
Q 1016 2553 972 2059 
L 3022 2063 
z
" transform="scale(0.015625)"/>
       <path id="DejaVuSans-70" d="M 1159 525 
L 1159 -1331 
L 581 -1331 
L 581 3500 
L 1159 3500 
L 1159 2969 
Q 1341 3281 1617 3432 
Q 1894 3584 2278 3584 
Q 2916 3584 3314 3078 
Q 3713 2572 3713 1747 
Q 3713 922 3314 415 
Q 2916 -91 2278 -91 
Q 1894 -91 1617 61 
Q 1341 213 1159 525 
z
M 3116 1747 
Q 3116 2381 2855 2742 
Q 2594 3103 2138 3103 
Q 1681 3103 1420 2742 
Q 1159 2381 1159 1747 
Q 1159 1113 1420 752 
Q 1681 391 2138 391 
Q 2594 391 2855 752 
Q 3116 1113 3116 1747 
z
" transform="scale(0.015625)"/>
       <path id="DejaVuSans-20" transform="scale(0.015625)"/>
       <path id="DejaVuSans-63" d="M 3122 3366 
L 3122 2828 
Q 2878 2963 2633 3030 
Q 2388 3097 2138 3097 
Q 1578 3097 1268 2742 
Q 959 2388 959 1747 
Q 959 1106 1268 751 
Q 1578 397 2138 397 
Q 2388 397 2633 464 
Q 2878 531 3122 666 
L 3122 134 
Q 2881 22 2623 -34 
Q 2366 -91 2075 -91 
Q 1284 -91 818 406 
Q 353 903 353 1747 
Q 353 2603 823 3093 
Q 1294 3584 2113 3584 
Q 2378 3584 2631 3529 
Q 2884 3475 3122 3366 
z
" transform="scale(0.015625)"/>
       <path id="DejaVuSans-6f" d="M 1959 3097 
Q 1497 3097 1228 2736 
Q 959 2375 959 1747 
Q 959 1119 1226 758 
Q 1494 397 1959 397 
Q 2419 397 2687 759 
Q 2956 1122 2956 1747 
Q 2956 2369 2687 2733 
Q 2419 3097 1959 3097 
z
M 1959 3584 
Q 2709 3584 3137 3096 
Q 3566 2609 3566 1747 
Q 3566 888 3137 398 
Q 2709 -91 1959 -91 
Q 1206 -91 779 398 
Q 353 888 353 1747 
Q 353 2609 779 3096 
Q 1206 3584 1959 3584 
z
" transform="scale(0.015625)"/>
       <path id="DejaVuSans-72" d="M 2631 2963 
Q 2534 3019 2420 3045 
Q 2306 3072 2169 3072 
Q 1681 3072 1420 2755 
Q 1159 2438 1159 1844 
L 1159 0 
L 581 0 
L 581 3500 
L 1159 3500 
L 1159 2956 
Q 1341 3275 1631 3429 
Q 1922 3584 2338 3584 
Q 2397 3584 2469 3576 
Q 2541 3569 2628 3553 
L 2631 2963 
z
" transform="scale(0.015625)"/>
       <path id="DejaVuSans-64" d="M 2906 2969 
L 2906 4863 
L 3481 4863 
L 3481 0 
L 2906 0 
L 2906 525 
Q 2725 213 2448 61 
Q 2172 -91 1784 -91 
Q 1150 -91 751 415 
Q 353 922 353 1747 
Q 353 2572 751 3078 
Q 1150 3584 1784 3584 
Q 2172 3584 2448 3432 
Q 2725 3281 2906 2969 
z
M 947 1747 
Q 947 1113 1208 752 
Q 1469 391 1925 391 
Q 2381 391 2643 752 
Q 2906 1113 2906 1747 
Q 2906 2381 2643 2742 
Q 2381 3103 1925 3103 
Q 1469 3103 1208 2742 
Q 947 2381 947 1747 
z
" transform="scale(0.015625)"/>
       <path id="DejaVuSans-69" d="M 603 3500 
L 1178 3500 
L 1178 0 
L 603 0 
L 603 3500 
z
M 603 4863 
L 1178 4863 
L 1178 4134 
L 603 4134 
L 603 4863 
z
" transform="scale(0.015625)"/>
       <path id="DejaVuSans-6e" d="M 3513 2113 
L 3513 0 
L 2938 0 
L 2938 2094 
Q 2938 2591 2744 2837 
Q 2550 3084 2163 3084 
Q 1697 3084 1428 2787 
Q 1159 2491 1159 1978 
L 1159 0 
L 581 0 
L 581 3500 
L 1159 3500 
L 1159 2956 
Q 1366 3272 1645 3428 
Q 1925 3584 2291 3584 
Q 2894 3584 3203 3211 
Q 3513 2838 3513 2113 
z
" transform="scale(0.015625)"/>
       <path id="DejaVuSans-61" d="M 2194 1759 
Q 1497 1759 1228 1600 
Q 959 1441 959 1056 
Q 959 750 1161 570 
Q 1363 391 1709 391 
Q 2188 391 2477 730 
Q 2766 1069 2766 1631 
L 2766 1759 
L 2194 1759 
z
M 3341 1997 
L 3341 0 
L 2766 0 
L 2766 531 
Q 2569 213 2275 61 
Q 1981 -91 1556 -91 
Q 1019 -91 701 211 
Q 384 513 384 1019 
Q 384 1609 779 1909 
Q 1175 2209 1959 2209 
L 2766 2209 
L 2766 2266 
Q 2766 2663 2505 2880 
Q 2244 3097 1772 3097 
Q 1472 3097 1187 3025 
Q 903 2953 641 2809 
L 641 3341 
Q 956 3463 1253 3523 
Q 1550 3584 1831 3584 
Q 2591 3584 2966 3190 
Q 3341 2797 3341 1997 
z
" transform="scale(0.015625)"/>
       <path id="DejaVuSans-Oblique-70" d="M 3175 2156 
Q 3175 2616 2975 2859 
Q 2775 3103 2400 3103 
Q 2144 3103 1911 2972 
Q 1678 2841 1497 2591 
Q 1319 2344 1212 1994 
Q 1106 1644 1106 1300 
Q 1106 863 1306 627 
Q 1506 391 1875 391 
Q 2147 391 2380 519 
Q 2613 647 2778 891 
Q 2956 1147 3065 1494 
Q 3175 1841 3175 2156 
z
M 1394 2969 
Q 1625 3272 1939 3428 
Q 2253 3584 2638 3584 
Q 3175 3584 3472 3232 
Q 3769 2881 3769 2247 
Q 3769 1728 3584 1258 
Q 3400 788 3053 416 
Q 2822 169 2531 39 
Q 2241 -91 1919 -91 
Q 1547 -91 1294 64 
Q 1041 219 916 525 
L 556 -1331 
L -19 -1331 
L 922 3500 
L 1497 3500 
L 1394 2969 
z
" transform="scale(0.015625)"/>
      </defs>
      <use xlink:href="#DejaVuSans-73" transform="translate(0 0.015625)"/>
      <use xlink:href="#DejaVuSans-74" transform="translate(52.099609 0.015625)"/>
      <use xlink:href="#DejaVuSans-65" transform="translate(91.308594 0.015625)"/>
      <use xlink:href="#DejaVuSans-70" transform="translate(152.832031 0.015625)"/>
      <use xlink:href="#DejaVuSans-20" transform="translate(216.308594 0.015625)"/>
      <use xlink:href="#DejaVuSans-63" transform="translate(248.095703 0.015625)"/>
      <use xlink:href="#DejaVuSans-6f" transform="translate(303.076172 0.015625)"/>
      <use xlink:href="#DejaVuSans-6f" transform="translate(364.257812 0.015625)"/>
      <use xlink:href="#DejaVuSans-72" transform="translate(425.439453 0.015625)"/>
      <use xlink:href="#DejaVuSans-64" transform="translate(466.552734 0.015625)"/>
      <use xlink:href="#DejaVuSans-69" transform="translate(530.029297 0.015625)"/>
      <use xlink:href="#DejaVuSans-6e" transform="translate(557.8125 0.015625)"/>
      <use xlink:href="#DejaVuSans-61" transform="translate(621.191406 0.015625)"/>
      <use xlink:href="#DejaVuSans-74" transform="translate(682.470703 0.015625)"/>
      <use xlink:href="#DejaVuSans-65" transform="translate(721.679688 0.015625)"/>
      <use xlink:href="#DejaVuSans-20" transform="translate(783.203125 0.015625)"/>
      <use xlink:href="#DejaVuSans-Oblique-70" transform="translate(814.990234 0.015625)"/>
      <use xlink:href="#DejaVuSans-30" transform="translate(878.466797 -16.390625) scale(0.7)"/>
     </g>
    </g>
   </g>
   <g id="matplotlib.axis_2">
    <g id="ytick_1">
     <g id="line2d_9">
      <path d="M 78.623675 405.79009 
L 287.885075 405.79009 
" clip-path="url(#pc5f6560c21)" style="fill: none; stroke-dasharray: 0.6,0.99; stroke-dashoffset: 0; stroke: #cbd5e1; stroke-width: 0.6"/>
     </g>
     <g id="line2d_10">
      <defs>
       <path id="m42ecedacc5" d="M 0 0 
L -3.5 0 
" style="stroke: #000000; stroke-width: 0.8"/>
      </defs>
      <g>
       <use xlink:href="#m42ecedacc5" x="78.623675" y="405.79009" style="stroke: #000000; stroke-width: 0.8"/>
      </g>
     </g>
     <g id="text_6">
      <!-- −0.4 -->
      <g transform="translate(49.769144 409.209387) scale(0.09 -0.09)">
       <use xlink:href="#DejaVuSans-2212"/>
       <use xlink:href="#DejaVuSans-30" transform="translate(83.789062 0)"/>
       <use xlink:href="#DejaVuSans-2e" transform="translate(147.412109 0)"/>
       <use xlink:href="#DejaVuSans-34" transform="translate(179.199219 0)"/>
      </g>
     </g>
    </g>
    <g id="ytick_2">
     <g id="line2d_11">
      <path d="M 78.623675 356.380981 
L 287.885075 356.380981 
" clip-path="url(#pc5f6560c21)" style="fill: none; stroke-dasharray: 0.6,0.99; stroke-dashoffset: 0; stroke: #cbd5e1; stroke-width: 0.6"/>
     </g>
     <g id="line2d_12">
      <g>
       <use xlink:href="#m42ecedacc5" x="78.623675" y="356.380981" style="stroke: #000000; stroke-width: 0.8"/>
      </g>
     </g>
     <g id="text_7">
      <!-- −0.2 -->
      <g transform="translate(49.769144 359.800277) scale(0.09 -0.09)">
       <use xlink:href="#DejaVuSans-2212"/>
       <use xlink:href="#DejaVuSans-30" transform="translate(83.789062 0)"/>
       <use xlink:href="#DejaVuSans-2e" transform="translate(147.412109 0)"/>
       <use xlink:href="#DejaVuSans-32" transform="translate(179.199219 0)"/>
      </g>
     </g>
    </g>
    <g id="ytick_3">
     <g id="line2d_13">
      <path d="M 78.623675 306.971871 
L 287.885075 306.971871 
" clip-path="url(#pc5f6560c21)" style="fill: none; stroke-dasharray: 0.6,0.99; stroke-dashoffset: 0; stroke: #cbd5e1; stroke-width: 0.6"/>
     </g>
     <g id="line2d_14">
      <g>
       <use xlink:href="#m42ecedacc5" x="78.623675" y="306.971871" style="stroke: #000000; stroke-width: 0.8"/>
      </g>
     </g>
     <g id="text_8">
      <!-- 0.0 -->
      <g transform="translate(57.310863 310.391168) scale(0.09 -0.09)">
       <use xlink:href="#DejaVuSans-30"/>
       <use xlink:href="#DejaVuSans-2e" transform="translate(63.623047 0)"/>
       <use xlink:href="#DejaVuSans-30" transform="translate(95.410156 0)"/>
      </g>
     </g>
    </g>
    <g id="ytick_4">
     <g id="line2d_15">
      <path d="M 78.623675 257.562762 
L 287.885075 257.562762 
" clip-path="url(#pc5f6560c21)" style="fill: none; stroke-dasharray: 0.6,0.99; stroke-dashoffset: 0; stroke: #cbd5e1; stroke-width: 0.6"/>
     </g>
     <g id="line2d_16">
      <g>
       <use xlink:href="#m42ecedacc5" x="78.623675" y="257.562762" style="stroke: #000000; stroke-width: 0.8"/>
      </g>
     </g>
     <g id="text_9">
      <!-- 0.2 -->
      <g transform="translate(57.310863 260.982059) scale(0.09 -0.09)">
       <use xlink:href="#DejaVuSans-30"/>
       <use xlink:href="#DejaVuSans-2e" transform="translate(63.623047 0)"/>
       <use xlink:href="#DejaVuSans-32" transform="translate(95.410156 0)"/>
      </g>
     </g>
    </g>
    <g id="ytick_5">
     <g id="line2d_17">
      <path d="M 78.623675 208.153653 
L 287.885075 208.153653 
" clip-path="url(#pc5f6560c21)" style="fill: none; stroke-dasharray: 0.6,0.99; stroke-dashoffset: 0; stroke: #cbd5e1; stroke-width: 0.6"/>
     </g>
     <g id="line2d_18">
      <g>
       <use xlink:href="#m42ecedacc5" x="78.623675" y="208.153653" style="stroke: #000000; stroke-width: 0.8"/>
      </g>
     </g>
     <g id="text_10">
      <!-- 0.4 -->
      <g transform="translate(57.310863 211.57295) scale(0.09 -0.09)">
       <use xlink:href="#DejaVuSans-30"/>
       <use xlink:href="#DejaVuSans-2e" transform="translate(63.623047 0)"/>
       <use xlink:href="#DejaVuSans-34" transform="translate(95.410156 0)"/>
      </g>
     </g>
    </g>
    <g id="ytick_6">
     <g id="line2d_19">
      <path d="M 78.623675 158.744544 
L 287.885075 158.744544 
" clip-path="url(#pc5f6560c21)" style="fill: none; stroke-dasharray: 0.6,0.99; stroke-dashoffset: 0; stroke: #cbd5e1; stroke-width: 0.6"/>
     </g>
     <g id="line2d_20">
      <g>
       <use xlink:href="#m42ecedacc5" x="78.623675" y="158.744544" style="stroke: #000000; stroke-width: 0.8"/>
      </g>
     </g>
     <g id="text_11">
      <!-- 0.6 -->
      <g transform="translate(57.310863 162.163841) scale(0.09 -0.09)">
       <defs>
        <path id="DejaVuSans-36" d="M 2113 2584 
Q 1688 2584 1439 2293 
Q 1191 2003 1191 1497 
Q 1191 994 1439 701 
Q 1688 409 2113 409 
Q 2538 409 2786 701 
Q 3034 994 3034 1497 
Q 3034 2003 2786 2293 
Q 2538 2584 2113 2584 
z
M 3366 4563 
L 3366 3988 
Q 3128 4100 2886 4159 
Q 2644 4219 2406 4219 
Q 1781 4219 1451 3797 
Q 1122 3375 1075 2522 
Q 1259 2794 1537 2939 
Q 1816 3084 2150 3084 
Q 2853 3084 3261 2657 
Q 3669 2231 3669 1497 
Q 3669 778 3244 343 
Q 2819 -91 2113 -91 
Q 1303 -91 875 529 
Q 447 1150 447 2328 
Q 447 3434 972 4092 
Q 1497 4750 2381 4750 
Q 2619 4750 2861 4703 
Q 3103 4656 3366 4563 
z
" transform="scale(0.015625)"/>
       </defs>
       <use xlink:href="#DejaVuSans-30"/>
       <use xlink:href="#DejaVuSans-2e" transform="translate(63.623047 0)"/>
       <use xlink:href="#DejaVuSans-36" transform="translate(95.410156 0)"/>
      </g>
     </g>
    </g>
    <g id="ytick_7">
     <g id="line2d_21">
      <path d="M 78.623675 109.335434 
L 287.885075 109.335434 
" clip-path="url(#pc5f6560c21)" style="fill: none; stroke-dasharray: 0.6,0.99; stroke-dashoffset: 0; stroke: #cbd5e1; stroke-width: 0.6"/>
     </g>
     <g id="line2d_22">
      <g>
       <use xlink:href="#m42ecedacc5" x="78.623675" y="109.335434" style="stroke: #000000; stroke-width: 0.8"/>
      </g>
     </g>
     <g id="text_12">
      <!-- 0.8 -->
      <g transform="translate(57.310863 112.754731) scale(0.09 -0.09)">
       <defs>
        <path id="DejaVuSans-38" d="M 2034 2216 
Q 1584 2216 1326 1975 
Q 1069 1734 1069 1313 
Q 1069 891 1326 650 
Q 1584 409 2034 409 
Q 2484 409 2743 651 
Q 3003 894 3003 1313 
Q 3003 1734 2745 1975 
Q 2488 2216 2034 2216 
z
M 1403 2484 
Q 997 2584 770 2862 
Q 544 3141 544 3541 
Q 544 4100 942 4425 
Q 1341 4750 2034 4750 
Q 2731 4750 3128 4425 
Q 3525 4100 3525 3541 
Q 3525 3141 3298 2862 
Q 3072 2584 2669 2484 
Q 3125 2378 3379 2068 
Q 3634 1759 3634 1313 
Q 3634 634 3220 271 
Q 2806 -91 2034 -91 
Q 1263 -91 848 271 
Q 434 634 434 1313 
Q 434 1759 690 2068 
Q 947 2378 1403 2484 
z
M 1172 3481 
Q 1172 3119 1398 2916 
Q 1625 2713 2034 2713 
Q 2441 2713 2670 2916 
Q 2900 3119 2900 3481 
Q 2900 3844 2670 4047 
Q 2441 4250 2034 4250 
Q 1625 4250 1398 4047 
Q 1172 3844 1172 3481 
z
" transform="scale(0.015625)"/>
       </defs>
       <use xlink:href="#DejaVuSans-30"/>
       <use xlink:href="#DejaVuSans-2e" transform="translate(63.623047 0)"/>
       <use xlink:href="#DejaVuSans-38" transform="translate(95.410156 0)"/>
      </g>
     </g>
    </g>
    <g id="ytick_8">
     <g id="line2d_23">
      <path d="M 78.623675 59.926325 
L 287.885075 59.926325 
" clip-path="url(#pc5f6560c21)" style="fill: none; stroke-dasharray: 0.6,0.99; stroke-dashoffset: 0; stroke: #cbd5e1; stroke-width: 0.6"/>
     </g>
     <g id="line2d_24">
      <g>
       <use xlink:href="#m42ecedacc5" x="78.623675" y="59.926325" style="stroke: #000000; stroke-width: 0.8"/>
      </g>
     </g>
     <g id="text_13">
      <!-- 1.0 -->
      <g transform="translate(57.310863 63.345622) scale(0.09 -0.09)">
       <defs>
        <path id="DejaVuSans-31" d="M 794 531 
L 1825 531 
L 1825 4091 
L 703 3866 
L 703 4441 
L 1819 4666 
L 2450 4666 
L 2450 531 
L 3481 531 
L 3481 0 
L 794 0 
L 794 531 
z
" transform="scale(0.015625)"/>
       </defs>
       <use xlink:href="#DejaVuSans-31"/>
       <use xlink:href="#DejaVuSans-2e" transform="translate(63.623047 0)"/>
       <use xlink:href="#DejaVuSans-30" transform="translate(95.410156 0)"/>
      </g>
     </g>
    </g>
    <g id="text_14">
     <!-- step coordinate $p_1$ -->
     <g transform="translate(43.459144 268.807812) rotate(-90) scale(0.11 -0.11)">
      <use xlink:href="#DejaVuSans-73" transform="translate(0 0.015625)"/>
      <use xlink:href="#DejaVuSans-74" transform="translate(52.099609 0.015625)"/>
      <use xlink:href="#DejaVuSans-65" transform="translate(91.308594 0.015625)"/>
      <use xlink:href="#DejaVuSans-70" transform="translate(152.832031 0.015625)"/>
      <use xlink:href="#DejaVuSans-20" transform="translate(216.308594 0.015625)"/>
      <use xlink:href="#DejaVuSans-63" transform="translate(248.095703 0.015625)"/>
      <use xlink:href="#DejaVuSans-6f" transform="translate(303.076172 0.015625)"/>
      <use xlink:href="#DejaVuSans-6f" transform="translate(364.257812 0.015625)"/>
      <use xlink:href="#DejaVuSans-72" transform="translate(425.439453 0.015625)"/>
      <use xlink:href="#DejaVuSans-64" transform="translate(466.552734 0.015625)"/>
      <use xlink:href="#DejaVuSans-69" transform="translate(530.029297 0.015625)"/>
      <use xlink:href="#DejaVuSans-6e" transform="translate(557.8125 0.015625)"/>
      <use xlink:href="#DejaVuSans-61" transform="translate(621.191406 0.015625)"/>
      <use xlink:href="#DejaVuSans-74" transform="translate(682.470703 0.015625)"/>
      <use xlink:href="#DejaVuSans-65" transform="translate(721.679688 0.015625)"/>
      <use xlink:href="#DejaVuSans-20" transform="translate(783.203125 0.015625)"/>
      <use xlink:href="#DejaVuSans-Oblique-70" transform="translate(814.990234 0.015625)"/>
      <use xlink:href="#DejaVuSans-31" transform="translate(878.466797 -16.390625) scale(0.7)"/>
     </g>
    </g>
   </g>
   <g id="QuadContourSet_1">
    <path d="M 205.701822 23.837812 
L 205.727796 26.146659 
L 205.499396 29.60993 
L 205.001895 33.650412 
L 204.123014 38.903777 
L 202.826534 45.206033 
L 201.011461 52.761738 
L 198.827956 60.779362 
L 196.566182 68.283114 
L 194.010464 76.01269 
L 191.369983 83.290619 
L 188.824541 89.667886 
L 186.490876 94.940909 
L 184.416507 99.112488 
L 182.565691 102.338605 
L 181.045657 104.532259 
L 179.905569 105.801875 
L 179.18313 106.379087 
L 178.452695 106.699191 
L 177.934103 106.693189 
L 177.412744 106.379087 
L 177.038808 105.801875 
L 176.67632 104.647452 
L 176.510704 103.493029 
L 176.424615 101.184182 
L 176.560899 98.298123 
L 176.997493 94.257641 
L 177.815885 89.062736 
L 178.971287 83.200059 
L 180.693587 75.786866 
L 182.601434 68.547323 
L 184.935099 60.573648 
L 187.52806 52.542766 
L 190.348921 44.617434 
L 192.713984 38.571473 
L 195.306945 32.577695 
L 197.640611 27.817598 
L 199.455684 24.620398 
L 199.952387 23.837812 
L 199.952387 23.837812 
" clip-path="url(#pc5f6560c21)" style="fill: none; stroke: #440154; stroke-width: 0.82"/>
    <path d="M 218.938402 23.837812 
L 216.271083 34.804835 
L 213.088196 46.926281 
L 209.82753 58.528061 
L 205.938088 71.508418 
L 201.997113 83.86783 
L 198.096726 95.412065 
L 194.177774 106.379087 
L 190.248156 116.768898 
L 186.490876 126.141318 
L 182.601434 135.249466 
L 178.971287 143.171789 
L 175.600437 149.980997 
L 172.488883 155.736938 
L 169.895922 160.083387 
L 167.562257 163.577973 
L 165.487887 166.283367 
L 163.672814 168.268118 
L 162.117037 169.609977 
L 160.820556 170.404889 
L 159.783372 170.76412 
L 159.005483 170.828114 
L 158.227595 170.662705 
L 157.449706 170.190547 
L 156.931114 169.641502 
L 156.357874 168.717952 
L 155.87908 167.563528 
L 155.375337 165.659228 
L 155.040763 163.523046 
L 154.812671 160.636988 
L 154.754781 157.173718 
L 154.914348 152.556024 
L 155.371175 146.783907 
L 156.153226 140.080962 
L 157.204749 132.930826 
L 158.746187 124.074268 
L 160.657374 114.460051 
L 162.951878 104.07024 
L 165.747183 92.501349 
L 168.912189 80.40456 
L 172.313077 68.283114 
L 175.93567 56.161668 
L 179.780734 44.040222 
L 183.897914 31.804806 
L 186.715842 23.837812 
L 186.715842 23.837812 
" clip-path="url(#pc5f6560c21)" style="fill: none; stroke: #460b5e; stroke-width: 0.82"/>
    <path d="M 223.570226 31.098238 
L 219.781423 45.194646 
L 215.791341 59.208531 
L 211.325903 74.055231 
L 206.749608 88.485524 
L 202.307941 101.814839 
L 197.381314 115.882116 
L 192.454687 129.235109 
L 187.648366 141.589001 
L 183.379322 152.003478 
L 178.889369 162.368623 
L 174.822549 171.209845 
L 170.933107 179.137603 
L 167.295832 186.034303 
L 163.993407 191.80642 
L 161.339149 196.060068 
L 158.703604 199.887384 
L 156.412522 202.838049 
L 154.338153 205.147189 
L 152.52308 206.826179 
L 150.943425 207.968348 
L 149.670822 208.623851 
L 148.633637 208.942608 
L 147.596453 209.023957 
L 146.818564 208.891144 
L 146.029273 208.54556 
L 145.262787 207.947721 
L 144.484899 206.983598 
L 143.778697 205.659501 
L 143.188418 204.042605 
L 142.669826 201.946761 
L 142.252903 199.310173 
L 141.953846 195.846902 
L 141.839442 191.80642 
L 141.94271 186.611515 
L 142.290223 180.839398 
L 142.940958 173.912857 
L 143.966306 165.665898 
L 145.335386 156.596506 
L 147.07786 146.594876 
L 149.180362 135.816884 
L 151.780131 123.695438 
L 154.856745 110.494994 
L 158.227595 97.040813 
L 162.117037 82.495054 
L 166.3186 67.705903 
L 170.67381 53.205806 
L 175.406629 38.268105 
L 180.026735 24.415024 
L 180.22439 23.837812 
L 180.22439 23.837812 
" clip-path="url(#pc5f6560c21)" style="fill: none; stroke: #481769; stroke-width: 0.82"/>
    <path d="M 223.570226 49.067526 
L 218.902895 65.086288 
L 213.976268 81.179762 
L 208.790345 97.326282 
L 203.604422 112.736714 
L 198.159203 128.179991 
L 192.774221 142.743425 
L 187.787357 155.614536 
L 182.601434 168.368648 
L 177.674807 179.874282 
L 173.007476 190.198826 
L 168.599441 199.399838 
L 164.52255 207.391136 
L 161.063967 213.740465 
L 157.68667 219.512582 
L 154.597449 224.373168 
L 151.745191 228.451862 
L 149.152229 231.761989 
L 146.818564 234.357422 
L 144.800325 236.251722 
L 143.303568 237.406145 
L 141.891937 238.263642 
L 140.595456 238.814386 
L 139.558272 239.061033 
L 138.521087 239.099507 
L 137.483902 238.883192 
L 136.706014 238.516653 
L 135.928126 237.928084 
L 135.150237 237.056363 
L 134.372349 235.805655 
L 133.790368 234.520087 
L 133.075868 232.314478 
L 132.544624 229.902393 
L 132.061271 226.439123 
L 131.779387 222.664677 
L 131.670134 218.358159 
L 131.752696 213.163254 
L 132.087729 206.813925 
L 132.730069 199.310173 
L 133.649425 191.229209 
L 134.926948 181.993821 
L 136.597117 171.60401 
L 138.580075 160.636988 
L 140.994112 148.515542 
L 143.739211 135.816884 
L 147.095941 121.386592 
L 150.828629 106.379087 
L 154.788273 91.371583 
L 159.005483 76.215405 
L 163.692409 60.20215 
L 168.662169 44.040222 
L 173.685908 28.455506 
L 175.21937 23.837812 
L 175.21937 23.837812 
" clip-path="url(#pc5f6560c21)" style="fill: none; stroke: #482173; stroke-width: 0.82"/>
    <path d="M 223.570226 63.293847 
L 218.369554 80.40456 
L 212.864447 97.720911 
L 207.493864 113.901137 
L 201.699876 130.621979 
L 196.272297 145.629483 
L 190.829443 160.059776 
L 185.453691 173.708854 
L 180.008472 186.916225 
L 174.822549 198.899476 
L 169.895922 209.71958 
L 165.187025 219.512582 
L 160.820556 228.074895 
L 156.671818 235.700601 
L 152.977432 242.023839 
L 149.670822 247.263634 
L 146.51793 251.836438 
L 143.70701 255.512339 
L 141.373345 258.230576 
L 139.039679 260.593014 
L 137.114528 262.226249 
L 135.409533 263.392262 
L 133.853756 264.179016 
L 132.557276 264.596054 
L 131.260795 264.749578 
L 130.22361 264.644666 
L 129.186426 264.290062 
L 128.408537 263.824891 
L 127.630649 263.147365 
L 126.85276 262.205604 
L 126.074872 260.913636 
L 125.296983 259.134423 
L 124.633411 257.031344 
L 124.000502 254.170925 
L 123.567556 251.259226 
L 123.201875 247.218745 
L 123.020706 242.601051 
L 123.0324 237.406145 
L 123.275383 231.056817 
L 123.80682 223.553064 
L 124.606433 215.4721 
L 125.747153 206.236713 
L 127.173522 196.424114 
L 129.084103 184.87988 
L 131.317054 172.758434 
L 133.990878 159.482564 
L 137.002817 145.629483 
L 140.595456 130.199404 
L 144.494479 114.460051 
L 148.892933 97.680148 
L 153.668084 80.40456 
L 158.486891 63.795344 
L 163.672814 46.716599 
L 169.118033 29.566807 
L 170.991532 23.837812 
L 170.991532 23.837812 
" clip-path="url(#pc5f6560c21)" style="fill: none; stroke: #472c7a; stroke-width: 0.82"/>
    <path d="M 223.570226 75.446279 
L 217.865711 93.702125 
L 211.901899 111.994452 
L 205.938088 129.540391 
L 199.828921 146.783907 
L 194.077593 162.368623 
L 188.536521 176.798916 
L 182.86073 190.985108 
L 177.156214 204.627146 
L 171.710995 217.053211 
L 166.525072 228.319068 
L 161.598445 238.473484 
L 156.931114 247.559487 
L 152.702319 255.299708 
L 148.892933 261.828531 
L 145.262787 267.610703 
L 142.151233 272.18165 
L 139.249299 276.07933 
L 136.706014 279.164177 
L 134.201959 281.851447 
L 132.297979 283.627449 
L 130.22361 285.252972 
L 128.408537 286.36511 
L 126.848145 287.046353 
L 125.556279 287.380824 
L 124.259799 287.469088 
L 123.222614 287.325945 
L 122.185429 286.954477 
L 121.148245 286.302147 
L 120.127722 285.314717 
L 119.333172 284.237721 
L 118.555283 282.835782 
L 117.777395 280.959448 
L 117.157196 278.965389 
L 116.480914 275.971153 
L 115.962322 272.571908 
L 115.58366 268.575578 
L 115.365715 263.957884 
L 115.334547 258.185767 
L 115.530154 251.836438 
L 115.996277 244.332686 
L 116.779017 235.67451 
L 117.842103 226.439123 
L 119.264949 216.049312 
L 120.982177 205.08229 
L 123.096531 192.960844 
L 125.635468 179.684974 
L 128.625446 165.254682 
L 131.960456 150.247177 
L 135.668829 134.555336 
L 139.974959 117.34611 
L 144.387456 100.60697 
L 149.173457 83.290619 
L 154.348763 65.397056 
L 159.93326 46.926281 
L 165.487887 29.316478 
L 167.26282 23.837812 
L 167.26282 23.837812 
" clip-path="url(#pc5f6560c21)" style="fill: none; stroke: #463480; stroke-width: 0.82"/>
    <path d="M 223.570226 86.231799 
L 217.517653 105.224664 
L 211.588089 123.118227 
L 205.629275 140.434578 
L 199.455684 157.705215 
L 193.215536 174.490069 
L 187.186409 190.074785 
L 181.304953 204.678474 
L 175.561098 218.358159 
L 169.990754 231.056817 
L 164.959794 242.023839 
L 159.783372 252.77866 
L 154.856745 262.479393 
L 150.33344 270.884425 
L 146.299972 277.934309 
L 142.410529 284.289603 
L 139.039679 289.404313 
L 135.767873 293.972893 
L 133.047586 297.436163 
L 130.482906 300.381759 
L 128.149241 302.753277 
L 126.074872 304.576976 
L 124.259799 305.919408 
L 122.444725 306.986685 
L 120.888949 307.645916 
L 119.592468 307.983927 
L 118.295987 308.096149 
L 117.258802 307.995719 
L 116.221618 307.695142 
L 115.184433 307.155754 
L 114.147249 306.322993 
L 113.36936 305.460846 
L 112.591472 304.341015 
L 111.69428 302.631069 
L 111.001993 300.899434 
L 110.257806 298.442937 
L 109.648155 295.704528 
L 109.102648 292.241258 
L 108.690491 288.200776 
L 108.414778 283.005871 
L 108.3523 277.233753 
L 108.504433 270.884425 
L 108.913136 263.380672 
L 109.570814 255.299708 
L 110.542196 246.064321 
L 111.863005 235.67451 
L 113.563254 224.130276 
L 115.569474 212.00883 
L 118.036691 198.477091 
L 120.888949 184.087551 
L 124.164593 168.717952 
L 127.702515 153.133236 
L 131.779387 136.169236 
L 136.257598 118.500533 
L 141.114049 100.260557 
L 146.329284 81.558984 
L 151.880443 62.510997 
L 157.491764 44.040222 
L 163.413518 25.311634 
L 163.889595 23.837812 
L 163.889595 23.837812 
" clip-path="url(#pc5f6560c21)" style="fill: none; stroke: #433e85; stroke-width: 0.82"/>
    <path d="M 223.570226 96.028183 
L 217.234734 115.614474 
L 211.03193 134.085249 
L 204.800265 151.978812 
L 198.546319 169.295164 
L 192.273725 186.034303 
L 186.211837 201.619019 
L 180.008472 216.961591 
L 174.04466 231.123913 
L 168.241362 244.332686 
L 162.894926 255.980258 
L 157.673195 266.843943 
L 152.715774 276.656542 
L 148.101953 285.314717 
L 143.70701 293.095598 
L 139.558272 299.979511 
L 135.928126 305.593251 
L 132.557276 310.420863 
L 129.445722 314.505962 
L 126.593464 317.894275 
L 124.000502 320.636009 
L 121.610313 322.833479 
L 119.592468 324.404799 
L 117.777395 325.560656 
L 116.221618 326.327836 
L 114.586207 326.873961 
L 113.36936 327.08116 
L 112.072879 327.081275 
L 110.977278 326.873961 
L 109.99851 326.500002 
L 108.961325 325.871875 
L 107.924141 324.953678 
L 106.886956 323.669726 
L 106.032955 322.256267 
L 105.225285 320.524632 
L 104.404687 318.215785 
L 103.645638 315.329726 
L 102.994037 311.866456 
L 102.478922 307.806569 
L 102.125978 303.20828 
L 101.942558 298.013375 
L 101.952338 291.664046 
L 102.187593 284.737506 
L 102.69186 276.656542 
L 103.450321 267.998366 
L 104.553291 257.992256 
L 105.963943 247.218745 
L 107.780666 235.097299 
L 109.90467 222.398641 
L 112.443154 208.54556 
L 115.420495 193.538055 
L 118.814579 177.588035 
L 122.654542 160.636988 
L 126.85276 143.119958 
L 131.520091 124.626971 
L 136.504932 105.801875 
L 141.778466 86.753889 
L 147.276622 67.705903 
L 153.041672 48.511824 
L 159.26478 28.590813 
L 160.786138 23.837812 
L 160.786138 23.837812 
" clip-path="url(#pc5f6560c21)" style="fill: none; stroke: #3f4788; stroke-width: 0.82"/>
    <path d="M 223.570226 105.066007 
L 217.087822 124.876136 
L 210.346122 144.735004 
L 203.604422 163.875569 
L 196.862722 182.323475 
L 190.200455 199.887384 
L 183.897914 215.896883 
L 177.41551 231.742672 
L 171.192403 246.349253 
L 165.161967 259.917402 
L 159.524076 272.055352 
L 154.078856 283.24464 
L 148.884051 293.395681 
L 144.210386 302.053857 
L 139.817568 309.74373 
L 135.668829 316.567276 
L 131.779387 322.532697 
L 128.315683 327.451172 
L 125.221537 331.491654 
L 122.304515 334.954925 
L 119.851764 337.573051 
L 117.518099 339.779637 
L 115.443729 341.476144 
L 113.36936 342.886222 
L 111.554287 343.848526 
L 109.99851 344.439675 
L 108.442733 344.78025 
L 107.146252 344.839801 
L 105.849772 344.660233 
L 104.812587 344.314261 
L 103.775402 343.755234 
L 102.738218 342.941672 
L 101.701033 341.815127 
L 100.663848 340.289477 
L 99.709838 338.418195 
L 98.848775 336.196309 
L 98.070887 333.546157 
L 97.371964 330.337231 
L 96.774406 326.469681 
L 96.342259 322.256267 
L 96.038654 317.061361 
L 95.924932 311.289244 
L 96.024072 304.362704 
L 96.357221 296.858952 
L 96.970698 288.200776 
L 97.842872 278.965389 
L 99.116174 267.998366 
L 100.771272 255.87692 
L 102.738218 243.175106 
L 105.114534 229.325181 
L 107.924571 214.317677 
L 111.191062 198.155749 
L 114.678903 181.993821 
L 118.814579 163.929916 
L 123.238611 145.629483 
L 128.149241 126.302251 
L 133.335164 106.81333 
L 138.908852 86.753889 
L 144.587457 67.128691 
L 150.486912 47.503493 
L 156.791907 27.301083 
L 157.896615 23.837812 
L 157.896615 23.837812 
" clip-path="url(#pc5f6560c21)" style="fill: none; stroke: #3c508b; stroke-width: 0.82"/>
    <path d="M 91.882591 346.499159 
L 91.315021 343.035888 
L 90.796738 338.418195 
L 90.453936 333.223289 
L 90.292002 327.095744 
L 90.341638 320.524632 
L 90.618153 313.02088 
L 91.168009 304.362704 
L 92.030698 294.550105 
L 93.169912 284.160294 
L 94.700037 272.335818 
L 96.53161 259.917402 
L 98.848775 245.81612 
L 101.507165 231.056817 
L 104.553291 215.40829 
L 108.152696 198.155749 
L 111.994021 180.839398 
L 116.221618 162.784337 
L 121.014844 143.320637 
L 125.927848 124.27265 
L 131.260795 104.457386 
L 137.033959 83.86783 
L 142.929122 63.645076 
L 149.411526 42.236028 
L 155.181944 23.837812 
M 223.570226 113.498494 
L 216.765634 134.085249 
L 210.046053 153.710447 
L 203.293688 172.758434 
L 196.512893 191.229209 
L 189.861726 208.718601 
L 183.100473 225.861911 
L 176.637622 241.644143 
L 170.334819 256.454132 
L 164.450703 269.745298 
L 158.597771 282.428659 
L 153.300968 293.420978 
L 148.073247 303.785492 
L 143.178933 313.02088 
L 138.521087 321.352342 
L 134.113052 328.787026 
L 129.964314 335.341838 
L 126.074872 341.051877 
L 122.704022 345.618148 
L 122.01838 346.499159 
L 122.01838 346.499159 
" clip-path="url(#pc5f6560c21)" style="fill: none; stroke: #38588c; stroke-width: 0.82"/>
    <path d="M 85.079199 346.499159 
L 84.946836 340.14983 
L 85.027149 333.223289 
L 85.353057 325.142325 
L 85.924217 316.48415 
L 86.795798 306.671551 
L 88.001145 295.704528 
L 89.56954 283.583082 
L 91.526293 270.307213 
L 93.795476 256.454132 
L 96.480371 241.446627 
L 99.488205 225.861911 
L 102.940432 209.122772 
L 106.729985 191.80642 
L 110.99546 173.335646 
L 115.617897 154.287659 
L 120.629652 134.558578 
L 126.114339 113.882839 
L 131.856938 93.103218 
L 137.824493 72.323596 
L 144.014248 51.543975 
L 150.607868 30.187141 
L 152.613854 23.837812 
M 223.570226 121.433188 
L 216.466687 142.743425 
L 209.568234 162.736417 
L 202.486295 182.571033 
L 195.566241 201.296457 
L 188.565245 219.590794 
L 181.727143 236.828934 
L 175.318598 252.41365 
L 168.858737 267.550945 
L 162.508907 281.851447 
L 156.633309 294.550105 
L 150.967303 306.281679 
L 145.515874 317.061361 
L 140.299303 326.873961 
L 135.409533 335.587211 
L 130.980169 343.035888 
L 128.821796 346.499159 
L 128.821796 346.499159 
" clip-path="url(#pc5f6560c21)" style="fill: none; stroke: #34608d; stroke-width: 0.82"/>
    <path d="M 79.938162 346.499159 
L 80.250187 338.418195 
L 80.84329 329.182807 
L 81.735229 318.985819 
L 82.877785 308.403186 
L 84.412599 296.28174 
L 86.328001 283.005871 
L 88.550217 269.15279 
L 91.181029 254.145285 
L 94.24237 237.983357 
L 97.75577 220.667006 
L 101.614456 202.773443 
L 105.849772 184.171627 
L 110.656183 164.100258 
L 115.57735 144.47506 
L 120.888949 124.163851 
L 126.85276 102.271295 
L 133.075868 80.312617 
L 139.558272 58.28126 
L 146.369156 35.959258 
L 150.170736 23.837812 
M 223.570226 128.948704 
L 216.309934 150.578666 
L 209.007267 171.60401 
L 201.958694 191.229209 
L 194.88648 210.277195 
L 188.016834 228.170758 
L 181.045657 245.715261 
L 174.246067 262.226249 
L 167.821553 277.268681 
L 161.339149 291.878093 
L 155.116041 305.342567 
L 149.152229 317.701885 
L 143.64759 328.605596 
L 138.453443 338.418195 
L 133.962838 346.499159 
L 133.962838 346.499159 
" clip-path="url(#pc5f6560c21)" style="fill: none; stroke: #31688e; stroke-width: 0.82"/>
    <path d="M 78.623675 315.159076 
L 80.279031 302.631069 
L 82.341585 288.777988 
L 84.713674 274.347695 
L 87.499008 258.762979 
L 90.719193 242.023839 
L 94.272937 224.707488 
L 98.330183 206.053046 
L 102.789945 186.611515 
L 107.664845 166.371372 
L 113.039514 145.052272 
L 118.555283 124.075911 
L 124.519095 102.269831 
L 130.895015 79.827348 
L 137.355937 57.893303 
L 144.043031 35.959258 
L 147.836154 23.837812 
M 223.570226 136.105195 
L 216.262281 157.750929 
L 209.013768 178.530551 
L 201.733854 198.732961 
L 194.529057 218.084154 
L 187.268764 236.944854 
L 180.187107 254.722497 
L 173.282267 271.461636 
L 166.784368 286.665222 
L 160.215376 301.476645 
L 154.078856 314.784629 
L 147.992731 327.451172 
L 142.410529 338.575528 
L 138.271312 346.499159 
L 138.271312 346.499159 
" clip-path="url(#pc5f6560c21)" style="fill: none; stroke: #2d708e; stroke-width: 0.82"/>
    <path d="M 78.623675 293.731332 
L 81.216637 278.343958 
L 84.267366 261.649037 
L 87.662786 244.332686 
L 91.393608 226.439123 
L 95.590641 207.391136 
L 100.145256 187.737116 
L 105.331179 166.393696 
L 110.901035 144.47506 
L 116.554153 123.118227 
L 122.583913 101.184182 
L 128.927129 78.931339 
L 135.668829 56.09874 
L 142.706288 33.0732 
L 145.596803 23.837812 
M 223.570226 142.949979 
L 215.997494 165.254682 
L 208.713027 186.034303 
L 201.405138 206.236713 
L 194.076739 225.861911 
L 186.95448 244.332686 
L 179.749176 262.41422 
L 172.685691 279.5426 
L 166.00648 295.183828 
L 159.26478 310.405713 
L 152.744361 324.565114 
L 146.559268 337.457829 
L 142.054526 346.499159 
L 142.054526 346.499159 
" clip-path="url(#pc5f6560c21)" style="fill: none; stroke: #2a768e; stroke-width: 0.82"/>
    <path d="M 78.623675 277.99976 
L 81.82471 261.071826 
L 85.432484 243.178263 
L 89.514114 224.075388 
L 94.054499 203.927866 
L 98.848775 183.653211 
L 104.255388 161.791411 
L 109.761574 140.434578 
L 115.79523 117.923321 
L 122.056956 95.412065 
L 128.541916 72.900808 
L 135.247824 50.389551 
L 142.174798 27.878294 
L 143.441657 23.837812 
M 223.570226 149.520416 
L 216.039776 171.60401 
L 208.319739 193.538055 
L 200.983631 213.740465 
L 193.414323 233.942875 
L 186.044988 252.990862 
L 178.895366 270.884425 
L 171.742734 288.200776 
L 164.969295 304.047848 
L 158.18315 319.370208 
L 151.745191 333.372574 
L 145.468157 346.499159 
L 145.468157 346.499159 
" clip-path="url(#pc5f6560c21)" style="fill: none; stroke: #277e8e; stroke-width: 0.82"/>
    <path d="M 78.623675 264.953975 
L 82.471308 246.064321 
L 86.661856 226.624727 
L 91.287555 206.236713 
L 96.255814 185.34048 
L 101.701033 163.413521 
L 107.648847 140.434578 
L 113.705137 117.923321 
L 120.14508 94.834853 
L 126.981421 71.169173 
L 133.878246 48.080704 
L 141.181131 24.415024 
L 141.36214 23.837812 
M 223.570226 155.847001 
L 215.791341 178.556688 
L 208.012457 200.568937 
L 200.233572 221.904622 
L 192.445104 242.601051 
L 184.818531 262.226249 
L 177.639306 280.119812 
L 170.414514 297.550545 
L 163.283394 314.175303 
L 156.615555 329.182807 
L 149.964772 343.6131 
L 148.602949 346.499159 
L 148.602949 346.499159 
" clip-path="url(#pc5f6560c21)" style="fill: none; stroke: #25858e; stroke-width: 0.82"/>
    <path d="M 78.623675 253.55992 
L 82.95938 233.365663 
L 87.522893 213.163254 
L 92.575202 191.80642 
L 97.992899 169.872375 
L 103.63026 147.93833 
L 109.634727 125.427074 
L 116.015917 102.338605 
L 122.785606 78.672925 
L 129.78417 55.007245 
L 137.011243 31.341565 
L 139.350765 23.837812 
M 223.570226 161.955089 
L 215.687569 184.87988 
L 207.912984 206.813925 
L 200.233572 227.838057 
L 192.280532 248.95038 
L 184.879266 267.998366 
L 177.41551 286.61983 
L 169.895922 304.776474 
L 162.63563 321.719063 
L 155.634633 337.491729 
L 151.517739 346.499159 
L 151.517739 346.499159 
" clip-path="url(#pc5f6560c21)" style="fill: none; stroke: #228d8d; stroke-width: 0.82"/>
    <path d="M 78.623675 243.315112 
L 83.164956 222.975853 
L 88.021432 202.196231 
L 93.403556 180.129689 
L 99.235176 157.173718 
L 105.173578 134.662461 
L 111.554287 111.315475 
L 118.33858 87.331101 
L 125.428604 63.088209 
L 132.574009 39.422529 
L 137.401164 23.837812 
M 223.570226 167.865803 
L 215.507745 191.229209 
L 207.493864 213.759481 
L 199.455684 235.682834 
L 191.382609 257.031344 
L 183.638618 276.882453 
L 175.827082 296.28174 
L 168.340145 314.277546 
L 160.933343 331.491654 
L 154.253182 346.499159 
L 154.253182 346.499159 
" clip-path="url(#pc5f6560c21)" style="fill: none; stroke: #20938c; stroke-width: 0.82"/>
    <path d="M 78.623675 233.928349 
L 83.68223 212.00883 
L 88.995521 189.972357 
L 94.91539 166.409105 
L 100.943503 143.320637 
L 107.506363 119.077745 
L 114.147249 95.375464 
L 121.407541 70.309448 
L 128.748992 45.771858 
L 135.507982 23.837812 
M 223.570226 173.597203 
L 215.468858 197.001326 
L 207.443213 219.512582 
L 199.455684 241.26718 
L 191.306607 262.803461 
L 183.638618 282.465011 
L 175.759926 302.053857 
L 168.331685 319.94742 
L 160.820556 337.459213 
L 156.838931 346.499159 
L 156.838931 346.499159 
" clip-path="url(#pc5f6560c21)" style="fill: none; stroke: #1e9b8a; stroke-width: 0.82"/>
    <path d="M 78.623675 225.215122 
L 83.941286 202.773443 
L 89.514114 180.20202 
L 95.737221 155.961615 
L 102.33838 131.199191 
L 108.961325 107.208033 
L 116.116642 82.136195 
L 123.259827 57.893303 
L 130.801278 33.0732 
L 133.666579 23.837812 
M 223.570226 179.164778 
L 215.272749 203.06118 
L 206.975272 226.261621 
L 198.677795 248.782474 
L 190.505907 270.307213 
L 182.601434 290.512204 
L 174.68586 310.134821 
L 167.240083 328.028384 
L 159.783372 345.38734 
L 159.297191 346.499159 
L 159.297191 346.499159 
" clip-path="url(#pc5f6560c21)" style="fill: none; stroke: #1fa287; stroke-width: 0.82"/>
    <path d="M 78.623675 217.048168 
L 84.3234 193.538055 
L 90.146283 170.449587 
L 96.335778 146.783907 
L 102.900138 122.541015 
L 109.739214 98.107313 
L 117.025187 72.900808 
L 124.6012 47.503493 
L 131.872978 23.837813 
M 223.570226 184.581445 
L 215.227509 208.54556 
L 206.954321 231.634028 
L 198.650848 254.145285 
L 190.540178 275.502118 
L 182.601434 295.804609 
L 174.499512 315.906938 
L 166.784368 334.462625 
L 161.644977 346.499159 
L 161.644977 346.499159 
" clip-path="url(#pc5f6560c21)" style="fill: none; stroke: #24aa83; stroke-width: 0.82"/>
    <path d="M 78.623675 209.335978 
L 84.379911 186.034303 
L 90.598859 161.791411 
L 97.199259 136.971308 
L 104.034698 112.127669 
L 111.414029 86.176677 
L 118.814579 60.962203 
L 126.593464 35.253795 
L 130.123601 23.837812 
M 223.570226 189.859219 
L 215.032598 214.317677 
L 206.950024 236.828934 
L 198.638113 259.34019 
L 190.380318 281.071504 
L 182.082841 302.273639 
L 174.023487 322.256267 
L 166.101001 341.304253 
L 163.896089 346.499159 
L 163.896089 346.499159 
" clip-path="url(#pc5f6560c21)" style="fill: none; stroke: #2ab07f; stroke-width: 0.82"/>
    <path d="M 78.623675 202.010104 
L 84.81731 177.376128 
L 91.139391 153.133236 
L 97.836466 128.313132 
L 105.081704 102.338605 
L 112.591472 76.27189 
L 120.456779 49.812339 
L 128.235904 24.415024 
L 128.41524 23.837812 
M 223.570226 195.008118 
L 214.997366 219.512582 
L 206.45668 243.242348 
L 197.899907 266.347709 
L 189.343134 288.791243 
L 180.961591 310.134821 
L 173.007476 329.801248 
L 166.061491 346.499159 
L 166.061491 346.499159 
" clip-path="url(#pc5f6560c21)" style="fill: none; stroke: #35b779; stroke-width: 0.82"/>
    <path d="M 223.570226 200.037219 
L 214.92059 224.707488 
L 206.45668 248.187687 
L 197.829425 271.461636 
L 189.465989 293.395681 
L 181.304953 314.204636 
L 172.925705 334.954925 
L 168.150334 346.499159 
M 78.623675 195.017815 
L 84.891847 170.449587 
L 91.605327 145.052272 
L 98.709325 119.077745 
L 105.882306 93.680429 
L 113.447107 67.705903 
L 121.241761 41.731376 
L 126.74542 23.837812 
L 126.74542 23.837812 
" clip-path="url(#pc5f6560c21)" style="fill: none; stroke: #42be71; stroke-width: 0.82"/>
    <path d="M 223.570226 204.95444 
L 214.804965 229.902393 
L 206.45668 253.026752 
L 197.640611 276.784777 
L 189.083837 299.20089 
L 180.480288 321.101843 
L 172.229587 341.500767 
L 170.170287 346.499159 
M 78.623675 188.317041 
L 85.186167 162.945835 
L 91.984863 137.548519 
L 99.006536 112.151204 
L 106.413726 86.176677 
L 114.218966 59.624939 
L 122.185429 33.313807 
L 125.111359 23.837812 
L 125.111359 23.837812 
" clip-path="url(#pc5f6560c21)" style="fill: none; stroke: #52c569; stroke-width: 0.82"/>
    <path d="M 223.570226 209.766991 
L 214.652542 235.097299 
L 206.091185 258.762979 
L 197.510797 281.851447 
L 189.083837 303.919635 
L 180.524392 325.719537 
L 172.1275 346.499159 
M 78.623675 181.874609 
L 85.393228 156.019294 
L 92.426243 130.044767 
L 99.685953 104.07024 
L 107.33727 77.518502 
L 115.045541 51.543975 
L 122.974424 25.569448 
L 123.510928 23.837812 
L 123.510928 23.837812 
" clip-path="url(#pc5f6560c21)" style="fill: none; stroke: #60ca60; stroke-width: 0.82"/>
    <path d="M 223.570226 214.481131 
L 214.671852 239.714992 
L 205.889067 263.957884 
L 197.122018 287.511697 
L 188.244119 310.712033 
L 179.749176 332.299292 
L 174.027811 346.499159 
M 78.623675 175.662256 
L 85.365375 150.183024 
L 92.625668 123.619813 
L 100.257567 96.566488 
L 107.977517 70.014749 
L 115.962322 43.335232 
L 121.942183 23.837812 
L 121.942183 23.837812 
" clip-path="url(#pc5f6560c21)" style="fill: none; stroke: #73d056; stroke-width: 0.82"/>
    <path d="M 223.570226 219.10284 
L 214.494861 244.791175 
L 205.419495 269.789996 
L 196.396374 293.972893 
L 187.765231 316.48415 
L 179.122088 338.418195 
L 175.875663 346.499159 
M 78.623675 169.657471 
L 85.665053 143.320637 
L 92.993154 116.768898 
L 100.546682 90.217159 
L 108.322929 63.665421 
L 116.320975 37.113682 
L 120.403329 23.837812 
L 120.403329 23.837812 
" clip-path="url(#pc5f6560c21)" style="fill: none; stroke: #86d549; stroke-width: 0.82"/>
    <path d="M 223.570226 223.637346 
L 214.40859 249.527591 
L 205.599898 273.770483 
L 196.77242 297.436163 
L 188.046653 320.215877 
L 179.230584 342.612618 
L 177.675277 346.499159 
M 78.623675 163.840311 
L 85.883968 136.938296 
L 93.59291 109.265146 
L 101.21445 82.713407 
L 109.400148 55.007245 
L 117.645202 27.878294 
L 118.892702 23.837812 
L 118.892702 23.837812 
" clip-path="url(#pc5f6560c21)" style="fill: none; stroke: #9bd93c; stroke-width: 0.82"/>
    <path d="M 223.570226 228.0893 
L 214.494861 253.70273 
L 205.303902 278.965389 
L 196.34413 302.947703 
L 187.268764 326.595315 
L 179.430115 346.499159 
M 78.623675 158.194291 
L 86.143264 130.574872 
L 93.922148 102.878456 
L 102.097384 74.632443 
L 110.257806 47.237351 
L 117.408761 23.837812 
L 117.408761 23.837812 
" clip-path="url(#pc5f6560c21)" style="fill: none; stroke: #addc30; stroke-width: 0.82"/>
    <path d="M 223.570226 232.463018 
L 214.235564 258.763298 
L 204.900903 284.373281 
L 195.689069 308.980398 
L 186.813383 332.068866 
L 181.143512 346.499159 
M 78.623675 152.705271 
L 86.143264 125.295802 
L 94.104799 97.1437 
L 102.002152 70.014749 
L 110.294409 42.308587 
L 115.950073 23.837812 
L 115.950073 23.837812 
" clip-path="url(#pc5f6560c21)" style="fill: none; stroke: #c2df23; stroke-width: 0.82"/>
    <path d="M 223.570226 236.762738 
L 214.235564 263.029184 
L 204.841531 288.777988 
L 195.762346 313.02088 
L 186.750172 336.464532 
L 182.818292 346.499159 
M 78.623675 147.360615 
L 86.442857 119.077745 
L 94.440741 91.002138 
L 102.738218 62.700614 
L 111.32339 34.227623 
L 114.515627 23.837812 
L 114.515627 23.837812 
" clip-path="url(#pc5f6560c21)" style="fill: none; stroke: #d8e219; stroke-width: 0.82"/>
    <path d="M 223.570226 240.991796 
L 214.165306 267.421154 
L 205.105169 292.241258 
L 196.02901 316.48415 
L 186.937309 340.14983 
L 184.456851 346.499159 
M 78.623675 142.149815 
L 86.491252 113.882839 
L 94.440741 86.138346 
L 102.997514 57.108393 
L 111.682151 28.455506 
L 113.103954 23.837812 
L 113.103954 23.837812 
" clip-path="url(#pc5f6560c21)" style="fill: none; stroke: #ece51b; stroke-width: 0.82"/>
    <path d="M 223.570226 245.153684 
L 214.198093 271.461636 
L 204.900903 296.905379 
L 195.566241 321.805577 
L 186.23158 346.063106 
L 186.061437 346.499159 
M 78.623675 137.063199 
L 86.571868 108.687934 
L 94.700037 80.488545 
L 103.105519 52.121186 
L 111.714311 23.837812 
L 111.714311 23.837812 
" clip-path="url(#pc5f6560c21)" style="fill: none; stroke: #fde725; stroke-width: 0.82"/>
   </g>
   <g id="line2d_25">
    <path d="M 191.454305 306.971871 
L 143.796469 234.825564 
" clip-path="url(#pc5f6560c21)" style="fill: none; stroke: #2563eb; stroke-width: 2.9; stroke-linecap: square"/>
    <defs>
     <path id="mf646e2db3d" d="M 0 3 
C 0.795609 3 1.55874 2.683901 2.12132 2.12132 
C 2.683901 1.55874 3 0.795609 3 0 
C 3 -0.795609 2.683901 -1.55874 2.12132 -2.12132 
C 1.55874 -2.683901 0.795609 -3 0 -3 
C -0.795609 -3 -1.55874 -2.683901 -2.12132 -2.12132 
C -2.683901 -1.55874 -3 -0.795609 -3 0 
C -3 0.795609 -2.683901 1.55874 -2.12132 2.12132 
C -1.55874 2.683901 -0.795609 3 0 3 
z
" style="stroke: #2563eb"/>
    </defs>
    <g clip-path="url(#pc5f6560c21)">
     <use xlink:href="#mf646e2db3d" x="191.454305" y="306.971871" style="fill: #2563eb; stroke: #2563eb"/>
     <use xlink:href="#mf646e2db3d" x="143.796469" y="234.825564" style="fill: #2563eb; stroke: #2563eb"/>
    </g>
   </g>
   <g id="line2d_26">
    <path d="M 191.454305 306.971871 
L 110.739596 275.963892 
" clip-path="url(#pc5f6560c21)" style="fill: none; stroke-dasharray: 7.4,3.2; stroke-dashoffset: 0; stroke: #64748b; stroke-width: 2"/>
    <defs>
     <path id="m66751c2ac5" d="M -2.5 2.5 
L 2.5 2.5 
L 2.5 -2.5 
L -2.5 -2.5 
z
" style="stroke: #64748b; stroke-linejoin: miter"/>
    </defs>
    <g clip-path="url(#pc5f6560c21)">
     <use xlink:href="#m66751c2ac5" x="191.454305" y="306.971871" style="fill: #64748b; stroke: #64748b; stroke-linejoin: miter"/>
     <use xlink:href="#m66751c2ac5" x="110.739596" y="275.963892" style="fill: #64748b; stroke: #64748b; stroke-linejoin: miter"/>
    </g>
   </g>
   <g id="patch_4">
    <path d="M 78.623675 411.917812 
L 78.623675 23.837812 
" style="fill: none; stroke: #000000; stroke-width: 0.8; stroke-linejoin: miter; stroke-linecap: square"/>
   </g>
   <g id="patch_5">
    <path d="M 78.623675 411.917812 
L 287.885075 411.917812 
" style="fill: none; stroke: #000000; stroke-width: 0.8; stroke-linejoin: miter; stroke-linecap: square"/>
   </g>
   <g id="text_15">
    <!-- $p=0$ -->
    <g transform="translate(194.418852 300.054596) scale(0.1 -0.1)">
     <defs>
      <path id="DejaVuSans-3d" d="M 678 2906 
L 4684 2906 
L 4684 2381 
L 678 2381 
L 678 2906 
z
M 678 1631 
L 4684 1631 
L 4684 1100 
L 678 1100 
L 678 1631 
z
" transform="scale(0.015625)"/>
     </defs>
     <use xlink:href="#DejaVuSans-Oblique-70" transform="translate(0 0.78125)"/>
     <use xlink:href="#DejaVuSans-3d" transform="translate(82.958984 0.78125)"/>
     <use xlink:href="#DejaVuSans-30" transform="translate(186.230469 0.78125)"/>
    </g>
   </g>
   <g id="text_16">
    <!-- $p(\lambda)$ -->
    <g style="fill: #1d4ed8" transform="translate(148.243289 247.177842) scale(0.1 -0.1)">
     <defs>
      <path id="DejaVuSans-28" d="M 1984 4856 
Q 1566 4138 1362 3434 
Q 1159 2731 1159 2009 
Q 1159 1288 1364 580 
Q 1569 -128 1984 -844 
L 1484 -844 
Q 1016 -109 783 600 
Q 550 1309 550 2009 
Q 550 2706 781 3412 
Q 1013 4119 1484 4856 
L 1984 4856 
z
" transform="scale(0.015625)"/>
      <path id="DejaVuSans-Oblique-3bb" d="M 2350 4316 
L 3125 0 
L 2516 0 
L 2038 2588 
L 328 0 
L -281 0 
L 1903 3356 
L 1794 3975 
Q 1725 4369 1391 4369 
L 1091 4369 
L 1184 4863 
L 1550 4856 
Q 2253 4847 2350 4316 
z
" transform="scale(0.015625)"/>
      <path id="DejaVuSans-29" d="M 513 4856 
L 1013 4856 
Q 1481 4119 1714 3412 
Q 1947 2706 1947 2009 
Q 1947 1309 1714 600 
Q 1481 -109 1013 -844 
L 513 -844 
Q 928 -128 1133 580 
Q 1338 1288 1338 2009 
Q 1338 2731 1133 3434 
Q 928 4138 513 4856 
z
" transform="scale(0.015625)"/>
     </defs>
     <use xlink:href="#DejaVuSans-Oblique-70" transform="translate(0 0.015625)"/>
     <use xlink:href="#DejaVuSans-28" transform="translate(63.476562 0.015625)"/>
     <use xlink:href="#DejaVuSans-Oblique-3bb" transform="translate(102.490234 0.015625)"/>
     <use xlink:href="#DejaVuSans-29" transform="translate(161.669922 0.015625)"/>
    </g>
   </g>
   <g id="text_17">
    <!-- nearly exact -->
    <g style="fill: #1d4ed8" transform="translate(96.857815 208.805019) scale(0.1 -0.1)">
     <defs>
      <path id="DejaVuSans-6c" d="M 603 4863 
L 1178 4863 
L 1178 0 
L 603 0 
L 603 4863 
z
" transform="scale(0.015625)"/>
      <path id="DejaVuSans-79" d="M 2059 -325 
Q 1816 -950 1584 -1140 
Q 1353 -1331 966 -1331 
L 506 -1331 
L 506 -850 
L 844 -850 
Q 1081 -850 1212 -737 
Q 1344 -625 1503 -206 
L 1606 56 
L 191 3500 
L 800 3500 
L 1894 763 
L 2988 3500 
L 3597 3500 
L 2059 -325 
z
" transform="scale(0.015625)"/>
      <path id="DejaVuSans-78" d="M 3513 3500 
L 2247 1797 
L 3578 0 
L 2900 0 
L 1881 1375 
L 863 0 
L 184 0 
L 1544 1831 
L 300 3500 
L 978 3500 
L 1906 2253 
L 2834 3500 
L 3513 3500 
z
" transform="scale(0.015625)"/>
     </defs>
     <use xlink:href="#DejaVuSans-6e"/>
     <use xlink:href="#DejaVuSans-65" transform="translate(63.378906 0)"/>
     <use xlink:href="#DejaVuSans-61" transform="translate(124.902344 0)"/>
     <use xlink:href="#DejaVuSans-72" transform="translate(186.181641 0)"/>
     <use xlink:href="#DejaVuSans-6c" transform="translate(227.294922 0)"/>
     <use xlink:href="#DejaVuSans-79" transform="translate(255.078125 0)"/>
     <use xlink:href="#DejaVuSans-20" transform="translate(314.257812 0)"/>
     <use xlink:href="#DejaVuSans-65" transform="translate(346.044922 0)"/>
     <use xlink:href="#DejaVuSans-78" transform="translate(405.818359 0)"/>
     <use xlink:href="#DejaVuSans-61" transform="translate(464.998047 0)"/>
     <use xlink:href="#DejaVuSans-63" transform="translate(526.277344 0)"/>
     <use xlink:href="#DejaVuSans-74" transform="translate(581.257812 0)"/>
    </g>
    <!-- boundary step -->
    <g style="fill: #1d4ed8" transform="translate(96.857815 220.002832) scale(0.1 -0.1)">
     <defs>
      <path id="DejaVuSans-62" d="M 3116 1747 
Q 3116 2381 2855 2742 
Q 2594 3103 2138 3103 
Q 1681 3103 1420 2742 
Q 1159 2381 1159 1747 
Q 1159 1113 1420 752 
Q 1681 391 2138 391 
Q 2594 391 2855 752 
Q 3116 1113 3116 1747 
z
M 1159 2969 
Q 1341 3281 1617 3432 
Q 1894 3584 2278 3584 
Q 2916 3584 3314 3078 
Q 3713 2572 3713 1747 
Q 3713 922 3314 415 
Q 2916 -91 2278 -91 
Q 1894 -91 1617 61 
Q 1341 213 1159 525 
L 1159 0 
L 581 0 
L 581 4863 
L 1159 4863 
L 1159 2969 
z
" transform="scale(0.015625)"/>
      <path id="DejaVuSans-75" d="M 544 1381 
L 544 3500 
L 1119 3500 
L 1119 1403 
Q 1119 906 1312 657 
Q 1506 409 1894 409 
Q 2359 409 2629 706 
Q 2900 1003 2900 1516 
L 2900 3500 
L 3475 3500 
L 3475 0 
L 2900 0 
L 2900 538 
Q 2691 219 2414 64 
Q 2138 -91 1772 -91 
Q 1169 -91 856 284 
Q 544 659 544 1381 
z
M 1991 3584 
L 1991 3584 
z
" transform="scale(0.015625)"/>
     </defs>
     <use xlink:href="#DejaVuSans-62"/>
     <use xlink:href="#DejaVuSans-6f" transform="translate(63.476562 0)"/>
     <use xlink:href="#DejaVuSans-75" transform="translate(124.658203 0)"/>
     <use xlink:href="#DejaVuSans-6e" transform="translate(188.037109 0)"/>
     <use xlink:href="#DejaVuSans-64" transform="translate(251.416016 0)"/>
     <use xlink:href="#DejaVuSans-61" transform="translate(314.892578 0)"/>
     <use xlink:href="#DejaVuSans-72" transform="translate(376.171875 0)"/>
     <use xlink:href="#DejaVuSans-79" transform="translate(417.285156 0)"/>
     <use xlink:href="#DejaVuSans-20" transform="translate(476.464844 0)"/>
     <use xlink:href="#DejaVuSans-73" transform="translate(508.251953 0)"/>
     <use xlink:href="#DejaVuSans-74" transform="translate(560.351562 0)"/>
     <use xlink:href="#DejaVuSans-65" transform="translate(599.560547 0)"/>
     <use xlink:href="#DejaVuSans-70" transform="translate(661.083984 0)"/>
    </g>
   </g>
   <g id="text_18">
    <!-- Newton step -->
    <g style="fill: #92400e" transform="translate(198.493241 52.167287) scale(0.1 -0.1)">
     <defs>
      <path id="DejaVuSans-4e" d="M 628 4666 
L 1478 4666 
L 3547 763 
L 3547 4666 
L 4159 4666 
L 4159 0 
L 3309 0 
L 1241 3903 
L 1241 0 
L 628 0 
L 628 4666 
z
" transform="scale(0.015625)"/>
      <path id="DejaVuSans-77" d="M 269 3500 
L 844 3500 
L 1563 769 
L 2278 3500 
L 2956 3500 
L 3675 769 
L 4391 3500 
L 4966 3500 
L 4050 0 
L 3372 0 
L 2619 2869 
L 1863 0 
L 1184 0 
L 269 3500 
z
" transform="scale(0.015625)"/>
     </defs>
     <use xlink:href="#DejaVuSans-4e"/>
     <use xlink:href="#DejaVuSans-65" transform="translate(74.804688 0)"/>
     <use xlink:href="#DejaVuSans-77" transform="translate(136.328125 0)"/>
     <use xlink:href="#DejaVuSans-74" transform="translate(218.115234 0)"/>
     <use xlink:href="#DejaVuSans-6f" transform="translate(257.324219 0)"/>
     <use xlink:href="#DejaVuSans-6e" transform="translate(318.505859 0)"/>
     <use xlink:href="#DejaVuSans-20" transform="translate(381.884766 0)"/>
     <use xlink:href="#DejaVuSans-73" transform="translate(413.671875 0)"/>
     <use xlink:href="#DejaVuSans-74" transform="translate(465.771484 0)"/>
     <use xlink:href="#DejaVuSans-65" transform="translate(504.980469 0)"/>
     <use xlink:href="#DejaVuSans-70" transform="translate(566.503906 0)"/>
    </g>
    <!-- outside radius -->
    <g style="fill: #92400e" transform="translate(198.493241 63.3651) scale(0.1 -0.1)">
     <use xlink:href="#DejaVuSans-6f"/>
     <use xlink:href="#DejaVuSans-75" transform="translate(61.181641 0)"/>
     <use xlink:href="#DejaVuSans-74" transform="translate(124.560547 0)"/>
     <use xlink:href="#DejaVuSans-73" transform="translate(163.769531 0)"/>
     <use xlink:href="#DejaVuSans-69" transform="translate(215.869141 0)"/>
     <use xlink:href="#DejaVuSans-64" transform="translate(243.652344 0)"/>
     <use xlink:href="#DejaVuSans-65" transform="translate(307.128906 0)"/>
     <use xlink:href="#DejaVuSans-20" transform="translate(368.652344 0)"/>
     <use xlink:href="#DejaVuSans-72" transform="translate(400.439453 0)"/>
     <use xlink:href="#DejaVuSans-61" transform="translate(441.552734 0)"/>
     <use xlink:href="#DejaVuSans-64" transform="translate(502.832031 0)"/>
     <use xlink:href="#DejaVuSans-69" transform="translate(566.308594 0)"/>
     <use xlink:href="#DejaVuSans-75" transform="translate(594.091797 0)"/>
     <use xlink:href="#DejaVuSans-73" transform="translate(657.470703 0)"/>
    </g>
   </g>
   <g id="text_19">
    <!-- steepest -->
    <g style="fill: #475569" transform="translate(90.975953 294.411545) scale(0.1 -0.1)">
     <use xlink:href="#DejaVuSans-73"/>
     <use xlink:href="#DejaVuSans-74" transform="translate(52.099609 0)"/>
     <use xlink:href="#DejaVuSans-65" transform="translate(91.308594 0)"/>
     <use xlink:href="#DejaVuSans-65" transform="translate(152.832031 0)"/>
     <use xlink:href="#DejaVuSans-70" transform="translate(214.355469 0)"/>
     <use xlink:href="#DejaVuSans-65" transform="translate(277.832031 0)"/>
     <use xlink:href="#DejaVuSans-73" transform="translate(339.355469 0)"/>
     <use xlink:href="#DejaVuSans-74" transform="translate(391.455078 0)"/>
    </g>
    <!-- boundary step -->
    <g style="fill: #475569" transform="translate(90.975953 305.609358) scale(0.1 -0.1)">
     <use xlink:href="#DejaVuSans-62"/>
     <use xlink:href="#DejaVuSans-6f" transform="translate(63.476562 0)"/>
     <use xlink:href="#DejaVuSans-75" transform="translate(124.658203 0)"/>
     <use xlink:href="#DejaVuSans-6e" transform="translate(188.037109 0)"/>
     <use xlink:href="#DejaVuSans-64" transform="translate(251.416016 0)"/>
     <use xlink:href="#DejaVuSans-61" transform="translate(314.892578 0)"/>
     <use xlink:href="#DejaVuSans-72" transform="translate(376.171875 0)"/>
     <use xlink:href="#DejaVuSans-79" transform="translate(417.285156 0)"/>
     <use xlink:href="#DejaVuSans-20" transform="translate(476.464844 0)"/>
     <use xlink:href="#DejaVuSans-73" transform="translate(508.251953 0)"/>
     <use xlink:href="#DejaVuSans-74" transform="translate(560.351562 0)"/>
     <use xlink:href="#DejaVuSans-65" transform="translate(599.560547 0)"/>
     <use xlink:href="#DejaVuSans-70" transform="translate(661.083984 0)"/>
    </g>
   </g>
   <g id="text_20">
    <!-- trust boundary -->
    <g style="fill: #1d4ed8" transform="translate(114.870186 348.969614) scale(0.1 -0.1)">
     <use xlink:href="#DejaVuSans-74"/>
     <use xlink:href="#DejaVuSans-72" transform="translate(39.208984 0)"/>
     <use xlink:href="#DejaVuSans-75" transform="translate(80.322266 0)"/>
     <use xlink:href="#DejaVuSans-73" transform="translate(143.701172 0)"/>
     <use xlink:href="#DejaVuSans-74" transform="translate(195.800781 0)"/>
     <use xlink:href="#DejaVuSans-20" transform="translate(235.009766 0)"/>
     <use xlink:href="#DejaVuSans-62" transform="translate(266.796875 0)"/>
     <use xlink:href="#DejaVuSans-6f" transform="translate(330.273438 0)"/>
     <use xlink:href="#DejaVuSans-75" transform="translate(391.455078 0)"/>
     <use xlink:href="#DejaVuSans-6e" transform="translate(454.833984 0)"/>
     <use xlink:href="#DejaVuSans-64" transform="translate(518.212891 0)"/>
     <use xlink:href="#DejaVuSans-61" transform="translate(581.689453 0)"/>
     <use xlink:href="#DejaVuSans-72" transform="translate(642.96875 0)"/>
     <use xlink:href="#DejaVuSans-79" transform="translate(684.082031 0)"/>
    </g>
   </g>
   <g id="text_21">
    <g id="patch_6">
     <path d="M 189.707233 399.894612 
L 281.607233 399.894612 
Q 285.107233 399.894612 285.107233 396.394612 
L 285.107233 375.354612 
Q 285.107233 371.854612 281.607233 371.854612 
L 189.707233 371.854612 
Q 186.207233 371.854612 186.207233 375.354612 
L 186.207233 396.394612 
Q 186.207233 399.894612 189.707233 399.894612 
z
" style="fill: #ffffff; stroke: #cbd5e1; stroke-linejoin: miter"/>
    </g>
    <!-- $(H+\lambda I)p=-g$ -->
    <g style="fill: #374151" transform="translate(211.707233 382.654612) scale(0.1 -0.1)">
     <defs>
      <path id="DejaVuSans-Oblique-48" d="M 1081 4666 
L 1716 4666 
L 1344 2753 
L 3634 2753 
L 4006 4666 
L 4641 4666 
L 3731 0 
L 3097 0 
L 3531 2222 
L 1241 2222 
L 806 0 
L 172 0 
L 1081 4666 
z
" transform="scale(0.015625)"/>
      <path id="DejaVuSans-2b" d="M 2944 4013 
L 2944 2272 
L 4684 2272 
L 4684 1741 
L 2944 1741 
L 2944 0 
L 2419 0 
L 2419 1741 
L 678 1741 
L 678 2272 
L 2419 2272 
L 2419 4013 
L 2944 4013 
z
" transform="scale(0.015625)"/>
      <path id="DejaVuSans-Oblique-49" d="M 1081 4666 
L 1716 4666 
L 806 0 
L 172 0 
L 1081 4666 
z
" transform="scale(0.015625)"/>
      <path id="DejaVuSans-Oblique-67" d="M 3816 3500 
L 3219 434 
Q 3047 -456 2561 -893 
Q 2075 -1331 1253 -1331 
Q 950 -1331 690 -1286 
Q 431 -1241 206 -1147 
L 313 -588 
Q 525 -725 762 -790 
Q 1000 -856 1269 -856 
Q 1816 -856 2167 -557 
Q 2519 -259 2631 300 
L 2681 563 
Q 2441 288 2122 144 
Q 1803 0 1434 0 
Q 903 0 598 351 
Q 294 703 294 1319 
Q 294 1803 478 2267 
Q 663 2731 997 3091 
Q 1219 3328 1514 3456 
Q 1809 3584 2131 3584 
Q 2484 3584 2746 3420 
Q 3009 3256 3138 2956 
L 3238 3500 
L 3816 3500 
z
M 2950 2216 
Q 2950 2641 2750 2872 
Q 2550 3103 2181 3103 
Q 1953 3103 1747 3012 
Q 1541 2922 1394 2759 
Q 1156 2491 1023 2127 
Q 891 1763 891 1375 
Q 891 944 1092 712 
Q 1294 481 1672 481 
Q 2219 481 2584 976 
Q 2950 1472 2950 2216 
z
" transform="scale(0.015625)"/>
     </defs>
     <use xlink:href="#DejaVuSans-28" transform="translate(0 0.015625)"/>
     <use xlink:href="#DejaVuSans-Oblique-48" transform="translate(39.013672 0.015625)"/>
     <use xlink:href="#DejaVuSans-2b" transform="translate(133.691406 0.015625)"/>
     <use xlink:href="#DejaVuSans-Oblique-3bb" transform="translate(236.962891 0.015625)"/>
     <use xlink:href="#DejaVuSans-Oblique-49" transform="translate(296.142578 0.015625)"/>
     <use xlink:href="#DejaVuSans-29" transform="translate(325.634766 0.015625)"/>
     <use xlink:href="#DejaVuSans-Oblique-70" transform="translate(364.648438 0.015625)"/>
     <use xlink:href="#DejaVuSans-3d" transform="translate(447.607422 0.015625)"/>
     <use xlink:href="#DejaVuSans-2212" transform="translate(550.878906 0.015625)"/>
     <use xlink:href="#DejaVuSans-Oblique-67" transform="translate(634.667969 0.015625)"/>
    </g>
    <!-- $\lambda=134.5$,  $\|p\|=\Delta$ -->
    <g style="fill: #374151" transform="translate(189.707233 393.994612) scale(0.1 -0.1)">
     <defs>
      <path id="DejaVuSans-33" d="M 2597 2516 
Q 3050 2419 3304 2112 
Q 3559 1806 3559 1356 
Q 3559 666 3084 287 
Q 2609 -91 1734 -91 
Q 1441 -91 1130 -33 
Q 819 25 488 141 
L 488 750 
Q 750 597 1062 519 
Q 1375 441 1716 441 
Q 2309 441 2620 675 
Q 2931 909 2931 1356 
Q 2931 1769 2642 2001 
Q 2353 2234 1838 2234 
L 1294 2234 
L 1294 2753 
L 1863 2753 
Q 2328 2753 2575 2939 
Q 2822 3125 2822 3475 
Q 2822 3834 2567 4026 
Q 2313 4219 1838 4219 
Q 1578 4219 1281 4162 
Q 984 4106 628 3988 
L 628 4550 
Q 988 4650 1302 4700 
Q 1616 4750 1894 4750 
Q 2613 4750 3031 4423 
Q 3450 4097 3450 3541 
Q 3450 3153 3228 2886 
Q 3006 2619 2597 2516 
z
" transform="scale(0.015625)"/>
      <path id="DejaVuSans-35" d="M 691 4666 
L 3169 4666 
L 3169 4134 
L 1269 4134 
L 1269 2991 
Q 1406 3038 1543 3061 
Q 1681 3084 1819 3084 
Q 2600 3084 3056 2656 
Q 3513 2228 3513 1497 
Q 3513 744 3044 326 
Q 2575 -91 1722 -91 
Q 1428 -91 1123 -41 
Q 819 9 494 109 
L 494 744 
Q 775 591 1075 516 
Q 1375 441 1709 441 
Q 2250 441 2565 725 
Q 2881 1009 2881 1497 
Q 2881 1984 2565 2268 
Q 2250 2553 1709 2553 
Q 1456 2553 1204 2497 
Q 953 2441 691 2322 
L 691 4666 
z
" transform="scale(0.015625)"/>
      <path id="DejaVuSans-2c" d="M 750 794 
L 1409 794 
L 1409 256 
L 897 -744 
L 494 -744 
L 750 256 
L 750 794 
z
" transform="scale(0.015625)"/>
      <path id="DejaVuSans-2016" d="M 1344 4891 
L 1344 -1509 
L 813 -1509 
L 813 4891 
L 1344 4891 
z
M 2376 4891 
L 2376 -1509 
L 1845 -1509 
L 1845 4891 
L 2376 4891 
z
" transform="scale(0.015625)"/>
      <path id="DejaVuSans-394" d="M 2188 4044 
L 906 525 
L 3472 525 
L 2188 4044 
z
M 50 0 
L 1831 4666 
L 2547 4666 
L 4325 0 
L 50 0 
z
" transform="scale(0.015625)"/>
     </defs>
     <use xlink:href="#DejaVuSans-Oblique-3bb" transform="translate(0 0.578125)"/>
     <use xlink:href="#DejaVuSans-3d" transform="translate(78.662109 0.578125)"/>
     <use xlink:href="#DejaVuSans-31" transform="translate(181.933594 0.578125)"/>
     <use xlink:href="#DejaVuSans-33" transform="translate(245.556641 0.578125)"/>
     <use xlink:href="#DejaVuSans-34" transform="translate(309.179688 0.578125)"/>
     <use xlink:href="#DejaVuSans-2e" transform="translate(372.802734 0.578125)"/>
     <use xlink:href="#DejaVuSans-35" transform="translate(404.589844 0.578125)"/>
     <use xlink:href="#DejaVuSans-2c" transform="translate(468.212891 0.578125)"/>
     <use xlink:href="#DejaVuSans-20" transform="translate(500 0.578125)"/>
     <use xlink:href="#DejaVuSans-20" transform="translate(531.787109 0.578125)"/>
     <use xlink:href="#DejaVuSans-2016" transform="translate(563.574219 0.578125)"/>
     <use xlink:href="#DejaVuSans-Oblique-70" transform="translate(613.574219 0.578125)"/>
     <use xlink:href="#DejaVuSans-2016" transform="translate(677.050781 0.578125)"/>
     <use xlink:href="#DejaVuSans-3d" transform="translate(746.533203 0.578125)"/>
     <use xlink:href="#DejaVuSans-394" transform="translate(849.804688 0.578125)"/>
    </g>
   </g>
   <g id="text_22">
    <!-- Nearly exact solve of one trust-region subproblem -->
    <g transform="translate(7.2 17.837812) scale(0.14 -0.14)">
     <defs>
      <path id="DejaVuSans-76" d="M 191 3500 
L 800 3500 
L 1894 563 
L 2988 3500 
L 3597 3500 
L 2284 0 
L 1503 0 
L 191 3500 
z
" transform="scale(0.015625)"/>
      <path id="DejaVuSans-66" d="M 2375 4863 
L 2375 4384 
L 1825 4384 
Q 1516 4384 1395 4259 
Q 1275 4134 1275 3809 
L 1275 3500 
L 2222 3500 
L 2222 3053 
L 1275 3053 
L 1275 0 
L 697 0 
L 697 3053 
L 147 3053 
L 147 3500 
L 697 3500 
L 697 3744 
Q 697 4328 969 4595 
Q 1241 4863 1831 4863 
L 2375 4863 
z
" transform="scale(0.015625)"/>
      <path id="DejaVuSans-2d" d="M 313 2009 
L 1997 2009 
L 1997 1497 
L 313 1497 
L 313 2009 
z
" transform="scale(0.015625)"/>
      <path id="DejaVuSans-67" d="M 2906 1791 
Q 2906 2416 2648 2759 
Q 2391 3103 1925 3103 
Q 1463 3103 1205 2759 
Q 947 2416 947 1791 
Q 947 1169 1205 825 
Q 1463 481 1925 481 
Q 2391 481 2648 825 
Q 2906 1169 2906 1791 
z
M 3481 434 
Q 3481 -459 3084 -895 
Q 2688 -1331 1869 -1331 
Q 1566 -1331 1297 -1286 
Q 1028 -1241 775 -1147 
L 775 -588 
Q 1028 -725 1275 -790 
Q 1522 -856 1778 -856 
Q 2344 -856 2625 -561 
Q 2906 -266 2906 331 
L 2906 616 
Q 2728 306 2450 153 
Q 2172 0 1784 0 
Q 1141 0 747 490 
Q 353 981 353 1791 
Q 353 2603 747 3093 
Q 1141 3584 1784 3584 
Q 2172 3584 2450 3431 
Q 2728 3278 2906 2969 
L 2906 3500 
L 3481 3500 
L 3481 434 
z
" transform="scale(0.015625)"/>
      <path id="DejaVuSans-6d" d="M 3328 2828 
Q 3544 3216 3844 3400 
Q 4144 3584 4550 3584 
Q 5097 3584 5394 3201 
Q 5691 2819 5691 2113 
L 5691 0 
L 5113 0 
L 5113 2094 
Q 5113 2597 4934 2840 
Q 4756 3084 4391 3084 
Q 3944 3084 3684 2787 
Q 3425 2491 3425 1978 
L 3425 0 
L 2847 0 
L 2847 2094 
Q 2847 2600 2669 2842 
Q 2491 3084 2119 3084 
Q 1678 3084 1418 2786 
Q 1159 2488 1159 1978 
L 1159 0 
L 581 0 
L 581 3500 
L 1159 3500 
L 1159 2956 
Q 1356 3278 1631 3431 
Q 1906 3584 2284 3584 
Q 2666 3584 2933 3390 
Q 3200 3197 3328 2828 
z
" transform="scale(0.015625)"/>
     </defs>
     <use xlink:href="#DejaVuSans-4e"/>
     <use xlink:href="#DejaVuSans-65" transform="translate(74.804688 0)"/>
     <use xlink:href="#DejaVuSans-61" transform="translate(136.328125 0)"/>
     <use xlink:href="#DejaVuSans-72" transform="translate(197.607422 0)"/>
     <use xlink:href="#DejaVuSans-6c" transform="translate(238.720703 0)"/>
     <use xlink:href="#DejaVuSans-79" transform="translate(266.503906 0)"/>
     <use xlink:href="#DejaVuSans-20" transform="translate(325.683594 0)"/>
     <use xlink:href="#DejaVuSans-65" transform="translate(357.470703 0)"/>
     <use xlink:href="#DejaVuSans-78" transform="translate(417.244141 0)"/>
     <use xlink:href="#DejaVuSans-61" transform="translate(476.423828 0)"/>
     <use xlink:href="#DejaVuSans-63" transform="translate(537.703125 0)"/>
     <use xlink:href="#DejaVuSans-74" transform="translate(592.683594 0)"/>
     <use xlink:href="#DejaVuSans-20" transform="translate(631.892578 0)"/>
     <use xlink:href="#DejaVuSans-73" transform="translate(663.679688 0)"/>
     <use xlink:href="#DejaVuSans-6f" transform="translate(715.779297 0)"/>
     <use xlink:href="#DejaVuSans-6c" transform="translate(776.960938 0)"/>
     <use xlink:href="#DejaVuSans-76" transform="translate(804.744141 0)"/>
     <use xlink:href="#DejaVuSans-65" transform="translate(863.923828 0)"/>
     <use xlink:href="#DejaVuSans-20" transform="translate(925.447266 0)"/>
     <use xlink:href="#DejaVuSans-6f" transform="translate(957.234375 0)"/>
     <use xlink:href="#DejaVuSans-66" transform="translate(1018.416016 0)"/>
     <use xlink:href="#DejaVuSans-20" transform="translate(1053.621094 0)"/>
     <use xlink:href="#DejaVuSans-6f" transform="translate(1085.408203 0)"/>
     <use xlink:href="#DejaVuSans-6e" transform="translate(1146.589844 0)"/>
     <use xlink:href="#DejaVuSans-65" transform="translate(1209.96875 0)"/>
     <use xlink:href="#DejaVuSans-20" transform="translate(1271.492188 0)"/>
     <use xlink:href="#DejaVuSans-74" transform="translate(1303.279297 0)"/>
     <use xlink:href="#DejaVuSans-72" transform="translate(1342.488281 0)"/>
     <use xlink:href="#DejaVuSans-75" transform="translate(1383.601562 0)"/>
     <use xlink:href="#DejaVuSans-73" transform="translate(1446.980469 0)"/>
     <use xlink:href="#DejaVuSans-74" transform="translate(1499.080078 0)"/>
     <use xlink:href="#DejaVuSans-2d" transform="translate(1538.289062 0)"/>
     <use xlink:href="#DejaVuSans-72" transform="translate(1574.373047 0)"/>
     <use xlink:href="#DejaVuSans-65" transform="translate(1613.236328 0)"/>
     <use xlink:href="#DejaVuSans-67" transform="translate(1674.759766 0)"/>
     <use xlink:href="#DejaVuSans-69" transform="translate(1738.236328 0)"/>
     <use xlink:href="#DejaVuSans-6f" transform="translate(1766.019531 0)"/>
     <use xlink:href="#DejaVuSans-6e" transform="translate(1827.201172 0)"/>
     <use xlink:href="#DejaVuSans-20" transform="translate(1890.580078 0)"/>
     <use xlink:href="#DejaVuSans-73" transform="translate(1922.367188 0)"/>
     <use xlink:href="#DejaVuSans-75" transform="translate(1974.466797 0)"/>
     <use xlink:href="#DejaVuSans-62" transform="translate(2037.845703 0)"/>
     <use xlink:href="#DejaVuSans-70" transform="translate(2101.322266 0)"/>
     <use xlink:href="#DejaVuSans-72" transform="translate(2164.798828 0)"/>
     <use xlink:href="#DejaVuSans-6f" transform="translate(2203.662109 0)"/>
     <use xlink:href="#DejaVuSans-62" transform="translate(2264.84375 0)"/>
     <use xlink:href="#DejaVuSans-6c" transform="translate(2328.320312 0)"/>
     <use xlink:href="#DejaVuSans-65" transform="translate(2356.103516 0)"/>
     <use xlink:href="#DejaVuSans-6d" transform="translate(2417.626953 0)"/>
    </g>
   </g>
   <g id="PathCollection_1">
    <defs>
     <path id="m6714b897aa" d="M 0 -6.708204 
L -1.506086 -2.072949 
L -6.379881 -2.072949 
L -2.436898 0.791796 
L -3.942983 5.427051 
L -0 2.562306 
L 3.942983 5.427051 
L 2.436898 0.791796 
L 6.379881 -2.072949 
L 1.506086 -2.072949 
z
" style="stroke: #111827; stroke-width: 0.5"/>
    </defs>
    <g clip-path="url(#pc5f6560c21)">
     <use xlink:href="#m6714b897aa" x="191.081875" y="63.3651" style="fill: #f59e0b; stroke: #111827; stroke-width: 0.5"/>
    </g>
   </g>
   <g id="PathCollection_2">
    <defs>
     <path id="m1826a69f54" d="M 0 3.24037 
C 0.859356 3.24037 1.683631 2.898944 2.291288 2.291288 
C 2.898944 1.683631 3.24037 0.859356 3.24037 0 
C 3.24037 -0.859356 2.898944 -1.683631 2.291288 -2.291288 
C 1.683631 -2.898944 0.859356 -3.24037 0 -3.24037 
C -0.859356 -3.24037 -1.683631 -2.898944 -2.291288 -2.291288 
C -2.898944 -1.683631 -3.24037 -0.859356 -3.24037 0 
C -3.24037 0.859356 -2.898944 1.683631 -2.291288 2.291288 
C -1.683631 2.898944 -0.859356 3.24037 0 3.24037 
z
" style="stroke: #111827"/>
    </defs>
    <g clip-path="url(#pc5f6560c21)">
     <use xlink:href="#m1826a69f54" x="191.454305" y="306.971871" style="fill: #111827; stroke: #111827"/>
    </g>
   </g>
  </g>
 </g>
 <defs>
  <clipPath id="pc5f6560c21">
   <rect x="78.623675" y="23.837812" width="209.2614" height="388.08"/>
  </clipPath>
 </defs>
</svg>
